%
M48
M72
T01C0.02362
T02C0.03150
T03C0.03200
T04C0.03504
T05C0.03543
T06C0.03937
T07C0.04000
T08C0.04400
T09C0.07913
T10C0.08661
T11C0.13000
%
T01
X69100Y6800
X69100Y14300
X69100Y21800
X69100Y29300
X69100Y36800
X69100Y44300
X69100Y51800
X69100Y59300
X69100Y69300
X69100Y76800
X69100Y84300
X69100Y91800
X69100Y101800
X69100Y106800
X69100Y114300
X69100Y121800
X69100Y129300
X69100Y136800
X69100Y144300
X69100Y151800
T02
X79100Y31800
X89100Y31800
X89100Y41800
X79100Y41800
T03
X39100Y101800
X39100Y91800
X39100Y81800
X39100Y71800
X9100Y71800
X9100Y81800
X9100Y91800
X9100Y101800
X239100Y104300
X239100Y114300
X239100Y124300
X239100Y134300
X269100Y134300
X269100Y124300
X269100Y114300
X281600Y114300
X299100Y109300
X299100Y119300
X299100Y129300
X299100Y139300
X329100Y139300
X329100Y129300
X329100Y119300
X344100Y111800
X329100Y109300
X344100Y91800
X281600Y94300
X269100Y104300
T04
X44100Y34300
X34100Y34300
X319100Y34300
X329100Y34300
T05
X101600Y56800
X61600Y106800
X51600Y106800
X61600Y136800
X51600Y136800
X36600Y151800
X6600Y151800
X101600Y86800
X199100Y99300
X214100Y99300
X226600Y99300
X289100Y71800
X314100Y79300
X319100Y71800
X344100Y79300
X344100Y119300
X286600Y121800
X226600Y129300
X214100Y129300
X199100Y129300
X244100Y149300
X274100Y149300
X286600Y151800
X301600Y151800
X331600Y151800
X344100Y149300
T06
X96600Y116800
X106600Y116800
X116600Y116800
X126600Y116800
X136600Y116800
X146600Y116800
X156600Y116800
X166600Y116800
X166600Y106800
X156600Y106800
X146600Y106800
X136600Y106800
X126600Y106800
X116600Y106800
X106600Y106800
X96600Y106800
T07
X79100Y16800
X89100Y16800
X86600Y64300
X56600Y74300
X56600Y84300
X56600Y94300
X81600Y141800
X91600Y141800
X111600Y141800
X121600Y141800
X141600Y141800
X151600Y141800
X171605Y141582
X181595Y142018
X199100Y146800
X214100Y146800
X231600Y146800
X181600Y81800
X181600Y71800
X181600Y61800
X86600Y74300
X86600Y84300
X39100Y119300
X29100Y119300
X19100Y119300
X9100Y119300
X14100Y136800
X24100Y136800
X34100Y136800
X54100Y149300
T08
X181600Y36800
X181600Y26800
X181600Y16800
X276600Y61800
X276600Y71800
X276600Y81800
X286600Y86800
X291600Y96800
X326600Y86800
X331600Y96800
X276600Y36800
X276600Y26800
X276600Y16800
T09
X14100Y14300
X54100Y54300
X299100Y14300
X339100Y54300
T10
X86600Y51800
X266600Y51800
T11
X122600Y71800
X207600Y71800
X207600Y26800
X112600Y26800
M30
