G75*
%MOIN*%
%OFA0B0*%
%FSLAX25Y25*%
%IPPOS*%
%LPD*%
%AMOC8*
5,1,8,0,0,1.08239X$1,22.5*
%
%ADD10C,0.00000*%
%ADD11C,0.00300*%
%ADD12C,0.00100*%
%ADD13C,0.01600*%
%ADD14C,0.00200*%
%ADD15C,0.00500*%
%ADD16C,0.00600*%
%ADD17C,0.00400*%
%ADD18R,0.03500X0.05000*%
%ADD19C,0.00800*%
%ADD20R,0.02000X0.10000*%
%ADD21R,0.07500X0.03000*%
%ADD22C,0.01200*%
%ADD23R,0.02500X0.03000*%
%ADD24R,0.11000X0.05000*%
D10*
X0001600Y0001800D02*
X0001600Y0156761D01*
X0350301Y0156761D01*
X0350301Y0001800D01*
X0001600Y0001800D01*
X0067919Y0006800D02*
X0067921Y0006869D01*
X0067927Y0006937D01*
X0067937Y0007005D01*
X0067951Y0007072D01*
X0067969Y0007139D01*
X0067990Y0007204D01*
X0068016Y0007268D01*
X0068045Y0007330D01*
X0068077Y0007390D01*
X0068113Y0007449D01*
X0068153Y0007505D01*
X0068195Y0007559D01*
X0068241Y0007610D01*
X0068290Y0007659D01*
X0068341Y0007705D01*
X0068395Y0007747D01*
X0068451Y0007787D01*
X0068509Y0007823D01*
X0068570Y0007855D01*
X0068632Y0007884D01*
X0068696Y0007910D01*
X0068761Y0007931D01*
X0068828Y0007949D01*
X0068895Y0007963D01*
X0068963Y0007973D01*
X0069031Y0007979D01*
X0069100Y0007981D01*
X0069169Y0007979D01*
X0069237Y0007973D01*
X0069305Y0007963D01*
X0069372Y0007949D01*
X0069439Y0007931D01*
X0069504Y0007910D01*
X0069568Y0007884D01*
X0069630Y0007855D01*
X0069690Y0007823D01*
X0069749Y0007787D01*
X0069805Y0007747D01*
X0069859Y0007705D01*
X0069910Y0007659D01*
X0069959Y0007610D01*
X0070005Y0007559D01*
X0070047Y0007505D01*
X0070087Y0007449D01*
X0070123Y0007390D01*
X0070155Y0007330D01*
X0070184Y0007268D01*
X0070210Y0007204D01*
X0070231Y0007139D01*
X0070249Y0007072D01*
X0070263Y0007005D01*
X0070273Y0006937D01*
X0070279Y0006869D01*
X0070281Y0006800D01*
X0070279Y0006731D01*
X0070273Y0006663D01*
X0070263Y0006595D01*
X0070249Y0006528D01*
X0070231Y0006461D01*
X0070210Y0006396D01*
X0070184Y0006332D01*
X0070155Y0006270D01*
X0070123Y0006209D01*
X0070087Y0006151D01*
X0070047Y0006095D01*
X0070005Y0006041D01*
X0069959Y0005990D01*
X0069910Y0005941D01*
X0069859Y0005895D01*
X0069805Y0005853D01*
X0069749Y0005813D01*
X0069691Y0005777D01*
X0069630Y0005745D01*
X0069568Y0005716D01*
X0069504Y0005690D01*
X0069439Y0005669D01*
X0069372Y0005651D01*
X0069305Y0005637D01*
X0069237Y0005627D01*
X0069169Y0005621D01*
X0069100Y0005619D01*
X0069031Y0005621D01*
X0068963Y0005627D01*
X0068895Y0005637D01*
X0068828Y0005651D01*
X0068761Y0005669D01*
X0068696Y0005690D01*
X0068632Y0005716D01*
X0068570Y0005745D01*
X0068509Y0005777D01*
X0068451Y0005813D01*
X0068395Y0005853D01*
X0068341Y0005895D01*
X0068290Y0005941D01*
X0068241Y0005990D01*
X0068195Y0006041D01*
X0068153Y0006095D01*
X0068113Y0006151D01*
X0068077Y0006209D01*
X0068045Y0006270D01*
X0068016Y0006332D01*
X0067990Y0006396D01*
X0067969Y0006461D01*
X0067951Y0006528D01*
X0067937Y0006595D01*
X0067927Y0006663D01*
X0067921Y0006731D01*
X0067919Y0006800D01*
X0067919Y0014300D02*
X0067921Y0014369D01*
X0067927Y0014437D01*
X0067937Y0014505D01*
X0067951Y0014572D01*
X0067969Y0014639D01*
X0067990Y0014704D01*
X0068016Y0014768D01*
X0068045Y0014830D01*
X0068077Y0014890D01*
X0068113Y0014949D01*
X0068153Y0015005D01*
X0068195Y0015059D01*
X0068241Y0015110D01*
X0068290Y0015159D01*
X0068341Y0015205D01*
X0068395Y0015247D01*
X0068451Y0015287D01*
X0068509Y0015323D01*
X0068570Y0015355D01*
X0068632Y0015384D01*
X0068696Y0015410D01*
X0068761Y0015431D01*
X0068828Y0015449D01*
X0068895Y0015463D01*
X0068963Y0015473D01*
X0069031Y0015479D01*
X0069100Y0015481D01*
X0069169Y0015479D01*
X0069237Y0015473D01*
X0069305Y0015463D01*
X0069372Y0015449D01*
X0069439Y0015431D01*
X0069504Y0015410D01*
X0069568Y0015384D01*
X0069630Y0015355D01*
X0069690Y0015323D01*
X0069749Y0015287D01*
X0069805Y0015247D01*
X0069859Y0015205D01*
X0069910Y0015159D01*
X0069959Y0015110D01*
X0070005Y0015059D01*
X0070047Y0015005D01*
X0070087Y0014949D01*
X0070123Y0014890D01*
X0070155Y0014830D01*
X0070184Y0014768D01*
X0070210Y0014704D01*
X0070231Y0014639D01*
X0070249Y0014572D01*
X0070263Y0014505D01*
X0070273Y0014437D01*
X0070279Y0014369D01*
X0070281Y0014300D01*
X0070279Y0014231D01*
X0070273Y0014163D01*
X0070263Y0014095D01*
X0070249Y0014028D01*
X0070231Y0013961D01*
X0070210Y0013896D01*
X0070184Y0013832D01*
X0070155Y0013770D01*
X0070123Y0013709D01*
X0070087Y0013651D01*
X0070047Y0013595D01*
X0070005Y0013541D01*
X0069959Y0013490D01*
X0069910Y0013441D01*
X0069859Y0013395D01*
X0069805Y0013353D01*
X0069749Y0013313D01*
X0069691Y0013277D01*
X0069630Y0013245D01*
X0069568Y0013216D01*
X0069504Y0013190D01*
X0069439Y0013169D01*
X0069372Y0013151D01*
X0069305Y0013137D01*
X0069237Y0013127D01*
X0069169Y0013121D01*
X0069100Y0013119D01*
X0069031Y0013121D01*
X0068963Y0013127D01*
X0068895Y0013137D01*
X0068828Y0013151D01*
X0068761Y0013169D01*
X0068696Y0013190D01*
X0068632Y0013216D01*
X0068570Y0013245D01*
X0068509Y0013277D01*
X0068451Y0013313D01*
X0068395Y0013353D01*
X0068341Y0013395D01*
X0068290Y0013441D01*
X0068241Y0013490D01*
X0068195Y0013541D01*
X0068153Y0013595D01*
X0068113Y0013651D01*
X0068077Y0013709D01*
X0068045Y0013770D01*
X0068016Y0013832D01*
X0067990Y0013896D01*
X0067969Y0013961D01*
X0067951Y0014028D01*
X0067937Y0014095D01*
X0067927Y0014163D01*
X0067921Y0014231D01*
X0067919Y0014300D01*
X0067919Y0021800D02*
X0067921Y0021869D01*
X0067927Y0021937D01*
X0067937Y0022005D01*
X0067951Y0022072D01*
X0067969Y0022139D01*
X0067990Y0022204D01*
X0068016Y0022268D01*
X0068045Y0022330D01*
X0068077Y0022390D01*
X0068113Y0022449D01*
X0068153Y0022505D01*
X0068195Y0022559D01*
X0068241Y0022610D01*
X0068290Y0022659D01*
X0068341Y0022705D01*
X0068395Y0022747D01*
X0068451Y0022787D01*
X0068509Y0022823D01*
X0068570Y0022855D01*
X0068632Y0022884D01*
X0068696Y0022910D01*
X0068761Y0022931D01*
X0068828Y0022949D01*
X0068895Y0022963D01*
X0068963Y0022973D01*
X0069031Y0022979D01*
X0069100Y0022981D01*
X0069169Y0022979D01*
X0069237Y0022973D01*
X0069305Y0022963D01*
X0069372Y0022949D01*
X0069439Y0022931D01*
X0069504Y0022910D01*
X0069568Y0022884D01*
X0069630Y0022855D01*
X0069690Y0022823D01*
X0069749Y0022787D01*
X0069805Y0022747D01*
X0069859Y0022705D01*
X0069910Y0022659D01*
X0069959Y0022610D01*
X0070005Y0022559D01*
X0070047Y0022505D01*
X0070087Y0022449D01*
X0070123Y0022390D01*
X0070155Y0022330D01*
X0070184Y0022268D01*
X0070210Y0022204D01*
X0070231Y0022139D01*
X0070249Y0022072D01*
X0070263Y0022005D01*
X0070273Y0021937D01*
X0070279Y0021869D01*
X0070281Y0021800D01*
X0070279Y0021731D01*
X0070273Y0021663D01*
X0070263Y0021595D01*
X0070249Y0021528D01*
X0070231Y0021461D01*
X0070210Y0021396D01*
X0070184Y0021332D01*
X0070155Y0021270D01*
X0070123Y0021209D01*
X0070087Y0021151D01*
X0070047Y0021095D01*
X0070005Y0021041D01*
X0069959Y0020990D01*
X0069910Y0020941D01*
X0069859Y0020895D01*
X0069805Y0020853D01*
X0069749Y0020813D01*
X0069691Y0020777D01*
X0069630Y0020745D01*
X0069568Y0020716D01*
X0069504Y0020690D01*
X0069439Y0020669D01*
X0069372Y0020651D01*
X0069305Y0020637D01*
X0069237Y0020627D01*
X0069169Y0020621D01*
X0069100Y0020619D01*
X0069031Y0020621D01*
X0068963Y0020627D01*
X0068895Y0020637D01*
X0068828Y0020651D01*
X0068761Y0020669D01*
X0068696Y0020690D01*
X0068632Y0020716D01*
X0068570Y0020745D01*
X0068509Y0020777D01*
X0068451Y0020813D01*
X0068395Y0020853D01*
X0068341Y0020895D01*
X0068290Y0020941D01*
X0068241Y0020990D01*
X0068195Y0021041D01*
X0068153Y0021095D01*
X0068113Y0021151D01*
X0068077Y0021209D01*
X0068045Y0021270D01*
X0068016Y0021332D01*
X0067990Y0021396D01*
X0067969Y0021461D01*
X0067951Y0021528D01*
X0067937Y0021595D01*
X0067927Y0021663D01*
X0067921Y0021731D01*
X0067919Y0021800D01*
X0067919Y0029300D02*
X0067921Y0029369D01*
X0067927Y0029437D01*
X0067937Y0029505D01*
X0067951Y0029572D01*
X0067969Y0029639D01*
X0067990Y0029704D01*
X0068016Y0029768D01*
X0068045Y0029830D01*
X0068077Y0029890D01*
X0068113Y0029949D01*
X0068153Y0030005D01*
X0068195Y0030059D01*
X0068241Y0030110D01*
X0068290Y0030159D01*
X0068341Y0030205D01*
X0068395Y0030247D01*
X0068451Y0030287D01*
X0068509Y0030323D01*
X0068570Y0030355D01*
X0068632Y0030384D01*
X0068696Y0030410D01*
X0068761Y0030431D01*
X0068828Y0030449D01*
X0068895Y0030463D01*
X0068963Y0030473D01*
X0069031Y0030479D01*
X0069100Y0030481D01*
X0069169Y0030479D01*
X0069237Y0030473D01*
X0069305Y0030463D01*
X0069372Y0030449D01*
X0069439Y0030431D01*
X0069504Y0030410D01*
X0069568Y0030384D01*
X0069630Y0030355D01*
X0069690Y0030323D01*
X0069749Y0030287D01*
X0069805Y0030247D01*
X0069859Y0030205D01*
X0069910Y0030159D01*
X0069959Y0030110D01*
X0070005Y0030059D01*
X0070047Y0030005D01*
X0070087Y0029949D01*
X0070123Y0029890D01*
X0070155Y0029830D01*
X0070184Y0029768D01*
X0070210Y0029704D01*
X0070231Y0029639D01*
X0070249Y0029572D01*
X0070263Y0029505D01*
X0070273Y0029437D01*
X0070279Y0029369D01*
X0070281Y0029300D01*
X0070279Y0029231D01*
X0070273Y0029163D01*
X0070263Y0029095D01*
X0070249Y0029028D01*
X0070231Y0028961D01*
X0070210Y0028896D01*
X0070184Y0028832D01*
X0070155Y0028770D01*
X0070123Y0028709D01*
X0070087Y0028651D01*
X0070047Y0028595D01*
X0070005Y0028541D01*
X0069959Y0028490D01*
X0069910Y0028441D01*
X0069859Y0028395D01*
X0069805Y0028353D01*
X0069749Y0028313D01*
X0069691Y0028277D01*
X0069630Y0028245D01*
X0069568Y0028216D01*
X0069504Y0028190D01*
X0069439Y0028169D01*
X0069372Y0028151D01*
X0069305Y0028137D01*
X0069237Y0028127D01*
X0069169Y0028121D01*
X0069100Y0028119D01*
X0069031Y0028121D01*
X0068963Y0028127D01*
X0068895Y0028137D01*
X0068828Y0028151D01*
X0068761Y0028169D01*
X0068696Y0028190D01*
X0068632Y0028216D01*
X0068570Y0028245D01*
X0068509Y0028277D01*
X0068451Y0028313D01*
X0068395Y0028353D01*
X0068341Y0028395D01*
X0068290Y0028441D01*
X0068241Y0028490D01*
X0068195Y0028541D01*
X0068153Y0028595D01*
X0068113Y0028651D01*
X0068077Y0028709D01*
X0068045Y0028770D01*
X0068016Y0028832D01*
X0067990Y0028896D01*
X0067969Y0028961D01*
X0067951Y0029028D01*
X0067937Y0029095D01*
X0067927Y0029163D01*
X0067921Y0029231D01*
X0067919Y0029300D01*
X0067919Y0036800D02*
X0067921Y0036869D01*
X0067927Y0036937D01*
X0067937Y0037005D01*
X0067951Y0037072D01*
X0067969Y0037139D01*
X0067990Y0037204D01*
X0068016Y0037268D01*
X0068045Y0037330D01*
X0068077Y0037390D01*
X0068113Y0037449D01*
X0068153Y0037505D01*
X0068195Y0037559D01*
X0068241Y0037610D01*
X0068290Y0037659D01*
X0068341Y0037705D01*
X0068395Y0037747D01*
X0068451Y0037787D01*
X0068509Y0037823D01*
X0068570Y0037855D01*
X0068632Y0037884D01*
X0068696Y0037910D01*
X0068761Y0037931D01*
X0068828Y0037949D01*
X0068895Y0037963D01*
X0068963Y0037973D01*
X0069031Y0037979D01*
X0069100Y0037981D01*
X0069169Y0037979D01*
X0069237Y0037973D01*
X0069305Y0037963D01*
X0069372Y0037949D01*
X0069439Y0037931D01*
X0069504Y0037910D01*
X0069568Y0037884D01*
X0069630Y0037855D01*
X0069690Y0037823D01*
X0069749Y0037787D01*
X0069805Y0037747D01*
X0069859Y0037705D01*
X0069910Y0037659D01*
X0069959Y0037610D01*
X0070005Y0037559D01*
X0070047Y0037505D01*
X0070087Y0037449D01*
X0070123Y0037390D01*
X0070155Y0037330D01*
X0070184Y0037268D01*
X0070210Y0037204D01*
X0070231Y0037139D01*
X0070249Y0037072D01*
X0070263Y0037005D01*
X0070273Y0036937D01*
X0070279Y0036869D01*
X0070281Y0036800D01*
X0070279Y0036731D01*
X0070273Y0036663D01*
X0070263Y0036595D01*
X0070249Y0036528D01*
X0070231Y0036461D01*
X0070210Y0036396D01*
X0070184Y0036332D01*
X0070155Y0036270D01*
X0070123Y0036209D01*
X0070087Y0036151D01*
X0070047Y0036095D01*
X0070005Y0036041D01*
X0069959Y0035990D01*
X0069910Y0035941D01*
X0069859Y0035895D01*
X0069805Y0035853D01*
X0069749Y0035813D01*
X0069691Y0035777D01*
X0069630Y0035745D01*
X0069568Y0035716D01*
X0069504Y0035690D01*
X0069439Y0035669D01*
X0069372Y0035651D01*
X0069305Y0035637D01*
X0069237Y0035627D01*
X0069169Y0035621D01*
X0069100Y0035619D01*
X0069031Y0035621D01*
X0068963Y0035627D01*
X0068895Y0035637D01*
X0068828Y0035651D01*
X0068761Y0035669D01*
X0068696Y0035690D01*
X0068632Y0035716D01*
X0068570Y0035745D01*
X0068509Y0035777D01*
X0068451Y0035813D01*
X0068395Y0035853D01*
X0068341Y0035895D01*
X0068290Y0035941D01*
X0068241Y0035990D01*
X0068195Y0036041D01*
X0068153Y0036095D01*
X0068113Y0036151D01*
X0068077Y0036209D01*
X0068045Y0036270D01*
X0068016Y0036332D01*
X0067990Y0036396D01*
X0067969Y0036461D01*
X0067951Y0036528D01*
X0067937Y0036595D01*
X0067927Y0036663D01*
X0067921Y0036731D01*
X0067919Y0036800D01*
X0067919Y0044300D02*
X0067921Y0044369D01*
X0067927Y0044437D01*
X0067937Y0044505D01*
X0067951Y0044572D01*
X0067969Y0044639D01*
X0067990Y0044704D01*
X0068016Y0044768D01*
X0068045Y0044830D01*
X0068077Y0044890D01*
X0068113Y0044949D01*
X0068153Y0045005D01*
X0068195Y0045059D01*
X0068241Y0045110D01*
X0068290Y0045159D01*
X0068341Y0045205D01*
X0068395Y0045247D01*
X0068451Y0045287D01*
X0068509Y0045323D01*
X0068570Y0045355D01*
X0068632Y0045384D01*
X0068696Y0045410D01*
X0068761Y0045431D01*
X0068828Y0045449D01*
X0068895Y0045463D01*
X0068963Y0045473D01*
X0069031Y0045479D01*
X0069100Y0045481D01*
X0069169Y0045479D01*
X0069237Y0045473D01*
X0069305Y0045463D01*
X0069372Y0045449D01*
X0069439Y0045431D01*
X0069504Y0045410D01*
X0069568Y0045384D01*
X0069630Y0045355D01*
X0069690Y0045323D01*
X0069749Y0045287D01*
X0069805Y0045247D01*
X0069859Y0045205D01*
X0069910Y0045159D01*
X0069959Y0045110D01*
X0070005Y0045059D01*
X0070047Y0045005D01*
X0070087Y0044949D01*
X0070123Y0044890D01*
X0070155Y0044830D01*
X0070184Y0044768D01*
X0070210Y0044704D01*
X0070231Y0044639D01*
X0070249Y0044572D01*
X0070263Y0044505D01*
X0070273Y0044437D01*
X0070279Y0044369D01*
X0070281Y0044300D01*
X0070279Y0044231D01*
X0070273Y0044163D01*
X0070263Y0044095D01*
X0070249Y0044028D01*
X0070231Y0043961D01*
X0070210Y0043896D01*
X0070184Y0043832D01*
X0070155Y0043770D01*
X0070123Y0043709D01*
X0070087Y0043651D01*
X0070047Y0043595D01*
X0070005Y0043541D01*
X0069959Y0043490D01*
X0069910Y0043441D01*
X0069859Y0043395D01*
X0069805Y0043353D01*
X0069749Y0043313D01*
X0069691Y0043277D01*
X0069630Y0043245D01*
X0069568Y0043216D01*
X0069504Y0043190D01*
X0069439Y0043169D01*
X0069372Y0043151D01*
X0069305Y0043137D01*
X0069237Y0043127D01*
X0069169Y0043121D01*
X0069100Y0043119D01*
X0069031Y0043121D01*
X0068963Y0043127D01*
X0068895Y0043137D01*
X0068828Y0043151D01*
X0068761Y0043169D01*
X0068696Y0043190D01*
X0068632Y0043216D01*
X0068570Y0043245D01*
X0068509Y0043277D01*
X0068451Y0043313D01*
X0068395Y0043353D01*
X0068341Y0043395D01*
X0068290Y0043441D01*
X0068241Y0043490D01*
X0068195Y0043541D01*
X0068153Y0043595D01*
X0068113Y0043651D01*
X0068077Y0043709D01*
X0068045Y0043770D01*
X0068016Y0043832D01*
X0067990Y0043896D01*
X0067969Y0043961D01*
X0067951Y0044028D01*
X0067937Y0044095D01*
X0067927Y0044163D01*
X0067921Y0044231D01*
X0067919Y0044300D01*
X0067919Y0051800D02*
X0067921Y0051869D01*
X0067927Y0051937D01*
X0067937Y0052005D01*
X0067951Y0052072D01*
X0067969Y0052139D01*
X0067990Y0052204D01*
X0068016Y0052268D01*
X0068045Y0052330D01*
X0068077Y0052390D01*
X0068113Y0052449D01*
X0068153Y0052505D01*
X0068195Y0052559D01*
X0068241Y0052610D01*
X0068290Y0052659D01*
X0068341Y0052705D01*
X0068395Y0052747D01*
X0068451Y0052787D01*
X0068509Y0052823D01*
X0068570Y0052855D01*
X0068632Y0052884D01*
X0068696Y0052910D01*
X0068761Y0052931D01*
X0068828Y0052949D01*
X0068895Y0052963D01*
X0068963Y0052973D01*
X0069031Y0052979D01*
X0069100Y0052981D01*
X0069169Y0052979D01*
X0069237Y0052973D01*
X0069305Y0052963D01*
X0069372Y0052949D01*
X0069439Y0052931D01*
X0069504Y0052910D01*
X0069568Y0052884D01*
X0069630Y0052855D01*
X0069690Y0052823D01*
X0069749Y0052787D01*
X0069805Y0052747D01*
X0069859Y0052705D01*
X0069910Y0052659D01*
X0069959Y0052610D01*
X0070005Y0052559D01*
X0070047Y0052505D01*
X0070087Y0052449D01*
X0070123Y0052390D01*
X0070155Y0052330D01*
X0070184Y0052268D01*
X0070210Y0052204D01*
X0070231Y0052139D01*
X0070249Y0052072D01*
X0070263Y0052005D01*
X0070273Y0051937D01*
X0070279Y0051869D01*
X0070281Y0051800D01*
X0070279Y0051731D01*
X0070273Y0051663D01*
X0070263Y0051595D01*
X0070249Y0051528D01*
X0070231Y0051461D01*
X0070210Y0051396D01*
X0070184Y0051332D01*
X0070155Y0051270D01*
X0070123Y0051209D01*
X0070087Y0051151D01*
X0070047Y0051095D01*
X0070005Y0051041D01*
X0069959Y0050990D01*
X0069910Y0050941D01*
X0069859Y0050895D01*
X0069805Y0050853D01*
X0069749Y0050813D01*
X0069691Y0050777D01*
X0069630Y0050745D01*
X0069568Y0050716D01*
X0069504Y0050690D01*
X0069439Y0050669D01*
X0069372Y0050651D01*
X0069305Y0050637D01*
X0069237Y0050627D01*
X0069169Y0050621D01*
X0069100Y0050619D01*
X0069031Y0050621D01*
X0068963Y0050627D01*
X0068895Y0050637D01*
X0068828Y0050651D01*
X0068761Y0050669D01*
X0068696Y0050690D01*
X0068632Y0050716D01*
X0068570Y0050745D01*
X0068509Y0050777D01*
X0068451Y0050813D01*
X0068395Y0050853D01*
X0068341Y0050895D01*
X0068290Y0050941D01*
X0068241Y0050990D01*
X0068195Y0051041D01*
X0068153Y0051095D01*
X0068113Y0051151D01*
X0068077Y0051209D01*
X0068045Y0051270D01*
X0068016Y0051332D01*
X0067990Y0051396D01*
X0067969Y0051461D01*
X0067951Y0051528D01*
X0067937Y0051595D01*
X0067927Y0051663D01*
X0067921Y0051731D01*
X0067919Y0051800D01*
X0067919Y0059300D02*
X0067921Y0059369D01*
X0067927Y0059437D01*
X0067937Y0059505D01*
X0067951Y0059572D01*
X0067969Y0059639D01*
X0067990Y0059704D01*
X0068016Y0059768D01*
X0068045Y0059830D01*
X0068077Y0059890D01*
X0068113Y0059949D01*
X0068153Y0060005D01*
X0068195Y0060059D01*
X0068241Y0060110D01*
X0068290Y0060159D01*
X0068341Y0060205D01*
X0068395Y0060247D01*
X0068451Y0060287D01*
X0068509Y0060323D01*
X0068570Y0060355D01*
X0068632Y0060384D01*
X0068696Y0060410D01*
X0068761Y0060431D01*
X0068828Y0060449D01*
X0068895Y0060463D01*
X0068963Y0060473D01*
X0069031Y0060479D01*
X0069100Y0060481D01*
X0069169Y0060479D01*
X0069237Y0060473D01*
X0069305Y0060463D01*
X0069372Y0060449D01*
X0069439Y0060431D01*
X0069504Y0060410D01*
X0069568Y0060384D01*
X0069630Y0060355D01*
X0069690Y0060323D01*
X0069749Y0060287D01*
X0069805Y0060247D01*
X0069859Y0060205D01*
X0069910Y0060159D01*
X0069959Y0060110D01*
X0070005Y0060059D01*
X0070047Y0060005D01*
X0070087Y0059949D01*
X0070123Y0059890D01*
X0070155Y0059830D01*
X0070184Y0059768D01*
X0070210Y0059704D01*
X0070231Y0059639D01*
X0070249Y0059572D01*
X0070263Y0059505D01*
X0070273Y0059437D01*
X0070279Y0059369D01*
X0070281Y0059300D01*
X0070279Y0059231D01*
X0070273Y0059163D01*
X0070263Y0059095D01*
X0070249Y0059028D01*
X0070231Y0058961D01*
X0070210Y0058896D01*
X0070184Y0058832D01*
X0070155Y0058770D01*
X0070123Y0058709D01*
X0070087Y0058651D01*
X0070047Y0058595D01*
X0070005Y0058541D01*
X0069959Y0058490D01*
X0069910Y0058441D01*
X0069859Y0058395D01*
X0069805Y0058353D01*
X0069749Y0058313D01*
X0069691Y0058277D01*
X0069630Y0058245D01*
X0069568Y0058216D01*
X0069504Y0058190D01*
X0069439Y0058169D01*
X0069372Y0058151D01*
X0069305Y0058137D01*
X0069237Y0058127D01*
X0069169Y0058121D01*
X0069100Y0058119D01*
X0069031Y0058121D01*
X0068963Y0058127D01*
X0068895Y0058137D01*
X0068828Y0058151D01*
X0068761Y0058169D01*
X0068696Y0058190D01*
X0068632Y0058216D01*
X0068570Y0058245D01*
X0068509Y0058277D01*
X0068451Y0058313D01*
X0068395Y0058353D01*
X0068341Y0058395D01*
X0068290Y0058441D01*
X0068241Y0058490D01*
X0068195Y0058541D01*
X0068153Y0058595D01*
X0068113Y0058651D01*
X0068077Y0058709D01*
X0068045Y0058770D01*
X0068016Y0058832D01*
X0067990Y0058896D01*
X0067969Y0058961D01*
X0067951Y0059028D01*
X0067937Y0059095D01*
X0067927Y0059163D01*
X0067921Y0059231D01*
X0067919Y0059300D01*
X0082269Y0051800D02*
X0082271Y0051931D01*
X0082277Y0052063D01*
X0082287Y0052194D01*
X0082301Y0052325D01*
X0082319Y0052455D01*
X0082341Y0052584D01*
X0082366Y0052713D01*
X0082396Y0052841D01*
X0082430Y0052968D01*
X0082467Y0053095D01*
X0082508Y0053219D01*
X0082553Y0053343D01*
X0082602Y0053465D01*
X0082654Y0053586D01*
X0082710Y0053704D01*
X0082770Y0053822D01*
X0082833Y0053937D01*
X0082900Y0054050D01*
X0082970Y0054162D01*
X0083043Y0054271D01*
X0083119Y0054377D01*
X0083199Y0054482D01*
X0083282Y0054584D01*
X0083368Y0054683D01*
X0083457Y0054780D01*
X0083549Y0054874D01*
X0083644Y0054965D01*
X0083741Y0055054D01*
X0083841Y0055139D01*
X0083944Y0055221D01*
X0084049Y0055300D01*
X0084156Y0055376D01*
X0084266Y0055448D01*
X0084378Y0055517D01*
X0084492Y0055583D01*
X0084607Y0055645D01*
X0084725Y0055704D01*
X0084844Y0055759D01*
X0084965Y0055811D01*
X0085088Y0055858D01*
X0085212Y0055902D01*
X0085337Y0055943D01*
X0085463Y0055979D01*
X0085591Y0056012D01*
X0085719Y0056040D01*
X0085848Y0056065D01*
X0085978Y0056086D01*
X0086108Y0056103D01*
X0086239Y0056116D01*
X0086370Y0056125D01*
X0086501Y0056130D01*
X0086633Y0056131D01*
X0086764Y0056128D01*
X0086896Y0056121D01*
X0087027Y0056110D01*
X0087157Y0056095D01*
X0087287Y0056076D01*
X0087417Y0056053D01*
X0087545Y0056027D01*
X0087673Y0055996D01*
X0087800Y0055961D01*
X0087926Y0055923D01*
X0088050Y0055881D01*
X0088174Y0055835D01*
X0088295Y0055785D01*
X0088415Y0055732D01*
X0088534Y0055675D01*
X0088651Y0055615D01*
X0088765Y0055551D01*
X0088878Y0055483D01*
X0088989Y0055412D01*
X0089098Y0055338D01*
X0089204Y0055261D01*
X0089308Y0055180D01*
X0089409Y0055097D01*
X0089508Y0055010D01*
X0089604Y0054920D01*
X0089697Y0054827D01*
X0089788Y0054732D01*
X0089875Y0054634D01*
X0089960Y0054533D01*
X0090041Y0054430D01*
X0090119Y0054324D01*
X0090194Y0054216D01*
X0090266Y0054106D01*
X0090334Y0053994D01*
X0090399Y0053880D01*
X0090460Y0053763D01*
X0090518Y0053645D01*
X0090572Y0053525D01*
X0090623Y0053404D01*
X0090670Y0053281D01*
X0090713Y0053157D01*
X0090752Y0053032D01*
X0090788Y0052905D01*
X0090819Y0052777D01*
X0090847Y0052649D01*
X0090871Y0052520D01*
X0090891Y0052390D01*
X0090907Y0052259D01*
X0090919Y0052128D01*
X0090927Y0051997D01*
X0090931Y0051866D01*
X0090931Y0051734D01*
X0090927Y0051603D01*
X0090919Y0051472D01*
X0090907Y0051341D01*
X0090891Y0051210D01*
X0090871Y0051080D01*
X0090847Y0050951D01*
X0090819Y0050823D01*
X0090788Y0050695D01*
X0090752Y0050568D01*
X0090713Y0050443D01*
X0090670Y0050319D01*
X0090623Y0050196D01*
X0090572Y0050075D01*
X0090518Y0049955D01*
X0090460Y0049837D01*
X0090399Y0049720D01*
X0090334Y0049606D01*
X0090266Y0049494D01*
X0090194Y0049384D01*
X0090119Y0049276D01*
X0090041Y0049170D01*
X0089960Y0049067D01*
X0089875Y0048966D01*
X0089788Y0048868D01*
X0089697Y0048773D01*
X0089604Y0048680D01*
X0089508Y0048590D01*
X0089409Y0048503D01*
X0089308Y0048420D01*
X0089204Y0048339D01*
X0089098Y0048262D01*
X0088989Y0048188D01*
X0088878Y0048117D01*
X0088766Y0048049D01*
X0088651Y0047985D01*
X0088534Y0047925D01*
X0088415Y0047868D01*
X0088295Y0047815D01*
X0088174Y0047765D01*
X0088050Y0047719D01*
X0087926Y0047677D01*
X0087800Y0047639D01*
X0087673Y0047604D01*
X0087545Y0047573D01*
X0087417Y0047547D01*
X0087287Y0047524D01*
X0087157Y0047505D01*
X0087027Y0047490D01*
X0086896Y0047479D01*
X0086764Y0047472D01*
X0086633Y0047469D01*
X0086501Y0047470D01*
X0086370Y0047475D01*
X0086239Y0047484D01*
X0086108Y0047497D01*
X0085978Y0047514D01*
X0085848Y0047535D01*
X0085719Y0047560D01*
X0085591Y0047588D01*
X0085463Y0047621D01*
X0085337Y0047657D01*
X0085212Y0047698D01*
X0085088Y0047742D01*
X0084965Y0047789D01*
X0084844Y0047841D01*
X0084725Y0047896D01*
X0084607Y0047955D01*
X0084492Y0048017D01*
X0084378Y0048083D01*
X0084266Y0048152D01*
X0084156Y0048224D01*
X0084049Y0048300D01*
X0083944Y0048379D01*
X0083841Y0048461D01*
X0083741Y0048546D01*
X0083644Y0048635D01*
X0083549Y0048726D01*
X0083457Y0048820D01*
X0083368Y0048917D01*
X0083282Y0049016D01*
X0083199Y0049118D01*
X0083119Y0049223D01*
X0083043Y0049329D01*
X0082970Y0049438D01*
X0082900Y0049550D01*
X0082833Y0049663D01*
X0082770Y0049778D01*
X0082710Y0049896D01*
X0082654Y0050014D01*
X0082602Y0050135D01*
X0082553Y0050257D01*
X0082508Y0050381D01*
X0082467Y0050505D01*
X0082430Y0050632D01*
X0082396Y0050759D01*
X0082366Y0050887D01*
X0082341Y0051016D01*
X0082319Y0051145D01*
X0082301Y0051275D01*
X0082287Y0051406D01*
X0082277Y0051537D01*
X0082271Y0051669D01*
X0082269Y0051800D01*
X0067919Y0069300D02*
X0067921Y0069369D01*
X0067927Y0069437D01*
X0067937Y0069505D01*
X0067951Y0069572D01*
X0067969Y0069639D01*
X0067990Y0069704D01*
X0068016Y0069768D01*
X0068045Y0069830D01*
X0068077Y0069890D01*
X0068113Y0069949D01*
X0068153Y0070005D01*
X0068195Y0070059D01*
X0068241Y0070110D01*
X0068290Y0070159D01*
X0068341Y0070205D01*
X0068395Y0070247D01*
X0068451Y0070287D01*
X0068509Y0070323D01*
X0068570Y0070355D01*
X0068632Y0070384D01*
X0068696Y0070410D01*
X0068761Y0070431D01*
X0068828Y0070449D01*
X0068895Y0070463D01*
X0068963Y0070473D01*
X0069031Y0070479D01*
X0069100Y0070481D01*
X0069169Y0070479D01*
X0069237Y0070473D01*
X0069305Y0070463D01*
X0069372Y0070449D01*
X0069439Y0070431D01*
X0069504Y0070410D01*
X0069568Y0070384D01*
X0069630Y0070355D01*
X0069690Y0070323D01*
X0069749Y0070287D01*
X0069805Y0070247D01*
X0069859Y0070205D01*
X0069910Y0070159D01*
X0069959Y0070110D01*
X0070005Y0070059D01*
X0070047Y0070005D01*
X0070087Y0069949D01*
X0070123Y0069890D01*
X0070155Y0069830D01*
X0070184Y0069768D01*
X0070210Y0069704D01*
X0070231Y0069639D01*
X0070249Y0069572D01*
X0070263Y0069505D01*
X0070273Y0069437D01*
X0070279Y0069369D01*
X0070281Y0069300D01*
X0070279Y0069231D01*
X0070273Y0069163D01*
X0070263Y0069095D01*
X0070249Y0069028D01*
X0070231Y0068961D01*
X0070210Y0068896D01*
X0070184Y0068832D01*
X0070155Y0068770D01*
X0070123Y0068709D01*
X0070087Y0068651D01*
X0070047Y0068595D01*
X0070005Y0068541D01*
X0069959Y0068490D01*
X0069910Y0068441D01*
X0069859Y0068395D01*
X0069805Y0068353D01*
X0069749Y0068313D01*
X0069691Y0068277D01*
X0069630Y0068245D01*
X0069568Y0068216D01*
X0069504Y0068190D01*
X0069439Y0068169D01*
X0069372Y0068151D01*
X0069305Y0068137D01*
X0069237Y0068127D01*
X0069169Y0068121D01*
X0069100Y0068119D01*
X0069031Y0068121D01*
X0068963Y0068127D01*
X0068895Y0068137D01*
X0068828Y0068151D01*
X0068761Y0068169D01*
X0068696Y0068190D01*
X0068632Y0068216D01*
X0068570Y0068245D01*
X0068509Y0068277D01*
X0068451Y0068313D01*
X0068395Y0068353D01*
X0068341Y0068395D01*
X0068290Y0068441D01*
X0068241Y0068490D01*
X0068195Y0068541D01*
X0068153Y0068595D01*
X0068113Y0068651D01*
X0068077Y0068709D01*
X0068045Y0068770D01*
X0068016Y0068832D01*
X0067990Y0068896D01*
X0067969Y0068961D01*
X0067951Y0069028D01*
X0067937Y0069095D01*
X0067927Y0069163D01*
X0067921Y0069231D01*
X0067919Y0069300D01*
X0067919Y0076800D02*
X0067921Y0076869D01*
X0067927Y0076937D01*
X0067937Y0077005D01*
X0067951Y0077072D01*
X0067969Y0077139D01*
X0067990Y0077204D01*
X0068016Y0077268D01*
X0068045Y0077330D01*
X0068077Y0077390D01*
X0068113Y0077449D01*
X0068153Y0077505D01*
X0068195Y0077559D01*
X0068241Y0077610D01*
X0068290Y0077659D01*
X0068341Y0077705D01*
X0068395Y0077747D01*
X0068451Y0077787D01*
X0068509Y0077823D01*
X0068570Y0077855D01*
X0068632Y0077884D01*
X0068696Y0077910D01*
X0068761Y0077931D01*
X0068828Y0077949D01*
X0068895Y0077963D01*
X0068963Y0077973D01*
X0069031Y0077979D01*
X0069100Y0077981D01*
X0069169Y0077979D01*
X0069237Y0077973D01*
X0069305Y0077963D01*
X0069372Y0077949D01*
X0069439Y0077931D01*
X0069504Y0077910D01*
X0069568Y0077884D01*
X0069630Y0077855D01*
X0069690Y0077823D01*
X0069749Y0077787D01*
X0069805Y0077747D01*
X0069859Y0077705D01*
X0069910Y0077659D01*
X0069959Y0077610D01*
X0070005Y0077559D01*
X0070047Y0077505D01*
X0070087Y0077449D01*
X0070123Y0077390D01*
X0070155Y0077330D01*
X0070184Y0077268D01*
X0070210Y0077204D01*
X0070231Y0077139D01*
X0070249Y0077072D01*
X0070263Y0077005D01*
X0070273Y0076937D01*
X0070279Y0076869D01*
X0070281Y0076800D01*
X0070279Y0076731D01*
X0070273Y0076663D01*
X0070263Y0076595D01*
X0070249Y0076528D01*
X0070231Y0076461D01*
X0070210Y0076396D01*
X0070184Y0076332D01*
X0070155Y0076270D01*
X0070123Y0076209D01*
X0070087Y0076151D01*
X0070047Y0076095D01*
X0070005Y0076041D01*
X0069959Y0075990D01*
X0069910Y0075941D01*
X0069859Y0075895D01*
X0069805Y0075853D01*
X0069749Y0075813D01*
X0069691Y0075777D01*
X0069630Y0075745D01*
X0069568Y0075716D01*
X0069504Y0075690D01*
X0069439Y0075669D01*
X0069372Y0075651D01*
X0069305Y0075637D01*
X0069237Y0075627D01*
X0069169Y0075621D01*
X0069100Y0075619D01*
X0069031Y0075621D01*
X0068963Y0075627D01*
X0068895Y0075637D01*
X0068828Y0075651D01*
X0068761Y0075669D01*
X0068696Y0075690D01*
X0068632Y0075716D01*
X0068570Y0075745D01*
X0068509Y0075777D01*
X0068451Y0075813D01*
X0068395Y0075853D01*
X0068341Y0075895D01*
X0068290Y0075941D01*
X0068241Y0075990D01*
X0068195Y0076041D01*
X0068153Y0076095D01*
X0068113Y0076151D01*
X0068077Y0076209D01*
X0068045Y0076270D01*
X0068016Y0076332D01*
X0067990Y0076396D01*
X0067969Y0076461D01*
X0067951Y0076528D01*
X0067937Y0076595D01*
X0067927Y0076663D01*
X0067921Y0076731D01*
X0067919Y0076800D01*
X0067919Y0084300D02*
X0067921Y0084369D01*
X0067927Y0084437D01*
X0067937Y0084505D01*
X0067951Y0084572D01*
X0067969Y0084639D01*
X0067990Y0084704D01*
X0068016Y0084768D01*
X0068045Y0084830D01*
X0068077Y0084890D01*
X0068113Y0084949D01*
X0068153Y0085005D01*
X0068195Y0085059D01*
X0068241Y0085110D01*
X0068290Y0085159D01*
X0068341Y0085205D01*
X0068395Y0085247D01*
X0068451Y0085287D01*
X0068509Y0085323D01*
X0068570Y0085355D01*
X0068632Y0085384D01*
X0068696Y0085410D01*
X0068761Y0085431D01*
X0068828Y0085449D01*
X0068895Y0085463D01*
X0068963Y0085473D01*
X0069031Y0085479D01*
X0069100Y0085481D01*
X0069169Y0085479D01*
X0069237Y0085473D01*
X0069305Y0085463D01*
X0069372Y0085449D01*
X0069439Y0085431D01*
X0069504Y0085410D01*
X0069568Y0085384D01*
X0069630Y0085355D01*
X0069690Y0085323D01*
X0069749Y0085287D01*
X0069805Y0085247D01*
X0069859Y0085205D01*
X0069910Y0085159D01*
X0069959Y0085110D01*
X0070005Y0085059D01*
X0070047Y0085005D01*
X0070087Y0084949D01*
X0070123Y0084890D01*
X0070155Y0084830D01*
X0070184Y0084768D01*
X0070210Y0084704D01*
X0070231Y0084639D01*
X0070249Y0084572D01*
X0070263Y0084505D01*
X0070273Y0084437D01*
X0070279Y0084369D01*
X0070281Y0084300D01*
X0070279Y0084231D01*
X0070273Y0084163D01*
X0070263Y0084095D01*
X0070249Y0084028D01*
X0070231Y0083961D01*
X0070210Y0083896D01*
X0070184Y0083832D01*
X0070155Y0083770D01*
X0070123Y0083709D01*
X0070087Y0083651D01*
X0070047Y0083595D01*
X0070005Y0083541D01*
X0069959Y0083490D01*
X0069910Y0083441D01*
X0069859Y0083395D01*
X0069805Y0083353D01*
X0069749Y0083313D01*
X0069691Y0083277D01*
X0069630Y0083245D01*
X0069568Y0083216D01*
X0069504Y0083190D01*
X0069439Y0083169D01*
X0069372Y0083151D01*
X0069305Y0083137D01*
X0069237Y0083127D01*
X0069169Y0083121D01*
X0069100Y0083119D01*
X0069031Y0083121D01*
X0068963Y0083127D01*
X0068895Y0083137D01*
X0068828Y0083151D01*
X0068761Y0083169D01*
X0068696Y0083190D01*
X0068632Y0083216D01*
X0068570Y0083245D01*
X0068509Y0083277D01*
X0068451Y0083313D01*
X0068395Y0083353D01*
X0068341Y0083395D01*
X0068290Y0083441D01*
X0068241Y0083490D01*
X0068195Y0083541D01*
X0068153Y0083595D01*
X0068113Y0083651D01*
X0068077Y0083709D01*
X0068045Y0083770D01*
X0068016Y0083832D01*
X0067990Y0083896D01*
X0067969Y0083961D01*
X0067951Y0084028D01*
X0067937Y0084095D01*
X0067927Y0084163D01*
X0067921Y0084231D01*
X0067919Y0084300D01*
X0067919Y0091800D02*
X0067921Y0091869D01*
X0067927Y0091937D01*
X0067937Y0092005D01*
X0067951Y0092072D01*
X0067969Y0092139D01*
X0067990Y0092204D01*
X0068016Y0092268D01*
X0068045Y0092330D01*
X0068077Y0092390D01*
X0068113Y0092449D01*
X0068153Y0092505D01*
X0068195Y0092559D01*
X0068241Y0092610D01*
X0068290Y0092659D01*
X0068341Y0092705D01*
X0068395Y0092747D01*
X0068451Y0092787D01*
X0068509Y0092823D01*
X0068570Y0092855D01*
X0068632Y0092884D01*
X0068696Y0092910D01*
X0068761Y0092931D01*
X0068828Y0092949D01*
X0068895Y0092963D01*
X0068963Y0092973D01*
X0069031Y0092979D01*
X0069100Y0092981D01*
X0069169Y0092979D01*
X0069237Y0092973D01*
X0069305Y0092963D01*
X0069372Y0092949D01*
X0069439Y0092931D01*
X0069504Y0092910D01*
X0069568Y0092884D01*
X0069630Y0092855D01*
X0069690Y0092823D01*
X0069749Y0092787D01*
X0069805Y0092747D01*
X0069859Y0092705D01*
X0069910Y0092659D01*
X0069959Y0092610D01*
X0070005Y0092559D01*
X0070047Y0092505D01*
X0070087Y0092449D01*
X0070123Y0092390D01*
X0070155Y0092330D01*
X0070184Y0092268D01*
X0070210Y0092204D01*
X0070231Y0092139D01*
X0070249Y0092072D01*
X0070263Y0092005D01*
X0070273Y0091937D01*
X0070279Y0091869D01*
X0070281Y0091800D01*
X0070279Y0091731D01*
X0070273Y0091663D01*
X0070263Y0091595D01*
X0070249Y0091528D01*
X0070231Y0091461D01*
X0070210Y0091396D01*
X0070184Y0091332D01*
X0070155Y0091270D01*
X0070123Y0091209D01*
X0070087Y0091151D01*
X0070047Y0091095D01*
X0070005Y0091041D01*
X0069959Y0090990D01*
X0069910Y0090941D01*
X0069859Y0090895D01*
X0069805Y0090853D01*
X0069749Y0090813D01*
X0069691Y0090777D01*
X0069630Y0090745D01*
X0069568Y0090716D01*
X0069504Y0090690D01*
X0069439Y0090669D01*
X0069372Y0090651D01*
X0069305Y0090637D01*
X0069237Y0090627D01*
X0069169Y0090621D01*
X0069100Y0090619D01*
X0069031Y0090621D01*
X0068963Y0090627D01*
X0068895Y0090637D01*
X0068828Y0090651D01*
X0068761Y0090669D01*
X0068696Y0090690D01*
X0068632Y0090716D01*
X0068570Y0090745D01*
X0068509Y0090777D01*
X0068451Y0090813D01*
X0068395Y0090853D01*
X0068341Y0090895D01*
X0068290Y0090941D01*
X0068241Y0090990D01*
X0068195Y0091041D01*
X0068153Y0091095D01*
X0068113Y0091151D01*
X0068077Y0091209D01*
X0068045Y0091270D01*
X0068016Y0091332D01*
X0067990Y0091396D01*
X0067969Y0091461D01*
X0067951Y0091528D01*
X0067937Y0091595D01*
X0067927Y0091663D01*
X0067921Y0091731D01*
X0067919Y0091800D01*
X0067919Y0101800D02*
X0067921Y0101869D01*
X0067927Y0101937D01*
X0067937Y0102005D01*
X0067951Y0102072D01*
X0067969Y0102139D01*
X0067990Y0102204D01*
X0068016Y0102268D01*
X0068045Y0102330D01*
X0068077Y0102390D01*
X0068113Y0102449D01*
X0068153Y0102505D01*
X0068195Y0102559D01*
X0068241Y0102610D01*
X0068290Y0102659D01*
X0068341Y0102705D01*
X0068395Y0102747D01*
X0068451Y0102787D01*
X0068509Y0102823D01*
X0068570Y0102855D01*
X0068632Y0102884D01*
X0068696Y0102910D01*
X0068761Y0102931D01*
X0068828Y0102949D01*
X0068895Y0102963D01*
X0068963Y0102973D01*
X0069031Y0102979D01*
X0069100Y0102981D01*
X0069169Y0102979D01*
X0069237Y0102973D01*
X0069305Y0102963D01*
X0069372Y0102949D01*
X0069439Y0102931D01*
X0069504Y0102910D01*
X0069568Y0102884D01*
X0069630Y0102855D01*
X0069690Y0102823D01*
X0069749Y0102787D01*
X0069805Y0102747D01*
X0069859Y0102705D01*
X0069910Y0102659D01*
X0069959Y0102610D01*
X0070005Y0102559D01*
X0070047Y0102505D01*
X0070087Y0102449D01*
X0070123Y0102390D01*
X0070155Y0102330D01*
X0070184Y0102268D01*
X0070210Y0102204D01*
X0070231Y0102139D01*
X0070249Y0102072D01*
X0070263Y0102005D01*
X0070273Y0101937D01*
X0070279Y0101869D01*
X0070281Y0101800D01*
X0070279Y0101731D01*
X0070273Y0101663D01*
X0070263Y0101595D01*
X0070249Y0101528D01*
X0070231Y0101461D01*
X0070210Y0101396D01*
X0070184Y0101332D01*
X0070155Y0101270D01*
X0070123Y0101209D01*
X0070087Y0101151D01*
X0070047Y0101095D01*
X0070005Y0101041D01*
X0069959Y0100990D01*
X0069910Y0100941D01*
X0069859Y0100895D01*
X0069805Y0100853D01*
X0069749Y0100813D01*
X0069691Y0100777D01*
X0069630Y0100745D01*
X0069568Y0100716D01*
X0069504Y0100690D01*
X0069439Y0100669D01*
X0069372Y0100651D01*
X0069305Y0100637D01*
X0069237Y0100627D01*
X0069169Y0100621D01*
X0069100Y0100619D01*
X0069031Y0100621D01*
X0068963Y0100627D01*
X0068895Y0100637D01*
X0068828Y0100651D01*
X0068761Y0100669D01*
X0068696Y0100690D01*
X0068632Y0100716D01*
X0068570Y0100745D01*
X0068509Y0100777D01*
X0068451Y0100813D01*
X0068395Y0100853D01*
X0068341Y0100895D01*
X0068290Y0100941D01*
X0068241Y0100990D01*
X0068195Y0101041D01*
X0068153Y0101095D01*
X0068113Y0101151D01*
X0068077Y0101209D01*
X0068045Y0101270D01*
X0068016Y0101332D01*
X0067990Y0101396D01*
X0067969Y0101461D01*
X0067951Y0101528D01*
X0067937Y0101595D01*
X0067927Y0101663D01*
X0067921Y0101731D01*
X0067919Y0101800D01*
X0067919Y0106800D02*
X0067921Y0106869D01*
X0067927Y0106937D01*
X0067937Y0107005D01*
X0067951Y0107072D01*
X0067969Y0107139D01*
X0067990Y0107204D01*
X0068016Y0107268D01*
X0068045Y0107330D01*
X0068077Y0107390D01*
X0068113Y0107449D01*
X0068153Y0107505D01*
X0068195Y0107559D01*
X0068241Y0107610D01*
X0068290Y0107659D01*
X0068341Y0107705D01*
X0068395Y0107747D01*
X0068451Y0107787D01*
X0068509Y0107823D01*
X0068570Y0107855D01*
X0068632Y0107884D01*
X0068696Y0107910D01*
X0068761Y0107931D01*
X0068828Y0107949D01*
X0068895Y0107963D01*
X0068963Y0107973D01*
X0069031Y0107979D01*
X0069100Y0107981D01*
X0069169Y0107979D01*
X0069237Y0107973D01*
X0069305Y0107963D01*
X0069372Y0107949D01*
X0069439Y0107931D01*
X0069504Y0107910D01*
X0069568Y0107884D01*
X0069630Y0107855D01*
X0069690Y0107823D01*
X0069749Y0107787D01*
X0069805Y0107747D01*
X0069859Y0107705D01*
X0069910Y0107659D01*
X0069959Y0107610D01*
X0070005Y0107559D01*
X0070047Y0107505D01*
X0070087Y0107449D01*
X0070123Y0107390D01*
X0070155Y0107330D01*
X0070184Y0107268D01*
X0070210Y0107204D01*
X0070231Y0107139D01*
X0070249Y0107072D01*
X0070263Y0107005D01*
X0070273Y0106937D01*
X0070279Y0106869D01*
X0070281Y0106800D01*
X0070279Y0106731D01*
X0070273Y0106663D01*
X0070263Y0106595D01*
X0070249Y0106528D01*
X0070231Y0106461D01*
X0070210Y0106396D01*
X0070184Y0106332D01*
X0070155Y0106270D01*
X0070123Y0106209D01*
X0070087Y0106151D01*
X0070047Y0106095D01*
X0070005Y0106041D01*
X0069959Y0105990D01*
X0069910Y0105941D01*
X0069859Y0105895D01*
X0069805Y0105853D01*
X0069749Y0105813D01*
X0069691Y0105777D01*
X0069630Y0105745D01*
X0069568Y0105716D01*
X0069504Y0105690D01*
X0069439Y0105669D01*
X0069372Y0105651D01*
X0069305Y0105637D01*
X0069237Y0105627D01*
X0069169Y0105621D01*
X0069100Y0105619D01*
X0069031Y0105621D01*
X0068963Y0105627D01*
X0068895Y0105637D01*
X0068828Y0105651D01*
X0068761Y0105669D01*
X0068696Y0105690D01*
X0068632Y0105716D01*
X0068570Y0105745D01*
X0068509Y0105777D01*
X0068451Y0105813D01*
X0068395Y0105853D01*
X0068341Y0105895D01*
X0068290Y0105941D01*
X0068241Y0105990D01*
X0068195Y0106041D01*
X0068153Y0106095D01*
X0068113Y0106151D01*
X0068077Y0106209D01*
X0068045Y0106270D01*
X0068016Y0106332D01*
X0067990Y0106396D01*
X0067969Y0106461D01*
X0067951Y0106528D01*
X0067937Y0106595D01*
X0067927Y0106663D01*
X0067921Y0106731D01*
X0067919Y0106800D01*
X0067919Y0114300D02*
X0067921Y0114369D01*
X0067927Y0114437D01*
X0067937Y0114505D01*
X0067951Y0114572D01*
X0067969Y0114639D01*
X0067990Y0114704D01*
X0068016Y0114768D01*
X0068045Y0114830D01*
X0068077Y0114890D01*
X0068113Y0114949D01*
X0068153Y0115005D01*
X0068195Y0115059D01*
X0068241Y0115110D01*
X0068290Y0115159D01*
X0068341Y0115205D01*
X0068395Y0115247D01*
X0068451Y0115287D01*
X0068509Y0115323D01*
X0068570Y0115355D01*
X0068632Y0115384D01*
X0068696Y0115410D01*
X0068761Y0115431D01*
X0068828Y0115449D01*
X0068895Y0115463D01*
X0068963Y0115473D01*
X0069031Y0115479D01*
X0069100Y0115481D01*
X0069169Y0115479D01*
X0069237Y0115473D01*
X0069305Y0115463D01*
X0069372Y0115449D01*
X0069439Y0115431D01*
X0069504Y0115410D01*
X0069568Y0115384D01*
X0069630Y0115355D01*
X0069690Y0115323D01*
X0069749Y0115287D01*
X0069805Y0115247D01*
X0069859Y0115205D01*
X0069910Y0115159D01*
X0069959Y0115110D01*
X0070005Y0115059D01*
X0070047Y0115005D01*
X0070087Y0114949D01*
X0070123Y0114890D01*
X0070155Y0114830D01*
X0070184Y0114768D01*
X0070210Y0114704D01*
X0070231Y0114639D01*
X0070249Y0114572D01*
X0070263Y0114505D01*
X0070273Y0114437D01*
X0070279Y0114369D01*
X0070281Y0114300D01*
X0070279Y0114231D01*
X0070273Y0114163D01*
X0070263Y0114095D01*
X0070249Y0114028D01*
X0070231Y0113961D01*
X0070210Y0113896D01*
X0070184Y0113832D01*
X0070155Y0113770D01*
X0070123Y0113709D01*
X0070087Y0113651D01*
X0070047Y0113595D01*
X0070005Y0113541D01*
X0069959Y0113490D01*
X0069910Y0113441D01*
X0069859Y0113395D01*
X0069805Y0113353D01*
X0069749Y0113313D01*
X0069691Y0113277D01*
X0069630Y0113245D01*
X0069568Y0113216D01*
X0069504Y0113190D01*
X0069439Y0113169D01*
X0069372Y0113151D01*
X0069305Y0113137D01*
X0069237Y0113127D01*
X0069169Y0113121D01*
X0069100Y0113119D01*
X0069031Y0113121D01*
X0068963Y0113127D01*
X0068895Y0113137D01*
X0068828Y0113151D01*
X0068761Y0113169D01*
X0068696Y0113190D01*
X0068632Y0113216D01*
X0068570Y0113245D01*
X0068509Y0113277D01*
X0068451Y0113313D01*
X0068395Y0113353D01*
X0068341Y0113395D01*
X0068290Y0113441D01*
X0068241Y0113490D01*
X0068195Y0113541D01*
X0068153Y0113595D01*
X0068113Y0113651D01*
X0068077Y0113709D01*
X0068045Y0113770D01*
X0068016Y0113832D01*
X0067990Y0113896D01*
X0067969Y0113961D01*
X0067951Y0114028D01*
X0067937Y0114095D01*
X0067927Y0114163D01*
X0067921Y0114231D01*
X0067919Y0114300D01*
X0067919Y0121800D02*
X0067921Y0121869D01*
X0067927Y0121937D01*
X0067937Y0122005D01*
X0067951Y0122072D01*
X0067969Y0122139D01*
X0067990Y0122204D01*
X0068016Y0122268D01*
X0068045Y0122330D01*
X0068077Y0122390D01*
X0068113Y0122449D01*
X0068153Y0122505D01*
X0068195Y0122559D01*
X0068241Y0122610D01*
X0068290Y0122659D01*
X0068341Y0122705D01*
X0068395Y0122747D01*
X0068451Y0122787D01*
X0068509Y0122823D01*
X0068570Y0122855D01*
X0068632Y0122884D01*
X0068696Y0122910D01*
X0068761Y0122931D01*
X0068828Y0122949D01*
X0068895Y0122963D01*
X0068963Y0122973D01*
X0069031Y0122979D01*
X0069100Y0122981D01*
X0069169Y0122979D01*
X0069237Y0122973D01*
X0069305Y0122963D01*
X0069372Y0122949D01*
X0069439Y0122931D01*
X0069504Y0122910D01*
X0069568Y0122884D01*
X0069630Y0122855D01*
X0069690Y0122823D01*
X0069749Y0122787D01*
X0069805Y0122747D01*
X0069859Y0122705D01*
X0069910Y0122659D01*
X0069959Y0122610D01*
X0070005Y0122559D01*
X0070047Y0122505D01*
X0070087Y0122449D01*
X0070123Y0122390D01*
X0070155Y0122330D01*
X0070184Y0122268D01*
X0070210Y0122204D01*
X0070231Y0122139D01*
X0070249Y0122072D01*
X0070263Y0122005D01*
X0070273Y0121937D01*
X0070279Y0121869D01*
X0070281Y0121800D01*
X0070279Y0121731D01*
X0070273Y0121663D01*
X0070263Y0121595D01*
X0070249Y0121528D01*
X0070231Y0121461D01*
X0070210Y0121396D01*
X0070184Y0121332D01*
X0070155Y0121270D01*
X0070123Y0121209D01*
X0070087Y0121151D01*
X0070047Y0121095D01*
X0070005Y0121041D01*
X0069959Y0120990D01*
X0069910Y0120941D01*
X0069859Y0120895D01*
X0069805Y0120853D01*
X0069749Y0120813D01*
X0069691Y0120777D01*
X0069630Y0120745D01*
X0069568Y0120716D01*
X0069504Y0120690D01*
X0069439Y0120669D01*
X0069372Y0120651D01*
X0069305Y0120637D01*
X0069237Y0120627D01*
X0069169Y0120621D01*
X0069100Y0120619D01*
X0069031Y0120621D01*
X0068963Y0120627D01*
X0068895Y0120637D01*
X0068828Y0120651D01*
X0068761Y0120669D01*
X0068696Y0120690D01*
X0068632Y0120716D01*
X0068570Y0120745D01*
X0068509Y0120777D01*
X0068451Y0120813D01*
X0068395Y0120853D01*
X0068341Y0120895D01*
X0068290Y0120941D01*
X0068241Y0120990D01*
X0068195Y0121041D01*
X0068153Y0121095D01*
X0068113Y0121151D01*
X0068077Y0121209D01*
X0068045Y0121270D01*
X0068016Y0121332D01*
X0067990Y0121396D01*
X0067969Y0121461D01*
X0067951Y0121528D01*
X0067937Y0121595D01*
X0067927Y0121663D01*
X0067921Y0121731D01*
X0067919Y0121800D01*
X0067919Y0129300D02*
X0067921Y0129369D01*
X0067927Y0129437D01*
X0067937Y0129505D01*
X0067951Y0129572D01*
X0067969Y0129639D01*
X0067990Y0129704D01*
X0068016Y0129768D01*
X0068045Y0129830D01*
X0068077Y0129890D01*
X0068113Y0129949D01*
X0068153Y0130005D01*
X0068195Y0130059D01*
X0068241Y0130110D01*
X0068290Y0130159D01*
X0068341Y0130205D01*
X0068395Y0130247D01*
X0068451Y0130287D01*
X0068509Y0130323D01*
X0068570Y0130355D01*
X0068632Y0130384D01*
X0068696Y0130410D01*
X0068761Y0130431D01*
X0068828Y0130449D01*
X0068895Y0130463D01*
X0068963Y0130473D01*
X0069031Y0130479D01*
X0069100Y0130481D01*
X0069169Y0130479D01*
X0069237Y0130473D01*
X0069305Y0130463D01*
X0069372Y0130449D01*
X0069439Y0130431D01*
X0069504Y0130410D01*
X0069568Y0130384D01*
X0069630Y0130355D01*
X0069690Y0130323D01*
X0069749Y0130287D01*
X0069805Y0130247D01*
X0069859Y0130205D01*
X0069910Y0130159D01*
X0069959Y0130110D01*
X0070005Y0130059D01*
X0070047Y0130005D01*
X0070087Y0129949D01*
X0070123Y0129890D01*
X0070155Y0129830D01*
X0070184Y0129768D01*
X0070210Y0129704D01*
X0070231Y0129639D01*
X0070249Y0129572D01*
X0070263Y0129505D01*
X0070273Y0129437D01*
X0070279Y0129369D01*
X0070281Y0129300D01*
X0070279Y0129231D01*
X0070273Y0129163D01*
X0070263Y0129095D01*
X0070249Y0129028D01*
X0070231Y0128961D01*
X0070210Y0128896D01*
X0070184Y0128832D01*
X0070155Y0128770D01*
X0070123Y0128709D01*
X0070087Y0128651D01*
X0070047Y0128595D01*
X0070005Y0128541D01*
X0069959Y0128490D01*
X0069910Y0128441D01*
X0069859Y0128395D01*
X0069805Y0128353D01*
X0069749Y0128313D01*
X0069691Y0128277D01*
X0069630Y0128245D01*
X0069568Y0128216D01*
X0069504Y0128190D01*
X0069439Y0128169D01*
X0069372Y0128151D01*
X0069305Y0128137D01*
X0069237Y0128127D01*
X0069169Y0128121D01*
X0069100Y0128119D01*
X0069031Y0128121D01*
X0068963Y0128127D01*
X0068895Y0128137D01*
X0068828Y0128151D01*
X0068761Y0128169D01*
X0068696Y0128190D01*
X0068632Y0128216D01*
X0068570Y0128245D01*
X0068509Y0128277D01*
X0068451Y0128313D01*
X0068395Y0128353D01*
X0068341Y0128395D01*
X0068290Y0128441D01*
X0068241Y0128490D01*
X0068195Y0128541D01*
X0068153Y0128595D01*
X0068113Y0128651D01*
X0068077Y0128709D01*
X0068045Y0128770D01*
X0068016Y0128832D01*
X0067990Y0128896D01*
X0067969Y0128961D01*
X0067951Y0129028D01*
X0067937Y0129095D01*
X0067927Y0129163D01*
X0067921Y0129231D01*
X0067919Y0129300D01*
X0067919Y0136800D02*
X0067921Y0136869D01*
X0067927Y0136937D01*
X0067937Y0137005D01*
X0067951Y0137072D01*
X0067969Y0137139D01*
X0067990Y0137204D01*
X0068016Y0137268D01*
X0068045Y0137330D01*
X0068077Y0137390D01*
X0068113Y0137449D01*
X0068153Y0137505D01*
X0068195Y0137559D01*
X0068241Y0137610D01*
X0068290Y0137659D01*
X0068341Y0137705D01*
X0068395Y0137747D01*
X0068451Y0137787D01*
X0068509Y0137823D01*
X0068570Y0137855D01*
X0068632Y0137884D01*
X0068696Y0137910D01*
X0068761Y0137931D01*
X0068828Y0137949D01*
X0068895Y0137963D01*
X0068963Y0137973D01*
X0069031Y0137979D01*
X0069100Y0137981D01*
X0069169Y0137979D01*
X0069237Y0137973D01*
X0069305Y0137963D01*
X0069372Y0137949D01*
X0069439Y0137931D01*
X0069504Y0137910D01*
X0069568Y0137884D01*
X0069630Y0137855D01*
X0069690Y0137823D01*
X0069749Y0137787D01*
X0069805Y0137747D01*
X0069859Y0137705D01*
X0069910Y0137659D01*
X0069959Y0137610D01*
X0070005Y0137559D01*
X0070047Y0137505D01*
X0070087Y0137449D01*
X0070123Y0137390D01*
X0070155Y0137330D01*
X0070184Y0137268D01*
X0070210Y0137204D01*
X0070231Y0137139D01*
X0070249Y0137072D01*
X0070263Y0137005D01*
X0070273Y0136937D01*
X0070279Y0136869D01*
X0070281Y0136800D01*
X0070279Y0136731D01*
X0070273Y0136663D01*
X0070263Y0136595D01*
X0070249Y0136528D01*
X0070231Y0136461D01*
X0070210Y0136396D01*
X0070184Y0136332D01*
X0070155Y0136270D01*
X0070123Y0136209D01*
X0070087Y0136151D01*
X0070047Y0136095D01*
X0070005Y0136041D01*
X0069959Y0135990D01*
X0069910Y0135941D01*
X0069859Y0135895D01*
X0069805Y0135853D01*
X0069749Y0135813D01*
X0069691Y0135777D01*
X0069630Y0135745D01*
X0069568Y0135716D01*
X0069504Y0135690D01*
X0069439Y0135669D01*
X0069372Y0135651D01*
X0069305Y0135637D01*
X0069237Y0135627D01*
X0069169Y0135621D01*
X0069100Y0135619D01*
X0069031Y0135621D01*
X0068963Y0135627D01*
X0068895Y0135637D01*
X0068828Y0135651D01*
X0068761Y0135669D01*
X0068696Y0135690D01*
X0068632Y0135716D01*
X0068570Y0135745D01*
X0068509Y0135777D01*
X0068451Y0135813D01*
X0068395Y0135853D01*
X0068341Y0135895D01*
X0068290Y0135941D01*
X0068241Y0135990D01*
X0068195Y0136041D01*
X0068153Y0136095D01*
X0068113Y0136151D01*
X0068077Y0136209D01*
X0068045Y0136270D01*
X0068016Y0136332D01*
X0067990Y0136396D01*
X0067969Y0136461D01*
X0067951Y0136528D01*
X0067937Y0136595D01*
X0067927Y0136663D01*
X0067921Y0136731D01*
X0067919Y0136800D01*
X0067919Y0144300D02*
X0067921Y0144369D01*
X0067927Y0144437D01*
X0067937Y0144505D01*
X0067951Y0144572D01*
X0067969Y0144639D01*
X0067990Y0144704D01*
X0068016Y0144768D01*
X0068045Y0144830D01*
X0068077Y0144890D01*
X0068113Y0144949D01*
X0068153Y0145005D01*
X0068195Y0145059D01*
X0068241Y0145110D01*
X0068290Y0145159D01*
X0068341Y0145205D01*
X0068395Y0145247D01*
X0068451Y0145287D01*
X0068509Y0145323D01*
X0068570Y0145355D01*
X0068632Y0145384D01*
X0068696Y0145410D01*
X0068761Y0145431D01*
X0068828Y0145449D01*
X0068895Y0145463D01*
X0068963Y0145473D01*
X0069031Y0145479D01*
X0069100Y0145481D01*
X0069169Y0145479D01*
X0069237Y0145473D01*
X0069305Y0145463D01*
X0069372Y0145449D01*
X0069439Y0145431D01*
X0069504Y0145410D01*
X0069568Y0145384D01*
X0069630Y0145355D01*
X0069690Y0145323D01*
X0069749Y0145287D01*
X0069805Y0145247D01*
X0069859Y0145205D01*
X0069910Y0145159D01*
X0069959Y0145110D01*
X0070005Y0145059D01*
X0070047Y0145005D01*
X0070087Y0144949D01*
X0070123Y0144890D01*
X0070155Y0144830D01*
X0070184Y0144768D01*
X0070210Y0144704D01*
X0070231Y0144639D01*
X0070249Y0144572D01*
X0070263Y0144505D01*
X0070273Y0144437D01*
X0070279Y0144369D01*
X0070281Y0144300D01*
X0070279Y0144231D01*
X0070273Y0144163D01*
X0070263Y0144095D01*
X0070249Y0144028D01*
X0070231Y0143961D01*
X0070210Y0143896D01*
X0070184Y0143832D01*
X0070155Y0143770D01*
X0070123Y0143709D01*
X0070087Y0143651D01*
X0070047Y0143595D01*
X0070005Y0143541D01*
X0069959Y0143490D01*
X0069910Y0143441D01*
X0069859Y0143395D01*
X0069805Y0143353D01*
X0069749Y0143313D01*
X0069691Y0143277D01*
X0069630Y0143245D01*
X0069568Y0143216D01*
X0069504Y0143190D01*
X0069439Y0143169D01*
X0069372Y0143151D01*
X0069305Y0143137D01*
X0069237Y0143127D01*
X0069169Y0143121D01*
X0069100Y0143119D01*
X0069031Y0143121D01*
X0068963Y0143127D01*
X0068895Y0143137D01*
X0068828Y0143151D01*
X0068761Y0143169D01*
X0068696Y0143190D01*
X0068632Y0143216D01*
X0068570Y0143245D01*
X0068509Y0143277D01*
X0068451Y0143313D01*
X0068395Y0143353D01*
X0068341Y0143395D01*
X0068290Y0143441D01*
X0068241Y0143490D01*
X0068195Y0143541D01*
X0068153Y0143595D01*
X0068113Y0143651D01*
X0068077Y0143709D01*
X0068045Y0143770D01*
X0068016Y0143832D01*
X0067990Y0143896D01*
X0067969Y0143961D01*
X0067951Y0144028D01*
X0067937Y0144095D01*
X0067927Y0144163D01*
X0067921Y0144231D01*
X0067919Y0144300D01*
X0067919Y0151800D02*
X0067921Y0151869D01*
X0067927Y0151937D01*
X0067937Y0152005D01*
X0067951Y0152072D01*
X0067969Y0152139D01*
X0067990Y0152204D01*
X0068016Y0152268D01*
X0068045Y0152330D01*
X0068077Y0152390D01*
X0068113Y0152449D01*
X0068153Y0152505D01*
X0068195Y0152559D01*
X0068241Y0152610D01*
X0068290Y0152659D01*
X0068341Y0152705D01*
X0068395Y0152747D01*
X0068451Y0152787D01*
X0068509Y0152823D01*
X0068570Y0152855D01*
X0068632Y0152884D01*
X0068696Y0152910D01*
X0068761Y0152931D01*
X0068828Y0152949D01*
X0068895Y0152963D01*
X0068963Y0152973D01*
X0069031Y0152979D01*
X0069100Y0152981D01*
X0069169Y0152979D01*
X0069237Y0152973D01*
X0069305Y0152963D01*
X0069372Y0152949D01*
X0069439Y0152931D01*
X0069504Y0152910D01*
X0069568Y0152884D01*
X0069630Y0152855D01*
X0069690Y0152823D01*
X0069749Y0152787D01*
X0069805Y0152747D01*
X0069859Y0152705D01*
X0069910Y0152659D01*
X0069959Y0152610D01*
X0070005Y0152559D01*
X0070047Y0152505D01*
X0070087Y0152449D01*
X0070123Y0152390D01*
X0070155Y0152330D01*
X0070184Y0152268D01*
X0070210Y0152204D01*
X0070231Y0152139D01*
X0070249Y0152072D01*
X0070263Y0152005D01*
X0070273Y0151937D01*
X0070279Y0151869D01*
X0070281Y0151800D01*
X0070279Y0151731D01*
X0070273Y0151663D01*
X0070263Y0151595D01*
X0070249Y0151528D01*
X0070231Y0151461D01*
X0070210Y0151396D01*
X0070184Y0151332D01*
X0070155Y0151270D01*
X0070123Y0151209D01*
X0070087Y0151151D01*
X0070047Y0151095D01*
X0070005Y0151041D01*
X0069959Y0150990D01*
X0069910Y0150941D01*
X0069859Y0150895D01*
X0069805Y0150853D01*
X0069749Y0150813D01*
X0069691Y0150777D01*
X0069630Y0150745D01*
X0069568Y0150716D01*
X0069504Y0150690D01*
X0069439Y0150669D01*
X0069372Y0150651D01*
X0069305Y0150637D01*
X0069237Y0150627D01*
X0069169Y0150621D01*
X0069100Y0150619D01*
X0069031Y0150621D01*
X0068963Y0150627D01*
X0068895Y0150637D01*
X0068828Y0150651D01*
X0068761Y0150669D01*
X0068696Y0150690D01*
X0068632Y0150716D01*
X0068570Y0150745D01*
X0068509Y0150777D01*
X0068451Y0150813D01*
X0068395Y0150853D01*
X0068341Y0150895D01*
X0068290Y0150941D01*
X0068241Y0150990D01*
X0068195Y0151041D01*
X0068153Y0151095D01*
X0068113Y0151151D01*
X0068077Y0151209D01*
X0068045Y0151270D01*
X0068016Y0151332D01*
X0067990Y0151396D01*
X0067969Y0151461D01*
X0067951Y0151528D01*
X0067937Y0151595D01*
X0067927Y0151663D01*
X0067921Y0151731D01*
X0067919Y0151800D01*
X0116100Y0071800D02*
X0116102Y0071961D01*
X0116108Y0072121D01*
X0116118Y0072282D01*
X0116132Y0072442D01*
X0116150Y0072602D01*
X0116171Y0072761D01*
X0116197Y0072920D01*
X0116227Y0073078D01*
X0116260Y0073235D01*
X0116298Y0073392D01*
X0116339Y0073547D01*
X0116384Y0073701D01*
X0116433Y0073854D01*
X0116486Y0074006D01*
X0116542Y0074157D01*
X0116603Y0074306D01*
X0116666Y0074454D01*
X0116734Y0074600D01*
X0116805Y0074744D01*
X0116879Y0074886D01*
X0116957Y0075027D01*
X0117039Y0075165D01*
X0117124Y0075302D01*
X0117212Y0075436D01*
X0117304Y0075568D01*
X0117399Y0075698D01*
X0117497Y0075826D01*
X0117598Y0075951D01*
X0117702Y0076073D01*
X0117809Y0076193D01*
X0117919Y0076310D01*
X0118032Y0076425D01*
X0118148Y0076536D01*
X0118267Y0076645D01*
X0118388Y0076750D01*
X0118512Y0076853D01*
X0118638Y0076953D01*
X0118766Y0077049D01*
X0118897Y0077142D01*
X0119031Y0077232D01*
X0119166Y0077319D01*
X0119304Y0077402D01*
X0119443Y0077482D01*
X0119585Y0077558D01*
X0119728Y0077631D01*
X0119873Y0077700D01*
X0120020Y0077766D01*
X0120168Y0077828D01*
X0120318Y0077886D01*
X0120469Y0077941D01*
X0120622Y0077992D01*
X0120776Y0078039D01*
X0120931Y0078082D01*
X0121087Y0078121D01*
X0121243Y0078157D01*
X0121401Y0078188D01*
X0121559Y0078216D01*
X0121718Y0078240D01*
X0121878Y0078260D01*
X0122038Y0078276D01*
X0122198Y0078288D01*
X0122359Y0078296D01*
X0122520Y0078300D01*
X0122680Y0078300D01*
X0122841Y0078296D01*
X0123002Y0078288D01*
X0123162Y0078276D01*
X0123322Y0078260D01*
X0123482Y0078240D01*
X0123641Y0078216D01*
X0123799Y0078188D01*
X0123957Y0078157D01*
X0124113Y0078121D01*
X0124269Y0078082D01*
X0124424Y0078039D01*
X0124578Y0077992D01*
X0124731Y0077941D01*
X0124882Y0077886D01*
X0125032Y0077828D01*
X0125180Y0077766D01*
X0125327Y0077700D01*
X0125472Y0077631D01*
X0125615Y0077558D01*
X0125757Y0077482D01*
X0125896Y0077402D01*
X0126034Y0077319D01*
X0126169Y0077232D01*
X0126303Y0077142D01*
X0126434Y0077049D01*
X0126562Y0076953D01*
X0126688Y0076853D01*
X0126812Y0076750D01*
X0126933Y0076645D01*
X0127052Y0076536D01*
X0127168Y0076425D01*
X0127281Y0076310D01*
X0127391Y0076193D01*
X0127498Y0076073D01*
X0127602Y0075951D01*
X0127703Y0075826D01*
X0127801Y0075698D01*
X0127896Y0075568D01*
X0127988Y0075436D01*
X0128076Y0075302D01*
X0128161Y0075165D01*
X0128243Y0075027D01*
X0128321Y0074886D01*
X0128395Y0074744D01*
X0128466Y0074600D01*
X0128534Y0074454D01*
X0128597Y0074306D01*
X0128658Y0074157D01*
X0128714Y0074006D01*
X0128767Y0073854D01*
X0128816Y0073701D01*
X0128861Y0073547D01*
X0128902Y0073392D01*
X0128940Y0073235D01*
X0128973Y0073078D01*
X0129003Y0072920D01*
X0129029Y0072761D01*
X0129050Y0072602D01*
X0129068Y0072442D01*
X0129082Y0072282D01*
X0129092Y0072121D01*
X0129098Y0071961D01*
X0129100Y0071800D01*
X0129098Y0071639D01*
X0129092Y0071479D01*
X0129082Y0071318D01*
X0129068Y0071158D01*
X0129050Y0070998D01*
X0129029Y0070839D01*
X0129003Y0070680D01*
X0128973Y0070522D01*
X0128940Y0070365D01*
X0128902Y0070208D01*
X0128861Y0070053D01*
X0128816Y0069899D01*
X0128767Y0069746D01*
X0128714Y0069594D01*
X0128658Y0069443D01*
X0128597Y0069294D01*
X0128534Y0069146D01*
X0128466Y0069000D01*
X0128395Y0068856D01*
X0128321Y0068714D01*
X0128243Y0068573D01*
X0128161Y0068435D01*
X0128076Y0068298D01*
X0127988Y0068164D01*
X0127896Y0068032D01*
X0127801Y0067902D01*
X0127703Y0067774D01*
X0127602Y0067649D01*
X0127498Y0067527D01*
X0127391Y0067407D01*
X0127281Y0067290D01*
X0127168Y0067175D01*
X0127052Y0067064D01*
X0126933Y0066955D01*
X0126812Y0066850D01*
X0126688Y0066747D01*
X0126562Y0066647D01*
X0126434Y0066551D01*
X0126303Y0066458D01*
X0126169Y0066368D01*
X0126034Y0066281D01*
X0125896Y0066198D01*
X0125757Y0066118D01*
X0125615Y0066042D01*
X0125472Y0065969D01*
X0125327Y0065900D01*
X0125180Y0065834D01*
X0125032Y0065772D01*
X0124882Y0065714D01*
X0124731Y0065659D01*
X0124578Y0065608D01*
X0124424Y0065561D01*
X0124269Y0065518D01*
X0124113Y0065479D01*
X0123957Y0065443D01*
X0123799Y0065412D01*
X0123641Y0065384D01*
X0123482Y0065360D01*
X0123322Y0065340D01*
X0123162Y0065324D01*
X0123002Y0065312D01*
X0122841Y0065304D01*
X0122680Y0065300D01*
X0122520Y0065300D01*
X0122359Y0065304D01*
X0122198Y0065312D01*
X0122038Y0065324D01*
X0121878Y0065340D01*
X0121718Y0065360D01*
X0121559Y0065384D01*
X0121401Y0065412D01*
X0121243Y0065443D01*
X0121087Y0065479D01*
X0120931Y0065518D01*
X0120776Y0065561D01*
X0120622Y0065608D01*
X0120469Y0065659D01*
X0120318Y0065714D01*
X0120168Y0065772D01*
X0120020Y0065834D01*
X0119873Y0065900D01*
X0119728Y0065969D01*
X0119585Y0066042D01*
X0119443Y0066118D01*
X0119304Y0066198D01*
X0119166Y0066281D01*
X0119031Y0066368D01*
X0118897Y0066458D01*
X0118766Y0066551D01*
X0118638Y0066647D01*
X0118512Y0066747D01*
X0118388Y0066850D01*
X0118267Y0066955D01*
X0118148Y0067064D01*
X0118032Y0067175D01*
X0117919Y0067290D01*
X0117809Y0067407D01*
X0117702Y0067527D01*
X0117598Y0067649D01*
X0117497Y0067774D01*
X0117399Y0067902D01*
X0117304Y0068032D01*
X0117212Y0068164D01*
X0117124Y0068298D01*
X0117039Y0068435D01*
X0116957Y0068573D01*
X0116879Y0068714D01*
X0116805Y0068856D01*
X0116734Y0069000D01*
X0116666Y0069146D01*
X0116603Y0069294D01*
X0116542Y0069443D01*
X0116486Y0069594D01*
X0116433Y0069746D01*
X0116384Y0069899D01*
X0116339Y0070053D01*
X0116298Y0070208D01*
X0116260Y0070365D01*
X0116227Y0070522D01*
X0116197Y0070680D01*
X0116171Y0070839D01*
X0116150Y0070998D01*
X0116132Y0071158D01*
X0116118Y0071318D01*
X0116108Y0071479D01*
X0116102Y0071639D01*
X0116100Y0071800D01*
X0201100Y0071800D02*
X0201102Y0071961D01*
X0201108Y0072121D01*
X0201118Y0072282D01*
X0201132Y0072442D01*
X0201150Y0072602D01*
X0201171Y0072761D01*
X0201197Y0072920D01*
X0201227Y0073078D01*
X0201260Y0073235D01*
X0201298Y0073392D01*
X0201339Y0073547D01*
X0201384Y0073701D01*
X0201433Y0073854D01*
X0201486Y0074006D01*
X0201542Y0074157D01*
X0201603Y0074306D01*
X0201666Y0074454D01*
X0201734Y0074600D01*
X0201805Y0074744D01*
X0201879Y0074886D01*
X0201957Y0075027D01*
X0202039Y0075165D01*
X0202124Y0075302D01*
X0202212Y0075436D01*
X0202304Y0075568D01*
X0202399Y0075698D01*
X0202497Y0075826D01*
X0202598Y0075951D01*
X0202702Y0076073D01*
X0202809Y0076193D01*
X0202919Y0076310D01*
X0203032Y0076425D01*
X0203148Y0076536D01*
X0203267Y0076645D01*
X0203388Y0076750D01*
X0203512Y0076853D01*
X0203638Y0076953D01*
X0203766Y0077049D01*
X0203897Y0077142D01*
X0204031Y0077232D01*
X0204166Y0077319D01*
X0204304Y0077402D01*
X0204443Y0077482D01*
X0204585Y0077558D01*
X0204728Y0077631D01*
X0204873Y0077700D01*
X0205020Y0077766D01*
X0205168Y0077828D01*
X0205318Y0077886D01*
X0205469Y0077941D01*
X0205622Y0077992D01*
X0205776Y0078039D01*
X0205931Y0078082D01*
X0206087Y0078121D01*
X0206243Y0078157D01*
X0206401Y0078188D01*
X0206559Y0078216D01*
X0206718Y0078240D01*
X0206878Y0078260D01*
X0207038Y0078276D01*
X0207198Y0078288D01*
X0207359Y0078296D01*
X0207520Y0078300D01*
X0207680Y0078300D01*
X0207841Y0078296D01*
X0208002Y0078288D01*
X0208162Y0078276D01*
X0208322Y0078260D01*
X0208482Y0078240D01*
X0208641Y0078216D01*
X0208799Y0078188D01*
X0208957Y0078157D01*
X0209113Y0078121D01*
X0209269Y0078082D01*
X0209424Y0078039D01*
X0209578Y0077992D01*
X0209731Y0077941D01*
X0209882Y0077886D01*
X0210032Y0077828D01*
X0210180Y0077766D01*
X0210327Y0077700D01*
X0210472Y0077631D01*
X0210615Y0077558D01*
X0210757Y0077482D01*
X0210896Y0077402D01*
X0211034Y0077319D01*
X0211169Y0077232D01*
X0211303Y0077142D01*
X0211434Y0077049D01*
X0211562Y0076953D01*
X0211688Y0076853D01*
X0211812Y0076750D01*
X0211933Y0076645D01*
X0212052Y0076536D01*
X0212168Y0076425D01*
X0212281Y0076310D01*
X0212391Y0076193D01*
X0212498Y0076073D01*
X0212602Y0075951D01*
X0212703Y0075826D01*
X0212801Y0075698D01*
X0212896Y0075568D01*
X0212988Y0075436D01*
X0213076Y0075302D01*
X0213161Y0075165D01*
X0213243Y0075027D01*
X0213321Y0074886D01*
X0213395Y0074744D01*
X0213466Y0074600D01*
X0213534Y0074454D01*
X0213597Y0074306D01*
X0213658Y0074157D01*
X0213714Y0074006D01*
X0213767Y0073854D01*
X0213816Y0073701D01*
X0213861Y0073547D01*
X0213902Y0073392D01*
X0213940Y0073235D01*
X0213973Y0073078D01*
X0214003Y0072920D01*
X0214029Y0072761D01*
X0214050Y0072602D01*
X0214068Y0072442D01*
X0214082Y0072282D01*
X0214092Y0072121D01*
X0214098Y0071961D01*
X0214100Y0071800D01*
X0214098Y0071639D01*
X0214092Y0071479D01*
X0214082Y0071318D01*
X0214068Y0071158D01*
X0214050Y0070998D01*
X0214029Y0070839D01*
X0214003Y0070680D01*
X0213973Y0070522D01*
X0213940Y0070365D01*
X0213902Y0070208D01*
X0213861Y0070053D01*
X0213816Y0069899D01*
X0213767Y0069746D01*
X0213714Y0069594D01*
X0213658Y0069443D01*
X0213597Y0069294D01*
X0213534Y0069146D01*
X0213466Y0069000D01*
X0213395Y0068856D01*
X0213321Y0068714D01*
X0213243Y0068573D01*
X0213161Y0068435D01*
X0213076Y0068298D01*
X0212988Y0068164D01*
X0212896Y0068032D01*
X0212801Y0067902D01*
X0212703Y0067774D01*
X0212602Y0067649D01*
X0212498Y0067527D01*
X0212391Y0067407D01*
X0212281Y0067290D01*
X0212168Y0067175D01*
X0212052Y0067064D01*
X0211933Y0066955D01*
X0211812Y0066850D01*
X0211688Y0066747D01*
X0211562Y0066647D01*
X0211434Y0066551D01*
X0211303Y0066458D01*
X0211169Y0066368D01*
X0211034Y0066281D01*
X0210896Y0066198D01*
X0210757Y0066118D01*
X0210615Y0066042D01*
X0210472Y0065969D01*
X0210327Y0065900D01*
X0210180Y0065834D01*
X0210032Y0065772D01*
X0209882Y0065714D01*
X0209731Y0065659D01*
X0209578Y0065608D01*
X0209424Y0065561D01*
X0209269Y0065518D01*
X0209113Y0065479D01*
X0208957Y0065443D01*
X0208799Y0065412D01*
X0208641Y0065384D01*
X0208482Y0065360D01*
X0208322Y0065340D01*
X0208162Y0065324D01*
X0208002Y0065312D01*
X0207841Y0065304D01*
X0207680Y0065300D01*
X0207520Y0065300D01*
X0207359Y0065304D01*
X0207198Y0065312D01*
X0207038Y0065324D01*
X0206878Y0065340D01*
X0206718Y0065360D01*
X0206559Y0065384D01*
X0206401Y0065412D01*
X0206243Y0065443D01*
X0206087Y0065479D01*
X0205931Y0065518D01*
X0205776Y0065561D01*
X0205622Y0065608D01*
X0205469Y0065659D01*
X0205318Y0065714D01*
X0205168Y0065772D01*
X0205020Y0065834D01*
X0204873Y0065900D01*
X0204728Y0065969D01*
X0204585Y0066042D01*
X0204443Y0066118D01*
X0204304Y0066198D01*
X0204166Y0066281D01*
X0204031Y0066368D01*
X0203897Y0066458D01*
X0203766Y0066551D01*
X0203638Y0066647D01*
X0203512Y0066747D01*
X0203388Y0066850D01*
X0203267Y0066955D01*
X0203148Y0067064D01*
X0203032Y0067175D01*
X0202919Y0067290D01*
X0202809Y0067407D01*
X0202702Y0067527D01*
X0202598Y0067649D01*
X0202497Y0067774D01*
X0202399Y0067902D01*
X0202304Y0068032D01*
X0202212Y0068164D01*
X0202124Y0068298D01*
X0202039Y0068435D01*
X0201957Y0068573D01*
X0201879Y0068714D01*
X0201805Y0068856D01*
X0201734Y0069000D01*
X0201666Y0069146D01*
X0201603Y0069294D01*
X0201542Y0069443D01*
X0201486Y0069594D01*
X0201433Y0069746D01*
X0201384Y0069899D01*
X0201339Y0070053D01*
X0201298Y0070208D01*
X0201260Y0070365D01*
X0201227Y0070522D01*
X0201197Y0070680D01*
X0201171Y0070839D01*
X0201150Y0070998D01*
X0201132Y0071158D01*
X0201118Y0071318D01*
X0201108Y0071479D01*
X0201102Y0071639D01*
X0201100Y0071800D01*
X0262269Y0051800D02*
X0262271Y0051931D01*
X0262277Y0052063D01*
X0262287Y0052194D01*
X0262301Y0052325D01*
X0262319Y0052455D01*
X0262341Y0052584D01*
X0262366Y0052713D01*
X0262396Y0052841D01*
X0262430Y0052968D01*
X0262467Y0053095D01*
X0262508Y0053219D01*
X0262553Y0053343D01*
X0262602Y0053465D01*
X0262654Y0053586D01*
X0262710Y0053704D01*
X0262770Y0053822D01*
X0262833Y0053937D01*
X0262900Y0054050D01*
X0262970Y0054162D01*
X0263043Y0054271D01*
X0263119Y0054377D01*
X0263199Y0054482D01*
X0263282Y0054584D01*
X0263368Y0054683D01*
X0263457Y0054780D01*
X0263549Y0054874D01*
X0263644Y0054965D01*
X0263741Y0055054D01*
X0263841Y0055139D01*
X0263944Y0055221D01*
X0264049Y0055300D01*
X0264156Y0055376D01*
X0264266Y0055448D01*
X0264378Y0055517D01*
X0264492Y0055583D01*
X0264607Y0055645D01*
X0264725Y0055704D01*
X0264844Y0055759D01*
X0264965Y0055811D01*
X0265088Y0055858D01*
X0265212Y0055902D01*
X0265337Y0055943D01*
X0265463Y0055979D01*
X0265591Y0056012D01*
X0265719Y0056040D01*
X0265848Y0056065D01*
X0265978Y0056086D01*
X0266108Y0056103D01*
X0266239Y0056116D01*
X0266370Y0056125D01*
X0266501Y0056130D01*
X0266633Y0056131D01*
X0266764Y0056128D01*
X0266896Y0056121D01*
X0267027Y0056110D01*
X0267157Y0056095D01*
X0267287Y0056076D01*
X0267417Y0056053D01*
X0267545Y0056027D01*
X0267673Y0055996D01*
X0267800Y0055961D01*
X0267926Y0055923D01*
X0268050Y0055881D01*
X0268174Y0055835D01*
X0268295Y0055785D01*
X0268415Y0055732D01*
X0268534Y0055675D01*
X0268651Y0055615D01*
X0268765Y0055551D01*
X0268878Y0055483D01*
X0268989Y0055412D01*
X0269098Y0055338D01*
X0269204Y0055261D01*
X0269308Y0055180D01*
X0269409Y0055097D01*
X0269508Y0055010D01*
X0269604Y0054920D01*
X0269697Y0054827D01*
X0269788Y0054732D01*
X0269875Y0054634D01*
X0269960Y0054533D01*
X0270041Y0054430D01*
X0270119Y0054324D01*
X0270194Y0054216D01*
X0270266Y0054106D01*
X0270334Y0053994D01*
X0270399Y0053880D01*
X0270460Y0053763D01*
X0270518Y0053645D01*
X0270572Y0053525D01*
X0270623Y0053404D01*
X0270670Y0053281D01*
X0270713Y0053157D01*
X0270752Y0053032D01*
X0270788Y0052905D01*
X0270819Y0052777D01*
X0270847Y0052649D01*
X0270871Y0052520D01*
X0270891Y0052390D01*
X0270907Y0052259D01*
X0270919Y0052128D01*
X0270927Y0051997D01*
X0270931Y0051866D01*
X0270931Y0051734D01*
X0270927Y0051603D01*
X0270919Y0051472D01*
X0270907Y0051341D01*
X0270891Y0051210D01*
X0270871Y0051080D01*
X0270847Y0050951D01*
X0270819Y0050823D01*
X0270788Y0050695D01*
X0270752Y0050568D01*
X0270713Y0050443D01*
X0270670Y0050319D01*
X0270623Y0050196D01*
X0270572Y0050075D01*
X0270518Y0049955D01*
X0270460Y0049837D01*
X0270399Y0049720D01*
X0270334Y0049606D01*
X0270266Y0049494D01*
X0270194Y0049384D01*
X0270119Y0049276D01*
X0270041Y0049170D01*
X0269960Y0049067D01*
X0269875Y0048966D01*
X0269788Y0048868D01*
X0269697Y0048773D01*
X0269604Y0048680D01*
X0269508Y0048590D01*
X0269409Y0048503D01*
X0269308Y0048420D01*
X0269204Y0048339D01*
X0269098Y0048262D01*
X0268989Y0048188D01*
X0268878Y0048117D01*
X0268766Y0048049D01*
X0268651Y0047985D01*
X0268534Y0047925D01*
X0268415Y0047868D01*
X0268295Y0047815D01*
X0268174Y0047765D01*
X0268050Y0047719D01*
X0267926Y0047677D01*
X0267800Y0047639D01*
X0267673Y0047604D01*
X0267545Y0047573D01*
X0267417Y0047547D01*
X0267287Y0047524D01*
X0267157Y0047505D01*
X0267027Y0047490D01*
X0266896Y0047479D01*
X0266764Y0047472D01*
X0266633Y0047469D01*
X0266501Y0047470D01*
X0266370Y0047475D01*
X0266239Y0047484D01*
X0266108Y0047497D01*
X0265978Y0047514D01*
X0265848Y0047535D01*
X0265719Y0047560D01*
X0265591Y0047588D01*
X0265463Y0047621D01*
X0265337Y0047657D01*
X0265212Y0047698D01*
X0265088Y0047742D01*
X0264965Y0047789D01*
X0264844Y0047841D01*
X0264725Y0047896D01*
X0264607Y0047955D01*
X0264492Y0048017D01*
X0264378Y0048083D01*
X0264266Y0048152D01*
X0264156Y0048224D01*
X0264049Y0048300D01*
X0263944Y0048379D01*
X0263841Y0048461D01*
X0263741Y0048546D01*
X0263644Y0048635D01*
X0263549Y0048726D01*
X0263457Y0048820D01*
X0263368Y0048917D01*
X0263282Y0049016D01*
X0263199Y0049118D01*
X0263119Y0049223D01*
X0263043Y0049329D01*
X0262970Y0049438D01*
X0262900Y0049550D01*
X0262833Y0049663D01*
X0262770Y0049778D01*
X0262710Y0049896D01*
X0262654Y0050014D01*
X0262602Y0050135D01*
X0262553Y0050257D01*
X0262508Y0050381D01*
X0262467Y0050505D01*
X0262430Y0050632D01*
X0262396Y0050759D01*
X0262366Y0050887D01*
X0262341Y0051016D01*
X0262319Y0051145D01*
X0262301Y0051275D01*
X0262287Y0051406D01*
X0262277Y0051537D01*
X0262271Y0051669D01*
X0262269Y0051800D01*
X0201100Y0026800D02*
X0201102Y0026961D01*
X0201108Y0027121D01*
X0201118Y0027282D01*
X0201132Y0027442D01*
X0201150Y0027602D01*
X0201171Y0027761D01*
X0201197Y0027920D01*
X0201227Y0028078D01*
X0201260Y0028235D01*
X0201298Y0028392D01*
X0201339Y0028547D01*
X0201384Y0028701D01*
X0201433Y0028854D01*
X0201486Y0029006D01*
X0201542Y0029157D01*
X0201603Y0029306D01*
X0201666Y0029454D01*
X0201734Y0029600D01*
X0201805Y0029744D01*
X0201879Y0029886D01*
X0201957Y0030027D01*
X0202039Y0030165D01*
X0202124Y0030302D01*
X0202212Y0030436D01*
X0202304Y0030568D01*
X0202399Y0030698D01*
X0202497Y0030826D01*
X0202598Y0030951D01*
X0202702Y0031073D01*
X0202809Y0031193D01*
X0202919Y0031310D01*
X0203032Y0031425D01*
X0203148Y0031536D01*
X0203267Y0031645D01*
X0203388Y0031750D01*
X0203512Y0031853D01*
X0203638Y0031953D01*
X0203766Y0032049D01*
X0203897Y0032142D01*
X0204031Y0032232D01*
X0204166Y0032319D01*
X0204304Y0032402D01*
X0204443Y0032482D01*
X0204585Y0032558D01*
X0204728Y0032631D01*
X0204873Y0032700D01*
X0205020Y0032766D01*
X0205168Y0032828D01*
X0205318Y0032886D01*
X0205469Y0032941D01*
X0205622Y0032992D01*
X0205776Y0033039D01*
X0205931Y0033082D01*
X0206087Y0033121D01*
X0206243Y0033157D01*
X0206401Y0033188D01*
X0206559Y0033216D01*
X0206718Y0033240D01*
X0206878Y0033260D01*
X0207038Y0033276D01*
X0207198Y0033288D01*
X0207359Y0033296D01*
X0207520Y0033300D01*
X0207680Y0033300D01*
X0207841Y0033296D01*
X0208002Y0033288D01*
X0208162Y0033276D01*
X0208322Y0033260D01*
X0208482Y0033240D01*
X0208641Y0033216D01*
X0208799Y0033188D01*
X0208957Y0033157D01*
X0209113Y0033121D01*
X0209269Y0033082D01*
X0209424Y0033039D01*
X0209578Y0032992D01*
X0209731Y0032941D01*
X0209882Y0032886D01*
X0210032Y0032828D01*
X0210180Y0032766D01*
X0210327Y0032700D01*
X0210472Y0032631D01*
X0210615Y0032558D01*
X0210757Y0032482D01*
X0210896Y0032402D01*
X0211034Y0032319D01*
X0211169Y0032232D01*
X0211303Y0032142D01*
X0211434Y0032049D01*
X0211562Y0031953D01*
X0211688Y0031853D01*
X0211812Y0031750D01*
X0211933Y0031645D01*
X0212052Y0031536D01*
X0212168Y0031425D01*
X0212281Y0031310D01*
X0212391Y0031193D01*
X0212498Y0031073D01*
X0212602Y0030951D01*
X0212703Y0030826D01*
X0212801Y0030698D01*
X0212896Y0030568D01*
X0212988Y0030436D01*
X0213076Y0030302D01*
X0213161Y0030165D01*
X0213243Y0030027D01*
X0213321Y0029886D01*
X0213395Y0029744D01*
X0213466Y0029600D01*
X0213534Y0029454D01*
X0213597Y0029306D01*
X0213658Y0029157D01*
X0213714Y0029006D01*
X0213767Y0028854D01*
X0213816Y0028701D01*
X0213861Y0028547D01*
X0213902Y0028392D01*
X0213940Y0028235D01*
X0213973Y0028078D01*
X0214003Y0027920D01*
X0214029Y0027761D01*
X0214050Y0027602D01*
X0214068Y0027442D01*
X0214082Y0027282D01*
X0214092Y0027121D01*
X0214098Y0026961D01*
X0214100Y0026800D01*
X0214098Y0026639D01*
X0214092Y0026479D01*
X0214082Y0026318D01*
X0214068Y0026158D01*
X0214050Y0025998D01*
X0214029Y0025839D01*
X0214003Y0025680D01*
X0213973Y0025522D01*
X0213940Y0025365D01*
X0213902Y0025208D01*
X0213861Y0025053D01*
X0213816Y0024899D01*
X0213767Y0024746D01*
X0213714Y0024594D01*
X0213658Y0024443D01*
X0213597Y0024294D01*
X0213534Y0024146D01*
X0213466Y0024000D01*
X0213395Y0023856D01*
X0213321Y0023714D01*
X0213243Y0023573D01*
X0213161Y0023435D01*
X0213076Y0023298D01*
X0212988Y0023164D01*
X0212896Y0023032D01*
X0212801Y0022902D01*
X0212703Y0022774D01*
X0212602Y0022649D01*
X0212498Y0022527D01*
X0212391Y0022407D01*
X0212281Y0022290D01*
X0212168Y0022175D01*
X0212052Y0022064D01*
X0211933Y0021955D01*
X0211812Y0021850D01*
X0211688Y0021747D01*
X0211562Y0021647D01*
X0211434Y0021551D01*
X0211303Y0021458D01*
X0211169Y0021368D01*
X0211034Y0021281D01*
X0210896Y0021198D01*
X0210757Y0021118D01*
X0210615Y0021042D01*
X0210472Y0020969D01*
X0210327Y0020900D01*
X0210180Y0020834D01*
X0210032Y0020772D01*
X0209882Y0020714D01*
X0209731Y0020659D01*
X0209578Y0020608D01*
X0209424Y0020561D01*
X0209269Y0020518D01*
X0209113Y0020479D01*
X0208957Y0020443D01*
X0208799Y0020412D01*
X0208641Y0020384D01*
X0208482Y0020360D01*
X0208322Y0020340D01*
X0208162Y0020324D01*
X0208002Y0020312D01*
X0207841Y0020304D01*
X0207680Y0020300D01*
X0207520Y0020300D01*
X0207359Y0020304D01*
X0207198Y0020312D01*
X0207038Y0020324D01*
X0206878Y0020340D01*
X0206718Y0020360D01*
X0206559Y0020384D01*
X0206401Y0020412D01*
X0206243Y0020443D01*
X0206087Y0020479D01*
X0205931Y0020518D01*
X0205776Y0020561D01*
X0205622Y0020608D01*
X0205469Y0020659D01*
X0205318Y0020714D01*
X0205168Y0020772D01*
X0205020Y0020834D01*
X0204873Y0020900D01*
X0204728Y0020969D01*
X0204585Y0021042D01*
X0204443Y0021118D01*
X0204304Y0021198D01*
X0204166Y0021281D01*
X0204031Y0021368D01*
X0203897Y0021458D01*
X0203766Y0021551D01*
X0203638Y0021647D01*
X0203512Y0021747D01*
X0203388Y0021850D01*
X0203267Y0021955D01*
X0203148Y0022064D01*
X0203032Y0022175D01*
X0202919Y0022290D01*
X0202809Y0022407D01*
X0202702Y0022527D01*
X0202598Y0022649D01*
X0202497Y0022774D01*
X0202399Y0022902D01*
X0202304Y0023032D01*
X0202212Y0023164D01*
X0202124Y0023298D01*
X0202039Y0023435D01*
X0201957Y0023573D01*
X0201879Y0023714D01*
X0201805Y0023856D01*
X0201734Y0024000D01*
X0201666Y0024146D01*
X0201603Y0024294D01*
X0201542Y0024443D01*
X0201486Y0024594D01*
X0201433Y0024746D01*
X0201384Y0024899D01*
X0201339Y0025053D01*
X0201298Y0025208D01*
X0201260Y0025365D01*
X0201227Y0025522D01*
X0201197Y0025680D01*
X0201171Y0025839D01*
X0201150Y0025998D01*
X0201132Y0026158D01*
X0201118Y0026318D01*
X0201108Y0026479D01*
X0201102Y0026639D01*
X0201100Y0026800D01*
X0106100Y0026800D02*
X0106102Y0026961D01*
X0106108Y0027121D01*
X0106118Y0027282D01*
X0106132Y0027442D01*
X0106150Y0027602D01*
X0106171Y0027761D01*
X0106197Y0027920D01*
X0106227Y0028078D01*
X0106260Y0028235D01*
X0106298Y0028392D01*
X0106339Y0028547D01*
X0106384Y0028701D01*
X0106433Y0028854D01*
X0106486Y0029006D01*
X0106542Y0029157D01*
X0106603Y0029306D01*
X0106666Y0029454D01*
X0106734Y0029600D01*
X0106805Y0029744D01*
X0106879Y0029886D01*
X0106957Y0030027D01*
X0107039Y0030165D01*
X0107124Y0030302D01*
X0107212Y0030436D01*
X0107304Y0030568D01*
X0107399Y0030698D01*
X0107497Y0030826D01*
X0107598Y0030951D01*
X0107702Y0031073D01*
X0107809Y0031193D01*
X0107919Y0031310D01*
X0108032Y0031425D01*
X0108148Y0031536D01*
X0108267Y0031645D01*
X0108388Y0031750D01*
X0108512Y0031853D01*
X0108638Y0031953D01*
X0108766Y0032049D01*
X0108897Y0032142D01*
X0109031Y0032232D01*
X0109166Y0032319D01*
X0109304Y0032402D01*
X0109443Y0032482D01*
X0109585Y0032558D01*
X0109728Y0032631D01*
X0109873Y0032700D01*
X0110020Y0032766D01*
X0110168Y0032828D01*
X0110318Y0032886D01*
X0110469Y0032941D01*
X0110622Y0032992D01*
X0110776Y0033039D01*
X0110931Y0033082D01*
X0111087Y0033121D01*
X0111243Y0033157D01*
X0111401Y0033188D01*
X0111559Y0033216D01*
X0111718Y0033240D01*
X0111878Y0033260D01*
X0112038Y0033276D01*
X0112198Y0033288D01*
X0112359Y0033296D01*
X0112520Y0033300D01*
X0112680Y0033300D01*
X0112841Y0033296D01*
X0113002Y0033288D01*
X0113162Y0033276D01*
X0113322Y0033260D01*
X0113482Y0033240D01*
X0113641Y0033216D01*
X0113799Y0033188D01*
X0113957Y0033157D01*
X0114113Y0033121D01*
X0114269Y0033082D01*
X0114424Y0033039D01*
X0114578Y0032992D01*
X0114731Y0032941D01*
X0114882Y0032886D01*
X0115032Y0032828D01*
X0115180Y0032766D01*
X0115327Y0032700D01*
X0115472Y0032631D01*
X0115615Y0032558D01*
X0115757Y0032482D01*
X0115896Y0032402D01*
X0116034Y0032319D01*
X0116169Y0032232D01*
X0116303Y0032142D01*
X0116434Y0032049D01*
X0116562Y0031953D01*
X0116688Y0031853D01*
X0116812Y0031750D01*
X0116933Y0031645D01*
X0117052Y0031536D01*
X0117168Y0031425D01*
X0117281Y0031310D01*
X0117391Y0031193D01*
X0117498Y0031073D01*
X0117602Y0030951D01*
X0117703Y0030826D01*
X0117801Y0030698D01*
X0117896Y0030568D01*
X0117988Y0030436D01*
X0118076Y0030302D01*
X0118161Y0030165D01*
X0118243Y0030027D01*
X0118321Y0029886D01*
X0118395Y0029744D01*
X0118466Y0029600D01*
X0118534Y0029454D01*
X0118597Y0029306D01*
X0118658Y0029157D01*
X0118714Y0029006D01*
X0118767Y0028854D01*
X0118816Y0028701D01*
X0118861Y0028547D01*
X0118902Y0028392D01*
X0118940Y0028235D01*
X0118973Y0028078D01*
X0119003Y0027920D01*
X0119029Y0027761D01*
X0119050Y0027602D01*
X0119068Y0027442D01*
X0119082Y0027282D01*
X0119092Y0027121D01*
X0119098Y0026961D01*
X0119100Y0026800D01*
X0119098Y0026639D01*
X0119092Y0026479D01*
X0119082Y0026318D01*
X0119068Y0026158D01*
X0119050Y0025998D01*
X0119029Y0025839D01*
X0119003Y0025680D01*
X0118973Y0025522D01*
X0118940Y0025365D01*
X0118902Y0025208D01*
X0118861Y0025053D01*
X0118816Y0024899D01*
X0118767Y0024746D01*
X0118714Y0024594D01*
X0118658Y0024443D01*
X0118597Y0024294D01*
X0118534Y0024146D01*
X0118466Y0024000D01*
X0118395Y0023856D01*
X0118321Y0023714D01*
X0118243Y0023573D01*
X0118161Y0023435D01*
X0118076Y0023298D01*
X0117988Y0023164D01*
X0117896Y0023032D01*
X0117801Y0022902D01*
X0117703Y0022774D01*
X0117602Y0022649D01*
X0117498Y0022527D01*
X0117391Y0022407D01*
X0117281Y0022290D01*
X0117168Y0022175D01*
X0117052Y0022064D01*
X0116933Y0021955D01*
X0116812Y0021850D01*
X0116688Y0021747D01*
X0116562Y0021647D01*
X0116434Y0021551D01*
X0116303Y0021458D01*
X0116169Y0021368D01*
X0116034Y0021281D01*
X0115896Y0021198D01*
X0115757Y0021118D01*
X0115615Y0021042D01*
X0115472Y0020969D01*
X0115327Y0020900D01*
X0115180Y0020834D01*
X0115032Y0020772D01*
X0114882Y0020714D01*
X0114731Y0020659D01*
X0114578Y0020608D01*
X0114424Y0020561D01*
X0114269Y0020518D01*
X0114113Y0020479D01*
X0113957Y0020443D01*
X0113799Y0020412D01*
X0113641Y0020384D01*
X0113482Y0020360D01*
X0113322Y0020340D01*
X0113162Y0020324D01*
X0113002Y0020312D01*
X0112841Y0020304D01*
X0112680Y0020300D01*
X0112520Y0020300D01*
X0112359Y0020304D01*
X0112198Y0020312D01*
X0112038Y0020324D01*
X0111878Y0020340D01*
X0111718Y0020360D01*
X0111559Y0020384D01*
X0111401Y0020412D01*
X0111243Y0020443D01*
X0111087Y0020479D01*
X0110931Y0020518D01*
X0110776Y0020561D01*
X0110622Y0020608D01*
X0110469Y0020659D01*
X0110318Y0020714D01*
X0110168Y0020772D01*
X0110020Y0020834D01*
X0109873Y0020900D01*
X0109728Y0020969D01*
X0109585Y0021042D01*
X0109443Y0021118D01*
X0109304Y0021198D01*
X0109166Y0021281D01*
X0109031Y0021368D01*
X0108897Y0021458D01*
X0108766Y0021551D01*
X0108638Y0021647D01*
X0108512Y0021747D01*
X0108388Y0021850D01*
X0108267Y0021955D01*
X0108148Y0022064D01*
X0108032Y0022175D01*
X0107919Y0022290D01*
X0107809Y0022407D01*
X0107702Y0022527D01*
X0107598Y0022649D01*
X0107497Y0022774D01*
X0107399Y0022902D01*
X0107304Y0023032D01*
X0107212Y0023164D01*
X0107124Y0023298D01*
X0107039Y0023435D01*
X0106957Y0023573D01*
X0106879Y0023714D01*
X0106805Y0023856D01*
X0106734Y0024000D01*
X0106666Y0024146D01*
X0106603Y0024294D01*
X0106542Y0024443D01*
X0106486Y0024594D01*
X0106433Y0024746D01*
X0106384Y0024899D01*
X0106339Y0025053D01*
X0106298Y0025208D01*
X0106260Y0025365D01*
X0106227Y0025522D01*
X0106197Y0025680D01*
X0106171Y0025839D01*
X0106150Y0025998D01*
X0106132Y0026158D01*
X0106118Y0026318D01*
X0106108Y0026479D01*
X0106102Y0026639D01*
X0106100Y0026800D01*
D11*
X0091409Y0026385D02*
X0091409Y0023966D01*
X0090925Y0023483D01*
X0090441Y0023483D01*
X0089957Y0024450D02*
X0091409Y0024450D01*
X0089957Y0024450D02*
X0089474Y0024934D01*
X0089474Y0026385D01*
X0088469Y0026385D02*
X0087986Y0026385D01*
X0087018Y0025417D01*
X0087018Y0024450D02*
X0087018Y0026385D01*
X0086007Y0025901D02*
X0086007Y0025417D01*
X0084072Y0025417D01*
X0084072Y0024934D02*
X0084072Y0025901D01*
X0084555Y0026385D01*
X0085523Y0026385D01*
X0086007Y0025901D01*
X0085523Y0024450D02*
X0084555Y0024450D01*
X0084072Y0024934D01*
X0083075Y0024450D02*
X0082591Y0024934D01*
X0082591Y0026869D01*
X0082107Y0026385D02*
X0083075Y0026385D01*
X0081111Y0026385D02*
X0080143Y0026385D01*
X0080627Y0026869D02*
X0080627Y0024934D01*
X0081111Y0024450D01*
X0079131Y0024450D02*
X0077680Y0024450D01*
X0077197Y0024934D01*
X0077680Y0025417D01*
X0079131Y0025417D01*
X0079131Y0025901D02*
X0079131Y0024450D01*
X0079131Y0025901D02*
X0078648Y0026385D01*
X0077680Y0026385D01*
X0076185Y0026385D02*
X0075701Y0025901D01*
X0074250Y0025901D01*
X0074250Y0024450D02*
X0075701Y0024450D01*
X0076185Y0024934D01*
X0076185Y0025417D01*
X0075701Y0025901D01*
X0076185Y0026385D02*
X0076185Y0026869D01*
X0075701Y0027352D01*
X0074250Y0027352D01*
X0074250Y0024450D01*
X0062660Y0024450D02*
X0061209Y0024450D01*
X0060725Y0024934D01*
X0060725Y0025901D01*
X0061209Y0026385D01*
X0062660Y0026385D01*
X0062660Y0027352D02*
X0062660Y0024450D01*
X0059721Y0026385D02*
X0059237Y0026385D01*
X0058269Y0025417D01*
X0058269Y0024450D02*
X0058269Y0026385D01*
X0057258Y0026385D02*
X0056774Y0025901D01*
X0055323Y0025901D01*
X0055323Y0024450D02*
X0056774Y0024450D01*
X0057258Y0024934D01*
X0057258Y0025417D01*
X0056774Y0025901D01*
X0057258Y0026385D02*
X0057258Y0026869D01*
X0056774Y0027352D01*
X0055323Y0027352D01*
X0055323Y0024450D01*
X0051380Y0024450D02*
X0050412Y0024450D01*
X0050896Y0024450D02*
X0050896Y0027352D01*
X0050412Y0027352D01*
X0049401Y0025901D02*
X0048917Y0026385D01*
X0047949Y0026385D01*
X0047466Y0025901D01*
X0047466Y0024934D01*
X0047949Y0024450D01*
X0048917Y0024450D01*
X0049401Y0024934D01*
X0049401Y0025901D01*
X0046461Y0026385D02*
X0045978Y0026385D01*
X0045010Y0025417D01*
X0045010Y0024450D02*
X0045010Y0026385D01*
X0044013Y0026385D02*
X0043046Y0026385D01*
X0043530Y0026869D02*
X0043530Y0024934D01*
X0044013Y0024450D01*
X0042034Y0024450D02*
X0042034Y0025901D01*
X0041551Y0026385D01*
X0040099Y0026385D01*
X0040099Y0024450D01*
X0039088Y0024934D02*
X0039088Y0025901D01*
X0038604Y0026385D01*
X0037637Y0026385D01*
X0037153Y0025901D01*
X0037153Y0024934D01*
X0037637Y0024450D01*
X0038604Y0024450D01*
X0039088Y0024934D01*
X0036141Y0024934D02*
X0035657Y0024450D01*
X0034690Y0024450D01*
X0034206Y0024934D01*
X0034206Y0026869D01*
X0034690Y0027352D01*
X0035657Y0027352D01*
X0036141Y0026869D01*
X0030248Y0025901D02*
X0028313Y0024450D01*
X0027302Y0025901D02*
X0025367Y0025901D01*
X0028313Y0027352D02*
X0030248Y0025901D01*
X0021409Y0026385D02*
X0021409Y0023966D01*
X0020925Y0023483D01*
X0020441Y0023483D01*
X0019957Y0024450D02*
X0021409Y0024450D01*
X0019957Y0024450D02*
X0019474Y0024934D01*
X0019474Y0025901D01*
X0019957Y0026385D01*
X0021409Y0026385D01*
X0017993Y0026385D02*
X0017993Y0024450D01*
X0017509Y0024450D02*
X0018477Y0024450D01*
X0017993Y0026385D02*
X0017509Y0026385D01*
X0017993Y0027352D02*
X0017993Y0027836D01*
X0016498Y0026869D02*
X0016014Y0027352D01*
X0015047Y0027352D01*
X0014563Y0026869D01*
X0014563Y0026385D01*
X0015047Y0025901D01*
X0016014Y0025901D01*
X0016498Y0025417D01*
X0016498Y0024934D01*
X0016014Y0024450D01*
X0015047Y0024450D01*
X0014563Y0024934D01*
X0013559Y0024450D02*
X0012107Y0025417D01*
X0013559Y0026385D01*
X0012107Y0027352D02*
X0012107Y0024450D01*
X0011096Y0024450D02*
X0009645Y0024450D01*
X0009161Y0024934D01*
X0009161Y0025901D01*
X0009645Y0026385D01*
X0011096Y0026385D01*
X0007680Y0026385D02*
X0007680Y0024450D01*
X0007197Y0024450D02*
X0008164Y0024450D01*
X0006185Y0024450D02*
X0004250Y0024450D01*
X0004250Y0027352D01*
X0007197Y0026385D02*
X0007680Y0026385D01*
X0007680Y0027352D02*
X0007680Y0027836D01*
X0073548Y0054450D02*
X0074515Y0055417D01*
X0073548Y0056385D01*
X0076450Y0056385D01*
X0075966Y0057397D02*
X0076450Y0057880D01*
X0076450Y0059331D01*
X0074515Y0059331D01*
X0073548Y0060343D02*
X0073548Y0060827D01*
X0076450Y0060827D01*
X0076450Y0060343D02*
X0076450Y0061311D01*
X0075966Y0062791D02*
X0074031Y0062791D01*
X0074515Y0062307D02*
X0074515Y0063275D01*
X0074515Y0064272D02*
X0074515Y0064755D01*
X0076450Y0064755D01*
X0076450Y0064272D02*
X0076450Y0065239D01*
X0076450Y0067204D02*
X0073548Y0067204D01*
X0073548Y0068171D02*
X0073548Y0066236D01*
X0073548Y0064755D02*
X0073064Y0064755D01*
X0075966Y0062791D02*
X0076450Y0063275D01*
X0075966Y0057397D02*
X0074515Y0057397D01*
X0073548Y0054450D02*
X0076450Y0054450D01*
X0093548Y0059093D02*
X0095483Y0059093D01*
X0096450Y0060061D01*
X0095483Y0061028D01*
X0093548Y0061028D01*
X0094999Y0062040D02*
X0094999Y0063975D01*
X0094031Y0064986D02*
X0095966Y0064986D01*
X0096450Y0065470D01*
X0096450Y0066438D01*
X0095966Y0066921D01*
X0094031Y0066921D02*
X0093548Y0066438D01*
X0093548Y0065470D01*
X0094031Y0064986D01*
X0094031Y0070880D02*
X0093548Y0071363D01*
X0093548Y0072331D01*
X0094031Y0072815D01*
X0094515Y0072815D01*
X0096450Y0070880D01*
X0096450Y0072815D01*
X0095966Y0073826D02*
X0094031Y0073826D01*
X0093548Y0074310D01*
X0093548Y0075277D01*
X0094031Y0075761D01*
X0095966Y0073826D01*
X0096450Y0074310D01*
X0096450Y0075277D01*
X0095966Y0075761D01*
X0094031Y0075761D01*
X0094515Y0076773D02*
X0093548Y0077740D01*
X0096450Y0077740D01*
X0096450Y0076773D02*
X0096450Y0078708D01*
X0095966Y0079719D02*
X0094999Y0079719D01*
X0094999Y0081170D01*
X0095483Y0081654D01*
X0095966Y0081654D01*
X0096450Y0081170D01*
X0096450Y0080203D01*
X0095966Y0079719D01*
X0094999Y0079719D02*
X0094031Y0080687D01*
X0093548Y0081654D01*
X0076450Y0081921D02*
X0074999Y0081921D01*
X0074515Y0081438D01*
X0074515Y0079986D01*
X0076450Y0079986D01*
X0076450Y0078975D02*
X0076450Y0077524D01*
X0075966Y0077040D01*
X0075483Y0077524D01*
X0075483Y0078975D01*
X0074999Y0078975D02*
X0076450Y0078975D01*
X0074999Y0078975D02*
X0074515Y0078491D01*
X0074515Y0077524D01*
X0074515Y0076043D02*
X0074515Y0075076D01*
X0074031Y0075559D02*
X0075966Y0075559D01*
X0076450Y0076043D01*
X0075966Y0074064D02*
X0075483Y0073580D01*
X0075483Y0072613D01*
X0074999Y0072129D01*
X0074515Y0072613D01*
X0074515Y0074064D01*
X0075966Y0074064D02*
X0076450Y0073580D01*
X0076450Y0072129D01*
X0076450Y0071118D02*
X0076450Y0069666D01*
X0075966Y0069183D01*
X0075483Y0069666D01*
X0075483Y0071118D01*
X0074999Y0071118D02*
X0076450Y0071118D01*
X0074999Y0071118D02*
X0074515Y0070634D01*
X0074515Y0069666D01*
X0074515Y0082933D02*
X0074515Y0083900D01*
X0074031Y0083417D02*
X0075966Y0083417D01*
X0076450Y0083900D01*
X0075966Y0087844D02*
X0076450Y0088328D01*
X0076450Y0089295D01*
X0075966Y0089779D01*
X0075483Y0089779D01*
X0074999Y0089295D01*
X0074999Y0088328D01*
X0074515Y0087844D01*
X0074031Y0087844D01*
X0073548Y0088328D01*
X0073548Y0089295D01*
X0074031Y0089779D01*
X0074515Y0090790D02*
X0074515Y0092242D01*
X0074999Y0092725D01*
X0075966Y0092725D01*
X0076450Y0092242D01*
X0076450Y0090790D01*
X0077417Y0090790D02*
X0074515Y0090790D01*
X0074999Y0093737D02*
X0075966Y0093737D01*
X0076450Y0094221D01*
X0076450Y0095188D01*
X0075966Y0095672D01*
X0074999Y0095672D01*
X0074515Y0095188D01*
X0074515Y0094221D01*
X0074999Y0093737D01*
X0074515Y0096683D02*
X0075966Y0096683D01*
X0076450Y0097167D01*
X0076450Y0098618D01*
X0074515Y0098618D01*
X0074515Y0099630D02*
X0074515Y0100597D01*
X0074031Y0100114D02*
X0075966Y0100114D01*
X0076450Y0100597D01*
X0076450Y0104541D02*
X0076450Y0105508D01*
X0076450Y0105025D02*
X0073548Y0105025D01*
X0073548Y0105508D02*
X0073548Y0104541D01*
X0074515Y0106505D02*
X0074515Y0107956D01*
X0074999Y0108440D01*
X0076450Y0108440D01*
X0075966Y0109935D02*
X0074031Y0109935D01*
X0074515Y0109452D02*
X0074515Y0110419D01*
X0074999Y0111416D02*
X0074515Y0111900D01*
X0074515Y0112867D01*
X0074999Y0113351D01*
X0075483Y0113351D01*
X0075483Y0111416D01*
X0075966Y0111416D02*
X0074999Y0111416D01*
X0075966Y0111416D02*
X0076450Y0111900D01*
X0076450Y0112867D01*
X0076450Y0114363D02*
X0074515Y0114363D01*
X0074515Y0115330D02*
X0074515Y0115814D01*
X0074515Y0115330D02*
X0075483Y0114363D01*
X0074999Y0116818D02*
X0074999Y0117785D01*
X0074031Y0117302D02*
X0073548Y0117785D01*
X0074031Y0117302D02*
X0076450Y0117302D01*
X0075966Y0118782D02*
X0075483Y0119266D01*
X0075483Y0120717D01*
X0074999Y0120717D02*
X0076450Y0120717D01*
X0076450Y0119266D01*
X0075966Y0118782D01*
X0074515Y0119266D02*
X0074515Y0120234D01*
X0074999Y0120717D01*
X0074999Y0121729D02*
X0075966Y0121729D01*
X0076450Y0122213D01*
X0076450Y0123664D01*
X0075966Y0124675D02*
X0074999Y0124675D01*
X0074515Y0125159D01*
X0074515Y0126127D01*
X0074999Y0126610D01*
X0075483Y0126610D01*
X0075483Y0124675D01*
X0075966Y0124675D02*
X0076450Y0125159D01*
X0076450Y0126127D01*
X0074515Y0123664D02*
X0074515Y0122213D01*
X0074999Y0121729D01*
X0075483Y0130568D02*
X0073548Y0130568D01*
X0075483Y0130568D02*
X0076450Y0131536D01*
X0075483Y0132503D01*
X0073548Y0132503D01*
X0074031Y0133515D02*
X0073548Y0133999D01*
X0073548Y0134966D01*
X0074031Y0135450D01*
X0074515Y0135450D01*
X0076450Y0133515D01*
X0076450Y0135450D01*
X0086750Y0134852D02*
X0086750Y0131950D01*
X0086750Y0132917D02*
X0088201Y0132917D01*
X0088685Y0133401D01*
X0088685Y0134369D01*
X0088201Y0134852D01*
X0086750Y0134852D01*
X0089697Y0133401D02*
X0089697Y0132434D01*
X0090180Y0131950D01*
X0091148Y0131950D01*
X0091631Y0132434D01*
X0091631Y0133401D01*
X0091148Y0133885D01*
X0090180Y0133885D01*
X0089697Y0133401D01*
X0092643Y0133885D02*
X0092643Y0132434D01*
X0093127Y0131950D01*
X0093611Y0132434D01*
X0094094Y0131950D01*
X0094578Y0132434D01*
X0094578Y0133885D01*
X0095590Y0133401D02*
X0095590Y0132434D01*
X0096073Y0131950D01*
X0097041Y0131950D01*
X0097525Y0132917D02*
X0095590Y0132917D01*
X0095590Y0133401D02*
X0096073Y0133885D01*
X0097041Y0133885D01*
X0097525Y0133401D01*
X0097525Y0132917D01*
X0098536Y0132917D02*
X0099504Y0133885D01*
X0099987Y0133885D01*
X0098536Y0133885D02*
X0098536Y0131950D01*
X0116750Y0131950D02*
X0116750Y0134852D01*
X0118201Y0134852D01*
X0118685Y0134369D01*
X0118685Y0133401D01*
X0118201Y0132917D01*
X0116750Y0132917D01*
X0119697Y0132434D02*
X0120180Y0131950D01*
X0121148Y0131950D01*
X0121631Y0132434D01*
X0121631Y0133401D01*
X0121148Y0133885D01*
X0120180Y0133885D01*
X0119697Y0133401D01*
X0119697Y0132434D01*
X0122643Y0132434D02*
X0122643Y0133885D01*
X0122643Y0132434D02*
X0123127Y0131950D01*
X0123611Y0132434D01*
X0124094Y0131950D01*
X0124578Y0132434D01*
X0124578Y0133885D01*
X0125590Y0133401D02*
X0126073Y0133885D01*
X0127041Y0133885D01*
X0127525Y0133401D01*
X0127525Y0132917D01*
X0125590Y0132917D01*
X0125590Y0132434D02*
X0125590Y0133401D01*
X0125590Y0132434D02*
X0126073Y0131950D01*
X0127041Y0131950D01*
X0128536Y0131950D02*
X0128536Y0133885D01*
X0128536Y0132917D02*
X0129504Y0133885D01*
X0129987Y0133885D01*
X0146750Y0132917D02*
X0148201Y0132917D01*
X0148685Y0133401D01*
X0148685Y0134369D01*
X0148201Y0134852D01*
X0146750Y0134852D01*
X0146750Y0131950D01*
X0149697Y0132434D02*
X0149697Y0133401D01*
X0150180Y0133885D01*
X0151148Y0133885D01*
X0151631Y0133401D01*
X0151631Y0132434D01*
X0151148Y0131950D01*
X0150180Y0131950D01*
X0149697Y0132434D01*
X0152643Y0132434D02*
X0152643Y0133885D01*
X0152643Y0132434D02*
X0153127Y0131950D01*
X0153611Y0132434D01*
X0154094Y0131950D01*
X0154578Y0132434D01*
X0154578Y0133885D01*
X0155590Y0133401D02*
X0155590Y0132434D01*
X0156073Y0131950D01*
X0157041Y0131950D01*
X0157525Y0132917D02*
X0155590Y0132917D01*
X0155590Y0133401D02*
X0156073Y0133885D01*
X0157041Y0133885D01*
X0157525Y0133401D01*
X0157525Y0132917D01*
X0158536Y0132917D02*
X0159504Y0133885D01*
X0159987Y0133885D01*
X0158536Y0133885D02*
X0158536Y0131950D01*
X0176750Y0131950D02*
X0176750Y0134852D01*
X0178201Y0134852D01*
X0178685Y0134369D01*
X0178685Y0133401D01*
X0178201Y0132917D01*
X0176750Y0132917D01*
X0179697Y0132434D02*
X0180180Y0131950D01*
X0181148Y0131950D01*
X0181631Y0132434D01*
X0181631Y0133401D01*
X0181148Y0133885D01*
X0180180Y0133885D01*
X0179697Y0133401D01*
X0179697Y0132434D01*
X0182643Y0132434D02*
X0182643Y0133885D01*
X0182643Y0132434D02*
X0183127Y0131950D01*
X0183611Y0132434D01*
X0184094Y0131950D01*
X0184578Y0132434D01*
X0184578Y0133885D01*
X0185590Y0133401D02*
X0186073Y0133885D01*
X0187041Y0133885D01*
X0187525Y0133401D01*
X0187525Y0132917D01*
X0185590Y0132917D01*
X0185590Y0132434D02*
X0185590Y0133401D01*
X0185590Y0132434D02*
X0186073Y0131950D01*
X0187041Y0131950D01*
X0188536Y0131950D02*
X0188536Y0133885D01*
X0188536Y0132917D02*
X0189504Y0133885D01*
X0189987Y0133885D01*
X0184005Y0151950D02*
X0183038Y0151950D01*
X0182554Y0152434D01*
X0182554Y0153401D01*
X0184005Y0153401D01*
X0184489Y0152917D01*
X0184489Y0152434D01*
X0184005Y0151950D01*
X0182554Y0153401D02*
X0183521Y0154369D01*
X0184489Y0154852D01*
X0181542Y0153401D02*
X0181542Y0151950D01*
X0181542Y0153401D02*
X0181059Y0153885D01*
X0179607Y0153885D01*
X0179607Y0151950D01*
X0178611Y0151950D02*
X0177643Y0151950D01*
X0178127Y0151950D02*
X0178127Y0153885D01*
X0177643Y0153885D01*
X0178127Y0154852D02*
X0178127Y0155336D01*
X0176631Y0153401D02*
X0176631Y0152434D01*
X0176148Y0151950D01*
X0174697Y0151950D01*
X0174697Y0150983D02*
X0174697Y0153885D01*
X0176148Y0153885D01*
X0176631Y0153401D01*
X0173685Y0152917D02*
X0173685Y0154852D01*
X0173685Y0152917D02*
X0172717Y0151950D01*
X0171750Y0152917D01*
X0171750Y0154852D01*
X0154489Y0154852D02*
X0152554Y0154852D01*
X0152554Y0153401D01*
X0153521Y0153885D01*
X0154005Y0153885D01*
X0154489Y0153401D01*
X0154489Y0152434D01*
X0154005Y0151950D01*
X0153038Y0151950D01*
X0152554Y0152434D01*
X0151542Y0151950D02*
X0151542Y0153401D01*
X0151059Y0153885D01*
X0149607Y0153885D01*
X0149607Y0151950D01*
X0148611Y0151950D02*
X0147643Y0151950D01*
X0148127Y0151950D02*
X0148127Y0153885D01*
X0147643Y0153885D01*
X0148127Y0154852D02*
X0148127Y0155336D01*
X0146631Y0153401D02*
X0146148Y0153885D01*
X0144697Y0153885D01*
X0144697Y0150983D01*
X0144697Y0151950D02*
X0146148Y0151950D01*
X0146631Y0152434D01*
X0146631Y0153401D01*
X0143685Y0152917D02*
X0142717Y0151950D01*
X0141750Y0152917D01*
X0141750Y0154852D01*
X0143685Y0154852D02*
X0143685Y0152917D01*
X0124489Y0153401D02*
X0122554Y0153401D01*
X0124005Y0154852D01*
X0124005Y0151950D01*
X0121542Y0151950D02*
X0121542Y0153401D01*
X0121059Y0153885D01*
X0119607Y0153885D01*
X0119607Y0151950D01*
X0118611Y0151950D02*
X0117643Y0151950D01*
X0118127Y0151950D02*
X0118127Y0153885D01*
X0117643Y0153885D01*
X0118127Y0154852D02*
X0118127Y0155336D01*
X0116631Y0153401D02*
X0116631Y0152434D01*
X0116148Y0151950D01*
X0114697Y0151950D01*
X0114697Y0150983D02*
X0114697Y0153885D01*
X0116148Y0153885D01*
X0116631Y0153401D01*
X0113685Y0152917D02*
X0113685Y0154852D01*
X0113685Y0152917D02*
X0112717Y0151950D01*
X0111750Y0152917D01*
X0111750Y0154852D01*
X0094489Y0154369D02*
X0094489Y0153885D01*
X0094005Y0153401D01*
X0094489Y0152917D01*
X0094489Y0152434D01*
X0094005Y0151950D01*
X0093038Y0151950D01*
X0092554Y0152434D01*
X0091542Y0151950D02*
X0091542Y0153401D01*
X0091059Y0153885D01*
X0089607Y0153885D01*
X0089607Y0151950D01*
X0088611Y0151950D02*
X0087643Y0151950D01*
X0088127Y0151950D02*
X0088127Y0153885D01*
X0087643Y0153885D01*
X0088127Y0154852D02*
X0088127Y0155336D01*
X0086631Y0153401D02*
X0086148Y0153885D01*
X0084697Y0153885D01*
X0084697Y0150983D01*
X0084697Y0151950D02*
X0086148Y0151950D01*
X0086631Y0152434D01*
X0086631Y0153401D01*
X0083685Y0152917D02*
X0082717Y0151950D01*
X0081750Y0152917D01*
X0081750Y0154852D01*
X0083685Y0154852D02*
X0083685Y0152917D01*
X0092554Y0154369D02*
X0093038Y0154852D01*
X0094005Y0154852D01*
X0094489Y0154369D01*
X0094005Y0153401D02*
X0093521Y0153401D01*
X0039273Y0146385D02*
X0037822Y0145417D01*
X0039273Y0144450D01*
X0037822Y0144450D02*
X0037822Y0147352D01*
X0036811Y0146385D02*
X0035359Y0146385D01*
X0034876Y0145901D01*
X0034876Y0144934D01*
X0035359Y0144450D01*
X0036811Y0144450D01*
X0033879Y0144450D02*
X0032911Y0144450D01*
X0033395Y0144450D02*
X0033395Y0146385D01*
X0032911Y0146385D01*
X0033395Y0147352D02*
X0033395Y0147836D01*
X0029965Y0147352D02*
X0029965Y0144450D01*
X0031900Y0144450D01*
X0026021Y0144450D02*
X0025538Y0144934D01*
X0025538Y0146869D01*
X0026021Y0146385D02*
X0025054Y0146385D01*
X0024042Y0146385D02*
X0022591Y0146385D01*
X0022107Y0145901D01*
X0022107Y0144934D01*
X0022591Y0144450D01*
X0024042Y0144450D01*
X0021096Y0145417D02*
X0019161Y0145417D01*
X0019161Y0144934D02*
X0019161Y0145901D01*
X0019645Y0146385D01*
X0020612Y0146385D01*
X0021096Y0145901D01*
X0021096Y0145417D01*
X0020612Y0144450D02*
X0019645Y0144450D01*
X0019161Y0144934D01*
X0018164Y0144450D02*
X0017197Y0144450D01*
X0017680Y0144450D02*
X0017680Y0147352D01*
X0017197Y0147352D01*
X0016185Y0147352D02*
X0014250Y0147352D01*
X0014250Y0144450D01*
X0016185Y0144450D01*
X0015217Y0145901D02*
X0014250Y0145901D01*
X0025538Y0130336D02*
X0025538Y0129852D01*
X0025538Y0128885D02*
X0025538Y0126950D01*
X0026021Y0126950D02*
X0025054Y0126950D01*
X0024042Y0126950D02*
X0022107Y0126950D01*
X0022107Y0129852D01*
X0025054Y0128885D02*
X0025538Y0128885D01*
X0027018Y0128401D02*
X0027502Y0128885D01*
X0028953Y0128885D01*
X0029965Y0129852D02*
X0029965Y0126950D01*
X0029965Y0127917D02*
X0031416Y0128885D01*
X0029965Y0127917D02*
X0031416Y0126950D01*
X0028953Y0126950D02*
X0027502Y0126950D01*
X0027018Y0127434D01*
X0027018Y0128401D01*
X0018149Y0128401D02*
X0017666Y0127917D01*
X0016214Y0127917D01*
X0016214Y0126950D02*
X0016214Y0129852D01*
X0017666Y0129852D01*
X0018149Y0129369D01*
X0018149Y0128401D01*
X0017182Y0127917D02*
X0018149Y0126950D01*
X0015217Y0126950D02*
X0014250Y0126950D01*
X0014734Y0126950D02*
X0014734Y0129852D01*
X0015217Y0129852D02*
X0014250Y0129852D01*
X0074515Y0106505D02*
X0076450Y0106505D01*
X0075966Y0109935D02*
X0076450Y0110419D01*
X0030617Y0096503D02*
X0027715Y0096503D01*
X0027715Y0097955D01*
X0028199Y0098438D01*
X0029166Y0098438D01*
X0029650Y0097955D01*
X0029650Y0096503D01*
X0029650Y0095492D02*
X0028199Y0095492D01*
X0027715Y0095008D01*
X0028199Y0094524D01*
X0029650Y0094524D01*
X0029650Y0093557D02*
X0027715Y0093557D01*
X0027715Y0094041D01*
X0028199Y0094524D01*
X0028199Y0092545D02*
X0029650Y0092545D01*
X0029650Y0091094D01*
X0029166Y0090610D01*
X0028683Y0091094D01*
X0028683Y0092545D01*
X0028199Y0092545D02*
X0027715Y0092062D01*
X0027715Y0091094D01*
X0028199Y0089599D02*
X0029166Y0089599D01*
X0029650Y0089115D01*
X0029650Y0087664D01*
X0030617Y0087664D02*
X0027715Y0087664D01*
X0027715Y0089115D01*
X0028199Y0089599D01*
X0028199Y0086652D02*
X0027715Y0086169D01*
X0027715Y0085201D01*
X0028199Y0084717D01*
X0029166Y0084717D01*
X0029650Y0085201D01*
X0029650Y0086169D01*
X0029166Y0086652D01*
X0028199Y0086652D01*
X0027715Y0080767D02*
X0028683Y0079315D01*
X0029650Y0080767D01*
X0029650Y0079315D02*
X0026748Y0079315D01*
X0027715Y0078304D02*
X0027715Y0076853D01*
X0028199Y0076369D01*
X0029166Y0076369D01*
X0029650Y0076853D01*
X0029650Y0078304D01*
X0029650Y0075372D02*
X0029650Y0074405D01*
X0029650Y0074888D02*
X0027715Y0074888D01*
X0027715Y0074405D01*
X0026748Y0074888D02*
X0026264Y0074888D01*
X0029650Y0073393D02*
X0029650Y0071458D01*
X0026748Y0071458D01*
X0094515Y0054652D02*
X0094515Y0053200D01*
X0096450Y0053200D01*
X0096450Y0052189D02*
X0094999Y0052189D01*
X0094515Y0051705D01*
X0094515Y0050738D01*
X0095483Y0050738D02*
X0095483Y0052189D01*
X0096450Y0052189D02*
X0096450Y0050738D01*
X0095966Y0050254D01*
X0095483Y0050738D01*
X0094999Y0049242D02*
X0096450Y0049242D01*
X0094999Y0049242D02*
X0094515Y0048759D01*
X0094515Y0047791D01*
X0094999Y0047307D01*
X0094515Y0046311D02*
X0094515Y0045343D01*
X0094031Y0045827D02*
X0095966Y0045827D01*
X0096450Y0046311D01*
X0096450Y0047307D02*
X0093548Y0047307D01*
X0094999Y0044331D02*
X0096450Y0044331D01*
X0096450Y0042880D01*
X0095966Y0042397D01*
X0095483Y0042880D01*
X0095483Y0044331D01*
X0094999Y0044331D02*
X0094515Y0043848D01*
X0094515Y0042880D01*
X0093548Y0041385D02*
X0096450Y0041385D01*
X0093548Y0039450D01*
X0096450Y0039450D01*
X0129250Y0043153D02*
X0131719Y0043153D01*
X0132933Y0043153D02*
X0134168Y0043153D01*
X0133550Y0043153D02*
X0133550Y0039450D01*
X0132933Y0039450D02*
X0134168Y0039450D01*
X0135389Y0039450D02*
X0135389Y0043153D01*
X0137240Y0043153D01*
X0137857Y0042536D01*
X0137857Y0041302D01*
X0137240Y0040684D01*
X0135389Y0040684D01*
X0130484Y0039450D02*
X0130484Y0043153D01*
X0142755Y0041919D02*
X0143989Y0043153D01*
X0143989Y0039450D01*
X0142755Y0039450D02*
X0145224Y0039450D01*
X0146438Y0039450D02*
X0148907Y0041919D01*
X0148907Y0042536D01*
X0148290Y0043153D01*
X0147055Y0043153D01*
X0146438Y0042536D01*
X0150121Y0042536D02*
X0150738Y0043153D01*
X0151973Y0043153D01*
X0152590Y0042536D01*
X0152590Y0041919D01*
X0150121Y0039450D01*
X0152590Y0039450D01*
X0148907Y0039450D02*
X0146438Y0039450D01*
X0096450Y0055135D02*
X0094999Y0055135D01*
X0094515Y0054652D01*
X0139250Y0085067D02*
X0139867Y0084450D01*
X0141102Y0084450D01*
X0141719Y0085067D01*
X0141719Y0086302D01*
X0141102Y0086919D01*
X0140484Y0086919D01*
X0139250Y0086302D01*
X0139250Y0088153D01*
X0141719Y0088153D01*
X0142933Y0088153D02*
X0142933Y0085684D01*
X0144168Y0084450D01*
X0145402Y0085684D01*
X0145402Y0088153D01*
X0150299Y0088153D02*
X0152151Y0088153D01*
X0152768Y0087536D01*
X0152768Y0086302D01*
X0152151Y0085684D01*
X0150299Y0085684D01*
X0150299Y0084450D02*
X0150299Y0088153D01*
X0151534Y0085684D02*
X0152768Y0084450D01*
X0153983Y0085067D02*
X0153983Y0086302D01*
X0154600Y0086919D01*
X0155834Y0086919D01*
X0156451Y0086302D01*
X0156451Y0085684D01*
X0153983Y0085684D01*
X0153983Y0085067D02*
X0154600Y0084450D01*
X0155834Y0084450D01*
X0157666Y0085067D02*
X0158283Y0084450D01*
X0160134Y0084450D01*
X0160134Y0083833D02*
X0160134Y0086919D01*
X0158283Y0086919D01*
X0157666Y0086302D01*
X0157666Y0085067D01*
X0158900Y0083216D02*
X0159517Y0083216D01*
X0160134Y0083833D01*
X0224250Y0088153D02*
X0226719Y0088153D01*
X0227933Y0088153D02*
X0229168Y0088153D01*
X0228550Y0088153D02*
X0228550Y0084450D01*
X0227933Y0084450D02*
X0229168Y0084450D01*
X0230389Y0084450D02*
X0230389Y0088153D01*
X0232240Y0088153D01*
X0232857Y0087536D01*
X0232857Y0086302D01*
X0232240Y0085684D01*
X0230389Y0085684D01*
X0225484Y0084450D02*
X0225484Y0088153D01*
X0237755Y0086919D02*
X0238989Y0088153D01*
X0238989Y0084450D01*
X0237755Y0084450D02*
X0240224Y0084450D01*
X0241438Y0084450D02*
X0243907Y0086919D01*
X0243907Y0087536D01*
X0243290Y0088153D01*
X0242055Y0088153D01*
X0241438Y0087536D01*
X0245121Y0087536D02*
X0245738Y0088153D01*
X0246973Y0088153D01*
X0247590Y0087536D01*
X0247590Y0086919D01*
X0245121Y0084450D01*
X0247590Y0084450D01*
X0243907Y0084450D02*
X0241438Y0084450D01*
X0242055Y0043153D02*
X0241438Y0042536D01*
X0242055Y0043153D02*
X0243290Y0043153D01*
X0243907Y0042536D01*
X0243907Y0041919D01*
X0241438Y0039450D01*
X0243907Y0039450D01*
X0245121Y0039450D02*
X0247590Y0041919D01*
X0247590Y0042536D01*
X0246973Y0043153D01*
X0245738Y0043153D01*
X0245121Y0042536D01*
X0245121Y0039450D02*
X0247590Y0039450D01*
X0240224Y0039450D02*
X0237755Y0039450D01*
X0238989Y0039450D02*
X0238989Y0043153D01*
X0237755Y0041919D01*
X0232857Y0042536D02*
X0232857Y0041302D01*
X0232240Y0040684D01*
X0230389Y0040684D01*
X0230389Y0039450D02*
X0230389Y0043153D01*
X0232240Y0043153D01*
X0232857Y0042536D01*
X0229168Y0043153D02*
X0227933Y0043153D01*
X0228550Y0043153D02*
X0228550Y0039450D01*
X0227933Y0039450D02*
X0229168Y0039450D01*
X0225484Y0039450D02*
X0225484Y0043153D01*
X0224250Y0043153D02*
X0226719Y0043153D01*
D12*
X0294150Y0076850D02*
X0294150Y0078351D01*
X0294901Y0078351D01*
X0295151Y0078101D01*
X0295151Y0077601D01*
X0294901Y0077350D01*
X0294150Y0077350D01*
X0294650Y0077350D02*
X0295151Y0076850D01*
X0295623Y0076850D02*
X0296624Y0076850D01*
X0297097Y0076850D02*
X0298097Y0076850D01*
X0297597Y0076850D02*
X0297597Y0078351D01*
X0297097Y0077851D01*
X0296124Y0078351D02*
X0296124Y0076850D01*
X0295623Y0077851D02*
X0296124Y0078351D01*
X0332230Y0078250D02*
X0332981Y0078250D01*
X0333231Y0078501D01*
X0333231Y0079001D01*
X0332981Y0079251D01*
X0332230Y0079251D01*
X0332230Y0077750D01*
X0332731Y0078250D02*
X0333231Y0077750D01*
X0333703Y0077750D02*
X0334704Y0077750D01*
X0334204Y0077750D02*
X0334204Y0079251D01*
X0333703Y0078751D01*
X0335177Y0079001D02*
X0335427Y0079251D01*
X0335927Y0079251D01*
X0336178Y0079001D01*
X0335177Y0078000D01*
X0335427Y0077750D01*
X0335927Y0077750D01*
X0336178Y0078000D01*
X0336178Y0079001D01*
X0335177Y0079001D02*
X0335177Y0078000D01*
X0233150Y0121403D02*
X0231649Y0121403D01*
X0231649Y0122154D01*
X0231899Y0122404D01*
X0232399Y0122404D01*
X0232650Y0122154D01*
X0232650Y0121403D01*
X0232650Y0121904D02*
X0233150Y0122404D01*
X0232399Y0122877D02*
X0232399Y0123878D01*
X0231649Y0123627D02*
X0232399Y0122877D01*
X0231649Y0123627D02*
X0233150Y0123627D01*
X0220650Y0123627D02*
X0220650Y0123127D01*
X0220400Y0122877D01*
X0219899Y0122877D02*
X0219649Y0123377D01*
X0219649Y0123627D01*
X0219899Y0123878D01*
X0220400Y0123878D01*
X0220650Y0123627D01*
X0219899Y0122877D02*
X0219149Y0122877D01*
X0219149Y0123878D01*
X0219399Y0122404D02*
X0219899Y0122404D01*
X0220150Y0122154D01*
X0220150Y0121403D01*
X0220650Y0121403D02*
X0219149Y0121403D01*
X0219149Y0122154D01*
X0219399Y0122404D01*
X0220150Y0121904D02*
X0220650Y0122404D01*
X0205650Y0122404D02*
X0205150Y0121904D01*
X0205150Y0122154D02*
X0205150Y0121403D01*
X0205650Y0121403D02*
X0204149Y0121403D01*
X0204149Y0122154D01*
X0204399Y0122404D01*
X0204899Y0122404D01*
X0205150Y0122154D01*
X0205400Y0122877D02*
X0205650Y0123127D01*
X0205650Y0123627D01*
X0205400Y0123878D01*
X0205150Y0123878D01*
X0204899Y0123627D01*
X0204899Y0123377D01*
X0204899Y0123627D02*
X0204649Y0123878D01*
X0204399Y0123878D01*
X0204149Y0123627D01*
X0204149Y0123127D01*
X0204399Y0122877D01*
X0224150Y0139600D02*
X0224400Y0139350D01*
X0224901Y0139350D01*
X0225151Y0139600D01*
X0225151Y0139850D01*
X0224901Y0140101D01*
X0224400Y0140101D01*
X0224150Y0140351D01*
X0224150Y0140601D01*
X0224400Y0140851D01*
X0224901Y0140851D01*
X0225151Y0140601D01*
X0225623Y0140851D02*
X0225623Y0139350D01*
X0225623Y0140101D02*
X0225873Y0140351D01*
X0226374Y0140351D01*
X0226624Y0140101D01*
X0226624Y0139350D01*
X0227097Y0139350D02*
X0227597Y0139350D01*
X0227347Y0139350D02*
X0227347Y0140351D01*
X0227097Y0140351D01*
X0227347Y0140851D02*
X0227347Y0141101D01*
X0228329Y0140351D02*
X0228829Y0140351D01*
X0229080Y0140101D01*
X0229080Y0139850D01*
X0228079Y0139850D01*
X0228079Y0139600D02*
X0228079Y0140101D01*
X0228329Y0140351D01*
X0228079Y0139600D02*
X0228329Y0139350D01*
X0228829Y0139350D01*
X0229552Y0139350D02*
X0230052Y0139350D01*
X0229802Y0139350D02*
X0229802Y0140851D01*
X0229552Y0140851D01*
X0230534Y0140101D02*
X0230784Y0140351D01*
X0231535Y0140351D01*
X0232007Y0140351D02*
X0232258Y0140351D01*
X0232258Y0139350D01*
X0232508Y0139350D02*
X0232007Y0139350D01*
X0231535Y0139350D02*
X0230784Y0139350D01*
X0230534Y0139600D01*
X0230534Y0140101D01*
X0231535Y0140851D02*
X0231535Y0139350D01*
X0232990Y0139350D02*
X0232990Y0140351D01*
X0233740Y0140351D01*
X0233990Y0140101D01*
X0233990Y0139350D01*
X0234463Y0139600D02*
X0234713Y0139350D01*
X0235464Y0139350D01*
X0235464Y0139100D02*
X0235464Y0140351D01*
X0234713Y0140351D01*
X0234463Y0140101D01*
X0234463Y0139600D01*
X0234963Y0138850D02*
X0235213Y0138850D01*
X0235464Y0139100D01*
X0232258Y0140851D02*
X0232258Y0141101D01*
X0263703Y0147750D02*
X0263703Y0149251D01*
X0264454Y0149251D01*
X0264704Y0149001D01*
X0264704Y0148501D01*
X0264454Y0148250D01*
X0263703Y0148250D01*
X0264204Y0148250D02*
X0264704Y0147750D01*
X0265177Y0148000D02*
X0265177Y0148250D01*
X0265427Y0148501D01*
X0265927Y0148501D01*
X0266178Y0148250D01*
X0266178Y0148000D01*
X0265927Y0147750D01*
X0265427Y0147750D01*
X0265177Y0148000D01*
X0265427Y0148501D02*
X0265177Y0148751D01*
X0265177Y0149001D01*
X0265427Y0149251D01*
X0265927Y0149251D01*
X0266178Y0149001D01*
X0266178Y0148751D01*
X0265927Y0148501D01*
X0285049Y0144074D02*
X0285049Y0143573D01*
X0285299Y0143323D01*
X0285549Y0143323D01*
X0285799Y0143573D01*
X0285799Y0144324D01*
X0285299Y0144324D02*
X0285049Y0144074D01*
X0285299Y0144324D02*
X0286300Y0144324D01*
X0286550Y0144074D01*
X0286550Y0143573D01*
X0286300Y0143323D01*
X0286550Y0142851D02*
X0286050Y0142350D01*
X0286050Y0142601D02*
X0286050Y0141850D01*
X0286550Y0141850D02*
X0285049Y0141850D01*
X0285049Y0142601D01*
X0285299Y0142851D01*
X0285799Y0142851D01*
X0286050Y0142601D01*
X0321203Y0150250D02*
X0321203Y0151751D01*
X0321954Y0151751D01*
X0322204Y0151501D01*
X0322204Y0151001D01*
X0321954Y0150750D01*
X0321203Y0150750D01*
X0321704Y0150750D02*
X0322204Y0150250D01*
X0322677Y0150500D02*
X0322927Y0150250D01*
X0323427Y0150250D01*
X0323678Y0150500D01*
X0323678Y0150750D01*
X0323427Y0151001D01*
X0322677Y0151001D01*
X0322677Y0150500D01*
X0322677Y0151001D02*
X0323177Y0151501D01*
X0323678Y0151751D01*
X0342549Y0141824D02*
X0342799Y0141824D01*
X0343800Y0140823D01*
X0344050Y0140823D01*
X0344050Y0140351D02*
X0343550Y0139850D01*
X0343550Y0140101D02*
X0343550Y0139350D01*
X0344050Y0139350D02*
X0342549Y0139350D01*
X0342549Y0140101D01*
X0342799Y0140351D01*
X0343299Y0140351D01*
X0343550Y0140101D01*
X0342549Y0140823D02*
X0342549Y0141824D01*
X0108150Y0081378D02*
X0108150Y0080377D01*
X0108150Y0079904D02*
X0107650Y0079404D01*
X0107650Y0079654D02*
X0107650Y0078903D01*
X0108150Y0078903D02*
X0106649Y0078903D01*
X0106649Y0079654D01*
X0106899Y0079904D01*
X0107399Y0079904D01*
X0107650Y0079654D01*
X0107149Y0080377D02*
X0106649Y0080877D01*
X0108150Y0080877D01*
X0061550Y0114350D02*
X0060049Y0114350D01*
X0060049Y0115101D01*
X0060299Y0115351D01*
X0060799Y0115351D01*
X0061050Y0115101D01*
X0061050Y0114350D01*
X0061050Y0114850D02*
X0061550Y0115351D01*
X0061550Y0115823D02*
X0061550Y0116824D01*
X0061550Y0117297D02*
X0060549Y0118297D01*
X0060299Y0118297D01*
X0060049Y0118047D01*
X0060049Y0117547D01*
X0060299Y0117297D01*
X0060049Y0116324D02*
X0061550Y0116324D01*
X0061550Y0117297D02*
X0061550Y0118297D01*
X0060049Y0116324D02*
X0060549Y0115823D01*
X0051550Y0115823D02*
X0051550Y0116824D01*
X0051550Y0116324D02*
X0050049Y0116324D01*
X0050549Y0115823D01*
X0050299Y0115351D02*
X0050799Y0115351D01*
X0051050Y0115101D01*
X0051050Y0114350D01*
X0051550Y0114350D02*
X0050049Y0114350D01*
X0050049Y0115101D01*
X0050299Y0115351D01*
X0051050Y0114850D02*
X0051550Y0115351D01*
X0051300Y0117297D02*
X0051550Y0117547D01*
X0051550Y0118047D01*
X0051300Y0118297D01*
X0051050Y0118297D01*
X0050799Y0118047D01*
X0050799Y0117797D01*
X0050799Y0118047D02*
X0050549Y0118297D01*
X0050299Y0118297D01*
X0050049Y0118047D01*
X0050049Y0117547D01*
X0050299Y0117297D01*
X0046550Y0116850D02*
X0046550Y0117851D01*
X0046550Y0118323D02*
X0046550Y0118824D01*
X0046550Y0118573D02*
X0045549Y0118573D01*
X0045549Y0118323D01*
X0045049Y0118573D02*
X0044799Y0118573D01*
X0045549Y0119556D02*
X0045799Y0119305D01*
X0046300Y0119305D01*
X0046550Y0119556D01*
X0046550Y0120306D01*
X0046800Y0120306D02*
X0045549Y0120306D01*
X0045549Y0119556D01*
X0045799Y0120779D02*
X0045549Y0121029D01*
X0045549Y0121529D01*
X0045799Y0121780D01*
X0046550Y0121780D01*
X0046300Y0122502D02*
X0045299Y0122502D01*
X0045549Y0122252D02*
X0045549Y0122752D01*
X0046300Y0122502D02*
X0046550Y0122752D01*
X0046550Y0120779D02*
X0045049Y0120779D01*
X0046800Y0120306D02*
X0047050Y0120056D01*
X0047050Y0119806D01*
X0046550Y0116850D02*
X0045049Y0116850D01*
X0044050Y0134350D02*
X0044050Y0135351D01*
X0044050Y0135823D02*
X0044050Y0136324D01*
X0044050Y0136073D02*
X0043049Y0136073D01*
X0043049Y0135823D01*
X0042549Y0136073D02*
X0042299Y0136073D01*
X0043049Y0137056D02*
X0043299Y0136805D01*
X0043800Y0136805D01*
X0044050Y0137056D01*
X0044050Y0137806D01*
X0044300Y0137806D02*
X0043049Y0137806D01*
X0043049Y0137056D01*
X0043299Y0138279D02*
X0043049Y0138529D01*
X0043049Y0139029D01*
X0043299Y0139280D01*
X0044050Y0139280D01*
X0043800Y0140002D02*
X0044050Y0140252D01*
X0043800Y0140002D02*
X0042799Y0140002D01*
X0043049Y0139752D02*
X0043049Y0140252D01*
X0042549Y0138279D02*
X0044050Y0138279D01*
X0044300Y0137806D02*
X0044550Y0137556D01*
X0044550Y0137306D01*
X0044050Y0134350D02*
X0042549Y0134350D01*
X0060049Y0147100D02*
X0060299Y0146850D01*
X0061300Y0146850D01*
X0061550Y0147100D01*
X0061550Y0147601D01*
X0061300Y0147851D01*
X0061300Y0148323D02*
X0061050Y0148573D01*
X0061050Y0149324D01*
X0060799Y0149324D02*
X0061550Y0149324D01*
X0061550Y0148573D01*
X0061300Y0148323D01*
X0060549Y0148573D02*
X0060549Y0149074D01*
X0060799Y0149324D01*
X0060799Y0149797D02*
X0061300Y0149797D01*
X0061550Y0150047D01*
X0061550Y0150797D01*
X0061800Y0150797D02*
X0060549Y0150797D01*
X0060549Y0150047D01*
X0060799Y0149797D01*
X0062050Y0150297D02*
X0062050Y0150547D01*
X0061800Y0150797D01*
X0061300Y0151270D02*
X0060799Y0151270D01*
X0060549Y0151520D01*
X0060549Y0152020D01*
X0060799Y0152271D01*
X0061050Y0152271D01*
X0061050Y0151270D01*
X0061300Y0151270D02*
X0061550Y0151520D01*
X0061550Y0152020D01*
X0060299Y0147851D02*
X0060049Y0147601D01*
X0060049Y0147100D01*
X0016624Y0151850D02*
X0015623Y0151850D01*
X0016624Y0152851D01*
X0016624Y0153101D01*
X0016374Y0153351D01*
X0015873Y0153351D01*
X0015623Y0153101D01*
X0015151Y0153101D02*
X0015151Y0152601D01*
X0014901Y0152350D01*
X0014150Y0152350D01*
X0014150Y0151850D02*
X0014150Y0153351D01*
X0014901Y0153351D01*
X0015151Y0153101D01*
X0014650Y0152350D02*
X0015151Y0151850D01*
X0005650Y0141368D02*
X0005400Y0141118D01*
X0004399Y0141118D01*
X0004649Y0140868D02*
X0004649Y0141368D01*
X0004649Y0140395D02*
X0005650Y0140395D01*
X0005650Y0139645D01*
X0005400Y0139395D01*
X0004649Y0139395D01*
X0004899Y0138922D02*
X0004649Y0138672D01*
X0004649Y0138172D01*
X0004899Y0137921D01*
X0005400Y0137921D01*
X0005650Y0138172D01*
X0005650Y0138672D01*
X0005400Y0138922D01*
X0004899Y0138922D01*
X0004899Y0137449D02*
X0005400Y0137449D01*
X0005650Y0137199D01*
X0005650Y0136448D01*
X0006150Y0136448D02*
X0004649Y0136448D01*
X0004649Y0137199D01*
X0004899Y0137449D01*
X0005150Y0135976D02*
X0005400Y0135976D01*
X0005650Y0135725D01*
X0005650Y0135225D01*
X0005400Y0134975D01*
X0004899Y0135225D02*
X0004899Y0135725D01*
X0005150Y0135976D01*
X0004399Y0135976D02*
X0004149Y0135725D01*
X0004149Y0135225D01*
X0004399Y0134975D01*
X0004649Y0134975D01*
X0004899Y0135225D01*
D13*
X0069100Y0156800D02*
X0069100Y0001800D01*
D14*
X0126600Y0008800D02*
X0159100Y0008800D01*
X0159100Y0044800D01*
X0126600Y0044800D01*
X0126600Y0008800D01*
X0221600Y0008800D02*
X0254100Y0008800D01*
X0254100Y0044800D01*
X0221600Y0044800D01*
X0221600Y0008800D01*
X0221600Y0053800D02*
X0254100Y0053800D01*
X0254100Y0089800D01*
X0221600Y0089800D01*
X0221600Y0053800D01*
X0169100Y0053800D02*
X0136600Y0053800D01*
X0136600Y0089800D01*
X0169100Y0089800D01*
X0169100Y0053800D01*
X0021854Y0109400D02*
X0021487Y0109767D01*
X0021487Y0111235D01*
X0021120Y0110868D02*
X0021854Y0110868D01*
X0020378Y0110501D02*
X0020378Y0110134D01*
X0018910Y0110134D01*
X0018910Y0110501D02*
X0019277Y0110868D01*
X0020011Y0110868D01*
X0020378Y0110501D01*
X0020011Y0109400D02*
X0019277Y0109400D01*
X0018910Y0109767D01*
X0018910Y0110501D01*
X0018168Y0109767D02*
X0018168Y0111235D01*
X0017801Y0111602D01*
X0016700Y0111602D01*
X0016700Y0109400D01*
X0017801Y0109400D01*
X0018168Y0109767D01*
X0010827Y0109400D02*
X0010460Y0109767D01*
X0010460Y0111235D01*
X0010093Y0110868D02*
X0010827Y0110868D01*
X0008987Y0110868D02*
X0008987Y0109400D01*
X0008620Y0109400D02*
X0009354Y0109400D01*
X0007878Y0109400D02*
X0007878Y0110501D01*
X0007511Y0110868D01*
X0007144Y0110501D01*
X0007144Y0109400D01*
X0006410Y0109400D02*
X0006410Y0110868D01*
X0006777Y0110868D01*
X0007144Y0110501D01*
X0008620Y0110868D02*
X0008987Y0110868D01*
X0008987Y0111602D02*
X0008987Y0111969D01*
X0005668Y0111602D02*
X0004200Y0111602D01*
X0004200Y0109400D01*
X0005668Y0109400D01*
X0004934Y0110501D02*
X0004200Y0110501D01*
X0051798Y0124767D02*
X0051798Y0125501D01*
X0052165Y0125868D01*
X0052532Y0125868D01*
X0052899Y0125501D01*
X0053266Y0125868D01*
X0053633Y0125868D01*
X0054000Y0125501D01*
X0054000Y0124767D01*
X0053633Y0124400D01*
X0052899Y0125134D02*
X0052899Y0125501D01*
X0052165Y0124400D02*
X0051798Y0124767D01*
X0052165Y0126610D02*
X0051798Y0126977D01*
X0051798Y0127711D01*
X0052165Y0128078D01*
X0052532Y0128078D01*
X0052899Y0127711D01*
X0053266Y0128078D01*
X0053633Y0128078D01*
X0054000Y0127711D01*
X0054000Y0126977D01*
X0053633Y0126610D01*
X0052899Y0127344D02*
X0052899Y0127711D01*
X0052165Y0128820D02*
X0051798Y0129187D01*
X0051798Y0129921D01*
X0052165Y0130288D01*
X0053633Y0128820D01*
X0054000Y0129187D01*
X0054000Y0129921D01*
X0053633Y0130288D01*
X0052165Y0130288D01*
X0052165Y0128820D02*
X0053633Y0128820D01*
X0061798Y0128820D02*
X0064000Y0128820D01*
X0063266Y0128820D02*
X0061798Y0130288D01*
X0062899Y0129187D02*
X0064000Y0130288D01*
X0063633Y0128078D02*
X0062165Y0128078D01*
X0063633Y0126610D01*
X0064000Y0126977D01*
X0064000Y0127711D01*
X0063633Y0128078D01*
X0062165Y0128078D02*
X0061798Y0127711D01*
X0061798Y0126977D01*
X0062165Y0126610D01*
X0063633Y0126610D01*
X0064000Y0125868D02*
X0064000Y0124400D01*
X0064000Y0125134D02*
X0061798Y0125134D01*
X0062532Y0124400D01*
X0326700Y0069102D02*
X0328168Y0069102D01*
X0327434Y0069102D02*
X0327434Y0066900D01*
X0328910Y0067267D02*
X0329277Y0066900D01*
X0330011Y0066900D01*
X0330378Y0067267D01*
X0330378Y0068001D01*
X0330011Y0068368D01*
X0329277Y0068368D01*
X0328910Y0068001D01*
X0328910Y0067267D01*
X0333330Y0066900D02*
X0334431Y0066900D01*
X0334798Y0067267D01*
X0334431Y0067634D01*
X0333697Y0067634D01*
X0333330Y0068001D01*
X0333697Y0068368D01*
X0334798Y0068368D01*
X0335540Y0068368D02*
X0336640Y0068368D01*
X0337007Y0068001D01*
X0337007Y0067267D01*
X0336640Y0066900D01*
X0335540Y0066900D01*
X0335540Y0066166D02*
X0335540Y0068368D01*
X0337749Y0068001D02*
X0338116Y0068368D01*
X0338850Y0068368D01*
X0339217Y0068001D01*
X0339217Y0067634D01*
X0337749Y0067634D01*
X0337749Y0067267D02*
X0337749Y0068001D01*
X0337749Y0067267D02*
X0338116Y0066900D01*
X0338850Y0066900D01*
X0339959Y0067267D02*
X0340326Y0067634D01*
X0341427Y0067634D01*
X0341427Y0068001D02*
X0341427Y0066900D01*
X0340326Y0066900D01*
X0339959Y0067267D01*
X0340326Y0068368D02*
X0341060Y0068368D01*
X0341427Y0068001D01*
X0342169Y0067634D02*
X0343270Y0068368D01*
X0344011Y0068001D02*
X0344378Y0068368D01*
X0345112Y0068368D01*
X0345479Y0068001D01*
X0345479Y0067634D01*
X0344011Y0067634D01*
X0344011Y0067267D02*
X0344011Y0068001D01*
X0344011Y0067267D02*
X0344378Y0066900D01*
X0345112Y0066900D01*
X0346221Y0066900D02*
X0346221Y0068368D01*
X0346955Y0068368D02*
X0347322Y0068368D01*
X0346955Y0068368D02*
X0346221Y0067634D01*
X0343270Y0066900D02*
X0342169Y0067634D01*
X0342169Y0066900D02*
X0342169Y0069102D01*
D15*
X0346265Y0065402D02*
X0291935Y0065402D01*
X0291811Y0065400D01*
X0291688Y0065394D01*
X0291564Y0065385D01*
X0291442Y0065371D01*
X0291319Y0065354D01*
X0291197Y0065332D01*
X0291076Y0065307D01*
X0290956Y0065278D01*
X0290837Y0065246D01*
X0290718Y0065209D01*
X0290601Y0065169D01*
X0290486Y0065126D01*
X0290371Y0065078D01*
X0290259Y0065027D01*
X0290148Y0064973D01*
X0290038Y0064915D01*
X0289931Y0064854D01*
X0289825Y0064789D01*
X0289722Y0064721D01*
X0289621Y0064650D01*
X0289522Y0064576D01*
X0289425Y0064499D01*
X0289331Y0064418D01*
X0289240Y0064335D01*
X0289151Y0064249D01*
X0289065Y0064160D01*
X0288982Y0064069D01*
X0288901Y0063975D01*
X0288824Y0063878D01*
X0288750Y0063779D01*
X0288679Y0063678D01*
X0288611Y0063575D01*
X0288546Y0063469D01*
X0288485Y0063362D01*
X0288427Y0063252D01*
X0288373Y0063141D01*
X0288322Y0063029D01*
X0288274Y0062914D01*
X0288231Y0062799D01*
X0288191Y0062682D01*
X0288154Y0062563D01*
X0288122Y0062444D01*
X0288093Y0062324D01*
X0288068Y0062203D01*
X0288046Y0062081D01*
X0288029Y0061958D01*
X0288015Y0061836D01*
X0288006Y0061712D01*
X0288000Y0061589D01*
X0287998Y0061465D01*
X0287998Y0003198D01*
X0350202Y0003198D01*
X0350202Y0061465D01*
X0350200Y0061589D01*
X0350194Y0061712D01*
X0350185Y0061836D01*
X0350171Y0061958D01*
X0350154Y0062081D01*
X0350132Y0062203D01*
X0350107Y0062324D01*
X0350078Y0062444D01*
X0350046Y0062563D01*
X0350009Y0062682D01*
X0349969Y0062799D01*
X0349926Y0062914D01*
X0349878Y0063029D01*
X0349827Y0063141D01*
X0349773Y0063252D01*
X0349715Y0063362D01*
X0349654Y0063469D01*
X0349589Y0063575D01*
X0349521Y0063678D01*
X0349450Y0063779D01*
X0349376Y0063878D01*
X0349299Y0063975D01*
X0349218Y0064069D01*
X0349135Y0064160D01*
X0349049Y0064249D01*
X0348960Y0064335D01*
X0348869Y0064418D01*
X0348775Y0064499D01*
X0348678Y0064576D01*
X0348579Y0064650D01*
X0348478Y0064721D01*
X0348375Y0064789D01*
X0348269Y0064854D01*
X0348162Y0064915D01*
X0348052Y0064973D01*
X0347941Y0065027D01*
X0347829Y0065078D01*
X0347714Y0065126D01*
X0347599Y0065169D01*
X0347482Y0065209D01*
X0347363Y0065246D01*
X0347244Y0065278D01*
X0347124Y0065307D01*
X0347003Y0065332D01*
X0346881Y0065354D01*
X0346758Y0065371D01*
X0346636Y0065385D01*
X0346512Y0065394D01*
X0346389Y0065400D01*
X0346265Y0065402D01*
X0331698Y0056347D02*
X0306502Y0056347D01*
X0305965Y0056032D01*
X0305436Y0055704D01*
X0304916Y0055362D01*
X0304404Y0055008D01*
X0303901Y0054642D01*
X0303407Y0054263D01*
X0302923Y0053873D01*
X0302448Y0053470D01*
X0301983Y0053057D01*
X0301528Y0052632D01*
X0301084Y0052195D01*
X0300651Y0051749D01*
X0300229Y0051291D01*
X0299819Y0050824D01*
X0299419Y0050346D01*
X0299032Y0049859D01*
X0298657Y0049363D01*
X0298294Y0048857D01*
X0297943Y0048343D01*
X0297606Y0047820D01*
X0297281Y0047289D01*
X0296969Y0046751D01*
X0296670Y0046205D01*
X0296385Y0045651D01*
X0296114Y0045091D01*
X0295857Y0044525D01*
X0295613Y0043952D01*
X0295383Y0043374D01*
X0295168Y0042790D01*
X0294967Y0042201D01*
X0294781Y0041607D01*
X0294609Y0041009D01*
X0294452Y0040406D01*
X0294310Y0039801D01*
X0294183Y0039191D01*
X0294070Y0038579D01*
X0293973Y0037965D01*
X0293891Y0037348D01*
X0293823Y0036729D01*
X0293772Y0036109D01*
X0293735Y0035488D01*
X0293713Y0034866D01*
X0293707Y0034243D01*
X0293716Y0033621D01*
X0293740Y0032999D01*
X0293780Y0032378D01*
X0293835Y0031758D01*
X0293904Y0031140D01*
X0293989Y0030523D01*
X0294090Y0029909D01*
X0294205Y0029297D01*
X0294335Y0028689D01*
X0294480Y0028084D01*
X0294639Y0027482D01*
X0294814Y0026885D01*
X0295003Y0026292D01*
X0295206Y0025704D01*
X0295424Y0025121D01*
X0295656Y0024543D01*
X0295902Y0023972D01*
X0296162Y0023406D01*
X0296436Y0022847D01*
X0296724Y0022296D01*
X0297025Y0021751D01*
X0297339Y0021214D01*
X0297666Y0020684D01*
X0298006Y0020163D01*
X0298359Y0019650D01*
X0298724Y0019146D01*
X0299102Y0018652D01*
X0299491Y0018166D01*
X0299892Y0017691D01*
X0300305Y0017225D01*
X0300729Y0016769D01*
X0301164Y0016324D01*
X0301610Y0015890D01*
X0302067Y0015467D01*
X0302533Y0015055D01*
X0303010Y0014655D01*
X0303496Y0014267D01*
X0303992Y0013890D01*
X0304497Y0013526D01*
X0305010Y0013175D01*
X0305532Y0012836D01*
X0306062Y0012510D01*
X0306600Y0012197D01*
X0307145Y0011897D01*
X0307698Y0011611D01*
X0308257Y0011338D01*
X0308823Y0011079D01*
X0309396Y0010835D01*
X0309974Y0010604D01*
X0310557Y0010387D01*
X0311146Y0010185D01*
X0311739Y0009997D01*
X0312337Y0009824D01*
X0312939Y0009666D01*
X0313544Y0009522D01*
X0314153Y0009394D01*
X0314765Y0009280D01*
X0315379Y0009181D01*
X0315996Y0009097D01*
X0316615Y0009029D01*
X0317235Y0008976D01*
X0317856Y0008938D01*
X0318478Y0008915D01*
X0319100Y0008907D01*
X0319722Y0008915D01*
X0320344Y0008938D01*
X0320965Y0008976D01*
X0321585Y0009029D01*
X0322204Y0009097D01*
X0322821Y0009181D01*
X0323435Y0009280D01*
X0324047Y0009394D01*
X0324656Y0009522D01*
X0325261Y0009666D01*
X0325863Y0009824D01*
X0326461Y0009997D01*
X0327054Y0010185D01*
X0327643Y0010387D01*
X0328226Y0010604D01*
X0328804Y0010835D01*
X0329377Y0011079D01*
X0329943Y0011338D01*
X0330502Y0011611D01*
X0331055Y0011897D01*
X0331600Y0012197D01*
X0332138Y0012510D01*
X0332668Y0012836D01*
X0333190Y0013175D01*
X0333703Y0013526D01*
X0334208Y0013890D01*
X0334704Y0014267D01*
X0335190Y0014655D01*
X0335667Y0015055D01*
X0336133Y0015467D01*
X0336590Y0015890D01*
X0337036Y0016324D01*
X0337471Y0016769D01*
X0337895Y0017225D01*
X0338308Y0017691D01*
X0338709Y0018166D01*
X0339098Y0018652D01*
X0339476Y0019146D01*
X0339841Y0019650D01*
X0340194Y0020163D01*
X0340534Y0020684D01*
X0340861Y0021214D01*
X0341175Y0021751D01*
X0341476Y0022296D01*
X0341764Y0022847D01*
X0342038Y0023406D01*
X0342298Y0023972D01*
X0342544Y0024543D01*
X0342776Y0025121D01*
X0342994Y0025704D01*
X0343197Y0026292D01*
X0343386Y0026885D01*
X0343561Y0027482D01*
X0343720Y0028084D01*
X0343865Y0028689D01*
X0343995Y0029297D01*
X0344110Y0029909D01*
X0344211Y0030523D01*
X0344296Y0031140D01*
X0344365Y0031758D01*
X0344420Y0032378D01*
X0344460Y0032999D01*
X0344484Y0033621D01*
X0344493Y0034243D01*
X0344487Y0034866D01*
X0344465Y0035488D01*
X0344428Y0036109D01*
X0344377Y0036729D01*
X0344309Y0037348D01*
X0344227Y0037965D01*
X0344130Y0038579D01*
X0344017Y0039191D01*
X0343890Y0039801D01*
X0343748Y0040406D01*
X0343591Y0041009D01*
X0343419Y0041607D01*
X0343233Y0042201D01*
X0343032Y0042790D01*
X0342817Y0043374D01*
X0342587Y0043952D01*
X0342343Y0044525D01*
X0342086Y0045091D01*
X0341815Y0045651D01*
X0341530Y0046205D01*
X0341231Y0046751D01*
X0340919Y0047289D01*
X0340594Y0047820D01*
X0340257Y0048343D01*
X0339906Y0048857D01*
X0339543Y0049363D01*
X0339168Y0049859D01*
X0338781Y0050346D01*
X0338381Y0050824D01*
X0337971Y0051291D01*
X0337549Y0051749D01*
X0337116Y0052195D01*
X0336672Y0052632D01*
X0336217Y0053057D01*
X0335752Y0053470D01*
X0335277Y0053873D01*
X0334793Y0054263D01*
X0334299Y0054642D01*
X0333796Y0055008D01*
X0333284Y0055362D01*
X0332764Y0055704D01*
X0332235Y0056032D01*
X0331698Y0056347D01*
X0319100Y0028788D02*
X0319100Y0025639D01*
X0317525Y0027213D02*
X0320675Y0027213D01*
X0327289Y0027213D02*
X0330439Y0027213D01*
X0256600Y0047300D02*
X0256600Y0006300D01*
X0207600Y0006300D01*
X0207600Y0009800D01*
X0201600Y0009800D01*
X0201600Y0006300D01*
X0194100Y0006300D01*
X0194100Y0047300D01*
X0201600Y0047300D01*
X0201600Y0043800D01*
X0207600Y0043800D01*
X0207600Y0047300D01*
X0256600Y0047300D01*
X0256600Y0051300D02*
X0207600Y0051300D01*
X0207600Y0054800D01*
X0201600Y0054800D01*
X0201600Y0051300D01*
X0194100Y0051300D01*
X0194100Y0092300D01*
X0201600Y0092300D01*
X0201600Y0088800D01*
X0207600Y0088800D01*
X0207600Y0092300D01*
X0256600Y0092300D01*
X0256600Y0051300D01*
X0220350Y0054550D02*
X0218081Y0054550D01*
X0216947Y0055684D01*
X0218081Y0056819D01*
X0220350Y0056819D01*
X0220350Y0058141D02*
X0220350Y0060410D01*
X0220350Y0059275D02*
X0216947Y0059275D01*
X0218081Y0058141D01*
X0218649Y0056819D02*
X0218649Y0054550D01*
X0219783Y0061732D02*
X0220350Y0061732D01*
X0219783Y0061732D02*
X0217514Y0064001D01*
X0216947Y0064001D01*
X0216947Y0061732D01*
X0219783Y0065890D02*
X0220350Y0065890D01*
X0220350Y0066458D01*
X0219783Y0066458D01*
X0219783Y0065890D01*
X0220350Y0066458D02*
X0221484Y0065323D01*
X0219783Y0067717D02*
X0220350Y0068284D01*
X0220350Y0069419D01*
X0219783Y0069986D01*
X0218649Y0069986D01*
X0218081Y0069419D01*
X0218081Y0068852D01*
X0218649Y0067717D01*
X0216947Y0067717D01*
X0216947Y0069986D01*
X0218081Y0071308D02*
X0218081Y0071875D01*
X0218649Y0072443D01*
X0218081Y0073010D01*
X0218649Y0073577D01*
X0220350Y0073577D01*
X0220350Y0072443D02*
X0218649Y0072443D01*
X0218081Y0071308D02*
X0220350Y0071308D01*
X0220350Y0074899D02*
X0218081Y0074899D01*
X0218081Y0075467D01*
X0218649Y0076034D01*
X0218081Y0076601D01*
X0218649Y0077168D01*
X0220350Y0077168D01*
X0220350Y0076034D02*
X0218649Y0076034D01*
X0200500Y0071800D02*
X0200502Y0071974D01*
X0200509Y0072148D01*
X0200519Y0072322D01*
X0200534Y0072496D01*
X0200553Y0072669D01*
X0200577Y0072842D01*
X0200605Y0073014D01*
X0200636Y0073185D01*
X0200673Y0073356D01*
X0200713Y0073525D01*
X0200757Y0073694D01*
X0200806Y0073861D01*
X0200858Y0074027D01*
X0200915Y0074192D01*
X0200976Y0074355D01*
X0201040Y0074517D01*
X0201109Y0074677D01*
X0201182Y0074836D01*
X0201258Y0074992D01*
X0201338Y0075147D01*
X0201422Y0075300D01*
X0201510Y0075450D01*
X0201602Y0075598D01*
X0201697Y0075745D01*
X0201795Y0075888D01*
X0201897Y0076029D01*
X0202003Y0076168D01*
X0202112Y0076304D01*
X0202224Y0076438D01*
X0202339Y0076568D01*
X0202458Y0076696D01*
X0202580Y0076820D01*
X0202704Y0076942D01*
X0202832Y0077061D01*
X0202962Y0077176D01*
X0203096Y0077288D01*
X0203232Y0077397D01*
X0203371Y0077503D01*
X0203512Y0077605D01*
X0203655Y0077703D01*
X0203802Y0077798D01*
X0203950Y0077890D01*
X0204100Y0077978D01*
X0204253Y0078062D01*
X0204408Y0078142D01*
X0204564Y0078218D01*
X0204723Y0078291D01*
X0204883Y0078360D01*
X0205045Y0078424D01*
X0205208Y0078485D01*
X0205373Y0078542D01*
X0205539Y0078594D01*
X0205706Y0078643D01*
X0205875Y0078687D01*
X0206044Y0078727D01*
X0206215Y0078764D01*
X0206386Y0078795D01*
X0206558Y0078823D01*
X0206731Y0078847D01*
X0206904Y0078866D01*
X0207078Y0078881D01*
X0207252Y0078891D01*
X0207426Y0078898D01*
X0207600Y0078900D01*
X0207774Y0078898D01*
X0207948Y0078891D01*
X0208122Y0078881D01*
X0208296Y0078866D01*
X0208469Y0078847D01*
X0208642Y0078823D01*
X0208814Y0078795D01*
X0208985Y0078764D01*
X0209156Y0078727D01*
X0209325Y0078687D01*
X0209494Y0078643D01*
X0209661Y0078594D01*
X0209827Y0078542D01*
X0209992Y0078485D01*
X0210155Y0078424D01*
X0210317Y0078360D01*
X0210477Y0078291D01*
X0210636Y0078218D01*
X0210792Y0078142D01*
X0210947Y0078062D01*
X0211100Y0077978D01*
X0211250Y0077890D01*
X0211398Y0077798D01*
X0211545Y0077703D01*
X0211688Y0077605D01*
X0211829Y0077503D01*
X0211968Y0077397D01*
X0212104Y0077288D01*
X0212238Y0077176D01*
X0212368Y0077061D01*
X0212496Y0076942D01*
X0212620Y0076820D01*
X0212742Y0076696D01*
X0212861Y0076568D01*
X0212976Y0076438D01*
X0213088Y0076304D01*
X0213197Y0076168D01*
X0213303Y0076029D01*
X0213405Y0075888D01*
X0213503Y0075745D01*
X0213598Y0075598D01*
X0213690Y0075450D01*
X0213778Y0075300D01*
X0213862Y0075147D01*
X0213942Y0074992D01*
X0214018Y0074836D01*
X0214091Y0074677D01*
X0214160Y0074517D01*
X0214224Y0074355D01*
X0214285Y0074192D01*
X0214342Y0074027D01*
X0214394Y0073861D01*
X0214443Y0073694D01*
X0214487Y0073525D01*
X0214527Y0073356D01*
X0214564Y0073185D01*
X0214595Y0073014D01*
X0214623Y0072842D01*
X0214647Y0072669D01*
X0214666Y0072496D01*
X0214681Y0072322D01*
X0214691Y0072148D01*
X0214698Y0071974D01*
X0214700Y0071800D01*
X0214698Y0071626D01*
X0214691Y0071452D01*
X0214681Y0071278D01*
X0214666Y0071104D01*
X0214647Y0070931D01*
X0214623Y0070758D01*
X0214595Y0070586D01*
X0214564Y0070415D01*
X0214527Y0070244D01*
X0214487Y0070075D01*
X0214443Y0069906D01*
X0214394Y0069739D01*
X0214342Y0069573D01*
X0214285Y0069408D01*
X0214224Y0069245D01*
X0214160Y0069083D01*
X0214091Y0068923D01*
X0214018Y0068764D01*
X0213942Y0068608D01*
X0213862Y0068453D01*
X0213778Y0068300D01*
X0213690Y0068150D01*
X0213598Y0068002D01*
X0213503Y0067855D01*
X0213405Y0067712D01*
X0213303Y0067571D01*
X0213197Y0067432D01*
X0213088Y0067296D01*
X0212976Y0067162D01*
X0212861Y0067032D01*
X0212742Y0066904D01*
X0212620Y0066780D01*
X0212496Y0066658D01*
X0212368Y0066539D01*
X0212238Y0066424D01*
X0212104Y0066312D01*
X0211968Y0066203D01*
X0211829Y0066097D01*
X0211688Y0065995D01*
X0211545Y0065897D01*
X0211398Y0065802D01*
X0211250Y0065710D01*
X0211100Y0065622D01*
X0210947Y0065538D01*
X0210792Y0065458D01*
X0210636Y0065382D01*
X0210477Y0065309D01*
X0210317Y0065240D01*
X0210155Y0065176D01*
X0209992Y0065115D01*
X0209827Y0065058D01*
X0209661Y0065006D01*
X0209494Y0064957D01*
X0209325Y0064913D01*
X0209156Y0064873D01*
X0208985Y0064836D01*
X0208814Y0064805D01*
X0208642Y0064777D01*
X0208469Y0064753D01*
X0208296Y0064734D01*
X0208122Y0064719D01*
X0207948Y0064709D01*
X0207774Y0064702D01*
X0207600Y0064700D01*
X0207426Y0064702D01*
X0207252Y0064709D01*
X0207078Y0064719D01*
X0206904Y0064734D01*
X0206731Y0064753D01*
X0206558Y0064777D01*
X0206386Y0064805D01*
X0206215Y0064836D01*
X0206044Y0064873D01*
X0205875Y0064913D01*
X0205706Y0064957D01*
X0205539Y0065006D01*
X0205373Y0065058D01*
X0205208Y0065115D01*
X0205045Y0065176D01*
X0204883Y0065240D01*
X0204723Y0065309D01*
X0204564Y0065382D01*
X0204408Y0065458D01*
X0204253Y0065538D01*
X0204100Y0065622D01*
X0203950Y0065710D01*
X0203802Y0065802D01*
X0203655Y0065897D01*
X0203512Y0065995D01*
X0203371Y0066097D01*
X0203232Y0066203D01*
X0203096Y0066312D01*
X0202962Y0066424D01*
X0202832Y0066539D01*
X0202704Y0066658D01*
X0202580Y0066780D01*
X0202458Y0066904D01*
X0202339Y0067032D01*
X0202224Y0067162D01*
X0202112Y0067296D01*
X0202003Y0067432D01*
X0201897Y0067571D01*
X0201795Y0067712D01*
X0201697Y0067855D01*
X0201602Y0068002D01*
X0201510Y0068150D01*
X0201422Y0068300D01*
X0201338Y0068453D01*
X0201258Y0068608D01*
X0201182Y0068764D01*
X0201109Y0068923D01*
X0201040Y0069083D01*
X0200976Y0069245D01*
X0200915Y0069408D01*
X0200858Y0069573D01*
X0200806Y0069739D01*
X0200757Y0069906D01*
X0200713Y0070075D01*
X0200673Y0070244D01*
X0200636Y0070415D01*
X0200605Y0070586D01*
X0200577Y0070758D01*
X0200553Y0070931D01*
X0200534Y0071104D01*
X0200519Y0071278D01*
X0200509Y0071452D01*
X0200502Y0071626D01*
X0200500Y0071800D01*
X0161600Y0047300D02*
X0112600Y0047300D01*
X0112600Y0043800D01*
X0106600Y0043800D01*
X0106600Y0047300D01*
X0099100Y0047300D01*
X0099100Y0006300D01*
X0106600Y0006300D01*
X0106600Y0009800D01*
X0112600Y0009800D01*
X0112600Y0006300D01*
X0161600Y0006300D01*
X0161600Y0047300D01*
X0125350Y0032168D02*
X0123649Y0032168D01*
X0123081Y0031601D01*
X0123649Y0031034D01*
X0125350Y0031034D01*
X0125350Y0029899D02*
X0123081Y0029899D01*
X0123081Y0030467D01*
X0123649Y0031034D01*
X0123649Y0028577D02*
X0125350Y0028577D01*
X0125350Y0027443D02*
X0123649Y0027443D01*
X0123081Y0028010D01*
X0123649Y0028577D01*
X0123649Y0027443D02*
X0123081Y0026875D01*
X0123081Y0026308D01*
X0125350Y0026308D01*
X0124783Y0024986D02*
X0125350Y0024419D01*
X0125350Y0023284D01*
X0124783Y0022717D01*
X0123649Y0022717D02*
X0123081Y0023852D01*
X0123081Y0024419D01*
X0123649Y0024986D01*
X0124783Y0024986D01*
X0123649Y0022717D02*
X0121947Y0022717D01*
X0121947Y0024986D01*
X0124783Y0021458D02*
X0124783Y0020890D01*
X0125350Y0020890D01*
X0125350Y0021458D01*
X0124783Y0021458D01*
X0125350Y0021458D02*
X0126484Y0020323D01*
X0124783Y0016732D02*
X0122514Y0019001D01*
X0121947Y0019001D01*
X0121947Y0016732D01*
X0121947Y0014275D02*
X0125350Y0014275D01*
X0125350Y0013141D02*
X0125350Y0015410D01*
X0125350Y0016732D02*
X0124783Y0016732D01*
X0121947Y0014275D02*
X0123081Y0013141D01*
X0123081Y0011819D02*
X0125350Y0011819D01*
X0123649Y0011819D02*
X0123649Y0009550D01*
X0123081Y0009550D02*
X0125350Y0009550D01*
X0123081Y0009550D02*
X0121947Y0010684D01*
X0123081Y0011819D01*
X0105500Y0026800D02*
X0105502Y0026974D01*
X0105509Y0027148D01*
X0105519Y0027322D01*
X0105534Y0027496D01*
X0105553Y0027669D01*
X0105577Y0027842D01*
X0105605Y0028014D01*
X0105636Y0028185D01*
X0105673Y0028356D01*
X0105713Y0028525D01*
X0105757Y0028694D01*
X0105806Y0028861D01*
X0105858Y0029027D01*
X0105915Y0029192D01*
X0105976Y0029355D01*
X0106040Y0029517D01*
X0106109Y0029677D01*
X0106182Y0029836D01*
X0106258Y0029992D01*
X0106338Y0030147D01*
X0106422Y0030300D01*
X0106510Y0030450D01*
X0106602Y0030598D01*
X0106697Y0030745D01*
X0106795Y0030888D01*
X0106897Y0031029D01*
X0107003Y0031168D01*
X0107112Y0031304D01*
X0107224Y0031438D01*
X0107339Y0031568D01*
X0107458Y0031696D01*
X0107580Y0031820D01*
X0107704Y0031942D01*
X0107832Y0032061D01*
X0107962Y0032176D01*
X0108096Y0032288D01*
X0108232Y0032397D01*
X0108371Y0032503D01*
X0108512Y0032605D01*
X0108655Y0032703D01*
X0108802Y0032798D01*
X0108950Y0032890D01*
X0109100Y0032978D01*
X0109253Y0033062D01*
X0109408Y0033142D01*
X0109564Y0033218D01*
X0109723Y0033291D01*
X0109883Y0033360D01*
X0110045Y0033424D01*
X0110208Y0033485D01*
X0110373Y0033542D01*
X0110539Y0033594D01*
X0110706Y0033643D01*
X0110875Y0033687D01*
X0111044Y0033727D01*
X0111215Y0033764D01*
X0111386Y0033795D01*
X0111558Y0033823D01*
X0111731Y0033847D01*
X0111904Y0033866D01*
X0112078Y0033881D01*
X0112252Y0033891D01*
X0112426Y0033898D01*
X0112600Y0033900D01*
X0112774Y0033898D01*
X0112948Y0033891D01*
X0113122Y0033881D01*
X0113296Y0033866D01*
X0113469Y0033847D01*
X0113642Y0033823D01*
X0113814Y0033795D01*
X0113985Y0033764D01*
X0114156Y0033727D01*
X0114325Y0033687D01*
X0114494Y0033643D01*
X0114661Y0033594D01*
X0114827Y0033542D01*
X0114992Y0033485D01*
X0115155Y0033424D01*
X0115317Y0033360D01*
X0115477Y0033291D01*
X0115636Y0033218D01*
X0115792Y0033142D01*
X0115947Y0033062D01*
X0116100Y0032978D01*
X0116250Y0032890D01*
X0116398Y0032798D01*
X0116545Y0032703D01*
X0116688Y0032605D01*
X0116829Y0032503D01*
X0116968Y0032397D01*
X0117104Y0032288D01*
X0117238Y0032176D01*
X0117368Y0032061D01*
X0117496Y0031942D01*
X0117620Y0031820D01*
X0117742Y0031696D01*
X0117861Y0031568D01*
X0117976Y0031438D01*
X0118088Y0031304D01*
X0118197Y0031168D01*
X0118303Y0031029D01*
X0118405Y0030888D01*
X0118503Y0030745D01*
X0118598Y0030598D01*
X0118690Y0030450D01*
X0118778Y0030300D01*
X0118862Y0030147D01*
X0118942Y0029992D01*
X0119018Y0029836D01*
X0119091Y0029677D01*
X0119160Y0029517D01*
X0119224Y0029355D01*
X0119285Y0029192D01*
X0119342Y0029027D01*
X0119394Y0028861D01*
X0119443Y0028694D01*
X0119487Y0028525D01*
X0119527Y0028356D01*
X0119564Y0028185D01*
X0119595Y0028014D01*
X0119623Y0027842D01*
X0119647Y0027669D01*
X0119666Y0027496D01*
X0119681Y0027322D01*
X0119691Y0027148D01*
X0119698Y0026974D01*
X0119700Y0026800D01*
X0119698Y0026626D01*
X0119691Y0026452D01*
X0119681Y0026278D01*
X0119666Y0026104D01*
X0119647Y0025931D01*
X0119623Y0025758D01*
X0119595Y0025586D01*
X0119564Y0025415D01*
X0119527Y0025244D01*
X0119487Y0025075D01*
X0119443Y0024906D01*
X0119394Y0024739D01*
X0119342Y0024573D01*
X0119285Y0024408D01*
X0119224Y0024245D01*
X0119160Y0024083D01*
X0119091Y0023923D01*
X0119018Y0023764D01*
X0118942Y0023608D01*
X0118862Y0023453D01*
X0118778Y0023300D01*
X0118690Y0023150D01*
X0118598Y0023002D01*
X0118503Y0022855D01*
X0118405Y0022712D01*
X0118303Y0022571D01*
X0118197Y0022432D01*
X0118088Y0022296D01*
X0117976Y0022162D01*
X0117861Y0022032D01*
X0117742Y0021904D01*
X0117620Y0021780D01*
X0117496Y0021658D01*
X0117368Y0021539D01*
X0117238Y0021424D01*
X0117104Y0021312D01*
X0116968Y0021203D01*
X0116829Y0021097D01*
X0116688Y0020995D01*
X0116545Y0020897D01*
X0116398Y0020802D01*
X0116250Y0020710D01*
X0116100Y0020622D01*
X0115947Y0020538D01*
X0115792Y0020458D01*
X0115636Y0020382D01*
X0115477Y0020309D01*
X0115317Y0020240D01*
X0115155Y0020176D01*
X0114992Y0020115D01*
X0114827Y0020058D01*
X0114661Y0020006D01*
X0114494Y0019957D01*
X0114325Y0019913D01*
X0114156Y0019873D01*
X0113985Y0019836D01*
X0113814Y0019805D01*
X0113642Y0019777D01*
X0113469Y0019753D01*
X0113296Y0019734D01*
X0113122Y0019719D01*
X0112948Y0019709D01*
X0112774Y0019702D01*
X0112600Y0019700D01*
X0112426Y0019702D01*
X0112252Y0019709D01*
X0112078Y0019719D01*
X0111904Y0019734D01*
X0111731Y0019753D01*
X0111558Y0019777D01*
X0111386Y0019805D01*
X0111215Y0019836D01*
X0111044Y0019873D01*
X0110875Y0019913D01*
X0110706Y0019957D01*
X0110539Y0020006D01*
X0110373Y0020058D01*
X0110208Y0020115D01*
X0110045Y0020176D01*
X0109883Y0020240D01*
X0109723Y0020309D01*
X0109564Y0020382D01*
X0109408Y0020458D01*
X0109253Y0020538D01*
X0109100Y0020622D01*
X0108950Y0020710D01*
X0108802Y0020802D01*
X0108655Y0020897D01*
X0108512Y0020995D01*
X0108371Y0021097D01*
X0108232Y0021203D01*
X0108096Y0021312D01*
X0107962Y0021424D01*
X0107832Y0021539D01*
X0107704Y0021658D01*
X0107580Y0021780D01*
X0107458Y0021904D01*
X0107339Y0022032D01*
X0107224Y0022162D01*
X0107112Y0022296D01*
X0107003Y0022432D01*
X0106897Y0022571D01*
X0106795Y0022712D01*
X0106697Y0022855D01*
X0106602Y0023002D01*
X0106510Y0023150D01*
X0106422Y0023300D01*
X0106338Y0023453D01*
X0106258Y0023608D01*
X0106182Y0023764D01*
X0106109Y0023923D01*
X0106040Y0024083D01*
X0105976Y0024245D01*
X0105915Y0024408D01*
X0105858Y0024573D01*
X0105806Y0024739D01*
X0105757Y0024906D01*
X0105713Y0025075D01*
X0105673Y0025244D01*
X0105636Y0025415D01*
X0105605Y0025586D01*
X0105577Y0025758D01*
X0105553Y0025931D01*
X0105534Y0026104D01*
X0105519Y0026278D01*
X0105509Y0026452D01*
X0105502Y0026626D01*
X0105500Y0026800D01*
X0065202Y0003198D02*
X0002998Y0003198D01*
X0002998Y0061465D01*
X0003000Y0061589D01*
X0003006Y0061712D01*
X0003015Y0061836D01*
X0003029Y0061958D01*
X0003046Y0062081D01*
X0003068Y0062203D01*
X0003093Y0062324D01*
X0003122Y0062444D01*
X0003154Y0062563D01*
X0003191Y0062682D01*
X0003231Y0062799D01*
X0003274Y0062914D01*
X0003322Y0063029D01*
X0003373Y0063141D01*
X0003427Y0063252D01*
X0003485Y0063362D01*
X0003546Y0063469D01*
X0003611Y0063575D01*
X0003679Y0063678D01*
X0003750Y0063779D01*
X0003824Y0063878D01*
X0003901Y0063975D01*
X0003982Y0064069D01*
X0004065Y0064160D01*
X0004151Y0064249D01*
X0004240Y0064335D01*
X0004331Y0064418D01*
X0004425Y0064499D01*
X0004522Y0064576D01*
X0004621Y0064650D01*
X0004722Y0064721D01*
X0004825Y0064789D01*
X0004931Y0064854D01*
X0005038Y0064915D01*
X0005148Y0064973D01*
X0005259Y0065027D01*
X0005371Y0065078D01*
X0005486Y0065126D01*
X0005601Y0065169D01*
X0005718Y0065209D01*
X0005837Y0065246D01*
X0005956Y0065278D01*
X0006076Y0065307D01*
X0006197Y0065332D01*
X0006319Y0065354D01*
X0006442Y0065371D01*
X0006564Y0065385D01*
X0006688Y0065394D01*
X0006811Y0065400D01*
X0006935Y0065402D01*
X0061265Y0065402D01*
X0061389Y0065400D01*
X0061512Y0065394D01*
X0061636Y0065385D01*
X0061758Y0065371D01*
X0061881Y0065354D01*
X0062003Y0065332D01*
X0062124Y0065307D01*
X0062244Y0065278D01*
X0062363Y0065246D01*
X0062482Y0065209D01*
X0062599Y0065169D01*
X0062714Y0065126D01*
X0062829Y0065078D01*
X0062941Y0065027D01*
X0063052Y0064973D01*
X0063162Y0064915D01*
X0063269Y0064854D01*
X0063375Y0064789D01*
X0063478Y0064721D01*
X0063579Y0064650D01*
X0063678Y0064576D01*
X0063775Y0064499D01*
X0063869Y0064418D01*
X0063960Y0064335D01*
X0064049Y0064249D01*
X0064135Y0064160D01*
X0064218Y0064069D01*
X0064299Y0063975D01*
X0064376Y0063878D01*
X0064450Y0063779D01*
X0064521Y0063678D01*
X0064589Y0063575D01*
X0064654Y0063469D01*
X0064715Y0063362D01*
X0064773Y0063252D01*
X0064827Y0063141D01*
X0064878Y0063029D01*
X0064926Y0062914D01*
X0064969Y0062799D01*
X0065009Y0062682D01*
X0065046Y0062563D01*
X0065078Y0062444D01*
X0065107Y0062324D01*
X0065132Y0062203D01*
X0065154Y0062081D01*
X0065171Y0061958D01*
X0065185Y0061836D01*
X0065194Y0061712D01*
X0065200Y0061589D01*
X0065202Y0061465D01*
X0065202Y0003198D01*
X0034100Y0025639D02*
X0034100Y0028788D01*
X0032525Y0027213D02*
X0035675Y0027213D01*
X0042289Y0027213D02*
X0045439Y0027213D01*
X0046698Y0056347D02*
X0047235Y0056032D01*
X0047764Y0055704D01*
X0048284Y0055362D01*
X0048796Y0055008D01*
X0049299Y0054642D01*
X0049793Y0054263D01*
X0050277Y0053873D01*
X0050752Y0053470D01*
X0051217Y0053057D01*
X0051672Y0052632D01*
X0052116Y0052195D01*
X0052549Y0051749D01*
X0052971Y0051291D01*
X0053381Y0050824D01*
X0053781Y0050346D01*
X0054168Y0049859D01*
X0054543Y0049363D01*
X0054906Y0048857D01*
X0055257Y0048343D01*
X0055594Y0047820D01*
X0055919Y0047289D01*
X0056231Y0046751D01*
X0056530Y0046205D01*
X0056815Y0045651D01*
X0057086Y0045091D01*
X0057343Y0044525D01*
X0057587Y0043952D01*
X0057817Y0043374D01*
X0058032Y0042790D01*
X0058233Y0042201D01*
X0058419Y0041607D01*
X0058591Y0041009D01*
X0058748Y0040406D01*
X0058890Y0039801D01*
X0059017Y0039191D01*
X0059130Y0038579D01*
X0059227Y0037965D01*
X0059309Y0037348D01*
X0059377Y0036729D01*
X0059428Y0036109D01*
X0059465Y0035488D01*
X0059487Y0034866D01*
X0059493Y0034243D01*
X0059484Y0033621D01*
X0059460Y0032999D01*
X0059420Y0032378D01*
X0059365Y0031758D01*
X0059296Y0031140D01*
X0059211Y0030523D01*
X0059110Y0029909D01*
X0058995Y0029297D01*
X0058865Y0028689D01*
X0058720Y0028084D01*
X0058561Y0027482D01*
X0058386Y0026885D01*
X0058197Y0026292D01*
X0057994Y0025704D01*
X0057776Y0025121D01*
X0057544Y0024543D01*
X0057298Y0023972D01*
X0057038Y0023406D01*
X0056764Y0022847D01*
X0056476Y0022296D01*
X0056175Y0021751D01*
X0055861Y0021214D01*
X0055534Y0020684D01*
X0055194Y0020163D01*
X0054841Y0019650D01*
X0054476Y0019146D01*
X0054098Y0018652D01*
X0053709Y0018166D01*
X0053308Y0017691D01*
X0052895Y0017225D01*
X0052471Y0016769D01*
X0052036Y0016324D01*
X0051590Y0015890D01*
X0051133Y0015467D01*
X0050667Y0015055D01*
X0050190Y0014655D01*
X0049704Y0014267D01*
X0049208Y0013890D01*
X0048703Y0013526D01*
X0048190Y0013175D01*
X0047668Y0012836D01*
X0047138Y0012510D01*
X0046600Y0012197D01*
X0046055Y0011897D01*
X0045502Y0011611D01*
X0044943Y0011338D01*
X0044377Y0011079D01*
X0043804Y0010835D01*
X0043226Y0010604D01*
X0042643Y0010387D01*
X0042054Y0010185D01*
X0041461Y0009997D01*
X0040863Y0009824D01*
X0040261Y0009666D01*
X0039656Y0009522D01*
X0039047Y0009394D01*
X0038435Y0009280D01*
X0037821Y0009181D01*
X0037204Y0009097D01*
X0036585Y0009029D01*
X0035965Y0008976D01*
X0035344Y0008938D01*
X0034722Y0008915D01*
X0034100Y0008907D01*
X0033478Y0008915D01*
X0032856Y0008938D01*
X0032235Y0008976D01*
X0031615Y0009029D01*
X0030996Y0009097D01*
X0030379Y0009181D01*
X0029765Y0009280D01*
X0029153Y0009394D01*
X0028544Y0009522D01*
X0027939Y0009666D01*
X0027337Y0009824D01*
X0026739Y0009997D01*
X0026146Y0010185D01*
X0025557Y0010387D01*
X0024974Y0010604D01*
X0024396Y0010835D01*
X0023823Y0011079D01*
X0023257Y0011338D01*
X0022698Y0011611D01*
X0022145Y0011897D01*
X0021600Y0012197D01*
X0021062Y0012510D01*
X0020532Y0012836D01*
X0020010Y0013175D01*
X0019497Y0013526D01*
X0018992Y0013890D01*
X0018496Y0014267D01*
X0018010Y0014655D01*
X0017533Y0015055D01*
X0017067Y0015467D01*
X0016610Y0015890D01*
X0016164Y0016324D01*
X0015729Y0016769D01*
X0015305Y0017225D01*
X0014892Y0017691D01*
X0014491Y0018166D01*
X0014102Y0018652D01*
X0013724Y0019146D01*
X0013359Y0019650D01*
X0013006Y0020163D01*
X0012666Y0020684D01*
X0012339Y0021214D01*
X0012025Y0021751D01*
X0011724Y0022296D01*
X0011436Y0022847D01*
X0011162Y0023406D01*
X0010902Y0023972D01*
X0010656Y0024543D01*
X0010424Y0025121D01*
X0010206Y0025704D01*
X0010003Y0026292D01*
X0009814Y0026885D01*
X0009639Y0027482D01*
X0009480Y0028084D01*
X0009335Y0028689D01*
X0009205Y0029297D01*
X0009090Y0029909D01*
X0008989Y0030523D01*
X0008904Y0031140D01*
X0008835Y0031758D01*
X0008780Y0032378D01*
X0008740Y0032999D01*
X0008716Y0033621D01*
X0008707Y0034243D01*
X0008713Y0034866D01*
X0008735Y0035488D01*
X0008772Y0036109D01*
X0008823Y0036729D01*
X0008891Y0037348D01*
X0008973Y0037965D01*
X0009070Y0038579D01*
X0009183Y0039191D01*
X0009310Y0039801D01*
X0009452Y0040406D01*
X0009609Y0041009D01*
X0009781Y0041607D01*
X0009967Y0042201D01*
X0010168Y0042790D01*
X0010383Y0043374D01*
X0010613Y0043952D01*
X0010857Y0044525D01*
X0011114Y0045091D01*
X0011385Y0045651D01*
X0011670Y0046205D01*
X0011969Y0046751D01*
X0012281Y0047289D01*
X0012606Y0047820D01*
X0012943Y0048343D01*
X0013294Y0048857D01*
X0013657Y0049363D01*
X0014032Y0049859D01*
X0014419Y0050346D01*
X0014819Y0050824D01*
X0015229Y0051291D01*
X0015651Y0051749D01*
X0016084Y0052195D01*
X0016528Y0052632D01*
X0016983Y0053057D01*
X0017448Y0053470D01*
X0017923Y0053873D01*
X0018407Y0054263D01*
X0018901Y0054642D01*
X0019404Y0055008D01*
X0019916Y0055362D01*
X0020436Y0055704D01*
X0020965Y0056032D01*
X0021502Y0056347D01*
X0046698Y0056347D01*
X0200500Y0026800D02*
X0200502Y0026974D01*
X0200509Y0027148D01*
X0200519Y0027322D01*
X0200534Y0027496D01*
X0200553Y0027669D01*
X0200577Y0027842D01*
X0200605Y0028014D01*
X0200636Y0028185D01*
X0200673Y0028356D01*
X0200713Y0028525D01*
X0200757Y0028694D01*
X0200806Y0028861D01*
X0200858Y0029027D01*
X0200915Y0029192D01*
X0200976Y0029355D01*
X0201040Y0029517D01*
X0201109Y0029677D01*
X0201182Y0029836D01*
X0201258Y0029992D01*
X0201338Y0030147D01*
X0201422Y0030300D01*
X0201510Y0030450D01*
X0201602Y0030598D01*
X0201697Y0030745D01*
X0201795Y0030888D01*
X0201897Y0031029D01*
X0202003Y0031168D01*
X0202112Y0031304D01*
X0202224Y0031438D01*
X0202339Y0031568D01*
X0202458Y0031696D01*
X0202580Y0031820D01*
X0202704Y0031942D01*
X0202832Y0032061D01*
X0202962Y0032176D01*
X0203096Y0032288D01*
X0203232Y0032397D01*
X0203371Y0032503D01*
X0203512Y0032605D01*
X0203655Y0032703D01*
X0203802Y0032798D01*
X0203950Y0032890D01*
X0204100Y0032978D01*
X0204253Y0033062D01*
X0204408Y0033142D01*
X0204564Y0033218D01*
X0204723Y0033291D01*
X0204883Y0033360D01*
X0205045Y0033424D01*
X0205208Y0033485D01*
X0205373Y0033542D01*
X0205539Y0033594D01*
X0205706Y0033643D01*
X0205875Y0033687D01*
X0206044Y0033727D01*
X0206215Y0033764D01*
X0206386Y0033795D01*
X0206558Y0033823D01*
X0206731Y0033847D01*
X0206904Y0033866D01*
X0207078Y0033881D01*
X0207252Y0033891D01*
X0207426Y0033898D01*
X0207600Y0033900D01*
X0207774Y0033898D01*
X0207948Y0033891D01*
X0208122Y0033881D01*
X0208296Y0033866D01*
X0208469Y0033847D01*
X0208642Y0033823D01*
X0208814Y0033795D01*
X0208985Y0033764D01*
X0209156Y0033727D01*
X0209325Y0033687D01*
X0209494Y0033643D01*
X0209661Y0033594D01*
X0209827Y0033542D01*
X0209992Y0033485D01*
X0210155Y0033424D01*
X0210317Y0033360D01*
X0210477Y0033291D01*
X0210636Y0033218D01*
X0210792Y0033142D01*
X0210947Y0033062D01*
X0211100Y0032978D01*
X0211250Y0032890D01*
X0211398Y0032798D01*
X0211545Y0032703D01*
X0211688Y0032605D01*
X0211829Y0032503D01*
X0211968Y0032397D01*
X0212104Y0032288D01*
X0212238Y0032176D01*
X0212368Y0032061D01*
X0212496Y0031942D01*
X0212620Y0031820D01*
X0212742Y0031696D01*
X0212861Y0031568D01*
X0212976Y0031438D01*
X0213088Y0031304D01*
X0213197Y0031168D01*
X0213303Y0031029D01*
X0213405Y0030888D01*
X0213503Y0030745D01*
X0213598Y0030598D01*
X0213690Y0030450D01*
X0213778Y0030300D01*
X0213862Y0030147D01*
X0213942Y0029992D01*
X0214018Y0029836D01*
X0214091Y0029677D01*
X0214160Y0029517D01*
X0214224Y0029355D01*
X0214285Y0029192D01*
X0214342Y0029027D01*
X0214394Y0028861D01*
X0214443Y0028694D01*
X0214487Y0028525D01*
X0214527Y0028356D01*
X0214564Y0028185D01*
X0214595Y0028014D01*
X0214623Y0027842D01*
X0214647Y0027669D01*
X0214666Y0027496D01*
X0214681Y0027322D01*
X0214691Y0027148D01*
X0214698Y0026974D01*
X0214700Y0026800D01*
X0214698Y0026626D01*
X0214691Y0026452D01*
X0214681Y0026278D01*
X0214666Y0026104D01*
X0214647Y0025931D01*
X0214623Y0025758D01*
X0214595Y0025586D01*
X0214564Y0025415D01*
X0214527Y0025244D01*
X0214487Y0025075D01*
X0214443Y0024906D01*
X0214394Y0024739D01*
X0214342Y0024573D01*
X0214285Y0024408D01*
X0214224Y0024245D01*
X0214160Y0024083D01*
X0214091Y0023923D01*
X0214018Y0023764D01*
X0213942Y0023608D01*
X0213862Y0023453D01*
X0213778Y0023300D01*
X0213690Y0023150D01*
X0213598Y0023002D01*
X0213503Y0022855D01*
X0213405Y0022712D01*
X0213303Y0022571D01*
X0213197Y0022432D01*
X0213088Y0022296D01*
X0212976Y0022162D01*
X0212861Y0022032D01*
X0212742Y0021904D01*
X0212620Y0021780D01*
X0212496Y0021658D01*
X0212368Y0021539D01*
X0212238Y0021424D01*
X0212104Y0021312D01*
X0211968Y0021203D01*
X0211829Y0021097D01*
X0211688Y0020995D01*
X0211545Y0020897D01*
X0211398Y0020802D01*
X0211250Y0020710D01*
X0211100Y0020622D01*
X0210947Y0020538D01*
X0210792Y0020458D01*
X0210636Y0020382D01*
X0210477Y0020309D01*
X0210317Y0020240D01*
X0210155Y0020176D01*
X0209992Y0020115D01*
X0209827Y0020058D01*
X0209661Y0020006D01*
X0209494Y0019957D01*
X0209325Y0019913D01*
X0209156Y0019873D01*
X0208985Y0019836D01*
X0208814Y0019805D01*
X0208642Y0019777D01*
X0208469Y0019753D01*
X0208296Y0019734D01*
X0208122Y0019719D01*
X0207948Y0019709D01*
X0207774Y0019702D01*
X0207600Y0019700D01*
X0207426Y0019702D01*
X0207252Y0019709D01*
X0207078Y0019719D01*
X0206904Y0019734D01*
X0206731Y0019753D01*
X0206558Y0019777D01*
X0206386Y0019805D01*
X0206215Y0019836D01*
X0206044Y0019873D01*
X0205875Y0019913D01*
X0205706Y0019957D01*
X0205539Y0020006D01*
X0205373Y0020058D01*
X0205208Y0020115D01*
X0205045Y0020176D01*
X0204883Y0020240D01*
X0204723Y0020309D01*
X0204564Y0020382D01*
X0204408Y0020458D01*
X0204253Y0020538D01*
X0204100Y0020622D01*
X0203950Y0020710D01*
X0203802Y0020802D01*
X0203655Y0020897D01*
X0203512Y0020995D01*
X0203371Y0021097D01*
X0203232Y0021203D01*
X0203096Y0021312D01*
X0202962Y0021424D01*
X0202832Y0021539D01*
X0202704Y0021658D01*
X0202580Y0021780D01*
X0202458Y0021904D01*
X0202339Y0022032D01*
X0202224Y0022162D01*
X0202112Y0022296D01*
X0202003Y0022432D01*
X0201897Y0022571D01*
X0201795Y0022712D01*
X0201697Y0022855D01*
X0201602Y0023002D01*
X0201510Y0023150D01*
X0201422Y0023300D01*
X0201338Y0023453D01*
X0201258Y0023608D01*
X0201182Y0023764D01*
X0201109Y0023923D01*
X0201040Y0024083D01*
X0200976Y0024245D01*
X0200915Y0024408D01*
X0200858Y0024573D01*
X0200806Y0024739D01*
X0200757Y0024906D01*
X0200713Y0025075D01*
X0200673Y0025244D01*
X0200636Y0025415D01*
X0200605Y0025586D01*
X0200577Y0025758D01*
X0200553Y0025931D01*
X0200534Y0026104D01*
X0200519Y0026278D01*
X0200509Y0026452D01*
X0200502Y0026626D01*
X0200500Y0026800D01*
X0216947Y0024986D02*
X0216947Y0022717D01*
X0218649Y0022717D01*
X0218081Y0023852D01*
X0218081Y0024419D01*
X0218649Y0024986D01*
X0219783Y0024986D01*
X0220350Y0024419D01*
X0220350Y0023284D01*
X0219783Y0022717D01*
X0219783Y0021458D02*
X0219783Y0020890D01*
X0220350Y0020890D01*
X0220350Y0021458D01*
X0219783Y0021458D01*
X0220350Y0021458D02*
X0221484Y0020323D01*
X0219783Y0016732D02*
X0217514Y0019001D01*
X0216947Y0019001D01*
X0216947Y0016732D01*
X0216947Y0014275D02*
X0220350Y0014275D01*
X0220350Y0013141D02*
X0220350Y0015410D01*
X0220350Y0016732D02*
X0219783Y0016732D01*
X0216947Y0014275D02*
X0218081Y0013141D01*
X0218081Y0011819D02*
X0220350Y0011819D01*
X0218649Y0011819D02*
X0218649Y0009550D01*
X0218081Y0009550D02*
X0216947Y0010684D01*
X0218081Y0011819D01*
X0218081Y0009550D02*
X0220350Y0009550D01*
X0220350Y0026308D02*
X0218081Y0026308D01*
X0218081Y0026875D01*
X0218649Y0027443D01*
X0218081Y0028010D01*
X0218649Y0028577D01*
X0220350Y0028577D01*
X0220350Y0027443D02*
X0218649Y0027443D01*
X0218081Y0029899D02*
X0218081Y0030467D01*
X0218649Y0031034D01*
X0218081Y0031601D01*
X0218649Y0032168D01*
X0220350Y0032168D01*
X0220350Y0031034D02*
X0218649Y0031034D01*
X0218081Y0029899D02*
X0220350Y0029899D01*
D16*
X0171600Y0051300D02*
X0122600Y0051300D01*
X0122600Y0054800D01*
X0116600Y0054800D01*
X0116600Y0051300D01*
X0109100Y0051300D01*
X0109100Y0092300D01*
X0116600Y0092300D01*
X0116600Y0088800D01*
X0122600Y0088800D01*
X0122600Y0092300D01*
X0171600Y0092300D01*
X0171600Y0051300D01*
X0115500Y0071800D02*
X0115502Y0071974D01*
X0115509Y0072148D01*
X0115519Y0072322D01*
X0115534Y0072496D01*
X0115553Y0072669D01*
X0115577Y0072842D01*
X0115605Y0073014D01*
X0115636Y0073185D01*
X0115673Y0073356D01*
X0115713Y0073525D01*
X0115757Y0073694D01*
X0115806Y0073861D01*
X0115858Y0074027D01*
X0115915Y0074192D01*
X0115976Y0074355D01*
X0116040Y0074517D01*
X0116109Y0074677D01*
X0116182Y0074836D01*
X0116258Y0074992D01*
X0116338Y0075147D01*
X0116422Y0075300D01*
X0116510Y0075450D01*
X0116602Y0075598D01*
X0116697Y0075745D01*
X0116795Y0075888D01*
X0116897Y0076029D01*
X0117003Y0076168D01*
X0117112Y0076304D01*
X0117224Y0076438D01*
X0117339Y0076568D01*
X0117458Y0076696D01*
X0117580Y0076820D01*
X0117704Y0076942D01*
X0117832Y0077061D01*
X0117962Y0077176D01*
X0118096Y0077288D01*
X0118232Y0077397D01*
X0118371Y0077503D01*
X0118512Y0077605D01*
X0118655Y0077703D01*
X0118802Y0077798D01*
X0118950Y0077890D01*
X0119100Y0077978D01*
X0119253Y0078062D01*
X0119408Y0078142D01*
X0119564Y0078218D01*
X0119723Y0078291D01*
X0119883Y0078360D01*
X0120045Y0078424D01*
X0120208Y0078485D01*
X0120373Y0078542D01*
X0120539Y0078594D01*
X0120706Y0078643D01*
X0120875Y0078687D01*
X0121044Y0078727D01*
X0121215Y0078764D01*
X0121386Y0078795D01*
X0121558Y0078823D01*
X0121731Y0078847D01*
X0121904Y0078866D01*
X0122078Y0078881D01*
X0122252Y0078891D01*
X0122426Y0078898D01*
X0122600Y0078900D01*
X0122774Y0078898D01*
X0122948Y0078891D01*
X0123122Y0078881D01*
X0123296Y0078866D01*
X0123469Y0078847D01*
X0123642Y0078823D01*
X0123814Y0078795D01*
X0123985Y0078764D01*
X0124156Y0078727D01*
X0124325Y0078687D01*
X0124494Y0078643D01*
X0124661Y0078594D01*
X0124827Y0078542D01*
X0124992Y0078485D01*
X0125155Y0078424D01*
X0125317Y0078360D01*
X0125477Y0078291D01*
X0125636Y0078218D01*
X0125792Y0078142D01*
X0125947Y0078062D01*
X0126100Y0077978D01*
X0126250Y0077890D01*
X0126398Y0077798D01*
X0126545Y0077703D01*
X0126688Y0077605D01*
X0126829Y0077503D01*
X0126968Y0077397D01*
X0127104Y0077288D01*
X0127238Y0077176D01*
X0127368Y0077061D01*
X0127496Y0076942D01*
X0127620Y0076820D01*
X0127742Y0076696D01*
X0127861Y0076568D01*
X0127976Y0076438D01*
X0128088Y0076304D01*
X0128197Y0076168D01*
X0128303Y0076029D01*
X0128405Y0075888D01*
X0128503Y0075745D01*
X0128598Y0075598D01*
X0128690Y0075450D01*
X0128778Y0075300D01*
X0128862Y0075147D01*
X0128942Y0074992D01*
X0129018Y0074836D01*
X0129091Y0074677D01*
X0129160Y0074517D01*
X0129224Y0074355D01*
X0129285Y0074192D01*
X0129342Y0074027D01*
X0129394Y0073861D01*
X0129443Y0073694D01*
X0129487Y0073525D01*
X0129527Y0073356D01*
X0129564Y0073185D01*
X0129595Y0073014D01*
X0129623Y0072842D01*
X0129647Y0072669D01*
X0129666Y0072496D01*
X0129681Y0072322D01*
X0129691Y0072148D01*
X0129698Y0071974D01*
X0129700Y0071800D01*
X0129698Y0071626D01*
X0129691Y0071452D01*
X0129681Y0071278D01*
X0129666Y0071104D01*
X0129647Y0070931D01*
X0129623Y0070758D01*
X0129595Y0070586D01*
X0129564Y0070415D01*
X0129527Y0070244D01*
X0129487Y0070075D01*
X0129443Y0069906D01*
X0129394Y0069739D01*
X0129342Y0069573D01*
X0129285Y0069408D01*
X0129224Y0069245D01*
X0129160Y0069083D01*
X0129091Y0068923D01*
X0129018Y0068764D01*
X0128942Y0068608D01*
X0128862Y0068453D01*
X0128778Y0068300D01*
X0128690Y0068150D01*
X0128598Y0068002D01*
X0128503Y0067855D01*
X0128405Y0067712D01*
X0128303Y0067571D01*
X0128197Y0067432D01*
X0128088Y0067296D01*
X0127976Y0067162D01*
X0127861Y0067032D01*
X0127742Y0066904D01*
X0127620Y0066780D01*
X0127496Y0066658D01*
X0127368Y0066539D01*
X0127238Y0066424D01*
X0127104Y0066312D01*
X0126968Y0066203D01*
X0126829Y0066097D01*
X0126688Y0065995D01*
X0126545Y0065897D01*
X0126398Y0065802D01*
X0126250Y0065710D01*
X0126100Y0065622D01*
X0125947Y0065538D01*
X0125792Y0065458D01*
X0125636Y0065382D01*
X0125477Y0065309D01*
X0125317Y0065240D01*
X0125155Y0065176D01*
X0124992Y0065115D01*
X0124827Y0065058D01*
X0124661Y0065006D01*
X0124494Y0064957D01*
X0124325Y0064913D01*
X0124156Y0064873D01*
X0123985Y0064836D01*
X0123814Y0064805D01*
X0123642Y0064777D01*
X0123469Y0064753D01*
X0123296Y0064734D01*
X0123122Y0064719D01*
X0122948Y0064709D01*
X0122774Y0064702D01*
X0122600Y0064700D01*
X0122426Y0064702D01*
X0122252Y0064709D01*
X0122078Y0064719D01*
X0121904Y0064734D01*
X0121731Y0064753D01*
X0121558Y0064777D01*
X0121386Y0064805D01*
X0121215Y0064836D01*
X0121044Y0064873D01*
X0120875Y0064913D01*
X0120706Y0064957D01*
X0120539Y0065006D01*
X0120373Y0065058D01*
X0120208Y0065115D01*
X0120045Y0065176D01*
X0119883Y0065240D01*
X0119723Y0065309D01*
X0119564Y0065382D01*
X0119408Y0065458D01*
X0119253Y0065538D01*
X0119100Y0065622D01*
X0118950Y0065710D01*
X0118802Y0065802D01*
X0118655Y0065897D01*
X0118512Y0065995D01*
X0118371Y0066097D01*
X0118232Y0066203D01*
X0118096Y0066312D01*
X0117962Y0066424D01*
X0117832Y0066539D01*
X0117704Y0066658D01*
X0117580Y0066780D01*
X0117458Y0066904D01*
X0117339Y0067032D01*
X0117224Y0067162D01*
X0117112Y0067296D01*
X0117003Y0067432D01*
X0116897Y0067571D01*
X0116795Y0067712D01*
X0116697Y0067855D01*
X0116602Y0068002D01*
X0116510Y0068150D01*
X0116422Y0068300D01*
X0116338Y0068453D01*
X0116258Y0068608D01*
X0116182Y0068764D01*
X0116109Y0068923D01*
X0116040Y0069083D01*
X0115976Y0069245D01*
X0115915Y0069408D01*
X0115858Y0069573D01*
X0115806Y0069739D01*
X0115757Y0069906D01*
X0115713Y0070075D01*
X0115673Y0070244D01*
X0115636Y0070415D01*
X0115605Y0070586D01*
X0115577Y0070758D01*
X0115553Y0070931D01*
X0115534Y0071104D01*
X0115519Y0071278D01*
X0115509Y0071452D01*
X0115502Y0071626D01*
X0115500Y0071800D01*
X0091600Y0071800D02*
X0089100Y0069300D01*
X0091600Y0066800D01*
X0091600Y0061800D01*
X0089100Y0059300D01*
X0084100Y0059300D01*
X0081600Y0061800D01*
X0081600Y0066800D01*
X0084100Y0069300D01*
X0081600Y0071800D01*
X0081600Y0076800D01*
X0084100Y0079300D01*
X0081600Y0081800D01*
X0081600Y0086800D01*
X0084100Y0089300D01*
X0089100Y0089300D01*
X0091600Y0086800D01*
X0091600Y0081800D01*
X0089100Y0079300D01*
X0091600Y0076800D01*
X0091600Y0071800D01*
X0089100Y0069300D02*
X0084100Y0069300D01*
X0061600Y0071800D02*
X0059100Y0069300D01*
X0054100Y0069300D01*
X0051600Y0071800D01*
X0051600Y0076800D01*
X0054100Y0079300D01*
X0051600Y0081800D01*
X0051600Y0086800D01*
X0054100Y0089300D01*
X0051600Y0091800D01*
X0051600Y0096800D01*
X0054100Y0099300D01*
X0059100Y0099300D01*
X0061600Y0096800D01*
X0061600Y0091800D01*
X0059100Y0089300D01*
X0061600Y0086800D01*
X0061600Y0081800D01*
X0059100Y0079300D01*
X0061600Y0076800D01*
X0061600Y0071800D01*
X0059100Y0079300D02*
X0054100Y0079300D01*
X0054100Y0089300D02*
X0059100Y0089300D01*
X0084100Y0079300D02*
X0089100Y0079300D01*
X0035600Y0066800D02*
X0012600Y0066800D01*
X0012600Y0106800D01*
X0020100Y0106800D01*
X0020102Y0106674D01*
X0020108Y0106549D01*
X0020118Y0106424D01*
X0020132Y0106299D01*
X0020149Y0106174D01*
X0020171Y0106050D01*
X0020196Y0105927D01*
X0020226Y0105805D01*
X0020259Y0105684D01*
X0020296Y0105564D01*
X0020336Y0105445D01*
X0020381Y0105328D01*
X0020429Y0105211D01*
X0020481Y0105097D01*
X0020536Y0104984D01*
X0020595Y0104873D01*
X0020657Y0104764D01*
X0020723Y0104657D01*
X0020792Y0104552D01*
X0020864Y0104449D01*
X0020939Y0104348D01*
X0021018Y0104250D01*
X0021100Y0104155D01*
X0021184Y0104062D01*
X0021272Y0103972D01*
X0021362Y0103884D01*
X0021455Y0103800D01*
X0021550Y0103718D01*
X0021648Y0103639D01*
X0021749Y0103564D01*
X0021852Y0103492D01*
X0021957Y0103423D01*
X0022064Y0103357D01*
X0022173Y0103295D01*
X0022284Y0103236D01*
X0022397Y0103181D01*
X0022511Y0103129D01*
X0022628Y0103081D01*
X0022745Y0103036D01*
X0022864Y0102996D01*
X0022984Y0102959D01*
X0023105Y0102926D01*
X0023227Y0102896D01*
X0023350Y0102871D01*
X0023474Y0102849D01*
X0023599Y0102832D01*
X0023724Y0102818D01*
X0023849Y0102808D01*
X0023974Y0102802D01*
X0024100Y0102800D01*
X0024226Y0102802D01*
X0024351Y0102808D01*
X0024476Y0102818D01*
X0024601Y0102832D01*
X0024726Y0102849D01*
X0024850Y0102871D01*
X0024973Y0102896D01*
X0025095Y0102926D01*
X0025216Y0102959D01*
X0025336Y0102996D01*
X0025455Y0103036D01*
X0025572Y0103081D01*
X0025689Y0103129D01*
X0025803Y0103181D01*
X0025916Y0103236D01*
X0026027Y0103295D01*
X0026136Y0103357D01*
X0026243Y0103423D01*
X0026348Y0103492D01*
X0026451Y0103564D01*
X0026552Y0103639D01*
X0026650Y0103718D01*
X0026745Y0103800D01*
X0026838Y0103884D01*
X0026928Y0103972D01*
X0027016Y0104062D01*
X0027100Y0104155D01*
X0027182Y0104250D01*
X0027261Y0104348D01*
X0027336Y0104449D01*
X0027408Y0104552D01*
X0027477Y0104657D01*
X0027543Y0104764D01*
X0027605Y0104873D01*
X0027664Y0104984D01*
X0027719Y0105097D01*
X0027771Y0105211D01*
X0027819Y0105328D01*
X0027864Y0105445D01*
X0027904Y0105564D01*
X0027941Y0105684D01*
X0027974Y0105805D01*
X0028004Y0105927D01*
X0028029Y0106050D01*
X0028051Y0106174D01*
X0028068Y0106299D01*
X0028082Y0106424D01*
X0028092Y0106549D01*
X0028098Y0106674D01*
X0028100Y0106800D01*
X0035600Y0106800D01*
X0035600Y0066800D01*
X0076600Y0021800D02*
X0074100Y0019300D01*
X0074100Y0014300D01*
X0076600Y0011800D01*
X0081600Y0011800D01*
X0084100Y0014300D01*
X0086600Y0011800D01*
X0091600Y0011800D01*
X0094100Y0014300D01*
X0094100Y0019300D01*
X0091600Y0021800D01*
X0086600Y0021800D01*
X0084100Y0019300D01*
X0084100Y0014300D01*
X0084100Y0019300D02*
X0081600Y0021800D01*
X0076600Y0021800D01*
X0242600Y0099300D02*
X0265600Y0099300D01*
X0265600Y0139300D01*
X0258100Y0139300D01*
X0258098Y0139174D01*
X0258092Y0139049D01*
X0258082Y0138924D01*
X0258068Y0138799D01*
X0258051Y0138674D01*
X0258029Y0138550D01*
X0258004Y0138427D01*
X0257974Y0138305D01*
X0257941Y0138184D01*
X0257904Y0138064D01*
X0257864Y0137945D01*
X0257819Y0137828D01*
X0257771Y0137711D01*
X0257719Y0137597D01*
X0257664Y0137484D01*
X0257605Y0137373D01*
X0257543Y0137264D01*
X0257477Y0137157D01*
X0257408Y0137052D01*
X0257336Y0136949D01*
X0257261Y0136848D01*
X0257182Y0136750D01*
X0257100Y0136655D01*
X0257016Y0136562D01*
X0256928Y0136472D01*
X0256838Y0136384D01*
X0256745Y0136300D01*
X0256650Y0136218D01*
X0256552Y0136139D01*
X0256451Y0136064D01*
X0256348Y0135992D01*
X0256243Y0135923D01*
X0256136Y0135857D01*
X0256027Y0135795D01*
X0255916Y0135736D01*
X0255803Y0135681D01*
X0255689Y0135629D01*
X0255572Y0135581D01*
X0255455Y0135536D01*
X0255336Y0135496D01*
X0255216Y0135459D01*
X0255095Y0135426D01*
X0254973Y0135396D01*
X0254850Y0135371D01*
X0254726Y0135349D01*
X0254601Y0135332D01*
X0254476Y0135318D01*
X0254351Y0135308D01*
X0254226Y0135302D01*
X0254100Y0135300D01*
X0253974Y0135302D01*
X0253849Y0135308D01*
X0253724Y0135318D01*
X0253599Y0135332D01*
X0253474Y0135349D01*
X0253350Y0135371D01*
X0253227Y0135396D01*
X0253105Y0135426D01*
X0252984Y0135459D01*
X0252864Y0135496D01*
X0252745Y0135536D01*
X0252628Y0135581D01*
X0252511Y0135629D01*
X0252397Y0135681D01*
X0252284Y0135736D01*
X0252173Y0135795D01*
X0252064Y0135857D01*
X0251957Y0135923D01*
X0251852Y0135992D01*
X0251749Y0136064D01*
X0251648Y0136139D01*
X0251550Y0136218D01*
X0251455Y0136300D01*
X0251362Y0136384D01*
X0251272Y0136472D01*
X0251184Y0136562D01*
X0251100Y0136655D01*
X0251018Y0136750D01*
X0250939Y0136848D01*
X0250864Y0136949D01*
X0250792Y0137052D01*
X0250723Y0137157D01*
X0250657Y0137264D01*
X0250595Y0137373D01*
X0250536Y0137484D01*
X0250481Y0137597D01*
X0250429Y0137711D01*
X0250381Y0137828D01*
X0250336Y0137945D01*
X0250296Y0138064D01*
X0250259Y0138184D01*
X0250226Y0138305D01*
X0250196Y0138427D01*
X0250171Y0138550D01*
X0250149Y0138674D01*
X0250132Y0138799D01*
X0250118Y0138924D01*
X0250108Y0139049D01*
X0250102Y0139174D01*
X0250100Y0139300D01*
X0242600Y0139300D01*
X0242600Y0099300D01*
X0277100Y0097800D02*
X0277100Y0110800D01*
X0277102Y0110887D01*
X0277108Y0110974D01*
X0277117Y0111061D01*
X0277130Y0111147D01*
X0277147Y0111233D01*
X0277168Y0111318D01*
X0277193Y0111401D01*
X0277221Y0111484D01*
X0277252Y0111565D01*
X0277287Y0111645D01*
X0277326Y0111723D01*
X0277368Y0111800D01*
X0277413Y0111875D01*
X0277462Y0111947D01*
X0277513Y0112018D01*
X0277568Y0112086D01*
X0277625Y0112151D01*
X0277686Y0112214D01*
X0277749Y0112275D01*
X0277814Y0112332D01*
X0277882Y0112387D01*
X0277953Y0112438D01*
X0278025Y0112487D01*
X0278100Y0112532D01*
X0278177Y0112574D01*
X0278255Y0112613D01*
X0278335Y0112648D01*
X0278416Y0112679D01*
X0278499Y0112707D01*
X0278582Y0112732D01*
X0278667Y0112753D01*
X0278753Y0112770D01*
X0278839Y0112783D01*
X0278926Y0112792D01*
X0279013Y0112798D01*
X0279100Y0112800D01*
X0284100Y0112800D02*
X0284187Y0112798D01*
X0284274Y0112792D01*
X0284361Y0112783D01*
X0284447Y0112770D01*
X0284533Y0112753D01*
X0284618Y0112732D01*
X0284701Y0112707D01*
X0284784Y0112679D01*
X0284865Y0112648D01*
X0284945Y0112613D01*
X0285023Y0112574D01*
X0285100Y0112532D01*
X0285175Y0112487D01*
X0285247Y0112438D01*
X0285318Y0112387D01*
X0285386Y0112332D01*
X0285451Y0112275D01*
X0285514Y0112214D01*
X0285575Y0112151D01*
X0285632Y0112086D01*
X0285687Y0112018D01*
X0285738Y0111947D01*
X0285787Y0111875D01*
X0285832Y0111800D01*
X0285874Y0111723D01*
X0285913Y0111645D01*
X0285948Y0111565D01*
X0285979Y0111484D01*
X0286007Y0111401D01*
X0286032Y0111318D01*
X0286053Y0111233D01*
X0286070Y0111147D01*
X0286083Y0111061D01*
X0286092Y0110974D01*
X0286098Y0110887D01*
X0286100Y0110800D01*
X0286100Y0097800D01*
X0286098Y0097713D01*
X0286092Y0097626D01*
X0286083Y0097539D01*
X0286070Y0097453D01*
X0286053Y0097367D01*
X0286032Y0097282D01*
X0286007Y0097199D01*
X0285979Y0097116D01*
X0285948Y0097035D01*
X0285913Y0096955D01*
X0285874Y0096877D01*
X0285832Y0096800D01*
X0285787Y0096725D01*
X0285738Y0096653D01*
X0285687Y0096582D01*
X0285632Y0096514D01*
X0285575Y0096449D01*
X0285514Y0096386D01*
X0285451Y0096325D01*
X0285386Y0096268D01*
X0285318Y0096213D01*
X0285247Y0096162D01*
X0285175Y0096113D01*
X0285100Y0096068D01*
X0285023Y0096026D01*
X0284945Y0095987D01*
X0284865Y0095952D01*
X0284784Y0095921D01*
X0284701Y0095893D01*
X0284618Y0095868D01*
X0284533Y0095847D01*
X0284447Y0095830D01*
X0284361Y0095817D01*
X0284274Y0095808D01*
X0284187Y0095802D01*
X0284100Y0095800D01*
X0279100Y0095800D02*
X0279013Y0095802D01*
X0278926Y0095808D01*
X0278839Y0095817D01*
X0278753Y0095830D01*
X0278667Y0095847D01*
X0278582Y0095868D01*
X0278499Y0095893D01*
X0278416Y0095921D01*
X0278335Y0095952D01*
X0278255Y0095987D01*
X0278177Y0096026D01*
X0278100Y0096068D01*
X0278025Y0096113D01*
X0277953Y0096162D01*
X0277882Y0096213D01*
X0277814Y0096268D01*
X0277749Y0096325D01*
X0277686Y0096386D01*
X0277625Y0096449D01*
X0277568Y0096514D01*
X0277513Y0096582D01*
X0277462Y0096653D01*
X0277413Y0096725D01*
X0277368Y0096800D01*
X0277326Y0096877D01*
X0277287Y0096955D01*
X0277252Y0097035D01*
X0277221Y0097116D01*
X0277193Y0097199D01*
X0277168Y0097282D01*
X0277147Y0097367D01*
X0277130Y0097453D01*
X0277117Y0097539D01*
X0277108Y0097626D01*
X0277102Y0097713D01*
X0277100Y0097800D01*
X0281600Y0099300D02*
X0281600Y0103100D01*
X0281600Y0105600D02*
X0281600Y0109300D01*
X0302600Y0104300D02*
X0325600Y0104300D01*
X0325600Y0144300D01*
X0318100Y0144300D01*
X0318098Y0144174D01*
X0318092Y0144049D01*
X0318082Y0143924D01*
X0318068Y0143799D01*
X0318051Y0143674D01*
X0318029Y0143550D01*
X0318004Y0143427D01*
X0317974Y0143305D01*
X0317941Y0143184D01*
X0317904Y0143064D01*
X0317864Y0142945D01*
X0317819Y0142828D01*
X0317771Y0142711D01*
X0317719Y0142597D01*
X0317664Y0142484D01*
X0317605Y0142373D01*
X0317543Y0142264D01*
X0317477Y0142157D01*
X0317408Y0142052D01*
X0317336Y0141949D01*
X0317261Y0141848D01*
X0317182Y0141750D01*
X0317100Y0141655D01*
X0317016Y0141562D01*
X0316928Y0141472D01*
X0316838Y0141384D01*
X0316745Y0141300D01*
X0316650Y0141218D01*
X0316552Y0141139D01*
X0316451Y0141064D01*
X0316348Y0140992D01*
X0316243Y0140923D01*
X0316136Y0140857D01*
X0316027Y0140795D01*
X0315916Y0140736D01*
X0315803Y0140681D01*
X0315689Y0140629D01*
X0315572Y0140581D01*
X0315455Y0140536D01*
X0315336Y0140496D01*
X0315216Y0140459D01*
X0315095Y0140426D01*
X0314973Y0140396D01*
X0314850Y0140371D01*
X0314726Y0140349D01*
X0314601Y0140332D01*
X0314476Y0140318D01*
X0314351Y0140308D01*
X0314226Y0140302D01*
X0314100Y0140300D01*
X0313974Y0140302D01*
X0313849Y0140308D01*
X0313724Y0140318D01*
X0313599Y0140332D01*
X0313474Y0140349D01*
X0313350Y0140371D01*
X0313227Y0140396D01*
X0313105Y0140426D01*
X0312984Y0140459D01*
X0312864Y0140496D01*
X0312745Y0140536D01*
X0312628Y0140581D01*
X0312511Y0140629D01*
X0312397Y0140681D01*
X0312284Y0140736D01*
X0312173Y0140795D01*
X0312064Y0140857D01*
X0311957Y0140923D01*
X0311852Y0140992D01*
X0311749Y0141064D01*
X0311648Y0141139D01*
X0311550Y0141218D01*
X0311455Y0141300D01*
X0311362Y0141384D01*
X0311272Y0141472D01*
X0311184Y0141562D01*
X0311100Y0141655D01*
X0311018Y0141750D01*
X0310939Y0141848D01*
X0310864Y0141949D01*
X0310792Y0142052D01*
X0310723Y0142157D01*
X0310657Y0142264D01*
X0310595Y0142373D01*
X0310536Y0142484D01*
X0310481Y0142597D01*
X0310429Y0142711D01*
X0310381Y0142828D01*
X0310336Y0142945D01*
X0310296Y0143064D01*
X0310259Y0143184D01*
X0310226Y0143305D01*
X0310196Y0143427D01*
X0310171Y0143550D01*
X0310149Y0143674D01*
X0310132Y0143799D01*
X0310118Y0143924D01*
X0310108Y0144049D01*
X0310102Y0144174D01*
X0310100Y0144300D01*
X0302600Y0144300D01*
X0302600Y0104300D01*
X0303600Y0101800D02*
X0303600Y0091800D01*
X0319600Y0091800D01*
X0319600Y0101800D01*
X0303600Y0101800D01*
X0307600Y0099300D02*
X0311600Y0096800D01*
X0311600Y0099300D01*
X0311600Y0096800D02*
X0311600Y0094300D01*
X0311600Y0096800D02*
X0307600Y0094300D01*
X0307600Y0099300D01*
X0305600Y0096800D02*
X0311600Y0096800D01*
X0314100Y0096800D01*
X0314600Y0091800D02*
X0298600Y0091800D01*
X0298600Y0081800D01*
X0314600Y0081800D01*
X0314600Y0091800D01*
X0309100Y0086800D02*
X0306600Y0086800D01*
X0306600Y0089300D01*
X0306600Y0086800D02*
X0302600Y0089300D01*
X0302600Y0084300D01*
X0306600Y0086800D01*
X0306600Y0084300D01*
X0306600Y0086800D02*
X0300600Y0086800D01*
X0339600Y0095300D02*
X0339600Y0108300D01*
X0339602Y0108387D01*
X0339608Y0108474D01*
X0339617Y0108561D01*
X0339630Y0108647D01*
X0339647Y0108733D01*
X0339668Y0108818D01*
X0339693Y0108901D01*
X0339721Y0108984D01*
X0339752Y0109065D01*
X0339787Y0109145D01*
X0339826Y0109223D01*
X0339868Y0109300D01*
X0339913Y0109375D01*
X0339962Y0109447D01*
X0340013Y0109518D01*
X0340068Y0109586D01*
X0340125Y0109651D01*
X0340186Y0109714D01*
X0340249Y0109775D01*
X0340314Y0109832D01*
X0340382Y0109887D01*
X0340453Y0109938D01*
X0340525Y0109987D01*
X0340600Y0110032D01*
X0340677Y0110074D01*
X0340755Y0110113D01*
X0340835Y0110148D01*
X0340916Y0110179D01*
X0340999Y0110207D01*
X0341082Y0110232D01*
X0341167Y0110253D01*
X0341253Y0110270D01*
X0341339Y0110283D01*
X0341426Y0110292D01*
X0341513Y0110298D01*
X0341600Y0110300D01*
X0344100Y0106800D02*
X0344100Y0103100D01*
X0344100Y0100600D02*
X0344100Y0096800D01*
X0341600Y0093300D02*
X0341513Y0093302D01*
X0341426Y0093308D01*
X0341339Y0093317D01*
X0341253Y0093330D01*
X0341167Y0093347D01*
X0341082Y0093368D01*
X0340999Y0093393D01*
X0340916Y0093421D01*
X0340835Y0093452D01*
X0340755Y0093487D01*
X0340677Y0093526D01*
X0340600Y0093568D01*
X0340525Y0093613D01*
X0340453Y0093662D01*
X0340382Y0093713D01*
X0340314Y0093768D01*
X0340249Y0093825D01*
X0340186Y0093886D01*
X0340125Y0093949D01*
X0340068Y0094014D01*
X0340013Y0094082D01*
X0339962Y0094153D01*
X0339913Y0094225D01*
X0339868Y0094300D01*
X0339826Y0094377D01*
X0339787Y0094455D01*
X0339752Y0094535D01*
X0339721Y0094616D01*
X0339693Y0094699D01*
X0339668Y0094782D01*
X0339647Y0094867D01*
X0339630Y0094953D01*
X0339617Y0095039D01*
X0339608Y0095126D01*
X0339602Y0095213D01*
X0339600Y0095300D01*
X0346600Y0093300D02*
X0346687Y0093302D01*
X0346774Y0093308D01*
X0346861Y0093317D01*
X0346947Y0093330D01*
X0347033Y0093347D01*
X0347118Y0093368D01*
X0347201Y0093393D01*
X0347284Y0093421D01*
X0347365Y0093452D01*
X0347445Y0093487D01*
X0347523Y0093526D01*
X0347600Y0093568D01*
X0347675Y0093613D01*
X0347747Y0093662D01*
X0347818Y0093713D01*
X0347886Y0093768D01*
X0347951Y0093825D01*
X0348014Y0093886D01*
X0348075Y0093949D01*
X0348132Y0094014D01*
X0348187Y0094082D01*
X0348238Y0094153D01*
X0348287Y0094225D01*
X0348332Y0094300D01*
X0348374Y0094377D01*
X0348413Y0094455D01*
X0348448Y0094535D01*
X0348479Y0094616D01*
X0348507Y0094699D01*
X0348532Y0094782D01*
X0348553Y0094867D01*
X0348570Y0094953D01*
X0348583Y0095039D01*
X0348592Y0095126D01*
X0348598Y0095213D01*
X0348600Y0095300D01*
X0348600Y0108300D01*
X0348598Y0108387D01*
X0348592Y0108474D01*
X0348583Y0108561D01*
X0348570Y0108647D01*
X0348553Y0108733D01*
X0348532Y0108818D01*
X0348507Y0108901D01*
X0348479Y0108984D01*
X0348448Y0109065D01*
X0348413Y0109145D01*
X0348374Y0109223D01*
X0348332Y0109300D01*
X0348287Y0109375D01*
X0348238Y0109447D01*
X0348187Y0109518D01*
X0348132Y0109586D01*
X0348075Y0109651D01*
X0348014Y0109714D01*
X0347951Y0109775D01*
X0347886Y0109832D01*
X0347818Y0109887D01*
X0347747Y0109938D01*
X0347675Y0109987D01*
X0347600Y0110032D01*
X0347523Y0110074D01*
X0347445Y0110113D01*
X0347365Y0110148D01*
X0347284Y0110179D01*
X0347201Y0110207D01*
X0347118Y0110232D01*
X0347033Y0110253D01*
X0346947Y0110270D01*
X0346861Y0110283D01*
X0346774Y0110292D01*
X0346687Y0110298D01*
X0346600Y0110300D01*
X0236600Y0144300D02*
X0234100Y0141800D01*
X0229100Y0141800D01*
X0226600Y0144300D01*
X0226600Y0149300D01*
X0229100Y0151800D01*
X0234100Y0151800D01*
X0236600Y0149300D01*
X0236600Y0144300D01*
X0219100Y0144300D02*
X0216600Y0141800D01*
X0211600Y0141800D01*
X0209100Y0144300D01*
X0209100Y0149300D01*
X0211600Y0151800D01*
X0216600Y0151800D01*
X0219100Y0149300D01*
X0219100Y0144300D01*
X0204100Y0144300D02*
X0201600Y0141800D01*
X0196600Y0141800D01*
X0194100Y0144300D01*
X0194100Y0149300D01*
X0196600Y0151800D01*
X0201600Y0151800D01*
X0204100Y0149300D01*
X0204100Y0144300D01*
X0186481Y0144734D02*
X0186700Y0139739D01*
X0184311Y0137132D01*
X0179316Y0136914D01*
X0176709Y0139302D01*
X0174320Y0136696D01*
X0169325Y0136478D01*
X0166719Y0138866D01*
X0166500Y0143861D01*
X0168889Y0146468D01*
X0173884Y0146686D01*
X0176491Y0144298D01*
X0178880Y0146904D01*
X0183875Y0147122D01*
X0186481Y0144734D01*
X0176491Y0144298D02*
X0176709Y0139302D01*
X0156600Y0139300D02*
X0154100Y0136800D01*
X0149100Y0136800D01*
X0146600Y0139300D01*
X0144100Y0136800D01*
X0139100Y0136800D01*
X0136600Y0139300D01*
X0136600Y0144300D01*
X0139100Y0146800D01*
X0144100Y0146800D01*
X0146600Y0144300D01*
X0149100Y0146800D01*
X0154100Y0146800D01*
X0156600Y0144300D01*
X0156600Y0139300D01*
X0146600Y0139300D02*
X0146600Y0144300D01*
X0126600Y0144300D02*
X0126600Y0139300D01*
X0124100Y0136800D01*
X0119100Y0136800D01*
X0116600Y0139300D01*
X0114100Y0136800D01*
X0109100Y0136800D01*
X0106600Y0139300D01*
X0106600Y0144300D01*
X0109100Y0146800D01*
X0114100Y0146800D01*
X0116600Y0144300D01*
X0119100Y0146800D01*
X0124100Y0146800D01*
X0126600Y0144300D01*
X0116600Y0144300D02*
X0116600Y0139300D01*
X0096600Y0139300D02*
X0094100Y0136800D01*
X0089100Y0136800D01*
X0086600Y0139300D01*
X0084100Y0136800D01*
X0079100Y0136800D01*
X0076600Y0139300D01*
X0076600Y0144300D01*
X0079100Y0146800D01*
X0084100Y0146800D01*
X0086600Y0144300D01*
X0089100Y0146800D01*
X0094100Y0146800D01*
X0096600Y0144300D01*
X0096600Y0139300D01*
X0086600Y0139300D02*
X0086600Y0144300D01*
X0059100Y0146800D02*
X0056600Y0144300D01*
X0051600Y0144300D01*
X0049100Y0146800D01*
X0049100Y0151800D01*
X0051600Y0154300D01*
X0056600Y0154300D01*
X0059100Y0151800D01*
X0059100Y0146800D01*
X0039100Y0139300D02*
X0036600Y0141800D01*
X0031600Y0141800D01*
X0029100Y0139300D01*
X0026600Y0141800D01*
X0021600Y0141800D01*
X0019100Y0139300D01*
X0016600Y0141800D01*
X0011600Y0141800D01*
X0009100Y0139300D01*
X0009100Y0134300D01*
X0011600Y0131800D01*
X0016600Y0131800D01*
X0019100Y0134300D01*
X0019100Y0139300D01*
X0019100Y0134300D02*
X0021600Y0131800D01*
X0026600Y0131800D01*
X0029100Y0134300D01*
X0029100Y0139300D01*
X0029100Y0134300D02*
X0031600Y0131800D01*
X0036600Y0131800D01*
X0039100Y0134300D01*
X0039100Y0139300D01*
X0036600Y0124300D02*
X0041600Y0124300D01*
X0044100Y0121800D01*
X0044100Y0116800D01*
X0041600Y0114300D01*
X0036600Y0114300D01*
X0034100Y0116800D01*
X0031600Y0114300D01*
X0026600Y0114300D01*
X0024100Y0116800D01*
X0024100Y0121800D01*
X0026600Y0124300D01*
X0031600Y0124300D01*
X0034100Y0121800D01*
X0036600Y0124300D01*
X0034100Y0121800D02*
X0034100Y0116800D01*
X0024100Y0116800D02*
X0021600Y0114300D01*
X0016600Y0114300D01*
X0014100Y0116800D01*
X0011600Y0114300D01*
X0006600Y0114300D01*
X0004100Y0116800D01*
X0004100Y0121800D01*
X0006600Y0124300D01*
X0011600Y0124300D01*
X0014100Y0121800D01*
X0016600Y0124300D01*
X0021600Y0124300D01*
X0024100Y0121800D01*
X0014100Y0121800D02*
X0014100Y0116800D01*
D17*
X0133065Y0076601D02*
X0133649Y0076017D01*
X0135400Y0076017D01*
X0135400Y0074849D02*
X0133065Y0074849D01*
X0133065Y0075433D01*
X0133649Y0076017D01*
X0133065Y0076601D02*
X0133649Y0077185D01*
X0135400Y0077185D01*
X0135400Y0073594D02*
X0133649Y0073594D01*
X0133065Y0073010D01*
X0133649Y0072426D01*
X0135400Y0072426D01*
X0135400Y0071258D02*
X0133065Y0071258D01*
X0133065Y0071842D01*
X0133649Y0072426D01*
X0133065Y0070003D02*
X0132481Y0070003D01*
X0131897Y0069419D01*
X0131897Y0068251D01*
X0132481Y0067667D01*
X0133065Y0070003D02*
X0135400Y0067667D01*
X0135400Y0070003D01*
X0135400Y0066441D02*
X0135400Y0065857D01*
X0134816Y0065857D01*
X0134816Y0066441D01*
X0135400Y0066441D01*
X0136568Y0065273D01*
X0134816Y0064017D02*
X0133649Y0064017D01*
X0133065Y0063434D01*
X0133065Y0062850D01*
X0133649Y0061682D01*
X0131897Y0061682D01*
X0131897Y0064017D01*
X0134816Y0064017D02*
X0135400Y0063434D01*
X0135400Y0062266D01*
X0134816Y0061682D01*
X0135400Y0060426D02*
X0135400Y0058091D01*
X0135400Y0059259D02*
X0131897Y0059259D01*
X0133065Y0058091D01*
X0133065Y0056835D02*
X0135400Y0056835D01*
X0133649Y0056835D02*
X0133649Y0054500D01*
X0133065Y0054500D02*
X0131897Y0055668D01*
X0133065Y0056835D01*
X0133065Y0054500D02*
X0135400Y0054500D01*
D18*
X0173350Y0061800D03*
X0173350Y0071800D03*
X0173350Y0081800D03*
D19*
X0164978Y0095265D02*
X0164978Y0096446D01*
X0159155Y0096446D01*
X0159155Y0095265D01*
X0139013Y0095265D01*
X0124187Y0095265D01*
X0104978Y0095265D01*
X0104978Y0096446D01*
X0099155Y0096446D01*
X0099155Y0095265D01*
X0077230Y0095265D01*
X0077230Y0128335D01*
X0099187Y0128335D01*
X0099187Y0122233D01*
X0114013Y0122233D01*
X0114013Y0128335D01*
X0149187Y0128335D01*
X0149187Y0122233D01*
X0164013Y0122233D01*
X0164013Y0128335D01*
X0185970Y0128335D01*
X0185970Y0095265D01*
X0164978Y0095265D01*
X0181541Y0098906D02*
X0139013Y0098906D01*
X0139013Y0101367D02*
X0124187Y0101367D01*
X0124187Y0095265D01*
X0124187Y0098906D02*
X0081659Y0098906D01*
X0081659Y0124694D01*
X0099159Y0124694D01*
X0099187Y0128335D02*
X0114013Y0128335D01*
X0114021Y0124694D02*
X0149179Y0124694D01*
X0149187Y0128335D02*
X0164013Y0128335D01*
X0164041Y0124694D02*
X0181541Y0124694D01*
X0181541Y0098906D01*
X0196100Y0104300D02*
X0196100Y0124300D01*
X0199100Y0124300D01*
X0199100Y0125300D01*
X0199100Y0124300D02*
X0202100Y0124300D01*
X0202100Y0104300D01*
X0199100Y0104300D01*
X0199100Y0103300D01*
X0199100Y0104300D02*
X0196100Y0104300D01*
X0211100Y0104300D02*
X0211100Y0124300D01*
X0214100Y0124300D01*
X0214100Y0125300D01*
X0214100Y0124300D02*
X0217100Y0124300D01*
X0217100Y0104300D01*
X0214100Y0104300D01*
X0214100Y0103300D01*
X0214100Y0104300D02*
X0211100Y0104300D01*
X0223600Y0104300D02*
X0223600Y0124300D01*
X0226600Y0124300D01*
X0226600Y0125300D01*
X0226600Y0124300D02*
X0229600Y0124300D01*
X0229600Y0104300D01*
X0226600Y0104300D01*
X0226600Y0103300D01*
X0226600Y0104300D02*
X0223600Y0104300D01*
X0283600Y0126800D02*
X0286600Y0126800D01*
X0286600Y0125800D01*
X0286600Y0126800D02*
X0289600Y0126800D01*
X0289600Y0146800D01*
X0286600Y0146800D01*
X0286600Y0147800D01*
X0286600Y0146800D02*
X0283600Y0146800D01*
X0283600Y0126800D01*
X0269100Y0146300D02*
X0249100Y0146300D01*
X0249100Y0149300D01*
X0248100Y0149300D01*
X0249100Y0149300D02*
X0249100Y0152300D01*
X0269100Y0152300D01*
X0269100Y0149300D01*
X0270100Y0149300D01*
X0269100Y0149300D02*
X0269100Y0146300D01*
X0305600Y0151800D02*
X0306600Y0151800D01*
X0306600Y0154800D01*
X0326600Y0154800D01*
X0326600Y0151800D01*
X0327600Y0151800D01*
X0326600Y0151800D02*
X0326600Y0148800D01*
X0306600Y0148800D01*
X0306600Y0151800D01*
X0341100Y0144300D02*
X0344100Y0144300D01*
X0344100Y0145300D01*
X0344100Y0144300D02*
X0347100Y0144300D01*
X0347100Y0124300D01*
X0344100Y0124300D01*
X0344100Y0123300D01*
X0344100Y0124300D02*
X0341100Y0124300D01*
X0341100Y0144300D01*
X0339100Y0082300D02*
X0319100Y0082300D01*
X0319100Y0079300D01*
X0318100Y0079300D01*
X0319100Y0079300D02*
X0319100Y0076300D01*
X0339100Y0076300D01*
X0339100Y0079300D01*
X0340100Y0079300D01*
X0339100Y0079300D02*
X0339100Y0082300D01*
X0315100Y0071800D02*
X0314100Y0071800D01*
X0314100Y0068800D01*
X0294100Y0068800D01*
X0294100Y0071800D01*
X0293100Y0071800D01*
X0294100Y0071800D02*
X0294100Y0074800D01*
X0314100Y0074800D01*
X0314100Y0071800D01*
X0139013Y0095265D02*
X0139013Y0101367D01*
X0101600Y0082800D02*
X0101600Y0081800D01*
X0104600Y0081800D01*
X0104600Y0061800D01*
X0101600Y0061800D01*
X0101600Y0060800D01*
X0101600Y0061800D02*
X0098600Y0061800D01*
X0098600Y0081800D01*
X0101600Y0081800D01*
X0061600Y0110800D02*
X0061600Y0111800D01*
X0058600Y0111800D01*
X0058600Y0131800D01*
X0061600Y0131800D01*
X0061600Y0132800D01*
X0061600Y0131800D02*
X0064600Y0131800D01*
X0064600Y0111800D01*
X0061600Y0111800D01*
X0054600Y0111800D02*
X0051600Y0111800D01*
X0051600Y0110800D01*
X0051600Y0111800D02*
X0048600Y0111800D01*
X0048600Y0131800D01*
X0051600Y0131800D01*
X0051600Y0132800D01*
X0051600Y0131800D02*
X0054600Y0131800D01*
X0054600Y0111800D01*
X0031600Y0148800D02*
X0011600Y0148800D01*
X0011600Y0151800D01*
X0010600Y0151800D01*
X0011600Y0151800D02*
X0011600Y0154800D01*
X0031600Y0154800D01*
X0031600Y0151800D01*
X0032600Y0151800D01*
X0031600Y0151800D02*
X0031600Y0148800D01*
D20*
X0312100Y0086800D03*
X0317100Y0096800D03*
D21*
X0323350Y0096800D03*
X0318350Y0086800D03*
X0299850Y0096800D03*
X0294850Y0086800D03*
D22*
X0284600Y0103100D02*
X0281600Y0103100D01*
X0278600Y0103100D01*
X0278600Y0105600D02*
X0281600Y0105600D01*
X0284600Y0105600D01*
X0341100Y0103100D02*
X0344100Y0103100D01*
X0347100Y0103100D01*
X0347100Y0100600D02*
X0344100Y0100600D01*
X0341100Y0100600D01*
D23*
X0268850Y0081800D03*
X0268850Y0071800D03*
X0268850Y0061800D03*
X0268850Y0036800D03*
X0268850Y0026800D03*
X0268850Y0016800D03*
X0173850Y0016800D03*
X0173850Y0026800D03*
X0173850Y0036800D03*
D24*
X0167100Y0036800D03*
X0167100Y0026800D03*
X0167100Y0016800D03*
X0262100Y0016800D03*
X0262100Y0026800D03*
X0262100Y0036800D03*
X0262100Y0061800D03*
X0262100Y0071800D03*
X0262100Y0081800D03*
M02*
