G75*
%MOIN*%
%OFA0B0*%
%FSLAX25Y25*%
%IPPOS*%
%LPD*%
%AMOC8*
5,1,8,0,0,1.08239X$1,22.5*
%
%ADD10C,0.00000*%
%ADD11C,0.00300*%
%ADD12C,0.01000*%
%ADD13C,0.00500*%
%ADD14C,0.00600*%
%ADD15C,0.00800*%
%ADD16C,0.02756*%
D10*
X0079638Y0026500D02*
X0079640Y0026597D01*
X0079646Y0026694D01*
X0079656Y0026790D01*
X0079670Y0026886D01*
X0079688Y0026982D01*
X0079709Y0027076D01*
X0079735Y0027170D01*
X0079764Y0027262D01*
X0079798Y0027353D01*
X0079834Y0027443D01*
X0079875Y0027531D01*
X0079919Y0027617D01*
X0079967Y0027702D01*
X0080018Y0027784D01*
X0080072Y0027865D01*
X0080130Y0027943D01*
X0080191Y0028018D01*
X0080254Y0028091D01*
X0080321Y0028162D01*
X0080391Y0028229D01*
X0080463Y0028294D01*
X0080538Y0028355D01*
X0080616Y0028414D01*
X0080695Y0028469D01*
X0080777Y0028521D01*
X0080861Y0028569D01*
X0080947Y0028614D01*
X0081035Y0028656D01*
X0081124Y0028694D01*
X0081215Y0028728D01*
X0081307Y0028758D01*
X0081400Y0028785D01*
X0081495Y0028807D01*
X0081590Y0028826D01*
X0081686Y0028841D01*
X0081782Y0028852D01*
X0081879Y0028859D01*
X0081976Y0028862D01*
X0082073Y0028861D01*
X0082170Y0028856D01*
X0082266Y0028847D01*
X0082362Y0028834D01*
X0082458Y0028817D01*
X0082553Y0028796D01*
X0082646Y0028772D01*
X0082739Y0028743D01*
X0082831Y0028711D01*
X0082921Y0028675D01*
X0083009Y0028636D01*
X0083096Y0028592D01*
X0083181Y0028546D01*
X0083264Y0028495D01*
X0083345Y0028442D01*
X0083423Y0028385D01*
X0083500Y0028325D01*
X0083573Y0028262D01*
X0083644Y0028196D01*
X0083712Y0028127D01*
X0083778Y0028055D01*
X0083840Y0027981D01*
X0083899Y0027904D01*
X0083955Y0027825D01*
X0084008Y0027743D01*
X0084058Y0027660D01*
X0084103Y0027574D01*
X0084146Y0027487D01*
X0084185Y0027398D01*
X0084220Y0027308D01*
X0084251Y0027216D01*
X0084278Y0027123D01*
X0084302Y0027029D01*
X0084322Y0026934D01*
X0084338Y0026838D01*
X0084350Y0026742D01*
X0084358Y0026645D01*
X0084362Y0026548D01*
X0084362Y0026452D01*
X0084358Y0026355D01*
X0084350Y0026258D01*
X0084338Y0026162D01*
X0084322Y0026066D01*
X0084302Y0025971D01*
X0084278Y0025877D01*
X0084251Y0025784D01*
X0084220Y0025692D01*
X0084185Y0025602D01*
X0084146Y0025513D01*
X0084103Y0025426D01*
X0084058Y0025340D01*
X0084008Y0025257D01*
X0083955Y0025175D01*
X0083899Y0025096D01*
X0083840Y0025019D01*
X0083778Y0024945D01*
X0083712Y0024873D01*
X0083644Y0024804D01*
X0083573Y0024738D01*
X0083500Y0024675D01*
X0083423Y0024615D01*
X0083345Y0024558D01*
X0083264Y0024505D01*
X0083181Y0024454D01*
X0083096Y0024408D01*
X0083009Y0024364D01*
X0082921Y0024325D01*
X0082831Y0024289D01*
X0082739Y0024257D01*
X0082646Y0024228D01*
X0082553Y0024204D01*
X0082458Y0024183D01*
X0082362Y0024166D01*
X0082266Y0024153D01*
X0082170Y0024144D01*
X0082073Y0024139D01*
X0081976Y0024138D01*
X0081879Y0024141D01*
X0081782Y0024148D01*
X0081686Y0024159D01*
X0081590Y0024174D01*
X0081495Y0024193D01*
X0081400Y0024215D01*
X0081307Y0024242D01*
X0081215Y0024272D01*
X0081124Y0024306D01*
X0081035Y0024344D01*
X0080947Y0024386D01*
X0080861Y0024431D01*
X0080777Y0024479D01*
X0080695Y0024531D01*
X0080616Y0024586D01*
X0080538Y0024645D01*
X0080463Y0024706D01*
X0080391Y0024771D01*
X0080321Y0024838D01*
X0080254Y0024909D01*
X0080191Y0024982D01*
X0080130Y0025057D01*
X0080072Y0025135D01*
X0080018Y0025216D01*
X0079967Y0025298D01*
X0079919Y0025383D01*
X0079875Y0025469D01*
X0079834Y0025557D01*
X0079798Y0025647D01*
X0079764Y0025738D01*
X0079735Y0025830D01*
X0079709Y0025924D01*
X0079688Y0026018D01*
X0079670Y0026114D01*
X0079656Y0026210D01*
X0079646Y0026306D01*
X0079640Y0026403D01*
X0079638Y0026500D01*
X0287000Y0016500D02*
X0337000Y0016500D01*
X0337000Y0226500D01*
X0282000Y0226500D01*
X0280701Y0156500D02*
X0280703Y0156658D01*
X0280709Y0156816D01*
X0280719Y0156974D01*
X0280733Y0157132D01*
X0280751Y0157289D01*
X0280772Y0157446D01*
X0280798Y0157602D01*
X0280828Y0157758D01*
X0280861Y0157913D01*
X0280899Y0158066D01*
X0280940Y0158219D01*
X0280985Y0158371D01*
X0281034Y0158522D01*
X0281087Y0158671D01*
X0281143Y0158819D01*
X0281203Y0158965D01*
X0281267Y0159110D01*
X0281335Y0159253D01*
X0281406Y0159395D01*
X0281480Y0159535D01*
X0281558Y0159672D01*
X0281640Y0159808D01*
X0281724Y0159942D01*
X0281813Y0160073D01*
X0281904Y0160202D01*
X0281999Y0160329D01*
X0282096Y0160454D01*
X0282197Y0160576D01*
X0282301Y0160695D01*
X0282408Y0160812D01*
X0282518Y0160926D01*
X0282631Y0161037D01*
X0282746Y0161146D01*
X0282864Y0161251D01*
X0282985Y0161353D01*
X0283108Y0161453D01*
X0283234Y0161549D01*
X0283362Y0161642D01*
X0283492Y0161732D01*
X0283625Y0161818D01*
X0283760Y0161902D01*
X0283896Y0161981D01*
X0284035Y0162058D01*
X0284176Y0162130D01*
X0284318Y0162200D01*
X0284462Y0162265D01*
X0284608Y0162327D01*
X0284755Y0162385D01*
X0284904Y0162440D01*
X0285054Y0162491D01*
X0285205Y0162538D01*
X0285357Y0162581D01*
X0285510Y0162620D01*
X0285665Y0162656D01*
X0285820Y0162687D01*
X0285976Y0162715D01*
X0286132Y0162739D01*
X0286289Y0162759D01*
X0286447Y0162775D01*
X0286604Y0162787D01*
X0286763Y0162795D01*
X0286921Y0162799D01*
X0287079Y0162799D01*
X0287237Y0162795D01*
X0287396Y0162787D01*
X0287553Y0162775D01*
X0287711Y0162759D01*
X0287868Y0162739D01*
X0288024Y0162715D01*
X0288180Y0162687D01*
X0288335Y0162656D01*
X0288490Y0162620D01*
X0288643Y0162581D01*
X0288795Y0162538D01*
X0288946Y0162491D01*
X0289096Y0162440D01*
X0289245Y0162385D01*
X0289392Y0162327D01*
X0289538Y0162265D01*
X0289682Y0162200D01*
X0289824Y0162130D01*
X0289965Y0162058D01*
X0290104Y0161981D01*
X0290240Y0161902D01*
X0290375Y0161818D01*
X0290508Y0161732D01*
X0290638Y0161642D01*
X0290766Y0161549D01*
X0290892Y0161453D01*
X0291015Y0161353D01*
X0291136Y0161251D01*
X0291254Y0161146D01*
X0291369Y0161037D01*
X0291482Y0160926D01*
X0291592Y0160812D01*
X0291699Y0160695D01*
X0291803Y0160576D01*
X0291904Y0160454D01*
X0292001Y0160329D01*
X0292096Y0160202D01*
X0292187Y0160073D01*
X0292276Y0159942D01*
X0292360Y0159808D01*
X0292442Y0159672D01*
X0292520Y0159535D01*
X0292594Y0159395D01*
X0292665Y0159253D01*
X0292733Y0159110D01*
X0292797Y0158965D01*
X0292857Y0158819D01*
X0292913Y0158671D01*
X0292966Y0158522D01*
X0293015Y0158371D01*
X0293060Y0158219D01*
X0293101Y0158066D01*
X0293139Y0157913D01*
X0293172Y0157758D01*
X0293202Y0157602D01*
X0293228Y0157446D01*
X0293249Y0157289D01*
X0293267Y0157132D01*
X0293281Y0156974D01*
X0293291Y0156816D01*
X0293297Y0156658D01*
X0293299Y0156500D01*
X0293297Y0156342D01*
X0293291Y0156184D01*
X0293281Y0156026D01*
X0293267Y0155868D01*
X0293249Y0155711D01*
X0293228Y0155554D01*
X0293202Y0155398D01*
X0293172Y0155242D01*
X0293139Y0155087D01*
X0293101Y0154934D01*
X0293060Y0154781D01*
X0293015Y0154629D01*
X0292966Y0154478D01*
X0292913Y0154329D01*
X0292857Y0154181D01*
X0292797Y0154035D01*
X0292733Y0153890D01*
X0292665Y0153747D01*
X0292594Y0153605D01*
X0292520Y0153465D01*
X0292442Y0153328D01*
X0292360Y0153192D01*
X0292276Y0153058D01*
X0292187Y0152927D01*
X0292096Y0152798D01*
X0292001Y0152671D01*
X0291904Y0152546D01*
X0291803Y0152424D01*
X0291699Y0152305D01*
X0291592Y0152188D01*
X0291482Y0152074D01*
X0291369Y0151963D01*
X0291254Y0151854D01*
X0291136Y0151749D01*
X0291015Y0151647D01*
X0290892Y0151547D01*
X0290766Y0151451D01*
X0290638Y0151358D01*
X0290508Y0151268D01*
X0290375Y0151182D01*
X0290240Y0151098D01*
X0290104Y0151019D01*
X0289965Y0150942D01*
X0289824Y0150870D01*
X0289682Y0150800D01*
X0289538Y0150735D01*
X0289392Y0150673D01*
X0289245Y0150615D01*
X0289096Y0150560D01*
X0288946Y0150509D01*
X0288795Y0150462D01*
X0288643Y0150419D01*
X0288490Y0150380D01*
X0288335Y0150344D01*
X0288180Y0150313D01*
X0288024Y0150285D01*
X0287868Y0150261D01*
X0287711Y0150241D01*
X0287553Y0150225D01*
X0287396Y0150213D01*
X0287237Y0150205D01*
X0287079Y0150201D01*
X0286921Y0150201D01*
X0286763Y0150205D01*
X0286604Y0150213D01*
X0286447Y0150225D01*
X0286289Y0150241D01*
X0286132Y0150261D01*
X0285976Y0150285D01*
X0285820Y0150313D01*
X0285665Y0150344D01*
X0285510Y0150380D01*
X0285357Y0150419D01*
X0285205Y0150462D01*
X0285054Y0150509D01*
X0284904Y0150560D01*
X0284755Y0150615D01*
X0284608Y0150673D01*
X0284462Y0150735D01*
X0284318Y0150800D01*
X0284176Y0150870D01*
X0284035Y0150942D01*
X0283896Y0151019D01*
X0283760Y0151098D01*
X0283625Y0151182D01*
X0283492Y0151268D01*
X0283362Y0151358D01*
X0283234Y0151451D01*
X0283108Y0151547D01*
X0282985Y0151647D01*
X0282864Y0151749D01*
X0282746Y0151854D01*
X0282631Y0151963D01*
X0282518Y0152074D01*
X0282408Y0152188D01*
X0282301Y0152305D01*
X0282197Y0152424D01*
X0282096Y0152546D01*
X0281999Y0152671D01*
X0281904Y0152798D01*
X0281813Y0152927D01*
X0281724Y0153058D01*
X0281640Y0153192D01*
X0281558Y0153328D01*
X0281480Y0153465D01*
X0281406Y0153605D01*
X0281335Y0153747D01*
X0281267Y0153890D01*
X0281203Y0154035D01*
X0281143Y0154181D01*
X0281087Y0154329D01*
X0281034Y0154478D01*
X0280985Y0154629D01*
X0280940Y0154781D01*
X0280899Y0154934D01*
X0280861Y0155087D01*
X0280828Y0155242D01*
X0280798Y0155398D01*
X0280772Y0155554D01*
X0280751Y0155711D01*
X0280733Y0155868D01*
X0280719Y0156026D01*
X0280709Y0156184D01*
X0280703Y0156342D01*
X0280701Y0156500D01*
X0280701Y0046500D02*
X0280703Y0046658D01*
X0280709Y0046816D01*
X0280719Y0046974D01*
X0280733Y0047132D01*
X0280751Y0047289D01*
X0280772Y0047446D01*
X0280798Y0047602D01*
X0280828Y0047758D01*
X0280861Y0047913D01*
X0280899Y0048066D01*
X0280940Y0048219D01*
X0280985Y0048371D01*
X0281034Y0048522D01*
X0281087Y0048671D01*
X0281143Y0048819D01*
X0281203Y0048965D01*
X0281267Y0049110D01*
X0281335Y0049253D01*
X0281406Y0049395D01*
X0281480Y0049535D01*
X0281558Y0049672D01*
X0281640Y0049808D01*
X0281724Y0049942D01*
X0281813Y0050073D01*
X0281904Y0050202D01*
X0281999Y0050329D01*
X0282096Y0050454D01*
X0282197Y0050576D01*
X0282301Y0050695D01*
X0282408Y0050812D01*
X0282518Y0050926D01*
X0282631Y0051037D01*
X0282746Y0051146D01*
X0282864Y0051251D01*
X0282985Y0051353D01*
X0283108Y0051453D01*
X0283234Y0051549D01*
X0283362Y0051642D01*
X0283492Y0051732D01*
X0283625Y0051818D01*
X0283760Y0051902D01*
X0283896Y0051981D01*
X0284035Y0052058D01*
X0284176Y0052130D01*
X0284318Y0052200D01*
X0284462Y0052265D01*
X0284608Y0052327D01*
X0284755Y0052385D01*
X0284904Y0052440D01*
X0285054Y0052491D01*
X0285205Y0052538D01*
X0285357Y0052581D01*
X0285510Y0052620D01*
X0285665Y0052656D01*
X0285820Y0052687D01*
X0285976Y0052715D01*
X0286132Y0052739D01*
X0286289Y0052759D01*
X0286447Y0052775D01*
X0286604Y0052787D01*
X0286763Y0052795D01*
X0286921Y0052799D01*
X0287079Y0052799D01*
X0287237Y0052795D01*
X0287396Y0052787D01*
X0287553Y0052775D01*
X0287711Y0052759D01*
X0287868Y0052739D01*
X0288024Y0052715D01*
X0288180Y0052687D01*
X0288335Y0052656D01*
X0288490Y0052620D01*
X0288643Y0052581D01*
X0288795Y0052538D01*
X0288946Y0052491D01*
X0289096Y0052440D01*
X0289245Y0052385D01*
X0289392Y0052327D01*
X0289538Y0052265D01*
X0289682Y0052200D01*
X0289824Y0052130D01*
X0289965Y0052058D01*
X0290104Y0051981D01*
X0290240Y0051902D01*
X0290375Y0051818D01*
X0290508Y0051732D01*
X0290638Y0051642D01*
X0290766Y0051549D01*
X0290892Y0051453D01*
X0291015Y0051353D01*
X0291136Y0051251D01*
X0291254Y0051146D01*
X0291369Y0051037D01*
X0291482Y0050926D01*
X0291592Y0050812D01*
X0291699Y0050695D01*
X0291803Y0050576D01*
X0291904Y0050454D01*
X0292001Y0050329D01*
X0292096Y0050202D01*
X0292187Y0050073D01*
X0292276Y0049942D01*
X0292360Y0049808D01*
X0292442Y0049672D01*
X0292520Y0049535D01*
X0292594Y0049395D01*
X0292665Y0049253D01*
X0292733Y0049110D01*
X0292797Y0048965D01*
X0292857Y0048819D01*
X0292913Y0048671D01*
X0292966Y0048522D01*
X0293015Y0048371D01*
X0293060Y0048219D01*
X0293101Y0048066D01*
X0293139Y0047913D01*
X0293172Y0047758D01*
X0293202Y0047602D01*
X0293228Y0047446D01*
X0293249Y0047289D01*
X0293267Y0047132D01*
X0293281Y0046974D01*
X0293291Y0046816D01*
X0293297Y0046658D01*
X0293299Y0046500D01*
X0293297Y0046342D01*
X0293291Y0046184D01*
X0293281Y0046026D01*
X0293267Y0045868D01*
X0293249Y0045711D01*
X0293228Y0045554D01*
X0293202Y0045398D01*
X0293172Y0045242D01*
X0293139Y0045087D01*
X0293101Y0044934D01*
X0293060Y0044781D01*
X0293015Y0044629D01*
X0292966Y0044478D01*
X0292913Y0044329D01*
X0292857Y0044181D01*
X0292797Y0044035D01*
X0292733Y0043890D01*
X0292665Y0043747D01*
X0292594Y0043605D01*
X0292520Y0043465D01*
X0292442Y0043328D01*
X0292360Y0043192D01*
X0292276Y0043058D01*
X0292187Y0042927D01*
X0292096Y0042798D01*
X0292001Y0042671D01*
X0291904Y0042546D01*
X0291803Y0042424D01*
X0291699Y0042305D01*
X0291592Y0042188D01*
X0291482Y0042074D01*
X0291369Y0041963D01*
X0291254Y0041854D01*
X0291136Y0041749D01*
X0291015Y0041647D01*
X0290892Y0041547D01*
X0290766Y0041451D01*
X0290638Y0041358D01*
X0290508Y0041268D01*
X0290375Y0041182D01*
X0290240Y0041098D01*
X0290104Y0041019D01*
X0289965Y0040942D01*
X0289824Y0040870D01*
X0289682Y0040800D01*
X0289538Y0040735D01*
X0289392Y0040673D01*
X0289245Y0040615D01*
X0289096Y0040560D01*
X0288946Y0040509D01*
X0288795Y0040462D01*
X0288643Y0040419D01*
X0288490Y0040380D01*
X0288335Y0040344D01*
X0288180Y0040313D01*
X0288024Y0040285D01*
X0287868Y0040261D01*
X0287711Y0040241D01*
X0287553Y0040225D01*
X0287396Y0040213D01*
X0287237Y0040205D01*
X0287079Y0040201D01*
X0286921Y0040201D01*
X0286763Y0040205D01*
X0286604Y0040213D01*
X0286447Y0040225D01*
X0286289Y0040241D01*
X0286132Y0040261D01*
X0285976Y0040285D01*
X0285820Y0040313D01*
X0285665Y0040344D01*
X0285510Y0040380D01*
X0285357Y0040419D01*
X0285205Y0040462D01*
X0285054Y0040509D01*
X0284904Y0040560D01*
X0284755Y0040615D01*
X0284608Y0040673D01*
X0284462Y0040735D01*
X0284318Y0040800D01*
X0284176Y0040870D01*
X0284035Y0040942D01*
X0283896Y0041019D01*
X0283760Y0041098D01*
X0283625Y0041182D01*
X0283492Y0041268D01*
X0283362Y0041358D01*
X0283234Y0041451D01*
X0283108Y0041547D01*
X0282985Y0041647D01*
X0282864Y0041749D01*
X0282746Y0041854D01*
X0282631Y0041963D01*
X0282518Y0042074D01*
X0282408Y0042188D01*
X0282301Y0042305D01*
X0282197Y0042424D01*
X0282096Y0042546D01*
X0281999Y0042671D01*
X0281904Y0042798D01*
X0281813Y0042927D01*
X0281724Y0043058D01*
X0281640Y0043192D01*
X0281558Y0043328D01*
X0281480Y0043465D01*
X0281406Y0043605D01*
X0281335Y0043747D01*
X0281267Y0043890D01*
X0281203Y0044035D01*
X0281143Y0044181D01*
X0281087Y0044329D01*
X0281034Y0044478D01*
X0280985Y0044629D01*
X0280940Y0044781D01*
X0280899Y0044934D01*
X0280861Y0045087D01*
X0280828Y0045242D01*
X0280798Y0045398D01*
X0280772Y0045554D01*
X0280751Y0045711D01*
X0280733Y0045868D01*
X0280719Y0046026D01*
X0280709Y0046184D01*
X0280703Y0046342D01*
X0280701Y0046500D01*
X0080701Y0216500D02*
X0080703Y0216658D01*
X0080709Y0216816D01*
X0080719Y0216974D01*
X0080733Y0217132D01*
X0080751Y0217289D01*
X0080772Y0217446D01*
X0080798Y0217602D01*
X0080828Y0217758D01*
X0080861Y0217913D01*
X0080899Y0218066D01*
X0080940Y0218219D01*
X0080985Y0218371D01*
X0081034Y0218522D01*
X0081087Y0218671D01*
X0081143Y0218819D01*
X0081203Y0218965D01*
X0081267Y0219110D01*
X0081335Y0219253D01*
X0081406Y0219395D01*
X0081480Y0219535D01*
X0081558Y0219672D01*
X0081640Y0219808D01*
X0081724Y0219942D01*
X0081813Y0220073D01*
X0081904Y0220202D01*
X0081999Y0220329D01*
X0082096Y0220454D01*
X0082197Y0220576D01*
X0082301Y0220695D01*
X0082408Y0220812D01*
X0082518Y0220926D01*
X0082631Y0221037D01*
X0082746Y0221146D01*
X0082864Y0221251D01*
X0082985Y0221353D01*
X0083108Y0221453D01*
X0083234Y0221549D01*
X0083362Y0221642D01*
X0083492Y0221732D01*
X0083625Y0221818D01*
X0083760Y0221902D01*
X0083896Y0221981D01*
X0084035Y0222058D01*
X0084176Y0222130D01*
X0084318Y0222200D01*
X0084462Y0222265D01*
X0084608Y0222327D01*
X0084755Y0222385D01*
X0084904Y0222440D01*
X0085054Y0222491D01*
X0085205Y0222538D01*
X0085357Y0222581D01*
X0085510Y0222620D01*
X0085665Y0222656D01*
X0085820Y0222687D01*
X0085976Y0222715D01*
X0086132Y0222739D01*
X0086289Y0222759D01*
X0086447Y0222775D01*
X0086604Y0222787D01*
X0086763Y0222795D01*
X0086921Y0222799D01*
X0087079Y0222799D01*
X0087237Y0222795D01*
X0087396Y0222787D01*
X0087553Y0222775D01*
X0087711Y0222759D01*
X0087868Y0222739D01*
X0088024Y0222715D01*
X0088180Y0222687D01*
X0088335Y0222656D01*
X0088490Y0222620D01*
X0088643Y0222581D01*
X0088795Y0222538D01*
X0088946Y0222491D01*
X0089096Y0222440D01*
X0089245Y0222385D01*
X0089392Y0222327D01*
X0089538Y0222265D01*
X0089682Y0222200D01*
X0089824Y0222130D01*
X0089965Y0222058D01*
X0090104Y0221981D01*
X0090240Y0221902D01*
X0090375Y0221818D01*
X0090508Y0221732D01*
X0090638Y0221642D01*
X0090766Y0221549D01*
X0090892Y0221453D01*
X0091015Y0221353D01*
X0091136Y0221251D01*
X0091254Y0221146D01*
X0091369Y0221037D01*
X0091482Y0220926D01*
X0091592Y0220812D01*
X0091699Y0220695D01*
X0091803Y0220576D01*
X0091904Y0220454D01*
X0092001Y0220329D01*
X0092096Y0220202D01*
X0092187Y0220073D01*
X0092276Y0219942D01*
X0092360Y0219808D01*
X0092442Y0219672D01*
X0092520Y0219535D01*
X0092594Y0219395D01*
X0092665Y0219253D01*
X0092733Y0219110D01*
X0092797Y0218965D01*
X0092857Y0218819D01*
X0092913Y0218671D01*
X0092966Y0218522D01*
X0093015Y0218371D01*
X0093060Y0218219D01*
X0093101Y0218066D01*
X0093139Y0217913D01*
X0093172Y0217758D01*
X0093202Y0217602D01*
X0093228Y0217446D01*
X0093249Y0217289D01*
X0093267Y0217132D01*
X0093281Y0216974D01*
X0093291Y0216816D01*
X0093297Y0216658D01*
X0093299Y0216500D01*
X0093297Y0216342D01*
X0093291Y0216184D01*
X0093281Y0216026D01*
X0093267Y0215868D01*
X0093249Y0215711D01*
X0093228Y0215554D01*
X0093202Y0215398D01*
X0093172Y0215242D01*
X0093139Y0215087D01*
X0093101Y0214934D01*
X0093060Y0214781D01*
X0093015Y0214629D01*
X0092966Y0214478D01*
X0092913Y0214329D01*
X0092857Y0214181D01*
X0092797Y0214035D01*
X0092733Y0213890D01*
X0092665Y0213747D01*
X0092594Y0213605D01*
X0092520Y0213465D01*
X0092442Y0213328D01*
X0092360Y0213192D01*
X0092276Y0213058D01*
X0092187Y0212927D01*
X0092096Y0212798D01*
X0092001Y0212671D01*
X0091904Y0212546D01*
X0091803Y0212424D01*
X0091699Y0212305D01*
X0091592Y0212188D01*
X0091482Y0212074D01*
X0091369Y0211963D01*
X0091254Y0211854D01*
X0091136Y0211749D01*
X0091015Y0211647D01*
X0090892Y0211547D01*
X0090766Y0211451D01*
X0090638Y0211358D01*
X0090508Y0211268D01*
X0090375Y0211182D01*
X0090240Y0211098D01*
X0090104Y0211019D01*
X0089965Y0210942D01*
X0089824Y0210870D01*
X0089682Y0210800D01*
X0089538Y0210735D01*
X0089392Y0210673D01*
X0089245Y0210615D01*
X0089096Y0210560D01*
X0088946Y0210509D01*
X0088795Y0210462D01*
X0088643Y0210419D01*
X0088490Y0210380D01*
X0088335Y0210344D01*
X0088180Y0210313D01*
X0088024Y0210285D01*
X0087868Y0210261D01*
X0087711Y0210241D01*
X0087553Y0210225D01*
X0087396Y0210213D01*
X0087237Y0210205D01*
X0087079Y0210201D01*
X0086921Y0210201D01*
X0086763Y0210205D01*
X0086604Y0210213D01*
X0086447Y0210225D01*
X0086289Y0210241D01*
X0086132Y0210261D01*
X0085976Y0210285D01*
X0085820Y0210313D01*
X0085665Y0210344D01*
X0085510Y0210380D01*
X0085357Y0210419D01*
X0085205Y0210462D01*
X0085054Y0210509D01*
X0084904Y0210560D01*
X0084755Y0210615D01*
X0084608Y0210673D01*
X0084462Y0210735D01*
X0084318Y0210800D01*
X0084176Y0210870D01*
X0084035Y0210942D01*
X0083896Y0211019D01*
X0083760Y0211098D01*
X0083625Y0211182D01*
X0083492Y0211268D01*
X0083362Y0211358D01*
X0083234Y0211451D01*
X0083108Y0211547D01*
X0082985Y0211647D01*
X0082864Y0211749D01*
X0082746Y0211854D01*
X0082631Y0211963D01*
X0082518Y0212074D01*
X0082408Y0212188D01*
X0082301Y0212305D01*
X0082197Y0212424D01*
X0082096Y0212546D01*
X0081999Y0212671D01*
X0081904Y0212798D01*
X0081813Y0212927D01*
X0081724Y0213058D01*
X0081640Y0213192D01*
X0081558Y0213328D01*
X0081480Y0213465D01*
X0081406Y0213605D01*
X0081335Y0213747D01*
X0081267Y0213890D01*
X0081203Y0214035D01*
X0081143Y0214181D01*
X0081087Y0214329D01*
X0081034Y0214478D01*
X0080985Y0214629D01*
X0080940Y0214781D01*
X0080899Y0214934D01*
X0080861Y0215087D01*
X0080828Y0215242D01*
X0080798Y0215398D01*
X0080772Y0215554D01*
X0080751Y0215711D01*
X0080733Y0215868D01*
X0080719Y0216026D01*
X0080709Y0216184D01*
X0080703Y0216342D01*
X0080701Y0216500D01*
D11*
X0111145Y0210119D02*
X0111145Y0207650D01*
X0111145Y0209502D02*
X0113614Y0209502D01*
X0113614Y0210119D02*
X0113614Y0207650D01*
X0114828Y0207650D02*
X0114828Y0211353D01*
X0116680Y0211353D01*
X0117297Y0210736D01*
X0117297Y0209502D01*
X0116680Y0208884D01*
X0114828Y0208884D01*
X0116063Y0208884D02*
X0117297Y0207650D01*
X0118511Y0208267D02*
X0118511Y0209502D01*
X0119129Y0210119D01*
X0120363Y0210119D01*
X0120980Y0209502D01*
X0120980Y0208884D01*
X0118511Y0208884D01*
X0118511Y0208267D02*
X0119129Y0207650D01*
X0120363Y0207650D01*
X0122812Y0207650D02*
X0122812Y0210736D01*
X0123429Y0211353D01*
X0123429Y0209502D02*
X0122195Y0209502D01*
X0126101Y0209502D02*
X0126101Y0208267D01*
X0126718Y0207650D01*
X0128569Y0207650D01*
X0128569Y0207033D02*
X0128569Y0210119D01*
X0126718Y0210119D01*
X0126101Y0209502D01*
X0128569Y0207033D02*
X0127952Y0206416D01*
X0127335Y0206416D01*
X0129784Y0207650D02*
X0129784Y0210119D01*
X0131635Y0210119D01*
X0132252Y0209502D01*
X0132252Y0207650D01*
X0133467Y0208267D02*
X0133467Y0209502D01*
X0134084Y0210119D01*
X0135936Y0210119D01*
X0135936Y0211353D02*
X0135936Y0207650D01*
X0134084Y0207650D01*
X0133467Y0208267D01*
X0138284Y0207650D02*
X0140752Y0207650D01*
X0139518Y0207650D02*
X0139518Y0211353D01*
X0138284Y0210119D01*
X0141967Y0210736D02*
X0142584Y0211353D01*
X0143818Y0211353D01*
X0144436Y0210736D01*
X0144436Y0210119D01*
X0143818Y0209502D01*
X0144436Y0208884D01*
X0144436Y0208267D01*
X0143818Y0207650D01*
X0142584Y0207650D01*
X0141967Y0208267D01*
X0143201Y0209502D02*
X0143818Y0209502D01*
X0148284Y0210119D02*
X0149518Y0211353D01*
X0149518Y0207650D01*
X0148284Y0207650D02*
X0150752Y0207650D01*
X0151967Y0207650D02*
X0154436Y0210119D01*
X0154436Y0210736D01*
X0153818Y0211353D01*
X0152584Y0211353D01*
X0151967Y0210736D01*
X0151967Y0207650D02*
X0154436Y0207650D01*
X0158284Y0207650D02*
X0160752Y0207650D01*
X0161967Y0207650D02*
X0164436Y0207650D01*
X0163201Y0207650D02*
X0163201Y0211353D01*
X0161967Y0210119D01*
X0159518Y0211353D02*
X0159518Y0207650D01*
X0158284Y0210119D02*
X0159518Y0211353D01*
X0168284Y0210119D02*
X0169518Y0211353D01*
X0169518Y0207650D01*
X0168284Y0207650D02*
X0170752Y0207650D01*
X0171967Y0208267D02*
X0174436Y0210736D01*
X0174436Y0208267D01*
X0173818Y0207650D01*
X0172584Y0207650D01*
X0171967Y0208267D01*
X0171967Y0210736D01*
X0172584Y0211353D01*
X0173818Y0211353D01*
X0174436Y0210736D01*
X0179967Y0210736D02*
X0179967Y0210119D01*
X0180584Y0209502D01*
X0182436Y0209502D01*
X0182436Y0210736D02*
X0181818Y0211353D01*
X0180584Y0211353D01*
X0179967Y0210736D01*
X0182436Y0210736D02*
X0182436Y0208267D01*
X0181818Y0207650D01*
X0180584Y0207650D01*
X0179967Y0208267D01*
X0189967Y0208267D02*
X0189967Y0208884D01*
X0190584Y0209502D01*
X0191818Y0209502D01*
X0192436Y0208884D01*
X0192436Y0208267D01*
X0191818Y0207650D01*
X0190584Y0207650D01*
X0189967Y0208267D01*
X0190584Y0209502D02*
X0189967Y0210119D01*
X0189967Y0210736D01*
X0190584Y0211353D01*
X0191818Y0211353D01*
X0192436Y0210736D01*
X0192436Y0210119D01*
X0191818Y0209502D01*
X0205967Y0208267D02*
X0205967Y0207650D01*
X0205967Y0208267D02*
X0208436Y0210736D01*
X0208436Y0211353D01*
X0205967Y0211353D01*
X0215967Y0209502D02*
X0215967Y0208267D01*
X0216584Y0207650D01*
X0217818Y0207650D01*
X0218436Y0208267D01*
X0218436Y0208884D01*
X0217818Y0209502D01*
X0215967Y0209502D01*
X0217201Y0210736D01*
X0218436Y0211353D01*
X0225967Y0211353D02*
X0225967Y0209502D01*
X0227201Y0210119D01*
X0227818Y0210119D01*
X0228436Y0209502D01*
X0228436Y0208267D01*
X0227818Y0207650D01*
X0226584Y0207650D01*
X0225967Y0208267D01*
X0225967Y0211353D02*
X0228436Y0211353D01*
X0235967Y0209502D02*
X0238436Y0209502D01*
X0237818Y0211353D02*
X0235967Y0209502D01*
X0237818Y0211353D02*
X0237818Y0207650D01*
X0245967Y0208267D02*
X0246584Y0207650D01*
X0247818Y0207650D01*
X0248436Y0208267D01*
X0248436Y0208884D01*
X0247818Y0209502D01*
X0247201Y0209502D01*
X0247818Y0209502D02*
X0248436Y0210119D01*
X0248436Y0210736D01*
X0247818Y0211353D01*
X0246584Y0211353D01*
X0245967Y0210736D01*
X0255967Y0210736D02*
X0256584Y0211353D01*
X0257818Y0211353D01*
X0258436Y0210736D01*
X0258436Y0210119D01*
X0255967Y0207650D01*
X0258436Y0207650D01*
X0265967Y0207650D02*
X0268436Y0207650D01*
X0267201Y0207650D02*
X0267201Y0211353D01*
X0265967Y0210119D01*
X0275967Y0210736D02*
X0275967Y0208267D01*
X0278436Y0210736D01*
X0278436Y0208267D01*
X0277818Y0207650D01*
X0276584Y0207650D01*
X0275967Y0208267D01*
X0275967Y0210736D02*
X0276584Y0211353D01*
X0277818Y0211353D01*
X0278436Y0210736D01*
X0260812Y0222267D02*
X0260812Y0224736D01*
X0260194Y0225353D01*
X0258960Y0225353D01*
X0258343Y0224736D01*
X0258343Y0222267D01*
X0258960Y0221650D01*
X0260194Y0221650D01*
X0260812Y0222267D01*
X0257128Y0225353D02*
X0254660Y0221650D01*
X0253439Y0221650D02*
X0252204Y0221650D01*
X0252821Y0221650D02*
X0252821Y0225353D01*
X0252204Y0225353D02*
X0253439Y0225353D01*
X0247300Y0221650D02*
X0246066Y0221650D01*
X0246683Y0221650D02*
X0246683Y0225353D01*
X0246066Y0225353D01*
X0244234Y0224119D02*
X0244851Y0223502D01*
X0244851Y0221650D01*
X0243000Y0221650D01*
X0242383Y0222267D01*
X0243000Y0222884D01*
X0244851Y0222884D01*
X0244234Y0224119D02*
X0243000Y0224119D01*
X0241162Y0224119D02*
X0239927Y0224119D01*
X0240544Y0224736D02*
X0240544Y0222267D01*
X0241162Y0221650D01*
X0238706Y0221650D02*
X0237472Y0221650D01*
X0238089Y0221650D02*
X0238089Y0224119D01*
X0237472Y0224119D01*
X0236257Y0224119D02*
X0234406Y0224119D01*
X0233789Y0223502D01*
X0233789Y0222267D01*
X0234406Y0221650D01*
X0236257Y0221650D01*
X0236257Y0221033D02*
X0236257Y0224119D01*
X0238089Y0225353D02*
X0238089Y0225970D01*
X0231950Y0225970D02*
X0231950Y0225353D01*
X0231950Y0224119D02*
X0231950Y0221650D01*
X0231333Y0221650D02*
X0232568Y0221650D01*
X0230119Y0222267D02*
X0230119Y0224736D01*
X0229502Y0225353D01*
X0227650Y0225353D01*
X0227650Y0221650D01*
X0229502Y0221650D01*
X0230119Y0222267D01*
X0231333Y0224119D02*
X0231950Y0224119D01*
X0235023Y0220416D02*
X0235640Y0220416D01*
X0236257Y0221033D01*
X0184812Y0222267D02*
X0184812Y0224736D01*
X0184194Y0225353D01*
X0182960Y0225353D01*
X0182343Y0224736D01*
X0182343Y0222267D01*
X0182960Y0221650D01*
X0184194Y0221650D01*
X0184812Y0222267D01*
X0181128Y0225353D02*
X0178660Y0221650D01*
X0177439Y0221650D02*
X0176204Y0221650D01*
X0176821Y0221650D02*
X0176821Y0225353D01*
X0176204Y0225353D02*
X0177439Y0225353D01*
X0170683Y0225353D02*
X0170683Y0221650D01*
X0170066Y0221650D02*
X0171300Y0221650D01*
X0168851Y0221650D02*
X0167000Y0221650D01*
X0166383Y0222267D01*
X0167000Y0222884D01*
X0168851Y0222884D01*
X0168851Y0223502D02*
X0168851Y0221650D01*
X0168851Y0223502D02*
X0168234Y0224119D01*
X0167000Y0224119D01*
X0165162Y0224119D02*
X0163927Y0224119D01*
X0164544Y0224736D02*
X0164544Y0222267D01*
X0165162Y0221650D01*
X0162706Y0221650D02*
X0161472Y0221650D01*
X0162089Y0221650D02*
X0162089Y0224119D01*
X0161472Y0224119D01*
X0160257Y0224119D02*
X0158406Y0224119D01*
X0157789Y0223502D01*
X0157789Y0222267D01*
X0158406Y0221650D01*
X0160257Y0221650D01*
X0160257Y0221033D02*
X0160257Y0224119D01*
X0162089Y0225353D02*
X0162089Y0225970D01*
X0155950Y0225970D02*
X0155950Y0225353D01*
X0155950Y0224119D02*
X0155950Y0221650D01*
X0155333Y0221650D02*
X0156568Y0221650D01*
X0154119Y0222267D02*
X0154119Y0224736D01*
X0153502Y0225353D01*
X0151650Y0225353D01*
X0151650Y0221650D01*
X0153502Y0221650D01*
X0154119Y0222267D01*
X0155333Y0224119D02*
X0155950Y0224119D01*
X0159023Y0220416D02*
X0159640Y0220416D01*
X0160257Y0221033D01*
X0170066Y0225353D02*
X0170683Y0225353D01*
X0136985Y0225353D02*
X0136985Y0221650D01*
X0135133Y0221650D01*
X0134516Y0222267D01*
X0134516Y0223502D01*
X0135133Y0224119D01*
X0136985Y0224119D01*
X0133302Y0223502D02*
X0133302Y0221650D01*
X0133302Y0223502D02*
X0132685Y0224119D01*
X0130833Y0224119D01*
X0130833Y0221650D01*
X0129619Y0221650D02*
X0127767Y0221650D01*
X0127150Y0222267D01*
X0127150Y0223502D01*
X0127767Y0224119D01*
X0129619Y0224119D01*
X0129619Y0221033D01*
X0129002Y0220416D01*
X0128384Y0220416D01*
X0123817Y0221650D02*
X0123817Y0224736D01*
X0124434Y0225353D01*
X0124434Y0223502D02*
X0123199Y0223502D01*
X0121985Y0223502D02*
X0121985Y0222884D01*
X0119516Y0222884D01*
X0119516Y0222267D02*
X0119516Y0223502D01*
X0120133Y0224119D01*
X0121368Y0224119D01*
X0121985Y0223502D01*
X0121368Y0221650D02*
X0120133Y0221650D01*
X0119516Y0222267D01*
X0118302Y0221650D02*
X0117068Y0222884D01*
X0117685Y0222884D02*
X0115833Y0222884D01*
X0115833Y0221650D02*
X0115833Y0225353D01*
X0117685Y0225353D01*
X0118302Y0224736D01*
X0118302Y0223502D01*
X0117685Y0222884D01*
X0114619Y0223502D02*
X0112150Y0223502D01*
X0112150Y0224119D02*
X0112150Y0221650D01*
X0112150Y0224119D02*
X0113384Y0225353D01*
X0114619Y0224119D01*
X0114619Y0221650D01*
X0112380Y0211353D02*
X0113614Y0210119D01*
X0112380Y0211353D02*
X0111145Y0210119D01*
X0181448Y0161048D02*
X0182899Y0159597D01*
X0182899Y0161531D01*
X0184350Y0161048D02*
X0181448Y0161048D01*
X0181931Y0158585D02*
X0182899Y0158585D01*
X0183383Y0158101D01*
X0183383Y0156650D01*
X0184350Y0156650D02*
X0181448Y0156650D01*
X0181448Y0158101D01*
X0181931Y0158585D01*
X0183383Y0157617D02*
X0184350Y0158585D01*
X0216448Y0158101D02*
X0216448Y0156650D01*
X0219350Y0156650D01*
X0218383Y0156650D02*
X0218383Y0158101D01*
X0217899Y0158585D01*
X0216931Y0158585D01*
X0216448Y0158101D01*
X0216931Y0159597D02*
X0216448Y0160080D01*
X0216448Y0161048D01*
X0216931Y0161531D01*
X0217415Y0161531D01*
X0217899Y0161048D01*
X0218383Y0161531D01*
X0218866Y0161531D01*
X0219350Y0161048D01*
X0219350Y0160080D01*
X0218866Y0159597D01*
X0219350Y0158585D02*
X0218383Y0157617D01*
X0217899Y0160564D02*
X0217899Y0161048D01*
X0251448Y0161048D02*
X0251448Y0160080D01*
X0251931Y0159597D01*
X0251931Y0158585D02*
X0252899Y0158585D01*
X0253383Y0158101D01*
X0253383Y0156650D01*
X0254350Y0156650D02*
X0251448Y0156650D01*
X0251448Y0158101D01*
X0251931Y0158585D01*
X0253383Y0157617D02*
X0254350Y0158585D01*
X0254350Y0159597D02*
X0252415Y0161531D01*
X0251931Y0161531D01*
X0251448Y0161048D01*
X0254350Y0161531D02*
X0254350Y0159597D01*
X0289350Y0134031D02*
X0289350Y0132097D01*
X0289350Y0133064D02*
X0286448Y0133064D01*
X0287415Y0132097D01*
X0286931Y0131085D02*
X0287899Y0131085D01*
X0288383Y0130601D01*
X0288383Y0129150D01*
X0289350Y0129150D02*
X0286448Y0129150D01*
X0286448Y0130601D01*
X0286931Y0131085D01*
X0288383Y0130117D02*
X0289350Y0131085D01*
X0344650Y0127052D02*
X0344650Y0124150D01*
X0344650Y0125117D02*
X0346101Y0125117D01*
X0346585Y0125601D01*
X0346585Y0126569D01*
X0346101Y0127052D01*
X0344650Y0127052D01*
X0345617Y0125117D02*
X0346585Y0124150D01*
X0347597Y0124634D02*
X0347597Y0125117D01*
X0348080Y0125601D01*
X0349048Y0125601D01*
X0349531Y0125117D01*
X0349531Y0124634D01*
X0349048Y0124150D01*
X0348080Y0124150D01*
X0347597Y0124634D01*
X0348080Y0125601D02*
X0347597Y0126085D01*
X0347597Y0126569D01*
X0348080Y0127052D01*
X0349048Y0127052D01*
X0349531Y0126569D01*
X0349531Y0126085D01*
X0349048Y0125601D01*
X0349531Y0112052D02*
X0349531Y0111569D01*
X0347597Y0109634D01*
X0347597Y0109150D01*
X0346585Y0109150D02*
X0345617Y0110117D01*
X0346101Y0110117D02*
X0344650Y0110117D01*
X0344650Y0109150D02*
X0344650Y0112052D01*
X0346101Y0112052D01*
X0346585Y0111569D01*
X0346585Y0110601D01*
X0346101Y0110117D01*
X0347597Y0112052D02*
X0349531Y0112052D01*
X0349531Y0097052D02*
X0348564Y0096569D01*
X0347597Y0095601D01*
X0349048Y0095601D01*
X0349531Y0095117D01*
X0349531Y0094634D01*
X0349048Y0094150D01*
X0348080Y0094150D01*
X0347597Y0094634D01*
X0347597Y0095601D01*
X0346585Y0095601D02*
X0346101Y0095117D01*
X0344650Y0095117D01*
X0344650Y0094150D02*
X0344650Y0097052D01*
X0346101Y0097052D01*
X0346585Y0096569D01*
X0346585Y0095601D01*
X0345617Y0095117D02*
X0346585Y0094150D01*
X0346101Y0082052D02*
X0346585Y0081569D01*
X0346585Y0080601D01*
X0346101Y0080117D01*
X0344650Y0080117D01*
X0344650Y0079150D02*
X0344650Y0082052D01*
X0346101Y0082052D01*
X0347597Y0082052D02*
X0347597Y0080601D01*
X0348564Y0081085D01*
X0349048Y0081085D01*
X0349531Y0080601D01*
X0349531Y0079634D01*
X0349048Y0079150D01*
X0348080Y0079150D01*
X0347597Y0079634D01*
X0346585Y0079150D02*
X0345617Y0080117D01*
X0347597Y0082052D02*
X0349531Y0082052D01*
X0402530Y0085950D02*
X0403147Y0085950D01*
X0404381Y0085950D02*
X0406850Y0085950D01*
X0406850Y0085333D02*
X0406850Y0086568D01*
X0406233Y0087789D02*
X0404998Y0087789D01*
X0404381Y0088406D01*
X0404381Y0090257D01*
X0403147Y0091472D02*
X0406850Y0091472D01*
X0406850Y0090257D02*
X0406850Y0088406D01*
X0406233Y0087789D01*
X0404381Y0085950D02*
X0404381Y0085333D01*
X0406850Y0084119D02*
X0406850Y0081650D01*
X0403147Y0081650D01*
X0405616Y0091472D02*
X0404381Y0093323D01*
X0405616Y0091472D02*
X0406850Y0093323D01*
X0406850Y0111650D02*
X0403147Y0111650D01*
X0406850Y0111650D02*
X0406850Y0114119D01*
X0406850Y0115333D02*
X0406850Y0116568D01*
X0406850Y0115950D02*
X0404381Y0115950D01*
X0404381Y0115333D01*
X0403147Y0115950D02*
X0402530Y0115950D01*
X0404381Y0118406D02*
X0404998Y0117789D01*
X0406233Y0117789D01*
X0406850Y0118406D01*
X0406850Y0120257D01*
X0407467Y0120257D02*
X0404381Y0120257D01*
X0404381Y0118406D01*
X0404998Y0121472D02*
X0404381Y0122089D01*
X0404381Y0123323D01*
X0404998Y0123940D01*
X0406850Y0123940D01*
X0406233Y0125772D02*
X0406850Y0126389D01*
X0406233Y0125772D02*
X0403764Y0125772D01*
X0404381Y0125155D02*
X0404381Y0126389D01*
X0403147Y0121472D02*
X0406850Y0121472D01*
X0407467Y0120257D02*
X0408084Y0119640D01*
X0408084Y0119023D01*
X0403147Y0139150D02*
X0403147Y0141619D01*
X0403147Y0140384D02*
X0406850Y0140384D01*
X0406233Y0142833D02*
X0405616Y0143450D01*
X0405616Y0145302D01*
X0404998Y0145302D02*
X0406850Y0145302D01*
X0406850Y0143450D01*
X0406233Y0142833D01*
X0404381Y0143450D02*
X0404381Y0144685D01*
X0404998Y0145302D01*
X0404998Y0146516D02*
X0404381Y0147133D01*
X0404381Y0148985D01*
X0404381Y0150199D02*
X0404381Y0151434D01*
X0403764Y0150817D02*
X0406233Y0150817D01*
X0406850Y0151434D01*
X0406850Y0152655D02*
X0404381Y0155124D01*
X0403764Y0155124D01*
X0403147Y0154506D01*
X0403147Y0153272D01*
X0403764Y0152655D01*
X0406850Y0152655D02*
X0406850Y0155124D01*
X0406233Y0148985D02*
X0405616Y0148368D01*
X0405616Y0147133D01*
X0404998Y0146516D01*
X0406850Y0146516D02*
X0406850Y0148368D01*
X0406233Y0148985D01*
X0403147Y0169150D02*
X0403147Y0171619D01*
X0403147Y0170384D02*
X0406850Y0170384D01*
X0406233Y0172833D02*
X0405616Y0173450D01*
X0405616Y0175302D01*
X0404998Y0175302D02*
X0406850Y0175302D01*
X0406850Y0173450D01*
X0406233Y0172833D01*
X0404381Y0173450D02*
X0404381Y0174685D01*
X0404998Y0175302D01*
X0404998Y0176516D02*
X0404381Y0177133D01*
X0404381Y0178985D01*
X0404381Y0180199D02*
X0404381Y0181434D01*
X0403764Y0180817D02*
X0406233Y0180817D01*
X0406850Y0181434D01*
X0406850Y0182655D02*
X0406850Y0185124D01*
X0406850Y0183889D02*
X0403147Y0183889D01*
X0404381Y0182655D01*
X0406233Y0178985D02*
X0405616Y0178368D01*
X0405616Y0177133D01*
X0404998Y0176516D01*
X0406850Y0176516D02*
X0406850Y0178368D01*
X0406233Y0178985D01*
X0349531Y0141569D02*
X0349048Y0142052D01*
X0348080Y0142052D01*
X0347597Y0141569D01*
X0347597Y0141085D01*
X0348080Y0140601D01*
X0349531Y0140601D01*
X0349531Y0139634D02*
X0349531Y0141569D01*
X0349531Y0139634D02*
X0349048Y0139150D01*
X0348080Y0139150D01*
X0347597Y0139634D01*
X0346585Y0139150D02*
X0345617Y0140117D01*
X0346101Y0140117D02*
X0344650Y0140117D01*
X0344650Y0139150D02*
X0344650Y0142052D01*
X0346101Y0142052D01*
X0346585Y0141569D01*
X0346585Y0140601D01*
X0346101Y0140117D01*
X0256280Y0057052D02*
X0254829Y0055601D01*
X0256764Y0055601D01*
X0256280Y0054150D02*
X0256280Y0057052D01*
X0253818Y0055601D02*
X0253818Y0054150D01*
X0253818Y0055601D02*
X0253334Y0056085D01*
X0251883Y0056085D01*
X0251883Y0054150D01*
X0250871Y0054150D02*
X0250871Y0056085D01*
X0249904Y0057052D01*
X0248936Y0056085D01*
X0248936Y0054150D01*
X0248936Y0055601D02*
X0250871Y0055601D01*
X0244978Y0056085D02*
X0244978Y0056569D01*
X0244494Y0057052D01*
X0243527Y0057052D01*
X0243043Y0056569D01*
X0242031Y0055601D02*
X0242031Y0054150D01*
X0243043Y0054150D02*
X0244978Y0056085D01*
X0244978Y0054150D02*
X0243043Y0054150D01*
X0242031Y0055601D02*
X0241548Y0056085D01*
X0240097Y0056085D01*
X0240097Y0054150D01*
X0239085Y0054150D02*
X0239085Y0056085D01*
X0238117Y0057052D01*
X0237150Y0056085D01*
X0237150Y0054150D01*
X0237150Y0055601D02*
X0239085Y0055601D01*
X0236884Y0035353D02*
X0236884Y0031650D01*
X0235650Y0031650D02*
X0238119Y0031650D01*
X0235650Y0034119D02*
X0236884Y0035353D01*
X0228119Y0034736D02*
X0228119Y0032267D01*
X0227502Y0031650D01*
X0226267Y0031650D01*
X0225650Y0032267D01*
X0228119Y0034736D01*
X0227502Y0035353D01*
X0226267Y0035353D01*
X0225650Y0034736D01*
X0225650Y0032267D01*
X0212077Y0031650D02*
X0212077Y0033502D01*
X0211460Y0034119D01*
X0209609Y0034119D01*
X0209609Y0031650D01*
X0208388Y0031650D02*
X0207153Y0031650D01*
X0207770Y0031650D02*
X0207770Y0034119D01*
X0207153Y0034119D01*
X0207770Y0035353D02*
X0207770Y0035970D01*
X0205939Y0035353D02*
X0205939Y0032884D01*
X0204704Y0031650D01*
X0203470Y0032884D01*
X0203470Y0035353D01*
X0197525Y0035353D02*
X0197525Y0031650D01*
X0195673Y0031650D01*
X0195056Y0032267D01*
X0195056Y0033502D01*
X0195673Y0034119D01*
X0197525Y0034119D01*
X0193842Y0033502D02*
X0193842Y0031650D01*
X0193842Y0033502D02*
X0193224Y0034119D01*
X0191373Y0034119D01*
X0191373Y0031650D01*
X0190159Y0032267D02*
X0190159Y0033502D01*
X0188924Y0033502D01*
X0187690Y0034736D02*
X0187690Y0032267D01*
X0188307Y0031650D01*
X0189541Y0031650D01*
X0190159Y0032267D01*
X0190159Y0034736D02*
X0189541Y0035353D01*
X0188307Y0035353D01*
X0187690Y0034736D01*
X0181122Y0034119D02*
X0179888Y0031650D01*
X0178653Y0034119D01*
X0177439Y0033502D02*
X0176822Y0034119D01*
X0176204Y0034119D01*
X0174970Y0033502D01*
X0174970Y0035353D01*
X0177439Y0035353D01*
X0177439Y0033502D02*
X0177439Y0032267D01*
X0176822Y0031650D01*
X0175587Y0031650D01*
X0174970Y0032267D01*
X0170122Y0034119D02*
X0168888Y0031650D01*
X0167653Y0034119D01*
X0166439Y0034119D02*
X0165822Y0033502D01*
X0166439Y0032884D01*
X0166439Y0032267D01*
X0165822Y0031650D01*
X0164587Y0031650D01*
X0163970Y0032267D01*
X0165204Y0033502D02*
X0165822Y0033502D01*
X0166439Y0034119D02*
X0166439Y0034736D01*
X0165822Y0035353D01*
X0164587Y0035353D01*
X0163970Y0034736D01*
X0159945Y0035353D02*
X0157477Y0035353D01*
X0158711Y0035353D02*
X0158711Y0031650D01*
X0156262Y0032267D02*
X0155645Y0031650D01*
X0154411Y0031650D01*
X0153793Y0032267D01*
X0152579Y0031650D02*
X0151345Y0032884D01*
X0151962Y0032884D02*
X0150110Y0032884D01*
X0150110Y0031650D02*
X0150110Y0035353D01*
X0151962Y0035353D01*
X0152579Y0034736D01*
X0152579Y0033502D01*
X0151962Y0032884D01*
X0153793Y0034119D02*
X0154411Y0033502D01*
X0155645Y0033502D01*
X0156262Y0032884D01*
X0156262Y0032267D01*
X0156262Y0034736D02*
X0155645Y0035353D01*
X0154411Y0035353D01*
X0153793Y0034736D01*
X0153793Y0034119D01*
X0182150Y0057134D02*
X0182634Y0056650D01*
X0183601Y0056650D01*
X0184085Y0057134D01*
X0184085Y0058101D01*
X0183117Y0058101D01*
X0182150Y0057134D02*
X0182150Y0059069D01*
X0182634Y0059552D01*
X0183601Y0059552D01*
X0184085Y0059069D01*
X0185097Y0058585D02*
X0185097Y0056650D01*
X0187031Y0056650D02*
X0187031Y0058101D01*
X0186548Y0058585D01*
X0185097Y0058585D01*
X0188043Y0058101D02*
X0188527Y0058585D01*
X0189978Y0058585D01*
X0189978Y0059552D02*
X0189978Y0056650D01*
X0188527Y0056650D01*
X0188043Y0057134D01*
X0188043Y0058101D01*
X0134602Y0064150D02*
X0133368Y0064150D01*
X0133985Y0064150D02*
X0133985Y0067853D01*
X0133368Y0067853D01*
X0131536Y0066619D02*
X0132153Y0066002D01*
X0132153Y0064150D01*
X0130302Y0064150D01*
X0129684Y0064767D01*
X0130302Y0065384D01*
X0132153Y0065384D01*
X0131536Y0066619D02*
X0130302Y0066619D01*
X0128470Y0066002D02*
X0128470Y0064150D01*
X0128470Y0066002D02*
X0127853Y0066619D01*
X0126001Y0066619D01*
X0126001Y0064150D01*
X0124787Y0064150D02*
X0122935Y0064150D01*
X0122318Y0064767D01*
X0122318Y0066002D01*
X0122935Y0066619D01*
X0124787Y0066619D01*
X0124787Y0063533D01*
X0124170Y0062916D01*
X0123553Y0062916D01*
X0121097Y0064150D02*
X0119863Y0064150D01*
X0120480Y0064150D02*
X0120480Y0066619D01*
X0119863Y0066619D01*
X0118648Y0067236D02*
X0118031Y0067853D01*
X0116797Y0067853D01*
X0116180Y0067236D01*
X0116180Y0066619D01*
X0116797Y0066002D01*
X0118031Y0066002D01*
X0118648Y0065384D01*
X0118648Y0064767D01*
X0118031Y0064150D01*
X0116797Y0064150D01*
X0116180Y0064767D01*
X0111275Y0064150D02*
X0110041Y0064150D01*
X0110658Y0064150D02*
X0110658Y0067853D01*
X0110041Y0067853D01*
X0108209Y0066619D02*
X0108827Y0066002D01*
X0108827Y0064150D01*
X0106975Y0064150D01*
X0106358Y0064767D01*
X0106975Y0065384D01*
X0108827Y0065384D01*
X0108209Y0066619D02*
X0106975Y0066619D01*
X0104520Y0066619D02*
X0104520Y0064150D01*
X0105137Y0064150D02*
X0103902Y0064150D01*
X0103902Y0066619D02*
X0104520Y0066619D01*
X0104520Y0067853D02*
X0104520Y0068470D01*
X0102685Y0066619D02*
X0102068Y0066619D01*
X0100833Y0065384D01*
X0100833Y0064150D02*
X0100833Y0066619D01*
X0099619Y0067853D02*
X0097150Y0067853D01*
X0098384Y0067853D02*
X0098384Y0064150D01*
X0120480Y0067853D02*
X0120480Y0068470D01*
X0240190Y0020939D02*
X0240190Y0018470D01*
X0240190Y0020322D02*
X0242659Y0020322D01*
X0242659Y0020939D02*
X0242659Y0018470D01*
X0243873Y0018470D02*
X0243873Y0020939D01*
X0245724Y0020939D01*
X0246342Y0020322D01*
X0246342Y0018470D01*
X0247556Y0019087D02*
X0248173Y0019704D01*
X0250025Y0019704D01*
X0250025Y0020322D02*
X0250025Y0018470D01*
X0248173Y0018470D01*
X0247556Y0019087D01*
X0248173Y0020939D02*
X0249408Y0020939D01*
X0250025Y0020322D01*
X0251239Y0022173D02*
X0251856Y0022173D01*
X0251856Y0018470D01*
X0251239Y0018470D02*
X0252474Y0018470D01*
X0253695Y0019087D02*
X0254312Y0018470D01*
X0255546Y0018470D01*
X0256163Y0019087D01*
X0256163Y0020322D01*
X0255546Y0020939D01*
X0254312Y0020939D01*
X0253695Y0020322D01*
X0253695Y0019087D01*
X0257378Y0019087D02*
X0257378Y0020322D01*
X0257995Y0020939D01*
X0259847Y0020939D01*
X0259847Y0017853D01*
X0259229Y0017236D01*
X0258612Y0017236D01*
X0257995Y0018470D02*
X0259847Y0018470D01*
X0257995Y0018470D02*
X0257378Y0019087D01*
X0264744Y0018470D02*
X0265978Y0018470D01*
X0265361Y0018470D02*
X0265361Y0022173D01*
X0264744Y0022173D02*
X0265978Y0022173D01*
X0267199Y0020939D02*
X0269051Y0020939D01*
X0269668Y0020322D01*
X0269668Y0018470D01*
X0267199Y0018470D02*
X0267199Y0020939D01*
X0267502Y0031650D02*
X0267502Y0035353D01*
X0265650Y0033502D01*
X0268119Y0033502D01*
X0275650Y0033502D02*
X0275650Y0035353D01*
X0278119Y0035353D01*
X0277502Y0034119D02*
X0278119Y0033502D01*
X0278119Y0032267D01*
X0277502Y0031650D01*
X0276267Y0031650D01*
X0275650Y0032267D01*
X0275650Y0033502D02*
X0276884Y0034119D01*
X0277502Y0034119D01*
X0258119Y0034119D02*
X0257502Y0033502D01*
X0258119Y0032884D01*
X0258119Y0032267D01*
X0257502Y0031650D01*
X0256267Y0031650D01*
X0255650Y0032267D01*
X0256884Y0033502D02*
X0257502Y0033502D01*
X0258119Y0034119D02*
X0258119Y0034736D01*
X0257502Y0035353D01*
X0256267Y0035353D01*
X0255650Y0034736D01*
X0248119Y0034736D02*
X0247502Y0035353D01*
X0246267Y0035353D01*
X0245650Y0034736D01*
X0248119Y0034736D02*
X0248119Y0034119D01*
X0245650Y0031650D01*
X0248119Y0031650D01*
X0241424Y0022173D02*
X0242659Y0020939D01*
X0241424Y0022173D02*
X0240190Y0020939D01*
X0407530Y0027089D02*
X0408147Y0027089D01*
X0409381Y0027089D02*
X0411850Y0027089D01*
X0411850Y0026472D02*
X0411850Y0027706D01*
X0411850Y0028927D02*
X0411850Y0030779D01*
X0411233Y0031396D01*
X0409998Y0031396D01*
X0409381Y0030779D01*
X0409381Y0028927D01*
X0408147Y0028927D02*
X0411850Y0028927D01*
X0409381Y0027089D02*
X0409381Y0026472D01*
X0408147Y0024633D02*
X0411850Y0024633D01*
X0411850Y0024016D02*
X0411850Y0025251D01*
X0411850Y0022802D02*
X0409998Y0022802D01*
X0409381Y0022185D01*
X0409381Y0020950D01*
X0410616Y0020950D02*
X0410616Y0022802D01*
X0411850Y0022802D02*
X0411850Y0020950D01*
X0411233Y0020333D01*
X0410616Y0020950D01*
X0411233Y0019119D02*
X0411850Y0018502D01*
X0411850Y0017267D01*
X0411233Y0016650D01*
X0408764Y0016650D01*
X0408147Y0017267D01*
X0408147Y0018502D01*
X0408764Y0019119D01*
X0408147Y0024016D02*
X0408147Y0024633D01*
X0409381Y0032610D02*
X0411850Y0032610D01*
X0410616Y0032610D02*
X0409381Y0033845D01*
X0409381Y0034462D01*
X0409381Y0036297D02*
X0409381Y0037531D01*
X0409998Y0038148D01*
X0411850Y0038148D01*
X0411850Y0036297D01*
X0411233Y0035680D01*
X0410616Y0036297D01*
X0410616Y0038148D01*
X0409381Y0039363D02*
X0409381Y0040597D01*
X0408764Y0039980D02*
X0411233Y0039980D01*
X0411850Y0040597D01*
X0411850Y0041818D02*
X0411850Y0043053D01*
X0411850Y0042435D02*
X0409381Y0042435D01*
X0409381Y0041818D01*
X0408147Y0042435D02*
X0407530Y0042435D01*
X0409381Y0044891D02*
X0409998Y0044274D01*
X0411233Y0044274D01*
X0411850Y0044891D01*
X0411850Y0046125D01*
X0411233Y0046742D01*
X0409998Y0046742D01*
X0409381Y0046125D01*
X0409381Y0044891D01*
X0409381Y0047957D02*
X0409381Y0049808D01*
X0409998Y0050425D01*
X0411850Y0050425D01*
X0411850Y0047957D02*
X0409381Y0047957D01*
X0137147Y0146650D02*
X0135912Y0146650D01*
X0136529Y0146650D02*
X0136529Y0150353D01*
X0135912Y0150353D01*
X0134081Y0149119D02*
X0134698Y0148502D01*
X0134698Y0146650D01*
X0132846Y0146650D01*
X0132229Y0147267D01*
X0132846Y0147884D01*
X0134698Y0147884D01*
X0134081Y0149119D02*
X0132846Y0149119D01*
X0131015Y0148502D02*
X0131015Y0146650D01*
X0131015Y0148502D02*
X0130397Y0149119D01*
X0128546Y0149119D01*
X0128546Y0146650D01*
X0127331Y0146650D02*
X0125480Y0146650D01*
X0124863Y0147267D01*
X0124863Y0148502D01*
X0125480Y0149119D01*
X0127331Y0149119D01*
X0127331Y0146033D01*
X0126714Y0145416D01*
X0126097Y0145416D01*
X0123642Y0146650D02*
X0122407Y0146650D01*
X0123024Y0146650D02*
X0123024Y0149119D01*
X0122407Y0149119D01*
X0121193Y0149736D02*
X0120576Y0150353D01*
X0119341Y0150353D01*
X0118724Y0149736D01*
X0118724Y0149119D01*
X0119341Y0148502D01*
X0120576Y0148502D01*
X0121193Y0147884D01*
X0121193Y0147267D01*
X0120576Y0146650D01*
X0119341Y0146650D01*
X0118724Y0147267D01*
X0113823Y0146650D02*
X0111972Y0147884D01*
X0113823Y0149119D01*
X0111972Y0150353D02*
X0111972Y0146650D01*
X0110757Y0146650D02*
X0108906Y0146650D01*
X0108289Y0147267D01*
X0108289Y0148502D01*
X0108906Y0149119D01*
X0110757Y0149119D01*
X0106450Y0149119D02*
X0106450Y0146650D01*
X0105833Y0146650D02*
X0107068Y0146650D01*
X0104619Y0146650D02*
X0102150Y0146650D01*
X0102150Y0150353D01*
X0105833Y0149119D02*
X0106450Y0149119D01*
X0106450Y0150353D02*
X0106450Y0150970D01*
X0123024Y0150970D02*
X0123024Y0150353D01*
X0339650Y0234150D02*
X0339650Y0237853D01*
X0342119Y0234150D01*
X0342119Y0237853D01*
X0343950Y0236619D02*
X0345185Y0236619D01*
X0345802Y0236002D01*
X0345802Y0234150D01*
X0343950Y0234150D01*
X0343333Y0234767D01*
X0343950Y0235384D01*
X0345802Y0235384D01*
X0347016Y0236619D02*
X0348251Y0236619D01*
X0347633Y0237236D02*
X0347633Y0234767D01*
X0348251Y0234150D01*
X0349472Y0234150D02*
X0349472Y0237853D01*
X0350089Y0236619D02*
X0351323Y0236619D01*
X0351940Y0236002D01*
X0351940Y0234150D01*
X0353155Y0234767D02*
X0353772Y0235384D01*
X0355624Y0235384D01*
X0355624Y0236002D02*
X0355624Y0234150D01*
X0353772Y0234150D01*
X0353155Y0234767D01*
X0353772Y0236619D02*
X0355006Y0236619D01*
X0355624Y0236002D01*
X0356838Y0236619D02*
X0356838Y0234150D01*
X0359307Y0234150D02*
X0359307Y0236002D01*
X0358690Y0236619D01*
X0356838Y0236619D01*
X0350089Y0236619D02*
X0349472Y0236002D01*
X0364204Y0235384D02*
X0365439Y0234150D01*
X0366673Y0235384D01*
X0366673Y0237853D01*
X0367887Y0236002D02*
X0370356Y0236002D01*
X0371571Y0237236D02*
X0371571Y0234767D01*
X0372188Y0234150D01*
X0373422Y0234150D01*
X0374039Y0234767D01*
X0374039Y0237236D02*
X0373422Y0237853D01*
X0372188Y0237853D01*
X0371571Y0237236D01*
X0364204Y0237853D02*
X0364204Y0235384D01*
X0378937Y0234150D02*
X0381406Y0236619D01*
X0381406Y0237236D01*
X0380788Y0237853D01*
X0379554Y0237853D01*
X0378937Y0237236D01*
X0378937Y0234150D02*
X0381406Y0234150D01*
X0382620Y0234767D02*
X0385089Y0237236D01*
X0385089Y0234767D01*
X0384472Y0234150D01*
X0383237Y0234150D01*
X0382620Y0234767D01*
X0382620Y0237236D01*
X0383237Y0237853D01*
X0384472Y0237853D01*
X0385089Y0237236D01*
X0386303Y0236619D02*
X0387538Y0237853D01*
X0387538Y0234150D01*
X0388772Y0234150D02*
X0386303Y0234150D01*
X0389986Y0234767D02*
X0390603Y0234150D01*
X0391838Y0234150D01*
X0392455Y0234767D01*
X0392455Y0236002D01*
X0391838Y0236619D01*
X0391221Y0236619D01*
X0389986Y0236002D01*
X0389986Y0237853D01*
X0392455Y0237853D01*
X0393669Y0236002D02*
X0396138Y0236002D01*
X0397353Y0237236D02*
X0397970Y0237853D01*
X0399204Y0237853D01*
X0399821Y0237236D01*
X0399821Y0236619D01*
X0397353Y0234150D01*
X0399821Y0234150D01*
X0401036Y0234767D02*
X0403505Y0237236D01*
X0403505Y0234767D01*
X0402887Y0234150D01*
X0401653Y0234150D01*
X0401036Y0234767D01*
X0401036Y0237236D01*
X0401653Y0237853D01*
X0402887Y0237853D01*
X0403505Y0237236D01*
X0404719Y0236619D02*
X0405953Y0237853D01*
X0405953Y0234150D01*
X0404719Y0234150D02*
X0407188Y0234150D01*
X0408402Y0234767D02*
X0409019Y0234150D01*
X0410254Y0234150D01*
X0410871Y0234767D01*
X0410871Y0235384D01*
X0410254Y0236002D01*
X0408402Y0236002D01*
X0408402Y0234767D01*
X0408402Y0236002D02*
X0409636Y0237236D01*
X0410871Y0237853D01*
D12*
X0417000Y0241500D02*
X0417000Y0001500D01*
X0077000Y0001500D01*
X0077000Y0241500D01*
X0417000Y0241500D01*
X0377000Y0184000D02*
X0377187Y0184243D01*
X0377379Y0184481D01*
X0377578Y0184714D01*
X0377782Y0184942D01*
X0377991Y0185165D01*
X0378206Y0185383D01*
X0378426Y0185596D01*
X0378651Y0185803D01*
X0378882Y0186005D01*
X0379117Y0186201D01*
X0379357Y0186391D01*
X0379601Y0186575D01*
X0379850Y0186753D01*
X0380104Y0186925D01*
X0380361Y0187091D01*
X0380622Y0187251D01*
X0380887Y0187404D01*
X0381156Y0187550D01*
X0381429Y0187690D01*
X0381704Y0187823D01*
X0381983Y0187949D01*
X0382265Y0188069D01*
X0382550Y0188181D01*
X0382837Y0188286D01*
X0383127Y0188385D01*
X0383419Y0188476D01*
X0383714Y0188560D01*
X0384010Y0188637D01*
X0384308Y0188707D01*
X0384608Y0188769D01*
X0384909Y0188824D01*
X0385211Y0188871D01*
X0385515Y0188911D01*
X0385819Y0188944D01*
X0386124Y0188969D01*
X0386430Y0188987D01*
X0386736Y0188997D01*
X0387042Y0189000D01*
X0387348Y0188995D01*
X0387654Y0188983D01*
X0387960Y0188963D01*
X0388264Y0188936D01*
X0388569Y0188901D01*
X0388872Y0188859D01*
X0389174Y0188810D01*
X0389475Y0188753D01*
X0389774Y0188688D01*
X0390072Y0188617D01*
X0390367Y0188538D01*
X0390661Y0188452D01*
X0390953Y0188359D01*
X0391242Y0188258D01*
X0391529Y0188151D01*
X0391813Y0188036D01*
X0392094Y0187915D01*
X0392372Y0187787D01*
X0392647Y0187652D01*
X0392918Y0187510D01*
X0393186Y0187362D01*
X0393450Y0187207D01*
X0393710Y0187046D01*
X0393966Y0186879D01*
X0394219Y0186705D01*
X0394466Y0186525D01*
X0394710Y0186339D01*
X0394948Y0186148D01*
X0395182Y0185950D01*
X0395411Y0185747D01*
X0395635Y0185538D01*
X0395854Y0185324D01*
X0396067Y0185104D01*
X0396275Y0184880D01*
X0396478Y0184650D01*
X0396674Y0184416D01*
X0396865Y0184176D01*
X0397050Y0183933D01*
X0397229Y0183684D01*
X0397402Y0183432D01*
X0397569Y0183175D01*
X0397729Y0182914D01*
X0397883Y0182649D01*
X0398030Y0182381D01*
X0398171Y0182109D01*
X0398305Y0181834D01*
X0398432Y0181555D01*
X0398553Y0181274D01*
X0398666Y0180989D01*
X0398772Y0180702D01*
X0398872Y0180413D01*
X0398964Y0180121D01*
X0399049Y0179827D01*
X0399127Y0179531D01*
X0399198Y0179233D01*
X0399261Y0178933D01*
X0399317Y0178632D01*
X0399365Y0178330D01*
X0399406Y0178027D01*
X0399440Y0177723D01*
X0399466Y0177418D01*
X0399485Y0177112D01*
X0399496Y0176806D01*
X0399500Y0176500D01*
X0399496Y0176194D01*
X0399485Y0175888D01*
X0399466Y0175582D01*
X0399440Y0175277D01*
X0399406Y0174973D01*
X0399365Y0174670D01*
X0399317Y0174368D01*
X0399261Y0174067D01*
X0399198Y0173767D01*
X0399127Y0173469D01*
X0399049Y0173173D01*
X0398964Y0172879D01*
X0398872Y0172587D01*
X0398772Y0172298D01*
X0398666Y0172011D01*
X0398553Y0171726D01*
X0398432Y0171445D01*
X0398305Y0171166D01*
X0398171Y0170891D01*
X0398030Y0170619D01*
X0397883Y0170351D01*
X0397729Y0170086D01*
X0397569Y0169825D01*
X0397402Y0169568D01*
X0397229Y0169316D01*
X0397050Y0169067D01*
X0396865Y0168824D01*
X0396674Y0168584D01*
X0396478Y0168350D01*
X0396275Y0168120D01*
X0396067Y0167896D01*
X0395854Y0167676D01*
X0395635Y0167462D01*
X0395411Y0167253D01*
X0395182Y0167050D01*
X0394948Y0166852D01*
X0394710Y0166661D01*
X0394466Y0166475D01*
X0394219Y0166295D01*
X0393966Y0166121D01*
X0393710Y0165954D01*
X0393450Y0165793D01*
X0393186Y0165638D01*
X0392918Y0165490D01*
X0392647Y0165348D01*
X0392372Y0165213D01*
X0392094Y0165085D01*
X0391813Y0164964D01*
X0391529Y0164849D01*
X0391242Y0164742D01*
X0390953Y0164641D01*
X0390661Y0164548D01*
X0390367Y0164462D01*
X0390072Y0164383D01*
X0389774Y0164312D01*
X0389475Y0164247D01*
X0389174Y0164190D01*
X0388872Y0164141D01*
X0388569Y0164099D01*
X0388264Y0164064D01*
X0387960Y0164037D01*
X0387654Y0164017D01*
X0387348Y0164005D01*
X0387042Y0164000D01*
X0386736Y0164003D01*
X0386430Y0164013D01*
X0386124Y0164031D01*
X0385819Y0164056D01*
X0385515Y0164089D01*
X0385211Y0164129D01*
X0384909Y0164176D01*
X0384608Y0164231D01*
X0384308Y0164293D01*
X0384010Y0164363D01*
X0383714Y0164440D01*
X0383419Y0164524D01*
X0383127Y0164615D01*
X0382837Y0164714D01*
X0382550Y0164819D01*
X0382265Y0164931D01*
X0381983Y0165051D01*
X0381704Y0165177D01*
X0381429Y0165310D01*
X0381156Y0165450D01*
X0380887Y0165596D01*
X0380622Y0165749D01*
X0380361Y0165909D01*
X0380104Y0166075D01*
X0379850Y0166247D01*
X0379601Y0166425D01*
X0379357Y0166609D01*
X0379117Y0166799D01*
X0378882Y0166995D01*
X0378651Y0167197D01*
X0378426Y0167404D01*
X0378206Y0167617D01*
X0377991Y0167835D01*
X0377782Y0168058D01*
X0377578Y0168286D01*
X0377379Y0168519D01*
X0377187Y0168757D01*
X0377000Y0169000D01*
X0377000Y0154000D02*
X0377187Y0154243D01*
X0377379Y0154481D01*
X0377578Y0154714D01*
X0377782Y0154942D01*
X0377991Y0155165D01*
X0378206Y0155383D01*
X0378426Y0155596D01*
X0378651Y0155803D01*
X0378882Y0156005D01*
X0379117Y0156201D01*
X0379357Y0156391D01*
X0379601Y0156575D01*
X0379850Y0156753D01*
X0380104Y0156925D01*
X0380361Y0157091D01*
X0380622Y0157251D01*
X0380887Y0157404D01*
X0381156Y0157550D01*
X0381429Y0157690D01*
X0381704Y0157823D01*
X0381983Y0157949D01*
X0382265Y0158069D01*
X0382550Y0158181D01*
X0382837Y0158286D01*
X0383127Y0158385D01*
X0383419Y0158476D01*
X0383714Y0158560D01*
X0384010Y0158637D01*
X0384308Y0158707D01*
X0384608Y0158769D01*
X0384909Y0158824D01*
X0385211Y0158871D01*
X0385515Y0158911D01*
X0385819Y0158944D01*
X0386124Y0158969D01*
X0386430Y0158987D01*
X0386736Y0158997D01*
X0387042Y0159000D01*
X0387348Y0158995D01*
X0387654Y0158983D01*
X0387960Y0158963D01*
X0388264Y0158936D01*
X0388569Y0158901D01*
X0388872Y0158859D01*
X0389174Y0158810D01*
X0389475Y0158753D01*
X0389774Y0158688D01*
X0390072Y0158617D01*
X0390367Y0158538D01*
X0390661Y0158452D01*
X0390953Y0158359D01*
X0391242Y0158258D01*
X0391529Y0158151D01*
X0391813Y0158036D01*
X0392094Y0157915D01*
X0392372Y0157787D01*
X0392647Y0157652D01*
X0392918Y0157510D01*
X0393186Y0157362D01*
X0393450Y0157207D01*
X0393710Y0157046D01*
X0393966Y0156879D01*
X0394219Y0156705D01*
X0394466Y0156525D01*
X0394710Y0156339D01*
X0394948Y0156148D01*
X0395182Y0155950D01*
X0395411Y0155747D01*
X0395635Y0155538D01*
X0395854Y0155324D01*
X0396067Y0155104D01*
X0396275Y0154880D01*
X0396478Y0154650D01*
X0396674Y0154416D01*
X0396865Y0154176D01*
X0397050Y0153933D01*
X0397229Y0153684D01*
X0397402Y0153432D01*
X0397569Y0153175D01*
X0397729Y0152914D01*
X0397883Y0152649D01*
X0398030Y0152381D01*
X0398171Y0152109D01*
X0398305Y0151834D01*
X0398432Y0151555D01*
X0398553Y0151274D01*
X0398666Y0150989D01*
X0398772Y0150702D01*
X0398872Y0150413D01*
X0398964Y0150121D01*
X0399049Y0149827D01*
X0399127Y0149531D01*
X0399198Y0149233D01*
X0399261Y0148933D01*
X0399317Y0148632D01*
X0399365Y0148330D01*
X0399406Y0148027D01*
X0399440Y0147723D01*
X0399466Y0147418D01*
X0399485Y0147112D01*
X0399496Y0146806D01*
X0399500Y0146500D01*
X0399496Y0146194D01*
X0399485Y0145888D01*
X0399466Y0145582D01*
X0399440Y0145277D01*
X0399406Y0144973D01*
X0399365Y0144670D01*
X0399317Y0144368D01*
X0399261Y0144067D01*
X0399198Y0143767D01*
X0399127Y0143469D01*
X0399049Y0143173D01*
X0398964Y0142879D01*
X0398872Y0142587D01*
X0398772Y0142298D01*
X0398666Y0142011D01*
X0398553Y0141726D01*
X0398432Y0141445D01*
X0398305Y0141166D01*
X0398171Y0140891D01*
X0398030Y0140619D01*
X0397883Y0140351D01*
X0397729Y0140086D01*
X0397569Y0139825D01*
X0397402Y0139568D01*
X0397229Y0139316D01*
X0397050Y0139067D01*
X0396865Y0138824D01*
X0396674Y0138584D01*
X0396478Y0138350D01*
X0396275Y0138120D01*
X0396067Y0137896D01*
X0395854Y0137676D01*
X0395635Y0137462D01*
X0395411Y0137253D01*
X0395182Y0137050D01*
X0394948Y0136852D01*
X0394710Y0136661D01*
X0394466Y0136475D01*
X0394219Y0136295D01*
X0393966Y0136121D01*
X0393710Y0135954D01*
X0393450Y0135793D01*
X0393186Y0135638D01*
X0392918Y0135490D01*
X0392647Y0135348D01*
X0392372Y0135213D01*
X0392094Y0135085D01*
X0391813Y0134964D01*
X0391529Y0134849D01*
X0391242Y0134742D01*
X0390953Y0134641D01*
X0390661Y0134548D01*
X0390367Y0134462D01*
X0390072Y0134383D01*
X0389774Y0134312D01*
X0389475Y0134247D01*
X0389174Y0134190D01*
X0388872Y0134141D01*
X0388569Y0134099D01*
X0388264Y0134064D01*
X0387960Y0134037D01*
X0387654Y0134017D01*
X0387348Y0134005D01*
X0387042Y0134000D01*
X0386736Y0134003D01*
X0386430Y0134013D01*
X0386124Y0134031D01*
X0385819Y0134056D01*
X0385515Y0134089D01*
X0385211Y0134129D01*
X0384909Y0134176D01*
X0384608Y0134231D01*
X0384308Y0134293D01*
X0384010Y0134363D01*
X0383714Y0134440D01*
X0383419Y0134524D01*
X0383127Y0134615D01*
X0382837Y0134714D01*
X0382550Y0134819D01*
X0382265Y0134931D01*
X0381983Y0135051D01*
X0381704Y0135177D01*
X0381429Y0135310D01*
X0381156Y0135450D01*
X0380887Y0135596D01*
X0380622Y0135749D01*
X0380361Y0135909D01*
X0380104Y0136075D01*
X0379850Y0136247D01*
X0379601Y0136425D01*
X0379357Y0136609D01*
X0379117Y0136799D01*
X0378882Y0136995D01*
X0378651Y0137197D01*
X0378426Y0137404D01*
X0378206Y0137617D01*
X0377991Y0137835D01*
X0377782Y0138058D01*
X0377578Y0138286D01*
X0377379Y0138519D01*
X0377187Y0138757D01*
X0377000Y0139000D01*
X0377000Y0124000D02*
X0377187Y0124243D01*
X0377379Y0124481D01*
X0377578Y0124714D01*
X0377782Y0124942D01*
X0377991Y0125165D01*
X0378206Y0125383D01*
X0378426Y0125596D01*
X0378651Y0125803D01*
X0378882Y0126005D01*
X0379117Y0126201D01*
X0379357Y0126391D01*
X0379601Y0126575D01*
X0379850Y0126753D01*
X0380104Y0126925D01*
X0380361Y0127091D01*
X0380622Y0127251D01*
X0380887Y0127404D01*
X0381156Y0127550D01*
X0381429Y0127690D01*
X0381704Y0127823D01*
X0381983Y0127949D01*
X0382265Y0128069D01*
X0382550Y0128181D01*
X0382837Y0128286D01*
X0383127Y0128385D01*
X0383419Y0128476D01*
X0383714Y0128560D01*
X0384010Y0128637D01*
X0384308Y0128707D01*
X0384608Y0128769D01*
X0384909Y0128824D01*
X0385211Y0128871D01*
X0385515Y0128911D01*
X0385819Y0128944D01*
X0386124Y0128969D01*
X0386430Y0128987D01*
X0386736Y0128997D01*
X0387042Y0129000D01*
X0387348Y0128995D01*
X0387654Y0128983D01*
X0387960Y0128963D01*
X0388264Y0128936D01*
X0388569Y0128901D01*
X0388872Y0128859D01*
X0389174Y0128810D01*
X0389475Y0128753D01*
X0389774Y0128688D01*
X0390072Y0128617D01*
X0390367Y0128538D01*
X0390661Y0128452D01*
X0390953Y0128359D01*
X0391242Y0128258D01*
X0391529Y0128151D01*
X0391813Y0128036D01*
X0392094Y0127915D01*
X0392372Y0127787D01*
X0392647Y0127652D01*
X0392918Y0127510D01*
X0393186Y0127362D01*
X0393450Y0127207D01*
X0393710Y0127046D01*
X0393966Y0126879D01*
X0394219Y0126705D01*
X0394466Y0126525D01*
X0394710Y0126339D01*
X0394948Y0126148D01*
X0395182Y0125950D01*
X0395411Y0125747D01*
X0395635Y0125538D01*
X0395854Y0125324D01*
X0396067Y0125104D01*
X0396275Y0124880D01*
X0396478Y0124650D01*
X0396674Y0124416D01*
X0396865Y0124176D01*
X0397050Y0123933D01*
X0397229Y0123684D01*
X0397402Y0123432D01*
X0397569Y0123175D01*
X0397729Y0122914D01*
X0397883Y0122649D01*
X0398030Y0122381D01*
X0398171Y0122109D01*
X0398305Y0121834D01*
X0398432Y0121555D01*
X0398553Y0121274D01*
X0398666Y0120989D01*
X0398772Y0120702D01*
X0398872Y0120413D01*
X0398964Y0120121D01*
X0399049Y0119827D01*
X0399127Y0119531D01*
X0399198Y0119233D01*
X0399261Y0118933D01*
X0399317Y0118632D01*
X0399365Y0118330D01*
X0399406Y0118027D01*
X0399440Y0117723D01*
X0399466Y0117418D01*
X0399485Y0117112D01*
X0399496Y0116806D01*
X0399500Y0116500D01*
X0399496Y0116194D01*
X0399485Y0115888D01*
X0399466Y0115582D01*
X0399440Y0115277D01*
X0399406Y0114973D01*
X0399365Y0114670D01*
X0399317Y0114368D01*
X0399261Y0114067D01*
X0399198Y0113767D01*
X0399127Y0113469D01*
X0399049Y0113173D01*
X0398964Y0112879D01*
X0398872Y0112587D01*
X0398772Y0112298D01*
X0398666Y0112011D01*
X0398553Y0111726D01*
X0398432Y0111445D01*
X0398305Y0111166D01*
X0398171Y0110891D01*
X0398030Y0110619D01*
X0397883Y0110351D01*
X0397729Y0110086D01*
X0397569Y0109825D01*
X0397402Y0109568D01*
X0397229Y0109316D01*
X0397050Y0109067D01*
X0396865Y0108824D01*
X0396674Y0108584D01*
X0396478Y0108350D01*
X0396275Y0108120D01*
X0396067Y0107896D01*
X0395854Y0107676D01*
X0395635Y0107462D01*
X0395411Y0107253D01*
X0395182Y0107050D01*
X0394948Y0106852D01*
X0394710Y0106661D01*
X0394466Y0106475D01*
X0394219Y0106295D01*
X0393966Y0106121D01*
X0393710Y0105954D01*
X0393450Y0105793D01*
X0393186Y0105638D01*
X0392918Y0105490D01*
X0392647Y0105348D01*
X0392372Y0105213D01*
X0392094Y0105085D01*
X0391813Y0104964D01*
X0391529Y0104849D01*
X0391242Y0104742D01*
X0390953Y0104641D01*
X0390661Y0104548D01*
X0390367Y0104462D01*
X0390072Y0104383D01*
X0389774Y0104312D01*
X0389475Y0104247D01*
X0389174Y0104190D01*
X0388872Y0104141D01*
X0388569Y0104099D01*
X0388264Y0104064D01*
X0387960Y0104037D01*
X0387654Y0104017D01*
X0387348Y0104005D01*
X0387042Y0104000D01*
X0386736Y0104003D01*
X0386430Y0104013D01*
X0386124Y0104031D01*
X0385819Y0104056D01*
X0385515Y0104089D01*
X0385211Y0104129D01*
X0384909Y0104176D01*
X0384608Y0104231D01*
X0384308Y0104293D01*
X0384010Y0104363D01*
X0383714Y0104440D01*
X0383419Y0104524D01*
X0383127Y0104615D01*
X0382837Y0104714D01*
X0382550Y0104819D01*
X0382265Y0104931D01*
X0381983Y0105051D01*
X0381704Y0105177D01*
X0381429Y0105310D01*
X0381156Y0105450D01*
X0380887Y0105596D01*
X0380622Y0105749D01*
X0380361Y0105909D01*
X0380104Y0106075D01*
X0379850Y0106247D01*
X0379601Y0106425D01*
X0379357Y0106609D01*
X0379117Y0106799D01*
X0378882Y0106995D01*
X0378651Y0107197D01*
X0378426Y0107404D01*
X0378206Y0107617D01*
X0377991Y0107835D01*
X0377782Y0108058D01*
X0377578Y0108286D01*
X0377379Y0108519D01*
X0377187Y0108757D01*
X0377000Y0109000D01*
X0377000Y0094000D02*
X0377187Y0094243D01*
X0377379Y0094481D01*
X0377578Y0094714D01*
X0377782Y0094942D01*
X0377991Y0095165D01*
X0378206Y0095383D01*
X0378426Y0095596D01*
X0378651Y0095803D01*
X0378882Y0096005D01*
X0379117Y0096201D01*
X0379357Y0096391D01*
X0379601Y0096575D01*
X0379850Y0096753D01*
X0380104Y0096925D01*
X0380361Y0097091D01*
X0380622Y0097251D01*
X0380887Y0097404D01*
X0381156Y0097550D01*
X0381429Y0097690D01*
X0381704Y0097823D01*
X0381983Y0097949D01*
X0382265Y0098069D01*
X0382550Y0098181D01*
X0382837Y0098286D01*
X0383127Y0098385D01*
X0383419Y0098476D01*
X0383714Y0098560D01*
X0384010Y0098637D01*
X0384308Y0098707D01*
X0384608Y0098769D01*
X0384909Y0098824D01*
X0385211Y0098871D01*
X0385515Y0098911D01*
X0385819Y0098944D01*
X0386124Y0098969D01*
X0386430Y0098987D01*
X0386736Y0098997D01*
X0387042Y0099000D01*
X0387348Y0098995D01*
X0387654Y0098983D01*
X0387960Y0098963D01*
X0388264Y0098936D01*
X0388569Y0098901D01*
X0388872Y0098859D01*
X0389174Y0098810D01*
X0389475Y0098753D01*
X0389774Y0098688D01*
X0390072Y0098617D01*
X0390367Y0098538D01*
X0390661Y0098452D01*
X0390953Y0098359D01*
X0391242Y0098258D01*
X0391529Y0098151D01*
X0391813Y0098036D01*
X0392094Y0097915D01*
X0392372Y0097787D01*
X0392647Y0097652D01*
X0392918Y0097510D01*
X0393186Y0097362D01*
X0393450Y0097207D01*
X0393710Y0097046D01*
X0393966Y0096879D01*
X0394219Y0096705D01*
X0394466Y0096525D01*
X0394710Y0096339D01*
X0394948Y0096148D01*
X0395182Y0095950D01*
X0395411Y0095747D01*
X0395635Y0095538D01*
X0395854Y0095324D01*
X0396067Y0095104D01*
X0396275Y0094880D01*
X0396478Y0094650D01*
X0396674Y0094416D01*
X0396865Y0094176D01*
X0397050Y0093933D01*
X0397229Y0093684D01*
X0397402Y0093432D01*
X0397569Y0093175D01*
X0397729Y0092914D01*
X0397883Y0092649D01*
X0398030Y0092381D01*
X0398171Y0092109D01*
X0398305Y0091834D01*
X0398432Y0091555D01*
X0398553Y0091274D01*
X0398666Y0090989D01*
X0398772Y0090702D01*
X0398872Y0090413D01*
X0398964Y0090121D01*
X0399049Y0089827D01*
X0399127Y0089531D01*
X0399198Y0089233D01*
X0399261Y0088933D01*
X0399317Y0088632D01*
X0399365Y0088330D01*
X0399406Y0088027D01*
X0399440Y0087723D01*
X0399466Y0087418D01*
X0399485Y0087112D01*
X0399496Y0086806D01*
X0399500Y0086500D01*
X0399496Y0086194D01*
X0399485Y0085888D01*
X0399466Y0085582D01*
X0399440Y0085277D01*
X0399406Y0084973D01*
X0399365Y0084670D01*
X0399317Y0084368D01*
X0399261Y0084067D01*
X0399198Y0083767D01*
X0399127Y0083469D01*
X0399049Y0083173D01*
X0398964Y0082879D01*
X0398872Y0082587D01*
X0398772Y0082298D01*
X0398666Y0082011D01*
X0398553Y0081726D01*
X0398432Y0081445D01*
X0398305Y0081166D01*
X0398171Y0080891D01*
X0398030Y0080619D01*
X0397883Y0080351D01*
X0397729Y0080086D01*
X0397569Y0079825D01*
X0397402Y0079568D01*
X0397229Y0079316D01*
X0397050Y0079067D01*
X0396865Y0078824D01*
X0396674Y0078584D01*
X0396478Y0078350D01*
X0396275Y0078120D01*
X0396067Y0077896D01*
X0395854Y0077676D01*
X0395635Y0077462D01*
X0395411Y0077253D01*
X0395182Y0077050D01*
X0394948Y0076852D01*
X0394710Y0076661D01*
X0394466Y0076475D01*
X0394219Y0076295D01*
X0393966Y0076121D01*
X0393710Y0075954D01*
X0393450Y0075793D01*
X0393186Y0075638D01*
X0392918Y0075490D01*
X0392647Y0075348D01*
X0392372Y0075213D01*
X0392094Y0075085D01*
X0391813Y0074964D01*
X0391529Y0074849D01*
X0391242Y0074742D01*
X0390953Y0074641D01*
X0390661Y0074548D01*
X0390367Y0074462D01*
X0390072Y0074383D01*
X0389774Y0074312D01*
X0389475Y0074247D01*
X0389174Y0074190D01*
X0388872Y0074141D01*
X0388569Y0074099D01*
X0388264Y0074064D01*
X0387960Y0074037D01*
X0387654Y0074017D01*
X0387348Y0074005D01*
X0387042Y0074000D01*
X0386736Y0074003D01*
X0386430Y0074013D01*
X0386124Y0074031D01*
X0385819Y0074056D01*
X0385515Y0074089D01*
X0385211Y0074129D01*
X0384909Y0074176D01*
X0384608Y0074231D01*
X0384308Y0074293D01*
X0384010Y0074363D01*
X0383714Y0074440D01*
X0383419Y0074524D01*
X0383127Y0074615D01*
X0382837Y0074714D01*
X0382550Y0074819D01*
X0382265Y0074931D01*
X0381983Y0075051D01*
X0381704Y0075177D01*
X0381429Y0075310D01*
X0381156Y0075450D01*
X0380887Y0075596D01*
X0380622Y0075749D01*
X0380361Y0075909D01*
X0380104Y0076075D01*
X0379850Y0076247D01*
X0379601Y0076425D01*
X0379357Y0076609D01*
X0379117Y0076799D01*
X0378882Y0076995D01*
X0378651Y0077197D01*
X0378426Y0077404D01*
X0378206Y0077617D01*
X0377991Y0077835D01*
X0377782Y0078058D01*
X0377578Y0078286D01*
X0377379Y0078519D01*
X0377187Y0078757D01*
X0377000Y0079000D01*
X0034000Y0048500D02*
X0034000Y0046500D01*
X0034000Y0048500D02*
X0030000Y0048500D01*
X0030000Y0046500D01*
X0030000Y0016500D02*
X0030000Y0014500D01*
X0034000Y0014500D01*
X0034000Y0016500D01*
X0034000Y0164500D02*
X0030000Y0164500D01*
X0030000Y0166500D01*
X0034000Y0166500D02*
X0034000Y0164500D01*
X0034000Y0196500D02*
X0034000Y0198500D01*
X0030000Y0198500D01*
X0030000Y0196500D01*
D13*
X0027000Y0046500D02*
X0027000Y0016500D01*
X0030000Y0016500D01*
X0034000Y0016500D01*
X0067000Y0016500D01*
X0067000Y0046500D01*
X0034000Y0046500D01*
X0030000Y0046500D01*
X0027000Y0046500D01*
X0067000Y0046500D02*
X0067000Y0051500D01*
X0092000Y0051500D01*
X0092000Y0011500D01*
X0067000Y0011500D01*
X0067000Y0016500D01*
X0092000Y0011500D02*
X0092000Y0001500D01*
X0092000Y0061500D01*
X0137000Y0061500D01*
X0137000Y0001500D01*
X0092000Y0001500D01*
X0137000Y0001500D01*
X0137000Y0061500D01*
X0092000Y0061500D01*
X0092000Y0051500D01*
X0091094Y0075004D02*
X0087157Y0075004D01*
X0087157Y0076972D01*
X0091094Y0076972D01*
X0091094Y0075004D01*
X0091094Y0076972D02*
X0112748Y0076972D01*
X0112748Y0080909D01*
X0077315Y0080909D01*
X0077315Y0076972D01*
X0087157Y0076972D01*
X0077315Y0080909D02*
X0077315Y0132091D01*
X0112748Y0132091D01*
X0112748Y0136028D01*
X0091094Y0136028D01*
X0091094Y0137996D01*
X0087157Y0137996D01*
X0087157Y0136028D01*
X0077315Y0136028D01*
X0077315Y0132091D01*
X0082236Y0127169D02*
X0093063Y0127169D01*
X0100052Y0128043D01*
X0100106Y0128048D01*
X0100159Y0128049D01*
X0100212Y0128047D01*
X0100265Y0128041D01*
X0100318Y0128031D01*
X0100369Y0128018D01*
X0100420Y0128001D01*
X0100470Y0127981D01*
X0100518Y0127958D01*
X0100564Y0127931D01*
X0100608Y0127902D01*
X0100651Y0127869D01*
X0100691Y0127834D01*
X0100728Y0127796D01*
X0100763Y0127756D01*
X0100795Y0127713D01*
X0100824Y0127668D01*
X0100850Y0127622D01*
X0100873Y0127573D01*
X0100892Y0127524D01*
X0100908Y0127473D01*
X0100921Y0127421D01*
X0100930Y0127368D01*
X0100935Y0127315D01*
X0100937Y0127262D01*
X0100937Y0126868D01*
X0100935Y0126814D01*
X0100930Y0126761D01*
X0100921Y0126708D01*
X0100908Y0126656D01*
X0100892Y0126605D01*
X0100872Y0126556D01*
X0100849Y0126507D01*
X0100823Y0126460D01*
X0100794Y0126416D01*
X0100762Y0126373D01*
X0100727Y0126332D01*
X0100689Y0126294D01*
X0100649Y0126259D01*
X0100606Y0126227D01*
X0100561Y0126197D01*
X0100515Y0126171D01*
X0100467Y0126148D01*
X0100417Y0126128D01*
X0100366Y0126111D01*
X0100314Y0126098D01*
X0100261Y0126089D01*
X0100261Y0126088D02*
X0094047Y0125201D01*
X0089126Y0125201D01*
X0089126Y0121264D01*
X0094047Y0121264D01*
X0100261Y0120376D01*
X0100314Y0120367D01*
X0100366Y0120354D01*
X0100417Y0120337D01*
X0100467Y0120317D01*
X0100515Y0120294D01*
X0100561Y0120268D01*
X0100606Y0120238D01*
X0100649Y0120206D01*
X0100689Y0120171D01*
X0100727Y0120133D01*
X0100762Y0120092D01*
X0100794Y0120049D01*
X0100823Y0120005D01*
X0100849Y0119958D01*
X0100872Y0119909D01*
X0100892Y0119860D01*
X0100908Y0119809D01*
X0100921Y0119757D01*
X0100930Y0119704D01*
X0100935Y0119651D01*
X0100937Y0119597D01*
X0100937Y0119203D01*
X0100935Y0119150D01*
X0100930Y0119097D01*
X0100921Y0119044D01*
X0100908Y0118992D01*
X0100892Y0118941D01*
X0100873Y0118892D01*
X0100850Y0118843D01*
X0100824Y0118797D01*
X0100795Y0118752D01*
X0100763Y0118709D01*
X0100728Y0118669D01*
X0100691Y0118631D01*
X0100651Y0118596D01*
X0100608Y0118563D01*
X0100564Y0118534D01*
X0100518Y0118507D01*
X0100470Y0118484D01*
X0100420Y0118464D01*
X0100369Y0118447D01*
X0100318Y0118434D01*
X0100265Y0118424D01*
X0100212Y0118418D01*
X0100159Y0118416D01*
X0100106Y0118417D01*
X0100052Y0118422D01*
X0093063Y0119295D01*
X0082236Y0119295D01*
X0082150Y0119297D01*
X0082064Y0119302D01*
X0081979Y0119312D01*
X0081894Y0119325D01*
X0081810Y0119342D01*
X0081726Y0119362D01*
X0081644Y0119386D01*
X0081563Y0119414D01*
X0081482Y0119445D01*
X0081404Y0119479D01*
X0081327Y0119517D01*
X0081252Y0119559D01*
X0081178Y0119603D01*
X0081107Y0119651D01*
X0081037Y0119702D01*
X0080970Y0119756D01*
X0080906Y0119812D01*
X0080844Y0119872D01*
X0080784Y0119934D01*
X0080728Y0119998D01*
X0080674Y0120065D01*
X0080623Y0120135D01*
X0080575Y0120206D01*
X0080531Y0120280D01*
X0080489Y0120355D01*
X0080451Y0120432D01*
X0080417Y0120510D01*
X0080386Y0120591D01*
X0080358Y0120672D01*
X0080334Y0120754D01*
X0080314Y0120838D01*
X0080297Y0120922D01*
X0080284Y0121007D01*
X0080274Y0121092D01*
X0080269Y0121178D01*
X0080267Y0121264D01*
X0080268Y0121264D02*
X0080268Y0125201D01*
X0080267Y0125201D02*
X0080269Y0125287D01*
X0080274Y0125373D01*
X0080284Y0125458D01*
X0080297Y0125543D01*
X0080314Y0125627D01*
X0080334Y0125711D01*
X0080358Y0125793D01*
X0080386Y0125874D01*
X0080417Y0125955D01*
X0080451Y0126033D01*
X0080489Y0126110D01*
X0080531Y0126186D01*
X0080575Y0126259D01*
X0080623Y0126330D01*
X0080674Y0126400D01*
X0080728Y0126467D01*
X0080784Y0126531D01*
X0080844Y0126593D01*
X0080906Y0126653D01*
X0080970Y0126709D01*
X0081037Y0126763D01*
X0081107Y0126814D01*
X0081178Y0126862D01*
X0081252Y0126906D01*
X0081327Y0126948D01*
X0081404Y0126986D01*
X0081482Y0127020D01*
X0081563Y0127051D01*
X0081644Y0127079D01*
X0081726Y0127103D01*
X0081810Y0127123D01*
X0081894Y0127140D01*
X0081979Y0127153D01*
X0082064Y0127163D01*
X0082150Y0127168D01*
X0082236Y0127170D01*
X0082236Y0125201D02*
X0082236Y0121264D01*
X0083220Y0121264D01*
X0083220Y0125201D01*
X0082236Y0125201D01*
X0083220Y0125201D02*
X0085189Y0125201D01*
X0085189Y0121264D01*
X0086173Y0121264D01*
X0086173Y0125201D01*
X0085189Y0125201D01*
X0086173Y0125201D02*
X0089126Y0125201D01*
X0089126Y0121264D02*
X0086173Y0121264D01*
X0085189Y0121264D02*
X0083220Y0121264D01*
X0098969Y0120673D02*
X0098969Y0125791D01*
X0106843Y0126185D02*
X0106843Y0124217D01*
X0106842Y0124217D02*
X0106844Y0124131D01*
X0106849Y0124045D01*
X0106859Y0123960D01*
X0106872Y0123875D01*
X0106889Y0123791D01*
X0106909Y0123707D01*
X0106933Y0123625D01*
X0106961Y0123544D01*
X0106992Y0123463D01*
X0107026Y0123385D01*
X0107064Y0123308D01*
X0107106Y0123233D01*
X0107150Y0123159D01*
X0107198Y0123088D01*
X0107249Y0123018D01*
X0107303Y0122951D01*
X0107359Y0122887D01*
X0107419Y0122825D01*
X0107481Y0122765D01*
X0107545Y0122709D01*
X0107612Y0122655D01*
X0107682Y0122604D01*
X0107753Y0122556D01*
X0107827Y0122512D01*
X0107902Y0122470D01*
X0107979Y0122432D01*
X0108057Y0122398D01*
X0108138Y0122367D01*
X0108219Y0122339D01*
X0108301Y0122315D01*
X0108385Y0122295D01*
X0108469Y0122278D01*
X0108554Y0122265D01*
X0108639Y0122255D01*
X0108725Y0122250D01*
X0108811Y0122248D01*
X0110780Y0122248D01*
X0112748Y0120280D01*
X0112748Y0116343D01*
X0111567Y0116343D01*
X0111567Y0116342D02*
X0111513Y0116340D01*
X0111460Y0116335D01*
X0111407Y0116326D01*
X0111355Y0116313D01*
X0111303Y0116297D01*
X0111253Y0116277D01*
X0111205Y0116254D01*
X0111158Y0116227D01*
X0111113Y0116198D01*
X0111070Y0116165D01*
X0111030Y0116130D01*
X0110992Y0116092D01*
X0110957Y0116052D01*
X0110924Y0116009D01*
X0110895Y0115964D01*
X0110868Y0115917D01*
X0110845Y0115869D01*
X0110825Y0115819D01*
X0110809Y0115767D01*
X0110796Y0115715D01*
X0110787Y0115662D01*
X0110782Y0115609D01*
X0110780Y0115555D01*
X0110780Y0115161D01*
X0110782Y0115107D01*
X0110787Y0115054D01*
X0110796Y0115001D01*
X0110809Y0114949D01*
X0110825Y0114897D01*
X0110845Y0114847D01*
X0110868Y0114799D01*
X0110895Y0114752D01*
X0110924Y0114707D01*
X0110957Y0114664D01*
X0110992Y0114624D01*
X0111030Y0114586D01*
X0111070Y0114551D01*
X0111113Y0114518D01*
X0111158Y0114489D01*
X0111205Y0114462D01*
X0111253Y0114439D01*
X0111303Y0114419D01*
X0111355Y0114403D01*
X0111407Y0114390D01*
X0111460Y0114381D01*
X0111513Y0114376D01*
X0111567Y0114374D01*
X0112748Y0114374D01*
X0112748Y0098626D01*
X0111567Y0098626D01*
X0111513Y0098624D01*
X0111460Y0098619D01*
X0111407Y0098610D01*
X0111355Y0098597D01*
X0111303Y0098581D01*
X0111253Y0098561D01*
X0111205Y0098538D01*
X0111158Y0098511D01*
X0111113Y0098482D01*
X0111070Y0098449D01*
X0111030Y0098414D01*
X0110992Y0098376D01*
X0110957Y0098336D01*
X0110924Y0098293D01*
X0110895Y0098248D01*
X0110868Y0098201D01*
X0110845Y0098153D01*
X0110825Y0098103D01*
X0110809Y0098051D01*
X0110796Y0097999D01*
X0110787Y0097946D01*
X0110782Y0097893D01*
X0110780Y0097839D01*
X0110780Y0097445D01*
X0110782Y0097391D01*
X0110787Y0097338D01*
X0110796Y0097285D01*
X0110809Y0097233D01*
X0110825Y0097181D01*
X0110845Y0097131D01*
X0110868Y0097083D01*
X0110895Y0097036D01*
X0110924Y0096991D01*
X0110957Y0096948D01*
X0110992Y0096908D01*
X0111030Y0096870D01*
X0111070Y0096835D01*
X0111113Y0096802D01*
X0111158Y0096773D01*
X0111205Y0096746D01*
X0111253Y0096723D01*
X0111303Y0096703D01*
X0111355Y0096687D01*
X0111407Y0096674D01*
X0111460Y0096665D01*
X0111513Y0096660D01*
X0111567Y0096658D01*
X0111567Y0096657D02*
X0112748Y0096657D01*
X0112748Y0092720D01*
X0110780Y0090752D01*
X0108811Y0090752D01*
X0108725Y0090750D01*
X0108639Y0090745D01*
X0108554Y0090735D01*
X0108469Y0090722D01*
X0108385Y0090705D01*
X0108301Y0090685D01*
X0108219Y0090661D01*
X0108138Y0090633D01*
X0108057Y0090602D01*
X0107979Y0090568D01*
X0107902Y0090530D01*
X0107827Y0090488D01*
X0107753Y0090444D01*
X0107682Y0090396D01*
X0107612Y0090345D01*
X0107545Y0090291D01*
X0107481Y0090235D01*
X0107419Y0090175D01*
X0107359Y0090113D01*
X0107303Y0090049D01*
X0107249Y0089982D01*
X0107198Y0089912D01*
X0107150Y0089841D01*
X0107106Y0089768D01*
X0107064Y0089692D01*
X0107026Y0089615D01*
X0106992Y0089537D01*
X0106961Y0089456D01*
X0106933Y0089375D01*
X0106909Y0089293D01*
X0106889Y0089209D01*
X0106872Y0089125D01*
X0106859Y0089040D01*
X0106849Y0088955D01*
X0106844Y0088869D01*
X0106842Y0088783D01*
X0106843Y0088783D02*
X0106843Y0086815D01*
X0106842Y0086815D02*
X0106844Y0086729D01*
X0106849Y0086643D01*
X0106859Y0086558D01*
X0106872Y0086473D01*
X0106889Y0086389D01*
X0106909Y0086305D01*
X0106933Y0086223D01*
X0106961Y0086142D01*
X0106992Y0086061D01*
X0107026Y0085983D01*
X0107064Y0085906D01*
X0107106Y0085831D01*
X0107150Y0085757D01*
X0107198Y0085686D01*
X0107249Y0085616D01*
X0107303Y0085549D01*
X0107359Y0085485D01*
X0107419Y0085423D01*
X0107481Y0085363D01*
X0107545Y0085307D01*
X0107612Y0085253D01*
X0107682Y0085202D01*
X0107753Y0085154D01*
X0107827Y0085110D01*
X0107902Y0085068D01*
X0107979Y0085030D01*
X0108057Y0084996D01*
X0108138Y0084965D01*
X0108219Y0084937D01*
X0108301Y0084913D01*
X0108385Y0084893D01*
X0108469Y0084876D01*
X0108554Y0084863D01*
X0108639Y0084853D01*
X0108725Y0084848D01*
X0108811Y0084846D01*
X0110780Y0084846D01*
X0112748Y0082878D01*
X0112748Y0080909D01*
X0116685Y0086815D02*
X0116685Y0124217D01*
X0112748Y0130122D02*
X0110780Y0128154D01*
X0108811Y0128154D01*
X0108725Y0128152D01*
X0108639Y0128147D01*
X0108554Y0128137D01*
X0108469Y0128124D01*
X0108385Y0128107D01*
X0108301Y0128087D01*
X0108219Y0128063D01*
X0108138Y0128035D01*
X0108057Y0128004D01*
X0107979Y0127970D01*
X0107902Y0127932D01*
X0107827Y0127890D01*
X0107753Y0127846D01*
X0107682Y0127798D01*
X0107612Y0127747D01*
X0107545Y0127693D01*
X0107481Y0127637D01*
X0107419Y0127577D01*
X0107359Y0127515D01*
X0107303Y0127451D01*
X0107249Y0127384D01*
X0107198Y0127314D01*
X0107150Y0127243D01*
X0107106Y0127170D01*
X0107064Y0127094D01*
X0107026Y0127017D01*
X0106992Y0126939D01*
X0106961Y0126858D01*
X0106933Y0126777D01*
X0106909Y0126695D01*
X0106889Y0126611D01*
X0106872Y0126527D01*
X0106859Y0126442D01*
X0106849Y0126357D01*
X0106844Y0126271D01*
X0106842Y0126185D01*
X0112748Y0130122D02*
X0112748Y0132091D01*
X0091094Y0136028D02*
X0087157Y0136028D01*
X0092000Y0151500D02*
X0092000Y0211500D01*
X0137000Y0211500D01*
X0137000Y0151500D01*
X0092000Y0151500D01*
X0137000Y0151500D01*
X0137000Y0211500D01*
X0092000Y0211500D01*
X0092000Y0201500D01*
X0067000Y0201500D01*
X0067000Y0196500D01*
X0034000Y0196500D01*
X0030000Y0196500D01*
X0027000Y0196500D01*
X0027000Y0166500D01*
X0030000Y0166500D01*
X0034000Y0166500D01*
X0067000Y0166500D01*
X0067000Y0196500D01*
X0092000Y0201500D02*
X0092000Y0161500D01*
X0067000Y0161500D01*
X0067000Y0166500D01*
X0092000Y0161500D02*
X0092000Y0151500D01*
X0099855Y0094185D02*
X0092866Y0093311D01*
X0082039Y0093311D01*
X0082039Y0093312D02*
X0081953Y0093310D01*
X0081867Y0093305D01*
X0081782Y0093295D01*
X0081697Y0093282D01*
X0081613Y0093265D01*
X0081529Y0093245D01*
X0081447Y0093221D01*
X0081366Y0093193D01*
X0081285Y0093162D01*
X0081207Y0093128D01*
X0081130Y0093090D01*
X0081055Y0093048D01*
X0080981Y0093004D01*
X0080910Y0092956D01*
X0080840Y0092905D01*
X0080773Y0092851D01*
X0080709Y0092795D01*
X0080647Y0092735D01*
X0080587Y0092673D01*
X0080531Y0092609D01*
X0080477Y0092542D01*
X0080426Y0092472D01*
X0080378Y0092401D01*
X0080334Y0092328D01*
X0080292Y0092252D01*
X0080254Y0092175D01*
X0080220Y0092097D01*
X0080189Y0092016D01*
X0080161Y0091935D01*
X0080137Y0091853D01*
X0080117Y0091769D01*
X0080100Y0091685D01*
X0080087Y0091600D01*
X0080077Y0091515D01*
X0080072Y0091429D01*
X0080070Y0091343D01*
X0080071Y0091343D02*
X0080071Y0087406D01*
X0080070Y0087406D02*
X0080072Y0087320D01*
X0080077Y0087234D01*
X0080087Y0087149D01*
X0080100Y0087064D01*
X0080117Y0086980D01*
X0080137Y0086896D01*
X0080161Y0086814D01*
X0080189Y0086733D01*
X0080220Y0086652D01*
X0080254Y0086574D01*
X0080292Y0086497D01*
X0080334Y0086422D01*
X0080378Y0086348D01*
X0080426Y0086277D01*
X0080477Y0086207D01*
X0080531Y0086140D01*
X0080587Y0086076D01*
X0080647Y0086014D01*
X0080709Y0085954D01*
X0080773Y0085898D01*
X0080840Y0085844D01*
X0080910Y0085793D01*
X0080981Y0085745D01*
X0081055Y0085701D01*
X0081130Y0085659D01*
X0081207Y0085621D01*
X0081285Y0085587D01*
X0081366Y0085556D01*
X0081447Y0085528D01*
X0081529Y0085504D01*
X0081613Y0085484D01*
X0081697Y0085467D01*
X0081782Y0085454D01*
X0081867Y0085444D01*
X0081953Y0085439D01*
X0082039Y0085437D01*
X0092866Y0085437D01*
X0099855Y0084563D01*
X0099855Y0084564D02*
X0099909Y0084559D01*
X0099962Y0084558D01*
X0100015Y0084560D01*
X0100068Y0084566D01*
X0100121Y0084576D01*
X0100172Y0084589D01*
X0100223Y0084606D01*
X0100273Y0084626D01*
X0100321Y0084649D01*
X0100367Y0084676D01*
X0100411Y0084705D01*
X0100454Y0084738D01*
X0100494Y0084773D01*
X0100531Y0084811D01*
X0100566Y0084851D01*
X0100598Y0084894D01*
X0100627Y0084939D01*
X0100653Y0084985D01*
X0100676Y0085034D01*
X0100695Y0085083D01*
X0100711Y0085134D01*
X0100724Y0085186D01*
X0100733Y0085239D01*
X0100738Y0085292D01*
X0100740Y0085345D01*
X0100740Y0085738D01*
X0100738Y0085792D01*
X0100733Y0085845D01*
X0100724Y0085898D01*
X0100711Y0085950D01*
X0100695Y0086001D01*
X0100675Y0086050D01*
X0100652Y0086099D01*
X0100626Y0086146D01*
X0100597Y0086190D01*
X0100565Y0086233D01*
X0100530Y0086274D01*
X0100492Y0086312D01*
X0100452Y0086347D01*
X0100409Y0086379D01*
X0100364Y0086409D01*
X0100318Y0086435D01*
X0100270Y0086458D01*
X0100220Y0086478D01*
X0100169Y0086495D01*
X0100117Y0086508D01*
X0100064Y0086517D01*
X0100064Y0086518D02*
X0093850Y0087406D01*
X0088929Y0087406D01*
X0088929Y0091343D01*
X0085976Y0091343D01*
X0085976Y0087406D01*
X0088929Y0087406D01*
X0085976Y0087406D02*
X0084992Y0087406D01*
X0084992Y0091343D01*
X0083024Y0091343D01*
X0083024Y0087406D01*
X0084992Y0087406D01*
X0083024Y0087406D02*
X0082039Y0087406D01*
X0082039Y0091343D01*
X0083024Y0091343D01*
X0084992Y0091343D02*
X0085976Y0091343D01*
X0088929Y0091343D02*
X0093850Y0091343D01*
X0100064Y0092230D01*
X0100064Y0092231D02*
X0100117Y0092240D01*
X0100169Y0092253D01*
X0100220Y0092270D01*
X0100270Y0092290D01*
X0100318Y0092313D01*
X0100364Y0092339D01*
X0100409Y0092369D01*
X0100452Y0092401D01*
X0100492Y0092436D01*
X0100530Y0092474D01*
X0100565Y0092515D01*
X0100597Y0092558D01*
X0100626Y0092602D01*
X0100652Y0092649D01*
X0100675Y0092698D01*
X0100695Y0092747D01*
X0100711Y0092798D01*
X0100724Y0092850D01*
X0100733Y0092903D01*
X0100738Y0092956D01*
X0100740Y0093010D01*
X0100740Y0093403D01*
X0100738Y0093456D01*
X0100733Y0093509D01*
X0100724Y0093562D01*
X0100711Y0093614D01*
X0100695Y0093665D01*
X0100676Y0093714D01*
X0100653Y0093763D01*
X0100627Y0093809D01*
X0100598Y0093854D01*
X0100566Y0093897D01*
X0100531Y0093937D01*
X0100494Y0093975D01*
X0100454Y0094010D01*
X0100411Y0094043D01*
X0100367Y0094072D01*
X0100321Y0094099D01*
X0100273Y0094122D01*
X0100223Y0094142D01*
X0100172Y0094159D01*
X0100121Y0094172D01*
X0100068Y0094182D01*
X0100015Y0094188D01*
X0099962Y0094190D01*
X0099909Y0094189D01*
X0099855Y0094184D01*
X0098772Y0091933D02*
X0098772Y0086815D01*
X0205046Y0156450D02*
X0208049Y0156450D01*
X0209550Y0157951D01*
X0208049Y0159453D01*
X0205046Y0159453D01*
X0205046Y0161054D02*
X0205046Y0163306D01*
X0205797Y0164056D01*
X0207298Y0164056D01*
X0208049Y0163306D01*
X0208049Y0161054D01*
X0209550Y0161054D02*
X0205046Y0161054D01*
X0205046Y0165658D02*
X0205046Y0167159D01*
X0205046Y0166408D02*
X0209550Y0166408D01*
X0209550Y0165658D02*
X0209550Y0167159D01*
X0209550Y0168727D02*
X0205046Y0168727D01*
X0209550Y0171730D01*
X0205046Y0171730D01*
X0207298Y0173331D02*
X0207298Y0175583D01*
X0208049Y0176334D01*
X0208799Y0176334D01*
X0209550Y0175583D01*
X0209550Y0174082D01*
X0208799Y0173331D01*
X0207298Y0173331D01*
X0205797Y0174832D01*
X0205046Y0176334D01*
X0240046Y0176334D02*
X0240046Y0173331D01*
X0242298Y0173331D01*
X0241547Y0174832D01*
X0241547Y0175583D01*
X0242298Y0176334D01*
X0243799Y0176334D01*
X0244550Y0175583D01*
X0244550Y0174082D01*
X0243799Y0173331D01*
X0244550Y0171730D02*
X0240046Y0171730D01*
X0240046Y0168727D02*
X0244550Y0171730D01*
X0244550Y0168727D02*
X0240046Y0168727D01*
X0240046Y0167159D02*
X0240046Y0165658D01*
X0240046Y0166408D02*
X0244550Y0166408D01*
X0244550Y0165658D02*
X0244550Y0167159D01*
X0242298Y0164056D02*
X0243049Y0163306D01*
X0243049Y0161054D01*
X0244550Y0161054D02*
X0240046Y0161054D01*
X0240046Y0163306D01*
X0240797Y0164056D01*
X0242298Y0164056D01*
X0243049Y0159453D02*
X0240046Y0159453D01*
X0243049Y0159453D02*
X0244550Y0157951D01*
X0243049Y0156450D01*
X0240046Y0156450D01*
X0275046Y0156450D02*
X0278049Y0156450D01*
X0279550Y0157951D01*
X0278049Y0159453D01*
X0275046Y0159453D01*
X0275046Y0161054D02*
X0275046Y0163306D01*
X0275797Y0164056D01*
X0277298Y0164056D01*
X0278049Y0163306D01*
X0278049Y0161054D01*
X0279550Y0161054D02*
X0275046Y0161054D01*
X0275046Y0165658D02*
X0275046Y0167159D01*
X0275046Y0166408D02*
X0279550Y0166408D01*
X0279550Y0165658D02*
X0279550Y0167159D01*
X0279550Y0168727D02*
X0275046Y0168727D01*
X0279550Y0171730D01*
X0275046Y0171730D01*
X0277298Y0173331D02*
X0277298Y0176334D01*
X0279550Y0175583D02*
X0275046Y0175583D01*
X0277298Y0173331D01*
X0305046Y0174082D02*
X0305046Y0175583D01*
X0305797Y0176334D01*
X0306547Y0176334D01*
X0307298Y0175583D01*
X0308049Y0176334D01*
X0308799Y0176334D01*
X0309550Y0175583D01*
X0309550Y0174082D01*
X0308799Y0173331D01*
X0309550Y0171730D02*
X0305046Y0171730D01*
X0305797Y0173331D02*
X0305046Y0174082D01*
X0307298Y0174832D02*
X0307298Y0175583D01*
X0309550Y0171730D02*
X0305046Y0168727D01*
X0309550Y0168727D01*
X0309550Y0167159D02*
X0309550Y0165658D01*
X0309550Y0166408D02*
X0305046Y0166408D01*
X0305046Y0165658D02*
X0305046Y0167159D01*
X0305797Y0164056D02*
X0305046Y0163306D01*
X0305046Y0161054D01*
X0309550Y0161054D01*
X0308049Y0161054D02*
X0308049Y0163306D01*
X0307298Y0164056D01*
X0305797Y0164056D01*
X0305046Y0159453D02*
X0308049Y0159453D01*
X0309550Y0157951D01*
X0308049Y0156450D01*
X0305046Y0156450D01*
X0274713Y0231750D02*
X0270643Y0231750D01*
X0274713Y0235820D01*
X0274713Y0236838D01*
X0273695Y0237855D01*
X0271660Y0237855D01*
X0270643Y0236838D01*
X0268636Y0237855D02*
X0268636Y0233785D01*
X0266601Y0231750D01*
X0264566Y0233785D01*
X0264566Y0237855D01*
X0256481Y0237855D02*
X0256481Y0231750D01*
X0253429Y0231750D01*
X0252411Y0232768D01*
X0252411Y0234803D01*
X0253429Y0235820D01*
X0256481Y0235820D01*
X0250400Y0235820D02*
X0249382Y0235820D01*
X0247347Y0233785D01*
X0245340Y0233785D02*
X0242287Y0233785D01*
X0241270Y0232768D01*
X0242287Y0231750D01*
X0245340Y0231750D01*
X0245340Y0234803D01*
X0244322Y0235820D01*
X0242287Y0235820D01*
X0239263Y0234803D02*
X0238245Y0235820D01*
X0236210Y0235820D01*
X0235193Y0234803D01*
X0235193Y0232768D01*
X0236210Y0231750D01*
X0238245Y0231750D01*
X0239263Y0232768D01*
X0239263Y0234803D01*
X0233185Y0235820D02*
X0232168Y0234803D01*
X0229115Y0234803D01*
X0229115Y0237855D02*
X0229115Y0231750D01*
X0232168Y0231750D01*
X0233185Y0232768D01*
X0233185Y0233785D01*
X0232168Y0234803D01*
X0233185Y0235820D02*
X0233185Y0236838D01*
X0232168Y0237855D01*
X0229115Y0237855D01*
X0220004Y0237855D02*
X0220004Y0231750D01*
X0218987Y0231750D02*
X0221022Y0231750D01*
X0216980Y0232768D02*
X0216980Y0234803D01*
X0215962Y0235820D01*
X0213927Y0235820D01*
X0212910Y0234803D01*
X0212910Y0232768D01*
X0213927Y0231750D01*
X0215962Y0231750D01*
X0216980Y0232768D01*
X0218987Y0237855D02*
X0220004Y0237855D01*
X0210898Y0235820D02*
X0209880Y0235820D01*
X0207845Y0233785D01*
X0207845Y0231750D02*
X0207845Y0235820D01*
X0205829Y0235820D02*
X0203794Y0235820D01*
X0204811Y0236838D02*
X0204811Y0232768D01*
X0205829Y0231750D01*
X0201787Y0231750D02*
X0201787Y0234803D01*
X0200769Y0235820D01*
X0197717Y0235820D01*
X0197717Y0231750D01*
X0195710Y0232768D02*
X0195710Y0234803D01*
X0194692Y0235820D01*
X0192657Y0235820D01*
X0191639Y0234803D01*
X0191639Y0232768D01*
X0192657Y0231750D01*
X0194692Y0231750D01*
X0195710Y0232768D01*
X0189632Y0232768D02*
X0188615Y0231750D01*
X0186580Y0231750D01*
X0185562Y0232768D01*
X0185562Y0236838D01*
X0186580Y0237855D01*
X0188615Y0237855D01*
X0189632Y0236838D01*
X0177469Y0235820D02*
X0175434Y0235820D01*
X0176451Y0236838D02*
X0176451Y0232768D01*
X0177469Y0231750D01*
X0173426Y0231750D02*
X0173426Y0235820D01*
X0169356Y0235820D02*
X0169356Y0232768D01*
X0170374Y0231750D01*
X0173426Y0231750D01*
X0167349Y0232768D02*
X0167349Y0234803D01*
X0166332Y0235820D01*
X0164297Y0235820D01*
X0163279Y0234803D01*
X0163279Y0232768D01*
X0164297Y0231750D01*
X0166332Y0231750D01*
X0167349Y0232768D01*
X0161272Y0232768D02*
X0161272Y0234803D01*
X0160255Y0235820D01*
X0157202Y0235820D01*
X0157202Y0229715D01*
X0157202Y0231750D02*
X0160255Y0231750D01*
X0161272Y0232768D01*
X0155195Y0232768D02*
X0155195Y0233785D01*
X0154177Y0234803D01*
X0152142Y0234803D01*
X0151125Y0235820D01*
X0151125Y0236838D01*
X0152142Y0237855D01*
X0154177Y0237855D01*
X0155195Y0236838D01*
X0155195Y0232768D02*
X0154177Y0231750D01*
X0152142Y0231750D01*
X0151125Y0232768D01*
X0143031Y0231750D02*
X0142014Y0232768D01*
X0142014Y0236838D01*
X0143031Y0235820D02*
X0140996Y0235820D01*
X0138989Y0234803D02*
X0138989Y0231750D01*
X0138989Y0234803D02*
X0137972Y0235820D01*
X0134919Y0235820D01*
X0134919Y0231750D01*
X0132912Y0231750D02*
X0132912Y0234803D01*
X0131894Y0235820D01*
X0129859Y0235820D01*
X0129859Y0233785D02*
X0132912Y0233785D01*
X0132912Y0231750D02*
X0129859Y0231750D01*
X0128842Y0232768D01*
X0129859Y0233785D01*
X0126825Y0231750D02*
X0125808Y0232768D01*
X0125808Y0236838D01*
X0126825Y0235820D02*
X0124790Y0235820D01*
X0122783Y0235820D02*
X0119731Y0235820D01*
X0118713Y0234803D01*
X0119731Y0233785D01*
X0121766Y0233785D01*
X0122783Y0232768D01*
X0121766Y0231750D01*
X0118713Y0231750D01*
X0116706Y0231750D02*
X0116706Y0234803D01*
X0115689Y0235820D01*
X0113653Y0235820D01*
X0113653Y0233785D02*
X0116706Y0233785D01*
X0116706Y0231750D02*
X0113653Y0231750D01*
X0112636Y0232768D01*
X0113653Y0233785D01*
X0110629Y0237855D02*
X0106559Y0237855D01*
X0108594Y0237855D02*
X0108594Y0231750D01*
X0104542Y0231750D02*
X0102507Y0231750D01*
X0103525Y0231750D02*
X0103525Y0235820D01*
X0102507Y0235820D01*
X0100491Y0235820D02*
X0098456Y0235820D01*
X0099473Y0236838D02*
X0099473Y0232768D01*
X0100491Y0231750D01*
X0096439Y0231750D02*
X0094404Y0231750D01*
X0095422Y0231750D02*
X0095422Y0237855D01*
X0094404Y0237855D01*
X0092397Y0235820D02*
X0092397Y0231750D01*
X0089345Y0231750D01*
X0088327Y0232768D01*
X0088327Y0235820D01*
X0086320Y0237855D02*
X0086320Y0231750D01*
X0082250Y0231750D02*
X0082250Y0237855D01*
X0084285Y0235820D01*
X0086320Y0237855D01*
X0103525Y0237855D02*
X0103525Y0238873D01*
X0247347Y0235820D02*
X0247347Y0231750D01*
D14*
X0282000Y0234000D02*
X0282000Y0229000D01*
X0284500Y0226500D01*
X0289500Y0226500D01*
X0292000Y0229000D01*
X0292000Y0234000D01*
X0289500Y0236500D01*
X0284500Y0236500D01*
X0282000Y0234000D01*
X0377000Y0176500D02*
X0377003Y0176745D01*
X0377012Y0176991D01*
X0377027Y0177236D01*
X0377048Y0177480D01*
X0377075Y0177724D01*
X0377108Y0177967D01*
X0377147Y0178210D01*
X0377192Y0178451D01*
X0377243Y0178691D01*
X0377300Y0178930D01*
X0377362Y0179167D01*
X0377431Y0179403D01*
X0377505Y0179637D01*
X0377585Y0179869D01*
X0377670Y0180099D01*
X0377761Y0180327D01*
X0377858Y0180552D01*
X0377960Y0180776D01*
X0378068Y0180996D01*
X0378181Y0181214D01*
X0378299Y0181429D01*
X0378423Y0181641D01*
X0378551Y0181850D01*
X0378685Y0182056D01*
X0378824Y0182258D01*
X0378968Y0182457D01*
X0379117Y0182652D01*
X0379270Y0182844D01*
X0379428Y0183032D01*
X0379590Y0183216D01*
X0379758Y0183395D01*
X0379929Y0183571D01*
X0380105Y0183742D01*
X0380284Y0183910D01*
X0380468Y0184072D01*
X0380656Y0184230D01*
X0380848Y0184383D01*
X0381043Y0184532D01*
X0381242Y0184676D01*
X0381444Y0184815D01*
X0381650Y0184949D01*
X0381859Y0185077D01*
X0382071Y0185201D01*
X0382286Y0185319D01*
X0382504Y0185432D01*
X0382724Y0185540D01*
X0382948Y0185642D01*
X0383173Y0185739D01*
X0383401Y0185830D01*
X0383631Y0185915D01*
X0383863Y0185995D01*
X0384097Y0186069D01*
X0384333Y0186138D01*
X0384570Y0186200D01*
X0384809Y0186257D01*
X0385049Y0186308D01*
X0385290Y0186353D01*
X0385533Y0186392D01*
X0385776Y0186425D01*
X0386020Y0186452D01*
X0386264Y0186473D01*
X0386509Y0186488D01*
X0386755Y0186497D01*
X0387000Y0186500D01*
X0387245Y0186497D01*
X0387491Y0186488D01*
X0387736Y0186473D01*
X0387980Y0186452D01*
X0388224Y0186425D01*
X0388467Y0186392D01*
X0388710Y0186353D01*
X0388951Y0186308D01*
X0389191Y0186257D01*
X0389430Y0186200D01*
X0389667Y0186138D01*
X0389903Y0186069D01*
X0390137Y0185995D01*
X0390369Y0185915D01*
X0390599Y0185830D01*
X0390827Y0185739D01*
X0391052Y0185642D01*
X0391276Y0185540D01*
X0391496Y0185432D01*
X0391714Y0185319D01*
X0391929Y0185201D01*
X0392141Y0185077D01*
X0392350Y0184949D01*
X0392556Y0184815D01*
X0392758Y0184676D01*
X0392957Y0184532D01*
X0393152Y0184383D01*
X0393344Y0184230D01*
X0393532Y0184072D01*
X0393716Y0183910D01*
X0393895Y0183742D01*
X0394071Y0183571D01*
X0394242Y0183395D01*
X0394410Y0183216D01*
X0394572Y0183032D01*
X0394730Y0182844D01*
X0394883Y0182652D01*
X0395032Y0182457D01*
X0395176Y0182258D01*
X0395315Y0182056D01*
X0395449Y0181850D01*
X0395577Y0181641D01*
X0395701Y0181429D01*
X0395819Y0181214D01*
X0395932Y0180996D01*
X0396040Y0180776D01*
X0396142Y0180552D01*
X0396239Y0180327D01*
X0396330Y0180099D01*
X0396415Y0179869D01*
X0396495Y0179637D01*
X0396569Y0179403D01*
X0396638Y0179167D01*
X0396700Y0178930D01*
X0396757Y0178691D01*
X0396808Y0178451D01*
X0396853Y0178210D01*
X0396892Y0177967D01*
X0396925Y0177724D01*
X0396952Y0177480D01*
X0396973Y0177236D01*
X0396988Y0176991D01*
X0396997Y0176745D01*
X0397000Y0176500D01*
X0396997Y0176255D01*
X0396988Y0176009D01*
X0396973Y0175764D01*
X0396952Y0175520D01*
X0396925Y0175276D01*
X0396892Y0175033D01*
X0396853Y0174790D01*
X0396808Y0174549D01*
X0396757Y0174309D01*
X0396700Y0174070D01*
X0396638Y0173833D01*
X0396569Y0173597D01*
X0396495Y0173363D01*
X0396415Y0173131D01*
X0396330Y0172901D01*
X0396239Y0172673D01*
X0396142Y0172448D01*
X0396040Y0172224D01*
X0395932Y0172004D01*
X0395819Y0171786D01*
X0395701Y0171571D01*
X0395577Y0171359D01*
X0395449Y0171150D01*
X0395315Y0170944D01*
X0395176Y0170742D01*
X0395032Y0170543D01*
X0394883Y0170348D01*
X0394730Y0170156D01*
X0394572Y0169968D01*
X0394410Y0169784D01*
X0394242Y0169605D01*
X0394071Y0169429D01*
X0393895Y0169258D01*
X0393716Y0169090D01*
X0393532Y0168928D01*
X0393344Y0168770D01*
X0393152Y0168617D01*
X0392957Y0168468D01*
X0392758Y0168324D01*
X0392556Y0168185D01*
X0392350Y0168051D01*
X0392141Y0167923D01*
X0391929Y0167799D01*
X0391714Y0167681D01*
X0391496Y0167568D01*
X0391276Y0167460D01*
X0391052Y0167358D01*
X0390827Y0167261D01*
X0390599Y0167170D01*
X0390369Y0167085D01*
X0390137Y0167005D01*
X0389903Y0166931D01*
X0389667Y0166862D01*
X0389430Y0166800D01*
X0389191Y0166743D01*
X0388951Y0166692D01*
X0388710Y0166647D01*
X0388467Y0166608D01*
X0388224Y0166575D01*
X0387980Y0166548D01*
X0387736Y0166527D01*
X0387491Y0166512D01*
X0387245Y0166503D01*
X0387000Y0166500D01*
X0386755Y0166503D01*
X0386509Y0166512D01*
X0386264Y0166527D01*
X0386020Y0166548D01*
X0385776Y0166575D01*
X0385533Y0166608D01*
X0385290Y0166647D01*
X0385049Y0166692D01*
X0384809Y0166743D01*
X0384570Y0166800D01*
X0384333Y0166862D01*
X0384097Y0166931D01*
X0383863Y0167005D01*
X0383631Y0167085D01*
X0383401Y0167170D01*
X0383173Y0167261D01*
X0382948Y0167358D01*
X0382724Y0167460D01*
X0382504Y0167568D01*
X0382286Y0167681D01*
X0382071Y0167799D01*
X0381859Y0167923D01*
X0381650Y0168051D01*
X0381444Y0168185D01*
X0381242Y0168324D01*
X0381043Y0168468D01*
X0380848Y0168617D01*
X0380656Y0168770D01*
X0380468Y0168928D01*
X0380284Y0169090D01*
X0380105Y0169258D01*
X0379929Y0169429D01*
X0379758Y0169605D01*
X0379590Y0169784D01*
X0379428Y0169968D01*
X0379270Y0170156D01*
X0379117Y0170348D01*
X0378968Y0170543D01*
X0378824Y0170742D01*
X0378685Y0170944D01*
X0378551Y0171150D01*
X0378423Y0171359D01*
X0378299Y0171571D01*
X0378181Y0171786D01*
X0378068Y0172004D01*
X0377960Y0172224D01*
X0377858Y0172448D01*
X0377761Y0172673D01*
X0377670Y0172901D01*
X0377585Y0173131D01*
X0377505Y0173363D01*
X0377431Y0173597D01*
X0377362Y0173833D01*
X0377300Y0174070D01*
X0377243Y0174309D01*
X0377192Y0174549D01*
X0377147Y0174790D01*
X0377108Y0175033D01*
X0377075Y0175276D01*
X0377048Y0175520D01*
X0377027Y0175764D01*
X0377012Y0176009D01*
X0377003Y0176255D01*
X0377000Y0176500D01*
X0367000Y0169000D02*
X0367000Y0164000D01*
X0364500Y0161500D01*
X0359500Y0161500D01*
X0357000Y0164000D01*
X0357000Y0169000D01*
X0359500Y0171500D01*
X0364500Y0171500D01*
X0367000Y0169000D01*
X0377000Y0146500D02*
X0377003Y0146745D01*
X0377012Y0146991D01*
X0377027Y0147236D01*
X0377048Y0147480D01*
X0377075Y0147724D01*
X0377108Y0147967D01*
X0377147Y0148210D01*
X0377192Y0148451D01*
X0377243Y0148691D01*
X0377300Y0148930D01*
X0377362Y0149167D01*
X0377431Y0149403D01*
X0377505Y0149637D01*
X0377585Y0149869D01*
X0377670Y0150099D01*
X0377761Y0150327D01*
X0377858Y0150552D01*
X0377960Y0150776D01*
X0378068Y0150996D01*
X0378181Y0151214D01*
X0378299Y0151429D01*
X0378423Y0151641D01*
X0378551Y0151850D01*
X0378685Y0152056D01*
X0378824Y0152258D01*
X0378968Y0152457D01*
X0379117Y0152652D01*
X0379270Y0152844D01*
X0379428Y0153032D01*
X0379590Y0153216D01*
X0379758Y0153395D01*
X0379929Y0153571D01*
X0380105Y0153742D01*
X0380284Y0153910D01*
X0380468Y0154072D01*
X0380656Y0154230D01*
X0380848Y0154383D01*
X0381043Y0154532D01*
X0381242Y0154676D01*
X0381444Y0154815D01*
X0381650Y0154949D01*
X0381859Y0155077D01*
X0382071Y0155201D01*
X0382286Y0155319D01*
X0382504Y0155432D01*
X0382724Y0155540D01*
X0382948Y0155642D01*
X0383173Y0155739D01*
X0383401Y0155830D01*
X0383631Y0155915D01*
X0383863Y0155995D01*
X0384097Y0156069D01*
X0384333Y0156138D01*
X0384570Y0156200D01*
X0384809Y0156257D01*
X0385049Y0156308D01*
X0385290Y0156353D01*
X0385533Y0156392D01*
X0385776Y0156425D01*
X0386020Y0156452D01*
X0386264Y0156473D01*
X0386509Y0156488D01*
X0386755Y0156497D01*
X0387000Y0156500D01*
X0387245Y0156497D01*
X0387491Y0156488D01*
X0387736Y0156473D01*
X0387980Y0156452D01*
X0388224Y0156425D01*
X0388467Y0156392D01*
X0388710Y0156353D01*
X0388951Y0156308D01*
X0389191Y0156257D01*
X0389430Y0156200D01*
X0389667Y0156138D01*
X0389903Y0156069D01*
X0390137Y0155995D01*
X0390369Y0155915D01*
X0390599Y0155830D01*
X0390827Y0155739D01*
X0391052Y0155642D01*
X0391276Y0155540D01*
X0391496Y0155432D01*
X0391714Y0155319D01*
X0391929Y0155201D01*
X0392141Y0155077D01*
X0392350Y0154949D01*
X0392556Y0154815D01*
X0392758Y0154676D01*
X0392957Y0154532D01*
X0393152Y0154383D01*
X0393344Y0154230D01*
X0393532Y0154072D01*
X0393716Y0153910D01*
X0393895Y0153742D01*
X0394071Y0153571D01*
X0394242Y0153395D01*
X0394410Y0153216D01*
X0394572Y0153032D01*
X0394730Y0152844D01*
X0394883Y0152652D01*
X0395032Y0152457D01*
X0395176Y0152258D01*
X0395315Y0152056D01*
X0395449Y0151850D01*
X0395577Y0151641D01*
X0395701Y0151429D01*
X0395819Y0151214D01*
X0395932Y0150996D01*
X0396040Y0150776D01*
X0396142Y0150552D01*
X0396239Y0150327D01*
X0396330Y0150099D01*
X0396415Y0149869D01*
X0396495Y0149637D01*
X0396569Y0149403D01*
X0396638Y0149167D01*
X0396700Y0148930D01*
X0396757Y0148691D01*
X0396808Y0148451D01*
X0396853Y0148210D01*
X0396892Y0147967D01*
X0396925Y0147724D01*
X0396952Y0147480D01*
X0396973Y0147236D01*
X0396988Y0146991D01*
X0396997Y0146745D01*
X0397000Y0146500D01*
X0396997Y0146255D01*
X0396988Y0146009D01*
X0396973Y0145764D01*
X0396952Y0145520D01*
X0396925Y0145276D01*
X0396892Y0145033D01*
X0396853Y0144790D01*
X0396808Y0144549D01*
X0396757Y0144309D01*
X0396700Y0144070D01*
X0396638Y0143833D01*
X0396569Y0143597D01*
X0396495Y0143363D01*
X0396415Y0143131D01*
X0396330Y0142901D01*
X0396239Y0142673D01*
X0396142Y0142448D01*
X0396040Y0142224D01*
X0395932Y0142004D01*
X0395819Y0141786D01*
X0395701Y0141571D01*
X0395577Y0141359D01*
X0395449Y0141150D01*
X0395315Y0140944D01*
X0395176Y0140742D01*
X0395032Y0140543D01*
X0394883Y0140348D01*
X0394730Y0140156D01*
X0394572Y0139968D01*
X0394410Y0139784D01*
X0394242Y0139605D01*
X0394071Y0139429D01*
X0393895Y0139258D01*
X0393716Y0139090D01*
X0393532Y0138928D01*
X0393344Y0138770D01*
X0393152Y0138617D01*
X0392957Y0138468D01*
X0392758Y0138324D01*
X0392556Y0138185D01*
X0392350Y0138051D01*
X0392141Y0137923D01*
X0391929Y0137799D01*
X0391714Y0137681D01*
X0391496Y0137568D01*
X0391276Y0137460D01*
X0391052Y0137358D01*
X0390827Y0137261D01*
X0390599Y0137170D01*
X0390369Y0137085D01*
X0390137Y0137005D01*
X0389903Y0136931D01*
X0389667Y0136862D01*
X0389430Y0136800D01*
X0389191Y0136743D01*
X0388951Y0136692D01*
X0388710Y0136647D01*
X0388467Y0136608D01*
X0388224Y0136575D01*
X0387980Y0136548D01*
X0387736Y0136527D01*
X0387491Y0136512D01*
X0387245Y0136503D01*
X0387000Y0136500D01*
X0386755Y0136503D01*
X0386509Y0136512D01*
X0386264Y0136527D01*
X0386020Y0136548D01*
X0385776Y0136575D01*
X0385533Y0136608D01*
X0385290Y0136647D01*
X0385049Y0136692D01*
X0384809Y0136743D01*
X0384570Y0136800D01*
X0384333Y0136862D01*
X0384097Y0136931D01*
X0383863Y0137005D01*
X0383631Y0137085D01*
X0383401Y0137170D01*
X0383173Y0137261D01*
X0382948Y0137358D01*
X0382724Y0137460D01*
X0382504Y0137568D01*
X0382286Y0137681D01*
X0382071Y0137799D01*
X0381859Y0137923D01*
X0381650Y0138051D01*
X0381444Y0138185D01*
X0381242Y0138324D01*
X0381043Y0138468D01*
X0380848Y0138617D01*
X0380656Y0138770D01*
X0380468Y0138928D01*
X0380284Y0139090D01*
X0380105Y0139258D01*
X0379929Y0139429D01*
X0379758Y0139605D01*
X0379590Y0139784D01*
X0379428Y0139968D01*
X0379270Y0140156D01*
X0379117Y0140348D01*
X0378968Y0140543D01*
X0378824Y0140742D01*
X0378685Y0140944D01*
X0378551Y0141150D01*
X0378423Y0141359D01*
X0378299Y0141571D01*
X0378181Y0141786D01*
X0378068Y0142004D01*
X0377960Y0142224D01*
X0377858Y0142448D01*
X0377761Y0142673D01*
X0377670Y0142901D01*
X0377585Y0143131D01*
X0377505Y0143363D01*
X0377431Y0143597D01*
X0377362Y0143833D01*
X0377300Y0144070D01*
X0377243Y0144309D01*
X0377192Y0144549D01*
X0377147Y0144790D01*
X0377108Y0145033D01*
X0377075Y0145276D01*
X0377048Y0145520D01*
X0377027Y0145764D01*
X0377012Y0146009D01*
X0377003Y0146255D01*
X0377000Y0146500D01*
X0377000Y0116500D02*
X0377003Y0116745D01*
X0377012Y0116991D01*
X0377027Y0117236D01*
X0377048Y0117480D01*
X0377075Y0117724D01*
X0377108Y0117967D01*
X0377147Y0118210D01*
X0377192Y0118451D01*
X0377243Y0118691D01*
X0377300Y0118930D01*
X0377362Y0119167D01*
X0377431Y0119403D01*
X0377505Y0119637D01*
X0377585Y0119869D01*
X0377670Y0120099D01*
X0377761Y0120327D01*
X0377858Y0120552D01*
X0377960Y0120776D01*
X0378068Y0120996D01*
X0378181Y0121214D01*
X0378299Y0121429D01*
X0378423Y0121641D01*
X0378551Y0121850D01*
X0378685Y0122056D01*
X0378824Y0122258D01*
X0378968Y0122457D01*
X0379117Y0122652D01*
X0379270Y0122844D01*
X0379428Y0123032D01*
X0379590Y0123216D01*
X0379758Y0123395D01*
X0379929Y0123571D01*
X0380105Y0123742D01*
X0380284Y0123910D01*
X0380468Y0124072D01*
X0380656Y0124230D01*
X0380848Y0124383D01*
X0381043Y0124532D01*
X0381242Y0124676D01*
X0381444Y0124815D01*
X0381650Y0124949D01*
X0381859Y0125077D01*
X0382071Y0125201D01*
X0382286Y0125319D01*
X0382504Y0125432D01*
X0382724Y0125540D01*
X0382948Y0125642D01*
X0383173Y0125739D01*
X0383401Y0125830D01*
X0383631Y0125915D01*
X0383863Y0125995D01*
X0384097Y0126069D01*
X0384333Y0126138D01*
X0384570Y0126200D01*
X0384809Y0126257D01*
X0385049Y0126308D01*
X0385290Y0126353D01*
X0385533Y0126392D01*
X0385776Y0126425D01*
X0386020Y0126452D01*
X0386264Y0126473D01*
X0386509Y0126488D01*
X0386755Y0126497D01*
X0387000Y0126500D01*
X0387245Y0126497D01*
X0387491Y0126488D01*
X0387736Y0126473D01*
X0387980Y0126452D01*
X0388224Y0126425D01*
X0388467Y0126392D01*
X0388710Y0126353D01*
X0388951Y0126308D01*
X0389191Y0126257D01*
X0389430Y0126200D01*
X0389667Y0126138D01*
X0389903Y0126069D01*
X0390137Y0125995D01*
X0390369Y0125915D01*
X0390599Y0125830D01*
X0390827Y0125739D01*
X0391052Y0125642D01*
X0391276Y0125540D01*
X0391496Y0125432D01*
X0391714Y0125319D01*
X0391929Y0125201D01*
X0392141Y0125077D01*
X0392350Y0124949D01*
X0392556Y0124815D01*
X0392758Y0124676D01*
X0392957Y0124532D01*
X0393152Y0124383D01*
X0393344Y0124230D01*
X0393532Y0124072D01*
X0393716Y0123910D01*
X0393895Y0123742D01*
X0394071Y0123571D01*
X0394242Y0123395D01*
X0394410Y0123216D01*
X0394572Y0123032D01*
X0394730Y0122844D01*
X0394883Y0122652D01*
X0395032Y0122457D01*
X0395176Y0122258D01*
X0395315Y0122056D01*
X0395449Y0121850D01*
X0395577Y0121641D01*
X0395701Y0121429D01*
X0395819Y0121214D01*
X0395932Y0120996D01*
X0396040Y0120776D01*
X0396142Y0120552D01*
X0396239Y0120327D01*
X0396330Y0120099D01*
X0396415Y0119869D01*
X0396495Y0119637D01*
X0396569Y0119403D01*
X0396638Y0119167D01*
X0396700Y0118930D01*
X0396757Y0118691D01*
X0396808Y0118451D01*
X0396853Y0118210D01*
X0396892Y0117967D01*
X0396925Y0117724D01*
X0396952Y0117480D01*
X0396973Y0117236D01*
X0396988Y0116991D01*
X0396997Y0116745D01*
X0397000Y0116500D01*
X0396997Y0116255D01*
X0396988Y0116009D01*
X0396973Y0115764D01*
X0396952Y0115520D01*
X0396925Y0115276D01*
X0396892Y0115033D01*
X0396853Y0114790D01*
X0396808Y0114549D01*
X0396757Y0114309D01*
X0396700Y0114070D01*
X0396638Y0113833D01*
X0396569Y0113597D01*
X0396495Y0113363D01*
X0396415Y0113131D01*
X0396330Y0112901D01*
X0396239Y0112673D01*
X0396142Y0112448D01*
X0396040Y0112224D01*
X0395932Y0112004D01*
X0395819Y0111786D01*
X0395701Y0111571D01*
X0395577Y0111359D01*
X0395449Y0111150D01*
X0395315Y0110944D01*
X0395176Y0110742D01*
X0395032Y0110543D01*
X0394883Y0110348D01*
X0394730Y0110156D01*
X0394572Y0109968D01*
X0394410Y0109784D01*
X0394242Y0109605D01*
X0394071Y0109429D01*
X0393895Y0109258D01*
X0393716Y0109090D01*
X0393532Y0108928D01*
X0393344Y0108770D01*
X0393152Y0108617D01*
X0392957Y0108468D01*
X0392758Y0108324D01*
X0392556Y0108185D01*
X0392350Y0108051D01*
X0392141Y0107923D01*
X0391929Y0107799D01*
X0391714Y0107681D01*
X0391496Y0107568D01*
X0391276Y0107460D01*
X0391052Y0107358D01*
X0390827Y0107261D01*
X0390599Y0107170D01*
X0390369Y0107085D01*
X0390137Y0107005D01*
X0389903Y0106931D01*
X0389667Y0106862D01*
X0389430Y0106800D01*
X0389191Y0106743D01*
X0388951Y0106692D01*
X0388710Y0106647D01*
X0388467Y0106608D01*
X0388224Y0106575D01*
X0387980Y0106548D01*
X0387736Y0106527D01*
X0387491Y0106512D01*
X0387245Y0106503D01*
X0387000Y0106500D01*
X0386755Y0106503D01*
X0386509Y0106512D01*
X0386264Y0106527D01*
X0386020Y0106548D01*
X0385776Y0106575D01*
X0385533Y0106608D01*
X0385290Y0106647D01*
X0385049Y0106692D01*
X0384809Y0106743D01*
X0384570Y0106800D01*
X0384333Y0106862D01*
X0384097Y0106931D01*
X0383863Y0107005D01*
X0383631Y0107085D01*
X0383401Y0107170D01*
X0383173Y0107261D01*
X0382948Y0107358D01*
X0382724Y0107460D01*
X0382504Y0107568D01*
X0382286Y0107681D01*
X0382071Y0107799D01*
X0381859Y0107923D01*
X0381650Y0108051D01*
X0381444Y0108185D01*
X0381242Y0108324D01*
X0381043Y0108468D01*
X0380848Y0108617D01*
X0380656Y0108770D01*
X0380468Y0108928D01*
X0380284Y0109090D01*
X0380105Y0109258D01*
X0379929Y0109429D01*
X0379758Y0109605D01*
X0379590Y0109784D01*
X0379428Y0109968D01*
X0379270Y0110156D01*
X0379117Y0110348D01*
X0378968Y0110543D01*
X0378824Y0110742D01*
X0378685Y0110944D01*
X0378551Y0111150D01*
X0378423Y0111359D01*
X0378299Y0111571D01*
X0378181Y0111786D01*
X0378068Y0112004D01*
X0377960Y0112224D01*
X0377858Y0112448D01*
X0377761Y0112673D01*
X0377670Y0112901D01*
X0377585Y0113131D01*
X0377505Y0113363D01*
X0377431Y0113597D01*
X0377362Y0113833D01*
X0377300Y0114070D01*
X0377243Y0114309D01*
X0377192Y0114549D01*
X0377147Y0114790D01*
X0377108Y0115033D01*
X0377075Y0115276D01*
X0377048Y0115520D01*
X0377027Y0115764D01*
X0377012Y0116009D01*
X0377003Y0116255D01*
X0377000Y0116500D01*
X0377000Y0086500D02*
X0377003Y0086745D01*
X0377012Y0086991D01*
X0377027Y0087236D01*
X0377048Y0087480D01*
X0377075Y0087724D01*
X0377108Y0087967D01*
X0377147Y0088210D01*
X0377192Y0088451D01*
X0377243Y0088691D01*
X0377300Y0088930D01*
X0377362Y0089167D01*
X0377431Y0089403D01*
X0377505Y0089637D01*
X0377585Y0089869D01*
X0377670Y0090099D01*
X0377761Y0090327D01*
X0377858Y0090552D01*
X0377960Y0090776D01*
X0378068Y0090996D01*
X0378181Y0091214D01*
X0378299Y0091429D01*
X0378423Y0091641D01*
X0378551Y0091850D01*
X0378685Y0092056D01*
X0378824Y0092258D01*
X0378968Y0092457D01*
X0379117Y0092652D01*
X0379270Y0092844D01*
X0379428Y0093032D01*
X0379590Y0093216D01*
X0379758Y0093395D01*
X0379929Y0093571D01*
X0380105Y0093742D01*
X0380284Y0093910D01*
X0380468Y0094072D01*
X0380656Y0094230D01*
X0380848Y0094383D01*
X0381043Y0094532D01*
X0381242Y0094676D01*
X0381444Y0094815D01*
X0381650Y0094949D01*
X0381859Y0095077D01*
X0382071Y0095201D01*
X0382286Y0095319D01*
X0382504Y0095432D01*
X0382724Y0095540D01*
X0382948Y0095642D01*
X0383173Y0095739D01*
X0383401Y0095830D01*
X0383631Y0095915D01*
X0383863Y0095995D01*
X0384097Y0096069D01*
X0384333Y0096138D01*
X0384570Y0096200D01*
X0384809Y0096257D01*
X0385049Y0096308D01*
X0385290Y0096353D01*
X0385533Y0096392D01*
X0385776Y0096425D01*
X0386020Y0096452D01*
X0386264Y0096473D01*
X0386509Y0096488D01*
X0386755Y0096497D01*
X0387000Y0096500D01*
X0387245Y0096497D01*
X0387491Y0096488D01*
X0387736Y0096473D01*
X0387980Y0096452D01*
X0388224Y0096425D01*
X0388467Y0096392D01*
X0388710Y0096353D01*
X0388951Y0096308D01*
X0389191Y0096257D01*
X0389430Y0096200D01*
X0389667Y0096138D01*
X0389903Y0096069D01*
X0390137Y0095995D01*
X0390369Y0095915D01*
X0390599Y0095830D01*
X0390827Y0095739D01*
X0391052Y0095642D01*
X0391276Y0095540D01*
X0391496Y0095432D01*
X0391714Y0095319D01*
X0391929Y0095201D01*
X0392141Y0095077D01*
X0392350Y0094949D01*
X0392556Y0094815D01*
X0392758Y0094676D01*
X0392957Y0094532D01*
X0393152Y0094383D01*
X0393344Y0094230D01*
X0393532Y0094072D01*
X0393716Y0093910D01*
X0393895Y0093742D01*
X0394071Y0093571D01*
X0394242Y0093395D01*
X0394410Y0093216D01*
X0394572Y0093032D01*
X0394730Y0092844D01*
X0394883Y0092652D01*
X0395032Y0092457D01*
X0395176Y0092258D01*
X0395315Y0092056D01*
X0395449Y0091850D01*
X0395577Y0091641D01*
X0395701Y0091429D01*
X0395819Y0091214D01*
X0395932Y0090996D01*
X0396040Y0090776D01*
X0396142Y0090552D01*
X0396239Y0090327D01*
X0396330Y0090099D01*
X0396415Y0089869D01*
X0396495Y0089637D01*
X0396569Y0089403D01*
X0396638Y0089167D01*
X0396700Y0088930D01*
X0396757Y0088691D01*
X0396808Y0088451D01*
X0396853Y0088210D01*
X0396892Y0087967D01*
X0396925Y0087724D01*
X0396952Y0087480D01*
X0396973Y0087236D01*
X0396988Y0086991D01*
X0396997Y0086745D01*
X0397000Y0086500D01*
X0396997Y0086255D01*
X0396988Y0086009D01*
X0396973Y0085764D01*
X0396952Y0085520D01*
X0396925Y0085276D01*
X0396892Y0085033D01*
X0396853Y0084790D01*
X0396808Y0084549D01*
X0396757Y0084309D01*
X0396700Y0084070D01*
X0396638Y0083833D01*
X0396569Y0083597D01*
X0396495Y0083363D01*
X0396415Y0083131D01*
X0396330Y0082901D01*
X0396239Y0082673D01*
X0396142Y0082448D01*
X0396040Y0082224D01*
X0395932Y0082004D01*
X0395819Y0081786D01*
X0395701Y0081571D01*
X0395577Y0081359D01*
X0395449Y0081150D01*
X0395315Y0080944D01*
X0395176Y0080742D01*
X0395032Y0080543D01*
X0394883Y0080348D01*
X0394730Y0080156D01*
X0394572Y0079968D01*
X0394410Y0079784D01*
X0394242Y0079605D01*
X0394071Y0079429D01*
X0393895Y0079258D01*
X0393716Y0079090D01*
X0393532Y0078928D01*
X0393344Y0078770D01*
X0393152Y0078617D01*
X0392957Y0078468D01*
X0392758Y0078324D01*
X0392556Y0078185D01*
X0392350Y0078051D01*
X0392141Y0077923D01*
X0391929Y0077799D01*
X0391714Y0077681D01*
X0391496Y0077568D01*
X0391276Y0077460D01*
X0391052Y0077358D01*
X0390827Y0077261D01*
X0390599Y0077170D01*
X0390369Y0077085D01*
X0390137Y0077005D01*
X0389903Y0076931D01*
X0389667Y0076862D01*
X0389430Y0076800D01*
X0389191Y0076743D01*
X0388951Y0076692D01*
X0388710Y0076647D01*
X0388467Y0076608D01*
X0388224Y0076575D01*
X0387980Y0076548D01*
X0387736Y0076527D01*
X0387491Y0076512D01*
X0387245Y0076503D01*
X0387000Y0076500D01*
X0386755Y0076503D01*
X0386509Y0076512D01*
X0386264Y0076527D01*
X0386020Y0076548D01*
X0385776Y0076575D01*
X0385533Y0076608D01*
X0385290Y0076647D01*
X0385049Y0076692D01*
X0384809Y0076743D01*
X0384570Y0076800D01*
X0384333Y0076862D01*
X0384097Y0076931D01*
X0383863Y0077005D01*
X0383631Y0077085D01*
X0383401Y0077170D01*
X0383173Y0077261D01*
X0382948Y0077358D01*
X0382724Y0077460D01*
X0382504Y0077568D01*
X0382286Y0077681D01*
X0382071Y0077799D01*
X0381859Y0077923D01*
X0381650Y0078051D01*
X0381444Y0078185D01*
X0381242Y0078324D01*
X0381043Y0078468D01*
X0380848Y0078617D01*
X0380656Y0078770D01*
X0380468Y0078928D01*
X0380284Y0079090D01*
X0380105Y0079258D01*
X0379929Y0079429D01*
X0379758Y0079605D01*
X0379590Y0079784D01*
X0379428Y0079968D01*
X0379270Y0080156D01*
X0379117Y0080348D01*
X0378968Y0080543D01*
X0378824Y0080742D01*
X0378685Y0080944D01*
X0378551Y0081150D01*
X0378423Y0081359D01*
X0378299Y0081571D01*
X0378181Y0081786D01*
X0378068Y0082004D01*
X0377960Y0082224D01*
X0377858Y0082448D01*
X0377761Y0082673D01*
X0377670Y0082901D01*
X0377585Y0083131D01*
X0377505Y0083363D01*
X0377431Y0083597D01*
X0377362Y0083833D01*
X0377300Y0084070D01*
X0377243Y0084309D01*
X0377192Y0084549D01*
X0377147Y0084790D01*
X0377108Y0085033D01*
X0377075Y0085276D01*
X0377048Y0085520D01*
X0377027Y0085764D01*
X0377012Y0086009D01*
X0377003Y0086255D01*
X0377000Y0086500D01*
X0312000Y0084000D02*
X0309500Y0081500D01*
X0312000Y0079000D01*
X0312000Y0074000D01*
X0309500Y0071500D01*
X0312000Y0069000D01*
X0312000Y0064000D01*
X0309500Y0061500D01*
X0304500Y0061500D01*
X0302000Y0064000D01*
X0302000Y0069000D01*
X0304500Y0071500D01*
X0302000Y0074000D01*
X0302000Y0079000D01*
X0304500Y0081500D01*
X0309500Y0081500D01*
X0312000Y0084000D02*
X0312000Y0089000D01*
X0309500Y0091500D01*
X0312000Y0094000D01*
X0312000Y0099000D01*
X0309500Y0101500D01*
X0312000Y0104000D01*
X0312000Y0109000D01*
X0309500Y0111500D01*
X0304500Y0111500D01*
X0302000Y0109000D01*
X0302000Y0104000D01*
X0304500Y0101500D01*
X0309500Y0101500D01*
X0304500Y0101500D02*
X0302000Y0099000D01*
X0302000Y0094000D01*
X0304500Y0091500D01*
X0309500Y0091500D01*
X0304500Y0091500D02*
X0302000Y0089000D01*
X0302000Y0084000D01*
X0304500Y0081500D01*
X0304500Y0071500D02*
X0309500Y0071500D01*
X0282000Y0069000D02*
X0282000Y0064000D01*
X0279500Y0061500D01*
X0274500Y0061500D01*
X0272000Y0064000D01*
X0272000Y0069000D01*
X0274500Y0071500D01*
X0272000Y0074000D01*
X0272000Y0079000D01*
X0274500Y0081500D01*
X0279500Y0081500D01*
X0282000Y0079000D01*
X0282000Y0074000D01*
X0279500Y0071500D01*
X0282000Y0069000D01*
X0279500Y0071500D02*
X0274500Y0071500D01*
X0274500Y0081500D02*
X0272000Y0084000D01*
X0272000Y0089000D01*
X0274500Y0091500D01*
X0272000Y0094000D01*
X0272000Y0099000D01*
X0274500Y0101500D01*
X0272000Y0104000D01*
X0272000Y0109000D01*
X0274500Y0111500D01*
X0279500Y0111500D01*
X0282000Y0109000D01*
X0282000Y0104000D01*
X0279500Y0101500D01*
X0282000Y0099000D01*
X0282000Y0094000D01*
X0279500Y0091500D01*
X0282000Y0089000D01*
X0282000Y0084000D01*
X0279500Y0081500D01*
X0279500Y0091500D02*
X0274500Y0091500D01*
X0274500Y0101500D02*
X0279500Y0101500D01*
X0279500Y0111500D02*
X0282000Y0114000D01*
X0282000Y0119000D01*
X0279500Y0121500D01*
X0282000Y0124000D01*
X0282000Y0129000D01*
X0279500Y0131500D01*
X0282000Y0134000D01*
X0282000Y0139000D01*
X0279500Y0141500D01*
X0282000Y0144000D01*
X0282000Y0149000D01*
X0279500Y0151500D01*
X0274500Y0151500D01*
X0272000Y0149000D01*
X0272000Y0144000D01*
X0274500Y0141500D01*
X0279500Y0141500D01*
X0274500Y0141500D02*
X0272000Y0139000D01*
X0272000Y0134000D01*
X0274500Y0131500D01*
X0279500Y0131500D01*
X0274500Y0131500D02*
X0272000Y0129000D01*
X0272000Y0124000D01*
X0274500Y0121500D01*
X0279500Y0121500D01*
X0274500Y0121500D02*
X0272000Y0119000D01*
X0272000Y0114000D01*
X0274500Y0111500D01*
X0247000Y0109000D02*
X0247000Y0104000D01*
X0244500Y0101500D01*
X0247000Y0099000D01*
X0247000Y0094000D01*
X0244500Y0091500D01*
X0247000Y0089000D01*
X0247000Y0084000D01*
X0244500Y0081500D01*
X0247000Y0079000D01*
X0247000Y0074000D01*
X0244500Y0071500D01*
X0247000Y0069000D01*
X0247000Y0064000D01*
X0244500Y0061500D01*
X0239500Y0061500D01*
X0237000Y0064000D01*
X0237000Y0069000D01*
X0239500Y0071500D01*
X0237000Y0074000D01*
X0237000Y0079000D01*
X0239500Y0081500D01*
X0244500Y0081500D01*
X0239500Y0081500D02*
X0237000Y0084000D01*
X0237000Y0089000D01*
X0239500Y0091500D01*
X0237000Y0094000D01*
X0237000Y0099000D01*
X0239500Y0101500D01*
X0237000Y0104000D01*
X0237000Y0109000D01*
X0239500Y0111500D01*
X0244500Y0111500D01*
X0247000Y0109000D01*
X0244500Y0111500D02*
X0247000Y0114000D01*
X0247000Y0119000D01*
X0244500Y0121500D01*
X0247000Y0124000D01*
X0247000Y0129000D01*
X0244500Y0131500D01*
X0247000Y0134000D01*
X0247000Y0139000D01*
X0244500Y0141500D01*
X0247000Y0144000D01*
X0247000Y0149000D01*
X0244500Y0151500D01*
X0239500Y0151500D01*
X0237000Y0149000D01*
X0237000Y0144000D01*
X0239500Y0141500D01*
X0244500Y0141500D01*
X0239500Y0141500D02*
X0237000Y0139000D01*
X0237000Y0134000D01*
X0239500Y0131500D01*
X0244500Y0131500D01*
X0239500Y0131500D02*
X0237000Y0129000D01*
X0237000Y0124000D01*
X0239500Y0121500D01*
X0244500Y0121500D01*
X0239500Y0121500D02*
X0237000Y0119000D01*
X0237000Y0114000D01*
X0239500Y0111500D01*
X0239500Y0101500D02*
X0244500Y0101500D01*
X0244500Y0091500D02*
X0239500Y0091500D01*
X0212000Y0089000D02*
X0212000Y0084000D01*
X0209500Y0081500D01*
X0212000Y0079000D01*
X0212000Y0074000D01*
X0209500Y0071500D01*
X0212000Y0069000D01*
X0212000Y0064000D01*
X0209500Y0061500D01*
X0204500Y0061500D01*
X0202000Y0064000D01*
X0202000Y0069000D01*
X0204500Y0071500D01*
X0202000Y0074000D01*
X0202000Y0079000D01*
X0204500Y0081500D01*
X0209500Y0081500D01*
X0204500Y0081500D02*
X0202000Y0084000D01*
X0202000Y0089000D01*
X0204500Y0091500D01*
X0202000Y0094000D01*
X0202000Y0099000D01*
X0204500Y0101500D01*
X0202000Y0104000D01*
X0202000Y0109000D01*
X0204500Y0111500D01*
X0209500Y0111500D01*
X0212000Y0109000D01*
X0212000Y0104000D01*
X0209500Y0101500D01*
X0212000Y0099000D01*
X0212000Y0094000D01*
X0209500Y0091500D01*
X0212000Y0089000D01*
X0209500Y0091500D02*
X0204500Y0091500D01*
X0204500Y0101500D02*
X0209500Y0101500D01*
X0209500Y0111500D02*
X0212000Y0114000D01*
X0212000Y0119000D01*
X0209500Y0121500D01*
X0212000Y0124000D01*
X0212000Y0129000D01*
X0209500Y0131500D01*
X0212000Y0134000D01*
X0212000Y0139000D01*
X0209500Y0141500D01*
X0212000Y0144000D01*
X0212000Y0149000D01*
X0209500Y0151500D01*
X0204500Y0151500D01*
X0202000Y0149000D01*
X0202000Y0144000D01*
X0204500Y0141500D01*
X0209500Y0141500D01*
X0204500Y0141500D02*
X0202000Y0139000D01*
X0202000Y0134000D01*
X0204500Y0131500D01*
X0209500Y0131500D01*
X0204500Y0131500D02*
X0202000Y0129000D01*
X0202000Y0124000D01*
X0204500Y0121500D01*
X0209500Y0121500D01*
X0204500Y0121500D02*
X0202000Y0119000D01*
X0202000Y0114000D01*
X0204500Y0111500D01*
X0204500Y0071500D02*
X0209500Y0071500D01*
X0239500Y0071500D02*
X0244500Y0071500D01*
X0244500Y0051500D02*
X0239500Y0051500D01*
X0237000Y0049000D01*
X0237000Y0044000D01*
X0239500Y0041500D01*
X0244500Y0041500D01*
X0247000Y0044000D01*
X0249500Y0041500D01*
X0254500Y0041500D01*
X0257000Y0044000D01*
X0257000Y0049000D01*
X0254500Y0051500D01*
X0249500Y0051500D01*
X0247000Y0049000D01*
X0247000Y0044000D01*
X0247000Y0049000D02*
X0244500Y0051500D01*
X0237000Y0049000D02*
X0234500Y0051500D01*
X0229500Y0051500D01*
X0227000Y0049000D01*
X0227000Y0044000D01*
X0229500Y0041500D01*
X0234500Y0041500D01*
X0237000Y0044000D01*
X0202000Y0044000D02*
X0199500Y0041500D01*
X0194500Y0041500D01*
X0192000Y0044000D01*
X0189500Y0041500D01*
X0184500Y0041500D01*
X0182000Y0044000D01*
X0179500Y0041500D01*
X0174500Y0041500D01*
X0172000Y0044000D01*
X0172000Y0049000D01*
X0174500Y0051500D01*
X0179500Y0051500D01*
X0182000Y0049000D01*
X0184500Y0051500D01*
X0189500Y0051500D01*
X0192000Y0049000D01*
X0194500Y0051500D01*
X0199500Y0051500D01*
X0202000Y0049000D01*
X0202000Y0044000D01*
X0192000Y0044000D02*
X0192000Y0049000D01*
X0182000Y0049000D02*
X0182000Y0044000D01*
X0302000Y0114000D02*
X0304500Y0111500D01*
X0302000Y0114000D02*
X0302000Y0119000D01*
X0304500Y0121500D01*
X0302000Y0124000D01*
X0302000Y0129000D01*
X0304500Y0131500D01*
X0302000Y0134000D01*
X0302000Y0139000D01*
X0304500Y0141500D01*
X0302000Y0144000D01*
X0302000Y0149000D01*
X0304500Y0151500D01*
X0309500Y0151500D01*
X0312000Y0149000D01*
X0312000Y0144000D01*
X0309500Y0141500D01*
X0312000Y0139000D01*
X0312000Y0134000D01*
X0309500Y0131500D01*
X0312000Y0129000D01*
X0312000Y0124000D01*
X0309500Y0121500D01*
X0312000Y0119000D01*
X0312000Y0114000D01*
X0309500Y0111500D01*
X0309500Y0121500D02*
X0304500Y0121500D01*
X0304500Y0131500D02*
X0309500Y0131500D01*
X0309500Y0141500D02*
X0304500Y0141500D01*
D15*
X0297500Y0134000D02*
X0294500Y0134000D01*
X0294500Y0135000D01*
X0294500Y0134000D02*
X0291500Y0134000D01*
X0291500Y0114000D01*
X0294500Y0114000D01*
X0294500Y0113000D01*
X0294500Y0114000D02*
X0297500Y0114000D01*
X0297500Y0134000D01*
X0262500Y0141500D02*
X0259500Y0141500D01*
X0259500Y0140500D01*
X0259500Y0141500D02*
X0256500Y0141500D01*
X0256500Y0161500D01*
X0259500Y0161500D01*
X0259500Y0162500D01*
X0259500Y0161500D02*
X0262500Y0161500D01*
X0262500Y0141500D01*
X0227500Y0141500D02*
X0227500Y0161500D01*
X0224500Y0161500D01*
X0224500Y0162500D01*
X0224500Y0161500D02*
X0221500Y0161500D01*
X0221500Y0141500D01*
X0224500Y0141500D01*
X0224500Y0140500D01*
X0224500Y0141500D02*
X0227500Y0141500D01*
X0192500Y0141500D02*
X0189500Y0141500D01*
X0189500Y0140500D01*
X0189500Y0141500D02*
X0186500Y0141500D01*
X0186500Y0161500D01*
X0189500Y0161500D01*
X0189500Y0162500D01*
X0189500Y0161500D02*
X0192500Y0161500D01*
X0192500Y0141500D01*
X0292630Y0194965D02*
X0292630Y0228035D01*
X0313622Y0228035D01*
X0313622Y0226854D01*
X0319445Y0226854D01*
X0319445Y0228035D01*
X0339587Y0228035D01*
X0354413Y0228035D01*
X0373622Y0228035D01*
X0373622Y0226854D01*
X0379445Y0226854D01*
X0379445Y0228035D01*
X0401370Y0228035D01*
X0401370Y0194965D01*
X0379413Y0194965D01*
X0379413Y0201067D01*
X0364587Y0201067D01*
X0364587Y0194965D01*
X0329413Y0194965D01*
X0329413Y0201067D01*
X0314587Y0201067D01*
X0314587Y0194965D01*
X0292630Y0194965D01*
X0297059Y0198606D02*
X0297059Y0224394D01*
X0339587Y0224394D01*
X0339587Y0221933D02*
X0354413Y0221933D01*
X0354413Y0228035D01*
X0354413Y0224394D02*
X0396941Y0224394D01*
X0396941Y0198606D01*
X0379441Y0198606D01*
X0379413Y0194965D02*
X0364587Y0194965D01*
X0364579Y0198606D02*
X0329421Y0198606D01*
X0329413Y0194965D02*
X0314587Y0194965D01*
X0314559Y0198606D02*
X0297059Y0198606D01*
X0339587Y0221933D02*
X0339587Y0228035D01*
X0377000Y0184000D02*
X0377000Y0169000D01*
X0377000Y0154000D02*
X0377000Y0139000D01*
X0362000Y0134500D02*
X0362000Y0131500D01*
X0363000Y0131500D01*
X0362000Y0131500D02*
X0362000Y0128500D01*
X0342000Y0128500D01*
X0342000Y0131500D01*
X0341000Y0131500D01*
X0342000Y0131500D02*
X0342000Y0134500D01*
X0362000Y0134500D01*
X0362000Y0143500D02*
X0342000Y0143500D01*
X0342000Y0146500D01*
X0341000Y0146500D01*
X0342000Y0146500D02*
X0342000Y0149500D01*
X0362000Y0149500D01*
X0362000Y0146500D01*
X0363000Y0146500D01*
X0362000Y0146500D02*
X0362000Y0143500D01*
X0377000Y0124000D02*
X0377000Y0109000D01*
X0362000Y0104500D02*
X0362000Y0101500D01*
X0363000Y0101500D01*
X0362000Y0101500D02*
X0362000Y0098500D01*
X0342000Y0098500D01*
X0342000Y0101500D01*
X0341000Y0101500D01*
X0342000Y0101500D02*
X0342000Y0104500D01*
X0362000Y0104500D01*
X0362000Y0113500D02*
X0342000Y0113500D01*
X0342000Y0116500D01*
X0341000Y0116500D01*
X0342000Y0116500D02*
X0342000Y0119500D01*
X0362000Y0119500D01*
X0362000Y0116500D01*
X0363000Y0116500D01*
X0362000Y0116500D02*
X0362000Y0113500D01*
X0377000Y0094000D02*
X0377000Y0079000D01*
X0362000Y0083500D02*
X0342000Y0083500D01*
X0342000Y0086500D01*
X0341000Y0086500D01*
X0342000Y0086500D02*
X0342000Y0089500D01*
X0362000Y0089500D01*
X0362000Y0086500D01*
X0363000Y0086500D01*
X0362000Y0086500D02*
X0362000Y0083500D01*
X0362315Y0060122D02*
X0366252Y0060122D01*
X0362315Y0060122D02*
X0362191Y0060120D01*
X0362068Y0060114D01*
X0361944Y0060105D01*
X0361822Y0060091D01*
X0361699Y0060074D01*
X0361577Y0060052D01*
X0361456Y0060027D01*
X0361336Y0059998D01*
X0361217Y0059966D01*
X0361098Y0059929D01*
X0360981Y0059889D01*
X0360866Y0059846D01*
X0360751Y0059798D01*
X0360639Y0059747D01*
X0360528Y0059693D01*
X0360418Y0059635D01*
X0360311Y0059574D01*
X0360205Y0059509D01*
X0360102Y0059441D01*
X0360001Y0059370D01*
X0359902Y0059296D01*
X0359805Y0059219D01*
X0359711Y0059138D01*
X0359620Y0059055D01*
X0359531Y0058969D01*
X0359445Y0058880D01*
X0359362Y0058789D01*
X0359281Y0058695D01*
X0359204Y0058598D01*
X0359130Y0058499D01*
X0359059Y0058398D01*
X0358991Y0058295D01*
X0358926Y0058189D01*
X0358865Y0058082D01*
X0358807Y0057972D01*
X0358753Y0057861D01*
X0358702Y0057749D01*
X0358654Y0057634D01*
X0358611Y0057519D01*
X0358571Y0057402D01*
X0358534Y0057283D01*
X0358502Y0057164D01*
X0358473Y0057044D01*
X0358448Y0056923D01*
X0358426Y0056801D01*
X0358409Y0056678D01*
X0358395Y0056556D01*
X0358386Y0056432D01*
X0358380Y0056309D01*
X0358378Y0056185D01*
X0358378Y0016815D01*
X0358380Y0016691D01*
X0358386Y0016568D01*
X0358395Y0016444D01*
X0358409Y0016322D01*
X0358426Y0016199D01*
X0358448Y0016077D01*
X0358473Y0015956D01*
X0358502Y0015836D01*
X0358534Y0015717D01*
X0358571Y0015598D01*
X0358611Y0015481D01*
X0358654Y0015366D01*
X0358702Y0015251D01*
X0358753Y0015139D01*
X0358807Y0015028D01*
X0358865Y0014918D01*
X0358926Y0014811D01*
X0358991Y0014705D01*
X0359059Y0014602D01*
X0359130Y0014501D01*
X0359204Y0014402D01*
X0359281Y0014305D01*
X0359362Y0014211D01*
X0359445Y0014120D01*
X0359531Y0014031D01*
X0359620Y0013945D01*
X0359711Y0013862D01*
X0359805Y0013781D01*
X0359902Y0013704D01*
X0360001Y0013630D01*
X0360102Y0013559D01*
X0360205Y0013491D01*
X0360311Y0013426D01*
X0360418Y0013365D01*
X0360528Y0013307D01*
X0360639Y0013253D01*
X0360751Y0013202D01*
X0360866Y0013154D01*
X0360981Y0013111D01*
X0361098Y0013071D01*
X0361217Y0013034D01*
X0361336Y0013002D01*
X0361456Y0012973D01*
X0361577Y0012948D01*
X0361699Y0012926D01*
X0361822Y0012909D01*
X0361944Y0012895D01*
X0362068Y0012886D01*
X0362191Y0012880D01*
X0362315Y0012878D01*
X0366252Y0012878D01*
X0378063Y0012878D02*
X0385937Y0012878D01*
X0397748Y0012878D02*
X0401685Y0012878D01*
X0401809Y0012880D01*
X0401932Y0012886D01*
X0402056Y0012895D01*
X0402178Y0012909D01*
X0402301Y0012926D01*
X0402423Y0012948D01*
X0402544Y0012973D01*
X0402664Y0013002D01*
X0402783Y0013034D01*
X0402902Y0013071D01*
X0403019Y0013111D01*
X0403134Y0013154D01*
X0403249Y0013202D01*
X0403361Y0013253D01*
X0403472Y0013307D01*
X0403582Y0013365D01*
X0403689Y0013426D01*
X0403795Y0013491D01*
X0403898Y0013559D01*
X0403999Y0013630D01*
X0404098Y0013704D01*
X0404195Y0013781D01*
X0404289Y0013862D01*
X0404380Y0013945D01*
X0404469Y0014031D01*
X0404555Y0014120D01*
X0404638Y0014211D01*
X0404719Y0014305D01*
X0404796Y0014402D01*
X0404870Y0014501D01*
X0404941Y0014602D01*
X0405009Y0014705D01*
X0405074Y0014811D01*
X0405135Y0014918D01*
X0405193Y0015028D01*
X0405247Y0015139D01*
X0405298Y0015251D01*
X0405346Y0015366D01*
X0405389Y0015481D01*
X0405429Y0015598D01*
X0405466Y0015717D01*
X0405498Y0015836D01*
X0405527Y0015956D01*
X0405552Y0016077D01*
X0405574Y0016199D01*
X0405591Y0016322D01*
X0405605Y0016444D01*
X0405614Y0016568D01*
X0405620Y0016691D01*
X0405622Y0016815D01*
X0405622Y0056185D01*
X0405620Y0056309D01*
X0405614Y0056432D01*
X0405605Y0056556D01*
X0405591Y0056678D01*
X0405574Y0056801D01*
X0405552Y0056923D01*
X0405527Y0057044D01*
X0405498Y0057164D01*
X0405466Y0057283D01*
X0405429Y0057402D01*
X0405389Y0057519D01*
X0405346Y0057634D01*
X0405298Y0057749D01*
X0405247Y0057861D01*
X0405193Y0057972D01*
X0405135Y0058082D01*
X0405074Y0058189D01*
X0405009Y0058295D01*
X0404941Y0058398D01*
X0404870Y0058499D01*
X0404796Y0058598D01*
X0404719Y0058695D01*
X0404638Y0058789D01*
X0404555Y0058880D01*
X0404469Y0058969D01*
X0404380Y0059055D01*
X0404289Y0059138D01*
X0404195Y0059219D01*
X0404098Y0059296D01*
X0403999Y0059370D01*
X0403898Y0059441D01*
X0403795Y0059509D01*
X0403689Y0059574D01*
X0403582Y0059635D01*
X0403472Y0059693D01*
X0403361Y0059747D01*
X0403249Y0059798D01*
X0403134Y0059846D01*
X0403019Y0059889D01*
X0402902Y0059929D01*
X0402783Y0059966D01*
X0402664Y0059998D01*
X0402544Y0060027D01*
X0402423Y0060052D01*
X0402301Y0060074D01*
X0402178Y0060091D01*
X0402056Y0060105D01*
X0401932Y0060114D01*
X0401809Y0060120D01*
X0401685Y0060122D01*
X0397748Y0060122D01*
X0385937Y0060122D02*
X0378063Y0060122D01*
X0368220Y0036500D02*
X0368224Y0036838D01*
X0368237Y0037176D01*
X0368257Y0037514D01*
X0368286Y0037851D01*
X0368324Y0038187D01*
X0368369Y0038522D01*
X0368423Y0038856D01*
X0368485Y0039188D01*
X0368555Y0039519D01*
X0368633Y0039848D01*
X0368719Y0040175D01*
X0368813Y0040500D01*
X0368916Y0040823D01*
X0369026Y0041142D01*
X0369143Y0041459D01*
X0369269Y0041773D01*
X0369402Y0042084D01*
X0369543Y0042392D01*
X0369691Y0042696D01*
X0369847Y0042996D01*
X0370010Y0043292D01*
X0370180Y0043584D01*
X0370358Y0043872D01*
X0370542Y0044156D01*
X0370734Y0044435D01*
X0370932Y0044709D01*
X0371137Y0044978D01*
X0371348Y0045242D01*
X0371566Y0045501D01*
X0371790Y0045754D01*
X0372020Y0046002D01*
X0372256Y0046244D01*
X0372498Y0046480D01*
X0372746Y0046710D01*
X0372999Y0046934D01*
X0373258Y0047152D01*
X0373522Y0047363D01*
X0373791Y0047568D01*
X0374065Y0047766D01*
X0374344Y0047958D01*
X0374628Y0048142D01*
X0374916Y0048320D01*
X0375208Y0048490D01*
X0375504Y0048653D01*
X0375804Y0048809D01*
X0376108Y0048957D01*
X0376416Y0049098D01*
X0376727Y0049231D01*
X0377041Y0049357D01*
X0377358Y0049474D01*
X0377677Y0049584D01*
X0378000Y0049687D01*
X0378325Y0049781D01*
X0378652Y0049867D01*
X0378981Y0049945D01*
X0379312Y0050015D01*
X0379644Y0050077D01*
X0379978Y0050131D01*
X0380313Y0050176D01*
X0380649Y0050214D01*
X0380986Y0050243D01*
X0381324Y0050263D01*
X0381662Y0050276D01*
X0382000Y0050280D01*
X0382338Y0050276D01*
X0382676Y0050263D01*
X0383014Y0050243D01*
X0383351Y0050214D01*
X0383687Y0050176D01*
X0384022Y0050131D01*
X0384356Y0050077D01*
X0384688Y0050015D01*
X0385019Y0049945D01*
X0385348Y0049867D01*
X0385675Y0049781D01*
X0386000Y0049687D01*
X0386323Y0049584D01*
X0386642Y0049474D01*
X0386959Y0049357D01*
X0387273Y0049231D01*
X0387584Y0049098D01*
X0387892Y0048957D01*
X0388196Y0048809D01*
X0388496Y0048653D01*
X0388792Y0048490D01*
X0389084Y0048320D01*
X0389372Y0048142D01*
X0389656Y0047958D01*
X0389935Y0047766D01*
X0390209Y0047568D01*
X0390478Y0047363D01*
X0390742Y0047152D01*
X0391001Y0046934D01*
X0391254Y0046710D01*
X0391502Y0046480D01*
X0391744Y0046244D01*
X0391980Y0046002D01*
X0392210Y0045754D01*
X0392434Y0045501D01*
X0392652Y0045242D01*
X0392863Y0044978D01*
X0393068Y0044709D01*
X0393266Y0044435D01*
X0393458Y0044156D01*
X0393642Y0043872D01*
X0393820Y0043584D01*
X0393990Y0043292D01*
X0394153Y0042996D01*
X0394309Y0042696D01*
X0394457Y0042392D01*
X0394598Y0042084D01*
X0394731Y0041773D01*
X0394857Y0041459D01*
X0394974Y0041142D01*
X0395084Y0040823D01*
X0395187Y0040500D01*
X0395281Y0040175D01*
X0395367Y0039848D01*
X0395445Y0039519D01*
X0395515Y0039188D01*
X0395577Y0038856D01*
X0395631Y0038522D01*
X0395676Y0038187D01*
X0395714Y0037851D01*
X0395743Y0037514D01*
X0395763Y0037176D01*
X0395776Y0036838D01*
X0395780Y0036500D01*
X0395776Y0036162D01*
X0395763Y0035824D01*
X0395743Y0035486D01*
X0395714Y0035149D01*
X0395676Y0034813D01*
X0395631Y0034478D01*
X0395577Y0034144D01*
X0395515Y0033812D01*
X0395445Y0033481D01*
X0395367Y0033152D01*
X0395281Y0032825D01*
X0395187Y0032500D01*
X0395084Y0032177D01*
X0394974Y0031858D01*
X0394857Y0031541D01*
X0394731Y0031227D01*
X0394598Y0030916D01*
X0394457Y0030608D01*
X0394309Y0030304D01*
X0394153Y0030004D01*
X0393990Y0029708D01*
X0393820Y0029416D01*
X0393642Y0029128D01*
X0393458Y0028844D01*
X0393266Y0028565D01*
X0393068Y0028291D01*
X0392863Y0028022D01*
X0392652Y0027758D01*
X0392434Y0027499D01*
X0392210Y0027246D01*
X0391980Y0026998D01*
X0391744Y0026756D01*
X0391502Y0026520D01*
X0391254Y0026290D01*
X0391001Y0026066D01*
X0390742Y0025848D01*
X0390478Y0025637D01*
X0390209Y0025432D01*
X0389935Y0025234D01*
X0389656Y0025042D01*
X0389372Y0024858D01*
X0389084Y0024680D01*
X0388792Y0024510D01*
X0388496Y0024347D01*
X0388196Y0024191D01*
X0387892Y0024043D01*
X0387584Y0023902D01*
X0387273Y0023769D01*
X0386959Y0023643D01*
X0386642Y0023526D01*
X0386323Y0023416D01*
X0386000Y0023313D01*
X0385675Y0023219D01*
X0385348Y0023133D01*
X0385019Y0023055D01*
X0384688Y0022985D01*
X0384356Y0022923D01*
X0384022Y0022869D01*
X0383687Y0022824D01*
X0383351Y0022786D01*
X0383014Y0022757D01*
X0382676Y0022737D01*
X0382338Y0022724D01*
X0382000Y0022720D01*
X0381662Y0022724D01*
X0381324Y0022737D01*
X0380986Y0022757D01*
X0380649Y0022786D01*
X0380313Y0022824D01*
X0379978Y0022869D01*
X0379644Y0022923D01*
X0379312Y0022985D01*
X0378981Y0023055D01*
X0378652Y0023133D01*
X0378325Y0023219D01*
X0378000Y0023313D01*
X0377677Y0023416D01*
X0377358Y0023526D01*
X0377041Y0023643D01*
X0376727Y0023769D01*
X0376416Y0023902D01*
X0376108Y0024043D01*
X0375804Y0024191D01*
X0375504Y0024347D01*
X0375208Y0024510D01*
X0374916Y0024680D01*
X0374628Y0024858D01*
X0374344Y0025042D01*
X0374065Y0025234D01*
X0373791Y0025432D01*
X0373522Y0025637D01*
X0373258Y0025848D01*
X0372999Y0026066D01*
X0372746Y0026290D01*
X0372498Y0026520D01*
X0372256Y0026756D01*
X0372020Y0026998D01*
X0371790Y0027246D01*
X0371566Y0027499D01*
X0371348Y0027758D01*
X0371137Y0028022D01*
X0370932Y0028291D01*
X0370734Y0028565D01*
X0370542Y0028844D01*
X0370358Y0029128D01*
X0370180Y0029416D01*
X0370010Y0029708D01*
X0369847Y0030004D01*
X0369691Y0030304D01*
X0369543Y0030608D01*
X0369402Y0030916D01*
X0369269Y0031227D01*
X0369143Y0031541D01*
X0369026Y0031858D01*
X0368916Y0032177D01*
X0368813Y0032500D01*
X0368719Y0032825D01*
X0368633Y0033152D01*
X0368555Y0033481D01*
X0368485Y0033812D01*
X0368423Y0034144D01*
X0368369Y0034478D01*
X0368324Y0034813D01*
X0368286Y0035149D01*
X0368257Y0035486D01*
X0368237Y0035824D01*
X0368224Y0036162D01*
X0368220Y0036500D01*
D16*
X0363102Y0054217D02*
X0363104Y0054286D01*
X0363110Y0054354D01*
X0363120Y0054422D01*
X0363134Y0054489D01*
X0363152Y0054556D01*
X0363173Y0054621D01*
X0363199Y0054685D01*
X0363228Y0054747D01*
X0363260Y0054807D01*
X0363296Y0054866D01*
X0363336Y0054922D01*
X0363378Y0054976D01*
X0363424Y0055027D01*
X0363473Y0055076D01*
X0363524Y0055122D01*
X0363578Y0055164D01*
X0363634Y0055204D01*
X0363692Y0055240D01*
X0363753Y0055272D01*
X0363815Y0055301D01*
X0363879Y0055327D01*
X0363944Y0055348D01*
X0364011Y0055366D01*
X0364078Y0055380D01*
X0364146Y0055390D01*
X0364214Y0055396D01*
X0364283Y0055398D01*
X0364352Y0055396D01*
X0364420Y0055390D01*
X0364488Y0055380D01*
X0364555Y0055366D01*
X0364622Y0055348D01*
X0364687Y0055327D01*
X0364751Y0055301D01*
X0364813Y0055272D01*
X0364873Y0055240D01*
X0364932Y0055204D01*
X0364988Y0055164D01*
X0365042Y0055122D01*
X0365093Y0055076D01*
X0365142Y0055027D01*
X0365188Y0054976D01*
X0365230Y0054922D01*
X0365270Y0054866D01*
X0365306Y0054807D01*
X0365338Y0054747D01*
X0365367Y0054685D01*
X0365393Y0054621D01*
X0365414Y0054556D01*
X0365432Y0054489D01*
X0365446Y0054422D01*
X0365456Y0054354D01*
X0365462Y0054286D01*
X0365464Y0054217D01*
X0365462Y0054148D01*
X0365456Y0054080D01*
X0365446Y0054012D01*
X0365432Y0053945D01*
X0365414Y0053878D01*
X0365393Y0053813D01*
X0365367Y0053749D01*
X0365338Y0053687D01*
X0365306Y0053626D01*
X0365270Y0053568D01*
X0365230Y0053512D01*
X0365188Y0053458D01*
X0365142Y0053407D01*
X0365093Y0053358D01*
X0365042Y0053312D01*
X0364988Y0053270D01*
X0364932Y0053230D01*
X0364874Y0053194D01*
X0364813Y0053162D01*
X0364751Y0053133D01*
X0364687Y0053107D01*
X0364622Y0053086D01*
X0364555Y0053068D01*
X0364488Y0053054D01*
X0364420Y0053044D01*
X0364352Y0053038D01*
X0364283Y0053036D01*
X0364214Y0053038D01*
X0364146Y0053044D01*
X0364078Y0053054D01*
X0364011Y0053068D01*
X0363944Y0053086D01*
X0363879Y0053107D01*
X0363815Y0053133D01*
X0363753Y0053162D01*
X0363692Y0053194D01*
X0363634Y0053230D01*
X0363578Y0053270D01*
X0363524Y0053312D01*
X0363473Y0053358D01*
X0363424Y0053407D01*
X0363378Y0053458D01*
X0363336Y0053512D01*
X0363296Y0053568D01*
X0363260Y0053626D01*
X0363228Y0053687D01*
X0363199Y0053749D01*
X0363173Y0053813D01*
X0363152Y0053878D01*
X0363134Y0053945D01*
X0363120Y0054012D01*
X0363110Y0054080D01*
X0363104Y0054148D01*
X0363102Y0054217D01*
X0398536Y0054217D02*
X0398538Y0054286D01*
X0398544Y0054354D01*
X0398554Y0054422D01*
X0398568Y0054489D01*
X0398586Y0054556D01*
X0398607Y0054621D01*
X0398633Y0054685D01*
X0398662Y0054747D01*
X0398694Y0054807D01*
X0398730Y0054866D01*
X0398770Y0054922D01*
X0398812Y0054976D01*
X0398858Y0055027D01*
X0398907Y0055076D01*
X0398958Y0055122D01*
X0399012Y0055164D01*
X0399068Y0055204D01*
X0399126Y0055240D01*
X0399187Y0055272D01*
X0399249Y0055301D01*
X0399313Y0055327D01*
X0399378Y0055348D01*
X0399445Y0055366D01*
X0399512Y0055380D01*
X0399580Y0055390D01*
X0399648Y0055396D01*
X0399717Y0055398D01*
X0399786Y0055396D01*
X0399854Y0055390D01*
X0399922Y0055380D01*
X0399989Y0055366D01*
X0400056Y0055348D01*
X0400121Y0055327D01*
X0400185Y0055301D01*
X0400247Y0055272D01*
X0400307Y0055240D01*
X0400366Y0055204D01*
X0400422Y0055164D01*
X0400476Y0055122D01*
X0400527Y0055076D01*
X0400576Y0055027D01*
X0400622Y0054976D01*
X0400664Y0054922D01*
X0400704Y0054866D01*
X0400740Y0054807D01*
X0400772Y0054747D01*
X0400801Y0054685D01*
X0400827Y0054621D01*
X0400848Y0054556D01*
X0400866Y0054489D01*
X0400880Y0054422D01*
X0400890Y0054354D01*
X0400896Y0054286D01*
X0400898Y0054217D01*
X0400896Y0054148D01*
X0400890Y0054080D01*
X0400880Y0054012D01*
X0400866Y0053945D01*
X0400848Y0053878D01*
X0400827Y0053813D01*
X0400801Y0053749D01*
X0400772Y0053687D01*
X0400740Y0053626D01*
X0400704Y0053568D01*
X0400664Y0053512D01*
X0400622Y0053458D01*
X0400576Y0053407D01*
X0400527Y0053358D01*
X0400476Y0053312D01*
X0400422Y0053270D01*
X0400366Y0053230D01*
X0400308Y0053194D01*
X0400247Y0053162D01*
X0400185Y0053133D01*
X0400121Y0053107D01*
X0400056Y0053086D01*
X0399989Y0053068D01*
X0399922Y0053054D01*
X0399854Y0053044D01*
X0399786Y0053038D01*
X0399717Y0053036D01*
X0399648Y0053038D01*
X0399580Y0053044D01*
X0399512Y0053054D01*
X0399445Y0053068D01*
X0399378Y0053086D01*
X0399313Y0053107D01*
X0399249Y0053133D01*
X0399187Y0053162D01*
X0399126Y0053194D01*
X0399068Y0053230D01*
X0399012Y0053270D01*
X0398958Y0053312D01*
X0398907Y0053358D01*
X0398858Y0053407D01*
X0398812Y0053458D01*
X0398770Y0053512D01*
X0398730Y0053568D01*
X0398694Y0053626D01*
X0398662Y0053687D01*
X0398633Y0053749D01*
X0398607Y0053813D01*
X0398586Y0053878D01*
X0398568Y0053945D01*
X0398554Y0054012D01*
X0398544Y0054080D01*
X0398538Y0054148D01*
X0398536Y0054217D01*
X0398536Y0018783D02*
X0398538Y0018852D01*
X0398544Y0018920D01*
X0398554Y0018988D01*
X0398568Y0019055D01*
X0398586Y0019122D01*
X0398607Y0019187D01*
X0398633Y0019251D01*
X0398662Y0019313D01*
X0398694Y0019373D01*
X0398730Y0019432D01*
X0398770Y0019488D01*
X0398812Y0019542D01*
X0398858Y0019593D01*
X0398907Y0019642D01*
X0398958Y0019688D01*
X0399012Y0019730D01*
X0399068Y0019770D01*
X0399126Y0019806D01*
X0399187Y0019838D01*
X0399249Y0019867D01*
X0399313Y0019893D01*
X0399378Y0019914D01*
X0399445Y0019932D01*
X0399512Y0019946D01*
X0399580Y0019956D01*
X0399648Y0019962D01*
X0399717Y0019964D01*
X0399786Y0019962D01*
X0399854Y0019956D01*
X0399922Y0019946D01*
X0399989Y0019932D01*
X0400056Y0019914D01*
X0400121Y0019893D01*
X0400185Y0019867D01*
X0400247Y0019838D01*
X0400307Y0019806D01*
X0400366Y0019770D01*
X0400422Y0019730D01*
X0400476Y0019688D01*
X0400527Y0019642D01*
X0400576Y0019593D01*
X0400622Y0019542D01*
X0400664Y0019488D01*
X0400704Y0019432D01*
X0400740Y0019373D01*
X0400772Y0019313D01*
X0400801Y0019251D01*
X0400827Y0019187D01*
X0400848Y0019122D01*
X0400866Y0019055D01*
X0400880Y0018988D01*
X0400890Y0018920D01*
X0400896Y0018852D01*
X0400898Y0018783D01*
X0400896Y0018714D01*
X0400890Y0018646D01*
X0400880Y0018578D01*
X0400866Y0018511D01*
X0400848Y0018444D01*
X0400827Y0018379D01*
X0400801Y0018315D01*
X0400772Y0018253D01*
X0400740Y0018192D01*
X0400704Y0018134D01*
X0400664Y0018078D01*
X0400622Y0018024D01*
X0400576Y0017973D01*
X0400527Y0017924D01*
X0400476Y0017878D01*
X0400422Y0017836D01*
X0400366Y0017796D01*
X0400308Y0017760D01*
X0400247Y0017728D01*
X0400185Y0017699D01*
X0400121Y0017673D01*
X0400056Y0017652D01*
X0399989Y0017634D01*
X0399922Y0017620D01*
X0399854Y0017610D01*
X0399786Y0017604D01*
X0399717Y0017602D01*
X0399648Y0017604D01*
X0399580Y0017610D01*
X0399512Y0017620D01*
X0399445Y0017634D01*
X0399378Y0017652D01*
X0399313Y0017673D01*
X0399249Y0017699D01*
X0399187Y0017728D01*
X0399126Y0017760D01*
X0399068Y0017796D01*
X0399012Y0017836D01*
X0398958Y0017878D01*
X0398907Y0017924D01*
X0398858Y0017973D01*
X0398812Y0018024D01*
X0398770Y0018078D01*
X0398730Y0018134D01*
X0398694Y0018192D01*
X0398662Y0018253D01*
X0398633Y0018315D01*
X0398607Y0018379D01*
X0398586Y0018444D01*
X0398568Y0018511D01*
X0398554Y0018578D01*
X0398544Y0018646D01*
X0398538Y0018714D01*
X0398536Y0018783D01*
X0363102Y0018783D02*
X0363104Y0018852D01*
X0363110Y0018920D01*
X0363120Y0018988D01*
X0363134Y0019055D01*
X0363152Y0019122D01*
X0363173Y0019187D01*
X0363199Y0019251D01*
X0363228Y0019313D01*
X0363260Y0019373D01*
X0363296Y0019432D01*
X0363336Y0019488D01*
X0363378Y0019542D01*
X0363424Y0019593D01*
X0363473Y0019642D01*
X0363524Y0019688D01*
X0363578Y0019730D01*
X0363634Y0019770D01*
X0363692Y0019806D01*
X0363753Y0019838D01*
X0363815Y0019867D01*
X0363879Y0019893D01*
X0363944Y0019914D01*
X0364011Y0019932D01*
X0364078Y0019946D01*
X0364146Y0019956D01*
X0364214Y0019962D01*
X0364283Y0019964D01*
X0364352Y0019962D01*
X0364420Y0019956D01*
X0364488Y0019946D01*
X0364555Y0019932D01*
X0364622Y0019914D01*
X0364687Y0019893D01*
X0364751Y0019867D01*
X0364813Y0019838D01*
X0364873Y0019806D01*
X0364932Y0019770D01*
X0364988Y0019730D01*
X0365042Y0019688D01*
X0365093Y0019642D01*
X0365142Y0019593D01*
X0365188Y0019542D01*
X0365230Y0019488D01*
X0365270Y0019432D01*
X0365306Y0019373D01*
X0365338Y0019313D01*
X0365367Y0019251D01*
X0365393Y0019187D01*
X0365414Y0019122D01*
X0365432Y0019055D01*
X0365446Y0018988D01*
X0365456Y0018920D01*
X0365462Y0018852D01*
X0365464Y0018783D01*
X0365462Y0018714D01*
X0365456Y0018646D01*
X0365446Y0018578D01*
X0365432Y0018511D01*
X0365414Y0018444D01*
X0365393Y0018379D01*
X0365367Y0018315D01*
X0365338Y0018253D01*
X0365306Y0018192D01*
X0365270Y0018134D01*
X0365230Y0018078D01*
X0365188Y0018024D01*
X0365142Y0017973D01*
X0365093Y0017924D01*
X0365042Y0017878D01*
X0364988Y0017836D01*
X0364932Y0017796D01*
X0364874Y0017760D01*
X0364813Y0017728D01*
X0364751Y0017699D01*
X0364687Y0017673D01*
X0364622Y0017652D01*
X0364555Y0017634D01*
X0364488Y0017620D01*
X0364420Y0017610D01*
X0364352Y0017604D01*
X0364283Y0017602D01*
X0364214Y0017604D01*
X0364146Y0017610D01*
X0364078Y0017620D01*
X0364011Y0017634D01*
X0363944Y0017652D01*
X0363879Y0017673D01*
X0363815Y0017699D01*
X0363753Y0017728D01*
X0363692Y0017760D01*
X0363634Y0017796D01*
X0363578Y0017836D01*
X0363524Y0017878D01*
X0363473Y0017924D01*
X0363424Y0017973D01*
X0363378Y0018024D01*
X0363336Y0018078D01*
X0363296Y0018134D01*
X0363260Y0018192D01*
X0363228Y0018253D01*
X0363199Y0018315D01*
X0363173Y0018379D01*
X0363152Y0018444D01*
X0363134Y0018511D01*
X0363120Y0018578D01*
X0363110Y0018646D01*
X0363104Y0018714D01*
X0363102Y0018783D01*
M02*
