%
M48
M72
T01C0.02362
T02C0.03200
T03C0.03543
T04C0.03937
T05C0.04000
T06C0.04724
T07C0.05118
T08C0.08661
T09C0.12598
%
T01
X132000Y96500
X132000Y101500
X132000Y106500
X132000Y111500
X132000Y116500
X132000Y126500
X162000Y111500
X167000Y106500
X157000Y101500
X172000Y96500
X177000Y101500
X177000Y116500
X287000Y181500
X282000Y186500
X277000Y191500
X267000Y181500
X242000Y186500
X217000Y191500
T02
X382000Y86500
X392000Y86500
X392000Y116500
X382000Y116500
X382000Y146500
X392000Y146500
X392000Y176500
X382000Y176500
T03
X189500Y136500
X224500Y136500
X259500Y136500
X259500Y166500
X224500Y166500
X189500Y166500
X294500Y139000
X337000Y131500
X337000Y146500
X367000Y146500
X367000Y131500
X367000Y116500
X367000Y101500
X367000Y86500
X337000Y86500
X337000Y101500
X337000Y116500
X294500Y109000
T04
X132000Y21500
X132000Y31500
X157000Y26500
X167000Y26500
X177000Y26500
X187000Y26500
X197000Y26500
X207000Y26500
X227000Y26500
X237000Y26500
X247000Y26500
X257000Y26500
X267000Y26500
X277000Y26500
X312000Y206500
X322000Y206500
X332000Y206500
X342000Y206500
X352000Y206500
X362000Y206500
X372000Y206500
X382000Y206500
X382000Y216500
X372000Y216500
X362000Y216500
X352000Y216500
X342000Y216500
X332000Y216500
X322000Y216500
X312000Y216500
X277000Y216500
X267000Y216500
X257000Y216500
X247000Y216500
X237000Y216500
X227000Y216500
X217000Y216500
X207000Y216500
X191000Y216500
X181000Y216500
X171000Y216500
X161000Y216500
X151000Y216500
X141000Y216500
X131000Y216500
X121000Y216500
X132000Y181500
X132000Y171500
T05
X177000Y46500
X187000Y46500
X197000Y46500
X207000Y66500
X207000Y76500
X207000Y86500
X207000Y96500
X207000Y106500
X207000Y116500
X207000Y126500
X207000Y136500
X207000Y146500
X242000Y146500
X242000Y136500
X242000Y126500
X242000Y116500
X242000Y106500
X242000Y96500
X242000Y86500
X242000Y76500
X242000Y66500
X242000Y46500
X232000Y46500
X252000Y46500
X277000Y66500
X277000Y76500
X277000Y86500
X277000Y96500
X277000Y106500
X277000Y116500
X277000Y126500
X277000Y136500
X277000Y146500
X307000Y146500
X307000Y136500
X307000Y126500
X307000Y116500
X307000Y106500
X307000Y96500
X307000Y86500
X307000Y76500
X307000Y66500
X362000Y166500
X287000Y231500
T06
X82000Y26500
X372157Y61106
X391843Y61106
X391843Y11894
X372157Y11894
T07
X89520Y75594
X108811Y77957
X108811Y135043
X89520Y137406
T08
X112000Y11500
X112000Y51500
X112000Y161500
X112000Y201500
T09
X287000Y46500
X287000Y156500
X87000Y216500
M30
