G75*
%MOIN*%
%OFA0B0*%
%FSLAX25Y25*%
%IPPOS*%
%LPD*%
%AMOC8*
5,1,8,0,0,1.08239X$1,22.5*
%
%ADD10C,0.00000*%
D10*
X0001500Y0003000D02*
X0001500Y0157961D01*
X0350201Y0157961D01*
X0350201Y0003000D01*
X0001500Y0003000D01*
X0066000Y0028000D02*
X0066002Y0028161D01*
X0066008Y0028321D01*
X0066018Y0028482D01*
X0066032Y0028642D01*
X0066050Y0028802D01*
X0066071Y0028961D01*
X0066097Y0029120D01*
X0066127Y0029278D01*
X0066160Y0029435D01*
X0066198Y0029592D01*
X0066239Y0029747D01*
X0066284Y0029901D01*
X0066333Y0030054D01*
X0066386Y0030206D01*
X0066442Y0030357D01*
X0066503Y0030506D01*
X0066566Y0030654D01*
X0066634Y0030800D01*
X0066705Y0030944D01*
X0066779Y0031086D01*
X0066857Y0031227D01*
X0066939Y0031365D01*
X0067024Y0031502D01*
X0067112Y0031636D01*
X0067204Y0031768D01*
X0067299Y0031898D01*
X0067397Y0032026D01*
X0067498Y0032151D01*
X0067602Y0032273D01*
X0067709Y0032393D01*
X0067819Y0032510D01*
X0067932Y0032625D01*
X0068048Y0032736D01*
X0068167Y0032845D01*
X0068288Y0032950D01*
X0068412Y0033053D01*
X0068538Y0033153D01*
X0068666Y0033249D01*
X0068797Y0033342D01*
X0068931Y0033432D01*
X0069066Y0033519D01*
X0069204Y0033602D01*
X0069343Y0033682D01*
X0069485Y0033758D01*
X0069628Y0033831D01*
X0069773Y0033900D01*
X0069920Y0033966D01*
X0070068Y0034028D01*
X0070218Y0034086D01*
X0070369Y0034141D01*
X0070522Y0034192D01*
X0070676Y0034239D01*
X0070831Y0034282D01*
X0070987Y0034321D01*
X0071143Y0034357D01*
X0071301Y0034388D01*
X0071459Y0034416D01*
X0071618Y0034440D01*
X0071778Y0034460D01*
X0071938Y0034476D01*
X0072098Y0034488D01*
X0072259Y0034496D01*
X0072420Y0034500D01*
X0072580Y0034500D01*
X0072741Y0034496D01*
X0072902Y0034488D01*
X0073062Y0034476D01*
X0073222Y0034460D01*
X0073382Y0034440D01*
X0073541Y0034416D01*
X0073699Y0034388D01*
X0073857Y0034357D01*
X0074013Y0034321D01*
X0074169Y0034282D01*
X0074324Y0034239D01*
X0074478Y0034192D01*
X0074631Y0034141D01*
X0074782Y0034086D01*
X0074932Y0034028D01*
X0075080Y0033966D01*
X0075227Y0033900D01*
X0075372Y0033831D01*
X0075515Y0033758D01*
X0075657Y0033682D01*
X0075796Y0033602D01*
X0075934Y0033519D01*
X0076069Y0033432D01*
X0076203Y0033342D01*
X0076334Y0033249D01*
X0076462Y0033153D01*
X0076588Y0033053D01*
X0076712Y0032950D01*
X0076833Y0032845D01*
X0076952Y0032736D01*
X0077068Y0032625D01*
X0077181Y0032510D01*
X0077291Y0032393D01*
X0077398Y0032273D01*
X0077502Y0032151D01*
X0077603Y0032026D01*
X0077701Y0031898D01*
X0077796Y0031768D01*
X0077888Y0031636D01*
X0077976Y0031502D01*
X0078061Y0031365D01*
X0078143Y0031227D01*
X0078221Y0031086D01*
X0078295Y0030944D01*
X0078366Y0030800D01*
X0078434Y0030654D01*
X0078497Y0030506D01*
X0078558Y0030357D01*
X0078614Y0030206D01*
X0078667Y0030054D01*
X0078716Y0029901D01*
X0078761Y0029747D01*
X0078802Y0029592D01*
X0078840Y0029435D01*
X0078873Y0029278D01*
X0078903Y0029120D01*
X0078929Y0028961D01*
X0078950Y0028802D01*
X0078968Y0028642D01*
X0078982Y0028482D01*
X0078992Y0028321D01*
X0078998Y0028161D01*
X0079000Y0028000D01*
X0078998Y0027839D01*
X0078992Y0027679D01*
X0078982Y0027518D01*
X0078968Y0027358D01*
X0078950Y0027198D01*
X0078929Y0027039D01*
X0078903Y0026880D01*
X0078873Y0026722D01*
X0078840Y0026565D01*
X0078802Y0026408D01*
X0078761Y0026253D01*
X0078716Y0026099D01*
X0078667Y0025946D01*
X0078614Y0025794D01*
X0078558Y0025643D01*
X0078497Y0025494D01*
X0078434Y0025346D01*
X0078366Y0025200D01*
X0078295Y0025056D01*
X0078221Y0024914D01*
X0078143Y0024773D01*
X0078061Y0024635D01*
X0077976Y0024498D01*
X0077888Y0024364D01*
X0077796Y0024232D01*
X0077701Y0024102D01*
X0077603Y0023974D01*
X0077502Y0023849D01*
X0077398Y0023727D01*
X0077291Y0023607D01*
X0077181Y0023490D01*
X0077068Y0023375D01*
X0076952Y0023264D01*
X0076833Y0023155D01*
X0076712Y0023050D01*
X0076588Y0022947D01*
X0076462Y0022847D01*
X0076334Y0022751D01*
X0076203Y0022658D01*
X0076069Y0022568D01*
X0075934Y0022481D01*
X0075796Y0022398D01*
X0075657Y0022318D01*
X0075515Y0022242D01*
X0075372Y0022169D01*
X0075227Y0022100D01*
X0075080Y0022034D01*
X0074932Y0021972D01*
X0074782Y0021914D01*
X0074631Y0021859D01*
X0074478Y0021808D01*
X0074324Y0021761D01*
X0074169Y0021718D01*
X0074013Y0021679D01*
X0073857Y0021643D01*
X0073699Y0021612D01*
X0073541Y0021584D01*
X0073382Y0021560D01*
X0073222Y0021540D01*
X0073062Y0021524D01*
X0072902Y0021512D01*
X0072741Y0021504D01*
X0072580Y0021500D01*
X0072420Y0021500D01*
X0072259Y0021504D01*
X0072098Y0021512D01*
X0071938Y0021524D01*
X0071778Y0021540D01*
X0071618Y0021560D01*
X0071459Y0021584D01*
X0071301Y0021612D01*
X0071143Y0021643D01*
X0070987Y0021679D01*
X0070831Y0021718D01*
X0070676Y0021761D01*
X0070522Y0021808D01*
X0070369Y0021859D01*
X0070218Y0021914D01*
X0070068Y0021972D01*
X0069920Y0022034D01*
X0069773Y0022100D01*
X0069628Y0022169D01*
X0069485Y0022242D01*
X0069343Y0022318D01*
X0069204Y0022398D01*
X0069066Y0022481D01*
X0068931Y0022568D01*
X0068797Y0022658D01*
X0068666Y0022751D01*
X0068538Y0022847D01*
X0068412Y0022947D01*
X0068288Y0023050D01*
X0068167Y0023155D01*
X0068048Y0023264D01*
X0067932Y0023375D01*
X0067819Y0023490D01*
X0067709Y0023607D01*
X0067602Y0023727D01*
X0067498Y0023849D01*
X0067397Y0023974D01*
X0067299Y0024102D01*
X0067204Y0024232D01*
X0067112Y0024364D01*
X0067024Y0024498D01*
X0066939Y0024635D01*
X0066857Y0024773D01*
X0066779Y0024914D01*
X0066705Y0025056D01*
X0066634Y0025200D01*
X0066566Y0025346D01*
X0066503Y0025494D01*
X0066442Y0025643D01*
X0066386Y0025794D01*
X0066333Y0025946D01*
X0066284Y0026099D01*
X0066239Y0026253D01*
X0066198Y0026408D01*
X0066160Y0026565D01*
X0066127Y0026722D01*
X0066097Y0026880D01*
X0066071Y0027039D01*
X0066050Y0027198D01*
X0066032Y0027358D01*
X0066018Y0027518D01*
X0066008Y0027679D01*
X0066002Y0027839D01*
X0066000Y0028000D01*
X0146000Y0028000D02*
X0146002Y0028161D01*
X0146008Y0028321D01*
X0146018Y0028482D01*
X0146032Y0028642D01*
X0146050Y0028802D01*
X0146071Y0028961D01*
X0146097Y0029120D01*
X0146127Y0029278D01*
X0146160Y0029435D01*
X0146198Y0029592D01*
X0146239Y0029747D01*
X0146284Y0029901D01*
X0146333Y0030054D01*
X0146386Y0030206D01*
X0146442Y0030357D01*
X0146503Y0030506D01*
X0146566Y0030654D01*
X0146634Y0030800D01*
X0146705Y0030944D01*
X0146779Y0031086D01*
X0146857Y0031227D01*
X0146939Y0031365D01*
X0147024Y0031502D01*
X0147112Y0031636D01*
X0147204Y0031768D01*
X0147299Y0031898D01*
X0147397Y0032026D01*
X0147498Y0032151D01*
X0147602Y0032273D01*
X0147709Y0032393D01*
X0147819Y0032510D01*
X0147932Y0032625D01*
X0148048Y0032736D01*
X0148167Y0032845D01*
X0148288Y0032950D01*
X0148412Y0033053D01*
X0148538Y0033153D01*
X0148666Y0033249D01*
X0148797Y0033342D01*
X0148931Y0033432D01*
X0149066Y0033519D01*
X0149204Y0033602D01*
X0149343Y0033682D01*
X0149485Y0033758D01*
X0149628Y0033831D01*
X0149773Y0033900D01*
X0149920Y0033966D01*
X0150068Y0034028D01*
X0150218Y0034086D01*
X0150369Y0034141D01*
X0150522Y0034192D01*
X0150676Y0034239D01*
X0150831Y0034282D01*
X0150987Y0034321D01*
X0151143Y0034357D01*
X0151301Y0034388D01*
X0151459Y0034416D01*
X0151618Y0034440D01*
X0151778Y0034460D01*
X0151938Y0034476D01*
X0152098Y0034488D01*
X0152259Y0034496D01*
X0152420Y0034500D01*
X0152580Y0034500D01*
X0152741Y0034496D01*
X0152902Y0034488D01*
X0153062Y0034476D01*
X0153222Y0034460D01*
X0153382Y0034440D01*
X0153541Y0034416D01*
X0153699Y0034388D01*
X0153857Y0034357D01*
X0154013Y0034321D01*
X0154169Y0034282D01*
X0154324Y0034239D01*
X0154478Y0034192D01*
X0154631Y0034141D01*
X0154782Y0034086D01*
X0154932Y0034028D01*
X0155080Y0033966D01*
X0155227Y0033900D01*
X0155372Y0033831D01*
X0155515Y0033758D01*
X0155657Y0033682D01*
X0155796Y0033602D01*
X0155934Y0033519D01*
X0156069Y0033432D01*
X0156203Y0033342D01*
X0156334Y0033249D01*
X0156462Y0033153D01*
X0156588Y0033053D01*
X0156712Y0032950D01*
X0156833Y0032845D01*
X0156952Y0032736D01*
X0157068Y0032625D01*
X0157181Y0032510D01*
X0157291Y0032393D01*
X0157398Y0032273D01*
X0157502Y0032151D01*
X0157603Y0032026D01*
X0157701Y0031898D01*
X0157796Y0031768D01*
X0157888Y0031636D01*
X0157976Y0031502D01*
X0158061Y0031365D01*
X0158143Y0031227D01*
X0158221Y0031086D01*
X0158295Y0030944D01*
X0158366Y0030800D01*
X0158434Y0030654D01*
X0158497Y0030506D01*
X0158558Y0030357D01*
X0158614Y0030206D01*
X0158667Y0030054D01*
X0158716Y0029901D01*
X0158761Y0029747D01*
X0158802Y0029592D01*
X0158840Y0029435D01*
X0158873Y0029278D01*
X0158903Y0029120D01*
X0158929Y0028961D01*
X0158950Y0028802D01*
X0158968Y0028642D01*
X0158982Y0028482D01*
X0158992Y0028321D01*
X0158998Y0028161D01*
X0159000Y0028000D01*
X0158998Y0027839D01*
X0158992Y0027679D01*
X0158982Y0027518D01*
X0158968Y0027358D01*
X0158950Y0027198D01*
X0158929Y0027039D01*
X0158903Y0026880D01*
X0158873Y0026722D01*
X0158840Y0026565D01*
X0158802Y0026408D01*
X0158761Y0026253D01*
X0158716Y0026099D01*
X0158667Y0025946D01*
X0158614Y0025794D01*
X0158558Y0025643D01*
X0158497Y0025494D01*
X0158434Y0025346D01*
X0158366Y0025200D01*
X0158295Y0025056D01*
X0158221Y0024914D01*
X0158143Y0024773D01*
X0158061Y0024635D01*
X0157976Y0024498D01*
X0157888Y0024364D01*
X0157796Y0024232D01*
X0157701Y0024102D01*
X0157603Y0023974D01*
X0157502Y0023849D01*
X0157398Y0023727D01*
X0157291Y0023607D01*
X0157181Y0023490D01*
X0157068Y0023375D01*
X0156952Y0023264D01*
X0156833Y0023155D01*
X0156712Y0023050D01*
X0156588Y0022947D01*
X0156462Y0022847D01*
X0156334Y0022751D01*
X0156203Y0022658D01*
X0156069Y0022568D01*
X0155934Y0022481D01*
X0155796Y0022398D01*
X0155657Y0022318D01*
X0155515Y0022242D01*
X0155372Y0022169D01*
X0155227Y0022100D01*
X0155080Y0022034D01*
X0154932Y0021972D01*
X0154782Y0021914D01*
X0154631Y0021859D01*
X0154478Y0021808D01*
X0154324Y0021761D01*
X0154169Y0021718D01*
X0154013Y0021679D01*
X0153857Y0021643D01*
X0153699Y0021612D01*
X0153541Y0021584D01*
X0153382Y0021560D01*
X0153222Y0021540D01*
X0153062Y0021524D01*
X0152902Y0021512D01*
X0152741Y0021504D01*
X0152580Y0021500D01*
X0152420Y0021500D01*
X0152259Y0021504D01*
X0152098Y0021512D01*
X0151938Y0021524D01*
X0151778Y0021540D01*
X0151618Y0021560D01*
X0151459Y0021584D01*
X0151301Y0021612D01*
X0151143Y0021643D01*
X0150987Y0021679D01*
X0150831Y0021718D01*
X0150676Y0021761D01*
X0150522Y0021808D01*
X0150369Y0021859D01*
X0150218Y0021914D01*
X0150068Y0021972D01*
X0149920Y0022034D01*
X0149773Y0022100D01*
X0149628Y0022169D01*
X0149485Y0022242D01*
X0149343Y0022318D01*
X0149204Y0022398D01*
X0149066Y0022481D01*
X0148931Y0022568D01*
X0148797Y0022658D01*
X0148666Y0022751D01*
X0148538Y0022847D01*
X0148412Y0022947D01*
X0148288Y0023050D01*
X0148167Y0023155D01*
X0148048Y0023264D01*
X0147932Y0023375D01*
X0147819Y0023490D01*
X0147709Y0023607D01*
X0147602Y0023727D01*
X0147498Y0023849D01*
X0147397Y0023974D01*
X0147299Y0024102D01*
X0147204Y0024232D01*
X0147112Y0024364D01*
X0147024Y0024498D01*
X0146939Y0024635D01*
X0146857Y0024773D01*
X0146779Y0024914D01*
X0146705Y0025056D01*
X0146634Y0025200D01*
X0146566Y0025346D01*
X0146503Y0025494D01*
X0146442Y0025643D01*
X0146386Y0025794D01*
X0146333Y0025946D01*
X0146284Y0026099D01*
X0146239Y0026253D01*
X0146198Y0026408D01*
X0146160Y0026565D01*
X0146127Y0026722D01*
X0146097Y0026880D01*
X0146071Y0027039D01*
X0146050Y0027198D01*
X0146032Y0027358D01*
X0146018Y0027518D01*
X0146008Y0027679D01*
X0146002Y0027839D01*
X0146000Y0028000D01*
X0156000Y0073000D02*
X0156002Y0073161D01*
X0156008Y0073321D01*
X0156018Y0073482D01*
X0156032Y0073642D01*
X0156050Y0073802D01*
X0156071Y0073961D01*
X0156097Y0074120D01*
X0156127Y0074278D01*
X0156160Y0074435D01*
X0156198Y0074592D01*
X0156239Y0074747D01*
X0156284Y0074901D01*
X0156333Y0075054D01*
X0156386Y0075206D01*
X0156442Y0075357D01*
X0156503Y0075506D01*
X0156566Y0075654D01*
X0156634Y0075800D01*
X0156705Y0075944D01*
X0156779Y0076086D01*
X0156857Y0076227D01*
X0156939Y0076365D01*
X0157024Y0076502D01*
X0157112Y0076636D01*
X0157204Y0076768D01*
X0157299Y0076898D01*
X0157397Y0077026D01*
X0157498Y0077151D01*
X0157602Y0077273D01*
X0157709Y0077393D01*
X0157819Y0077510D01*
X0157932Y0077625D01*
X0158048Y0077736D01*
X0158167Y0077845D01*
X0158288Y0077950D01*
X0158412Y0078053D01*
X0158538Y0078153D01*
X0158666Y0078249D01*
X0158797Y0078342D01*
X0158931Y0078432D01*
X0159066Y0078519D01*
X0159204Y0078602D01*
X0159343Y0078682D01*
X0159485Y0078758D01*
X0159628Y0078831D01*
X0159773Y0078900D01*
X0159920Y0078966D01*
X0160068Y0079028D01*
X0160218Y0079086D01*
X0160369Y0079141D01*
X0160522Y0079192D01*
X0160676Y0079239D01*
X0160831Y0079282D01*
X0160987Y0079321D01*
X0161143Y0079357D01*
X0161301Y0079388D01*
X0161459Y0079416D01*
X0161618Y0079440D01*
X0161778Y0079460D01*
X0161938Y0079476D01*
X0162098Y0079488D01*
X0162259Y0079496D01*
X0162420Y0079500D01*
X0162580Y0079500D01*
X0162741Y0079496D01*
X0162902Y0079488D01*
X0163062Y0079476D01*
X0163222Y0079460D01*
X0163382Y0079440D01*
X0163541Y0079416D01*
X0163699Y0079388D01*
X0163857Y0079357D01*
X0164013Y0079321D01*
X0164169Y0079282D01*
X0164324Y0079239D01*
X0164478Y0079192D01*
X0164631Y0079141D01*
X0164782Y0079086D01*
X0164932Y0079028D01*
X0165080Y0078966D01*
X0165227Y0078900D01*
X0165372Y0078831D01*
X0165515Y0078758D01*
X0165657Y0078682D01*
X0165796Y0078602D01*
X0165934Y0078519D01*
X0166069Y0078432D01*
X0166203Y0078342D01*
X0166334Y0078249D01*
X0166462Y0078153D01*
X0166588Y0078053D01*
X0166712Y0077950D01*
X0166833Y0077845D01*
X0166952Y0077736D01*
X0167068Y0077625D01*
X0167181Y0077510D01*
X0167291Y0077393D01*
X0167398Y0077273D01*
X0167502Y0077151D01*
X0167603Y0077026D01*
X0167701Y0076898D01*
X0167796Y0076768D01*
X0167888Y0076636D01*
X0167976Y0076502D01*
X0168061Y0076365D01*
X0168143Y0076227D01*
X0168221Y0076086D01*
X0168295Y0075944D01*
X0168366Y0075800D01*
X0168434Y0075654D01*
X0168497Y0075506D01*
X0168558Y0075357D01*
X0168614Y0075206D01*
X0168667Y0075054D01*
X0168716Y0074901D01*
X0168761Y0074747D01*
X0168802Y0074592D01*
X0168840Y0074435D01*
X0168873Y0074278D01*
X0168903Y0074120D01*
X0168929Y0073961D01*
X0168950Y0073802D01*
X0168968Y0073642D01*
X0168982Y0073482D01*
X0168992Y0073321D01*
X0168998Y0073161D01*
X0169000Y0073000D01*
X0168998Y0072839D01*
X0168992Y0072679D01*
X0168982Y0072518D01*
X0168968Y0072358D01*
X0168950Y0072198D01*
X0168929Y0072039D01*
X0168903Y0071880D01*
X0168873Y0071722D01*
X0168840Y0071565D01*
X0168802Y0071408D01*
X0168761Y0071253D01*
X0168716Y0071099D01*
X0168667Y0070946D01*
X0168614Y0070794D01*
X0168558Y0070643D01*
X0168497Y0070494D01*
X0168434Y0070346D01*
X0168366Y0070200D01*
X0168295Y0070056D01*
X0168221Y0069914D01*
X0168143Y0069773D01*
X0168061Y0069635D01*
X0167976Y0069498D01*
X0167888Y0069364D01*
X0167796Y0069232D01*
X0167701Y0069102D01*
X0167603Y0068974D01*
X0167502Y0068849D01*
X0167398Y0068727D01*
X0167291Y0068607D01*
X0167181Y0068490D01*
X0167068Y0068375D01*
X0166952Y0068264D01*
X0166833Y0068155D01*
X0166712Y0068050D01*
X0166588Y0067947D01*
X0166462Y0067847D01*
X0166334Y0067751D01*
X0166203Y0067658D01*
X0166069Y0067568D01*
X0165934Y0067481D01*
X0165796Y0067398D01*
X0165657Y0067318D01*
X0165515Y0067242D01*
X0165372Y0067169D01*
X0165227Y0067100D01*
X0165080Y0067034D01*
X0164932Y0066972D01*
X0164782Y0066914D01*
X0164631Y0066859D01*
X0164478Y0066808D01*
X0164324Y0066761D01*
X0164169Y0066718D01*
X0164013Y0066679D01*
X0163857Y0066643D01*
X0163699Y0066612D01*
X0163541Y0066584D01*
X0163382Y0066560D01*
X0163222Y0066540D01*
X0163062Y0066524D01*
X0162902Y0066512D01*
X0162741Y0066504D01*
X0162580Y0066500D01*
X0162420Y0066500D01*
X0162259Y0066504D01*
X0162098Y0066512D01*
X0161938Y0066524D01*
X0161778Y0066540D01*
X0161618Y0066560D01*
X0161459Y0066584D01*
X0161301Y0066612D01*
X0161143Y0066643D01*
X0160987Y0066679D01*
X0160831Y0066718D01*
X0160676Y0066761D01*
X0160522Y0066808D01*
X0160369Y0066859D01*
X0160218Y0066914D01*
X0160068Y0066972D01*
X0159920Y0067034D01*
X0159773Y0067100D01*
X0159628Y0067169D01*
X0159485Y0067242D01*
X0159343Y0067318D01*
X0159204Y0067398D01*
X0159066Y0067481D01*
X0158931Y0067568D01*
X0158797Y0067658D01*
X0158666Y0067751D01*
X0158538Y0067847D01*
X0158412Y0067947D01*
X0158288Y0068050D01*
X0158167Y0068155D01*
X0158048Y0068264D01*
X0157932Y0068375D01*
X0157819Y0068490D01*
X0157709Y0068607D01*
X0157602Y0068727D01*
X0157498Y0068849D01*
X0157397Y0068974D01*
X0157299Y0069102D01*
X0157204Y0069232D01*
X0157112Y0069364D01*
X0157024Y0069498D01*
X0156939Y0069635D01*
X0156857Y0069773D01*
X0156779Y0069914D01*
X0156705Y0070056D01*
X0156634Y0070200D01*
X0156566Y0070346D01*
X0156503Y0070494D01*
X0156442Y0070643D01*
X0156386Y0070794D01*
X0156333Y0070946D01*
X0156284Y0071099D01*
X0156239Y0071253D01*
X0156198Y0071408D01*
X0156160Y0071565D01*
X0156127Y0071722D01*
X0156097Y0071880D01*
X0156071Y0072039D01*
X0156050Y0072198D01*
X0156032Y0072358D01*
X0156018Y0072518D01*
X0156008Y0072679D01*
X0156002Y0072839D01*
X0156000Y0073000D01*
X0077169Y0078000D02*
X0077171Y0078131D01*
X0077177Y0078263D01*
X0077187Y0078394D01*
X0077201Y0078525D01*
X0077219Y0078655D01*
X0077241Y0078784D01*
X0077266Y0078913D01*
X0077296Y0079041D01*
X0077330Y0079168D01*
X0077367Y0079295D01*
X0077408Y0079419D01*
X0077453Y0079543D01*
X0077502Y0079665D01*
X0077554Y0079786D01*
X0077610Y0079904D01*
X0077670Y0080022D01*
X0077733Y0080137D01*
X0077800Y0080250D01*
X0077870Y0080362D01*
X0077943Y0080471D01*
X0078019Y0080577D01*
X0078099Y0080682D01*
X0078182Y0080784D01*
X0078268Y0080883D01*
X0078357Y0080980D01*
X0078449Y0081074D01*
X0078544Y0081165D01*
X0078641Y0081254D01*
X0078741Y0081339D01*
X0078844Y0081421D01*
X0078949Y0081500D01*
X0079056Y0081576D01*
X0079166Y0081648D01*
X0079278Y0081717D01*
X0079392Y0081783D01*
X0079507Y0081845D01*
X0079625Y0081904D01*
X0079744Y0081959D01*
X0079865Y0082011D01*
X0079988Y0082058D01*
X0080112Y0082102D01*
X0080237Y0082143D01*
X0080363Y0082179D01*
X0080491Y0082212D01*
X0080619Y0082240D01*
X0080748Y0082265D01*
X0080878Y0082286D01*
X0081008Y0082303D01*
X0081139Y0082316D01*
X0081270Y0082325D01*
X0081401Y0082330D01*
X0081533Y0082331D01*
X0081664Y0082328D01*
X0081796Y0082321D01*
X0081927Y0082310D01*
X0082057Y0082295D01*
X0082187Y0082276D01*
X0082317Y0082253D01*
X0082445Y0082227D01*
X0082573Y0082196D01*
X0082700Y0082161D01*
X0082826Y0082123D01*
X0082950Y0082081D01*
X0083074Y0082035D01*
X0083195Y0081985D01*
X0083315Y0081932D01*
X0083434Y0081875D01*
X0083551Y0081815D01*
X0083665Y0081751D01*
X0083778Y0081683D01*
X0083889Y0081612D01*
X0083998Y0081538D01*
X0084104Y0081461D01*
X0084208Y0081380D01*
X0084309Y0081297D01*
X0084408Y0081210D01*
X0084504Y0081120D01*
X0084597Y0081027D01*
X0084688Y0080932D01*
X0084775Y0080834D01*
X0084860Y0080733D01*
X0084941Y0080630D01*
X0085019Y0080524D01*
X0085094Y0080416D01*
X0085166Y0080306D01*
X0085234Y0080194D01*
X0085299Y0080080D01*
X0085360Y0079963D01*
X0085418Y0079845D01*
X0085472Y0079725D01*
X0085523Y0079604D01*
X0085570Y0079481D01*
X0085613Y0079357D01*
X0085652Y0079232D01*
X0085688Y0079105D01*
X0085719Y0078977D01*
X0085747Y0078849D01*
X0085771Y0078720D01*
X0085791Y0078590D01*
X0085807Y0078459D01*
X0085819Y0078328D01*
X0085827Y0078197D01*
X0085831Y0078066D01*
X0085831Y0077934D01*
X0085827Y0077803D01*
X0085819Y0077672D01*
X0085807Y0077541D01*
X0085791Y0077410D01*
X0085771Y0077280D01*
X0085747Y0077151D01*
X0085719Y0077023D01*
X0085688Y0076895D01*
X0085652Y0076768D01*
X0085613Y0076643D01*
X0085570Y0076519D01*
X0085523Y0076396D01*
X0085472Y0076275D01*
X0085418Y0076155D01*
X0085360Y0076037D01*
X0085299Y0075920D01*
X0085234Y0075806D01*
X0085166Y0075694D01*
X0085094Y0075584D01*
X0085019Y0075476D01*
X0084941Y0075370D01*
X0084860Y0075267D01*
X0084775Y0075166D01*
X0084688Y0075068D01*
X0084597Y0074973D01*
X0084504Y0074880D01*
X0084408Y0074790D01*
X0084309Y0074703D01*
X0084208Y0074620D01*
X0084104Y0074539D01*
X0083998Y0074462D01*
X0083889Y0074388D01*
X0083778Y0074317D01*
X0083666Y0074249D01*
X0083551Y0074185D01*
X0083434Y0074125D01*
X0083315Y0074068D01*
X0083195Y0074015D01*
X0083074Y0073965D01*
X0082950Y0073919D01*
X0082826Y0073877D01*
X0082700Y0073839D01*
X0082573Y0073804D01*
X0082445Y0073773D01*
X0082317Y0073747D01*
X0082187Y0073724D01*
X0082057Y0073705D01*
X0081927Y0073690D01*
X0081796Y0073679D01*
X0081664Y0073672D01*
X0081533Y0073669D01*
X0081401Y0073670D01*
X0081270Y0073675D01*
X0081139Y0073684D01*
X0081008Y0073697D01*
X0080878Y0073714D01*
X0080748Y0073735D01*
X0080619Y0073760D01*
X0080491Y0073788D01*
X0080363Y0073821D01*
X0080237Y0073857D01*
X0080112Y0073898D01*
X0079988Y0073942D01*
X0079865Y0073989D01*
X0079744Y0074041D01*
X0079625Y0074096D01*
X0079507Y0074155D01*
X0079392Y0074217D01*
X0079278Y0074283D01*
X0079166Y0074352D01*
X0079056Y0074424D01*
X0078949Y0074500D01*
X0078844Y0074579D01*
X0078741Y0074661D01*
X0078641Y0074746D01*
X0078544Y0074835D01*
X0078449Y0074926D01*
X0078357Y0075020D01*
X0078268Y0075117D01*
X0078182Y0075216D01*
X0078099Y0075318D01*
X0078019Y0075423D01*
X0077943Y0075529D01*
X0077870Y0075638D01*
X0077800Y0075750D01*
X0077733Y0075863D01*
X0077670Y0075978D01*
X0077610Y0076096D01*
X0077554Y0076214D01*
X0077502Y0076335D01*
X0077453Y0076457D01*
X0077408Y0076581D01*
X0077367Y0076705D01*
X0077330Y0076832D01*
X0077296Y0076959D01*
X0077266Y0077087D01*
X0077241Y0077216D01*
X0077219Y0077345D01*
X0077201Y0077475D01*
X0077187Y0077606D01*
X0077177Y0077737D01*
X0077171Y0077869D01*
X0077169Y0078000D01*
X0192169Y0148000D02*
X0192171Y0148131D01*
X0192177Y0148263D01*
X0192187Y0148394D01*
X0192201Y0148525D01*
X0192219Y0148655D01*
X0192241Y0148784D01*
X0192266Y0148913D01*
X0192296Y0149041D01*
X0192330Y0149168D01*
X0192367Y0149295D01*
X0192408Y0149419D01*
X0192453Y0149543D01*
X0192502Y0149665D01*
X0192554Y0149786D01*
X0192610Y0149904D01*
X0192670Y0150022D01*
X0192733Y0150137D01*
X0192800Y0150250D01*
X0192870Y0150362D01*
X0192943Y0150471D01*
X0193019Y0150577D01*
X0193099Y0150682D01*
X0193182Y0150784D01*
X0193268Y0150883D01*
X0193357Y0150980D01*
X0193449Y0151074D01*
X0193544Y0151165D01*
X0193641Y0151254D01*
X0193741Y0151339D01*
X0193844Y0151421D01*
X0193949Y0151500D01*
X0194056Y0151576D01*
X0194166Y0151648D01*
X0194278Y0151717D01*
X0194392Y0151783D01*
X0194507Y0151845D01*
X0194625Y0151904D01*
X0194744Y0151959D01*
X0194865Y0152011D01*
X0194988Y0152058D01*
X0195112Y0152102D01*
X0195237Y0152143D01*
X0195363Y0152179D01*
X0195491Y0152212D01*
X0195619Y0152240D01*
X0195748Y0152265D01*
X0195878Y0152286D01*
X0196008Y0152303D01*
X0196139Y0152316D01*
X0196270Y0152325D01*
X0196401Y0152330D01*
X0196533Y0152331D01*
X0196664Y0152328D01*
X0196796Y0152321D01*
X0196927Y0152310D01*
X0197057Y0152295D01*
X0197187Y0152276D01*
X0197317Y0152253D01*
X0197445Y0152227D01*
X0197573Y0152196D01*
X0197700Y0152161D01*
X0197826Y0152123D01*
X0197950Y0152081D01*
X0198074Y0152035D01*
X0198195Y0151985D01*
X0198315Y0151932D01*
X0198434Y0151875D01*
X0198551Y0151815D01*
X0198665Y0151751D01*
X0198778Y0151683D01*
X0198889Y0151612D01*
X0198998Y0151538D01*
X0199104Y0151461D01*
X0199208Y0151380D01*
X0199309Y0151297D01*
X0199408Y0151210D01*
X0199504Y0151120D01*
X0199597Y0151027D01*
X0199688Y0150932D01*
X0199775Y0150834D01*
X0199860Y0150733D01*
X0199941Y0150630D01*
X0200019Y0150524D01*
X0200094Y0150416D01*
X0200166Y0150306D01*
X0200234Y0150194D01*
X0200299Y0150080D01*
X0200360Y0149963D01*
X0200418Y0149845D01*
X0200472Y0149725D01*
X0200523Y0149604D01*
X0200570Y0149481D01*
X0200613Y0149357D01*
X0200652Y0149232D01*
X0200688Y0149105D01*
X0200719Y0148977D01*
X0200747Y0148849D01*
X0200771Y0148720D01*
X0200791Y0148590D01*
X0200807Y0148459D01*
X0200819Y0148328D01*
X0200827Y0148197D01*
X0200831Y0148066D01*
X0200831Y0147934D01*
X0200827Y0147803D01*
X0200819Y0147672D01*
X0200807Y0147541D01*
X0200791Y0147410D01*
X0200771Y0147280D01*
X0200747Y0147151D01*
X0200719Y0147023D01*
X0200688Y0146895D01*
X0200652Y0146768D01*
X0200613Y0146643D01*
X0200570Y0146519D01*
X0200523Y0146396D01*
X0200472Y0146275D01*
X0200418Y0146155D01*
X0200360Y0146037D01*
X0200299Y0145920D01*
X0200234Y0145806D01*
X0200166Y0145694D01*
X0200094Y0145584D01*
X0200019Y0145476D01*
X0199941Y0145370D01*
X0199860Y0145267D01*
X0199775Y0145166D01*
X0199688Y0145068D01*
X0199597Y0144973D01*
X0199504Y0144880D01*
X0199408Y0144790D01*
X0199309Y0144703D01*
X0199208Y0144620D01*
X0199104Y0144539D01*
X0198998Y0144462D01*
X0198889Y0144388D01*
X0198778Y0144317D01*
X0198666Y0144249D01*
X0198551Y0144185D01*
X0198434Y0144125D01*
X0198315Y0144068D01*
X0198195Y0144015D01*
X0198074Y0143965D01*
X0197950Y0143919D01*
X0197826Y0143877D01*
X0197700Y0143839D01*
X0197573Y0143804D01*
X0197445Y0143773D01*
X0197317Y0143747D01*
X0197187Y0143724D01*
X0197057Y0143705D01*
X0196927Y0143690D01*
X0196796Y0143679D01*
X0196664Y0143672D01*
X0196533Y0143669D01*
X0196401Y0143670D01*
X0196270Y0143675D01*
X0196139Y0143684D01*
X0196008Y0143697D01*
X0195878Y0143714D01*
X0195748Y0143735D01*
X0195619Y0143760D01*
X0195491Y0143788D01*
X0195363Y0143821D01*
X0195237Y0143857D01*
X0195112Y0143898D01*
X0194988Y0143942D01*
X0194865Y0143989D01*
X0194744Y0144041D01*
X0194625Y0144096D01*
X0194507Y0144155D01*
X0194392Y0144217D01*
X0194278Y0144283D01*
X0194166Y0144352D01*
X0194056Y0144424D01*
X0193949Y0144500D01*
X0193844Y0144579D01*
X0193741Y0144661D01*
X0193641Y0144746D01*
X0193544Y0144835D01*
X0193449Y0144926D01*
X0193357Y0145020D01*
X0193268Y0145117D01*
X0193182Y0145216D01*
X0193099Y0145318D01*
X0193019Y0145423D01*
X0192943Y0145529D01*
X0192870Y0145638D01*
X0192800Y0145750D01*
X0192733Y0145863D01*
X0192670Y0145978D01*
X0192610Y0146096D01*
X0192554Y0146214D01*
X0192502Y0146335D01*
X0192453Y0146457D01*
X0192408Y0146581D01*
X0192367Y0146705D01*
X0192330Y0146832D01*
X0192296Y0146959D01*
X0192266Y0147087D01*
X0192241Y0147216D01*
X0192219Y0147345D01*
X0192201Y0147475D01*
X0192187Y0147606D01*
X0192177Y0147737D01*
X0192171Y0147869D01*
X0192169Y0148000D01*
M02*
