G75*
%MOIN*%
%OFA0B0*%
%FSLAX25Y25*%
%IPPOS*%
%LPD*%
%AMOC8*
5,1,8,0,0,1.08239X$1,22.5*
%
%ADD10C,0.00000*%
%ADD11C,0.00300*%
%ADD12C,0.00100*%
%ADD13C,0.00500*%
%ADD14C,0.00600*%
%ADD15C,0.00200*%
%ADD16C,0.00400*%
%ADD17R,0.03500X0.05000*%
%ADD18C,0.00800*%
%ADD19R,0.10000X0.02000*%
%ADD20R,0.03000X0.07500*%
%ADD21R,0.02000X0.10000*%
%ADD22R,0.07500X0.03000*%
%ADD23C,0.01200*%
%ADD24R,0.02500X0.03000*%
%ADD25R,0.11000X0.05000*%
D10*
X0001500Y0003000D02*
X0001500Y0157961D01*
X0350201Y0157961D01*
X0350201Y0003000D01*
X0001500Y0003000D01*
X0066000Y0028000D02*
X0066002Y0028161D01*
X0066008Y0028321D01*
X0066018Y0028482D01*
X0066032Y0028642D01*
X0066050Y0028802D01*
X0066071Y0028961D01*
X0066097Y0029120D01*
X0066127Y0029278D01*
X0066160Y0029435D01*
X0066198Y0029592D01*
X0066239Y0029747D01*
X0066284Y0029901D01*
X0066333Y0030054D01*
X0066386Y0030206D01*
X0066442Y0030357D01*
X0066503Y0030506D01*
X0066566Y0030654D01*
X0066634Y0030800D01*
X0066705Y0030944D01*
X0066779Y0031086D01*
X0066857Y0031227D01*
X0066939Y0031365D01*
X0067024Y0031502D01*
X0067112Y0031636D01*
X0067204Y0031768D01*
X0067299Y0031898D01*
X0067397Y0032026D01*
X0067498Y0032151D01*
X0067602Y0032273D01*
X0067709Y0032393D01*
X0067819Y0032510D01*
X0067932Y0032625D01*
X0068048Y0032736D01*
X0068167Y0032845D01*
X0068288Y0032950D01*
X0068412Y0033053D01*
X0068538Y0033153D01*
X0068666Y0033249D01*
X0068797Y0033342D01*
X0068931Y0033432D01*
X0069066Y0033519D01*
X0069204Y0033602D01*
X0069343Y0033682D01*
X0069485Y0033758D01*
X0069628Y0033831D01*
X0069773Y0033900D01*
X0069920Y0033966D01*
X0070068Y0034028D01*
X0070218Y0034086D01*
X0070369Y0034141D01*
X0070522Y0034192D01*
X0070676Y0034239D01*
X0070831Y0034282D01*
X0070987Y0034321D01*
X0071143Y0034357D01*
X0071301Y0034388D01*
X0071459Y0034416D01*
X0071618Y0034440D01*
X0071778Y0034460D01*
X0071938Y0034476D01*
X0072098Y0034488D01*
X0072259Y0034496D01*
X0072420Y0034500D01*
X0072580Y0034500D01*
X0072741Y0034496D01*
X0072902Y0034488D01*
X0073062Y0034476D01*
X0073222Y0034460D01*
X0073382Y0034440D01*
X0073541Y0034416D01*
X0073699Y0034388D01*
X0073857Y0034357D01*
X0074013Y0034321D01*
X0074169Y0034282D01*
X0074324Y0034239D01*
X0074478Y0034192D01*
X0074631Y0034141D01*
X0074782Y0034086D01*
X0074932Y0034028D01*
X0075080Y0033966D01*
X0075227Y0033900D01*
X0075372Y0033831D01*
X0075515Y0033758D01*
X0075657Y0033682D01*
X0075796Y0033602D01*
X0075934Y0033519D01*
X0076069Y0033432D01*
X0076203Y0033342D01*
X0076334Y0033249D01*
X0076462Y0033153D01*
X0076588Y0033053D01*
X0076712Y0032950D01*
X0076833Y0032845D01*
X0076952Y0032736D01*
X0077068Y0032625D01*
X0077181Y0032510D01*
X0077291Y0032393D01*
X0077398Y0032273D01*
X0077502Y0032151D01*
X0077603Y0032026D01*
X0077701Y0031898D01*
X0077796Y0031768D01*
X0077888Y0031636D01*
X0077976Y0031502D01*
X0078061Y0031365D01*
X0078143Y0031227D01*
X0078221Y0031086D01*
X0078295Y0030944D01*
X0078366Y0030800D01*
X0078434Y0030654D01*
X0078497Y0030506D01*
X0078558Y0030357D01*
X0078614Y0030206D01*
X0078667Y0030054D01*
X0078716Y0029901D01*
X0078761Y0029747D01*
X0078802Y0029592D01*
X0078840Y0029435D01*
X0078873Y0029278D01*
X0078903Y0029120D01*
X0078929Y0028961D01*
X0078950Y0028802D01*
X0078968Y0028642D01*
X0078982Y0028482D01*
X0078992Y0028321D01*
X0078998Y0028161D01*
X0079000Y0028000D01*
X0078998Y0027839D01*
X0078992Y0027679D01*
X0078982Y0027518D01*
X0078968Y0027358D01*
X0078950Y0027198D01*
X0078929Y0027039D01*
X0078903Y0026880D01*
X0078873Y0026722D01*
X0078840Y0026565D01*
X0078802Y0026408D01*
X0078761Y0026253D01*
X0078716Y0026099D01*
X0078667Y0025946D01*
X0078614Y0025794D01*
X0078558Y0025643D01*
X0078497Y0025494D01*
X0078434Y0025346D01*
X0078366Y0025200D01*
X0078295Y0025056D01*
X0078221Y0024914D01*
X0078143Y0024773D01*
X0078061Y0024635D01*
X0077976Y0024498D01*
X0077888Y0024364D01*
X0077796Y0024232D01*
X0077701Y0024102D01*
X0077603Y0023974D01*
X0077502Y0023849D01*
X0077398Y0023727D01*
X0077291Y0023607D01*
X0077181Y0023490D01*
X0077068Y0023375D01*
X0076952Y0023264D01*
X0076833Y0023155D01*
X0076712Y0023050D01*
X0076588Y0022947D01*
X0076462Y0022847D01*
X0076334Y0022751D01*
X0076203Y0022658D01*
X0076069Y0022568D01*
X0075934Y0022481D01*
X0075796Y0022398D01*
X0075657Y0022318D01*
X0075515Y0022242D01*
X0075372Y0022169D01*
X0075227Y0022100D01*
X0075080Y0022034D01*
X0074932Y0021972D01*
X0074782Y0021914D01*
X0074631Y0021859D01*
X0074478Y0021808D01*
X0074324Y0021761D01*
X0074169Y0021718D01*
X0074013Y0021679D01*
X0073857Y0021643D01*
X0073699Y0021612D01*
X0073541Y0021584D01*
X0073382Y0021560D01*
X0073222Y0021540D01*
X0073062Y0021524D01*
X0072902Y0021512D01*
X0072741Y0021504D01*
X0072580Y0021500D01*
X0072420Y0021500D01*
X0072259Y0021504D01*
X0072098Y0021512D01*
X0071938Y0021524D01*
X0071778Y0021540D01*
X0071618Y0021560D01*
X0071459Y0021584D01*
X0071301Y0021612D01*
X0071143Y0021643D01*
X0070987Y0021679D01*
X0070831Y0021718D01*
X0070676Y0021761D01*
X0070522Y0021808D01*
X0070369Y0021859D01*
X0070218Y0021914D01*
X0070068Y0021972D01*
X0069920Y0022034D01*
X0069773Y0022100D01*
X0069628Y0022169D01*
X0069485Y0022242D01*
X0069343Y0022318D01*
X0069204Y0022398D01*
X0069066Y0022481D01*
X0068931Y0022568D01*
X0068797Y0022658D01*
X0068666Y0022751D01*
X0068538Y0022847D01*
X0068412Y0022947D01*
X0068288Y0023050D01*
X0068167Y0023155D01*
X0068048Y0023264D01*
X0067932Y0023375D01*
X0067819Y0023490D01*
X0067709Y0023607D01*
X0067602Y0023727D01*
X0067498Y0023849D01*
X0067397Y0023974D01*
X0067299Y0024102D01*
X0067204Y0024232D01*
X0067112Y0024364D01*
X0067024Y0024498D01*
X0066939Y0024635D01*
X0066857Y0024773D01*
X0066779Y0024914D01*
X0066705Y0025056D01*
X0066634Y0025200D01*
X0066566Y0025346D01*
X0066503Y0025494D01*
X0066442Y0025643D01*
X0066386Y0025794D01*
X0066333Y0025946D01*
X0066284Y0026099D01*
X0066239Y0026253D01*
X0066198Y0026408D01*
X0066160Y0026565D01*
X0066127Y0026722D01*
X0066097Y0026880D01*
X0066071Y0027039D01*
X0066050Y0027198D01*
X0066032Y0027358D01*
X0066018Y0027518D01*
X0066008Y0027679D01*
X0066002Y0027839D01*
X0066000Y0028000D01*
X0146000Y0028000D02*
X0146002Y0028161D01*
X0146008Y0028321D01*
X0146018Y0028482D01*
X0146032Y0028642D01*
X0146050Y0028802D01*
X0146071Y0028961D01*
X0146097Y0029120D01*
X0146127Y0029278D01*
X0146160Y0029435D01*
X0146198Y0029592D01*
X0146239Y0029747D01*
X0146284Y0029901D01*
X0146333Y0030054D01*
X0146386Y0030206D01*
X0146442Y0030357D01*
X0146503Y0030506D01*
X0146566Y0030654D01*
X0146634Y0030800D01*
X0146705Y0030944D01*
X0146779Y0031086D01*
X0146857Y0031227D01*
X0146939Y0031365D01*
X0147024Y0031502D01*
X0147112Y0031636D01*
X0147204Y0031768D01*
X0147299Y0031898D01*
X0147397Y0032026D01*
X0147498Y0032151D01*
X0147602Y0032273D01*
X0147709Y0032393D01*
X0147819Y0032510D01*
X0147932Y0032625D01*
X0148048Y0032736D01*
X0148167Y0032845D01*
X0148288Y0032950D01*
X0148412Y0033053D01*
X0148538Y0033153D01*
X0148666Y0033249D01*
X0148797Y0033342D01*
X0148931Y0033432D01*
X0149066Y0033519D01*
X0149204Y0033602D01*
X0149343Y0033682D01*
X0149485Y0033758D01*
X0149628Y0033831D01*
X0149773Y0033900D01*
X0149920Y0033966D01*
X0150068Y0034028D01*
X0150218Y0034086D01*
X0150369Y0034141D01*
X0150522Y0034192D01*
X0150676Y0034239D01*
X0150831Y0034282D01*
X0150987Y0034321D01*
X0151143Y0034357D01*
X0151301Y0034388D01*
X0151459Y0034416D01*
X0151618Y0034440D01*
X0151778Y0034460D01*
X0151938Y0034476D01*
X0152098Y0034488D01*
X0152259Y0034496D01*
X0152420Y0034500D01*
X0152580Y0034500D01*
X0152741Y0034496D01*
X0152902Y0034488D01*
X0153062Y0034476D01*
X0153222Y0034460D01*
X0153382Y0034440D01*
X0153541Y0034416D01*
X0153699Y0034388D01*
X0153857Y0034357D01*
X0154013Y0034321D01*
X0154169Y0034282D01*
X0154324Y0034239D01*
X0154478Y0034192D01*
X0154631Y0034141D01*
X0154782Y0034086D01*
X0154932Y0034028D01*
X0155080Y0033966D01*
X0155227Y0033900D01*
X0155372Y0033831D01*
X0155515Y0033758D01*
X0155657Y0033682D01*
X0155796Y0033602D01*
X0155934Y0033519D01*
X0156069Y0033432D01*
X0156203Y0033342D01*
X0156334Y0033249D01*
X0156462Y0033153D01*
X0156588Y0033053D01*
X0156712Y0032950D01*
X0156833Y0032845D01*
X0156952Y0032736D01*
X0157068Y0032625D01*
X0157181Y0032510D01*
X0157291Y0032393D01*
X0157398Y0032273D01*
X0157502Y0032151D01*
X0157603Y0032026D01*
X0157701Y0031898D01*
X0157796Y0031768D01*
X0157888Y0031636D01*
X0157976Y0031502D01*
X0158061Y0031365D01*
X0158143Y0031227D01*
X0158221Y0031086D01*
X0158295Y0030944D01*
X0158366Y0030800D01*
X0158434Y0030654D01*
X0158497Y0030506D01*
X0158558Y0030357D01*
X0158614Y0030206D01*
X0158667Y0030054D01*
X0158716Y0029901D01*
X0158761Y0029747D01*
X0158802Y0029592D01*
X0158840Y0029435D01*
X0158873Y0029278D01*
X0158903Y0029120D01*
X0158929Y0028961D01*
X0158950Y0028802D01*
X0158968Y0028642D01*
X0158982Y0028482D01*
X0158992Y0028321D01*
X0158998Y0028161D01*
X0159000Y0028000D01*
X0158998Y0027839D01*
X0158992Y0027679D01*
X0158982Y0027518D01*
X0158968Y0027358D01*
X0158950Y0027198D01*
X0158929Y0027039D01*
X0158903Y0026880D01*
X0158873Y0026722D01*
X0158840Y0026565D01*
X0158802Y0026408D01*
X0158761Y0026253D01*
X0158716Y0026099D01*
X0158667Y0025946D01*
X0158614Y0025794D01*
X0158558Y0025643D01*
X0158497Y0025494D01*
X0158434Y0025346D01*
X0158366Y0025200D01*
X0158295Y0025056D01*
X0158221Y0024914D01*
X0158143Y0024773D01*
X0158061Y0024635D01*
X0157976Y0024498D01*
X0157888Y0024364D01*
X0157796Y0024232D01*
X0157701Y0024102D01*
X0157603Y0023974D01*
X0157502Y0023849D01*
X0157398Y0023727D01*
X0157291Y0023607D01*
X0157181Y0023490D01*
X0157068Y0023375D01*
X0156952Y0023264D01*
X0156833Y0023155D01*
X0156712Y0023050D01*
X0156588Y0022947D01*
X0156462Y0022847D01*
X0156334Y0022751D01*
X0156203Y0022658D01*
X0156069Y0022568D01*
X0155934Y0022481D01*
X0155796Y0022398D01*
X0155657Y0022318D01*
X0155515Y0022242D01*
X0155372Y0022169D01*
X0155227Y0022100D01*
X0155080Y0022034D01*
X0154932Y0021972D01*
X0154782Y0021914D01*
X0154631Y0021859D01*
X0154478Y0021808D01*
X0154324Y0021761D01*
X0154169Y0021718D01*
X0154013Y0021679D01*
X0153857Y0021643D01*
X0153699Y0021612D01*
X0153541Y0021584D01*
X0153382Y0021560D01*
X0153222Y0021540D01*
X0153062Y0021524D01*
X0152902Y0021512D01*
X0152741Y0021504D01*
X0152580Y0021500D01*
X0152420Y0021500D01*
X0152259Y0021504D01*
X0152098Y0021512D01*
X0151938Y0021524D01*
X0151778Y0021540D01*
X0151618Y0021560D01*
X0151459Y0021584D01*
X0151301Y0021612D01*
X0151143Y0021643D01*
X0150987Y0021679D01*
X0150831Y0021718D01*
X0150676Y0021761D01*
X0150522Y0021808D01*
X0150369Y0021859D01*
X0150218Y0021914D01*
X0150068Y0021972D01*
X0149920Y0022034D01*
X0149773Y0022100D01*
X0149628Y0022169D01*
X0149485Y0022242D01*
X0149343Y0022318D01*
X0149204Y0022398D01*
X0149066Y0022481D01*
X0148931Y0022568D01*
X0148797Y0022658D01*
X0148666Y0022751D01*
X0148538Y0022847D01*
X0148412Y0022947D01*
X0148288Y0023050D01*
X0148167Y0023155D01*
X0148048Y0023264D01*
X0147932Y0023375D01*
X0147819Y0023490D01*
X0147709Y0023607D01*
X0147602Y0023727D01*
X0147498Y0023849D01*
X0147397Y0023974D01*
X0147299Y0024102D01*
X0147204Y0024232D01*
X0147112Y0024364D01*
X0147024Y0024498D01*
X0146939Y0024635D01*
X0146857Y0024773D01*
X0146779Y0024914D01*
X0146705Y0025056D01*
X0146634Y0025200D01*
X0146566Y0025346D01*
X0146503Y0025494D01*
X0146442Y0025643D01*
X0146386Y0025794D01*
X0146333Y0025946D01*
X0146284Y0026099D01*
X0146239Y0026253D01*
X0146198Y0026408D01*
X0146160Y0026565D01*
X0146127Y0026722D01*
X0146097Y0026880D01*
X0146071Y0027039D01*
X0146050Y0027198D01*
X0146032Y0027358D01*
X0146018Y0027518D01*
X0146008Y0027679D01*
X0146002Y0027839D01*
X0146000Y0028000D01*
X0156000Y0073000D02*
X0156002Y0073161D01*
X0156008Y0073321D01*
X0156018Y0073482D01*
X0156032Y0073642D01*
X0156050Y0073802D01*
X0156071Y0073961D01*
X0156097Y0074120D01*
X0156127Y0074278D01*
X0156160Y0074435D01*
X0156198Y0074592D01*
X0156239Y0074747D01*
X0156284Y0074901D01*
X0156333Y0075054D01*
X0156386Y0075206D01*
X0156442Y0075357D01*
X0156503Y0075506D01*
X0156566Y0075654D01*
X0156634Y0075800D01*
X0156705Y0075944D01*
X0156779Y0076086D01*
X0156857Y0076227D01*
X0156939Y0076365D01*
X0157024Y0076502D01*
X0157112Y0076636D01*
X0157204Y0076768D01*
X0157299Y0076898D01*
X0157397Y0077026D01*
X0157498Y0077151D01*
X0157602Y0077273D01*
X0157709Y0077393D01*
X0157819Y0077510D01*
X0157932Y0077625D01*
X0158048Y0077736D01*
X0158167Y0077845D01*
X0158288Y0077950D01*
X0158412Y0078053D01*
X0158538Y0078153D01*
X0158666Y0078249D01*
X0158797Y0078342D01*
X0158931Y0078432D01*
X0159066Y0078519D01*
X0159204Y0078602D01*
X0159343Y0078682D01*
X0159485Y0078758D01*
X0159628Y0078831D01*
X0159773Y0078900D01*
X0159920Y0078966D01*
X0160068Y0079028D01*
X0160218Y0079086D01*
X0160369Y0079141D01*
X0160522Y0079192D01*
X0160676Y0079239D01*
X0160831Y0079282D01*
X0160987Y0079321D01*
X0161143Y0079357D01*
X0161301Y0079388D01*
X0161459Y0079416D01*
X0161618Y0079440D01*
X0161778Y0079460D01*
X0161938Y0079476D01*
X0162098Y0079488D01*
X0162259Y0079496D01*
X0162420Y0079500D01*
X0162580Y0079500D01*
X0162741Y0079496D01*
X0162902Y0079488D01*
X0163062Y0079476D01*
X0163222Y0079460D01*
X0163382Y0079440D01*
X0163541Y0079416D01*
X0163699Y0079388D01*
X0163857Y0079357D01*
X0164013Y0079321D01*
X0164169Y0079282D01*
X0164324Y0079239D01*
X0164478Y0079192D01*
X0164631Y0079141D01*
X0164782Y0079086D01*
X0164932Y0079028D01*
X0165080Y0078966D01*
X0165227Y0078900D01*
X0165372Y0078831D01*
X0165515Y0078758D01*
X0165657Y0078682D01*
X0165796Y0078602D01*
X0165934Y0078519D01*
X0166069Y0078432D01*
X0166203Y0078342D01*
X0166334Y0078249D01*
X0166462Y0078153D01*
X0166588Y0078053D01*
X0166712Y0077950D01*
X0166833Y0077845D01*
X0166952Y0077736D01*
X0167068Y0077625D01*
X0167181Y0077510D01*
X0167291Y0077393D01*
X0167398Y0077273D01*
X0167502Y0077151D01*
X0167603Y0077026D01*
X0167701Y0076898D01*
X0167796Y0076768D01*
X0167888Y0076636D01*
X0167976Y0076502D01*
X0168061Y0076365D01*
X0168143Y0076227D01*
X0168221Y0076086D01*
X0168295Y0075944D01*
X0168366Y0075800D01*
X0168434Y0075654D01*
X0168497Y0075506D01*
X0168558Y0075357D01*
X0168614Y0075206D01*
X0168667Y0075054D01*
X0168716Y0074901D01*
X0168761Y0074747D01*
X0168802Y0074592D01*
X0168840Y0074435D01*
X0168873Y0074278D01*
X0168903Y0074120D01*
X0168929Y0073961D01*
X0168950Y0073802D01*
X0168968Y0073642D01*
X0168982Y0073482D01*
X0168992Y0073321D01*
X0168998Y0073161D01*
X0169000Y0073000D01*
X0168998Y0072839D01*
X0168992Y0072679D01*
X0168982Y0072518D01*
X0168968Y0072358D01*
X0168950Y0072198D01*
X0168929Y0072039D01*
X0168903Y0071880D01*
X0168873Y0071722D01*
X0168840Y0071565D01*
X0168802Y0071408D01*
X0168761Y0071253D01*
X0168716Y0071099D01*
X0168667Y0070946D01*
X0168614Y0070794D01*
X0168558Y0070643D01*
X0168497Y0070494D01*
X0168434Y0070346D01*
X0168366Y0070200D01*
X0168295Y0070056D01*
X0168221Y0069914D01*
X0168143Y0069773D01*
X0168061Y0069635D01*
X0167976Y0069498D01*
X0167888Y0069364D01*
X0167796Y0069232D01*
X0167701Y0069102D01*
X0167603Y0068974D01*
X0167502Y0068849D01*
X0167398Y0068727D01*
X0167291Y0068607D01*
X0167181Y0068490D01*
X0167068Y0068375D01*
X0166952Y0068264D01*
X0166833Y0068155D01*
X0166712Y0068050D01*
X0166588Y0067947D01*
X0166462Y0067847D01*
X0166334Y0067751D01*
X0166203Y0067658D01*
X0166069Y0067568D01*
X0165934Y0067481D01*
X0165796Y0067398D01*
X0165657Y0067318D01*
X0165515Y0067242D01*
X0165372Y0067169D01*
X0165227Y0067100D01*
X0165080Y0067034D01*
X0164932Y0066972D01*
X0164782Y0066914D01*
X0164631Y0066859D01*
X0164478Y0066808D01*
X0164324Y0066761D01*
X0164169Y0066718D01*
X0164013Y0066679D01*
X0163857Y0066643D01*
X0163699Y0066612D01*
X0163541Y0066584D01*
X0163382Y0066560D01*
X0163222Y0066540D01*
X0163062Y0066524D01*
X0162902Y0066512D01*
X0162741Y0066504D01*
X0162580Y0066500D01*
X0162420Y0066500D01*
X0162259Y0066504D01*
X0162098Y0066512D01*
X0161938Y0066524D01*
X0161778Y0066540D01*
X0161618Y0066560D01*
X0161459Y0066584D01*
X0161301Y0066612D01*
X0161143Y0066643D01*
X0160987Y0066679D01*
X0160831Y0066718D01*
X0160676Y0066761D01*
X0160522Y0066808D01*
X0160369Y0066859D01*
X0160218Y0066914D01*
X0160068Y0066972D01*
X0159920Y0067034D01*
X0159773Y0067100D01*
X0159628Y0067169D01*
X0159485Y0067242D01*
X0159343Y0067318D01*
X0159204Y0067398D01*
X0159066Y0067481D01*
X0158931Y0067568D01*
X0158797Y0067658D01*
X0158666Y0067751D01*
X0158538Y0067847D01*
X0158412Y0067947D01*
X0158288Y0068050D01*
X0158167Y0068155D01*
X0158048Y0068264D01*
X0157932Y0068375D01*
X0157819Y0068490D01*
X0157709Y0068607D01*
X0157602Y0068727D01*
X0157498Y0068849D01*
X0157397Y0068974D01*
X0157299Y0069102D01*
X0157204Y0069232D01*
X0157112Y0069364D01*
X0157024Y0069498D01*
X0156939Y0069635D01*
X0156857Y0069773D01*
X0156779Y0069914D01*
X0156705Y0070056D01*
X0156634Y0070200D01*
X0156566Y0070346D01*
X0156503Y0070494D01*
X0156442Y0070643D01*
X0156386Y0070794D01*
X0156333Y0070946D01*
X0156284Y0071099D01*
X0156239Y0071253D01*
X0156198Y0071408D01*
X0156160Y0071565D01*
X0156127Y0071722D01*
X0156097Y0071880D01*
X0156071Y0072039D01*
X0156050Y0072198D01*
X0156032Y0072358D01*
X0156018Y0072518D01*
X0156008Y0072679D01*
X0156002Y0072839D01*
X0156000Y0073000D01*
X0077169Y0078000D02*
X0077171Y0078131D01*
X0077177Y0078263D01*
X0077187Y0078394D01*
X0077201Y0078525D01*
X0077219Y0078655D01*
X0077241Y0078784D01*
X0077266Y0078913D01*
X0077296Y0079041D01*
X0077330Y0079168D01*
X0077367Y0079295D01*
X0077408Y0079419D01*
X0077453Y0079543D01*
X0077502Y0079665D01*
X0077554Y0079786D01*
X0077610Y0079904D01*
X0077670Y0080022D01*
X0077733Y0080137D01*
X0077800Y0080250D01*
X0077870Y0080362D01*
X0077943Y0080471D01*
X0078019Y0080577D01*
X0078099Y0080682D01*
X0078182Y0080784D01*
X0078268Y0080883D01*
X0078357Y0080980D01*
X0078449Y0081074D01*
X0078544Y0081165D01*
X0078641Y0081254D01*
X0078741Y0081339D01*
X0078844Y0081421D01*
X0078949Y0081500D01*
X0079056Y0081576D01*
X0079166Y0081648D01*
X0079278Y0081717D01*
X0079392Y0081783D01*
X0079507Y0081845D01*
X0079625Y0081904D01*
X0079744Y0081959D01*
X0079865Y0082011D01*
X0079988Y0082058D01*
X0080112Y0082102D01*
X0080237Y0082143D01*
X0080363Y0082179D01*
X0080491Y0082212D01*
X0080619Y0082240D01*
X0080748Y0082265D01*
X0080878Y0082286D01*
X0081008Y0082303D01*
X0081139Y0082316D01*
X0081270Y0082325D01*
X0081401Y0082330D01*
X0081533Y0082331D01*
X0081664Y0082328D01*
X0081796Y0082321D01*
X0081927Y0082310D01*
X0082057Y0082295D01*
X0082187Y0082276D01*
X0082317Y0082253D01*
X0082445Y0082227D01*
X0082573Y0082196D01*
X0082700Y0082161D01*
X0082826Y0082123D01*
X0082950Y0082081D01*
X0083074Y0082035D01*
X0083195Y0081985D01*
X0083315Y0081932D01*
X0083434Y0081875D01*
X0083551Y0081815D01*
X0083665Y0081751D01*
X0083778Y0081683D01*
X0083889Y0081612D01*
X0083998Y0081538D01*
X0084104Y0081461D01*
X0084208Y0081380D01*
X0084309Y0081297D01*
X0084408Y0081210D01*
X0084504Y0081120D01*
X0084597Y0081027D01*
X0084688Y0080932D01*
X0084775Y0080834D01*
X0084860Y0080733D01*
X0084941Y0080630D01*
X0085019Y0080524D01*
X0085094Y0080416D01*
X0085166Y0080306D01*
X0085234Y0080194D01*
X0085299Y0080080D01*
X0085360Y0079963D01*
X0085418Y0079845D01*
X0085472Y0079725D01*
X0085523Y0079604D01*
X0085570Y0079481D01*
X0085613Y0079357D01*
X0085652Y0079232D01*
X0085688Y0079105D01*
X0085719Y0078977D01*
X0085747Y0078849D01*
X0085771Y0078720D01*
X0085791Y0078590D01*
X0085807Y0078459D01*
X0085819Y0078328D01*
X0085827Y0078197D01*
X0085831Y0078066D01*
X0085831Y0077934D01*
X0085827Y0077803D01*
X0085819Y0077672D01*
X0085807Y0077541D01*
X0085791Y0077410D01*
X0085771Y0077280D01*
X0085747Y0077151D01*
X0085719Y0077023D01*
X0085688Y0076895D01*
X0085652Y0076768D01*
X0085613Y0076643D01*
X0085570Y0076519D01*
X0085523Y0076396D01*
X0085472Y0076275D01*
X0085418Y0076155D01*
X0085360Y0076037D01*
X0085299Y0075920D01*
X0085234Y0075806D01*
X0085166Y0075694D01*
X0085094Y0075584D01*
X0085019Y0075476D01*
X0084941Y0075370D01*
X0084860Y0075267D01*
X0084775Y0075166D01*
X0084688Y0075068D01*
X0084597Y0074973D01*
X0084504Y0074880D01*
X0084408Y0074790D01*
X0084309Y0074703D01*
X0084208Y0074620D01*
X0084104Y0074539D01*
X0083998Y0074462D01*
X0083889Y0074388D01*
X0083778Y0074317D01*
X0083666Y0074249D01*
X0083551Y0074185D01*
X0083434Y0074125D01*
X0083315Y0074068D01*
X0083195Y0074015D01*
X0083074Y0073965D01*
X0082950Y0073919D01*
X0082826Y0073877D01*
X0082700Y0073839D01*
X0082573Y0073804D01*
X0082445Y0073773D01*
X0082317Y0073747D01*
X0082187Y0073724D01*
X0082057Y0073705D01*
X0081927Y0073690D01*
X0081796Y0073679D01*
X0081664Y0073672D01*
X0081533Y0073669D01*
X0081401Y0073670D01*
X0081270Y0073675D01*
X0081139Y0073684D01*
X0081008Y0073697D01*
X0080878Y0073714D01*
X0080748Y0073735D01*
X0080619Y0073760D01*
X0080491Y0073788D01*
X0080363Y0073821D01*
X0080237Y0073857D01*
X0080112Y0073898D01*
X0079988Y0073942D01*
X0079865Y0073989D01*
X0079744Y0074041D01*
X0079625Y0074096D01*
X0079507Y0074155D01*
X0079392Y0074217D01*
X0079278Y0074283D01*
X0079166Y0074352D01*
X0079056Y0074424D01*
X0078949Y0074500D01*
X0078844Y0074579D01*
X0078741Y0074661D01*
X0078641Y0074746D01*
X0078544Y0074835D01*
X0078449Y0074926D01*
X0078357Y0075020D01*
X0078268Y0075117D01*
X0078182Y0075216D01*
X0078099Y0075318D01*
X0078019Y0075423D01*
X0077943Y0075529D01*
X0077870Y0075638D01*
X0077800Y0075750D01*
X0077733Y0075863D01*
X0077670Y0075978D01*
X0077610Y0076096D01*
X0077554Y0076214D01*
X0077502Y0076335D01*
X0077453Y0076457D01*
X0077408Y0076581D01*
X0077367Y0076705D01*
X0077330Y0076832D01*
X0077296Y0076959D01*
X0077266Y0077087D01*
X0077241Y0077216D01*
X0077219Y0077345D01*
X0077201Y0077475D01*
X0077187Y0077606D01*
X0077177Y0077737D01*
X0077171Y0077869D01*
X0077169Y0078000D01*
X0192169Y0148000D02*
X0192171Y0148131D01*
X0192177Y0148263D01*
X0192187Y0148394D01*
X0192201Y0148525D01*
X0192219Y0148655D01*
X0192241Y0148784D01*
X0192266Y0148913D01*
X0192296Y0149041D01*
X0192330Y0149168D01*
X0192367Y0149295D01*
X0192408Y0149419D01*
X0192453Y0149543D01*
X0192502Y0149665D01*
X0192554Y0149786D01*
X0192610Y0149904D01*
X0192670Y0150022D01*
X0192733Y0150137D01*
X0192800Y0150250D01*
X0192870Y0150362D01*
X0192943Y0150471D01*
X0193019Y0150577D01*
X0193099Y0150682D01*
X0193182Y0150784D01*
X0193268Y0150883D01*
X0193357Y0150980D01*
X0193449Y0151074D01*
X0193544Y0151165D01*
X0193641Y0151254D01*
X0193741Y0151339D01*
X0193844Y0151421D01*
X0193949Y0151500D01*
X0194056Y0151576D01*
X0194166Y0151648D01*
X0194278Y0151717D01*
X0194392Y0151783D01*
X0194507Y0151845D01*
X0194625Y0151904D01*
X0194744Y0151959D01*
X0194865Y0152011D01*
X0194988Y0152058D01*
X0195112Y0152102D01*
X0195237Y0152143D01*
X0195363Y0152179D01*
X0195491Y0152212D01*
X0195619Y0152240D01*
X0195748Y0152265D01*
X0195878Y0152286D01*
X0196008Y0152303D01*
X0196139Y0152316D01*
X0196270Y0152325D01*
X0196401Y0152330D01*
X0196533Y0152331D01*
X0196664Y0152328D01*
X0196796Y0152321D01*
X0196927Y0152310D01*
X0197057Y0152295D01*
X0197187Y0152276D01*
X0197317Y0152253D01*
X0197445Y0152227D01*
X0197573Y0152196D01*
X0197700Y0152161D01*
X0197826Y0152123D01*
X0197950Y0152081D01*
X0198074Y0152035D01*
X0198195Y0151985D01*
X0198315Y0151932D01*
X0198434Y0151875D01*
X0198551Y0151815D01*
X0198665Y0151751D01*
X0198778Y0151683D01*
X0198889Y0151612D01*
X0198998Y0151538D01*
X0199104Y0151461D01*
X0199208Y0151380D01*
X0199309Y0151297D01*
X0199408Y0151210D01*
X0199504Y0151120D01*
X0199597Y0151027D01*
X0199688Y0150932D01*
X0199775Y0150834D01*
X0199860Y0150733D01*
X0199941Y0150630D01*
X0200019Y0150524D01*
X0200094Y0150416D01*
X0200166Y0150306D01*
X0200234Y0150194D01*
X0200299Y0150080D01*
X0200360Y0149963D01*
X0200418Y0149845D01*
X0200472Y0149725D01*
X0200523Y0149604D01*
X0200570Y0149481D01*
X0200613Y0149357D01*
X0200652Y0149232D01*
X0200688Y0149105D01*
X0200719Y0148977D01*
X0200747Y0148849D01*
X0200771Y0148720D01*
X0200791Y0148590D01*
X0200807Y0148459D01*
X0200819Y0148328D01*
X0200827Y0148197D01*
X0200831Y0148066D01*
X0200831Y0147934D01*
X0200827Y0147803D01*
X0200819Y0147672D01*
X0200807Y0147541D01*
X0200791Y0147410D01*
X0200771Y0147280D01*
X0200747Y0147151D01*
X0200719Y0147023D01*
X0200688Y0146895D01*
X0200652Y0146768D01*
X0200613Y0146643D01*
X0200570Y0146519D01*
X0200523Y0146396D01*
X0200472Y0146275D01*
X0200418Y0146155D01*
X0200360Y0146037D01*
X0200299Y0145920D01*
X0200234Y0145806D01*
X0200166Y0145694D01*
X0200094Y0145584D01*
X0200019Y0145476D01*
X0199941Y0145370D01*
X0199860Y0145267D01*
X0199775Y0145166D01*
X0199688Y0145068D01*
X0199597Y0144973D01*
X0199504Y0144880D01*
X0199408Y0144790D01*
X0199309Y0144703D01*
X0199208Y0144620D01*
X0199104Y0144539D01*
X0198998Y0144462D01*
X0198889Y0144388D01*
X0198778Y0144317D01*
X0198666Y0144249D01*
X0198551Y0144185D01*
X0198434Y0144125D01*
X0198315Y0144068D01*
X0198195Y0144015D01*
X0198074Y0143965D01*
X0197950Y0143919D01*
X0197826Y0143877D01*
X0197700Y0143839D01*
X0197573Y0143804D01*
X0197445Y0143773D01*
X0197317Y0143747D01*
X0197187Y0143724D01*
X0197057Y0143705D01*
X0196927Y0143690D01*
X0196796Y0143679D01*
X0196664Y0143672D01*
X0196533Y0143669D01*
X0196401Y0143670D01*
X0196270Y0143675D01*
X0196139Y0143684D01*
X0196008Y0143697D01*
X0195878Y0143714D01*
X0195748Y0143735D01*
X0195619Y0143760D01*
X0195491Y0143788D01*
X0195363Y0143821D01*
X0195237Y0143857D01*
X0195112Y0143898D01*
X0194988Y0143942D01*
X0194865Y0143989D01*
X0194744Y0144041D01*
X0194625Y0144096D01*
X0194507Y0144155D01*
X0194392Y0144217D01*
X0194278Y0144283D01*
X0194166Y0144352D01*
X0194056Y0144424D01*
X0193949Y0144500D01*
X0193844Y0144579D01*
X0193741Y0144661D01*
X0193641Y0144746D01*
X0193544Y0144835D01*
X0193449Y0144926D01*
X0193357Y0145020D01*
X0193268Y0145117D01*
X0193182Y0145216D01*
X0193099Y0145318D01*
X0193019Y0145423D01*
X0192943Y0145529D01*
X0192870Y0145638D01*
X0192800Y0145750D01*
X0192733Y0145863D01*
X0192670Y0145978D01*
X0192610Y0146096D01*
X0192554Y0146214D01*
X0192502Y0146335D01*
X0192453Y0146457D01*
X0192408Y0146581D01*
X0192367Y0146705D01*
X0192330Y0146832D01*
X0192296Y0146959D01*
X0192266Y0147087D01*
X0192241Y0147216D01*
X0192219Y0147345D01*
X0192201Y0147475D01*
X0192187Y0147606D01*
X0192177Y0147737D01*
X0192171Y0147869D01*
X0192169Y0148000D01*
D11*
X0184389Y0153634D02*
X0184389Y0154117D01*
X0183905Y0154601D01*
X0182454Y0154601D01*
X0182454Y0153634D01*
X0182938Y0153150D01*
X0183905Y0153150D01*
X0184389Y0153634D01*
X0183421Y0155569D02*
X0182454Y0154601D01*
X0181442Y0154601D02*
X0181442Y0153150D01*
X0181442Y0154601D02*
X0180959Y0155085D01*
X0179507Y0155085D01*
X0179507Y0153150D01*
X0178511Y0153150D02*
X0177543Y0153150D01*
X0178027Y0153150D02*
X0178027Y0155085D01*
X0177543Y0155085D01*
X0178027Y0156052D02*
X0178027Y0156536D01*
X0176531Y0154601D02*
X0176048Y0155085D01*
X0174597Y0155085D01*
X0174597Y0152183D01*
X0174597Y0153150D02*
X0176048Y0153150D01*
X0176531Y0153634D01*
X0176531Y0154601D01*
X0173585Y0154117D02*
X0173585Y0156052D01*
X0173585Y0154117D02*
X0172617Y0153150D01*
X0171650Y0154117D01*
X0171650Y0156052D01*
X0183421Y0155569D02*
X0184389Y0156052D01*
X0154389Y0156052D02*
X0152454Y0156052D01*
X0152454Y0154601D01*
X0153421Y0155085D01*
X0153905Y0155085D01*
X0154389Y0154601D01*
X0154389Y0153634D01*
X0153905Y0153150D01*
X0152938Y0153150D01*
X0152454Y0153634D01*
X0151442Y0153150D02*
X0151442Y0154601D01*
X0150959Y0155085D01*
X0149507Y0155085D01*
X0149507Y0153150D01*
X0148511Y0153150D02*
X0147543Y0153150D01*
X0148027Y0153150D02*
X0148027Y0155085D01*
X0147543Y0155085D01*
X0148027Y0156052D02*
X0148027Y0156536D01*
X0146531Y0154601D02*
X0146048Y0155085D01*
X0144597Y0155085D01*
X0144597Y0152183D01*
X0144597Y0153150D02*
X0146048Y0153150D01*
X0146531Y0153634D01*
X0146531Y0154601D01*
X0143585Y0154117D02*
X0143585Y0156052D01*
X0143585Y0154117D02*
X0142617Y0153150D01*
X0141650Y0154117D01*
X0141650Y0156052D01*
X0124389Y0154601D02*
X0122454Y0154601D01*
X0123905Y0156052D01*
X0123905Y0153150D01*
X0121442Y0153150D02*
X0121442Y0154601D01*
X0120959Y0155085D01*
X0119507Y0155085D01*
X0119507Y0153150D01*
X0118511Y0153150D02*
X0117543Y0153150D01*
X0118027Y0153150D02*
X0118027Y0155085D01*
X0117543Y0155085D01*
X0118027Y0156052D02*
X0118027Y0156536D01*
X0116531Y0154601D02*
X0116048Y0155085D01*
X0114597Y0155085D01*
X0114597Y0152183D01*
X0114597Y0153150D02*
X0116048Y0153150D01*
X0116531Y0153634D01*
X0116531Y0154601D01*
X0113585Y0154117D02*
X0113585Y0156052D01*
X0113585Y0154117D02*
X0112617Y0153150D01*
X0111650Y0154117D01*
X0111650Y0156052D01*
X0094389Y0155569D02*
X0094389Y0155085D01*
X0093905Y0154601D01*
X0094389Y0154117D01*
X0094389Y0153634D01*
X0093905Y0153150D01*
X0092938Y0153150D01*
X0092454Y0153634D01*
X0091442Y0153150D02*
X0091442Y0154601D01*
X0090959Y0155085D01*
X0089507Y0155085D01*
X0089507Y0153150D01*
X0088511Y0153150D02*
X0087543Y0153150D01*
X0088027Y0153150D02*
X0088027Y0155085D01*
X0087543Y0155085D01*
X0088027Y0156052D02*
X0088027Y0156536D01*
X0086531Y0154601D02*
X0086048Y0155085D01*
X0084597Y0155085D01*
X0084597Y0152183D01*
X0084597Y0153150D02*
X0086048Y0153150D01*
X0086531Y0153634D01*
X0086531Y0154601D01*
X0083585Y0154117D02*
X0083585Y0156052D01*
X0083585Y0154117D02*
X0082617Y0153150D01*
X0081650Y0154117D01*
X0081650Y0156052D01*
X0071935Y0156052D02*
X0071935Y0153150D01*
X0070484Y0153150D01*
X0070000Y0153634D01*
X0070000Y0154601D01*
X0070484Y0155085D01*
X0071935Y0155085D01*
X0068996Y0155085D02*
X0068512Y0155085D01*
X0067545Y0154117D01*
X0067545Y0153150D02*
X0067545Y0155085D01*
X0066533Y0154601D02*
X0066533Y0153150D01*
X0065082Y0153150D01*
X0064598Y0153634D01*
X0065082Y0154117D01*
X0066533Y0154117D01*
X0066533Y0154601D02*
X0066049Y0155085D01*
X0065082Y0155085D01*
X0063587Y0154601D02*
X0063103Y0155085D01*
X0062135Y0155085D01*
X0061652Y0154601D01*
X0061652Y0153634D01*
X0062135Y0153150D01*
X0063103Y0153150D01*
X0063587Y0153634D01*
X0063587Y0154601D01*
X0060640Y0154601D02*
X0060156Y0155085D01*
X0058705Y0155085D01*
X0058705Y0156052D02*
X0058705Y0153150D01*
X0060156Y0153150D01*
X0060640Y0153634D01*
X0060640Y0154601D01*
X0054762Y0153150D02*
X0053794Y0153150D01*
X0054278Y0153150D02*
X0054278Y0156052D01*
X0053794Y0156052D01*
X0052783Y0154601D02*
X0052299Y0155085D01*
X0051331Y0155085D01*
X0050848Y0154601D01*
X0050848Y0153634D01*
X0051331Y0153150D01*
X0052299Y0153150D01*
X0052783Y0153634D01*
X0052783Y0154601D01*
X0049844Y0155085D02*
X0049360Y0155085D01*
X0048392Y0154117D01*
X0048392Y0153150D02*
X0048392Y0155085D01*
X0047395Y0155085D02*
X0046428Y0155085D01*
X0046912Y0155569D02*
X0046912Y0153634D01*
X0047395Y0153150D01*
X0045416Y0153150D02*
X0045416Y0154601D01*
X0044933Y0155085D01*
X0043481Y0155085D01*
X0043481Y0153150D01*
X0042470Y0153634D02*
X0042470Y0154601D01*
X0041986Y0155085D01*
X0041019Y0155085D01*
X0040535Y0154601D01*
X0040535Y0153634D01*
X0041019Y0153150D01*
X0041986Y0153150D01*
X0042470Y0153634D01*
X0039523Y0153150D02*
X0038072Y0153150D01*
X0037588Y0153634D01*
X0037588Y0154601D01*
X0038072Y0155085D01*
X0039523Y0155085D01*
X0033630Y0154601D02*
X0031695Y0153150D01*
X0030684Y0154601D02*
X0028749Y0154601D01*
X0027737Y0154601D02*
X0025802Y0154601D01*
X0021844Y0155085D02*
X0021844Y0152666D01*
X0021361Y0152183D01*
X0020877Y0152183D01*
X0020393Y0153150D02*
X0021844Y0153150D01*
X0020393Y0153150D02*
X0019909Y0153634D01*
X0019909Y0154601D01*
X0020393Y0155085D01*
X0021844Y0155085D01*
X0018429Y0155085D02*
X0018429Y0153150D01*
X0018912Y0153150D02*
X0017945Y0153150D01*
X0016933Y0153634D02*
X0016450Y0154117D01*
X0015482Y0154117D01*
X0014998Y0154601D01*
X0015482Y0155085D01*
X0016933Y0155085D01*
X0017945Y0155085D02*
X0018429Y0155085D01*
X0018429Y0156052D02*
X0018429Y0156536D01*
X0016933Y0153634D02*
X0016450Y0153150D01*
X0014998Y0153150D01*
X0013994Y0153150D02*
X0012543Y0154117D01*
X0013994Y0155085D01*
X0012543Y0156052D02*
X0012543Y0153150D01*
X0011531Y0153150D02*
X0010080Y0153150D01*
X0009597Y0153634D01*
X0009597Y0154601D01*
X0010080Y0155085D01*
X0011531Y0155085D01*
X0008585Y0153150D02*
X0006650Y0153150D01*
X0006650Y0156052D01*
X0031695Y0156052D02*
X0033630Y0154601D01*
X0086650Y0136052D02*
X0086650Y0133150D01*
X0086650Y0134117D02*
X0088101Y0134117D01*
X0088585Y0134601D01*
X0088585Y0135569D01*
X0088101Y0136052D01*
X0086650Y0136052D01*
X0089597Y0134601D02*
X0089597Y0133634D01*
X0090080Y0133150D01*
X0091048Y0133150D01*
X0091531Y0133634D01*
X0091531Y0134601D01*
X0091048Y0135085D01*
X0090080Y0135085D01*
X0089597Y0134601D01*
X0092543Y0135085D02*
X0092543Y0133634D01*
X0093027Y0133150D01*
X0093511Y0133634D01*
X0093994Y0133150D01*
X0094478Y0133634D01*
X0094478Y0135085D01*
X0095490Y0134601D02*
X0095490Y0133634D01*
X0095973Y0133150D01*
X0096941Y0133150D01*
X0097425Y0134117D02*
X0095490Y0134117D01*
X0095490Y0134601D02*
X0095973Y0135085D01*
X0096941Y0135085D01*
X0097425Y0134601D01*
X0097425Y0134117D01*
X0098436Y0134117D02*
X0099404Y0135085D01*
X0099887Y0135085D01*
X0098436Y0135085D02*
X0098436Y0133150D01*
X0116650Y0133150D02*
X0116650Y0136052D01*
X0118101Y0136052D01*
X0118585Y0135569D01*
X0118585Y0134601D01*
X0118101Y0134117D01*
X0116650Y0134117D01*
X0119597Y0134601D02*
X0119597Y0133634D01*
X0120080Y0133150D01*
X0121048Y0133150D01*
X0121531Y0133634D01*
X0121531Y0134601D01*
X0121048Y0135085D01*
X0120080Y0135085D01*
X0119597Y0134601D01*
X0122543Y0135085D02*
X0122543Y0133634D01*
X0123027Y0133150D01*
X0123511Y0133634D01*
X0123994Y0133150D01*
X0124478Y0133634D01*
X0124478Y0135085D01*
X0125490Y0134601D02*
X0125973Y0135085D01*
X0126941Y0135085D01*
X0127425Y0134601D01*
X0127425Y0134117D01*
X0125490Y0134117D01*
X0125490Y0133634D02*
X0125490Y0134601D01*
X0125490Y0133634D02*
X0125973Y0133150D01*
X0126941Y0133150D01*
X0128436Y0133150D02*
X0128436Y0135085D01*
X0128436Y0134117D02*
X0129404Y0135085D01*
X0129887Y0135085D01*
X0146650Y0136052D02*
X0146650Y0133150D01*
X0146650Y0134117D02*
X0148101Y0134117D01*
X0148585Y0134601D01*
X0148585Y0135569D01*
X0148101Y0136052D01*
X0146650Y0136052D01*
X0149597Y0134601D02*
X0149597Y0133634D01*
X0150080Y0133150D01*
X0151048Y0133150D01*
X0151531Y0133634D01*
X0151531Y0134601D01*
X0151048Y0135085D01*
X0150080Y0135085D01*
X0149597Y0134601D01*
X0152543Y0135085D02*
X0152543Y0133634D01*
X0153027Y0133150D01*
X0153511Y0133634D01*
X0153994Y0133150D01*
X0154478Y0133634D01*
X0154478Y0135085D01*
X0155490Y0134601D02*
X0155490Y0133634D01*
X0155973Y0133150D01*
X0156941Y0133150D01*
X0157425Y0134117D02*
X0155490Y0134117D01*
X0155490Y0134601D02*
X0155973Y0135085D01*
X0156941Y0135085D01*
X0157425Y0134601D01*
X0157425Y0134117D01*
X0158436Y0134117D02*
X0159404Y0135085D01*
X0159887Y0135085D01*
X0158436Y0135085D02*
X0158436Y0133150D01*
X0176650Y0133150D02*
X0176650Y0136052D01*
X0178101Y0136052D01*
X0178585Y0135569D01*
X0178585Y0134601D01*
X0178101Y0134117D01*
X0176650Y0134117D01*
X0179597Y0134601D02*
X0179597Y0133634D01*
X0180080Y0133150D01*
X0181048Y0133150D01*
X0181531Y0133634D01*
X0181531Y0134601D01*
X0181048Y0135085D01*
X0180080Y0135085D01*
X0179597Y0134601D01*
X0182543Y0135085D02*
X0182543Y0133634D01*
X0183027Y0133150D01*
X0183511Y0133634D01*
X0183994Y0133150D01*
X0184478Y0133634D01*
X0184478Y0135085D01*
X0185490Y0134601D02*
X0185973Y0135085D01*
X0186941Y0135085D01*
X0187425Y0134601D01*
X0187425Y0134117D01*
X0185490Y0134117D01*
X0185490Y0133634D02*
X0185490Y0134601D01*
X0185490Y0133634D02*
X0185973Y0133150D01*
X0186941Y0133150D01*
X0188436Y0133150D02*
X0188436Y0135085D01*
X0188436Y0134117D02*
X0189404Y0135085D01*
X0189887Y0135085D01*
X0208448Y0134601D02*
X0208448Y0133150D01*
X0211350Y0133150D01*
X0210383Y0133150D02*
X0210383Y0134601D01*
X0209899Y0135085D01*
X0208931Y0135085D01*
X0208448Y0134601D01*
X0209415Y0136097D02*
X0208448Y0137064D01*
X0211350Y0137064D01*
X0211350Y0136097D02*
X0211350Y0138031D01*
X0211350Y0135085D02*
X0210383Y0134117D01*
X0256650Y0148150D02*
X0256650Y0151052D01*
X0258101Y0151052D01*
X0258585Y0150569D01*
X0258585Y0149601D01*
X0258101Y0149117D01*
X0256650Y0149117D01*
X0257617Y0149117D02*
X0258585Y0148150D01*
X0259597Y0148150D02*
X0261531Y0150085D01*
X0261531Y0150569D01*
X0261048Y0151052D01*
X0260080Y0151052D01*
X0259597Y0150569D01*
X0259597Y0148150D02*
X0261531Y0148150D01*
X0286650Y0136052D02*
X0288585Y0136052D01*
X0287617Y0136052D02*
X0287617Y0133150D01*
X0289597Y0133634D02*
X0289597Y0134601D01*
X0290080Y0135085D01*
X0291048Y0135085D01*
X0291531Y0134601D01*
X0291531Y0133634D01*
X0291048Y0133150D01*
X0290080Y0133150D01*
X0289597Y0133634D01*
X0292543Y0133150D02*
X0292543Y0135085D01*
X0293994Y0135085D01*
X0294478Y0134601D01*
X0294478Y0133150D01*
X0295490Y0133634D02*
X0295490Y0134601D01*
X0295973Y0135085D01*
X0296941Y0135085D01*
X0297425Y0134601D01*
X0297425Y0134117D01*
X0295490Y0134117D01*
X0295490Y0133634D02*
X0295973Y0133150D01*
X0296941Y0133150D01*
X0301383Y0133150D02*
X0303318Y0133150D01*
X0302350Y0133150D02*
X0302350Y0136052D01*
X0301383Y0135085D01*
X0307276Y0134601D02*
X0308243Y0135085D01*
X0308727Y0135085D01*
X0309211Y0134601D01*
X0309211Y0133634D01*
X0308727Y0133150D01*
X0307759Y0133150D01*
X0307276Y0133634D01*
X0307276Y0134601D02*
X0307276Y0136052D01*
X0309211Y0136052D01*
X0310222Y0136052D02*
X0310222Y0134601D01*
X0311190Y0135085D01*
X0311673Y0135085D01*
X0312157Y0134601D01*
X0312157Y0133634D01*
X0311673Y0133150D01*
X0310706Y0133150D01*
X0310222Y0133634D01*
X0313169Y0133634D02*
X0313652Y0133150D01*
X0314620Y0133150D01*
X0315104Y0133634D01*
X0315104Y0134601D01*
X0314620Y0135085D01*
X0314136Y0135085D01*
X0313169Y0134601D01*
X0313169Y0136052D01*
X0315104Y0136052D01*
X0312157Y0136052D02*
X0310222Y0136052D01*
X0316650Y0148150D02*
X0316650Y0151052D01*
X0318101Y0151052D01*
X0318585Y0150569D01*
X0318585Y0149601D01*
X0318101Y0149117D01*
X0316650Y0149117D01*
X0317617Y0149117D02*
X0318585Y0148150D01*
X0319597Y0148634D02*
X0320080Y0148150D01*
X0321048Y0148150D01*
X0321531Y0148634D01*
X0321531Y0149117D01*
X0321048Y0149601D01*
X0320564Y0149601D01*
X0321048Y0149601D02*
X0321531Y0150085D01*
X0321531Y0150569D01*
X0321048Y0151052D01*
X0320080Y0151052D01*
X0319597Y0150569D01*
X0338448Y0137548D02*
X0339899Y0136097D01*
X0339899Y0138031D01*
X0341350Y0137548D02*
X0338448Y0137548D01*
X0338931Y0135085D02*
X0338448Y0134601D01*
X0338448Y0133150D01*
X0341350Y0133150D01*
X0340383Y0133150D02*
X0340383Y0134601D01*
X0339899Y0135085D01*
X0338931Y0135085D01*
X0340383Y0134117D02*
X0341350Y0135085D01*
X0255104Y0096052D02*
X0253169Y0096052D01*
X0253169Y0094601D01*
X0254136Y0095085D01*
X0254620Y0095085D01*
X0255104Y0094601D01*
X0255104Y0093634D01*
X0254620Y0093150D01*
X0253652Y0093150D01*
X0253169Y0093634D01*
X0252157Y0093634D02*
X0251673Y0093150D01*
X0250706Y0093150D01*
X0250222Y0093634D01*
X0250222Y0094601D02*
X0251190Y0095085D01*
X0251673Y0095085D01*
X0252157Y0094601D01*
X0252157Y0093634D01*
X0250222Y0094601D02*
X0250222Y0096052D01*
X0252157Y0096052D01*
X0249211Y0096052D02*
X0247276Y0096052D01*
X0247276Y0094601D01*
X0248243Y0095085D01*
X0248727Y0095085D01*
X0249211Y0094601D01*
X0249211Y0093634D01*
X0248727Y0093150D01*
X0247759Y0093150D01*
X0247276Y0093634D01*
X0243318Y0093150D02*
X0241383Y0093150D01*
X0243318Y0095085D01*
X0243318Y0095569D01*
X0242834Y0096052D01*
X0241866Y0096052D01*
X0241383Y0095569D01*
X0237425Y0094601D02*
X0237425Y0094117D01*
X0235490Y0094117D01*
X0235490Y0093634D02*
X0235490Y0094601D01*
X0235973Y0095085D01*
X0236941Y0095085D01*
X0237425Y0094601D01*
X0236941Y0093150D02*
X0235973Y0093150D01*
X0235490Y0093634D01*
X0234478Y0093150D02*
X0234478Y0094601D01*
X0233994Y0095085D01*
X0232543Y0095085D01*
X0232543Y0093150D01*
X0231531Y0093634D02*
X0231531Y0094601D01*
X0231048Y0095085D01*
X0230080Y0095085D01*
X0229597Y0094601D01*
X0229597Y0093634D01*
X0230080Y0093150D01*
X0231048Y0093150D01*
X0231531Y0093634D01*
X0227617Y0093150D02*
X0227617Y0096052D01*
X0226650Y0096052D02*
X0228585Y0096052D01*
X0204373Y0061853D02*
X0203138Y0061853D01*
X0202521Y0061236D01*
X0201307Y0061236D02*
X0200690Y0061853D01*
X0199455Y0061853D01*
X0198838Y0061236D01*
X0201307Y0061236D02*
X0201307Y0060619D01*
X0198838Y0058150D01*
X0201307Y0058150D01*
X0202521Y0058150D02*
X0204990Y0060619D01*
X0204990Y0061236D01*
X0204373Y0061853D01*
X0204990Y0058150D02*
X0202521Y0058150D01*
X0197624Y0058150D02*
X0195155Y0058150D01*
X0196389Y0058150D02*
X0196389Y0061853D01*
X0195155Y0060619D01*
X0190257Y0061236D02*
X0190257Y0060002D01*
X0189640Y0059384D01*
X0187789Y0059384D01*
X0187789Y0058150D02*
X0187789Y0061853D01*
X0189640Y0061853D01*
X0190257Y0061236D01*
X0186568Y0061853D02*
X0185333Y0061853D01*
X0185950Y0061853D02*
X0185950Y0058150D01*
X0185333Y0058150D02*
X0186568Y0058150D01*
X0182884Y0058150D02*
X0182884Y0061853D01*
X0181650Y0061853D02*
X0184119Y0061853D01*
X0131531Y0088634D02*
X0131531Y0089117D01*
X0131048Y0089601D01*
X0129597Y0089601D01*
X0129597Y0088634D01*
X0130080Y0088150D01*
X0131048Y0088150D01*
X0131531Y0088634D01*
X0129597Y0089601D02*
X0130564Y0090569D01*
X0131531Y0091052D01*
X0128585Y0090569D02*
X0128585Y0089601D01*
X0128101Y0089117D01*
X0126650Y0089117D01*
X0126650Y0088150D02*
X0126650Y0091052D01*
X0128101Y0091052D01*
X0128585Y0090569D01*
X0127617Y0089117D02*
X0128585Y0088150D01*
X0045638Y0066401D02*
X0045638Y0065434D01*
X0045155Y0064950D01*
X0043703Y0064950D01*
X0043703Y0063983D02*
X0043703Y0066885D01*
X0045155Y0066885D01*
X0045638Y0066401D01*
X0042692Y0066401D02*
X0042692Y0064950D01*
X0041724Y0064950D02*
X0041724Y0066401D01*
X0042208Y0066885D01*
X0042692Y0066401D01*
X0041724Y0066401D02*
X0041241Y0066885D01*
X0040757Y0066885D01*
X0040757Y0064950D01*
X0039745Y0064950D02*
X0038294Y0064950D01*
X0037810Y0065434D01*
X0038294Y0065917D01*
X0039745Y0065917D01*
X0039745Y0066401D02*
X0039745Y0064950D01*
X0039745Y0066401D02*
X0039262Y0066885D01*
X0038294Y0066885D01*
X0036799Y0066401D02*
X0036799Y0065434D01*
X0036315Y0064950D01*
X0034864Y0064950D01*
X0034864Y0063983D02*
X0034864Y0066885D01*
X0036315Y0066885D01*
X0036799Y0066401D01*
X0033852Y0066401D02*
X0033369Y0066885D01*
X0032401Y0066885D01*
X0031917Y0066401D01*
X0031917Y0065434D01*
X0032401Y0064950D01*
X0033369Y0064950D01*
X0033852Y0065434D01*
X0033852Y0066401D01*
X0027967Y0066885D02*
X0026515Y0065917D01*
X0027967Y0064950D01*
X0026515Y0064950D02*
X0026515Y0067852D01*
X0025504Y0066885D02*
X0024053Y0066885D01*
X0023569Y0066401D01*
X0023569Y0065434D01*
X0024053Y0064950D01*
X0025504Y0064950D01*
X0022572Y0064950D02*
X0021605Y0064950D01*
X0022088Y0064950D02*
X0022088Y0066885D01*
X0021605Y0066885D01*
X0022088Y0067852D02*
X0022088Y0068336D01*
X0018658Y0067852D02*
X0018658Y0064950D01*
X0020593Y0064950D01*
X0006350Y0064721D02*
X0005733Y0064103D01*
X0003264Y0064103D01*
X0003881Y0063486D02*
X0003881Y0064721D01*
X0003881Y0062272D02*
X0006350Y0062272D01*
X0006350Y0060420D01*
X0005733Y0059803D01*
X0003881Y0059803D01*
X0004498Y0058589D02*
X0003881Y0057972D01*
X0003881Y0056737D01*
X0004498Y0056120D01*
X0005733Y0056120D01*
X0006350Y0056737D01*
X0006350Y0057972D01*
X0005733Y0058589D01*
X0004498Y0058589D01*
X0004498Y0054906D02*
X0005733Y0054906D01*
X0006350Y0054288D01*
X0006350Y0052437D01*
X0007584Y0052437D02*
X0003881Y0052437D01*
X0003881Y0054288D01*
X0004498Y0054906D01*
X0005116Y0051222D02*
X0005733Y0051222D01*
X0006350Y0050605D01*
X0006350Y0049371D01*
X0005733Y0048754D01*
X0004498Y0049371D02*
X0004498Y0050605D01*
X0005116Y0051222D01*
X0003264Y0051222D02*
X0002647Y0050605D01*
X0002647Y0049371D01*
X0003264Y0048754D01*
X0003881Y0048754D01*
X0004498Y0049371D01*
X0004498Y0043856D02*
X0005116Y0043856D01*
X0005116Y0041387D01*
X0005733Y0041387D02*
X0004498Y0041387D01*
X0003881Y0042005D01*
X0003881Y0043239D01*
X0004498Y0043856D01*
X0006350Y0043239D02*
X0006350Y0042005D01*
X0005733Y0041387D01*
X0006350Y0040166D02*
X0005733Y0039549D01*
X0003264Y0039549D01*
X0003881Y0038932D02*
X0003881Y0040166D01*
X0003881Y0037718D02*
X0003881Y0035866D01*
X0004498Y0035249D01*
X0005116Y0035866D01*
X0005116Y0037100D01*
X0005733Y0037718D01*
X0006350Y0037100D01*
X0006350Y0035249D01*
X0006350Y0034034D02*
X0006350Y0032183D01*
X0005733Y0031566D01*
X0005116Y0032183D01*
X0005116Y0034034D01*
X0004498Y0034034D02*
X0006350Y0034034D01*
X0004498Y0034034D02*
X0003881Y0033417D01*
X0003881Y0032183D01*
X0002647Y0030351D02*
X0002647Y0027883D01*
X0002647Y0029117D02*
X0006350Y0029117D01*
X0006350Y0026662D02*
X0006350Y0025427D01*
X0006350Y0026044D02*
X0003881Y0026044D01*
X0003881Y0025427D01*
X0003881Y0024206D02*
X0003881Y0022972D01*
X0003264Y0023589D02*
X0005733Y0023589D01*
X0006350Y0024206D01*
X0002647Y0026044D02*
X0002030Y0026044D01*
X0002647Y0021133D02*
X0006350Y0021133D01*
X0006350Y0020516D02*
X0006350Y0021751D01*
X0006350Y0019302D02*
X0003881Y0019302D01*
X0002647Y0020516D02*
X0002647Y0021133D01*
X0006350Y0019302D02*
X0006350Y0017450D01*
X0005733Y0016833D01*
X0003881Y0016833D01*
X0002647Y0015619D02*
X0006350Y0015619D01*
X0006350Y0013150D02*
X0002647Y0013150D01*
X0003881Y0014384D01*
X0002647Y0015619D01*
X0011650Y0011052D02*
X0013585Y0008150D01*
X0013585Y0011052D01*
X0015080Y0010085D02*
X0016048Y0010085D01*
X0016531Y0009601D01*
X0016531Y0008150D01*
X0015080Y0008150D01*
X0014597Y0008634D01*
X0015080Y0009117D01*
X0016531Y0009117D01*
X0017543Y0010085D02*
X0018511Y0010085D01*
X0018027Y0010569D02*
X0018027Y0008634D01*
X0018511Y0008150D01*
X0019507Y0008150D02*
X0019507Y0011052D01*
X0019991Y0010085D02*
X0020959Y0010085D01*
X0021442Y0009601D01*
X0021442Y0008150D01*
X0022454Y0008634D02*
X0022938Y0009117D01*
X0024389Y0009117D01*
X0024389Y0009601D02*
X0024389Y0008150D01*
X0022938Y0008150D01*
X0022454Y0008634D01*
X0022938Y0010085D02*
X0023905Y0010085D01*
X0024389Y0009601D01*
X0025400Y0010085D02*
X0025400Y0008150D01*
X0025400Y0010085D02*
X0026852Y0010085D01*
X0027335Y0009601D01*
X0027335Y0008150D01*
X0031293Y0009117D02*
X0031293Y0011052D01*
X0031293Y0009117D02*
X0032261Y0008150D01*
X0033228Y0009117D01*
X0033228Y0011052D01*
X0034240Y0009601D02*
X0036175Y0009601D01*
X0037186Y0010569D02*
X0037186Y0008634D01*
X0037670Y0008150D01*
X0038638Y0008150D01*
X0039121Y0008634D01*
X0039121Y0010569D02*
X0038638Y0011052D01*
X0037670Y0011052D01*
X0037186Y0010569D01*
X0043080Y0010569D02*
X0043563Y0011052D01*
X0044531Y0011052D01*
X0045015Y0010569D01*
X0045015Y0010085D01*
X0043080Y0008150D01*
X0045015Y0008150D01*
X0046026Y0008634D02*
X0047961Y0010569D01*
X0047961Y0008634D01*
X0047477Y0008150D01*
X0046510Y0008150D01*
X0046026Y0008634D01*
X0046026Y0010569D01*
X0046510Y0011052D01*
X0047477Y0011052D01*
X0047961Y0010569D01*
X0048973Y0010085D02*
X0049940Y0011052D01*
X0049940Y0008150D01*
X0048973Y0008150D02*
X0050908Y0008150D01*
X0051919Y0008634D02*
X0052403Y0008150D01*
X0053370Y0008150D01*
X0053854Y0008634D01*
X0053854Y0009117D01*
X0053370Y0009601D01*
X0051919Y0009601D01*
X0051919Y0008634D01*
X0051919Y0009601D02*
X0052887Y0010569D01*
X0053854Y0011052D01*
X0019991Y0010085D02*
X0019507Y0009601D01*
X0011650Y0008150D02*
X0011650Y0011052D01*
X0091650Y0023767D02*
X0092267Y0023150D01*
X0093502Y0023150D01*
X0094119Y0023767D01*
X0094119Y0025002D01*
X0093502Y0025619D01*
X0092884Y0025619D01*
X0091650Y0025002D01*
X0091650Y0026853D01*
X0094119Y0026853D01*
X0095333Y0026853D02*
X0095333Y0024384D01*
X0096568Y0023150D01*
X0097802Y0024384D01*
X0097802Y0026853D01*
X0102699Y0026853D02*
X0102699Y0023150D01*
X0102699Y0024384D02*
X0104551Y0024384D01*
X0105168Y0025002D01*
X0105168Y0026236D01*
X0104551Y0026853D01*
X0102699Y0026853D01*
X0103934Y0024384D02*
X0105168Y0023150D01*
X0106383Y0023767D02*
X0106383Y0025002D01*
X0107000Y0025619D01*
X0108234Y0025619D01*
X0108851Y0025002D01*
X0108851Y0024384D01*
X0106383Y0024384D01*
X0106383Y0023767D02*
X0107000Y0023150D01*
X0108234Y0023150D01*
X0110066Y0023767D02*
X0110066Y0025002D01*
X0110683Y0025619D01*
X0112534Y0025619D01*
X0112534Y0022533D01*
X0111917Y0021916D01*
X0111300Y0021916D01*
X0110683Y0023150D02*
X0112534Y0023150D01*
X0110683Y0023150D02*
X0110066Y0023767D01*
X0171650Y0016853D02*
X0174119Y0016853D01*
X0175333Y0016853D02*
X0176568Y0016853D01*
X0175950Y0016853D02*
X0175950Y0013150D01*
X0175333Y0013150D02*
X0176568Y0013150D01*
X0177789Y0013150D02*
X0177789Y0016853D01*
X0179640Y0016853D01*
X0180257Y0016236D01*
X0180257Y0015002D01*
X0179640Y0014384D01*
X0177789Y0014384D01*
X0172884Y0013150D02*
X0172884Y0016853D01*
X0185155Y0015619D02*
X0186389Y0016853D01*
X0186389Y0013150D01*
X0185155Y0013150D02*
X0187624Y0013150D01*
X0188838Y0013150D02*
X0191307Y0015619D01*
X0191307Y0016236D01*
X0190690Y0016853D01*
X0189455Y0016853D01*
X0188838Y0016236D01*
X0192521Y0016236D02*
X0193138Y0016853D01*
X0194373Y0016853D01*
X0194990Y0016236D01*
X0194990Y0015619D01*
X0192521Y0013150D01*
X0194990Y0013150D01*
X0191307Y0013150D02*
X0188838Y0013150D01*
X0246650Y0006052D02*
X0248585Y0006052D01*
X0247617Y0006052D02*
X0247617Y0003150D01*
X0249597Y0003634D02*
X0250080Y0003150D01*
X0251048Y0003150D01*
X0251531Y0003634D01*
X0251531Y0004601D01*
X0251048Y0005085D01*
X0250080Y0005085D01*
X0249597Y0004601D01*
X0249597Y0003634D01*
X0252543Y0003150D02*
X0252543Y0005085D01*
X0253994Y0005085D01*
X0254478Y0004601D01*
X0254478Y0003150D01*
X0255490Y0003634D02*
X0255973Y0003150D01*
X0256941Y0003150D01*
X0257425Y0004117D02*
X0255490Y0004117D01*
X0255490Y0003634D02*
X0255490Y0004601D01*
X0255973Y0005085D01*
X0256941Y0005085D01*
X0257425Y0004601D01*
X0257425Y0004117D01*
X0261383Y0004601D02*
X0263318Y0004601D01*
X0264329Y0004601D02*
X0266264Y0004601D01*
X0267276Y0003150D02*
X0269211Y0004601D01*
X0267276Y0006052D01*
X0273169Y0005569D02*
X0273169Y0005085D01*
X0273652Y0004601D01*
X0274620Y0004601D01*
X0275104Y0004117D01*
X0275104Y0003634D01*
X0274620Y0003150D01*
X0273652Y0003150D01*
X0273169Y0003634D01*
X0273169Y0005569D02*
X0273652Y0006052D01*
X0274620Y0006052D01*
X0275104Y0005569D01*
X0276115Y0005085D02*
X0277566Y0005085D01*
X0278050Y0004601D01*
X0278050Y0003634D01*
X0277566Y0003150D01*
X0276115Y0003150D01*
X0276115Y0002183D02*
X0276115Y0005085D01*
X0279062Y0004601D02*
X0279545Y0005085D01*
X0280513Y0005085D01*
X0280997Y0004601D01*
X0280997Y0004117D01*
X0279062Y0004117D01*
X0279062Y0003634D02*
X0279062Y0004601D01*
X0279062Y0003634D02*
X0279545Y0003150D01*
X0280513Y0003150D01*
X0282008Y0003634D02*
X0282492Y0004117D01*
X0283943Y0004117D01*
X0283943Y0004601D02*
X0283943Y0003150D01*
X0282492Y0003150D01*
X0282008Y0003634D01*
X0282492Y0005085D02*
X0283459Y0005085D01*
X0283943Y0004601D01*
X0284955Y0004117D02*
X0286406Y0005085D01*
X0287410Y0004601D02*
X0287894Y0005085D01*
X0288861Y0005085D01*
X0289345Y0004601D01*
X0289345Y0004117D01*
X0287410Y0004117D01*
X0287410Y0003634D02*
X0287410Y0004601D01*
X0287410Y0003634D02*
X0287894Y0003150D01*
X0288861Y0003150D01*
X0290357Y0003150D02*
X0290357Y0005085D01*
X0291324Y0005085D02*
X0291808Y0005085D01*
X0291324Y0005085D02*
X0290357Y0004117D01*
X0286406Y0003150D02*
X0284955Y0004117D01*
X0284955Y0003150D02*
X0284955Y0006052D01*
X0323448Y0048150D02*
X0323448Y0049601D01*
X0323931Y0050085D01*
X0324899Y0050085D01*
X0325383Y0049601D01*
X0325383Y0048150D01*
X0326350Y0048150D02*
X0323448Y0048150D01*
X0325383Y0049117D02*
X0326350Y0050085D01*
X0325866Y0051097D02*
X0326350Y0051580D01*
X0326350Y0052548D01*
X0325866Y0053031D01*
X0324899Y0053031D01*
X0324415Y0052548D01*
X0324415Y0052064D01*
X0324899Y0051097D01*
X0323448Y0051097D01*
X0323448Y0053031D01*
X0094389Y0155569D02*
X0093905Y0156052D01*
X0092938Y0156052D01*
X0092454Y0155569D01*
X0093421Y0154601D02*
X0093905Y0154601D01*
X0006350Y0108311D02*
X0006350Y0105842D01*
X0003881Y0108311D01*
X0003264Y0108311D01*
X0002647Y0107694D01*
X0002647Y0106460D01*
X0003264Y0105842D01*
X0003881Y0104628D02*
X0006350Y0103394D01*
X0003881Y0102159D01*
X0004498Y0097262D02*
X0005116Y0097262D01*
X0005116Y0094793D01*
X0005733Y0094793D02*
X0004498Y0094793D01*
X0003881Y0095410D01*
X0003881Y0096645D01*
X0004498Y0097262D01*
X0006350Y0096645D02*
X0006350Y0095410D01*
X0005733Y0094793D01*
X0006350Y0093579D02*
X0006350Y0091727D01*
X0005733Y0091110D01*
X0004498Y0091110D01*
X0003881Y0091727D01*
X0003881Y0093579D01*
X0004498Y0089895D02*
X0006350Y0089895D01*
X0006350Y0088044D01*
X0005733Y0087427D01*
X0005116Y0088044D01*
X0005116Y0089895D01*
X0004498Y0089895D02*
X0003881Y0089278D01*
X0003881Y0088044D01*
X0004498Y0086206D02*
X0004498Y0084971D01*
X0003881Y0083754D02*
X0003881Y0083136D01*
X0005116Y0081902D01*
X0005116Y0080688D02*
X0005116Y0078219D01*
X0005733Y0078219D02*
X0004498Y0078219D01*
X0003881Y0078836D01*
X0003881Y0080070D01*
X0004498Y0080688D01*
X0005116Y0080688D01*
X0006350Y0080070D02*
X0006350Y0078836D01*
X0005733Y0078219D01*
X0006350Y0076998D02*
X0005733Y0076381D01*
X0003264Y0076381D01*
X0003881Y0076998D02*
X0003881Y0075763D01*
X0004498Y0074549D02*
X0006350Y0074549D01*
X0004498Y0074549D02*
X0003881Y0073932D01*
X0003881Y0072080D01*
X0006350Y0072080D01*
X0006350Y0070859D02*
X0006350Y0069625D01*
X0006350Y0070242D02*
X0002647Y0070242D01*
X0002647Y0069625D02*
X0002647Y0070859D01*
X0003881Y0081902D02*
X0006350Y0081902D01*
X0006350Y0085588D02*
X0003264Y0085588D01*
X0002647Y0086206D01*
D12*
X0056550Y0084551D02*
X0056550Y0083050D01*
X0057551Y0083050D01*
X0058023Y0083050D02*
X0058524Y0083050D01*
X0058273Y0083050D02*
X0058273Y0084051D01*
X0058023Y0084051D01*
X0058273Y0084551D02*
X0058273Y0084801D01*
X0059256Y0084051D02*
X0059005Y0083801D01*
X0059005Y0083300D01*
X0059256Y0083050D01*
X0060006Y0083050D01*
X0060006Y0082800D02*
X0060006Y0084051D01*
X0059256Y0084051D01*
X0060479Y0083801D02*
X0060729Y0084051D01*
X0061229Y0084051D01*
X0061480Y0083801D01*
X0061480Y0083050D01*
X0062202Y0083300D02*
X0062452Y0083050D01*
X0062202Y0083300D02*
X0062202Y0084301D01*
X0061952Y0084051D02*
X0062452Y0084051D01*
X0060479Y0084551D02*
X0060479Y0083050D01*
X0060006Y0082800D02*
X0059756Y0082550D01*
X0059506Y0082550D01*
X0076550Y0069301D02*
X0076550Y0068300D01*
X0076800Y0068050D01*
X0077301Y0068050D01*
X0077551Y0068300D01*
X0078023Y0068300D02*
X0078273Y0068550D01*
X0079024Y0068550D01*
X0079024Y0068801D02*
X0079024Y0068050D01*
X0078273Y0068050D01*
X0078023Y0068300D01*
X0078273Y0069051D02*
X0078774Y0069051D01*
X0079024Y0068801D01*
X0079497Y0068801D02*
X0079497Y0068300D01*
X0079747Y0068050D01*
X0080497Y0068050D01*
X0080497Y0067800D02*
X0080497Y0069051D01*
X0079747Y0069051D01*
X0079497Y0068801D01*
X0079997Y0067550D02*
X0080247Y0067550D01*
X0080497Y0067800D01*
X0080970Y0068300D02*
X0080970Y0068801D01*
X0081220Y0069051D01*
X0081720Y0069051D01*
X0081971Y0068801D01*
X0081971Y0068550D01*
X0080970Y0068550D01*
X0080970Y0068300D02*
X0081220Y0068050D01*
X0081720Y0068050D01*
X0077551Y0069301D02*
X0077301Y0069551D01*
X0076800Y0069551D01*
X0076550Y0069301D01*
X0077693Y0054301D02*
X0077693Y0053300D01*
X0077943Y0053050D01*
X0076971Y0053050D02*
X0076971Y0054051D01*
X0077443Y0054051D02*
X0077943Y0054051D01*
X0076971Y0053050D02*
X0076220Y0053050D01*
X0075970Y0053300D01*
X0075970Y0054051D01*
X0075497Y0053801D02*
X0075247Y0054051D01*
X0074747Y0054051D01*
X0074497Y0053801D01*
X0074497Y0053300D01*
X0074747Y0053050D01*
X0075247Y0053050D01*
X0075497Y0053300D01*
X0075497Y0053801D01*
X0074024Y0053801D02*
X0074024Y0053300D01*
X0073774Y0053050D01*
X0073023Y0053050D01*
X0073023Y0052550D02*
X0073023Y0054051D01*
X0073774Y0054051D01*
X0074024Y0053801D01*
X0072551Y0053550D02*
X0072551Y0053300D01*
X0072301Y0053050D01*
X0071800Y0053050D01*
X0071550Y0053300D01*
X0071800Y0053801D02*
X0072301Y0053801D01*
X0072551Y0053550D01*
X0072551Y0054301D02*
X0072301Y0054551D01*
X0071800Y0054551D01*
X0071550Y0054301D01*
X0071550Y0054051D01*
X0071800Y0053801D01*
X0191550Y0138300D02*
X0191800Y0138050D01*
X0192301Y0138050D01*
X0192551Y0138300D01*
X0192551Y0138550D01*
X0192301Y0138801D01*
X0191800Y0138801D01*
X0191550Y0139051D01*
X0191550Y0139301D01*
X0191800Y0139551D01*
X0192301Y0139551D01*
X0192551Y0139301D01*
X0193023Y0139551D02*
X0193023Y0138050D01*
X0193023Y0138801D02*
X0193273Y0139051D01*
X0193774Y0139051D01*
X0194024Y0138801D01*
X0194024Y0138050D01*
X0194497Y0138050D02*
X0194997Y0138050D01*
X0194747Y0138050D02*
X0194747Y0139051D01*
X0194497Y0139051D01*
X0194747Y0139551D02*
X0194747Y0139801D01*
X0195729Y0139051D02*
X0196229Y0139051D01*
X0196480Y0138801D01*
X0196480Y0138550D01*
X0195479Y0138550D01*
X0195479Y0138300D02*
X0195479Y0138801D01*
X0195729Y0139051D01*
X0195479Y0138300D02*
X0195729Y0138050D01*
X0196229Y0138050D01*
X0196952Y0138050D02*
X0197452Y0138050D01*
X0197202Y0138050D02*
X0197202Y0139551D01*
X0196952Y0139551D01*
X0197934Y0138801D02*
X0197934Y0138300D01*
X0198184Y0138050D01*
X0198935Y0138050D01*
X0198935Y0139551D01*
X0198935Y0139051D02*
X0198184Y0139051D01*
X0197934Y0138801D01*
X0199407Y0139051D02*
X0199658Y0139051D01*
X0199658Y0138050D01*
X0199908Y0138050D02*
X0199407Y0138050D01*
X0200390Y0138050D02*
X0200390Y0139051D01*
X0201140Y0139051D01*
X0201390Y0138801D01*
X0201390Y0138050D01*
X0201863Y0138300D02*
X0202113Y0138050D01*
X0202864Y0138050D01*
X0202864Y0137800D02*
X0202864Y0139051D01*
X0202113Y0139051D01*
X0201863Y0138801D01*
X0201863Y0138300D01*
X0202363Y0137550D02*
X0202613Y0137550D01*
X0202864Y0137800D01*
X0199658Y0139551D02*
X0199658Y0139801D01*
D13*
X0211500Y0093500D02*
X0162500Y0093500D01*
X0162500Y0090000D01*
X0156500Y0090000D01*
X0156500Y0093500D01*
X0149000Y0093500D01*
X0149000Y0052500D01*
X0156500Y0052500D01*
X0156500Y0056000D01*
X0162500Y0056000D01*
X0162500Y0052500D01*
X0211500Y0052500D01*
X0211500Y0093500D01*
X0175250Y0078368D02*
X0173549Y0078368D01*
X0172981Y0077801D01*
X0173549Y0077234D01*
X0175250Y0077234D01*
X0175250Y0076099D02*
X0172981Y0076099D01*
X0172981Y0076667D01*
X0173549Y0077234D01*
X0173549Y0074777D02*
X0175250Y0074777D01*
X0175250Y0073643D02*
X0173549Y0073643D01*
X0172981Y0074210D01*
X0173549Y0074777D01*
X0173549Y0073643D02*
X0172981Y0073075D01*
X0172981Y0072508D01*
X0175250Y0072508D01*
X0174683Y0071186D02*
X0175250Y0070619D01*
X0175250Y0069484D01*
X0174683Y0068917D01*
X0173549Y0068917D02*
X0172981Y0070052D01*
X0172981Y0070619D01*
X0173549Y0071186D01*
X0174683Y0071186D01*
X0173549Y0068917D02*
X0171847Y0068917D01*
X0171847Y0071186D01*
X0174683Y0067658D02*
X0174683Y0067090D01*
X0175250Y0067090D01*
X0175250Y0067658D01*
X0174683Y0067658D01*
X0175250Y0067658D02*
X0176384Y0066523D01*
X0174683Y0062932D02*
X0172414Y0065201D01*
X0171847Y0065201D01*
X0171847Y0062932D01*
X0174683Y0062932D02*
X0175250Y0062932D01*
X0175250Y0061610D02*
X0175250Y0059341D01*
X0175250Y0060475D02*
X0171847Y0060475D01*
X0172981Y0059341D01*
X0172981Y0058019D02*
X0175250Y0058019D01*
X0173549Y0058019D02*
X0173549Y0055750D01*
X0172981Y0055750D02*
X0171847Y0056884D01*
X0172981Y0058019D01*
X0172981Y0055750D02*
X0175250Y0055750D01*
X0152500Y0048500D02*
X0152500Y0045000D01*
X0146500Y0045000D01*
X0146500Y0048500D01*
X0139000Y0048500D01*
X0139000Y0007500D01*
X0146500Y0007500D01*
X0146500Y0011000D01*
X0152500Y0011000D01*
X0152500Y0007500D01*
X0201500Y0007500D01*
X0201500Y0048500D01*
X0152500Y0048500D01*
X0128105Y0055500D02*
X0128105Y0057302D01*
X0127655Y0057752D01*
X0126754Y0057752D01*
X0126303Y0057302D01*
X0126303Y0056852D01*
X0126754Y0056401D01*
X0128105Y0056401D01*
X0128105Y0055500D02*
X0127655Y0055050D01*
X0126754Y0055050D01*
X0126303Y0055500D01*
X0125159Y0055050D02*
X0124258Y0055951D01*
X0124708Y0055951D02*
X0123357Y0055951D01*
X0123357Y0055050D02*
X0123357Y0057752D01*
X0124708Y0057752D01*
X0125159Y0057302D01*
X0125159Y0056401D01*
X0124708Y0055951D01*
X0125159Y0070050D02*
X0124258Y0070951D01*
X0124708Y0070951D02*
X0123357Y0070951D01*
X0123357Y0070050D02*
X0123357Y0072752D01*
X0124708Y0072752D01*
X0125159Y0072302D01*
X0125159Y0071401D01*
X0124708Y0070951D01*
X0126303Y0070951D02*
X0126754Y0071401D01*
X0127655Y0071401D01*
X0128105Y0070951D01*
X0128105Y0070500D01*
X0127655Y0070050D01*
X0126754Y0070050D01*
X0126303Y0070500D01*
X0126303Y0070951D01*
X0126754Y0071401D02*
X0126303Y0071852D01*
X0126303Y0072302D01*
X0126754Y0072752D01*
X0127655Y0072752D01*
X0128105Y0072302D01*
X0128105Y0071852D01*
X0127655Y0071401D01*
X0155400Y0073000D02*
X0155402Y0073174D01*
X0155409Y0073348D01*
X0155419Y0073522D01*
X0155434Y0073696D01*
X0155453Y0073869D01*
X0155477Y0074042D01*
X0155505Y0074214D01*
X0155536Y0074385D01*
X0155573Y0074556D01*
X0155613Y0074725D01*
X0155657Y0074894D01*
X0155706Y0075061D01*
X0155758Y0075227D01*
X0155815Y0075392D01*
X0155876Y0075555D01*
X0155940Y0075717D01*
X0156009Y0075877D01*
X0156082Y0076036D01*
X0156158Y0076192D01*
X0156238Y0076347D01*
X0156322Y0076500D01*
X0156410Y0076650D01*
X0156502Y0076798D01*
X0156597Y0076945D01*
X0156695Y0077088D01*
X0156797Y0077229D01*
X0156903Y0077368D01*
X0157012Y0077504D01*
X0157124Y0077638D01*
X0157239Y0077768D01*
X0157358Y0077896D01*
X0157480Y0078020D01*
X0157604Y0078142D01*
X0157732Y0078261D01*
X0157862Y0078376D01*
X0157996Y0078488D01*
X0158132Y0078597D01*
X0158271Y0078703D01*
X0158412Y0078805D01*
X0158555Y0078903D01*
X0158702Y0078998D01*
X0158850Y0079090D01*
X0159000Y0079178D01*
X0159153Y0079262D01*
X0159308Y0079342D01*
X0159464Y0079418D01*
X0159623Y0079491D01*
X0159783Y0079560D01*
X0159945Y0079624D01*
X0160108Y0079685D01*
X0160273Y0079742D01*
X0160439Y0079794D01*
X0160606Y0079843D01*
X0160775Y0079887D01*
X0160944Y0079927D01*
X0161115Y0079964D01*
X0161286Y0079995D01*
X0161458Y0080023D01*
X0161631Y0080047D01*
X0161804Y0080066D01*
X0161978Y0080081D01*
X0162152Y0080091D01*
X0162326Y0080098D01*
X0162500Y0080100D01*
X0162674Y0080098D01*
X0162848Y0080091D01*
X0163022Y0080081D01*
X0163196Y0080066D01*
X0163369Y0080047D01*
X0163542Y0080023D01*
X0163714Y0079995D01*
X0163885Y0079964D01*
X0164056Y0079927D01*
X0164225Y0079887D01*
X0164394Y0079843D01*
X0164561Y0079794D01*
X0164727Y0079742D01*
X0164892Y0079685D01*
X0165055Y0079624D01*
X0165217Y0079560D01*
X0165377Y0079491D01*
X0165536Y0079418D01*
X0165692Y0079342D01*
X0165847Y0079262D01*
X0166000Y0079178D01*
X0166150Y0079090D01*
X0166298Y0078998D01*
X0166445Y0078903D01*
X0166588Y0078805D01*
X0166729Y0078703D01*
X0166868Y0078597D01*
X0167004Y0078488D01*
X0167138Y0078376D01*
X0167268Y0078261D01*
X0167396Y0078142D01*
X0167520Y0078020D01*
X0167642Y0077896D01*
X0167761Y0077768D01*
X0167876Y0077638D01*
X0167988Y0077504D01*
X0168097Y0077368D01*
X0168203Y0077229D01*
X0168305Y0077088D01*
X0168403Y0076945D01*
X0168498Y0076798D01*
X0168590Y0076650D01*
X0168678Y0076500D01*
X0168762Y0076347D01*
X0168842Y0076192D01*
X0168918Y0076036D01*
X0168991Y0075877D01*
X0169060Y0075717D01*
X0169124Y0075555D01*
X0169185Y0075392D01*
X0169242Y0075227D01*
X0169294Y0075061D01*
X0169343Y0074894D01*
X0169387Y0074725D01*
X0169427Y0074556D01*
X0169464Y0074385D01*
X0169495Y0074214D01*
X0169523Y0074042D01*
X0169547Y0073869D01*
X0169566Y0073696D01*
X0169581Y0073522D01*
X0169591Y0073348D01*
X0169598Y0073174D01*
X0169600Y0073000D01*
X0169598Y0072826D01*
X0169591Y0072652D01*
X0169581Y0072478D01*
X0169566Y0072304D01*
X0169547Y0072131D01*
X0169523Y0071958D01*
X0169495Y0071786D01*
X0169464Y0071615D01*
X0169427Y0071444D01*
X0169387Y0071275D01*
X0169343Y0071106D01*
X0169294Y0070939D01*
X0169242Y0070773D01*
X0169185Y0070608D01*
X0169124Y0070445D01*
X0169060Y0070283D01*
X0168991Y0070123D01*
X0168918Y0069964D01*
X0168842Y0069808D01*
X0168762Y0069653D01*
X0168678Y0069500D01*
X0168590Y0069350D01*
X0168498Y0069202D01*
X0168403Y0069055D01*
X0168305Y0068912D01*
X0168203Y0068771D01*
X0168097Y0068632D01*
X0167988Y0068496D01*
X0167876Y0068362D01*
X0167761Y0068232D01*
X0167642Y0068104D01*
X0167520Y0067980D01*
X0167396Y0067858D01*
X0167268Y0067739D01*
X0167138Y0067624D01*
X0167004Y0067512D01*
X0166868Y0067403D01*
X0166729Y0067297D01*
X0166588Y0067195D01*
X0166445Y0067097D01*
X0166298Y0067002D01*
X0166150Y0066910D01*
X0166000Y0066822D01*
X0165847Y0066738D01*
X0165692Y0066658D01*
X0165536Y0066582D01*
X0165377Y0066509D01*
X0165217Y0066440D01*
X0165055Y0066376D01*
X0164892Y0066315D01*
X0164727Y0066258D01*
X0164561Y0066206D01*
X0164394Y0066157D01*
X0164225Y0066113D01*
X0164056Y0066073D01*
X0163885Y0066036D01*
X0163714Y0066005D01*
X0163542Y0065977D01*
X0163369Y0065953D01*
X0163196Y0065934D01*
X0163022Y0065919D01*
X0162848Y0065909D01*
X0162674Y0065902D01*
X0162500Y0065900D01*
X0162326Y0065902D01*
X0162152Y0065909D01*
X0161978Y0065919D01*
X0161804Y0065934D01*
X0161631Y0065953D01*
X0161458Y0065977D01*
X0161286Y0066005D01*
X0161115Y0066036D01*
X0160944Y0066073D01*
X0160775Y0066113D01*
X0160606Y0066157D01*
X0160439Y0066206D01*
X0160273Y0066258D01*
X0160108Y0066315D01*
X0159945Y0066376D01*
X0159783Y0066440D01*
X0159623Y0066509D01*
X0159464Y0066582D01*
X0159308Y0066658D01*
X0159153Y0066738D01*
X0159000Y0066822D01*
X0158850Y0066910D01*
X0158702Y0067002D01*
X0158555Y0067097D01*
X0158412Y0067195D01*
X0158271Y0067297D01*
X0158132Y0067403D01*
X0157996Y0067512D01*
X0157862Y0067624D01*
X0157732Y0067739D01*
X0157604Y0067858D01*
X0157480Y0067980D01*
X0157358Y0068104D01*
X0157239Y0068232D01*
X0157124Y0068362D01*
X0157012Y0068496D01*
X0156903Y0068632D01*
X0156797Y0068771D01*
X0156695Y0068912D01*
X0156597Y0069055D01*
X0156502Y0069202D01*
X0156410Y0069350D01*
X0156322Y0069500D01*
X0156238Y0069653D01*
X0156158Y0069808D01*
X0156082Y0069964D01*
X0156009Y0070123D01*
X0155940Y0070283D01*
X0155876Y0070445D01*
X0155815Y0070608D01*
X0155758Y0070773D01*
X0155706Y0070939D01*
X0155657Y0071106D01*
X0155613Y0071275D01*
X0155573Y0071444D01*
X0155536Y0071615D01*
X0155505Y0071786D01*
X0155477Y0071958D01*
X0155453Y0072131D01*
X0155434Y0072304D01*
X0155419Y0072478D01*
X0155409Y0072652D01*
X0155402Y0072826D01*
X0155400Y0073000D01*
X0072602Y0086898D02*
X0010398Y0086898D01*
X0010398Y0145165D01*
X0010400Y0145289D01*
X0010406Y0145412D01*
X0010415Y0145536D01*
X0010429Y0145658D01*
X0010446Y0145781D01*
X0010468Y0145903D01*
X0010493Y0146024D01*
X0010522Y0146144D01*
X0010554Y0146263D01*
X0010591Y0146382D01*
X0010631Y0146499D01*
X0010674Y0146614D01*
X0010722Y0146729D01*
X0010773Y0146841D01*
X0010827Y0146952D01*
X0010885Y0147062D01*
X0010946Y0147169D01*
X0011011Y0147275D01*
X0011079Y0147378D01*
X0011150Y0147479D01*
X0011224Y0147578D01*
X0011301Y0147675D01*
X0011382Y0147769D01*
X0011465Y0147860D01*
X0011551Y0147949D01*
X0011640Y0148035D01*
X0011731Y0148118D01*
X0011825Y0148199D01*
X0011922Y0148276D01*
X0012021Y0148350D01*
X0012122Y0148421D01*
X0012225Y0148489D01*
X0012331Y0148554D01*
X0012438Y0148615D01*
X0012548Y0148673D01*
X0012659Y0148727D01*
X0012771Y0148778D01*
X0012886Y0148826D01*
X0013001Y0148869D01*
X0013118Y0148909D01*
X0013237Y0148946D01*
X0013356Y0148978D01*
X0013476Y0149007D01*
X0013597Y0149032D01*
X0013719Y0149054D01*
X0013842Y0149071D01*
X0013964Y0149085D01*
X0014088Y0149094D01*
X0014211Y0149100D01*
X0014335Y0149102D01*
X0068665Y0149102D01*
X0068789Y0149100D01*
X0068912Y0149094D01*
X0069036Y0149085D01*
X0069158Y0149071D01*
X0069281Y0149054D01*
X0069403Y0149032D01*
X0069524Y0149007D01*
X0069644Y0148978D01*
X0069763Y0148946D01*
X0069882Y0148909D01*
X0069999Y0148869D01*
X0070114Y0148826D01*
X0070229Y0148778D01*
X0070341Y0148727D01*
X0070452Y0148673D01*
X0070562Y0148615D01*
X0070669Y0148554D01*
X0070775Y0148489D01*
X0070878Y0148421D01*
X0070979Y0148350D01*
X0071078Y0148276D01*
X0071175Y0148199D01*
X0071269Y0148118D01*
X0071360Y0148035D01*
X0071449Y0147949D01*
X0071535Y0147860D01*
X0071618Y0147769D01*
X0071699Y0147675D01*
X0071776Y0147578D01*
X0071850Y0147479D01*
X0071921Y0147378D01*
X0071989Y0147275D01*
X0072054Y0147169D01*
X0072115Y0147062D01*
X0072173Y0146952D01*
X0072227Y0146841D01*
X0072278Y0146729D01*
X0072326Y0146614D01*
X0072369Y0146499D01*
X0072409Y0146382D01*
X0072446Y0146263D01*
X0072478Y0146144D01*
X0072507Y0146024D01*
X0072532Y0145903D01*
X0072554Y0145781D01*
X0072571Y0145658D01*
X0072585Y0145536D01*
X0072594Y0145412D01*
X0072600Y0145289D01*
X0072602Y0145165D01*
X0072602Y0086898D01*
X0041500Y0109339D02*
X0041500Y0112488D01*
X0039925Y0110913D02*
X0043075Y0110913D01*
X0049689Y0110913D02*
X0052839Y0110913D01*
X0054098Y0140047D02*
X0054635Y0139732D01*
X0055164Y0139404D01*
X0055684Y0139062D01*
X0056196Y0138708D01*
X0056699Y0138342D01*
X0057193Y0137963D01*
X0057677Y0137573D01*
X0058152Y0137170D01*
X0058617Y0136757D01*
X0059072Y0136332D01*
X0059516Y0135895D01*
X0059949Y0135449D01*
X0060371Y0134991D01*
X0060781Y0134524D01*
X0061181Y0134046D01*
X0061568Y0133559D01*
X0061943Y0133063D01*
X0062306Y0132557D01*
X0062657Y0132043D01*
X0062994Y0131520D01*
X0063319Y0130989D01*
X0063631Y0130451D01*
X0063930Y0129905D01*
X0064215Y0129351D01*
X0064486Y0128791D01*
X0064743Y0128225D01*
X0064987Y0127652D01*
X0065217Y0127074D01*
X0065432Y0126490D01*
X0065633Y0125901D01*
X0065819Y0125307D01*
X0065991Y0124709D01*
X0066148Y0124106D01*
X0066290Y0123501D01*
X0066417Y0122891D01*
X0066530Y0122279D01*
X0066627Y0121665D01*
X0066709Y0121048D01*
X0066777Y0120429D01*
X0066828Y0119809D01*
X0066865Y0119188D01*
X0066887Y0118566D01*
X0066893Y0117943D01*
X0066884Y0117321D01*
X0066860Y0116699D01*
X0066820Y0116078D01*
X0066765Y0115458D01*
X0066696Y0114840D01*
X0066611Y0114223D01*
X0066510Y0113609D01*
X0066395Y0112997D01*
X0066265Y0112389D01*
X0066120Y0111784D01*
X0065961Y0111182D01*
X0065786Y0110585D01*
X0065597Y0109992D01*
X0065394Y0109404D01*
X0065176Y0108821D01*
X0064944Y0108243D01*
X0064698Y0107672D01*
X0064438Y0107106D01*
X0064164Y0106547D01*
X0063876Y0105996D01*
X0063575Y0105451D01*
X0063261Y0104914D01*
X0062934Y0104384D01*
X0062594Y0103863D01*
X0062241Y0103350D01*
X0061876Y0102846D01*
X0061498Y0102352D01*
X0061109Y0101866D01*
X0060708Y0101391D01*
X0060295Y0100925D01*
X0059871Y0100469D01*
X0059436Y0100024D01*
X0058990Y0099590D01*
X0058533Y0099167D01*
X0058067Y0098755D01*
X0057590Y0098355D01*
X0057104Y0097967D01*
X0056608Y0097590D01*
X0056103Y0097226D01*
X0055590Y0096875D01*
X0055068Y0096536D01*
X0054538Y0096210D01*
X0054000Y0095897D01*
X0053455Y0095597D01*
X0052902Y0095311D01*
X0052343Y0095038D01*
X0051777Y0094779D01*
X0051204Y0094535D01*
X0050626Y0094304D01*
X0050043Y0094087D01*
X0049454Y0093885D01*
X0048861Y0093697D01*
X0048263Y0093524D01*
X0047661Y0093366D01*
X0047056Y0093222D01*
X0046447Y0093094D01*
X0045835Y0092980D01*
X0045221Y0092881D01*
X0044604Y0092797D01*
X0043985Y0092729D01*
X0043365Y0092676D01*
X0042744Y0092638D01*
X0042122Y0092615D01*
X0041500Y0092607D01*
X0040878Y0092615D01*
X0040256Y0092638D01*
X0039635Y0092676D01*
X0039015Y0092729D01*
X0038396Y0092797D01*
X0037779Y0092881D01*
X0037165Y0092980D01*
X0036553Y0093094D01*
X0035944Y0093222D01*
X0035339Y0093366D01*
X0034737Y0093524D01*
X0034139Y0093697D01*
X0033546Y0093885D01*
X0032957Y0094087D01*
X0032374Y0094304D01*
X0031796Y0094535D01*
X0031223Y0094779D01*
X0030657Y0095038D01*
X0030098Y0095311D01*
X0029545Y0095597D01*
X0029000Y0095897D01*
X0028462Y0096210D01*
X0027932Y0096536D01*
X0027410Y0096875D01*
X0026897Y0097226D01*
X0026392Y0097590D01*
X0025896Y0097967D01*
X0025410Y0098355D01*
X0024933Y0098755D01*
X0024467Y0099167D01*
X0024010Y0099590D01*
X0023564Y0100024D01*
X0023129Y0100469D01*
X0022705Y0100925D01*
X0022292Y0101391D01*
X0021891Y0101866D01*
X0021502Y0102352D01*
X0021124Y0102846D01*
X0020759Y0103350D01*
X0020406Y0103863D01*
X0020066Y0104384D01*
X0019739Y0104914D01*
X0019425Y0105451D01*
X0019124Y0105996D01*
X0018836Y0106547D01*
X0018562Y0107106D01*
X0018302Y0107672D01*
X0018056Y0108243D01*
X0017824Y0108821D01*
X0017606Y0109404D01*
X0017403Y0109992D01*
X0017214Y0110585D01*
X0017039Y0111182D01*
X0016880Y0111784D01*
X0016735Y0112389D01*
X0016605Y0112997D01*
X0016490Y0113609D01*
X0016389Y0114223D01*
X0016304Y0114840D01*
X0016235Y0115458D01*
X0016180Y0116078D01*
X0016140Y0116699D01*
X0016116Y0117321D01*
X0016107Y0117943D01*
X0016113Y0118566D01*
X0016135Y0119188D01*
X0016172Y0119809D01*
X0016223Y0120429D01*
X0016291Y0121048D01*
X0016373Y0121665D01*
X0016470Y0122279D01*
X0016583Y0122891D01*
X0016710Y0123501D01*
X0016852Y0124106D01*
X0017009Y0124709D01*
X0017181Y0125307D01*
X0017367Y0125901D01*
X0017568Y0126490D01*
X0017783Y0127074D01*
X0018013Y0127652D01*
X0018257Y0128225D01*
X0018514Y0128791D01*
X0018785Y0129351D01*
X0019070Y0129905D01*
X0019369Y0130451D01*
X0019681Y0130989D01*
X0020006Y0131520D01*
X0020343Y0132043D01*
X0020694Y0132557D01*
X0021057Y0133063D01*
X0021432Y0133559D01*
X0021819Y0134046D01*
X0022219Y0134524D01*
X0022629Y0134991D01*
X0023051Y0135449D01*
X0023484Y0135895D01*
X0023928Y0136332D01*
X0024383Y0136757D01*
X0024848Y0137170D01*
X0025323Y0137573D01*
X0025807Y0137963D01*
X0026301Y0138342D01*
X0026804Y0138708D01*
X0027316Y0139062D01*
X0027836Y0139404D01*
X0028365Y0139732D01*
X0028902Y0140047D01*
X0054098Y0140047D01*
X0246748Y0049605D02*
X0247198Y0049605D01*
X0249000Y0047803D01*
X0249450Y0047803D01*
X0249450Y0046659D02*
X0248549Y0045758D01*
X0248549Y0046208D02*
X0248549Y0044857D01*
X0249450Y0044857D02*
X0246748Y0044857D01*
X0246748Y0046208D01*
X0247198Y0046659D01*
X0248099Y0046659D01*
X0248549Y0046208D01*
X0246748Y0047803D02*
X0246748Y0049605D01*
X0273902Y0060047D02*
X0299098Y0060047D01*
X0313665Y0069102D02*
X0313789Y0069100D01*
X0313912Y0069094D01*
X0314036Y0069085D01*
X0314158Y0069071D01*
X0314281Y0069054D01*
X0314403Y0069032D01*
X0314524Y0069007D01*
X0314644Y0068978D01*
X0314763Y0068946D01*
X0314882Y0068909D01*
X0314999Y0068869D01*
X0315114Y0068826D01*
X0315229Y0068778D01*
X0315341Y0068727D01*
X0315452Y0068673D01*
X0315562Y0068615D01*
X0315669Y0068554D01*
X0315775Y0068489D01*
X0315878Y0068421D01*
X0315979Y0068350D01*
X0316078Y0068276D01*
X0316175Y0068199D01*
X0316269Y0068118D01*
X0316360Y0068035D01*
X0316449Y0067949D01*
X0316535Y0067860D01*
X0316618Y0067769D01*
X0316699Y0067675D01*
X0316776Y0067578D01*
X0316850Y0067479D01*
X0316921Y0067378D01*
X0316989Y0067275D01*
X0317054Y0067169D01*
X0317115Y0067062D01*
X0317173Y0066952D01*
X0317227Y0066841D01*
X0317278Y0066729D01*
X0317326Y0066614D01*
X0317369Y0066499D01*
X0317409Y0066382D01*
X0317446Y0066263D01*
X0317478Y0066144D01*
X0317507Y0066024D01*
X0317532Y0065903D01*
X0317554Y0065781D01*
X0317571Y0065658D01*
X0317585Y0065536D01*
X0317594Y0065412D01*
X0317600Y0065289D01*
X0317602Y0065165D01*
X0317602Y0006898D01*
X0255398Y0006898D01*
X0255398Y0065165D01*
X0255400Y0065289D01*
X0255406Y0065412D01*
X0255415Y0065536D01*
X0255429Y0065658D01*
X0255446Y0065781D01*
X0255468Y0065903D01*
X0255493Y0066024D01*
X0255522Y0066144D01*
X0255554Y0066263D01*
X0255591Y0066382D01*
X0255631Y0066499D01*
X0255674Y0066614D01*
X0255722Y0066729D01*
X0255773Y0066841D01*
X0255827Y0066952D01*
X0255885Y0067062D01*
X0255946Y0067169D01*
X0256011Y0067275D01*
X0256079Y0067378D01*
X0256150Y0067479D01*
X0256224Y0067578D01*
X0256301Y0067675D01*
X0256382Y0067769D01*
X0256465Y0067860D01*
X0256551Y0067949D01*
X0256640Y0068035D01*
X0256731Y0068118D01*
X0256825Y0068199D01*
X0256922Y0068276D01*
X0257021Y0068350D01*
X0257122Y0068421D01*
X0257225Y0068489D01*
X0257331Y0068554D01*
X0257438Y0068615D01*
X0257548Y0068673D01*
X0257659Y0068727D01*
X0257771Y0068778D01*
X0257886Y0068826D01*
X0258001Y0068869D01*
X0258118Y0068909D01*
X0258237Y0068946D01*
X0258356Y0068978D01*
X0258476Y0069007D01*
X0258597Y0069032D01*
X0258719Y0069054D01*
X0258842Y0069071D01*
X0258964Y0069085D01*
X0259088Y0069094D01*
X0259211Y0069100D01*
X0259335Y0069102D01*
X0313665Y0069102D01*
X0299098Y0060047D02*
X0299635Y0059732D01*
X0300164Y0059404D01*
X0300684Y0059062D01*
X0301196Y0058708D01*
X0301699Y0058342D01*
X0302193Y0057963D01*
X0302677Y0057573D01*
X0303152Y0057170D01*
X0303617Y0056757D01*
X0304072Y0056332D01*
X0304516Y0055895D01*
X0304949Y0055449D01*
X0305371Y0054991D01*
X0305781Y0054524D01*
X0306181Y0054046D01*
X0306568Y0053559D01*
X0306943Y0053063D01*
X0307306Y0052557D01*
X0307657Y0052043D01*
X0307994Y0051520D01*
X0308319Y0050989D01*
X0308631Y0050451D01*
X0308930Y0049905D01*
X0309215Y0049351D01*
X0309486Y0048791D01*
X0309743Y0048225D01*
X0309987Y0047652D01*
X0310217Y0047074D01*
X0310432Y0046490D01*
X0310633Y0045901D01*
X0310819Y0045307D01*
X0310991Y0044709D01*
X0311148Y0044106D01*
X0311290Y0043501D01*
X0311417Y0042891D01*
X0311530Y0042279D01*
X0311627Y0041665D01*
X0311709Y0041048D01*
X0311777Y0040429D01*
X0311828Y0039809D01*
X0311865Y0039188D01*
X0311887Y0038566D01*
X0311893Y0037943D01*
X0311884Y0037321D01*
X0311860Y0036699D01*
X0311820Y0036078D01*
X0311765Y0035458D01*
X0311696Y0034840D01*
X0311611Y0034223D01*
X0311510Y0033609D01*
X0311395Y0032997D01*
X0311265Y0032389D01*
X0311120Y0031784D01*
X0310961Y0031182D01*
X0310786Y0030585D01*
X0310597Y0029992D01*
X0310394Y0029404D01*
X0310176Y0028821D01*
X0309944Y0028243D01*
X0309698Y0027672D01*
X0309438Y0027106D01*
X0309164Y0026547D01*
X0308876Y0025996D01*
X0308575Y0025451D01*
X0308261Y0024914D01*
X0307934Y0024384D01*
X0307594Y0023863D01*
X0307241Y0023350D01*
X0306876Y0022846D01*
X0306498Y0022352D01*
X0306109Y0021866D01*
X0305708Y0021391D01*
X0305295Y0020925D01*
X0304871Y0020469D01*
X0304436Y0020024D01*
X0303990Y0019590D01*
X0303533Y0019167D01*
X0303067Y0018755D01*
X0302590Y0018355D01*
X0302104Y0017967D01*
X0301608Y0017590D01*
X0301103Y0017226D01*
X0300590Y0016875D01*
X0300068Y0016536D01*
X0299538Y0016210D01*
X0299000Y0015897D01*
X0298455Y0015597D01*
X0297902Y0015311D01*
X0297343Y0015038D01*
X0296777Y0014779D01*
X0296204Y0014535D01*
X0295626Y0014304D01*
X0295043Y0014087D01*
X0294454Y0013885D01*
X0293861Y0013697D01*
X0293263Y0013524D01*
X0292661Y0013366D01*
X0292056Y0013222D01*
X0291447Y0013094D01*
X0290835Y0012980D01*
X0290221Y0012881D01*
X0289604Y0012797D01*
X0288985Y0012729D01*
X0288365Y0012676D01*
X0287744Y0012638D01*
X0287122Y0012615D01*
X0286500Y0012607D01*
X0285878Y0012615D01*
X0285256Y0012638D01*
X0284635Y0012676D01*
X0284015Y0012729D01*
X0283396Y0012797D01*
X0282779Y0012881D01*
X0282165Y0012980D01*
X0281553Y0013094D01*
X0280944Y0013222D01*
X0280339Y0013366D01*
X0279737Y0013524D01*
X0279139Y0013697D01*
X0278546Y0013885D01*
X0277957Y0014087D01*
X0277374Y0014304D01*
X0276796Y0014535D01*
X0276223Y0014779D01*
X0275657Y0015038D01*
X0275098Y0015311D01*
X0274545Y0015597D01*
X0274000Y0015897D01*
X0273462Y0016210D01*
X0272932Y0016536D01*
X0272410Y0016875D01*
X0271897Y0017226D01*
X0271392Y0017590D01*
X0270896Y0017967D01*
X0270410Y0018355D01*
X0269933Y0018755D01*
X0269467Y0019167D01*
X0269010Y0019590D01*
X0268564Y0020024D01*
X0268129Y0020469D01*
X0267705Y0020925D01*
X0267292Y0021391D01*
X0266891Y0021866D01*
X0266502Y0022352D01*
X0266124Y0022846D01*
X0265759Y0023350D01*
X0265406Y0023863D01*
X0265066Y0024384D01*
X0264739Y0024914D01*
X0264425Y0025451D01*
X0264124Y0025996D01*
X0263836Y0026547D01*
X0263562Y0027106D01*
X0263302Y0027672D01*
X0263056Y0028243D01*
X0262824Y0028821D01*
X0262606Y0029404D01*
X0262403Y0029992D01*
X0262214Y0030585D01*
X0262039Y0031182D01*
X0261880Y0031784D01*
X0261735Y0032389D01*
X0261605Y0032997D01*
X0261490Y0033609D01*
X0261389Y0034223D01*
X0261304Y0034840D01*
X0261235Y0035458D01*
X0261180Y0036078D01*
X0261140Y0036699D01*
X0261116Y0037321D01*
X0261107Y0037943D01*
X0261113Y0038566D01*
X0261135Y0039188D01*
X0261172Y0039809D01*
X0261223Y0040429D01*
X0261291Y0041048D01*
X0261373Y0041665D01*
X0261470Y0042279D01*
X0261583Y0042891D01*
X0261710Y0043501D01*
X0261852Y0044106D01*
X0262009Y0044709D01*
X0262181Y0045307D01*
X0262367Y0045901D01*
X0262568Y0046490D01*
X0262783Y0047074D01*
X0263013Y0047652D01*
X0263257Y0048225D01*
X0263514Y0048791D01*
X0263785Y0049351D01*
X0264070Y0049905D01*
X0264369Y0050451D01*
X0264681Y0050989D01*
X0265006Y0051520D01*
X0265343Y0052043D01*
X0265694Y0052557D01*
X0266057Y0053063D01*
X0266432Y0053559D01*
X0266819Y0054046D01*
X0267219Y0054524D01*
X0267629Y0054991D01*
X0268051Y0055449D01*
X0268484Y0055895D01*
X0268928Y0056332D01*
X0269383Y0056757D01*
X0269848Y0057170D01*
X0270323Y0057573D01*
X0270807Y0057963D01*
X0271301Y0058342D01*
X0271804Y0058708D01*
X0272316Y0059062D01*
X0272836Y0059404D01*
X0273365Y0059732D01*
X0273902Y0060047D01*
X0286500Y0032488D02*
X0286500Y0029339D01*
X0284925Y0030913D02*
X0288075Y0030913D01*
X0294689Y0030913D02*
X0297839Y0030913D01*
X0166384Y0021523D02*
X0165250Y0022658D01*
X0165250Y0022090D01*
X0164683Y0022090D01*
X0164683Y0022658D01*
X0165250Y0022658D01*
X0164683Y0023917D02*
X0165250Y0024484D01*
X0165250Y0025619D01*
X0164683Y0026186D01*
X0163549Y0026186D01*
X0162981Y0025619D01*
X0162981Y0025052D01*
X0163549Y0023917D01*
X0161847Y0023917D01*
X0161847Y0026186D01*
X0162981Y0027508D02*
X0162981Y0028075D01*
X0163549Y0028643D01*
X0162981Y0029210D01*
X0163549Y0029777D01*
X0165250Y0029777D01*
X0165250Y0028643D02*
X0163549Y0028643D01*
X0162981Y0027508D02*
X0165250Y0027508D01*
X0165250Y0031099D02*
X0162981Y0031099D01*
X0162981Y0031667D01*
X0163549Y0032234D01*
X0162981Y0032801D01*
X0163549Y0033368D01*
X0165250Y0033368D01*
X0165250Y0032234D02*
X0163549Y0032234D01*
X0145400Y0028000D02*
X0145402Y0028174D01*
X0145409Y0028348D01*
X0145419Y0028522D01*
X0145434Y0028696D01*
X0145453Y0028869D01*
X0145477Y0029042D01*
X0145505Y0029214D01*
X0145536Y0029385D01*
X0145573Y0029556D01*
X0145613Y0029725D01*
X0145657Y0029894D01*
X0145706Y0030061D01*
X0145758Y0030227D01*
X0145815Y0030392D01*
X0145876Y0030555D01*
X0145940Y0030717D01*
X0146009Y0030877D01*
X0146082Y0031036D01*
X0146158Y0031192D01*
X0146238Y0031347D01*
X0146322Y0031500D01*
X0146410Y0031650D01*
X0146502Y0031798D01*
X0146597Y0031945D01*
X0146695Y0032088D01*
X0146797Y0032229D01*
X0146903Y0032368D01*
X0147012Y0032504D01*
X0147124Y0032638D01*
X0147239Y0032768D01*
X0147358Y0032896D01*
X0147480Y0033020D01*
X0147604Y0033142D01*
X0147732Y0033261D01*
X0147862Y0033376D01*
X0147996Y0033488D01*
X0148132Y0033597D01*
X0148271Y0033703D01*
X0148412Y0033805D01*
X0148555Y0033903D01*
X0148702Y0033998D01*
X0148850Y0034090D01*
X0149000Y0034178D01*
X0149153Y0034262D01*
X0149308Y0034342D01*
X0149464Y0034418D01*
X0149623Y0034491D01*
X0149783Y0034560D01*
X0149945Y0034624D01*
X0150108Y0034685D01*
X0150273Y0034742D01*
X0150439Y0034794D01*
X0150606Y0034843D01*
X0150775Y0034887D01*
X0150944Y0034927D01*
X0151115Y0034964D01*
X0151286Y0034995D01*
X0151458Y0035023D01*
X0151631Y0035047D01*
X0151804Y0035066D01*
X0151978Y0035081D01*
X0152152Y0035091D01*
X0152326Y0035098D01*
X0152500Y0035100D01*
X0152674Y0035098D01*
X0152848Y0035091D01*
X0153022Y0035081D01*
X0153196Y0035066D01*
X0153369Y0035047D01*
X0153542Y0035023D01*
X0153714Y0034995D01*
X0153885Y0034964D01*
X0154056Y0034927D01*
X0154225Y0034887D01*
X0154394Y0034843D01*
X0154561Y0034794D01*
X0154727Y0034742D01*
X0154892Y0034685D01*
X0155055Y0034624D01*
X0155217Y0034560D01*
X0155377Y0034491D01*
X0155536Y0034418D01*
X0155692Y0034342D01*
X0155847Y0034262D01*
X0156000Y0034178D01*
X0156150Y0034090D01*
X0156298Y0033998D01*
X0156445Y0033903D01*
X0156588Y0033805D01*
X0156729Y0033703D01*
X0156868Y0033597D01*
X0157004Y0033488D01*
X0157138Y0033376D01*
X0157268Y0033261D01*
X0157396Y0033142D01*
X0157520Y0033020D01*
X0157642Y0032896D01*
X0157761Y0032768D01*
X0157876Y0032638D01*
X0157988Y0032504D01*
X0158097Y0032368D01*
X0158203Y0032229D01*
X0158305Y0032088D01*
X0158403Y0031945D01*
X0158498Y0031798D01*
X0158590Y0031650D01*
X0158678Y0031500D01*
X0158762Y0031347D01*
X0158842Y0031192D01*
X0158918Y0031036D01*
X0158991Y0030877D01*
X0159060Y0030717D01*
X0159124Y0030555D01*
X0159185Y0030392D01*
X0159242Y0030227D01*
X0159294Y0030061D01*
X0159343Y0029894D01*
X0159387Y0029725D01*
X0159427Y0029556D01*
X0159464Y0029385D01*
X0159495Y0029214D01*
X0159523Y0029042D01*
X0159547Y0028869D01*
X0159566Y0028696D01*
X0159581Y0028522D01*
X0159591Y0028348D01*
X0159598Y0028174D01*
X0159600Y0028000D01*
X0159598Y0027826D01*
X0159591Y0027652D01*
X0159581Y0027478D01*
X0159566Y0027304D01*
X0159547Y0027131D01*
X0159523Y0026958D01*
X0159495Y0026786D01*
X0159464Y0026615D01*
X0159427Y0026444D01*
X0159387Y0026275D01*
X0159343Y0026106D01*
X0159294Y0025939D01*
X0159242Y0025773D01*
X0159185Y0025608D01*
X0159124Y0025445D01*
X0159060Y0025283D01*
X0158991Y0025123D01*
X0158918Y0024964D01*
X0158842Y0024808D01*
X0158762Y0024653D01*
X0158678Y0024500D01*
X0158590Y0024350D01*
X0158498Y0024202D01*
X0158403Y0024055D01*
X0158305Y0023912D01*
X0158203Y0023771D01*
X0158097Y0023632D01*
X0157988Y0023496D01*
X0157876Y0023362D01*
X0157761Y0023232D01*
X0157642Y0023104D01*
X0157520Y0022980D01*
X0157396Y0022858D01*
X0157268Y0022739D01*
X0157138Y0022624D01*
X0157004Y0022512D01*
X0156868Y0022403D01*
X0156729Y0022297D01*
X0156588Y0022195D01*
X0156445Y0022097D01*
X0156298Y0022002D01*
X0156150Y0021910D01*
X0156000Y0021822D01*
X0155847Y0021738D01*
X0155692Y0021658D01*
X0155536Y0021582D01*
X0155377Y0021509D01*
X0155217Y0021440D01*
X0155055Y0021376D01*
X0154892Y0021315D01*
X0154727Y0021258D01*
X0154561Y0021206D01*
X0154394Y0021157D01*
X0154225Y0021113D01*
X0154056Y0021073D01*
X0153885Y0021036D01*
X0153714Y0021005D01*
X0153542Y0020977D01*
X0153369Y0020953D01*
X0153196Y0020934D01*
X0153022Y0020919D01*
X0152848Y0020909D01*
X0152674Y0020902D01*
X0152500Y0020900D01*
X0152326Y0020902D01*
X0152152Y0020909D01*
X0151978Y0020919D01*
X0151804Y0020934D01*
X0151631Y0020953D01*
X0151458Y0020977D01*
X0151286Y0021005D01*
X0151115Y0021036D01*
X0150944Y0021073D01*
X0150775Y0021113D01*
X0150606Y0021157D01*
X0150439Y0021206D01*
X0150273Y0021258D01*
X0150108Y0021315D01*
X0149945Y0021376D01*
X0149783Y0021440D01*
X0149623Y0021509D01*
X0149464Y0021582D01*
X0149308Y0021658D01*
X0149153Y0021738D01*
X0149000Y0021822D01*
X0148850Y0021910D01*
X0148702Y0022002D01*
X0148555Y0022097D01*
X0148412Y0022195D01*
X0148271Y0022297D01*
X0148132Y0022403D01*
X0147996Y0022512D01*
X0147862Y0022624D01*
X0147732Y0022739D01*
X0147604Y0022858D01*
X0147480Y0022980D01*
X0147358Y0023104D01*
X0147239Y0023232D01*
X0147124Y0023362D01*
X0147012Y0023496D01*
X0146903Y0023632D01*
X0146797Y0023771D01*
X0146695Y0023912D01*
X0146597Y0024055D01*
X0146502Y0024202D01*
X0146410Y0024350D01*
X0146322Y0024500D01*
X0146238Y0024653D01*
X0146158Y0024808D01*
X0146082Y0024964D01*
X0146009Y0025123D01*
X0145940Y0025283D01*
X0145876Y0025445D01*
X0145815Y0025608D01*
X0145758Y0025773D01*
X0145706Y0025939D01*
X0145657Y0026106D01*
X0145613Y0026275D01*
X0145573Y0026444D01*
X0145536Y0026615D01*
X0145505Y0026786D01*
X0145477Y0026958D01*
X0145453Y0027131D01*
X0145434Y0027304D01*
X0145419Y0027478D01*
X0145409Y0027652D01*
X0145402Y0027826D01*
X0145400Y0028000D01*
X0161847Y0020201D02*
X0162414Y0020201D01*
X0164683Y0017932D01*
X0165250Y0017932D01*
X0165250Y0016610D02*
X0165250Y0014341D01*
X0165250Y0015475D02*
X0161847Y0015475D01*
X0162981Y0014341D01*
X0162981Y0013019D02*
X0165250Y0013019D01*
X0163549Y0013019D02*
X0163549Y0010750D01*
X0162981Y0010750D02*
X0161847Y0011884D01*
X0162981Y0013019D01*
X0162981Y0010750D02*
X0165250Y0010750D01*
X0161847Y0017932D02*
X0161847Y0020201D01*
X0038264Y0034954D02*
X0035262Y0034954D01*
X0036763Y0034954D02*
X0036763Y0030450D01*
X0032159Y0030450D02*
X0032159Y0034954D01*
X0030658Y0034954D02*
X0033660Y0034954D01*
X0029056Y0033453D02*
X0029056Y0030450D01*
X0029056Y0032702D02*
X0026054Y0032702D01*
X0026054Y0033453D02*
X0027555Y0034954D01*
X0029056Y0033453D01*
X0026054Y0033453D02*
X0026054Y0030450D01*
X0024453Y0031201D02*
X0024453Y0031951D01*
X0023702Y0032702D01*
X0021450Y0032702D01*
X0021450Y0030450D02*
X0021450Y0034954D01*
X0023702Y0034954D01*
X0024453Y0034203D01*
X0024453Y0033453D01*
X0023702Y0032702D01*
X0024453Y0031201D02*
X0023702Y0030450D01*
X0021450Y0030450D01*
D14*
X0024000Y0028000D02*
X0021500Y0025500D01*
X0021500Y0020500D01*
X0024000Y0018000D01*
X0029000Y0018000D01*
X0031500Y0020500D01*
X0034000Y0018000D01*
X0039000Y0018000D01*
X0041500Y0020500D01*
X0041500Y0025500D01*
X0039000Y0028000D01*
X0034000Y0028000D01*
X0031500Y0025500D01*
X0031500Y0020500D01*
X0031500Y0025500D02*
X0029000Y0028000D01*
X0024000Y0028000D01*
X0066500Y0011000D02*
X0066500Y0007500D01*
X0059000Y0007500D01*
X0059000Y0048500D01*
X0066500Y0048500D01*
X0066500Y0045000D01*
X0072500Y0045000D01*
X0072500Y0048500D01*
X0121500Y0048500D01*
X0121500Y0007500D01*
X0072500Y0007500D01*
X0072500Y0011000D01*
X0066500Y0011000D01*
X0065400Y0028000D02*
X0065402Y0028174D01*
X0065409Y0028348D01*
X0065419Y0028522D01*
X0065434Y0028696D01*
X0065453Y0028869D01*
X0065477Y0029042D01*
X0065505Y0029214D01*
X0065536Y0029385D01*
X0065573Y0029556D01*
X0065613Y0029725D01*
X0065657Y0029894D01*
X0065706Y0030061D01*
X0065758Y0030227D01*
X0065815Y0030392D01*
X0065876Y0030555D01*
X0065940Y0030717D01*
X0066009Y0030877D01*
X0066082Y0031036D01*
X0066158Y0031192D01*
X0066238Y0031347D01*
X0066322Y0031500D01*
X0066410Y0031650D01*
X0066502Y0031798D01*
X0066597Y0031945D01*
X0066695Y0032088D01*
X0066797Y0032229D01*
X0066903Y0032368D01*
X0067012Y0032504D01*
X0067124Y0032638D01*
X0067239Y0032768D01*
X0067358Y0032896D01*
X0067480Y0033020D01*
X0067604Y0033142D01*
X0067732Y0033261D01*
X0067862Y0033376D01*
X0067996Y0033488D01*
X0068132Y0033597D01*
X0068271Y0033703D01*
X0068412Y0033805D01*
X0068555Y0033903D01*
X0068702Y0033998D01*
X0068850Y0034090D01*
X0069000Y0034178D01*
X0069153Y0034262D01*
X0069308Y0034342D01*
X0069464Y0034418D01*
X0069623Y0034491D01*
X0069783Y0034560D01*
X0069945Y0034624D01*
X0070108Y0034685D01*
X0070273Y0034742D01*
X0070439Y0034794D01*
X0070606Y0034843D01*
X0070775Y0034887D01*
X0070944Y0034927D01*
X0071115Y0034964D01*
X0071286Y0034995D01*
X0071458Y0035023D01*
X0071631Y0035047D01*
X0071804Y0035066D01*
X0071978Y0035081D01*
X0072152Y0035091D01*
X0072326Y0035098D01*
X0072500Y0035100D01*
X0072674Y0035098D01*
X0072848Y0035091D01*
X0073022Y0035081D01*
X0073196Y0035066D01*
X0073369Y0035047D01*
X0073542Y0035023D01*
X0073714Y0034995D01*
X0073885Y0034964D01*
X0074056Y0034927D01*
X0074225Y0034887D01*
X0074394Y0034843D01*
X0074561Y0034794D01*
X0074727Y0034742D01*
X0074892Y0034685D01*
X0075055Y0034624D01*
X0075217Y0034560D01*
X0075377Y0034491D01*
X0075536Y0034418D01*
X0075692Y0034342D01*
X0075847Y0034262D01*
X0076000Y0034178D01*
X0076150Y0034090D01*
X0076298Y0033998D01*
X0076445Y0033903D01*
X0076588Y0033805D01*
X0076729Y0033703D01*
X0076868Y0033597D01*
X0077004Y0033488D01*
X0077138Y0033376D01*
X0077268Y0033261D01*
X0077396Y0033142D01*
X0077520Y0033020D01*
X0077642Y0032896D01*
X0077761Y0032768D01*
X0077876Y0032638D01*
X0077988Y0032504D01*
X0078097Y0032368D01*
X0078203Y0032229D01*
X0078305Y0032088D01*
X0078403Y0031945D01*
X0078498Y0031798D01*
X0078590Y0031650D01*
X0078678Y0031500D01*
X0078762Y0031347D01*
X0078842Y0031192D01*
X0078918Y0031036D01*
X0078991Y0030877D01*
X0079060Y0030717D01*
X0079124Y0030555D01*
X0079185Y0030392D01*
X0079242Y0030227D01*
X0079294Y0030061D01*
X0079343Y0029894D01*
X0079387Y0029725D01*
X0079427Y0029556D01*
X0079464Y0029385D01*
X0079495Y0029214D01*
X0079523Y0029042D01*
X0079547Y0028869D01*
X0079566Y0028696D01*
X0079581Y0028522D01*
X0079591Y0028348D01*
X0079598Y0028174D01*
X0079600Y0028000D01*
X0079598Y0027826D01*
X0079591Y0027652D01*
X0079581Y0027478D01*
X0079566Y0027304D01*
X0079547Y0027131D01*
X0079523Y0026958D01*
X0079495Y0026786D01*
X0079464Y0026615D01*
X0079427Y0026444D01*
X0079387Y0026275D01*
X0079343Y0026106D01*
X0079294Y0025939D01*
X0079242Y0025773D01*
X0079185Y0025608D01*
X0079124Y0025445D01*
X0079060Y0025283D01*
X0078991Y0025123D01*
X0078918Y0024964D01*
X0078842Y0024808D01*
X0078762Y0024653D01*
X0078678Y0024500D01*
X0078590Y0024350D01*
X0078498Y0024202D01*
X0078403Y0024055D01*
X0078305Y0023912D01*
X0078203Y0023771D01*
X0078097Y0023632D01*
X0077988Y0023496D01*
X0077876Y0023362D01*
X0077761Y0023232D01*
X0077642Y0023104D01*
X0077520Y0022980D01*
X0077396Y0022858D01*
X0077268Y0022739D01*
X0077138Y0022624D01*
X0077004Y0022512D01*
X0076868Y0022403D01*
X0076729Y0022297D01*
X0076588Y0022195D01*
X0076445Y0022097D01*
X0076298Y0022002D01*
X0076150Y0021910D01*
X0076000Y0021822D01*
X0075847Y0021738D01*
X0075692Y0021658D01*
X0075536Y0021582D01*
X0075377Y0021509D01*
X0075217Y0021440D01*
X0075055Y0021376D01*
X0074892Y0021315D01*
X0074727Y0021258D01*
X0074561Y0021206D01*
X0074394Y0021157D01*
X0074225Y0021113D01*
X0074056Y0021073D01*
X0073885Y0021036D01*
X0073714Y0021005D01*
X0073542Y0020977D01*
X0073369Y0020953D01*
X0073196Y0020934D01*
X0073022Y0020919D01*
X0072848Y0020909D01*
X0072674Y0020902D01*
X0072500Y0020900D01*
X0072326Y0020902D01*
X0072152Y0020909D01*
X0071978Y0020919D01*
X0071804Y0020934D01*
X0071631Y0020953D01*
X0071458Y0020977D01*
X0071286Y0021005D01*
X0071115Y0021036D01*
X0070944Y0021073D01*
X0070775Y0021113D01*
X0070606Y0021157D01*
X0070439Y0021206D01*
X0070273Y0021258D01*
X0070108Y0021315D01*
X0069945Y0021376D01*
X0069783Y0021440D01*
X0069623Y0021509D01*
X0069464Y0021582D01*
X0069308Y0021658D01*
X0069153Y0021738D01*
X0069000Y0021822D01*
X0068850Y0021910D01*
X0068702Y0022002D01*
X0068555Y0022097D01*
X0068412Y0022195D01*
X0068271Y0022297D01*
X0068132Y0022403D01*
X0067996Y0022512D01*
X0067862Y0022624D01*
X0067732Y0022739D01*
X0067604Y0022858D01*
X0067480Y0022980D01*
X0067358Y0023104D01*
X0067239Y0023232D01*
X0067124Y0023362D01*
X0067012Y0023496D01*
X0066903Y0023632D01*
X0066797Y0023771D01*
X0066695Y0023912D01*
X0066597Y0024055D01*
X0066502Y0024202D01*
X0066410Y0024350D01*
X0066322Y0024500D01*
X0066238Y0024653D01*
X0066158Y0024808D01*
X0066082Y0024964D01*
X0066009Y0025123D01*
X0065940Y0025283D01*
X0065876Y0025445D01*
X0065815Y0025608D01*
X0065758Y0025773D01*
X0065706Y0025939D01*
X0065657Y0026106D01*
X0065613Y0026275D01*
X0065573Y0026444D01*
X0065536Y0026615D01*
X0065505Y0026786D01*
X0065477Y0026958D01*
X0065453Y0027131D01*
X0065434Y0027304D01*
X0065419Y0027478D01*
X0065409Y0027652D01*
X0065402Y0027826D01*
X0065400Y0028000D01*
X0051500Y0051500D02*
X0011500Y0051500D01*
X0011500Y0059000D01*
X0011626Y0059002D01*
X0011751Y0059008D01*
X0011876Y0059018D01*
X0012001Y0059032D01*
X0012126Y0059049D01*
X0012250Y0059071D01*
X0012373Y0059096D01*
X0012495Y0059126D01*
X0012616Y0059159D01*
X0012736Y0059196D01*
X0012855Y0059236D01*
X0012972Y0059281D01*
X0013089Y0059329D01*
X0013203Y0059381D01*
X0013316Y0059436D01*
X0013427Y0059495D01*
X0013536Y0059557D01*
X0013643Y0059623D01*
X0013748Y0059692D01*
X0013851Y0059764D01*
X0013952Y0059839D01*
X0014050Y0059918D01*
X0014145Y0060000D01*
X0014238Y0060084D01*
X0014328Y0060172D01*
X0014416Y0060262D01*
X0014500Y0060355D01*
X0014582Y0060450D01*
X0014661Y0060548D01*
X0014736Y0060649D01*
X0014808Y0060752D01*
X0014877Y0060857D01*
X0014943Y0060964D01*
X0015005Y0061073D01*
X0015064Y0061184D01*
X0015119Y0061297D01*
X0015171Y0061411D01*
X0015219Y0061528D01*
X0015264Y0061645D01*
X0015304Y0061764D01*
X0015341Y0061884D01*
X0015374Y0062005D01*
X0015404Y0062127D01*
X0015429Y0062250D01*
X0015451Y0062374D01*
X0015468Y0062499D01*
X0015482Y0062624D01*
X0015492Y0062749D01*
X0015498Y0062874D01*
X0015500Y0063000D01*
X0015498Y0063126D01*
X0015492Y0063251D01*
X0015482Y0063376D01*
X0015468Y0063501D01*
X0015451Y0063626D01*
X0015429Y0063750D01*
X0015404Y0063873D01*
X0015374Y0063995D01*
X0015341Y0064116D01*
X0015304Y0064236D01*
X0015264Y0064355D01*
X0015219Y0064472D01*
X0015171Y0064589D01*
X0015119Y0064703D01*
X0015064Y0064816D01*
X0015005Y0064927D01*
X0014943Y0065036D01*
X0014877Y0065143D01*
X0014808Y0065248D01*
X0014736Y0065351D01*
X0014661Y0065452D01*
X0014582Y0065550D01*
X0014500Y0065645D01*
X0014416Y0065738D01*
X0014328Y0065828D01*
X0014238Y0065916D01*
X0014145Y0066000D01*
X0014050Y0066082D01*
X0013952Y0066161D01*
X0013851Y0066236D01*
X0013748Y0066308D01*
X0013643Y0066377D01*
X0013536Y0066443D01*
X0013427Y0066505D01*
X0013316Y0066564D01*
X0013203Y0066619D01*
X0013089Y0066671D01*
X0012972Y0066719D01*
X0012855Y0066764D01*
X0012736Y0066804D01*
X0012616Y0066841D01*
X0012495Y0066874D01*
X0012373Y0066904D01*
X0012250Y0066929D01*
X0012126Y0066951D01*
X0012001Y0066968D01*
X0011876Y0066982D01*
X0011751Y0066992D01*
X0011626Y0066998D01*
X0011500Y0067000D01*
X0011500Y0074500D01*
X0051500Y0074500D01*
X0051500Y0051500D01*
X0061500Y0055500D02*
X0061500Y0060500D01*
X0064000Y0063000D01*
X0061500Y0065500D01*
X0061500Y0070500D01*
X0064000Y0073000D01*
X0061500Y0075500D01*
X0061500Y0080500D01*
X0064000Y0083000D01*
X0069000Y0083000D01*
X0071500Y0080500D01*
X0071500Y0075500D01*
X0069000Y0073000D01*
X0071500Y0070500D01*
X0071500Y0065500D01*
X0069000Y0063000D01*
X0071500Y0060500D01*
X0071500Y0055500D01*
X0069000Y0053000D01*
X0064000Y0053000D01*
X0061500Y0055500D01*
X0076500Y0060500D02*
X0079000Y0058000D01*
X0084000Y0058000D01*
X0086500Y0060500D01*
X0086500Y0065500D01*
X0084000Y0068000D01*
X0079000Y0068000D01*
X0076500Y0065500D01*
X0076500Y0060500D01*
X0069000Y0063000D02*
X0064000Y0063000D01*
X0064000Y0073000D02*
X0069000Y0073000D01*
X0191500Y0130500D02*
X0194000Y0128000D01*
X0199000Y0128000D01*
X0201500Y0130500D01*
X0201500Y0135500D01*
X0199000Y0138000D01*
X0194000Y0138000D01*
X0191500Y0135500D01*
X0191500Y0130500D01*
X0184211Y0138332D02*
X0179216Y0138114D01*
X0176609Y0140502D01*
X0174220Y0137896D01*
X0169225Y0137678D01*
X0166619Y0140066D01*
X0166400Y0145061D01*
X0168789Y0147668D01*
X0173784Y0147886D01*
X0176391Y0145498D01*
X0178780Y0148104D01*
X0183775Y0148322D01*
X0186381Y0145934D01*
X0186600Y0140939D01*
X0184211Y0138332D01*
X0176609Y0140502D02*
X0176391Y0145498D01*
X0166500Y0150500D02*
X0164000Y0148000D01*
X0159000Y0148000D01*
X0156500Y0150500D01*
X0156500Y0155500D01*
X0159000Y0158000D01*
X0164000Y0158000D01*
X0166500Y0155500D01*
X0166500Y0150500D01*
X0156500Y0145500D02*
X0156500Y0140500D01*
X0154000Y0138000D01*
X0149000Y0138000D01*
X0146500Y0140500D01*
X0144000Y0138000D01*
X0139000Y0138000D01*
X0136500Y0140500D01*
X0136500Y0145500D01*
X0139000Y0148000D01*
X0144000Y0148000D01*
X0146500Y0145500D01*
X0149000Y0148000D01*
X0154000Y0148000D01*
X0156500Y0145500D01*
X0146500Y0145500D02*
X0146500Y0140500D01*
X0126500Y0140500D02*
X0124000Y0138000D01*
X0119000Y0138000D01*
X0116500Y0140500D01*
X0114000Y0138000D01*
X0109000Y0138000D01*
X0106500Y0140500D01*
X0106500Y0145500D01*
X0109000Y0148000D01*
X0114000Y0148000D01*
X0116500Y0145500D01*
X0119000Y0148000D01*
X0124000Y0148000D01*
X0126500Y0145500D01*
X0126500Y0140500D01*
X0116500Y0140500D02*
X0116500Y0145500D01*
X0106500Y0150500D02*
X0104000Y0148000D01*
X0099000Y0148000D01*
X0096500Y0150500D01*
X0096500Y0155500D01*
X0099000Y0158000D01*
X0104000Y0158000D01*
X0106500Y0155500D01*
X0106500Y0150500D01*
X0096500Y0145500D02*
X0096500Y0140500D01*
X0094000Y0138000D01*
X0089000Y0138000D01*
X0086500Y0140500D01*
X0084000Y0138000D01*
X0079000Y0138000D01*
X0076500Y0140500D01*
X0076500Y0145500D01*
X0079000Y0148000D01*
X0084000Y0148000D01*
X0086500Y0145500D01*
X0089000Y0148000D01*
X0094000Y0148000D01*
X0096500Y0145500D01*
X0086500Y0145500D02*
X0086500Y0140500D01*
X0230000Y0138000D02*
X0230000Y0098000D01*
X0253000Y0098000D01*
X0253000Y0138000D01*
X0245500Y0138000D01*
X0245498Y0137874D01*
X0245492Y0137749D01*
X0245482Y0137624D01*
X0245468Y0137499D01*
X0245451Y0137374D01*
X0245429Y0137250D01*
X0245404Y0137127D01*
X0245374Y0137005D01*
X0245341Y0136884D01*
X0245304Y0136764D01*
X0245264Y0136645D01*
X0245219Y0136528D01*
X0245171Y0136411D01*
X0245119Y0136297D01*
X0245064Y0136184D01*
X0245005Y0136073D01*
X0244943Y0135964D01*
X0244877Y0135857D01*
X0244808Y0135752D01*
X0244736Y0135649D01*
X0244661Y0135548D01*
X0244582Y0135450D01*
X0244500Y0135355D01*
X0244416Y0135262D01*
X0244328Y0135172D01*
X0244238Y0135084D01*
X0244145Y0135000D01*
X0244050Y0134918D01*
X0243952Y0134839D01*
X0243851Y0134764D01*
X0243748Y0134692D01*
X0243643Y0134623D01*
X0243536Y0134557D01*
X0243427Y0134495D01*
X0243316Y0134436D01*
X0243203Y0134381D01*
X0243089Y0134329D01*
X0242972Y0134281D01*
X0242855Y0134236D01*
X0242736Y0134196D01*
X0242616Y0134159D01*
X0242495Y0134126D01*
X0242373Y0134096D01*
X0242250Y0134071D01*
X0242126Y0134049D01*
X0242001Y0134032D01*
X0241876Y0134018D01*
X0241751Y0134008D01*
X0241626Y0134002D01*
X0241500Y0134000D01*
X0241374Y0134002D01*
X0241249Y0134008D01*
X0241124Y0134018D01*
X0240999Y0134032D01*
X0240874Y0134049D01*
X0240750Y0134071D01*
X0240627Y0134096D01*
X0240505Y0134126D01*
X0240384Y0134159D01*
X0240264Y0134196D01*
X0240145Y0134236D01*
X0240028Y0134281D01*
X0239911Y0134329D01*
X0239797Y0134381D01*
X0239684Y0134436D01*
X0239573Y0134495D01*
X0239464Y0134557D01*
X0239357Y0134623D01*
X0239252Y0134692D01*
X0239149Y0134764D01*
X0239048Y0134839D01*
X0238950Y0134918D01*
X0238855Y0135000D01*
X0238762Y0135084D01*
X0238672Y0135172D01*
X0238584Y0135262D01*
X0238500Y0135355D01*
X0238418Y0135450D01*
X0238339Y0135548D01*
X0238264Y0135649D01*
X0238192Y0135752D01*
X0238123Y0135857D01*
X0238057Y0135964D01*
X0237995Y0136073D01*
X0237936Y0136184D01*
X0237881Y0136297D01*
X0237829Y0136411D01*
X0237781Y0136528D01*
X0237736Y0136645D01*
X0237696Y0136764D01*
X0237659Y0136884D01*
X0237626Y0137005D01*
X0237596Y0137127D01*
X0237571Y0137250D01*
X0237549Y0137374D01*
X0237532Y0137499D01*
X0237518Y0137624D01*
X0237508Y0137749D01*
X0237502Y0137874D01*
X0237500Y0138000D01*
X0230000Y0138000D01*
X0267000Y0119500D02*
X0267000Y0106500D01*
X0267002Y0106413D01*
X0267008Y0106326D01*
X0267017Y0106239D01*
X0267030Y0106153D01*
X0267047Y0106067D01*
X0267068Y0105982D01*
X0267093Y0105899D01*
X0267121Y0105816D01*
X0267152Y0105735D01*
X0267187Y0105655D01*
X0267226Y0105577D01*
X0267268Y0105500D01*
X0267313Y0105425D01*
X0267362Y0105353D01*
X0267413Y0105282D01*
X0267468Y0105214D01*
X0267525Y0105149D01*
X0267586Y0105086D01*
X0267649Y0105025D01*
X0267714Y0104968D01*
X0267782Y0104913D01*
X0267853Y0104862D01*
X0267925Y0104813D01*
X0268000Y0104768D01*
X0268077Y0104726D01*
X0268155Y0104687D01*
X0268235Y0104652D01*
X0268316Y0104621D01*
X0268399Y0104593D01*
X0268482Y0104568D01*
X0268567Y0104547D01*
X0268653Y0104530D01*
X0268739Y0104517D01*
X0268826Y0104508D01*
X0268913Y0104502D01*
X0269000Y0104500D01*
X0274000Y0104500D02*
X0274087Y0104502D01*
X0274174Y0104508D01*
X0274261Y0104517D01*
X0274347Y0104530D01*
X0274433Y0104547D01*
X0274518Y0104568D01*
X0274601Y0104593D01*
X0274684Y0104621D01*
X0274765Y0104652D01*
X0274845Y0104687D01*
X0274923Y0104726D01*
X0275000Y0104768D01*
X0275075Y0104813D01*
X0275147Y0104862D01*
X0275218Y0104913D01*
X0275286Y0104968D01*
X0275351Y0105025D01*
X0275414Y0105086D01*
X0275475Y0105149D01*
X0275532Y0105214D01*
X0275587Y0105282D01*
X0275638Y0105353D01*
X0275687Y0105425D01*
X0275732Y0105500D01*
X0275774Y0105577D01*
X0275813Y0105655D01*
X0275848Y0105735D01*
X0275879Y0105816D01*
X0275907Y0105899D01*
X0275932Y0105982D01*
X0275953Y0106067D01*
X0275970Y0106153D01*
X0275983Y0106239D01*
X0275992Y0106326D01*
X0275998Y0106413D01*
X0276000Y0106500D01*
X0276000Y0119500D01*
X0275998Y0119587D01*
X0275992Y0119674D01*
X0275983Y0119761D01*
X0275970Y0119847D01*
X0275953Y0119933D01*
X0275932Y0120018D01*
X0275907Y0120101D01*
X0275879Y0120184D01*
X0275848Y0120265D01*
X0275813Y0120345D01*
X0275774Y0120423D01*
X0275732Y0120500D01*
X0275687Y0120575D01*
X0275638Y0120647D01*
X0275587Y0120718D01*
X0275532Y0120786D01*
X0275475Y0120851D01*
X0275414Y0120914D01*
X0275351Y0120975D01*
X0275286Y0121032D01*
X0275218Y0121087D01*
X0275147Y0121138D01*
X0275075Y0121187D01*
X0275000Y0121232D01*
X0274923Y0121274D01*
X0274845Y0121313D01*
X0274765Y0121348D01*
X0274684Y0121379D01*
X0274601Y0121407D01*
X0274518Y0121432D01*
X0274433Y0121453D01*
X0274347Y0121470D01*
X0274261Y0121483D01*
X0274174Y0121492D01*
X0274087Y0121498D01*
X0274000Y0121500D01*
X0269000Y0121500D02*
X0268913Y0121498D01*
X0268826Y0121492D01*
X0268739Y0121483D01*
X0268653Y0121470D01*
X0268567Y0121453D01*
X0268482Y0121432D01*
X0268399Y0121407D01*
X0268316Y0121379D01*
X0268235Y0121348D01*
X0268155Y0121313D01*
X0268077Y0121274D01*
X0268000Y0121232D01*
X0267925Y0121187D01*
X0267853Y0121138D01*
X0267782Y0121087D01*
X0267714Y0121032D01*
X0267649Y0120975D01*
X0267586Y0120914D01*
X0267525Y0120851D01*
X0267468Y0120786D01*
X0267413Y0120718D01*
X0267362Y0120647D01*
X0267313Y0120575D01*
X0267268Y0120500D01*
X0267226Y0120423D01*
X0267187Y0120345D01*
X0267152Y0120265D01*
X0267121Y0120184D01*
X0267093Y0120101D01*
X0267068Y0120018D01*
X0267047Y0119933D01*
X0267030Y0119847D01*
X0267017Y0119761D01*
X0267008Y0119674D01*
X0267002Y0119587D01*
X0267000Y0119500D01*
X0271500Y0118000D02*
X0271500Y0114300D01*
X0271500Y0111800D02*
X0271500Y0108000D01*
X0290000Y0088000D02*
X0313000Y0088000D01*
X0313000Y0128000D01*
X0305500Y0128000D01*
X0305498Y0127874D01*
X0305492Y0127749D01*
X0305482Y0127624D01*
X0305468Y0127499D01*
X0305451Y0127374D01*
X0305429Y0127250D01*
X0305404Y0127127D01*
X0305374Y0127005D01*
X0305341Y0126884D01*
X0305304Y0126764D01*
X0305264Y0126645D01*
X0305219Y0126528D01*
X0305171Y0126411D01*
X0305119Y0126297D01*
X0305064Y0126184D01*
X0305005Y0126073D01*
X0304943Y0125964D01*
X0304877Y0125857D01*
X0304808Y0125752D01*
X0304736Y0125649D01*
X0304661Y0125548D01*
X0304582Y0125450D01*
X0304500Y0125355D01*
X0304416Y0125262D01*
X0304328Y0125172D01*
X0304238Y0125084D01*
X0304145Y0125000D01*
X0304050Y0124918D01*
X0303952Y0124839D01*
X0303851Y0124764D01*
X0303748Y0124692D01*
X0303643Y0124623D01*
X0303536Y0124557D01*
X0303427Y0124495D01*
X0303316Y0124436D01*
X0303203Y0124381D01*
X0303089Y0124329D01*
X0302972Y0124281D01*
X0302855Y0124236D01*
X0302736Y0124196D01*
X0302616Y0124159D01*
X0302495Y0124126D01*
X0302373Y0124096D01*
X0302250Y0124071D01*
X0302126Y0124049D01*
X0302001Y0124032D01*
X0301876Y0124018D01*
X0301751Y0124008D01*
X0301626Y0124002D01*
X0301500Y0124000D01*
X0301374Y0124002D01*
X0301249Y0124008D01*
X0301124Y0124018D01*
X0300999Y0124032D01*
X0300874Y0124049D01*
X0300750Y0124071D01*
X0300627Y0124096D01*
X0300505Y0124126D01*
X0300384Y0124159D01*
X0300264Y0124196D01*
X0300145Y0124236D01*
X0300028Y0124281D01*
X0299911Y0124329D01*
X0299797Y0124381D01*
X0299684Y0124436D01*
X0299573Y0124495D01*
X0299464Y0124557D01*
X0299357Y0124623D01*
X0299252Y0124692D01*
X0299149Y0124764D01*
X0299048Y0124839D01*
X0298950Y0124918D01*
X0298855Y0125000D01*
X0298762Y0125084D01*
X0298672Y0125172D01*
X0298584Y0125262D01*
X0298500Y0125355D01*
X0298418Y0125450D01*
X0298339Y0125548D01*
X0298264Y0125649D01*
X0298192Y0125752D01*
X0298123Y0125857D01*
X0298057Y0125964D01*
X0297995Y0126073D01*
X0297936Y0126184D01*
X0297881Y0126297D01*
X0297829Y0126411D01*
X0297781Y0126528D01*
X0297736Y0126645D01*
X0297696Y0126764D01*
X0297659Y0126884D01*
X0297626Y0127005D01*
X0297596Y0127127D01*
X0297571Y0127250D01*
X0297549Y0127374D01*
X0297532Y0127499D01*
X0297518Y0127624D01*
X0297508Y0127749D01*
X0297502Y0127874D01*
X0297500Y0128000D01*
X0290000Y0128000D01*
X0290000Y0088000D01*
X0279500Y0083000D02*
X0279500Y0073000D01*
X0263500Y0073000D01*
X0263500Y0083000D01*
X0279500Y0083000D01*
X0271500Y0080500D02*
X0271500Y0078000D01*
X0271500Y0075500D01*
X0271500Y0078000D02*
X0265500Y0078000D01*
X0267500Y0075500D02*
X0271500Y0078000D01*
X0267500Y0080500D01*
X0267500Y0075500D01*
X0271500Y0078000D02*
X0274000Y0078000D01*
X0313000Y0075500D02*
X0313002Y0075413D01*
X0313008Y0075326D01*
X0313017Y0075239D01*
X0313030Y0075153D01*
X0313047Y0075067D01*
X0313068Y0074982D01*
X0313093Y0074899D01*
X0313121Y0074816D01*
X0313152Y0074735D01*
X0313187Y0074655D01*
X0313226Y0074577D01*
X0313268Y0074500D01*
X0313313Y0074425D01*
X0313362Y0074353D01*
X0313413Y0074282D01*
X0313468Y0074214D01*
X0313525Y0074149D01*
X0313586Y0074086D01*
X0313649Y0074025D01*
X0313714Y0073968D01*
X0313782Y0073913D01*
X0313853Y0073862D01*
X0313925Y0073813D01*
X0314000Y0073768D01*
X0314077Y0073726D01*
X0314155Y0073687D01*
X0314235Y0073652D01*
X0314316Y0073621D01*
X0314399Y0073593D01*
X0314482Y0073568D01*
X0314567Y0073547D01*
X0314653Y0073530D01*
X0314739Y0073517D01*
X0314826Y0073508D01*
X0314913Y0073502D01*
X0315000Y0073500D01*
X0328000Y0073500D01*
X0328087Y0073502D01*
X0328174Y0073508D01*
X0328261Y0073517D01*
X0328347Y0073530D01*
X0328433Y0073547D01*
X0328518Y0073568D01*
X0328601Y0073593D01*
X0328684Y0073621D01*
X0328765Y0073652D01*
X0328845Y0073687D01*
X0328923Y0073726D01*
X0329000Y0073768D01*
X0329075Y0073813D01*
X0329147Y0073862D01*
X0329218Y0073913D01*
X0329286Y0073968D01*
X0329351Y0074025D01*
X0329414Y0074086D01*
X0329475Y0074149D01*
X0329532Y0074214D01*
X0329587Y0074282D01*
X0329638Y0074353D01*
X0329687Y0074425D01*
X0329732Y0074500D01*
X0329774Y0074577D01*
X0329813Y0074655D01*
X0329848Y0074735D01*
X0329879Y0074816D01*
X0329907Y0074899D01*
X0329932Y0074982D01*
X0329953Y0075067D01*
X0329970Y0075153D01*
X0329983Y0075239D01*
X0329992Y0075326D01*
X0329998Y0075413D01*
X0330000Y0075500D01*
X0326500Y0078000D02*
X0322800Y0078000D01*
X0320300Y0078000D02*
X0316500Y0078000D01*
X0313000Y0080500D02*
X0313002Y0080587D01*
X0313008Y0080674D01*
X0313017Y0080761D01*
X0313030Y0080847D01*
X0313047Y0080933D01*
X0313068Y0081018D01*
X0313093Y0081101D01*
X0313121Y0081184D01*
X0313152Y0081265D01*
X0313187Y0081345D01*
X0313226Y0081423D01*
X0313268Y0081500D01*
X0313313Y0081575D01*
X0313362Y0081647D01*
X0313413Y0081718D01*
X0313468Y0081786D01*
X0313525Y0081851D01*
X0313586Y0081914D01*
X0313649Y0081975D01*
X0313714Y0082032D01*
X0313782Y0082087D01*
X0313853Y0082138D01*
X0313925Y0082187D01*
X0314000Y0082232D01*
X0314077Y0082274D01*
X0314155Y0082313D01*
X0314235Y0082348D01*
X0314316Y0082379D01*
X0314399Y0082407D01*
X0314482Y0082432D01*
X0314567Y0082453D01*
X0314653Y0082470D01*
X0314739Y0082483D01*
X0314826Y0082492D01*
X0314913Y0082498D01*
X0315000Y0082500D01*
X0328000Y0082500D01*
X0328087Y0082498D01*
X0328174Y0082492D01*
X0328261Y0082483D01*
X0328347Y0082470D01*
X0328433Y0082453D01*
X0328518Y0082432D01*
X0328601Y0082407D01*
X0328684Y0082379D01*
X0328765Y0082348D01*
X0328845Y0082313D01*
X0328923Y0082274D01*
X0329000Y0082232D01*
X0329075Y0082187D01*
X0329147Y0082138D01*
X0329218Y0082087D01*
X0329286Y0082032D01*
X0329351Y0081975D01*
X0329414Y0081914D01*
X0329475Y0081851D01*
X0329532Y0081786D01*
X0329587Y0081718D01*
X0329638Y0081647D01*
X0329687Y0081575D01*
X0329732Y0081500D01*
X0329774Y0081423D01*
X0329813Y0081345D01*
X0329848Y0081265D01*
X0329879Y0081184D01*
X0329907Y0081101D01*
X0329932Y0081018D01*
X0329953Y0080933D01*
X0329970Y0080847D01*
X0329983Y0080761D01*
X0329992Y0080674D01*
X0329998Y0080587D01*
X0330000Y0080500D01*
X0336500Y0051000D02*
X0336500Y0035000D01*
X0346500Y0035000D01*
X0346500Y0051000D01*
X0336500Y0051000D01*
X0341500Y0049000D02*
X0341500Y0043000D01*
X0344000Y0043000D01*
X0341500Y0043000D02*
X0341500Y0040500D01*
X0341500Y0043000D02*
X0339000Y0043000D01*
X0341500Y0043000D02*
X0339000Y0047000D01*
X0344000Y0047000D01*
X0341500Y0043000D01*
D15*
X0209000Y0055000D02*
X0176500Y0055000D01*
X0176500Y0091000D01*
X0209000Y0091000D01*
X0209000Y0055000D01*
X0199000Y0046000D02*
X0166500Y0046000D01*
X0166500Y0010000D01*
X0199000Y0010000D01*
X0199000Y0046000D01*
X0119000Y0046000D02*
X0119000Y0010000D01*
X0086500Y0010000D01*
X0086500Y0046000D01*
X0119000Y0046000D01*
D16*
X0085300Y0033385D02*
X0083549Y0033385D01*
X0082965Y0032801D01*
X0083549Y0032217D01*
X0085300Y0032217D01*
X0085300Y0031049D02*
X0082965Y0031049D01*
X0082965Y0031633D01*
X0083549Y0032217D01*
X0083549Y0029794D02*
X0085300Y0029794D01*
X0085300Y0028626D02*
X0083549Y0028626D01*
X0082965Y0029210D01*
X0083549Y0029794D01*
X0083549Y0028626D02*
X0082965Y0028042D01*
X0082965Y0027458D01*
X0085300Y0027458D01*
X0085300Y0026203D02*
X0085300Y0023867D01*
X0082965Y0026203D01*
X0082381Y0026203D01*
X0081797Y0025619D01*
X0081797Y0024451D01*
X0082381Y0023867D01*
X0084716Y0022641D02*
X0084716Y0022057D01*
X0085300Y0022057D01*
X0085300Y0022641D01*
X0084716Y0022641D01*
X0085300Y0022641D02*
X0086468Y0021473D01*
X0084716Y0020217D02*
X0085300Y0019634D01*
X0085300Y0018466D01*
X0084716Y0017882D01*
X0083549Y0017882D02*
X0082965Y0019050D01*
X0082965Y0019634D01*
X0083549Y0020217D01*
X0084716Y0020217D01*
X0083549Y0017882D02*
X0081797Y0017882D01*
X0081797Y0020217D01*
X0085300Y0016626D02*
X0085300Y0014291D01*
X0085300Y0015459D02*
X0081797Y0015459D01*
X0082965Y0014291D01*
X0082965Y0013035D02*
X0085300Y0013035D01*
X0083549Y0013035D02*
X0083549Y0010700D01*
X0082965Y0010700D02*
X0081797Y0011868D01*
X0082965Y0013035D01*
X0082965Y0010700D02*
X0085300Y0010700D01*
D17*
X0123250Y0018000D03*
X0123250Y0028000D03*
X0123250Y0038000D03*
D18*
X0134217Y0051504D02*
X0098783Y0051504D01*
X0098783Y0064496D01*
X0134217Y0064496D01*
X0134217Y0051504D01*
X0134217Y0066504D02*
X0098783Y0066504D01*
X0098783Y0079496D01*
X0134217Y0079496D01*
X0134217Y0066504D01*
X0134217Y0081504D02*
X0098783Y0081504D01*
X0098783Y0094496D01*
X0134217Y0094496D01*
X0134217Y0081504D01*
X0138913Y0096465D02*
X0124087Y0096465D01*
X0104878Y0096465D01*
X0104878Y0097646D01*
X0099055Y0097646D01*
X0099055Y0096465D01*
X0077130Y0096465D01*
X0077130Y0129535D01*
X0099087Y0129535D01*
X0099087Y0123433D01*
X0113913Y0123433D01*
X0113913Y0129535D01*
X0149087Y0129535D01*
X0149087Y0123433D01*
X0163913Y0123433D01*
X0163913Y0129535D01*
X0185870Y0129535D01*
X0185870Y0096465D01*
X0164878Y0096465D01*
X0164878Y0097646D01*
X0159055Y0097646D01*
X0159055Y0096465D01*
X0138913Y0096465D01*
X0138913Y0102567D01*
X0124087Y0102567D01*
X0124087Y0096465D01*
X0124087Y0100106D02*
X0081559Y0100106D01*
X0081559Y0125894D01*
X0099059Y0125894D01*
X0099087Y0129535D02*
X0113913Y0129535D01*
X0113921Y0125894D02*
X0149079Y0125894D01*
X0149087Y0129535D02*
X0163913Y0129535D01*
X0163941Y0125894D02*
X0181441Y0125894D01*
X0181441Y0100106D01*
X0138913Y0100106D01*
X0205004Y0105283D02*
X0205004Y0140717D01*
X0217996Y0140717D01*
X0217996Y0105283D01*
X0205004Y0105283D01*
X0228783Y0141504D02*
X0228783Y0154496D01*
X0264217Y0154496D01*
X0264217Y0141504D01*
X0228783Y0141504D01*
X0288783Y0141504D02*
X0288783Y0154496D01*
X0324217Y0154496D01*
X0324217Y0141504D01*
X0288783Y0141504D01*
X0335004Y0140717D02*
X0347996Y0140717D01*
X0347996Y0105283D01*
X0335004Y0105283D01*
X0335004Y0140717D01*
X0332996Y0055717D02*
X0320004Y0055717D01*
X0320004Y0020283D01*
X0332996Y0020283D01*
X0332996Y0055717D01*
X0252996Y0055717D02*
X0252996Y0020283D01*
X0240004Y0020283D01*
X0240004Y0055717D01*
X0252996Y0055717D01*
D19*
X0341500Y0037500D03*
D20*
X0341500Y0031250D03*
X0341500Y0054750D03*
D21*
X0277000Y0078000D03*
D22*
X0283250Y0078000D03*
X0259750Y0078000D03*
D23*
X0320300Y0078000D02*
X0320300Y0075000D01*
X0322800Y0075000D02*
X0322800Y0078000D01*
X0322800Y0081000D01*
X0320300Y0081000D02*
X0320300Y0078000D01*
X0274500Y0111800D02*
X0271500Y0111800D01*
X0268500Y0111800D01*
X0268500Y0114300D02*
X0271500Y0114300D01*
X0274500Y0114300D01*
D24*
X0223750Y0083000D03*
X0223750Y0073000D03*
X0223750Y0063000D03*
X0213750Y0038000D03*
X0213750Y0028000D03*
X0213750Y0018000D03*
D25*
X0207000Y0018000D03*
X0207000Y0028000D03*
X0207000Y0038000D03*
X0217000Y0063000D03*
X0217000Y0073000D03*
X0217000Y0083000D03*
M02*
