%
M48
M72
T01C0.03150
T02C0.03200
T03C0.03504
T04C0.03543
T05C0.03937
T06C0.04000
T07C0.04400
T08C0.07913
T09C0.08661
T10C0.13000
%
T01
X126500Y48000
X191500Y103000
X201500Y103000
X201500Y113000
X191500Y113000
T02
X46500Y48000
X36500Y48000
X26500Y48000
X16500Y48000
X16500Y78000
X26500Y78000
X36500Y78000
X46500Y78000
X226500Y103000
X226500Y113000
X226500Y123000
X226500Y133000
X256500Y133000
X256500Y123000
X271500Y123000
X286500Y123000
X286500Y113000
X286500Y103000
X271500Y103000
X256500Y103000
X256500Y113000
X286500Y93000
X316500Y93000
X316500Y103000
X316500Y113000
X316500Y123000
X311500Y78000
X331500Y78000
T03
X51500Y118000
X41500Y118000
X286500Y38000
X296500Y38000
T04
X91500Y58000
X91500Y73000
X91500Y88000
X141500Y88000
X141500Y73000
X141500Y58000
X246500Y13000
X326500Y13000
X326500Y63000
X341500Y98000
X246500Y63000
X211500Y98000
X211500Y148000
X221500Y148000
X271500Y148000
X281500Y148000
X331500Y148000
X341500Y148000
T05
X96500Y118000
X106500Y118000
X116500Y118000
X126500Y118000
X136500Y118000
X146500Y118000
X156500Y118000
X166500Y118000
X166500Y108000
X156500Y108000
X146500Y108000
X136500Y108000
X126500Y108000
X116500Y108000
X106500Y108000
X96500Y108000
T06
X81500Y143000
X91500Y143000
X101500Y153000
X111500Y143000
X121500Y143000
X141500Y143000
X151500Y143000
X161500Y153000
X171505Y142782
X181495Y143218
X196500Y133000
X66500Y78000
X66500Y68000
X81500Y63000
X66500Y58000
X36500Y23000
X26500Y23000
X131500Y18000
X131500Y28000
X131500Y38000
T07
X221500Y28000
X221500Y18000
X221500Y38000
X231500Y63000
X231500Y73000
X251500Y78000
X231500Y83000
X291500Y78000
X341500Y63000
X341500Y23000
T08
X61500Y138000
X21500Y98000
X266500Y18000
X306500Y58000
T09
X81500Y78000
X196500Y148000
T10
X162500Y73000
X152500Y28000
X72500Y28000
M30
