G75*
%MOIN*%
%OFA0B0*%
%FSLAX25Y25*%
%IPPOS*%
%LPD*%
%AMOC8*
5,1,8,0,0,1.08239X$1,22.5*
%
%ADD10C,0.00000*%
%ADD11C,0.01000*%
%ADD12R,0.00700X0.05200*%
D10*
X0079638Y0026500D02*
X0079640Y0026597D01*
X0079646Y0026694D01*
X0079656Y0026790D01*
X0079670Y0026886D01*
X0079688Y0026982D01*
X0079709Y0027076D01*
X0079735Y0027170D01*
X0079764Y0027262D01*
X0079798Y0027353D01*
X0079834Y0027443D01*
X0079875Y0027531D01*
X0079919Y0027617D01*
X0079967Y0027702D01*
X0080018Y0027784D01*
X0080072Y0027865D01*
X0080130Y0027943D01*
X0080191Y0028018D01*
X0080254Y0028091D01*
X0080321Y0028162D01*
X0080391Y0028229D01*
X0080463Y0028294D01*
X0080538Y0028355D01*
X0080616Y0028414D01*
X0080695Y0028469D01*
X0080777Y0028521D01*
X0080861Y0028569D01*
X0080947Y0028614D01*
X0081035Y0028656D01*
X0081124Y0028694D01*
X0081215Y0028728D01*
X0081307Y0028758D01*
X0081400Y0028785D01*
X0081495Y0028807D01*
X0081590Y0028826D01*
X0081686Y0028841D01*
X0081782Y0028852D01*
X0081879Y0028859D01*
X0081976Y0028862D01*
X0082073Y0028861D01*
X0082170Y0028856D01*
X0082266Y0028847D01*
X0082362Y0028834D01*
X0082458Y0028817D01*
X0082553Y0028796D01*
X0082646Y0028772D01*
X0082739Y0028743D01*
X0082831Y0028711D01*
X0082921Y0028675D01*
X0083009Y0028636D01*
X0083096Y0028592D01*
X0083181Y0028546D01*
X0083264Y0028495D01*
X0083345Y0028442D01*
X0083423Y0028385D01*
X0083500Y0028325D01*
X0083573Y0028262D01*
X0083644Y0028196D01*
X0083712Y0028127D01*
X0083778Y0028055D01*
X0083840Y0027981D01*
X0083899Y0027904D01*
X0083955Y0027825D01*
X0084008Y0027743D01*
X0084058Y0027660D01*
X0084103Y0027574D01*
X0084146Y0027487D01*
X0084185Y0027398D01*
X0084220Y0027308D01*
X0084251Y0027216D01*
X0084278Y0027123D01*
X0084302Y0027029D01*
X0084322Y0026934D01*
X0084338Y0026838D01*
X0084350Y0026742D01*
X0084358Y0026645D01*
X0084362Y0026548D01*
X0084362Y0026452D01*
X0084358Y0026355D01*
X0084350Y0026258D01*
X0084338Y0026162D01*
X0084322Y0026066D01*
X0084302Y0025971D01*
X0084278Y0025877D01*
X0084251Y0025784D01*
X0084220Y0025692D01*
X0084185Y0025602D01*
X0084146Y0025513D01*
X0084103Y0025426D01*
X0084058Y0025340D01*
X0084008Y0025257D01*
X0083955Y0025175D01*
X0083899Y0025096D01*
X0083840Y0025019D01*
X0083778Y0024945D01*
X0083712Y0024873D01*
X0083644Y0024804D01*
X0083573Y0024738D01*
X0083500Y0024675D01*
X0083423Y0024615D01*
X0083345Y0024558D01*
X0083264Y0024505D01*
X0083181Y0024454D01*
X0083096Y0024408D01*
X0083009Y0024364D01*
X0082921Y0024325D01*
X0082831Y0024289D01*
X0082739Y0024257D01*
X0082646Y0024228D01*
X0082553Y0024204D01*
X0082458Y0024183D01*
X0082362Y0024166D01*
X0082266Y0024153D01*
X0082170Y0024144D01*
X0082073Y0024139D01*
X0081976Y0024138D01*
X0081879Y0024141D01*
X0081782Y0024148D01*
X0081686Y0024159D01*
X0081590Y0024174D01*
X0081495Y0024193D01*
X0081400Y0024215D01*
X0081307Y0024242D01*
X0081215Y0024272D01*
X0081124Y0024306D01*
X0081035Y0024344D01*
X0080947Y0024386D01*
X0080861Y0024431D01*
X0080777Y0024479D01*
X0080695Y0024531D01*
X0080616Y0024586D01*
X0080538Y0024645D01*
X0080463Y0024706D01*
X0080391Y0024771D01*
X0080321Y0024838D01*
X0080254Y0024909D01*
X0080191Y0024982D01*
X0080130Y0025057D01*
X0080072Y0025135D01*
X0080018Y0025216D01*
X0079967Y0025298D01*
X0079919Y0025383D01*
X0079875Y0025469D01*
X0079834Y0025557D01*
X0079798Y0025647D01*
X0079764Y0025738D01*
X0079735Y0025830D01*
X0079709Y0025924D01*
X0079688Y0026018D01*
X0079670Y0026114D01*
X0079656Y0026210D01*
X0079646Y0026306D01*
X0079640Y0026403D01*
X0079638Y0026500D01*
X0280701Y0046500D02*
X0280703Y0046658D01*
X0280709Y0046816D01*
X0280719Y0046974D01*
X0280733Y0047132D01*
X0280751Y0047289D01*
X0280772Y0047446D01*
X0280798Y0047602D01*
X0280828Y0047758D01*
X0280861Y0047913D01*
X0280899Y0048066D01*
X0280940Y0048219D01*
X0280985Y0048371D01*
X0281034Y0048522D01*
X0281087Y0048671D01*
X0281143Y0048819D01*
X0281203Y0048965D01*
X0281267Y0049110D01*
X0281335Y0049253D01*
X0281406Y0049395D01*
X0281480Y0049535D01*
X0281558Y0049672D01*
X0281640Y0049808D01*
X0281724Y0049942D01*
X0281813Y0050073D01*
X0281904Y0050202D01*
X0281999Y0050329D01*
X0282096Y0050454D01*
X0282197Y0050576D01*
X0282301Y0050695D01*
X0282408Y0050812D01*
X0282518Y0050926D01*
X0282631Y0051037D01*
X0282746Y0051146D01*
X0282864Y0051251D01*
X0282985Y0051353D01*
X0283108Y0051453D01*
X0283234Y0051549D01*
X0283362Y0051642D01*
X0283492Y0051732D01*
X0283625Y0051818D01*
X0283760Y0051902D01*
X0283896Y0051981D01*
X0284035Y0052058D01*
X0284176Y0052130D01*
X0284318Y0052200D01*
X0284462Y0052265D01*
X0284608Y0052327D01*
X0284755Y0052385D01*
X0284904Y0052440D01*
X0285054Y0052491D01*
X0285205Y0052538D01*
X0285357Y0052581D01*
X0285510Y0052620D01*
X0285665Y0052656D01*
X0285820Y0052687D01*
X0285976Y0052715D01*
X0286132Y0052739D01*
X0286289Y0052759D01*
X0286447Y0052775D01*
X0286604Y0052787D01*
X0286763Y0052795D01*
X0286921Y0052799D01*
X0287079Y0052799D01*
X0287237Y0052795D01*
X0287396Y0052787D01*
X0287553Y0052775D01*
X0287711Y0052759D01*
X0287868Y0052739D01*
X0288024Y0052715D01*
X0288180Y0052687D01*
X0288335Y0052656D01*
X0288490Y0052620D01*
X0288643Y0052581D01*
X0288795Y0052538D01*
X0288946Y0052491D01*
X0289096Y0052440D01*
X0289245Y0052385D01*
X0289392Y0052327D01*
X0289538Y0052265D01*
X0289682Y0052200D01*
X0289824Y0052130D01*
X0289965Y0052058D01*
X0290104Y0051981D01*
X0290240Y0051902D01*
X0290375Y0051818D01*
X0290508Y0051732D01*
X0290638Y0051642D01*
X0290766Y0051549D01*
X0290892Y0051453D01*
X0291015Y0051353D01*
X0291136Y0051251D01*
X0291254Y0051146D01*
X0291369Y0051037D01*
X0291482Y0050926D01*
X0291592Y0050812D01*
X0291699Y0050695D01*
X0291803Y0050576D01*
X0291904Y0050454D01*
X0292001Y0050329D01*
X0292096Y0050202D01*
X0292187Y0050073D01*
X0292276Y0049942D01*
X0292360Y0049808D01*
X0292442Y0049672D01*
X0292520Y0049535D01*
X0292594Y0049395D01*
X0292665Y0049253D01*
X0292733Y0049110D01*
X0292797Y0048965D01*
X0292857Y0048819D01*
X0292913Y0048671D01*
X0292966Y0048522D01*
X0293015Y0048371D01*
X0293060Y0048219D01*
X0293101Y0048066D01*
X0293139Y0047913D01*
X0293172Y0047758D01*
X0293202Y0047602D01*
X0293228Y0047446D01*
X0293249Y0047289D01*
X0293267Y0047132D01*
X0293281Y0046974D01*
X0293291Y0046816D01*
X0293297Y0046658D01*
X0293299Y0046500D01*
X0293297Y0046342D01*
X0293291Y0046184D01*
X0293281Y0046026D01*
X0293267Y0045868D01*
X0293249Y0045711D01*
X0293228Y0045554D01*
X0293202Y0045398D01*
X0293172Y0045242D01*
X0293139Y0045087D01*
X0293101Y0044934D01*
X0293060Y0044781D01*
X0293015Y0044629D01*
X0292966Y0044478D01*
X0292913Y0044329D01*
X0292857Y0044181D01*
X0292797Y0044035D01*
X0292733Y0043890D01*
X0292665Y0043747D01*
X0292594Y0043605D01*
X0292520Y0043465D01*
X0292442Y0043328D01*
X0292360Y0043192D01*
X0292276Y0043058D01*
X0292187Y0042927D01*
X0292096Y0042798D01*
X0292001Y0042671D01*
X0291904Y0042546D01*
X0291803Y0042424D01*
X0291699Y0042305D01*
X0291592Y0042188D01*
X0291482Y0042074D01*
X0291369Y0041963D01*
X0291254Y0041854D01*
X0291136Y0041749D01*
X0291015Y0041647D01*
X0290892Y0041547D01*
X0290766Y0041451D01*
X0290638Y0041358D01*
X0290508Y0041268D01*
X0290375Y0041182D01*
X0290240Y0041098D01*
X0290104Y0041019D01*
X0289965Y0040942D01*
X0289824Y0040870D01*
X0289682Y0040800D01*
X0289538Y0040735D01*
X0289392Y0040673D01*
X0289245Y0040615D01*
X0289096Y0040560D01*
X0288946Y0040509D01*
X0288795Y0040462D01*
X0288643Y0040419D01*
X0288490Y0040380D01*
X0288335Y0040344D01*
X0288180Y0040313D01*
X0288024Y0040285D01*
X0287868Y0040261D01*
X0287711Y0040241D01*
X0287553Y0040225D01*
X0287396Y0040213D01*
X0287237Y0040205D01*
X0287079Y0040201D01*
X0286921Y0040201D01*
X0286763Y0040205D01*
X0286604Y0040213D01*
X0286447Y0040225D01*
X0286289Y0040241D01*
X0286132Y0040261D01*
X0285976Y0040285D01*
X0285820Y0040313D01*
X0285665Y0040344D01*
X0285510Y0040380D01*
X0285357Y0040419D01*
X0285205Y0040462D01*
X0285054Y0040509D01*
X0284904Y0040560D01*
X0284755Y0040615D01*
X0284608Y0040673D01*
X0284462Y0040735D01*
X0284318Y0040800D01*
X0284176Y0040870D01*
X0284035Y0040942D01*
X0283896Y0041019D01*
X0283760Y0041098D01*
X0283625Y0041182D01*
X0283492Y0041268D01*
X0283362Y0041358D01*
X0283234Y0041451D01*
X0283108Y0041547D01*
X0282985Y0041647D01*
X0282864Y0041749D01*
X0282746Y0041854D01*
X0282631Y0041963D01*
X0282518Y0042074D01*
X0282408Y0042188D01*
X0282301Y0042305D01*
X0282197Y0042424D01*
X0282096Y0042546D01*
X0281999Y0042671D01*
X0281904Y0042798D01*
X0281813Y0042927D01*
X0281724Y0043058D01*
X0281640Y0043192D01*
X0281558Y0043328D01*
X0281480Y0043465D01*
X0281406Y0043605D01*
X0281335Y0043747D01*
X0281267Y0043890D01*
X0281203Y0044035D01*
X0281143Y0044181D01*
X0281087Y0044329D01*
X0281034Y0044478D01*
X0280985Y0044629D01*
X0280940Y0044781D01*
X0280899Y0044934D01*
X0280861Y0045087D01*
X0280828Y0045242D01*
X0280798Y0045398D01*
X0280772Y0045554D01*
X0280751Y0045711D01*
X0280733Y0045868D01*
X0280719Y0046026D01*
X0280709Y0046184D01*
X0280703Y0046342D01*
X0280701Y0046500D01*
X0280701Y0156500D02*
X0280703Y0156658D01*
X0280709Y0156816D01*
X0280719Y0156974D01*
X0280733Y0157132D01*
X0280751Y0157289D01*
X0280772Y0157446D01*
X0280798Y0157602D01*
X0280828Y0157758D01*
X0280861Y0157913D01*
X0280899Y0158066D01*
X0280940Y0158219D01*
X0280985Y0158371D01*
X0281034Y0158522D01*
X0281087Y0158671D01*
X0281143Y0158819D01*
X0281203Y0158965D01*
X0281267Y0159110D01*
X0281335Y0159253D01*
X0281406Y0159395D01*
X0281480Y0159535D01*
X0281558Y0159672D01*
X0281640Y0159808D01*
X0281724Y0159942D01*
X0281813Y0160073D01*
X0281904Y0160202D01*
X0281999Y0160329D01*
X0282096Y0160454D01*
X0282197Y0160576D01*
X0282301Y0160695D01*
X0282408Y0160812D01*
X0282518Y0160926D01*
X0282631Y0161037D01*
X0282746Y0161146D01*
X0282864Y0161251D01*
X0282985Y0161353D01*
X0283108Y0161453D01*
X0283234Y0161549D01*
X0283362Y0161642D01*
X0283492Y0161732D01*
X0283625Y0161818D01*
X0283760Y0161902D01*
X0283896Y0161981D01*
X0284035Y0162058D01*
X0284176Y0162130D01*
X0284318Y0162200D01*
X0284462Y0162265D01*
X0284608Y0162327D01*
X0284755Y0162385D01*
X0284904Y0162440D01*
X0285054Y0162491D01*
X0285205Y0162538D01*
X0285357Y0162581D01*
X0285510Y0162620D01*
X0285665Y0162656D01*
X0285820Y0162687D01*
X0285976Y0162715D01*
X0286132Y0162739D01*
X0286289Y0162759D01*
X0286447Y0162775D01*
X0286604Y0162787D01*
X0286763Y0162795D01*
X0286921Y0162799D01*
X0287079Y0162799D01*
X0287237Y0162795D01*
X0287396Y0162787D01*
X0287553Y0162775D01*
X0287711Y0162759D01*
X0287868Y0162739D01*
X0288024Y0162715D01*
X0288180Y0162687D01*
X0288335Y0162656D01*
X0288490Y0162620D01*
X0288643Y0162581D01*
X0288795Y0162538D01*
X0288946Y0162491D01*
X0289096Y0162440D01*
X0289245Y0162385D01*
X0289392Y0162327D01*
X0289538Y0162265D01*
X0289682Y0162200D01*
X0289824Y0162130D01*
X0289965Y0162058D01*
X0290104Y0161981D01*
X0290240Y0161902D01*
X0290375Y0161818D01*
X0290508Y0161732D01*
X0290638Y0161642D01*
X0290766Y0161549D01*
X0290892Y0161453D01*
X0291015Y0161353D01*
X0291136Y0161251D01*
X0291254Y0161146D01*
X0291369Y0161037D01*
X0291482Y0160926D01*
X0291592Y0160812D01*
X0291699Y0160695D01*
X0291803Y0160576D01*
X0291904Y0160454D01*
X0292001Y0160329D01*
X0292096Y0160202D01*
X0292187Y0160073D01*
X0292276Y0159942D01*
X0292360Y0159808D01*
X0292442Y0159672D01*
X0292520Y0159535D01*
X0292594Y0159395D01*
X0292665Y0159253D01*
X0292733Y0159110D01*
X0292797Y0158965D01*
X0292857Y0158819D01*
X0292913Y0158671D01*
X0292966Y0158522D01*
X0293015Y0158371D01*
X0293060Y0158219D01*
X0293101Y0158066D01*
X0293139Y0157913D01*
X0293172Y0157758D01*
X0293202Y0157602D01*
X0293228Y0157446D01*
X0293249Y0157289D01*
X0293267Y0157132D01*
X0293281Y0156974D01*
X0293291Y0156816D01*
X0293297Y0156658D01*
X0293299Y0156500D01*
X0293297Y0156342D01*
X0293291Y0156184D01*
X0293281Y0156026D01*
X0293267Y0155868D01*
X0293249Y0155711D01*
X0293228Y0155554D01*
X0293202Y0155398D01*
X0293172Y0155242D01*
X0293139Y0155087D01*
X0293101Y0154934D01*
X0293060Y0154781D01*
X0293015Y0154629D01*
X0292966Y0154478D01*
X0292913Y0154329D01*
X0292857Y0154181D01*
X0292797Y0154035D01*
X0292733Y0153890D01*
X0292665Y0153747D01*
X0292594Y0153605D01*
X0292520Y0153465D01*
X0292442Y0153328D01*
X0292360Y0153192D01*
X0292276Y0153058D01*
X0292187Y0152927D01*
X0292096Y0152798D01*
X0292001Y0152671D01*
X0291904Y0152546D01*
X0291803Y0152424D01*
X0291699Y0152305D01*
X0291592Y0152188D01*
X0291482Y0152074D01*
X0291369Y0151963D01*
X0291254Y0151854D01*
X0291136Y0151749D01*
X0291015Y0151647D01*
X0290892Y0151547D01*
X0290766Y0151451D01*
X0290638Y0151358D01*
X0290508Y0151268D01*
X0290375Y0151182D01*
X0290240Y0151098D01*
X0290104Y0151019D01*
X0289965Y0150942D01*
X0289824Y0150870D01*
X0289682Y0150800D01*
X0289538Y0150735D01*
X0289392Y0150673D01*
X0289245Y0150615D01*
X0289096Y0150560D01*
X0288946Y0150509D01*
X0288795Y0150462D01*
X0288643Y0150419D01*
X0288490Y0150380D01*
X0288335Y0150344D01*
X0288180Y0150313D01*
X0288024Y0150285D01*
X0287868Y0150261D01*
X0287711Y0150241D01*
X0287553Y0150225D01*
X0287396Y0150213D01*
X0287237Y0150205D01*
X0287079Y0150201D01*
X0286921Y0150201D01*
X0286763Y0150205D01*
X0286604Y0150213D01*
X0286447Y0150225D01*
X0286289Y0150241D01*
X0286132Y0150261D01*
X0285976Y0150285D01*
X0285820Y0150313D01*
X0285665Y0150344D01*
X0285510Y0150380D01*
X0285357Y0150419D01*
X0285205Y0150462D01*
X0285054Y0150509D01*
X0284904Y0150560D01*
X0284755Y0150615D01*
X0284608Y0150673D01*
X0284462Y0150735D01*
X0284318Y0150800D01*
X0284176Y0150870D01*
X0284035Y0150942D01*
X0283896Y0151019D01*
X0283760Y0151098D01*
X0283625Y0151182D01*
X0283492Y0151268D01*
X0283362Y0151358D01*
X0283234Y0151451D01*
X0283108Y0151547D01*
X0282985Y0151647D01*
X0282864Y0151749D01*
X0282746Y0151854D01*
X0282631Y0151963D01*
X0282518Y0152074D01*
X0282408Y0152188D01*
X0282301Y0152305D01*
X0282197Y0152424D01*
X0282096Y0152546D01*
X0281999Y0152671D01*
X0281904Y0152798D01*
X0281813Y0152927D01*
X0281724Y0153058D01*
X0281640Y0153192D01*
X0281558Y0153328D01*
X0281480Y0153465D01*
X0281406Y0153605D01*
X0281335Y0153747D01*
X0281267Y0153890D01*
X0281203Y0154035D01*
X0281143Y0154181D01*
X0281087Y0154329D01*
X0281034Y0154478D01*
X0280985Y0154629D01*
X0280940Y0154781D01*
X0280899Y0154934D01*
X0280861Y0155087D01*
X0280828Y0155242D01*
X0280798Y0155398D01*
X0280772Y0155554D01*
X0280751Y0155711D01*
X0280733Y0155868D01*
X0280719Y0156026D01*
X0280709Y0156184D01*
X0280703Y0156342D01*
X0280701Y0156500D01*
X0080701Y0216500D02*
X0080703Y0216658D01*
X0080709Y0216816D01*
X0080719Y0216974D01*
X0080733Y0217132D01*
X0080751Y0217289D01*
X0080772Y0217446D01*
X0080798Y0217602D01*
X0080828Y0217758D01*
X0080861Y0217913D01*
X0080899Y0218066D01*
X0080940Y0218219D01*
X0080985Y0218371D01*
X0081034Y0218522D01*
X0081087Y0218671D01*
X0081143Y0218819D01*
X0081203Y0218965D01*
X0081267Y0219110D01*
X0081335Y0219253D01*
X0081406Y0219395D01*
X0081480Y0219535D01*
X0081558Y0219672D01*
X0081640Y0219808D01*
X0081724Y0219942D01*
X0081813Y0220073D01*
X0081904Y0220202D01*
X0081999Y0220329D01*
X0082096Y0220454D01*
X0082197Y0220576D01*
X0082301Y0220695D01*
X0082408Y0220812D01*
X0082518Y0220926D01*
X0082631Y0221037D01*
X0082746Y0221146D01*
X0082864Y0221251D01*
X0082985Y0221353D01*
X0083108Y0221453D01*
X0083234Y0221549D01*
X0083362Y0221642D01*
X0083492Y0221732D01*
X0083625Y0221818D01*
X0083760Y0221902D01*
X0083896Y0221981D01*
X0084035Y0222058D01*
X0084176Y0222130D01*
X0084318Y0222200D01*
X0084462Y0222265D01*
X0084608Y0222327D01*
X0084755Y0222385D01*
X0084904Y0222440D01*
X0085054Y0222491D01*
X0085205Y0222538D01*
X0085357Y0222581D01*
X0085510Y0222620D01*
X0085665Y0222656D01*
X0085820Y0222687D01*
X0085976Y0222715D01*
X0086132Y0222739D01*
X0086289Y0222759D01*
X0086447Y0222775D01*
X0086604Y0222787D01*
X0086763Y0222795D01*
X0086921Y0222799D01*
X0087079Y0222799D01*
X0087237Y0222795D01*
X0087396Y0222787D01*
X0087553Y0222775D01*
X0087711Y0222759D01*
X0087868Y0222739D01*
X0088024Y0222715D01*
X0088180Y0222687D01*
X0088335Y0222656D01*
X0088490Y0222620D01*
X0088643Y0222581D01*
X0088795Y0222538D01*
X0088946Y0222491D01*
X0089096Y0222440D01*
X0089245Y0222385D01*
X0089392Y0222327D01*
X0089538Y0222265D01*
X0089682Y0222200D01*
X0089824Y0222130D01*
X0089965Y0222058D01*
X0090104Y0221981D01*
X0090240Y0221902D01*
X0090375Y0221818D01*
X0090508Y0221732D01*
X0090638Y0221642D01*
X0090766Y0221549D01*
X0090892Y0221453D01*
X0091015Y0221353D01*
X0091136Y0221251D01*
X0091254Y0221146D01*
X0091369Y0221037D01*
X0091482Y0220926D01*
X0091592Y0220812D01*
X0091699Y0220695D01*
X0091803Y0220576D01*
X0091904Y0220454D01*
X0092001Y0220329D01*
X0092096Y0220202D01*
X0092187Y0220073D01*
X0092276Y0219942D01*
X0092360Y0219808D01*
X0092442Y0219672D01*
X0092520Y0219535D01*
X0092594Y0219395D01*
X0092665Y0219253D01*
X0092733Y0219110D01*
X0092797Y0218965D01*
X0092857Y0218819D01*
X0092913Y0218671D01*
X0092966Y0218522D01*
X0093015Y0218371D01*
X0093060Y0218219D01*
X0093101Y0218066D01*
X0093139Y0217913D01*
X0093172Y0217758D01*
X0093202Y0217602D01*
X0093228Y0217446D01*
X0093249Y0217289D01*
X0093267Y0217132D01*
X0093281Y0216974D01*
X0093291Y0216816D01*
X0093297Y0216658D01*
X0093299Y0216500D01*
X0093297Y0216342D01*
X0093291Y0216184D01*
X0093281Y0216026D01*
X0093267Y0215868D01*
X0093249Y0215711D01*
X0093228Y0215554D01*
X0093202Y0215398D01*
X0093172Y0215242D01*
X0093139Y0215087D01*
X0093101Y0214934D01*
X0093060Y0214781D01*
X0093015Y0214629D01*
X0092966Y0214478D01*
X0092913Y0214329D01*
X0092857Y0214181D01*
X0092797Y0214035D01*
X0092733Y0213890D01*
X0092665Y0213747D01*
X0092594Y0213605D01*
X0092520Y0213465D01*
X0092442Y0213328D01*
X0092360Y0213192D01*
X0092276Y0213058D01*
X0092187Y0212927D01*
X0092096Y0212798D01*
X0092001Y0212671D01*
X0091904Y0212546D01*
X0091803Y0212424D01*
X0091699Y0212305D01*
X0091592Y0212188D01*
X0091482Y0212074D01*
X0091369Y0211963D01*
X0091254Y0211854D01*
X0091136Y0211749D01*
X0091015Y0211647D01*
X0090892Y0211547D01*
X0090766Y0211451D01*
X0090638Y0211358D01*
X0090508Y0211268D01*
X0090375Y0211182D01*
X0090240Y0211098D01*
X0090104Y0211019D01*
X0089965Y0210942D01*
X0089824Y0210870D01*
X0089682Y0210800D01*
X0089538Y0210735D01*
X0089392Y0210673D01*
X0089245Y0210615D01*
X0089096Y0210560D01*
X0088946Y0210509D01*
X0088795Y0210462D01*
X0088643Y0210419D01*
X0088490Y0210380D01*
X0088335Y0210344D01*
X0088180Y0210313D01*
X0088024Y0210285D01*
X0087868Y0210261D01*
X0087711Y0210241D01*
X0087553Y0210225D01*
X0087396Y0210213D01*
X0087237Y0210205D01*
X0087079Y0210201D01*
X0086921Y0210201D01*
X0086763Y0210205D01*
X0086604Y0210213D01*
X0086447Y0210225D01*
X0086289Y0210241D01*
X0086132Y0210261D01*
X0085976Y0210285D01*
X0085820Y0210313D01*
X0085665Y0210344D01*
X0085510Y0210380D01*
X0085357Y0210419D01*
X0085205Y0210462D01*
X0085054Y0210509D01*
X0084904Y0210560D01*
X0084755Y0210615D01*
X0084608Y0210673D01*
X0084462Y0210735D01*
X0084318Y0210800D01*
X0084176Y0210870D01*
X0084035Y0210942D01*
X0083896Y0211019D01*
X0083760Y0211098D01*
X0083625Y0211182D01*
X0083492Y0211268D01*
X0083362Y0211358D01*
X0083234Y0211451D01*
X0083108Y0211547D01*
X0082985Y0211647D01*
X0082864Y0211749D01*
X0082746Y0211854D01*
X0082631Y0211963D01*
X0082518Y0212074D01*
X0082408Y0212188D01*
X0082301Y0212305D01*
X0082197Y0212424D01*
X0082096Y0212546D01*
X0081999Y0212671D01*
X0081904Y0212798D01*
X0081813Y0212927D01*
X0081724Y0213058D01*
X0081640Y0213192D01*
X0081558Y0213328D01*
X0081480Y0213465D01*
X0081406Y0213605D01*
X0081335Y0213747D01*
X0081267Y0213890D01*
X0081203Y0214035D01*
X0081143Y0214181D01*
X0081087Y0214329D01*
X0081034Y0214478D01*
X0080985Y0214629D01*
X0080940Y0214781D01*
X0080899Y0214934D01*
X0080861Y0215087D01*
X0080828Y0215242D01*
X0080798Y0215398D01*
X0080772Y0215554D01*
X0080751Y0215711D01*
X0080733Y0215868D01*
X0080719Y0216026D01*
X0080709Y0216184D01*
X0080703Y0216342D01*
X0080701Y0216500D01*
D11*
X0077000Y0001500D02*
X0417000Y0001500D01*
X0417000Y0241500D01*
X0077000Y0241500D01*
X0077000Y0001500D01*
D12*
X0310250Y0037611D03*
X0312250Y0037611D03*
X0314250Y0037611D03*
X0316150Y0037611D03*
X0318150Y0037611D03*
X0320150Y0037511D03*
X0322050Y0037611D03*
X0324050Y0037711D03*
X0326050Y0037511D03*
X0328050Y0037511D03*
X0329950Y0037611D03*
X0331950Y0037511D03*
X0333850Y0037511D03*
X0335850Y0037611D03*
X0337850Y0037611D03*
X0339750Y0037611D03*
X0341750Y0037611D03*
X0343750Y0037611D03*
X0345750Y0037511D03*
M02*
