%
M48
M72
T01C0.02362
T02C0.03200
T03C0.03504
T04C0.03543
T05C0.03937
T06C0.04000
T07C0.04724
T08C0.05118
T09C0.07913
T10C0.12598
%
T01
X282000Y16500
X322000Y71500
X347000Y86500
X327000Y96500
X337000Y106500
T02
X382000Y86500
X392000Y86500
X392000Y116500
X382000Y116500
X382000Y146500
X392000Y146500
X392000Y176500
X382000Y176500
T03
X117000Y71500
X127000Y71500
X127000Y171500
X117000Y171500
T04
X92000Y121500
X142000Y121500
X182000Y141500
X212000Y141500
X242000Y146500
X312000Y146500
X312000Y126500
X312000Y106500
X312000Y86500
X312000Y66500
X362000Y66500
X362000Y86500
X362000Y106500
X362000Y126500
X362000Y146500
X242000Y196500
X212000Y191500
X182000Y191500
T05
X157000Y26500
X167000Y26500
X177000Y26500
X187000Y26500
X197000Y26500
X207000Y26500
X227000Y26500
X237000Y26500
X247000Y26500
X257000Y26500
X267000Y26500
X277000Y26500
X312000Y206500
X322000Y206500
X332000Y206500
X342000Y206500
X352000Y206500
X362000Y206500
X372000Y206500
X382000Y206500
X382000Y216500
X372000Y216500
X362000Y216500
X352000Y216500
X342000Y216500
X332000Y216500
X322000Y216500
X312000Y216500
X277000Y216500
X267000Y216500
X257000Y216500
X247000Y216500
X237000Y216500
X227000Y216500
X217000Y216500
X207000Y216500
X191000Y216500
X181000Y216500
X171000Y216500
X161000Y216500
X151000Y216500
X141000Y216500
X131000Y216500
X121000Y216500
T06
X167000Y66500
X167000Y76500
X167000Y86500
X167000Y96500
X167000Y106500
X167000Y116500
X167000Y126500
X167000Y136500
X167000Y146500
X197000Y146500
X197000Y136500
X197000Y126500
X197000Y116500
X197000Y106500
X197000Y96500
X197000Y86500
X197000Y76500
X197000Y66500
X227000Y66500
X227000Y76500
X227000Y86500
X227000Y96500
X227000Y106500
X227000Y116500
X227000Y126500
X227000Y136500
X227000Y146500
X257000Y146500
X257000Y136500
X257000Y126500
X257000Y116500
X257000Y106500
X257000Y96500
X257000Y86500
X257000Y76500
X257000Y66500
X252000Y46500
X242000Y46500
X232000Y46500
X197000Y46500
X187000Y46500
X177000Y46500
X367000Y161500
X282000Y226500
T07
X82000Y26500
X382157Y61106
X401843Y61106
X401843Y11894
X382157Y11894
T08
X298457Y33311
X296094Y14020
X355543Y33311
X357906Y14020
T09
X97000Y51500
X137000Y91500
X97000Y151500
X137000Y191500
T10
X287000Y46500
X287000Y156500
X87000Y216500
M30
