G75*
%MOIN*%
%OFA0B0*%
%FSLAX25Y25*%
%IPPOS*%
%LPD*%
%AMOC8*
5,1,8,0,0,1.08239X$1,22.5*
%
%ADD10C,0.00000*%
%ADD11C,0.00400*%
%ADD12C,0.00300*%
%ADD13C,0.01000*%
%ADD14C,0.00500*%
%ADD15C,0.00600*%
%ADD16C,0.00800*%
%ADD17C,0.02756*%
D10*
X0079638Y0026500D02*
X0079640Y0026597D01*
X0079646Y0026694D01*
X0079656Y0026790D01*
X0079670Y0026886D01*
X0079688Y0026982D01*
X0079709Y0027076D01*
X0079735Y0027170D01*
X0079764Y0027262D01*
X0079798Y0027353D01*
X0079834Y0027443D01*
X0079875Y0027531D01*
X0079919Y0027617D01*
X0079967Y0027702D01*
X0080018Y0027784D01*
X0080072Y0027865D01*
X0080130Y0027943D01*
X0080191Y0028018D01*
X0080254Y0028091D01*
X0080321Y0028162D01*
X0080391Y0028229D01*
X0080463Y0028294D01*
X0080538Y0028355D01*
X0080616Y0028414D01*
X0080695Y0028469D01*
X0080777Y0028521D01*
X0080861Y0028569D01*
X0080947Y0028614D01*
X0081035Y0028656D01*
X0081124Y0028694D01*
X0081215Y0028728D01*
X0081307Y0028758D01*
X0081400Y0028785D01*
X0081495Y0028807D01*
X0081590Y0028826D01*
X0081686Y0028841D01*
X0081782Y0028852D01*
X0081879Y0028859D01*
X0081976Y0028862D01*
X0082073Y0028861D01*
X0082170Y0028856D01*
X0082266Y0028847D01*
X0082362Y0028834D01*
X0082458Y0028817D01*
X0082553Y0028796D01*
X0082646Y0028772D01*
X0082739Y0028743D01*
X0082831Y0028711D01*
X0082921Y0028675D01*
X0083009Y0028636D01*
X0083096Y0028592D01*
X0083181Y0028546D01*
X0083264Y0028495D01*
X0083345Y0028442D01*
X0083423Y0028385D01*
X0083500Y0028325D01*
X0083573Y0028262D01*
X0083644Y0028196D01*
X0083712Y0028127D01*
X0083778Y0028055D01*
X0083840Y0027981D01*
X0083899Y0027904D01*
X0083955Y0027825D01*
X0084008Y0027743D01*
X0084058Y0027660D01*
X0084103Y0027574D01*
X0084146Y0027487D01*
X0084185Y0027398D01*
X0084220Y0027308D01*
X0084251Y0027216D01*
X0084278Y0027123D01*
X0084302Y0027029D01*
X0084322Y0026934D01*
X0084338Y0026838D01*
X0084350Y0026742D01*
X0084358Y0026645D01*
X0084362Y0026548D01*
X0084362Y0026452D01*
X0084358Y0026355D01*
X0084350Y0026258D01*
X0084338Y0026162D01*
X0084322Y0026066D01*
X0084302Y0025971D01*
X0084278Y0025877D01*
X0084251Y0025784D01*
X0084220Y0025692D01*
X0084185Y0025602D01*
X0084146Y0025513D01*
X0084103Y0025426D01*
X0084058Y0025340D01*
X0084008Y0025257D01*
X0083955Y0025175D01*
X0083899Y0025096D01*
X0083840Y0025019D01*
X0083778Y0024945D01*
X0083712Y0024873D01*
X0083644Y0024804D01*
X0083573Y0024738D01*
X0083500Y0024675D01*
X0083423Y0024615D01*
X0083345Y0024558D01*
X0083264Y0024505D01*
X0083181Y0024454D01*
X0083096Y0024408D01*
X0083009Y0024364D01*
X0082921Y0024325D01*
X0082831Y0024289D01*
X0082739Y0024257D01*
X0082646Y0024228D01*
X0082553Y0024204D01*
X0082458Y0024183D01*
X0082362Y0024166D01*
X0082266Y0024153D01*
X0082170Y0024144D01*
X0082073Y0024139D01*
X0081976Y0024138D01*
X0081879Y0024141D01*
X0081782Y0024148D01*
X0081686Y0024159D01*
X0081590Y0024174D01*
X0081495Y0024193D01*
X0081400Y0024215D01*
X0081307Y0024242D01*
X0081215Y0024272D01*
X0081124Y0024306D01*
X0081035Y0024344D01*
X0080947Y0024386D01*
X0080861Y0024431D01*
X0080777Y0024479D01*
X0080695Y0024531D01*
X0080616Y0024586D01*
X0080538Y0024645D01*
X0080463Y0024706D01*
X0080391Y0024771D01*
X0080321Y0024838D01*
X0080254Y0024909D01*
X0080191Y0024982D01*
X0080130Y0025057D01*
X0080072Y0025135D01*
X0080018Y0025216D01*
X0079967Y0025298D01*
X0079919Y0025383D01*
X0079875Y0025469D01*
X0079834Y0025557D01*
X0079798Y0025647D01*
X0079764Y0025738D01*
X0079735Y0025830D01*
X0079709Y0025924D01*
X0079688Y0026018D01*
X0079670Y0026114D01*
X0079656Y0026210D01*
X0079646Y0026306D01*
X0079640Y0026403D01*
X0079638Y0026500D01*
X0287000Y0016500D02*
X0337000Y0016500D01*
X0337000Y0226500D01*
X0282000Y0226500D01*
X0280701Y0156500D02*
X0280703Y0156658D01*
X0280709Y0156816D01*
X0280719Y0156974D01*
X0280733Y0157132D01*
X0280751Y0157289D01*
X0280772Y0157446D01*
X0280798Y0157602D01*
X0280828Y0157758D01*
X0280861Y0157913D01*
X0280899Y0158066D01*
X0280940Y0158219D01*
X0280985Y0158371D01*
X0281034Y0158522D01*
X0281087Y0158671D01*
X0281143Y0158819D01*
X0281203Y0158965D01*
X0281267Y0159110D01*
X0281335Y0159253D01*
X0281406Y0159395D01*
X0281480Y0159535D01*
X0281558Y0159672D01*
X0281640Y0159808D01*
X0281724Y0159942D01*
X0281813Y0160073D01*
X0281904Y0160202D01*
X0281999Y0160329D01*
X0282096Y0160454D01*
X0282197Y0160576D01*
X0282301Y0160695D01*
X0282408Y0160812D01*
X0282518Y0160926D01*
X0282631Y0161037D01*
X0282746Y0161146D01*
X0282864Y0161251D01*
X0282985Y0161353D01*
X0283108Y0161453D01*
X0283234Y0161549D01*
X0283362Y0161642D01*
X0283492Y0161732D01*
X0283625Y0161818D01*
X0283760Y0161902D01*
X0283896Y0161981D01*
X0284035Y0162058D01*
X0284176Y0162130D01*
X0284318Y0162200D01*
X0284462Y0162265D01*
X0284608Y0162327D01*
X0284755Y0162385D01*
X0284904Y0162440D01*
X0285054Y0162491D01*
X0285205Y0162538D01*
X0285357Y0162581D01*
X0285510Y0162620D01*
X0285665Y0162656D01*
X0285820Y0162687D01*
X0285976Y0162715D01*
X0286132Y0162739D01*
X0286289Y0162759D01*
X0286447Y0162775D01*
X0286604Y0162787D01*
X0286763Y0162795D01*
X0286921Y0162799D01*
X0287079Y0162799D01*
X0287237Y0162795D01*
X0287396Y0162787D01*
X0287553Y0162775D01*
X0287711Y0162759D01*
X0287868Y0162739D01*
X0288024Y0162715D01*
X0288180Y0162687D01*
X0288335Y0162656D01*
X0288490Y0162620D01*
X0288643Y0162581D01*
X0288795Y0162538D01*
X0288946Y0162491D01*
X0289096Y0162440D01*
X0289245Y0162385D01*
X0289392Y0162327D01*
X0289538Y0162265D01*
X0289682Y0162200D01*
X0289824Y0162130D01*
X0289965Y0162058D01*
X0290104Y0161981D01*
X0290240Y0161902D01*
X0290375Y0161818D01*
X0290508Y0161732D01*
X0290638Y0161642D01*
X0290766Y0161549D01*
X0290892Y0161453D01*
X0291015Y0161353D01*
X0291136Y0161251D01*
X0291254Y0161146D01*
X0291369Y0161037D01*
X0291482Y0160926D01*
X0291592Y0160812D01*
X0291699Y0160695D01*
X0291803Y0160576D01*
X0291904Y0160454D01*
X0292001Y0160329D01*
X0292096Y0160202D01*
X0292187Y0160073D01*
X0292276Y0159942D01*
X0292360Y0159808D01*
X0292442Y0159672D01*
X0292520Y0159535D01*
X0292594Y0159395D01*
X0292665Y0159253D01*
X0292733Y0159110D01*
X0292797Y0158965D01*
X0292857Y0158819D01*
X0292913Y0158671D01*
X0292966Y0158522D01*
X0293015Y0158371D01*
X0293060Y0158219D01*
X0293101Y0158066D01*
X0293139Y0157913D01*
X0293172Y0157758D01*
X0293202Y0157602D01*
X0293228Y0157446D01*
X0293249Y0157289D01*
X0293267Y0157132D01*
X0293281Y0156974D01*
X0293291Y0156816D01*
X0293297Y0156658D01*
X0293299Y0156500D01*
X0293297Y0156342D01*
X0293291Y0156184D01*
X0293281Y0156026D01*
X0293267Y0155868D01*
X0293249Y0155711D01*
X0293228Y0155554D01*
X0293202Y0155398D01*
X0293172Y0155242D01*
X0293139Y0155087D01*
X0293101Y0154934D01*
X0293060Y0154781D01*
X0293015Y0154629D01*
X0292966Y0154478D01*
X0292913Y0154329D01*
X0292857Y0154181D01*
X0292797Y0154035D01*
X0292733Y0153890D01*
X0292665Y0153747D01*
X0292594Y0153605D01*
X0292520Y0153465D01*
X0292442Y0153328D01*
X0292360Y0153192D01*
X0292276Y0153058D01*
X0292187Y0152927D01*
X0292096Y0152798D01*
X0292001Y0152671D01*
X0291904Y0152546D01*
X0291803Y0152424D01*
X0291699Y0152305D01*
X0291592Y0152188D01*
X0291482Y0152074D01*
X0291369Y0151963D01*
X0291254Y0151854D01*
X0291136Y0151749D01*
X0291015Y0151647D01*
X0290892Y0151547D01*
X0290766Y0151451D01*
X0290638Y0151358D01*
X0290508Y0151268D01*
X0290375Y0151182D01*
X0290240Y0151098D01*
X0290104Y0151019D01*
X0289965Y0150942D01*
X0289824Y0150870D01*
X0289682Y0150800D01*
X0289538Y0150735D01*
X0289392Y0150673D01*
X0289245Y0150615D01*
X0289096Y0150560D01*
X0288946Y0150509D01*
X0288795Y0150462D01*
X0288643Y0150419D01*
X0288490Y0150380D01*
X0288335Y0150344D01*
X0288180Y0150313D01*
X0288024Y0150285D01*
X0287868Y0150261D01*
X0287711Y0150241D01*
X0287553Y0150225D01*
X0287396Y0150213D01*
X0287237Y0150205D01*
X0287079Y0150201D01*
X0286921Y0150201D01*
X0286763Y0150205D01*
X0286604Y0150213D01*
X0286447Y0150225D01*
X0286289Y0150241D01*
X0286132Y0150261D01*
X0285976Y0150285D01*
X0285820Y0150313D01*
X0285665Y0150344D01*
X0285510Y0150380D01*
X0285357Y0150419D01*
X0285205Y0150462D01*
X0285054Y0150509D01*
X0284904Y0150560D01*
X0284755Y0150615D01*
X0284608Y0150673D01*
X0284462Y0150735D01*
X0284318Y0150800D01*
X0284176Y0150870D01*
X0284035Y0150942D01*
X0283896Y0151019D01*
X0283760Y0151098D01*
X0283625Y0151182D01*
X0283492Y0151268D01*
X0283362Y0151358D01*
X0283234Y0151451D01*
X0283108Y0151547D01*
X0282985Y0151647D01*
X0282864Y0151749D01*
X0282746Y0151854D01*
X0282631Y0151963D01*
X0282518Y0152074D01*
X0282408Y0152188D01*
X0282301Y0152305D01*
X0282197Y0152424D01*
X0282096Y0152546D01*
X0281999Y0152671D01*
X0281904Y0152798D01*
X0281813Y0152927D01*
X0281724Y0153058D01*
X0281640Y0153192D01*
X0281558Y0153328D01*
X0281480Y0153465D01*
X0281406Y0153605D01*
X0281335Y0153747D01*
X0281267Y0153890D01*
X0281203Y0154035D01*
X0281143Y0154181D01*
X0281087Y0154329D01*
X0281034Y0154478D01*
X0280985Y0154629D01*
X0280940Y0154781D01*
X0280899Y0154934D01*
X0280861Y0155087D01*
X0280828Y0155242D01*
X0280798Y0155398D01*
X0280772Y0155554D01*
X0280751Y0155711D01*
X0280733Y0155868D01*
X0280719Y0156026D01*
X0280709Y0156184D01*
X0280703Y0156342D01*
X0280701Y0156500D01*
X0280701Y0046500D02*
X0280703Y0046658D01*
X0280709Y0046816D01*
X0280719Y0046974D01*
X0280733Y0047132D01*
X0280751Y0047289D01*
X0280772Y0047446D01*
X0280798Y0047602D01*
X0280828Y0047758D01*
X0280861Y0047913D01*
X0280899Y0048066D01*
X0280940Y0048219D01*
X0280985Y0048371D01*
X0281034Y0048522D01*
X0281087Y0048671D01*
X0281143Y0048819D01*
X0281203Y0048965D01*
X0281267Y0049110D01*
X0281335Y0049253D01*
X0281406Y0049395D01*
X0281480Y0049535D01*
X0281558Y0049672D01*
X0281640Y0049808D01*
X0281724Y0049942D01*
X0281813Y0050073D01*
X0281904Y0050202D01*
X0281999Y0050329D01*
X0282096Y0050454D01*
X0282197Y0050576D01*
X0282301Y0050695D01*
X0282408Y0050812D01*
X0282518Y0050926D01*
X0282631Y0051037D01*
X0282746Y0051146D01*
X0282864Y0051251D01*
X0282985Y0051353D01*
X0283108Y0051453D01*
X0283234Y0051549D01*
X0283362Y0051642D01*
X0283492Y0051732D01*
X0283625Y0051818D01*
X0283760Y0051902D01*
X0283896Y0051981D01*
X0284035Y0052058D01*
X0284176Y0052130D01*
X0284318Y0052200D01*
X0284462Y0052265D01*
X0284608Y0052327D01*
X0284755Y0052385D01*
X0284904Y0052440D01*
X0285054Y0052491D01*
X0285205Y0052538D01*
X0285357Y0052581D01*
X0285510Y0052620D01*
X0285665Y0052656D01*
X0285820Y0052687D01*
X0285976Y0052715D01*
X0286132Y0052739D01*
X0286289Y0052759D01*
X0286447Y0052775D01*
X0286604Y0052787D01*
X0286763Y0052795D01*
X0286921Y0052799D01*
X0287079Y0052799D01*
X0287237Y0052795D01*
X0287396Y0052787D01*
X0287553Y0052775D01*
X0287711Y0052759D01*
X0287868Y0052739D01*
X0288024Y0052715D01*
X0288180Y0052687D01*
X0288335Y0052656D01*
X0288490Y0052620D01*
X0288643Y0052581D01*
X0288795Y0052538D01*
X0288946Y0052491D01*
X0289096Y0052440D01*
X0289245Y0052385D01*
X0289392Y0052327D01*
X0289538Y0052265D01*
X0289682Y0052200D01*
X0289824Y0052130D01*
X0289965Y0052058D01*
X0290104Y0051981D01*
X0290240Y0051902D01*
X0290375Y0051818D01*
X0290508Y0051732D01*
X0290638Y0051642D01*
X0290766Y0051549D01*
X0290892Y0051453D01*
X0291015Y0051353D01*
X0291136Y0051251D01*
X0291254Y0051146D01*
X0291369Y0051037D01*
X0291482Y0050926D01*
X0291592Y0050812D01*
X0291699Y0050695D01*
X0291803Y0050576D01*
X0291904Y0050454D01*
X0292001Y0050329D01*
X0292096Y0050202D01*
X0292187Y0050073D01*
X0292276Y0049942D01*
X0292360Y0049808D01*
X0292442Y0049672D01*
X0292520Y0049535D01*
X0292594Y0049395D01*
X0292665Y0049253D01*
X0292733Y0049110D01*
X0292797Y0048965D01*
X0292857Y0048819D01*
X0292913Y0048671D01*
X0292966Y0048522D01*
X0293015Y0048371D01*
X0293060Y0048219D01*
X0293101Y0048066D01*
X0293139Y0047913D01*
X0293172Y0047758D01*
X0293202Y0047602D01*
X0293228Y0047446D01*
X0293249Y0047289D01*
X0293267Y0047132D01*
X0293281Y0046974D01*
X0293291Y0046816D01*
X0293297Y0046658D01*
X0293299Y0046500D01*
X0293297Y0046342D01*
X0293291Y0046184D01*
X0293281Y0046026D01*
X0293267Y0045868D01*
X0293249Y0045711D01*
X0293228Y0045554D01*
X0293202Y0045398D01*
X0293172Y0045242D01*
X0293139Y0045087D01*
X0293101Y0044934D01*
X0293060Y0044781D01*
X0293015Y0044629D01*
X0292966Y0044478D01*
X0292913Y0044329D01*
X0292857Y0044181D01*
X0292797Y0044035D01*
X0292733Y0043890D01*
X0292665Y0043747D01*
X0292594Y0043605D01*
X0292520Y0043465D01*
X0292442Y0043328D01*
X0292360Y0043192D01*
X0292276Y0043058D01*
X0292187Y0042927D01*
X0292096Y0042798D01*
X0292001Y0042671D01*
X0291904Y0042546D01*
X0291803Y0042424D01*
X0291699Y0042305D01*
X0291592Y0042188D01*
X0291482Y0042074D01*
X0291369Y0041963D01*
X0291254Y0041854D01*
X0291136Y0041749D01*
X0291015Y0041647D01*
X0290892Y0041547D01*
X0290766Y0041451D01*
X0290638Y0041358D01*
X0290508Y0041268D01*
X0290375Y0041182D01*
X0290240Y0041098D01*
X0290104Y0041019D01*
X0289965Y0040942D01*
X0289824Y0040870D01*
X0289682Y0040800D01*
X0289538Y0040735D01*
X0289392Y0040673D01*
X0289245Y0040615D01*
X0289096Y0040560D01*
X0288946Y0040509D01*
X0288795Y0040462D01*
X0288643Y0040419D01*
X0288490Y0040380D01*
X0288335Y0040344D01*
X0288180Y0040313D01*
X0288024Y0040285D01*
X0287868Y0040261D01*
X0287711Y0040241D01*
X0287553Y0040225D01*
X0287396Y0040213D01*
X0287237Y0040205D01*
X0287079Y0040201D01*
X0286921Y0040201D01*
X0286763Y0040205D01*
X0286604Y0040213D01*
X0286447Y0040225D01*
X0286289Y0040241D01*
X0286132Y0040261D01*
X0285976Y0040285D01*
X0285820Y0040313D01*
X0285665Y0040344D01*
X0285510Y0040380D01*
X0285357Y0040419D01*
X0285205Y0040462D01*
X0285054Y0040509D01*
X0284904Y0040560D01*
X0284755Y0040615D01*
X0284608Y0040673D01*
X0284462Y0040735D01*
X0284318Y0040800D01*
X0284176Y0040870D01*
X0284035Y0040942D01*
X0283896Y0041019D01*
X0283760Y0041098D01*
X0283625Y0041182D01*
X0283492Y0041268D01*
X0283362Y0041358D01*
X0283234Y0041451D01*
X0283108Y0041547D01*
X0282985Y0041647D01*
X0282864Y0041749D01*
X0282746Y0041854D01*
X0282631Y0041963D01*
X0282518Y0042074D01*
X0282408Y0042188D01*
X0282301Y0042305D01*
X0282197Y0042424D01*
X0282096Y0042546D01*
X0281999Y0042671D01*
X0281904Y0042798D01*
X0281813Y0042927D01*
X0281724Y0043058D01*
X0281640Y0043192D01*
X0281558Y0043328D01*
X0281480Y0043465D01*
X0281406Y0043605D01*
X0281335Y0043747D01*
X0281267Y0043890D01*
X0281203Y0044035D01*
X0281143Y0044181D01*
X0281087Y0044329D01*
X0281034Y0044478D01*
X0280985Y0044629D01*
X0280940Y0044781D01*
X0280899Y0044934D01*
X0280861Y0045087D01*
X0280828Y0045242D01*
X0280798Y0045398D01*
X0280772Y0045554D01*
X0280751Y0045711D01*
X0280733Y0045868D01*
X0280719Y0046026D01*
X0280709Y0046184D01*
X0280703Y0046342D01*
X0280701Y0046500D01*
X0080701Y0216500D02*
X0080703Y0216658D01*
X0080709Y0216816D01*
X0080719Y0216974D01*
X0080733Y0217132D01*
X0080751Y0217289D01*
X0080772Y0217446D01*
X0080798Y0217602D01*
X0080828Y0217758D01*
X0080861Y0217913D01*
X0080899Y0218066D01*
X0080940Y0218219D01*
X0080985Y0218371D01*
X0081034Y0218522D01*
X0081087Y0218671D01*
X0081143Y0218819D01*
X0081203Y0218965D01*
X0081267Y0219110D01*
X0081335Y0219253D01*
X0081406Y0219395D01*
X0081480Y0219535D01*
X0081558Y0219672D01*
X0081640Y0219808D01*
X0081724Y0219942D01*
X0081813Y0220073D01*
X0081904Y0220202D01*
X0081999Y0220329D01*
X0082096Y0220454D01*
X0082197Y0220576D01*
X0082301Y0220695D01*
X0082408Y0220812D01*
X0082518Y0220926D01*
X0082631Y0221037D01*
X0082746Y0221146D01*
X0082864Y0221251D01*
X0082985Y0221353D01*
X0083108Y0221453D01*
X0083234Y0221549D01*
X0083362Y0221642D01*
X0083492Y0221732D01*
X0083625Y0221818D01*
X0083760Y0221902D01*
X0083896Y0221981D01*
X0084035Y0222058D01*
X0084176Y0222130D01*
X0084318Y0222200D01*
X0084462Y0222265D01*
X0084608Y0222327D01*
X0084755Y0222385D01*
X0084904Y0222440D01*
X0085054Y0222491D01*
X0085205Y0222538D01*
X0085357Y0222581D01*
X0085510Y0222620D01*
X0085665Y0222656D01*
X0085820Y0222687D01*
X0085976Y0222715D01*
X0086132Y0222739D01*
X0086289Y0222759D01*
X0086447Y0222775D01*
X0086604Y0222787D01*
X0086763Y0222795D01*
X0086921Y0222799D01*
X0087079Y0222799D01*
X0087237Y0222795D01*
X0087396Y0222787D01*
X0087553Y0222775D01*
X0087711Y0222759D01*
X0087868Y0222739D01*
X0088024Y0222715D01*
X0088180Y0222687D01*
X0088335Y0222656D01*
X0088490Y0222620D01*
X0088643Y0222581D01*
X0088795Y0222538D01*
X0088946Y0222491D01*
X0089096Y0222440D01*
X0089245Y0222385D01*
X0089392Y0222327D01*
X0089538Y0222265D01*
X0089682Y0222200D01*
X0089824Y0222130D01*
X0089965Y0222058D01*
X0090104Y0221981D01*
X0090240Y0221902D01*
X0090375Y0221818D01*
X0090508Y0221732D01*
X0090638Y0221642D01*
X0090766Y0221549D01*
X0090892Y0221453D01*
X0091015Y0221353D01*
X0091136Y0221251D01*
X0091254Y0221146D01*
X0091369Y0221037D01*
X0091482Y0220926D01*
X0091592Y0220812D01*
X0091699Y0220695D01*
X0091803Y0220576D01*
X0091904Y0220454D01*
X0092001Y0220329D01*
X0092096Y0220202D01*
X0092187Y0220073D01*
X0092276Y0219942D01*
X0092360Y0219808D01*
X0092442Y0219672D01*
X0092520Y0219535D01*
X0092594Y0219395D01*
X0092665Y0219253D01*
X0092733Y0219110D01*
X0092797Y0218965D01*
X0092857Y0218819D01*
X0092913Y0218671D01*
X0092966Y0218522D01*
X0093015Y0218371D01*
X0093060Y0218219D01*
X0093101Y0218066D01*
X0093139Y0217913D01*
X0093172Y0217758D01*
X0093202Y0217602D01*
X0093228Y0217446D01*
X0093249Y0217289D01*
X0093267Y0217132D01*
X0093281Y0216974D01*
X0093291Y0216816D01*
X0093297Y0216658D01*
X0093299Y0216500D01*
X0093297Y0216342D01*
X0093291Y0216184D01*
X0093281Y0216026D01*
X0093267Y0215868D01*
X0093249Y0215711D01*
X0093228Y0215554D01*
X0093202Y0215398D01*
X0093172Y0215242D01*
X0093139Y0215087D01*
X0093101Y0214934D01*
X0093060Y0214781D01*
X0093015Y0214629D01*
X0092966Y0214478D01*
X0092913Y0214329D01*
X0092857Y0214181D01*
X0092797Y0214035D01*
X0092733Y0213890D01*
X0092665Y0213747D01*
X0092594Y0213605D01*
X0092520Y0213465D01*
X0092442Y0213328D01*
X0092360Y0213192D01*
X0092276Y0213058D01*
X0092187Y0212927D01*
X0092096Y0212798D01*
X0092001Y0212671D01*
X0091904Y0212546D01*
X0091803Y0212424D01*
X0091699Y0212305D01*
X0091592Y0212188D01*
X0091482Y0212074D01*
X0091369Y0211963D01*
X0091254Y0211854D01*
X0091136Y0211749D01*
X0091015Y0211647D01*
X0090892Y0211547D01*
X0090766Y0211451D01*
X0090638Y0211358D01*
X0090508Y0211268D01*
X0090375Y0211182D01*
X0090240Y0211098D01*
X0090104Y0211019D01*
X0089965Y0210942D01*
X0089824Y0210870D01*
X0089682Y0210800D01*
X0089538Y0210735D01*
X0089392Y0210673D01*
X0089245Y0210615D01*
X0089096Y0210560D01*
X0088946Y0210509D01*
X0088795Y0210462D01*
X0088643Y0210419D01*
X0088490Y0210380D01*
X0088335Y0210344D01*
X0088180Y0210313D01*
X0088024Y0210285D01*
X0087868Y0210261D01*
X0087711Y0210241D01*
X0087553Y0210225D01*
X0087396Y0210213D01*
X0087237Y0210205D01*
X0087079Y0210201D01*
X0086921Y0210201D01*
X0086763Y0210205D01*
X0086604Y0210213D01*
X0086447Y0210225D01*
X0086289Y0210241D01*
X0086132Y0210261D01*
X0085976Y0210285D01*
X0085820Y0210313D01*
X0085665Y0210344D01*
X0085510Y0210380D01*
X0085357Y0210419D01*
X0085205Y0210462D01*
X0085054Y0210509D01*
X0084904Y0210560D01*
X0084755Y0210615D01*
X0084608Y0210673D01*
X0084462Y0210735D01*
X0084318Y0210800D01*
X0084176Y0210870D01*
X0084035Y0210942D01*
X0083896Y0211019D01*
X0083760Y0211098D01*
X0083625Y0211182D01*
X0083492Y0211268D01*
X0083362Y0211358D01*
X0083234Y0211451D01*
X0083108Y0211547D01*
X0082985Y0211647D01*
X0082864Y0211749D01*
X0082746Y0211854D01*
X0082631Y0211963D01*
X0082518Y0212074D01*
X0082408Y0212188D01*
X0082301Y0212305D01*
X0082197Y0212424D01*
X0082096Y0212546D01*
X0081999Y0212671D01*
X0081904Y0212798D01*
X0081813Y0212927D01*
X0081724Y0213058D01*
X0081640Y0213192D01*
X0081558Y0213328D01*
X0081480Y0213465D01*
X0081406Y0213605D01*
X0081335Y0213747D01*
X0081267Y0213890D01*
X0081203Y0214035D01*
X0081143Y0214181D01*
X0081087Y0214329D01*
X0081034Y0214478D01*
X0080985Y0214629D01*
X0080940Y0214781D01*
X0080899Y0214934D01*
X0080861Y0215087D01*
X0080828Y0215242D01*
X0080798Y0215398D01*
X0080772Y0215554D01*
X0080751Y0215711D01*
X0080733Y0215868D01*
X0080719Y0216026D01*
X0080709Y0216184D01*
X0080703Y0216342D01*
X0080701Y0216500D01*
D11*
X0082200Y0231700D02*
X0082200Y0236904D01*
X0083935Y0235170D01*
X0085670Y0236904D01*
X0085670Y0231700D01*
X0087356Y0232567D02*
X0088224Y0231700D01*
X0090826Y0231700D01*
X0090826Y0235170D01*
X0092513Y0236904D02*
X0093380Y0236904D01*
X0093380Y0231700D01*
X0092513Y0231700D02*
X0094248Y0231700D01*
X0096818Y0232567D02*
X0097685Y0231700D01*
X0096818Y0232567D02*
X0096818Y0236037D01*
X0095950Y0235170D02*
X0097685Y0235170D01*
X0099388Y0235170D02*
X0100255Y0235170D01*
X0100255Y0231700D01*
X0099388Y0231700D02*
X0101123Y0231700D01*
X0104560Y0231700D02*
X0104560Y0236904D01*
X0102826Y0236904D02*
X0106295Y0236904D01*
X0108849Y0235170D02*
X0110584Y0235170D01*
X0111452Y0234302D01*
X0111452Y0231700D01*
X0108849Y0231700D01*
X0107982Y0232567D01*
X0108849Y0233435D01*
X0111452Y0233435D01*
X0113138Y0234302D02*
X0114006Y0235170D01*
X0116608Y0235170D01*
X0118295Y0235170D02*
X0120030Y0235170D01*
X0119162Y0236037D02*
X0119162Y0232567D01*
X0120030Y0231700D01*
X0121732Y0232567D02*
X0121732Y0234302D01*
X0122600Y0235170D01*
X0124335Y0235170D01*
X0125202Y0234302D01*
X0125202Y0233435D01*
X0121732Y0233435D01*
X0121732Y0232567D02*
X0122600Y0231700D01*
X0124335Y0231700D01*
X0132045Y0232567D02*
X0132913Y0231700D01*
X0134647Y0231700D01*
X0135515Y0232567D01*
X0135515Y0233435D01*
X0134647Y0234302D01*
X0132913Y0234302D01*
X0132045Y0235170D01*
X0132045Y0236037D01*
X0132913Y0236904D01*
X0134647Y0236904D01*
X0135515Y0236037D01*
X0137202Y0235170D02*
X0139804Y0235170D01*
X0140671Y0234302D01*
X0140671Y0232567D01*
X0139804Y0231700D01*
X0137202Y0231700D01*
X0137202Y0229965D02*
X0137202Y0235170D01*
X0142358Y0234302D02*
X0142358Y0232567D01*
X0143225Y0231700D01*
X0144960Y0231700D01*
X0145828Y0232567D01*
X0145828Y0234302D01*
X0144960Y0235170D01*
X0143225Y0235170D01*
X0142358Y0234302D01*
X0147514Y0235170D02*
X0147514Y0232567D01*
X0148382Y0231700D01*
X0150984Y0231700D01*
X0150984Y0235170D01*
X0152671Y0235170D02*
X0154406Y0235170D01*
X0153538Y0236037D02*
X0153538Y0232567D01*
X0154406Y0231700D01*
X0161265Y0232567D02*
X0161265Y0236037D01*
X0162132Y0236904D01*
X0163867Y0236904D01*
X0164734Y0236037D01*
X0166421Y0234302D02*
X0166421Y0232567D01*
X0167289Y0231700D01*
X0169023Y0231700D01*
X0169891Y0232567D01*
X0169891Y0234302D01*
X0169023Y0235170D01*
X0167289Y0235170D01*
X0166421Y0234302D01*
X0164734Y0232567D02*
X0163867Y0231700D01*
X0162132Y0231700D01*
X0161265Y0232567D01*
X0171578Y0231700D02*
X0171578Y0235170D01*
X0174180Y0235170D01*
X0175047Y0234302D01*
X0175047Y0231700D01*
X0177601Y0232567D02*
X0178469Y0231700D01*
X0177601Y0232567D02*
X0177601Y0236037D01*
X0176734Y0235170D02*
X0178469Y0235170D01*
X0180172Y0235170D02*
X0180172Y0231700D01*
X0180172Y0233435D02*
X0181906Y0235170D01*
X0182774Y0235170D01*
X0184469Y0234302D02*
X0184469Y0232567D01*
X0185336Y0231700D01*
X0187071Y0231700D01*
X0187938Y0232567D01*
X0187938Y0234302D01*
X0187071Y0235170D01*
X0185336Y0235170D01*
X0184469Y0234302D01*
X0189625Y0231700D02*
X0191360Y0231700D01*
X0190492Y0231700D02*
X0190492Y0236904D01*
X0189625Y0236904D01*
X0198219Y0236904D02*
X0198219Y0231700D01*
X0200821Y0231700D01*
X0201689Y0232567D01*
X0201689Y0233435D01*
X0200821Y0234302D01*
X0198219Y0234302D01*
X0200821Y0234302D02*
X0201689Y0235170D01*
X0201689Y0236037D01*
X0200821Y0236904D01*
X0198219Y0236904D01*
X0203375Y0234302D02*
X0203375Y0232567D01*
X0204243Y0231700D01*
X0205978Y0231700D01*
X0206845Y0232567D01*
X0206845Y0234302D01*
X0205978Y0235170D01*
X0204243Y0235170D01*
X0203375Y0234302D01*
X0208532Y0232567D02*
X0209399Y0233435D01*
X0212001Y0233435D01*
X0212001Y0234302D02*
X0212001Y0231700D01*
X0209399Y0231700D01*
X0208532Y0232567D01*
X0209399Y0235170D02*
X0211134Y0235170D01*
X0212001Y0234302D01*
X0213688Y0233435D02*
X0215423Y0235170D01*
X0216290Y0235170D01*
X0217985Y0234302D02*
X0217985Y0232567D01*
X0218853Y0231700D01*
X0221455Y0231700D01*
X0221455Y0236904D01*
X0221455Y0235170D02*
X0218853Y0235170D01*
X0217985Y0234302D01*
X0213688Y0235170D02*
X0213688Y0231700D01*
X0228298Y0233435D02*
X0230033Y0231700D01*
X0231768Y0233435D01*
X0231768Y0236904D01*
X0233454Y0235170D02*
X0235189Y0236904D01*
X0235189Y0231700D01*
X0233454Y0231700D02*
X0236924Y0231700D01*
X0228298Y0233435D02*
X0228298Y0236904D01*
X0116608Y0232567D02*
X0115741Y0233435D01*
X0114006Y0233435D01*
X0113138Y0234302D01*
X0113138Y0231700D02*
X0115741Y0231700D01*
X0116608Y0232567D01*
X0100255Y0236904D02*
X0100255Y0237772D01*
X0087356Y0235170D02*
X0087356Y0232567D01*
D12*
X0111145Y0210119D02*
X0112380Y0211353D01*
X0113614Y0210119D01*
X0113614Y0207650D01*
X0114828Y0207650D02*
X0114828Y0211353D01*
X0116680Y0211353D01*
X0117297Y0210736D01*
X0117297Y0209502D01*
X0116680Y0208884D01*
X0114828Y0208884D01*
X0116063Y0208884D02*
X0117297Y0207650D01*
X0118511Y0208267D02*
X0118511Y0209502D01*
X0119129Y0210119D01*
X0120363Y0210119D01*
X0120980Y0209502D01*
X0120980Y0208884D01*
X0118511Y0208884D01*
X0118511Y0208267D02*
X0119129Y0207650D01*
X0120363Y0207650D01*
X0122812Y0207650D02*
X0122812Y0210736D01*
X0123429Y0211353D01*
X0123429Y0209502D02*
X0122195Y0209502D01*
X0126101Y0209502D02*
X0126101Y0208267D01*
X0126718Y0207650D01*
X0128569Y0207650D01*
X0128569Y0207033D02*
X0128569Y0210119D01*
X0126718Y0210119D01*
X0126101Y0209502D01*
X0128569Y0207033D02*
X0127952Y0206416D01*
X0127335Y0206416D01*
X0129784Y0207650D02*
X0129784Y0210119D01*
X0131635Y0210119D01*
X0132252Y0209502D01*
X0132252Y0207650D01*
X0133467Y0208267D02*
X0133467Y0209502D01*
X0134084Y0210119D01*
X0135936Y0210119D01*
X0135936Y0211353D02*
X0135936Y0207650D01*
X0134084Y0207650D01*
X0133467Y0208267D01*
X0138284Y0207650D02*
X0140752Y0207650D01*
X0139518Y0207650D02*
X0139518Y0211353D01*
X0138284Y0210119D01*
X0141967Y0210736D02*
X0142584Y0211353D01*
X0143818Y0211353D01*
X0144436Y0210736D01*
X0144436Y0210119D01*
X0143818Y0209502D01*
X0144436Y0208884D01*
X0144436Y0208267D01*
X0143818Y0207650D01*
X0142584Y0207650D01*
X0141967Y0208267D01*
X0143201Y0209502D02*
X0143818Y0209502D01*
X0148284Y0210119D02*
X0149518Y0211353D01*
X0149518Y0207650D01*
X0148284Y0207650D02*
X0150752Y0207650D01*
X0151967Y0207650D02*
X0154436Y0210119D01*
X0154436Y0210736D01*
X0153818Y0211353D01*
X0152584Y0211353D01*
X0151967Y0210736D01*
X0151967Y0207650D02*
X0154436Y0207650D01*
X0158284Y0207650D02*
X0160752Y0207650D01*
X0161967Y0207650D02*
X0164436Y0207650D01*
X0163201Y0207650D02*
X0163201Y0211353D01*
X0161967Y0210119D01*
X0159518Y0211353D02*
X0159518Y0207650D01*
X0158284Y0210119D02*
X0159518Y0211353D01*
X0168284Y0210119D02*
X0169518Y0211353D01*
X0169518Y0207650D01*
X0168284Y0207650D02*
X0170752Y0207650D01*
X0171967Y0208267D02*
X0174436Y0210736D01*
X0174436Y0208267D01*
X0173818Y0207650D01*
X0172584Y0207650D01*
X0171967Y0208267D01*
X0171967Y0210736D01*
X0172584Y0211353D01*
X0173818Y0211353D01*
X0174436Y0210736D01*
X0179967Y0210736D02*
X0179967Y0210119D01*
X0180584Y0209502D01*
X0182436Y0209502D01*
X0182436Y0210736D02*
X0181818Y0211353D01*
X0180584Y0211353D01*
X0179967Y0210736D01*
X0182436Y0210736D02*
X0182436Y0208267D01*
X0181818Y0207650D01*
X0180584Y0207650D01*
X0179967Y0208267D01*
X0189967Y0208267D02*
X0189967Y0208884D01*
X0190584Y0209502D01*
X0191818Y0209502D01*
X0192436Y0208884D01*
X0192436Y0208267D01*
X0191818Y0207650D01*
X0190584Y0207650D01*
X0189967Y0208267D01*
X0190584Y0209502D02*
X0189967Y0210119D01*
X0189967Y0210736D01*
X0190584Y0211353D01*
X0191818Y0211353D01*
X0192436Y0210736D01*
X0192436Y0210119D01*
X0191818Y0209502D01*
X0205967Y0208267D02*
X0205967Y0207650D01*
X0205967Y0208267D02*
X0208436Y0210736D01*
X0208436Y0211353D01*
X0205967Y0211353D01*
X0215967Y0209502D02*
X0215967Y0208267D01*
X0216584Y0207650D01*
X0217818Y0207650D01*
X0218436Y0208267D01*
X0218436Y0208884D01*
X0217818Y0209502D01*
X0215967Y0209502D01*
X0217201Y0210736D01*
X0218436Y0211353D01*
X0225967Y0211353D02*
X0225967Y0209502D01*
X0227201Y0210119D01*
X0227818Y0210119D01*
X0228436Y0209502D01*
X0228436Y0208267D01*
X0227818Y0207650D01*
X0226584Y0207650D01*
X0225967Y0208267D01*
X0225967Y0211353D02*
X0228436Y0211353D01*
X0235967Y0209502D02*
X0238436Y0209502D01*
X0237818Y0211353D02*
X0235967Y0209502D01*
X0237818Y0211353D02*
X0237818Y0207650D01*
X0245967Y0208267D02*
X0246584Y0207650D01*
X0247818Y0207650D01*
X0248436Y0208267D01*
X0248436Y0208884D01*
X0247818Y0209502D01*
X0247201Y0209502D01*
X0247818Y0209502D02*
X0248436Y0210119D01*
X0248436Y0210736D01*
X0247818Y0211353D01*
X0246584Y0211353D01*
X0245967Y0210736D01*
X0255967Y0210736D02*
X0256584Y0211353D01*
X0257818Y0211353D01*
X0258436Y0210736D01*
X0258436Y0210119D01*
X0255967Y0207650D01*
X0258436Y0207650D01*
X0265967Y0207650D02*
X0268436Y0207650D01*
X0267201Y0207650D02*
X0267201Y0211353D01*
X0265967Y0210119D01*
X0275967Y0210736D02*
X0275967Y0208267D01*
X0278436Y0210736D01*
X0278436Y0208267D01*
X0277818Y0207650D01*
X0276584Y0207650D01*
X0275967Y0208267D01*
X0275967Y0210736D02*
X0276584Y0211353D01*
X0277818Y0211353D01*
X0278436Y0210736D01*
X0260812Y0222267D02*
X0260812Y0224736D01*
X0260194Y0225353D01*
X0258960Y0225353D01*
X0258343Y0224736D01*
X0258343Y0222267D01*
X0258960Y0221650D01*
X0260194Y0221650D01*
X0260812Y0222267D01*
X0257128Y0225353D02*
X0254660Y0221650D01*
X0253439Y0221650D02*
X0252204Y0221650D01*
X0252821Y0221650D02*
X0252821Y0225353D01*
X0252204Y0225353D02*
X0253439Y0225353D01*
X0247300Y0221650D02*
X0246066Y0221650D01*
X0246683Y0221650D02*
X0246683Y0225353D01*
X0246066Y0225353D01*
X0244234Y0224119D02*
X0244851Y0223502D01*
X0244851Y0221650D01*
X0243000Y0221650D01*
X0242383Y0222267D01*
X0243000Y0222884D01*
X0244851Y0222884D01*
X0244234Y0224119D02*
X0243000Y0224119D01*
X0241162Y0224119D02*
X0239927Y0224119D01*
X0240544Y0224736D02*
X0240544Y0222267D01*
X0241162Y0221650D01*
X0238706Y0221650D02*
X0237472Y0221650D01*
X0238089Y0221650D02*
X0238089Y0224119D01*
X0237472Y0224119D01*
X0236257Y0224119D02*
X0234406Y0224119D01*
X0233789Y0223502D01*
X0233789Y0222267D01*
X0234406Y0221650D01*
X0236257Y0221650D01*
X0236257Y0221033D02*
X0236257Y0224119D01*
X0238089Y0225353D02*
X0238089Y0225970D01*
X0231950Y0225970D02*
X0231950Y0225353D01*
X0231950Y0224119D02*
X0231950Y0221650D01*
X0231333Y0221650D02*
X0232568Y0221650D01*
X0230119Y0222267D02*
X0230119Y0224736D01*
X0229502Y0225353D01*
X0227650Y0225353D01*
X0227650Y0221650D01*
X0229502Y0221650D01*
X0230119Y0222267D01*
X0231333Y0224119D02*
X0231950Y0224119D01*
X0235023Y0220416D02*
X0235640Y0220416D01*
X0236257Y0221033D01*
X0184812Y0222267D02*
X0184812Y0224736D01*
X0184194Y0225353D01*
X0182960Y0225353D01*
X0182343Y0224736D01*
X0182343Y0222267D01*
X0182960Y0221650D01*
X0184194Y0221650D01*
X0184812Y0222267D01*
X0181128Y0225353D02*
X0178660Y0221650D01*
X0177439Y0221650D02*
X0176204Y0221650D01*
X0176821Y0221650D02*
X0176821Y0225353D01*
X0176204Y0225353D02*
X0177439Y0225353D01*
X0170683Y0225353D02*
X0170683Y0221650D01*
X0170066Y0221650D02*
X0171300Y0221650D01*
X0168851Y0221650D02*
X0167000Y0221650D01*
X0166383Y0222267D01*
X0167000Y0222884D01*
X0168851Y0222884D01*
X0168851Y0223502D02*
X0168851Y0221650D01*
X0168851Y0223502D02*
X0168234Y0224119D01*
X0167000Y0224119D01*
X0165162Y0224119D02*
X0163927Y0224119D01*
X0164544Y0224736D02*
X0164544Y0222267D01*
X0165162Y0221650D01*
X0162706Y0221650D02*
X0161472Y0221650D01*
X0162089Y0221650D02*
X0162089Y0224119D01*
X0161472Y0224119D01*
X0160257Y0224119D02*
X0158406Y0224119D01*
X0157789Y0223502D01*
X0157789Y0222267D01*
X0158406Y0221650D01*
X0160257Y0221650D01*
X0160257Y0221033D02*
X0160257Y0224119D01*
X0162089Y0225353D02*
X0162089Y0225970D01*
X0155950Y0225970D02*
X0155950Y0225353D01*
X0155950Y0224119D02*
X0155950Y0221650D01*
X0155333Y0221650D02*
X0156568Y0221650D01*
X0154119Y0222267D02*
X0154119Y0224736D01*
X0153502Y0225353D01*
X0151650Y0225353D01*
X0151650Y0221650D01*
X0153502Y0221650D01*
X0154119Y0222267D01*
X0155333Y0224119D02*
X0155950Y0224119D01*
X0159023Y0220416D02*
X0159640Y0220416D01*
X0160257Y0221033D01*
X0170066Y0225353D02*
X0170683Y0225353D01*
X0113614Y0209502D02*
X0111145Y0209502D01*
X0111145Y0210119D02*
X0111145Y0207650D01*
X0182634Y0059552D02*
X0182150Y0059069D01*
X0182150Y0057134D01*
X0182634Y0056650D01*
X0183601Y0056650D01*
X0184085Y0057134D01*
X0184085Y0058101D01*
X0183117Y0058101D01*
X0184085Y0059069D02*
X0183601Y0059552D01*
X0182634Y0059552D01*
X0185097Y0058585D02*
X0185097Y0056650D01*
X0187031Y0056650D02*
X0187031Y0058101D01*
X0186548Y0058585D01*
X0185097Y0058585D01*
X0188043Y0058101D02*
X0188527Y0058585D01*
X0189978Y0058585D01*
X0189978Y0059552D02*
X0189978Y0056650D01*
X0188527Y0056650D01*
X0188043Y0057134D01*
X0188043Y0058101D01*
X0188307Y0035353D02*
X0187690Y0034736D01*
X0187690Y0032267D01*
X0188307Y0031650D01*
X0189541Y0031650D01*
X0190159Y0032267D01*
X0190159Y0033502D01*
X0188924Y0033502D01*
X0190159Y0034736D02*
X0189541Y0035353D01*
X0188307Y0035353D01*
X0191373Y0034119D02*
X0191373Y0031650D01*
X0193842Y0031650D02*
X0193842Y0033502D01*
X0193224Y0034119D01*
X0191373Y0034119D01*
X0195056Y0033502D02*
X0195673Y0034119D01*
X0197525Y0034119D01*
X0197525Y0035353D02*
X0197525Y0031650D01*
X0195673Y0031650D01*
X0195056Y0032267D01*
X0195056Y0033502D01*
X0203470Y0032884D02*
X0204704Y0031650D01*
X0205939Y0032884D01*
X0205939Y0035353D01*
X0207153Y0034119D02*
X0207770Y0034119D01*
X0207770Y0031650D01*
X0207153Y0031650D02*
X0208388Y0031650D01*
X0209609Y0031650D02*
X0209609Y0034119D01*
X0211460Y0034119D01*
X0212077Y0033502D01*
X0212077Y0031650D01*
X0207770Y0035353D02*
X0207770Y0035970D01*
X0203470Y0035353D02*
X0203470Y0032884D01*
X0225650Y0032267D02*
X0228119Y0034736D01*
X0228119Y0032267D01*
X0227502Y0031650D01*
X0226267Y0031650D01*
X0225650Y0032267D01*
X0225650Y0034736D01*
X0226267Y0035353D01*
X0227502Y0035353D01*
X0228119Y0034736D01*
X0235650Y0034119D02*
X0236884Y0035353D01*
X0236884Y0031650D01*
X0235650Y0031650D02*
X0238119Y0031650D01*
X0245650Y0031650D02*
X0248119Y0034119D01*
X0248119Y0034736D01*
X0247502Y0035353D01*
X0246267Y0035353D01*
X0245650Y0034736D01*
X0245650Y0031650D02*
X0248119Y0031650D01*
X0255650Y0032267D02*
X0256267Y0031650D01*
X0257502Y0031650D01*
X0258119Y0032267D01*
X0258119Y0032884D01*
X0257502Y0033502D01*
X0256884Y0033502D01*
X0257502Y0033502D02*
X0258119Y0034119D01*
X0258119Y0034736D01*
X0257502Y0035353D01*
X0256267Y0035353D01*
X0255650Y0034736D01*
X0265650Y0033502D02*
X0268119Y0033502D01*
X0267502Y0035353D02*
X0265650Y0033502D01*
X0267502Y0035353D02*
X0267502Y0031650D01*
X0275650Y0032267D02*
X0276267Y0031650D01*
X0277502Y0031650D01*
X0278119Y0032267D01*
X0278119Y0033502D01*
X0277502Y0034119D01*
X0276884Y0034119D01*
X0275650Y0033502D01*
X0275650Y0035353D01*
X0278119Y0035353D01*
X0265978Y0022173D02*
X0264744Y0022173D01*
X0265361Y0022173D02*
X0265361Y0018470D01*
X0264744Y0018470D02*
X0265978Y0018470D01*
X0267199Y0018470D02*
X0267199Y0020939D01*
X0269051Y0020939D01*
X0269668Y0020322D01*
X0269668Y0018470D01*
X0259847Y0018470D02*
X0257995Y0018470D01*
X0257378Y0019087D01*
X0257378Y0020322D01*
X0257995Y0020939D01*
X0259847Y0020939D01*
X0259847Y0017853D01*
X0259229Y0017236D01*
X0258612Y0017236D01*
X0256163Y0019087D02*
X0256163Y0020322D01*
X0255546Y0020939D01*
X0254312Y0020939D01*
X0253695Y0020322D01*
X0253695Y0019087D01*
X0254312Y0018470D01*
X0255546Y0018470D01*
X0256163Y0019087D01*
X0252474Y0018470D02*
X0251239Y0018470D01*
X0251856Y0018470D02*
X0251856Y0022173D01*
X0251239Y0022173D01*
X0249408Y0020939D02*
X0250025Y0020322D01*
X0250025Y0018470D01*
X0248173Y0018470D01*
X0247556Y0019087D01*
X0248173Y0019704D01*
X0250025Y0019704D01*
X0249408Y0020939D02*
X0248173Y0020939D01*
X0246342Y0020322D02*
X0246342Y0018470D01*
X0246342Y0020322D02*
X0245724Y0020939D01*
X0243873Y0020939D01*
X0243873Y0018470D01*
X0242659Y0018470D02*
X0242659Y0020939D01*
X0241424Y0022173D01*
X0240190Y0020939D01*
X0240190Y0018470D01*
X0240190Y0020322D02*
X0242659Y0020322D01*
X0181122Y0034119D02*
X0179888Y0031650D01*
X0178653Y0034119D01*
X0177439Y0033502D02*
X0176822Y0034119D01*
X0176204Y0034119D01*
X0174970Y0033502D01*
X0174970Y0035353D01*
X0177439Y0035353D01*
X0177439Y0033502D02*
X0177439Y0032267D01*
X0176822Y0031650D01*
X0175587Y0031650D01*
X0174970Y0032267D01*
X0170122Y0034119D02*
X0168888Y0031650D01*
X0167653Y0034119D01*
X0166439Y0034119D02*
X0165822Y0033502D01*
X0166439Y0032884D01*
X0166439Y0032267D01*
X0165822Y0031650D01*
X0164587Y0031650D01*
X0163970Y0032267D01*
X0165204Y0033502D02*
X0165822Y0033502D01*
X0166439Y0034119D02*
X0166439Y0034736D01*
X0165822Y0035353D01*
X0164587Y0035353D01*
X0163970Y0034736D01*
X0159945Y0035353D02*
X0157477Y0035353D01*
X0158711Y0035353D02*
X0158711Y0031650D01*
X0156262Y0032267D02*
X0155645Y0031650D01*
X0154411Y0031650D01*
X0153793Y0032267D01*
X0152579Y0031650D02*
X0151345Y0032884D01*
X0151962Y0032884D02*
X0150110Y0032884D01*
X0150110Y0031650D02*
X0150110Y0035353D01*
X0151962Y0035353D01*
X0152579Y0034736D01*
X0152579Y0033502D01*
X0151962Y0032884D01*
X0153793Y0034119D02*
X0154411Y0033502D01*
X0155645Y0033502D01*
X0156262Y0032884D01*
X0156262Y0032267D01*
X0156262Y0034736D02*
X0155645Y0035353D01*
X0154411Y0035353D01*
X0153793Y0034736D01*
X0153793Y0034119D01*
X0227150Y0056650D02*
X0227150Y0058585D01*
X0228117Y0059552D01*
X0229085Y0058585D01*
X0229085Y0056650D01*
X0230097Y0056650D02*
X0230097Y0058585D01*
X0231548Y0058585D01*
X0232031Y0058101D01*
X0232031Y0056650D01*
X0233043Y0056650D02*
X0234978Y0056650D01*
X0234011Y0056650D02*
X0234011Y0059552D01*
X0233043Y0058585D01*
X0229085Y0058101D02*
X0227150Y0058101D01*
X0238936Y0058101D02*
X0240871Y0058101D01*
X0240871Y0058585D02*
X0240871Y0056650D01*
X0241883Y0056650D02*
X0241883Y0058585D01*
X0243334Y0058585D01*
X0243818Y0058101D01*
X0243818Y0056650D01*
X0244829Y0056650D02*
X0246764Y0058585D01*
X0246764Y0059069D01*
X0246280Y0059552D01*
X0245313Y0059552D01*
X0244829Y0059069D01*
X0244829Y0056650D02*
X0246764Y0056650D01*
X0250722Y0056650D02*
X0250722Y0058585D01*
X0251690Y0059552D01*
X0252657Y0058585D01*
X0252657Y0056650D01*
X0253669Y0056650D02*
X0253669Y0058585D01*
X0255120Y0058585D01*
X0255604Y0058101D01*
X0255604Y0056650D01*
X0256615Y0058101D02*
X0258550Y0058101D01*
X0258066Y0056650D02*
X0258066Y0059552D01*
X0256615Y0058101D01*
X0252657Y0058101D02*
X0250722Y0058101D01*
X0240871Y0058585D02*
X0239904Y0059552D01*
X0238936Y0058585D01*
X0238936Y0056650D01*
X0367150Y0236650D02*
X0367150Y0239552D01*
X0369085Y0236650D01*
X0369085Y0239552D01*
X0370580Y0238585D02*
X0371548Y0238585D01*
X0372031Y0238101D01*
X0372031Y0236650D01*
X0370580Y0236650D01*
X0370097Y0237134D01*
X0370580Y0237617D01*
X0372031Y0237617D01*
X0373043Y0238585D02*
X0374011Y0238585D01*
X0373527Y0239069D02*
X0373527Y0237134D01*
X0374011Y0236650D01*
X0375007Y0236650D02*
X0375007Y0239552D01*
X0375491Y0238585D02*
X0376459Y0238585D01*
X0376942Y0238101D01*
X0376942Y0236650D01*
X0377954Y0237134D02*
X0378438Y0237617D01*
X0379889Y0237617D01*
X0379889Y0238101D02*
X0379889Y0236650D01*
X0378438Y0236650D01*
X0377954Y0237134D01*
X0378438Y0238585D02*
X0379405Y0238585D01*
X0379889Y0238101D01*
X0380900Y0238585D02*
X0382352Y0238585D01*
X0382835Y0238101D01*
X0382835Y0236650D01*
X0380900Y0236650D02*
X0380900Y0238585D01*
X0386793Y0239552D02*
X0386793Y0237617D01*
X0387761Y0236650D01*
X0388728Y0237617D01*
X0388728Y0239552D01*
X0389740Y0238101D02*
X0391675Y0238101D01*
X0392686Y0237134D02*
X0393170Y0236650D01*
X0394138Y0236650D01*
X0394621Y0237134D01*
X0392686Y0237134D02*
X0392686Y0239069D01*
X0393170Y0239552D01*
X0394138Y0239552D01*
X0394621Y0239069D01*
X0398580Y0239069D02*
X0399063Y0239552D01*
X0400031Y0239552D01*
X0400515Y0239069D01*
X0400515Y0238585D01*
X0398580Y0236650D01*
X0400515Y0236650D01*
X0401526Y0237134D02*
X0403461Y0239069D01*
X0403461Y0237134D01*
X0402977Y0236650D01*
X0402010Y0236650D01*
X0401526Y0237134D01*
X0401526Y0239069D01*
X0402010Y0239552D01*
X0402977Y0239552D01*
X0403461Y0239069D01*
X0404473Y0238585D02*
X0405440Y0239552D01*
X0405440Y0236650D01*
X0404473Y0236650D02*
X0406408Y0236650D01*
X0407419Y0237134D02*
X0407903Y0236650D01*
X0408870Y0236650D01*
X0409354Y0237134D01*
X0409354Y0238101D01*
X0408870Y0238585D01*
X0408387Y0238585D01*
X0407419Y0238101D01*
X0407419Y0239552D01*
X0409354Y0239552D01*
X0375491Y0238585D02*
X0375007Y0238101D01*
D13*
X0417000Y0001500D02*
X0077000Y0001500D01*
X0077000Y0241500D01*
X0417000Y0241500D01*
X0417000Y0001500D01*
X0377000Y0079000D02*
X0377187Y0078757D01*
X0377379Y0078519D01*
X0377578Y0078286D01*
X0377782Y0078058D01*
X0377991Y0077835D01*
X0378206Y0077617D01*
X0378426Y0077404D01*
X0378651Y0077197D01*
X0378882Y0076995D01*
X0379117Y0076799D01*
X0379357Y0076609D01*
X0379601Y0076425D01*
X0379850Y0076247D01*
X0380104Y0076075D01*
X0380361Y0075909D01*
X0380622Y0075749D01*
X0380887Y0075596D01*
X0381156Y0075450D01*
X0381429Y0075310D01*
X0381704Y0075177D01*
X0381983Y0075051D01*
X0382265Y0074931D01*
X0382550Y0074819D01*
X0382837Y0074714D01*
X0383127Y0074615D01*
X0383419Y0074524D01*
X0383714Y0074440D01*
X0384010Y0074363D01*
X0384308Y0074293D01*
X0384608Y0074231D01*
X0384909Y0074176D01*
X0385211Y0074129D01*
X0385515Y0074089D01*
X0385819Y0074056D01*
X0386124Y0074031D01*
X0386430Y0074013D01*
X0386736Y0074003D01*
X0387042Y0074000D01*
X0387348Y0074005D01*
X0387654Y0074017D01*
X0387960Y0074037D01*
X0388264Y0074064D01*
X0388569Y0074099D01*
X0388872Y0074141D01*
X0389174Y0074190D01*
X0389475Y0074247D01*
X0389774Y0074312D01*
X0390072Y0074383D01*
X0390367Y0074462D01*
X0390661Y0074548D01*
X0390953Y0074641D01*
X0391242Y0074742D01*
X0391529Y0074849D01*
X0391813Y0074964D01*
X0392094Y0075085D01*
X0392372Y0075213D01*
X0392647Y0075348D01*
X0392918Y0075490D01*
X0393186Y0075638D01*
X0393450Y0075793D01*
X0393710Y0075954D01*
X0393966Y0076121D01*
X0394219Y0076295D01*
X0394466Y0076475D01*
X0394710Y0076661D01*
X0394948Y0076852D01*
X0395182Y0077050D01*
X0395411Y0077253D01*
X0395635Y0077462D01*
X0395854Y0077676D01*
X0396067Y0077896D01*
X0396275Y0078120D01*
X0396478Y0078350D01*
X0396674Y0078584D01*
X0396865Y0078824D01*
X0397050Y0079067D01*
X0397229Y0079316D01*
X0397402Y0079568D01*
X0397569Y0079825D01*
X0397729Y0080086D01*
X0397883Y0080351D01*
X0398030Y0080619D01*
X0398171Y0080891D01*
X0398305Y0081166D01*
X0398432Y0081445D01*
X0398553Y0081726D01*
X0398666Y0082011D01*
X0398772Y0082298D01*
X0398872Y0082587D01*
X0398964Y0082879D01*
X0399049Y0083173D01*
X0399127Y0083469D01*
X0399198Y0083767D01*
X0399261Y0084067D01*
X0399317Y0084368D01*
X0399365Y0084670D01*
X0399406Y0084973D01*
X0399440Y0085277D01*
X0399466Y0085582D01*
X0399485Y0085888D01*
X0399496Y0086194D01*
X0399500Y0086500D01*
X0399496Y0086806D01*
X0399485Y0087112D01*
X0399466Y0087418D01*
X0399440Y0087723D01*
X0399406Y0088027D01*
X0399365Y0088330D01*
X0399317Y0088632D01*
X0399261Y0088933D01*
X0399198Y0089233D01*
X0399127Y0089531D01*
X0399049Y0089827D01*
X0398964Y0090121D01*
X0398872Y0090413D01*
X0398772Y0090702D01*
X0398666Y0090989D01*
X0398553Y0091274D01*
X0398432Y0091555D01*
X0398305Y0091834D01*
X0398171Y0092109D01*
X0398030Y0092381D01*
X0397883Y0092649D01*
X0397729Y0092914D01*
X0397569Y0093175D01*
X0397402Y0093432D01*
X0397229Y0093684D01*
X0397050Y0093933D01*
X0396865Y0094176D01*
X0396674Y0094416D01*
X0396478Y0094650D01*
X0396275Y0094880D01*
X0396067Y0095104D01*
X0395854Y0095324D01*
X0395635Y0095538D01*
X0395411Y0095747D01*
X0395182Y0095950D01*
X0394948Y0096148D01*
X0394710Y0096339D01*
X0394466Y0096525D01*
X0394219Y0096705D01*
X0393966Y0096879D01*
X0393710Y0097046D01*
X0393450Y0097207D01*
X0393186Y0097362D01*
X0392918Y0097510D01*
X0392647Y0097652D01*
X0392372Y0097787D01*
X0392094Y0097915D01*
X0391813Y0098036D01*
X0391529Y0098151D01*
X0391242Y0098258D01*
X0390953Y0098359D01*
X0390661Y0098452D01*
X0390367Y0098538D01*
X0390072Y0098617D01*
X0389774Y0098688D01*
X0389475Y0098753D01*
X0389174Y0098810D01*
X0388872Y0098859D01*
X0388569Y0098901D01*
X0388264Y0098936D01*
X0387960Y0098963D01*
X0387654Y0098983D01*
X0387348Y0098995D01*
X0387042Y0099000D01*
X0386736Y0098997D01*
X0386430Y0098987D01*
X0386124Y0098969D01*
X0385819Y0098944D01*
X0385515Y0098911D01*
X0385211Y0098871D01*
X0384909Y0098824D01*
X0384608Y0098769D01*
X0384308Y0098707D01*
X0384010Y0098637D01*
X0383714Y0098560D01*
X0383419Y0098476D01*
X0383127Y0098385D01*
X0382837Y0098286D01*
X0382550Y0098181D01*
X0382265Y0098069D01*
X0381983Y0097949D01*
X0381704Y0097823D01*
X0381429Y0097690D01*
X0381156Y0097550D01*
X0380887Y0097404D01*
X0380622Y0097251D01*
X0380361Y0097091D01*
X0380104Y0096925D01*
X0379850Y0096753D01*
X0379601Y0096575D01*
X0379357Y0096391D01*
X0379117Y0096201D01*
X0378882Y0096005D01*
X0378651Y0095803D01*
X0378426Y0095596D01*
X0378206Y0095383D01*
X0377991Y0095165D01*
X0377782Y0094942D01*
X0377578Y0094714D01*
X0377379Y0094481D01*
X0377187Y0094243D01*
X0377000Y0094000D01*
X0377000Y0109000D02*
X0377187Y0108757D01*
X0377379Y0108519D01*
X0377578Y0108286D01*
X0377782Y0108058D01*
X0377991Y0107835D01*
X0378206Y0107617D01*
X0378426Y0107404D01*
X0378651Y0107197D01*
X0378882Y0106995D01*
X0379117Y0106799D01*
X0379357Y0106609D01*
X0379601Y0106425D01*
X0379850Y0106247D01*
X0380104Y0106075D01*
X0380361Y0105909D01*
X0380622Y0105749D01*
X0380887Y0105596D01*
X0381156Y0105450D01*
X0381429Y0105310D01*
X0381704Y0105177D01*
X0381983Y0105051D01*
X0382265Y0104931D01*
X0382550Y0104819D01*
X0382837Y0104714D01*
X0383127Y0104615D01*
X0383419Y0104524D01*
X0383714Y0104440D01*
X0384010Y0104363D01*
X0384308Y0104293D01*
X0384608Y0104231D01*
X0384909Y0104176D01*
X0385211Y0104129D01*
X0385515Y0104089D01*
X0385819Y0104056D01*
X0386124Y0104031D01*
X0386430Y0104013D01*
X0386736Y0104003D01*
X0387042Y0104000D01*
X0387348Y0104005D01*
X0387654Y0104017D01*
X0387960Y0104037D01*
X0388264Y0104064D01*
X0388569Y0104099D01*
X0388872Y0104141D01*
X0389174Y0104190D01*
X0389475Y0104247D01*
X0389774Y0104312D01*
X0390072Y0104383D01*
X0390367Y0104462D01*
X0390661Y0104548D01*
X0390953Y0104641D01*
X0391242Y0104742D01*
X0391529Y0104849D01*
X0391813Y0104964D01*
X0392094Y0105085D01*
X0392372Y0105213D01*
X0392647Y0105348D01*
X0392918Y0105490D01*
X0393186Y0105638D01*
X0393450Y0105793D01*
X0393710Y0105954D01*
X0393966Y0106121D01*
X0394219Y0106295D01*
X0394466Y0106475D01*
X0394710Y0106661D01*
X0394948Y0106852D01*
X0395182Y0107050D01*
X0395411Y0107253D01*
X0395635Y0107462D01*
X0395854Y0107676D01*
X0396067Y0107896D01*
X0396275Y0108120D01*
X0396478Y0108350D01*
X0396674Y0108584D01*
X0396865Y0108824D01*
X0397050Y0109067D01*
X0397229Y0109316D01*
X0397402Y0109568D01*
X0397569Y0109825D01*
X0397729Y0110086D01*
X0397883Y0110351D01*
X0398030Y0110619D01*
X0398171Y0110891D01*
X0398305Y0111166D01*
X0398432Y0111445D01*
X0398553Y0111726D01*
X0398666Y0112011D01*
X0398772Y0112298D01*
X0398872Y0112587D01*
X0398964Y0112879D01*
X0399049Y0113173D01*
X0399127Y0113469D01*
X0399198Y0113767D01*
X0399261Y0114067D01*
X0399317Y0114368D01*
X0399365Y0114670D01*
X0399406Y0114973D01*
X0399440Y0115277D01*
X0399466Y0115582D01*
X0399485Y0115888D01*
X0399496Y0116194D01*
X0399500Y0116500D01*
X0399496Y0116806D01*
X0399485Y0117112D01*
X0399466Y0117418D01*
X0399440Y0117723D01*
X0399406Y0118027D01*
X0399365Y0118330D01*
X0399317Y0118632D01*
X0399261Y0118933D01*
X0399198Y0119233D01*
X0399127Y0119531D01*
X0399049Y0119827D01*
X0398964Y0120121D01*
X0398872Y0120413D01*
X0398772Y0120702D01*
X0398666Y0120989D01*
X0398553Y0121274D01*
X0398432Y0121555D01*
X0398305Y0121834D01*
X0398171Y0122109D01*
X0398030Y0122381D01*
X0397883Y0122649D01*
X0397729Y0122914D01*
X0397569Y0123175D01*
X0397402Y0123432D01*
X0397229Y0123684D01*
X0397050Y0123933D01*
X0396865Y0124176D01*
X0396674Y0124416D01*
X0396478Y0124650D01*
X0396275Y0124880D01*
X0396067Y0125104D01*
X0395854Y0125324D01*
X0395635Y0125538D01*
X0395411Y0125747D01*
X0395182Y0125950D01*
X0394948Y0126148D01*
X0394710Y0126339D01*
X0394466Y0126525D01*
X0394219Y0126705D01*
X0393966Y0126879D01*
X0393710Y0127046D01*
X0393450Y0127207D01*
X0393186Y0127362D01*
X0392918Y0127510D01*
X0392647Y0127652D01*
X0392372Y0127787D01*
X0392094Y0127915D01*
X0391813Y0128036D01*
X0391529Y0128151D01*
X0391242Y0128258D01*
X0390953Y0128359D01*
X0390661Y0128452D01*
X0390367Y0128538D01*
X0390072Y0128617D01*
X0389774Y0128688D01*
X0389475Y0128753D01*
X0389174Y0128810D01*
X0388872Y0128859D01*
X0388569Y0128901D01*
X0388264Y0128936D01*
X0387960Y0128963D01*
X0387654Y0128983D01*
X0387348Y0128995D01*
X0387042Y0129000D01*
X0386736Y0128997D01*
X0386430Y0128987D01*
X0386124Y0128969D01*
X0385819Y0128944D01*
X0385515Y0128911D01*
X0385211Y0128871D01*
X0384909Y0128824D01*
X0384608Y0128769D01*
X0384308Y0128707D01*
X0384010Y0128637D01*
X0383714Y0128560D01*
X0383419Y0128476D01*
X0383127Y0128385D01*
X0382837Y0128286D01*
X0382550Y0128181D01*
X0382265Y0128069D01*
X0381983Y0127949D01*
X0381704Y0127823D01*
X0381429Y0127690D01*
X0381156Y0127550D01*
X0380887Y0127404D01*
X0380622Y0127251D01*
X0380361Y0127091D01*
X0380104Y0126925D01*
X0379850Y0126753D01*
X0379601Y0126575D01*
X0379357Y0126391D01*
X0379117Y0126201D01*
X0378882Y0126005D01*
X0378651Y0125803D01*
X0378426Y0125596D01*
X0378206Y0125383D01*
X0377991Y0125165D01*
X0377782Y0124942D01*
X0377578Y0124714D01*
X0377379Y0124481D01*
X0377187Y0124243D01*
X0377000Y0124000D01*
X0377000Y0139000D02*
X0377187Y0138757D01*
X0377379Y0138519D01*
X0377578Y0138286D01*
X0377782Y0138058D01*
X0377991Y0137835D01*
X0378206Y0137617D01*
X0378426Y0137404D01*
X0378651Y0137197D01*
X0378882Y0136995D01*
X0379117Y0136799D01*
X0379357Y0136609D01*
X0379601Y0136425D01*
X0379850Y0136247D01*
X0380104Y0136075D01*
X0380361Y0135909D01*
X0380622Y0135749D01*
X0380887Y0135596D01*
X0381156Y0135450D01*
X0381429Y0135310D01*
X0381704Y0135177D01*
X0381983Y0135051D01*
X0382265Y0134931D01*
X0382550Y0134819D01*
X0382837Y0134714D01*
X0383127Y0134615D01*
X0383419Y0134524D01*
X0383714Y0134440D01*
X0384010Y0134363D01*
X0384308Y0134293D01*
X0384608Y0134231D01*
X0384909Y0134176D01*
X0385211Y0134129D01*
X0385515Y0134089D01*
X0385819Y0134056D01*
X0386124Y0134031D01*
X0386430Y0134013D01*
X0386736Y0134003D01*
X0387042Y0134000D01*
X0387348Y0134005D01*
X0387654Y0134017D01*
X0387960Y0134037D01*
X0388264Y0134064D01*
X0388569Y0134099D01*
X0388872Y0134141D01*
X0389174Y0134190D01*
X0389475Y0134247D01*
X0389774Y0134312D01*
X0390072Y0134383D01*
X0390367Y0134462D01*
X0390661Y0134548D01*
X0390953Y0134641D01*
X0391242Y0134742D01*
X0391529Y0134849D01*
X0391813Y0134964D01*
X0392094Y0135085D01*
X0392372Y0135213D01*
X0392647Y0135348D01*
X0392918Y0135490D01*
X0393186Y0135638D01*
X0393450Y0135793D01*
X0393710Y0135954D01*
X0393966Y0136121D01*
X0394219Y0136295D01*
X0394466Y0136475D01*
X0394710Y0136661D01*
X0394948Y0136852D01*
X0395182Y0137050D01*
X0395411Y0137253D01*
X0395635Y0137462D01*
X0395854Y0137676D01*
X0396067Y0137896D01*
X0396275Y0138120D01*
X0396478Y0138350D01*
X0396674Y0138584D01*
X0396865Y0138824D01*
X0397050Y0139067D01*
X0397229Y0139316D01*
X0397402Y0139568D01*
X0397569Y0139825D01*
X0397729Y0140086D01*
X0397883Y0140351D01*
X0398030Y0140619D01*
X0398171Y0140891D01*
X0398305Y0141166D01*
X0398432Y0141445D01*
X0398553Y0141726D01*
X0398666Y0142011D01*
X0398772Y0142298D01*
X0398872Y0142587D01*
X0398964Y0142879D01*
X0399049Y0143173D01*
X0399127Y0143469D01*
X0399198Y0143767D01*
X0399261Y0144067D01*
X0399317Y0144368D01*
X0399365Y0144670D01*
X0399406Y0144973D01*
X0399440Y0145277D01*
X0399466Y0145582D01*
X0399485Y0145888D01*
X0399496Y0146194D01*
X0399500Y0146500D01*
X0399496Y0146806D01*
X0399485Y0147112D01*
X0399466Y0147418D01*
X0399440Y0147723D01*
X0399406Y0148027D01*
X0399365Y0148330D01*
X0399317Y0148632D01*
X0399261Y0148933D01*
X0399198Y0149233D01*
X0399127Y0149531D01*
X0399049Y0149827D01*
X0398964Y0150121D01*
X0398872Y0150413D01*
X0398772Y0150702D01*
X0398666Y0150989D01*
X0398553Y0151274D01*
X0398432Y0151555D01*
X0398305Y0151834D01*
X0398171Y0152109D01*
X0398030Y0152381D01*
X0397883Y0152649D01*
X0397729Y0152914D01*
X0397569Y0153175D01*
X0397402Y0153432D01*
X0397229Y0153684D01*
X0397050Y0153933D01*
X0396865Y0154176D01*
X0396674Y0154416D01*
X0396478Y0154650D01*
X0396275Y0154880D01*
X0396067Y0155104D01*
X0395854Y0155324D01*
X0395635Y0155538D01*
X0395411Y0155747D01*
X0395182Y0155950D01*
X0394948Y0156148D01*
X0394710Y0156339D01*
X0394466Y0156525D01*
X0394219Y0156705D01*
X0393966Y0156879D01*
X0393710Y0157046D01*
X0393450Y0157207D01*
X0393186Y0157362D01*
X0392918Y0157510D01*
X0392647Y0157652D01*
X0392372Y0157787D01*
X0392094Y0157915D01*
X0391813Y0158036D01*
X0391529Y0158151D01*
X0391242Y0158258D01*
X0390953Y0158359D01*
X0390661Y0158452D01*
X0390367Y0158538D01*
X0390072Y0158617D01*
X0389774Y0158688D01*
X0389475Y0158753D01*
X0389174Y0158810D01*
X0388872Y0158859D01*
X0388569Y0158901D01*
X0388264Y0158936D01*
X0387960Y0158963D01*
X0387654Y0158983D01*
X0387348Y0158995D01*
X0387042Y0159000D01*
X0386736Y0158997D01*
X0386430Y0158987D01*
X0386124Y0158969D01*
X0385819Y0158944D01*
X0385515Y0158911D01*
X0385211Y0158871D01*
X0384909Y0158824D01*
X0384608Y0158769D01*
X0384308Y0158707D01*
X0384010Y0158637D01*
X0383714Y0158560D01*
X0383419Y0158476D01*
X0383127Y0158385D01*
X0382837Y0158286D01*
X0382550Y0158181D01*
X0382265Y0158069D01*
X0381983Y0157949D01*
X0381704Y0157823D01*
X0381429Y0157690D01*
X0381156Y0157550D01*
X0380887Y0157404D01*
X0380622Y0157251D01*
X0380361Y0157091D01*
X0380104Y0156925D01*
X0379850Y0156753D01*
X0379601Y0156575D01*
X0379357Y0156391D01*
X0379117Y0156201D01*
X0378882Y0156005D01*
X0378651Y0155803D01*
X0378426Y0155596D01*
X0378206Y0155383D01*
X0377991Y0155165D01*
X0377782Y0154942D01*
X0377578Y0154714D01*
X0377379Y0154481D01*
X0377187Y0154243D01*
X0377000Y0154000D01*
X0377000Y0169000D02*
X0377187Y0168757D01*
X0377379Y0168519D01*
X0377578Y0168286D01*
X0377782Y0168058D01*
X0377991Y0167835D01*
X0378206Y0167617D01*
X0378426Y0167404D01*
X0378651Y0167197D01*
X0378882Y0166995D01*
X0379117Y0166799D01*
X0379357Y0166609D01*
X0379601Y0166425D01*
X0379850Y0166247D01*
X0380104Y0166075D01*
X0380361Y0165909D01*
X0380622Y0165749D01*
X0380887Y0165596D01*
X0381156Y0165450D01*
X0381429Y0165310D01*
X0381704Y0165177D01*
X0381983Y0165051D01*
X0382265Y0164931D01*
X0382550Y0164819D01*
X0382837Y0164714D01*
X0383127Y0164615D01*
X0383419Y0164524D01*
X0383714Y0164440D01*
X0384010Y0164363D01*
X0384308Y0164293D01*
X0384608Y0164231D01*
X0384909Y0164176D01*
X0385211Y0164129D01*
X0385515Y0164089D01*
X0385819Y0164056D01*
X0386124Y0164031D01*
X0386430Y0164013D01*
X0386736Y0164003D01*
X0387042Y0164000D01*
X0387348Y0164005D01*
X0387654Y0164017D01*
X0387960Y0164037D01*
X0388264Y0164064D01*
X0388569Y0164099D01*
X0388872Y0164141D01*
X0389174Y0164190D01*
X0389475Y0164247D01*
X0389774Y0164312D01*
X0390072Y0164383D01*
X0390367Y0164462D01*
X0390661Y0164548D01*
X0390953Y0164641D01*
X0391242Y0164742D01*
X0391529Y0164849D01*
X0391813Y0164964D01*
X0392094Y0165085D01*
X0392372Y0165213D01*
X0392647Y0165348D01*
X0392918Y0165490D01*
X0393186Y0165638D01*
X0393450Y0165793D01*
X0393710Y0165954D01*
X0393966Y0166121D01*
X0394219Y0166295D01*
X0394466Y0166475D01*
X0394710Y0166661D01*
X0394948Y0166852D01*
X0395182Y0167050D01*
X0395411Y0167253D01*
X0395635Y0167462D01*
X0395854Y0167676D01*
X0396067Y0167896D01*
X0396275Y0168120D01*
X0396478Y0168350D01*
X0396674Y0168584D01*
X0396865Y0168824D01*
X0397050Y0169067D01*
X0397229Y0169316D01*
X0397402Y0169568D01*
X0397569Y0169825D01*
X0397729Y0170086D01*
X0397883Y0170351D01*
X0398030Y0170619D01*
X0398171Y0170891D01*
X0398305Y0171166D01*
X0398432Y0171445D01*
X0398553Y0171726D01*
X0398666Y0172011D01*
X0398772Y0172298D01*
X0398872Y0172587D01*
X0398964Y0172879D01*
X0399049Y0173173D01*
X0399127Y0173469D01*
X0399198Y0173767D01*
X0399261Y0174067D01*
X0399317Y0174368D01*
X0399365Y0174670D01*
X0399406Y0174973D01*
X0399440Y0175277D01*
X0399466Y0175582D01*
X0399485Y0175888D01*
X0399496Y0176194D01*
X0399500Y0176500D01*
X0399496Y0176806D01*
X0399485Y0177112D01*
X0399466Y0177418D01*
X0399440Y0177723D01*
X0399406Y0178027D01*
X0399365Y0178330D01*
X0399317Y0178632D01*
X0399261Y0178933D01*
X0399198Y0179233D01*
X0399127Y0179531D01*
X0399049Y0179827D01*
X0398964Y0180121D01*
X0398872Y0180413D01*
X0398772Y0180702D01*
X0398666Y0180989D01*
X0398553Y0181274D01*
X0398432Y0181555D01*
X0398305Y0181834D01*
X0398171Y0182109D01*
X0398030Y0182381D01*
X0397883Y0182649D01*
X0397729Y0182914D01*
X0397569Y0183175D01*
X0397402Y0183432D01*
X0397229Y0183684D01*
X0397050Y0183933D01*
X0396865Y0184176D01*
X0396674Y0184416D01*
X0396478Y0184650D01*
X0396275Y0184880D01*
X0396067Y0185104D01*
X0395854Y0185324D01*
X0395635Y0185538D01*
X0395411Y0185747D01*
X0395182Y0185950D01*
X0394948Y0186148D01*
X0394710Y0186339D01*
X0394466Y0186525D01*
X0394219Y0186705D01*
X0393966Y0186879D01*
X0393710Y0187046D01*
X0393450Y0187207D01*
X0393186Y0187362D01*
X0392918Y0187510D01*
X0392647Y0187652D01*
X0392372Y0187787D01*
X0392094Y0187915D01*
X0391813Y0188036D01*
X0391529Y0188151D01*
X0391242Y0188258D01*
X0390953Y0188359D01*
X0390661Y0188452D01*
X0390367Y0188538D01*
X0390072Y0188617D01*
X0389774Y0188688D01*
X0389475Y0188753D01*
X0389174Y0188810D01*
X0388872Y0188859D01*
X0388569Y0188901D01*
X0388264Y0188936D01*
X0387960Y0188963D01*
X0387654Y0188983D01*
X0387348Y0188995D01*
X0387042Y0189000D01*
X0386736Y0188997D01*
X0386430Y0188987D01*
X0386124Y0188969D01*
X0385819Y0188944D01*
X0385515Y0188911D01*
X0385211Y0188871D01*
X0384909Y0188824D01*
X0384608Y0188769D01*
X0384308Y0188707D01*
X0384010Y0188637D01*
X0383714Y0188560D01*
X0383419Y0188476D01*
X0383127Y0188385D01*
X0382837Y0188286D01*
X0382550Y0188181D01*
X0382265Y0188069D01*
X0381983Y0187949D01*
X0381704Y0187823D01*
X0381429Y0187690D01*
X0381156Y0187550D01*
X0380887Y0187404D01*
X0380622Y0187251D01*
X0380361Y0187091D01*
X0380104Y0186925D01*
X0379850Y0186753D01*
X0379601Y0186575D01*
X0379357Y0186391D01*
X0379117Y0186201D01*
X0378882Y0186005D01*
X0378651Y0185803D01*
X0378426Y0185596D01*
X0378206Y0185383D01*
X0377991Y0185165D01*
X0377782Y0184942D01*
X0377578Y0184714D01*
X0377379Y0184481D01*
X0377187Y0184243D01*
X0377000Y0184000D01*
D14*
X0404746Y0181547D02*
X0409250Y0181547D01*
X0409250Y0180046D02*
X0409250Y0183049D01*
X0406247Y0180046D02*
X0404746Y0181547D01*
X0404746Y0178445D02*
X0404746Y0175442D01*
X0404746Y0176943D02*
X0409250Y0176943D01*
X0408499Y0173841D02*
X0409250Y0173090D01*
X0409250Y0171589D01*
X0408499Y0170838D01*
X0406998Y0171589D02*
X0406998Y0173090D01*
X0407749Y0173841D01*
X0408499Y0173841D01*
X0406998Y0171589D02*
X0406247Y0170838D01*
X0405497Y0170838D01*
X0404746Y0171589D01*
X0404746Y0173090D01*
X0405497Y0173841D01*
X0404746Y0169237D02*
X0404746Y0166234D01*
X0404746Y0167736D02*
X0409250Y0167736D01*
X0409250Y0153049D02*
X0409250Y0150046D01*
X0406247Y0153049D01*
X0405497Y0153049D01*
X0404746Y0152298D01*
X0404746Y0150797D01*
X0405497Y0150046D01*
X0404746Y0148445D02*
X0404746Y0145442D01*
X0404746Y0146943D02*
X0409250Y0146943D01*
X0408499Y0143841D02*
X0409250Y0143090D01*
X0409250Y0141589D01*
X0408499Y0140838D01*
X0406998Y0141589D02*
X0406247Y0140838D01*
X0405497Y0140838D01*
X0404746Y0141589D01*
X0404746Y0143090D01*
X0405497Y0143841D01*
X0406998Y0143090D02*
X0407749Y0143841D01*
X0408499Y0143841D01*
X0406998Y0143090D02*
X0406998Y0141589D01*
X0404746Y0139237D02*
X0404746Y0136234D01*
X0404746Y0137736D02*
X0409250Y0137736D01*
X0409250Y0118049D02*
X0409250Y0115046D01*
X0404746Y0115046D01*
X0404746Y0113445D02*
X0404746Y0110442D01*
X0409250Y0110442D01*
X0406998Y0110442D02*
X0406998Y0111943D01*
X0404746Y0093049D02*
X0407749Y0090046D01*
X0406998Y0090797D02*
X0409250Y0093049D01*
X0409250Y0090046D02*
X0404746Y0090046D01*
X0405497Y0088445D02*
X0404746Y0087694D01*
X0404746Y0086193D01*
X0405497Y0085442D01*
X0408499Y0085442D01*
X0409250Y0086193D01*
X0409250Y0087694D01*
X0408499Y0088445D01*
X0409250Y0083841D02*
X0409250Y0080838D01*
X0404746Y0080838D01*
X0346685Y0041185D02*
X0309283Y0041185D01*
X0313220Y0037248D02*
X0317157Y0037248D01*
X0317157Y0036067D01*
X0317158Y0036067D02*
X0317160Y0036013D01*
X0317165Y0035960D01*
X0317174Y0035907D01*
X0317187Y0035855D01*
X0317203Y0035803D01*
X0317223Y0035753D01*
X0317246Y0035705D01*
X0317273Y0035658D01*
X0317302Y0035613D01*
X0317335Y0035570D01*
X0317370Y0035530D01*
X0317408Y0035492D01*
X0317448Y0035457D01*
X0317491Y0035424D01*
X0317536Y0035395D01*
X0317583Y0035368D01*
X0317631Y0035345D01*
X0317681Y0035325D01*
X0317733Y0035309D01*
X0317785Y0035296D01*
X0317838Y0035287D01*
X0317891Y0035282D01*
X0317945Y0035280D01*
X0318339Y0035280D01*
X0318393Y0035282D01*
X0318446Y0035287D01*
X0318499Y0035296D01*
X0318551Y0035309D01*
X0318603Y0035325D01*
X0318653Y0035345D01*
X0318701Y0035368D01*
X0318748Y0035395D01*
X0318793Y0035424D01*
X0318836Y0035457D01*
X0318876Y0035492D01*
X0318914Y0035530D01*
X0318949Y0035570D01*
X0318982Y0035613D01*
X0319011Y0035658D01*
X0319038Y0035705D01*
X0319061Y0035753D01*
X0319081Y0035803D01*
X0319097Y0035855D01*
X0319110Y0035907D01*
X0319119Y0035960D01*
X0319124Y0036013D01*
X0319126Y0036067D01*
X0319126Y0037248D01*
X0334874Y0037248D01*
X0334874Y0036067D01*
X0334876Y0036013D01*
X0334881Y0035960D01*
X0334890Y0035907D01*
X0334903Y0035855D01*
X0334919Y0035803D01*
X0334939Y0035753D01*
X0334962Y0035705D01*
X0334989Y0035658D01*
X0335018Y0035613D01*
X0335051Y0035570D01*
X0335086Y0035530D01*
X0335124Y0035492D01*
X0335164Y0035457D01*
X0335207Y0035424D01*
X0335252Y0035395D01*
X0335299Y0035368D01*
X0335347Y0035345D01*
X0335397Y0035325D01*
X0335449Y0035309D01*
X0335501Y0035296D01*
X0335554Y0035287D01*
X0335607Y0035282D01*
X0335661Y0035280D01*
X0336055Y0035280D01*
X0336109Y0035282D01*
X0336162Y0035287D01*
X0336215Y0035296D01*
X0336267Y0035309D01*
X0336319Y0035325D01*
X0336369Y0035345D01*
X0336417Y0035368D01*
X0336464Y0035395D01*
X0336509Y0035424D01*
X0336552Y0035457D01*
X0336592Y0035492D01*
X0336630Y0035530D01*
X0336665Y0035570D01*
X0336698Y0035613D01*
X0336727Y0035658D01*
X0336754Y0035705D01*
X0336777Y0035753D01*
X0336797Y0035803D01*
X0336813Y0035855D01*
X0336826Y0035907D01*
X0336835Y0035960D01*
X0336840Y0036013D01*
X0336842Y0036067D01*
X0336843Y0036067D02*
X0336843Y0037248D01*
X0340780Y0037248D01*
X0342748Y0035280D01*
X0342748Y0033311D01*
X0342750Y0033225D01*
X0342755Y0033139D01*
X0342765Y0033054D01*
X0342778Y0032969D01*
X0342795Y0032885D01*
X0342815Y0032801D01*
X0342839Y0032719D01*
X0342867Y0032638D01*
X0342898Y0032557D01*
X0342932Y0032479D01*
X0342970Y0032402D01*
X0343012Y0032327D01*
X0343056Y0032253D01*
X0343104Y0032182D01*
X0343155Y0032112D01*
X0343209Y0032045D01*
X0343265Y0031981D01*
X0343325Y0031919D01*
X0343387Y0031859D01*
X0343451Y0031803D01*
X0343518Y0031749D01*
X0343588Y0031698D01*
X0343659Y0031650D01*
X0343733Y0031606D01*
X0343808Y0031564D01*
X0343885Y0031526D01*
X0343963Y0031492D01*
X0344044Y0031461D01*
X0344125Y0031433D01*
X0344207Y0031409D01*
X0344291Y0031389D01*
X0344375Y0031372D01*
X0344460Y0031359D01*
X0344545Y0031349D01*
X0344631Y0031344D01*
X0344717Y0031342D01*
X0344717Y0031343D02*
X0346685Y0031343D01*
X0346685Y0031342D02*
X0346771Y0031344D01*
X0346857Y0031349D01*
X0346942Y0031359D01*
X0347027Y0031372D01*
X0347111Y0031389D01*
X0347195Y0031409D01*
X0347277Y0031433D01*
X0347358Y0031461D01*
X0347439Y0031492D01*
X0347517Y0031526D01*
X0347594Y0031564D01*
X0347670Y0031606D01*
X0347743Y0031650D01*
X0347814Y0031698D01*
X0347884Y0031749D01*
X0347951Y0031803D01*
X0348015Y0031859D01*
X0348077Y0031919D01*
X0348137Y0031981D01*
X0348193Y0032045D01*
X0348247Y0032112D01*
X0348298Y0032182D01*
X0348346Y0032253D01*
X0348390Y0032326D01*
X0348432Y0032402D01*
X0348470Y0032479D01*
X0348504Y0032557D01*
X0348535Y0032638D01*
X0348563Y0032719D01*
X0348587Y0032801D01*
X0348607Y0032885D01*
X0348624Y0032969D01*
X0348637Y0033054D01*
X0348647Y0033139D01*
X0348652Y0033225D01*
X0348654Y0033311D01*
X0348654Y0035280D01*
X0350622Y0037248D01*
X0352591Y0037248D01*
X0352591Y0001815D01*
X0356528Y0001815D01*
X0356528Y0011657D01*
X0358496Y0011657D01*
X0358496Y0015594D01*
X0356528Y0015594D01*
X0356528Y0037248D01*
X0352591Y0037248D01*
X0348155Y0025240D02*
X0347762Y0025240D01*
X0347708Y0025238D01*
X0347655Y0025233D01*
X0347602Y0025224D01*
X0347550Y0025211D01*
X0347499Y0025195D01*
X0347450Y0025175D01*
X0347401Y0025152D01*
X0347354Y0025126D01*
X0347310Y0025097D01*
X0347267Y0025065D01*
X0347226Y0025030D01*
X0347188Y0024992D01*
X0347153Y0024952D01*
X0347121Y0024909D01*
X0347091Y0024864D01*
X0347065Y0024818D01*
X0347042Y0024770D01*
X0347022Y0024720D01*
X0347005Y0024669D01*
X0346992Y0024617D01*
X0346983Y0024564D01*
X0346982Y0024564D02*
X0346094Y0018350D01*
X0346094Y0013429D01*
X0342157Y0013429D01*
X0342157Y0010476D01*
X0346094Y0010476D01*
X0346094Y0013429D01*
X0346094Y0010476D02*
X0346094Y0009492D01*
X0342157Y0009492D01*
X0342157Y0007524D01*
X0346094Y0007524D01*
X0346094Y0009492D01*
X0346094Y0007524D02*
X0346094Y0006539D01*
X0346094Y0004570D02*
X0346180Y0004572D01*
X0346266Y0004577D01*
X0346351Y0004587D01*
X0346436Y0004600D01*
X0346520Y0004617D01*
X0346604Y0004637D01*
X0346686Y0004661D01*
X0346767Y0004689D01*
X0346848Y0004720D01*
X0346926Y0004754D01*
X0347003Y0004792D01*
X0347079Y0004834D01*
X0347152Y0004878D01*
X0347223Y0004926D01*
X0347293Y0004977D01*
X0347360Y0005031D01*
X0347424Y0005087D01*
X0347486Y0005147D01*
X0347546Y0005209D01*
X0347602Y0005273D01*
X0347656Y0005340D01*
X0347707Y0005410D01*
X0347755Y0005481D01*
X0347799Y0005554D01*
X0347841Y0005630D01*
X0347879Y0005707D01*
X0347913Y0005785D01*
X0347944Y0005866D01*
X0347972Y0005947D01*
X0347996Y0006029D01*
X0348016Y0006113D01*
X0348033Y0006197D01*
X0348046Y0006282D01*
X0348056Y0006367D01*
X0348061Y0006453D01*
X0348063Y0006539D01*
X0348063Y0017366D01*
X0348937Y0024355D01*
X0348936Y0024355D02*
X0348941Y0024409D01*
X0348942Y0024462D01*
X0348940Y0024515D01*
X0348934Y0024568D01*
X0348924Y0024621D01*
X0348911Y0024672D01*
X0348894Y0024723D01*
X0348874Y0024773D01*
X0348851Y0024821D01*
X0348824Y0024867D01*
X0348795Y0024911D01*
X0348762Y0024954D01*
X0348727Y0024994D01*
X0348689Y0025031D01*
X0348649Y0025066D01*
X0348606Y0025098D01*
X0348561Y0025127D01*
X0348515Y0025153D01*
X0348466Y0025176D01*
X0348417Y0025195D01*
X0348366Y0025211D01*
X0348314Y0025224D01*
X0348261Y0025233D01*
X0348208Y0025238D01*
X0348155Y0025240D01*
X0346685Y0023272D02*
X0341567Y0023272D01*
X0341270Y0024564D02*
X0342157Y0018350D01*
X0342157Y0013429D01*
X0342157Y0010476D02*
X0342157Y0009492D01*
X0342157Y0007524D02*
X0342157Y0006539D01*
X0340188Y0006539D02*
X0340190Y0006453D01*
X0340195Y0006367D01*
X0340205Y0006282D01*
X0340218Y0006197D01*
X0340235Y0006113D01*
X0340255Y0006029D01*
X0340279Y0005947D01*
X0340307Y0005866D01*
X0340338Y0005785D01*
X0340372Y0005707D01*
X0340410Y0005630D01*
X0340452Y0005555D01*
X0340496Y0005481D01*
X0340544Y0005410D01*
X0340595Y0005340D01*
X0340649Y0005273D01*
X0340705Y0005209D01*
X0340765Y0005147D01*
X0340827Y0005087D01*
X0340891Y0005031D01*
X0340958Y0004977D01*
X0341028Y0004926D01*
X0341099Y0004878D01*
X0341173Y0004834D01*
X0341248Y0004792D01*
X0341325Y0004754D01*
X0341403Y0004720D01*
X0341484Y0004689D01*
X0341565Y0004661D01*
X0341647Y0004637D01*
X0341731Y0004617D01*
X0341815Y0004600D01*
X0341900Y0004587D01*
X0341985Y0004577D01*
X0342071Y0004572D01*
X0342157Y0004570D01*
X0342157Y0004571D02*
X0346094Y0004571D01*
X0346094Y0006539D02*
X0342157Y0006539D01*
X0340189Y0006539D02*
X0340189Y0017366D01*
X0339315Y0024355D01*
X0339316Y0024355D02*
X0339311Y0024409D01*
X0339310Y0024462D01*
X0339312Y0024515D01*
X0339318Y0024568D01*
X0339328Y0024621D01*
X0339341Y0024672D01*
X0339358Y0024723D01*
X0339378Y0024773D01*
X0339401Y0024821D01*
X0339428Y0024867D01*
X0339457Y0024911D01*
X0339490Y0024954D01*
X0339525Y0024994D01*
X0339563Y0025031D01*
X0339603Y0025066D01*
X0339646Y0025098D01*
X0339691Y0025127D01*
X0339737Y0025153D01*
X0339786Y0025176D01*
X0339835Y0025195D01*
X0339886Y0025211D01*
X0339938Y0025224D01*
X0339991Y0025233D01*
X0340044Y0025238D01*
X0340097Y0025240D01*
X0340490Y0025240D01*
X0340544Y0025238D01*
X0340597Y0025233D01*
X0340650Y0025224D01*
X0340702Y0025211D01*
X0340753Y0025195D01*
X0340802Y0025175D01*
X0340851Y0025152D01*
X0340898Y0025126D01*
X0340942Y0025097D01*
X0340985Y0025065D01*
X0341026Y0025030D01*
X0341064Y0024992D01*
X0341099Y0024952D01*
X0341131Y0024909D01*
X0341161Y0024864D01*
X0341187Y0024818D01*
X0341210Y0024770D01*
X0341230Y0024720D01*
X0341247Y0024669D01*
X0341260Y0024617D01*
X0341269Y0024564D01*
X0356528Y0015594D02*
X0356528Y0011657D01*
X0352591Y0001815D02*
X0301409Y0001815D01*
X0301409Y0037248D01*
X0297472Y0037248D01*
X0297472Y0015594D01*
X0295504Y0015594D01*
X0295504Y0011657D01*
X0297472Y0011657D01*
X0297472Y0001815D01*
X0301409Y0001815D01*
X0308299Y0004768D02*
X0312236Y0004768D01*
X0312236Y0006736D02*
X0308299Y0006736D01*
X0306330Y0006736D02*
X0306332Y0006650D01*
X0306337Y0006564D01*
X0306347Y0006479D01*
X0306360Y0006394D01*
X0306377Y0006310D01*
X0306397Y0006226D01*
X0306421Y0006144D01*
X0306449Y0006063D01*
X0306480Y0005982D01*
X0306514Y0005904D01*
X0306552Y0005827D01*
X0306594Y0005752D01*
X0306638Y0005678D01*
X0306686Y0005607D01*
X0306737Y0005537D01*
X0306791Y0005470D01*
X0306847Y0005406D01*
X0306907Y0005344D01*
X0306969Y0005284D01*
X0307033Y0005228D01*
X0307100Y0005174D01*
X0307170Y0005123D01*
X0307241Y0005075D01*
X0307315Y0005031D01*
X0307390Y0004989D01*
X0307467Y0004951D01*
X0307545Y0004917D01*
X0307626Y0004886D01*
X0307707Y0004858D01*
X0307789Y0004834D01*
X0307873Y0004814D01*
X0307957Y0004797D01*
X0308042Y0004784D01*
X0308127Y0004774D01*
X0308213Y0004769D01*
X0308299Y0004767D01*
X0308299Y0006736D02*
X0308299Y0007720D01*
X0312236Y0007720D01*
X0312236Y0009689D01*
X0308299Y0009689D01*
X0308299Y0007720D01*
X0308299Y0009689D02*
X0308299Y0010673D01*
X0312236Y0010673D01*
X0312236Y0013626D01*
X0308299Y0013626D01*
X0308299Y0010673D01*
X0308299Y0013626D02*
X0308299Y0018547D01*
X0307412Y0024761D01*
X0307411Y0024761D02*
X0307402Y0024814D01*
X0307389Y0024866D01*
X0307372Y0024917D01*
X0307352Y0024967D01*
X0307329Y0025015D01*
X0307303Y0025061D01*
X0307273Y0025106D01*
X0307241Y0025149D01*
X0307206Y0025189D01*
X0307168Y0025227D01*
X0307127Y0025262D01*
X0307084Y0025294D01*
X0307040Y0025323D01*
X0306993Y0025349D01*
X0306944Y0025372D01*
X0306895Y0025392D01*
X0306844Y0025408D01*
X0306792Y0025421D01*
X0306739Y0025430D01*
X0306686Y0025435D01*
X0306632Y0025437D01*
X0306238Y0025437D01*
X0306185Y0025435D01*
X0306132Y0025430D01*
X0306079Y0025421D01*
X0306027Y0025408D01*
X0305976Y0025392D01*
X0305927Y0025373D01*
X0305878Y0025350D01*
X0305832Y0025324D01*
X0305787Y0025295D01*
X0305744Y0025263D01*
X0305704Y0025228D01*
X0305666Y0025191D01*
X0305631Y0025151D01*
X0305598Y0025108D01*
X0305569Y0025064D01*
X0305542Y0025018D01*
X0305519Y0024970D01*
X0305499Y0024920D01*
X0305482Y0024869D01*
X0305469Y0024818D01*
X0305459Y0024765D01*
X0305453Y0024712D01*
X0305451Y0024659D01*
X0305452Y0024606D01*
X0305457Y0024552D01*
X0306331Y0017563D01*
X0306331Y0006736D01*
X0312236Y0006736D02*
X0312236Y0007720D01*
X0314205Y0006736D02*
X0314203Y0006650D01*
X0314198Y0006564D01*
X0314188Y0006479D01*
X0314175Y0006394D01*
X0314158Y0006310D01*
X0314138Y0006226D01*
X0314114Y0006144D01*
X0314086Y0006063D01*
X0314055Y0005982D01*
X0314021Y0005904D01*
X0313983Y0005827D01*
X0313941Y0005751D01*
X0313897Y0005678D01*
X0313849Y0005607D01*
X0313798Y0005537D01*
X0313744Y0005470D01*
X0313688Y0005406D01*
X0313628Y0005344D01*
X0313566Y0005284D01*
X0313502Y0005228D01*
X0313435Y0005174D01*
X0313365Y0005123D01*
X0313294Y0005075D01*
X0313221Y0005031D01*
X0313145Y0004989D01*
X0313068Y0004951D01*
X0312990Y0004917D01*
X0312909Y0004886D01*
X0312828Y0004858D01*
X0312746Y0004834D01*
X0312662Y0004814D01*
X0312578Y0004797D01*
X0312493Y0004784D01*
X0312408Y0004774D01*
X0312322Y0004769D01*
X0312236Y0004767D01*
X0314205Y0006736D02*
X0314205Y0017563D01*
X0315078Y0024552D01*
X0315083Y0024606D01*
X0315084Y0024659D01*
X0315082Y0024712D01*
X0315076Y0024765D01*
X0315066Y0024818D01*
X0315053Y0024869D01*
X0315036Y0024920D01*
X0315016Y0024970D01*
X0314993Y0025018D01*
X0314966Y0025064D01*
X0314937Y0025108D01*
X0314904Y0025151D01*
X0314869Y0025191D01*
X0314831Y0025228D01*
X0314791Y0025263D01*
X0314748Y0025295D01*
X0314703Y0025324D01*
X0314657Y0025350D01*
X0314608Y0025373D01*
X0314559Y0025392D01*
X0314508Y0025408D01*
X0314456Y0025421D01*
X0314403Y0025430D01*
X0314350Y0025435D01*
X0314297Y0025437D01*
X0313903Y0025437D01*
X0313849Y0025435D01*
X0313796Y0025430D01*
X0313743Y0025421D01*
X0313691Y0025408D01*
X0313640Y0025392D01*
X0313591Y0025372D01*
X0313542Y0025349D01*
X0313495Y0025323D01*
X0313451Y0025294D01*
X0313408Y0025262D01*
X0313367Y0025227D01*
X0313329Y0025189D01*
X0313294Y0025149D01*
X0313262Y0025106D01*
X0313232Y0025061D01*
X0313206Y0025015D01*
X0313183Y0024967D01*
X0313163Y0024917D01*
X0313146Y0024866D01*
X0313133Y0024814D01*
X0313124Y0024761D01*
X0312236Y0018547D01*
X0312236Y0013626D01*
X0312236Y0010673D02*
X0312236Y0009689D01*
X0297472Y0011657D02*
X0297472Y0015594D01*
X0307709Y0023469D02*
X0312827Y0023469D01*
X0309283Y0031343D02*
X0307315Y0031343D01*
X0307315Y0031342D02*
X0307229Y0031344D01*
X0307143Y0031349D01*
X0307058Y0031359D01*
X0306973Y0031372D01*
X0306889Y0031389D01*
X0306805Y0031409D01*
X0306723Y0031433D01*
X0306642Y0031461D01*
X0306561Y0031492D01*
X0306483Y0031526D01*
X0306406Y0031564D01*
X0306331Y0031606D01*
X0306257Y0031650D01*
X0306186Y0031698D01*
X0306116Y0031749D01*
X0306049Y0031803D01*
X0305985Y0031859D01*
X0305923Y0031919D01*
X0305863Y0031981D01*
X0305807Y0032045D01*
X0305753Y0032112D01*
X0305702Y0032182D01*
X0305654Y0032253D01*
X0305610Y0032327D01*
X0305568Y0032402D01*
X0305530Y0032479D01*
X0305496Y0032557D01*
X0305465Y0032638D01*
X0305437Y0032719D01*
X0305413Y0032801D01*
X0305393Y0032885D01*
X0305376Y0032969D01*
X0305363Y0033054D01*
X0305353Y0033139D01*
X0305348Y0033225D01*
X0305346Y0033311D01*
X0305346Y0035280D01*
X0303378Y0037248D01*
X0301409Y0037248D01*
X0309283Y0031342D02*
X0309369Y0031344D01*
X0309455Y0031349D01*
X0309540Y0031359D01*
X0309625Y0031372D01*
X0309709Y0031389D01*
X0309793Y0031409D01*
X0309875Y0031433D01*
X0309956Y0031461D01*
X0310037Y0031492D01*
X0310115Y0031526D01*
X0310192Y0031564D01*
X0310268Y0031606D01*
X0310341Y0031650D01*
X0310412Y0031698D01*
X0310482Y0031749D01*
X0310549Y0031803D01*
X0310613Y0031859D01*
X0310675Y0031919D01*
X0310735Y0031981D01*
X0310791Y0032045D01*
X0310845Y0032112D01*
X0310896Y0032182D01*
X0310944Y0032253D01*
X0310988Y0032326D01*
X0311030Y0032402D01*
X0311068Y0032479D01*
X0311102Y0032557D01*
X0311133Y0032638D01*
X0311161Y0032719D01*
X0311185Y0032801D01*
X0311205Y0032885D01*
X0311222Y0032969D01*
X0311235Y0033054D01*
X0311245Y0033139D01*
X0311250Y0033225D01*
X0311252Y0033311D01*
X0311252Y0035280D01*
X0313220Y0037248D01*
X0319750Y0076750D02*
X0319750Y0079452D01*
X0321101Y0079452D01*
X0321552Y0079002D01*
X0321552Y0078101D01*
X0321101Y0077651D01*
X0319750Y0077651D01*
X0320651Y0077651D02*
X0321552Y0076750D01*
X0322697Y0076750D02*
X0324498Y0076750D01*
X0323597Y0076750D02*
X0323597Y0079452D01*
X0322697Y0078552D01*
X0323147Y0096750D02*
X0322697Y0097200D01*
X0322697Y0097651D01*
X0323147Y0098101D01*
X0324048Y0098101D01*
X0324498Y0097651D01*
X0324498Y0097200D01*
X0324048Y0096750D01*
X0323147Y0096750D01*
X0323147Y0098101D02*
X0322697Y0098552D01*
X0322697Y0099002D01*
X0323147Y0099452D01*
X0324048Y0099452D01*
X0324498Y0099002D01*
X0324498Y0098552D01*
X0324048Y0098101D01*
X0321552Y0098101D02*
X0321101Y0097651D01*
X0319750Y0097651D01*
X0320651Y0097651D02*
X0321552Y0096750D01*
X0321552Y0098101D02*
X0321552Y0099002D01*
X0321101Y0099452D01*
X0319750Y0099452D01*
X0319750Y0096750D01*
X0319750Y0116750D02*
X0319750Y0119452D01*
X0321101Y0119452D01*
X0321552Y0119002D01*
X0321552Y0118101D01*
X0321101Y0117651D01*
X0319750Y0117651D01*
X0320651Y0117651D02*
X0321552Y0116750D01*
X0322697Y0116750D02*
X0322697Y0117200D01*
X0324498Y0119002D01*
X0324498Y0119452D01*
X0322697Y0119452D01*
X0323147Y0136750D02*
X0324048Y0136750D01*
X0324498Y0137200D01*
X0324498Y0137651D01*
X0324048Y0138101D01*
X0322697Y0138101D01*
X0322697Y0137200D01*
X0323147Y0136750D01*
X0322697Y0138101D02*
X0323597Y0139002D01*
X0324498Y0139452D01*
X0321552Y0139002D02*
X0321552Y0138101D01*
X0321101Y0137651D01*
X0319750Y0137651D01*
X0320651Y0137651D02*
X0321552Y0136750D01*
X0319750Y0136750D02*
X0319750Y0139452D01*
X0321101Y0139452D01*
X0321552Y0139002D01*
X0321552Y0156750D02*
X0320651Y0157651D01*
X0321101Y0157651D02*
X0319750Y0157651D01*
X0319750Y0156750D02*
X0319750Y0159452D01*
X0321101Y0159452D01*
X0321552Y0159002D01*
X0321552Y0158101D01*
X0321101Y0157651D01*
X0322697Y0158101D02*
X0323597Y0158552D01*
X0324048Y0158552D01*
X0324498Y0158101D01*
X0324498Y0157200D01*
X0324048Y0156750D01*
X0323147Y0156750D01*
X0322697Y0157200D01*
X0322697Y0158101D02*
X0322697Y0159452D01*
X0324498Y0159452D01*
X0254950Y0183357D02*
X0252248Y0183357D01*
X0252248Y0184708D01*
X0252698Y0185159D01*
X0253599Y0185159D01*
X0254049Y0184708D01*
X0254049Y0183357D01*
X0254049Y0184258D02*
X0254950Y0185159D01*
X0254950Y0186303D02*
X0253148Y0188105D01*
X0252698Y0188105D01*
X0252248Y0187655D01*
X0252248Y0186754D01*
X0252698Y0186303D01*
X0254950Y0186303D02*
X0254950Y0188105D01*
X0224950Y0182655D02*
X0222248Y0182655D01*
X0223599Y0181303D01*
X0223599Y0183105D01*
X0223599Y0180159D02*
X0224049Y0179708D01*
X0224049Y0178357D01*
X0224049Y0179258D02*
X0224950Y0180159D01*
X0223599Y0180159D02*
X0222698Y0180159D01*
X0222248Y0179708D01*
X0222248Y0178357D01*
X0224950Y0178357D01*
X0194950Y0178357D02*
X0192248Y0178357D01*
X0192248Y0179708D01*
X0192698Y0180159D01*
X0193599Y0180159D01*
X0194049Y0179708D01*
X0194049Y0178357D01*
X0194049Y0179258D02*
X0194950Y0180159D01*
X0194500Y0181303D02*
X0194950Y0181754D01*
X0194950Y0182655D01*
X0194500Y0183105D01*
X0194049Y0183105D01*
X0193599Y0182655D01*
X0193599Y0182204D01*
X0193599Y0182655D02*
X0193148Y0183105D01*
X0192698Y0183105D01*
X0192248Y0182655D01*
X0192248Y0181754D01*
X0192698Y0181303D01*
X0154703Y0181890D02*
X0151998Y0179185D01*
X0152899Y0178283D02*
X0149293Y0181890D01*
X0150194Y0183721D02*
X0151096Y0183721D01*
X0151998Y0184622D01*
X0151998Y0186426D01*
X0152899Y0187328D01*
X0153801Y0187328D01*
X0154703Y0186426D01*
X0154703Y0184622D01*
X0153801Y0183721D01*
X0150194Y0183721D02*
X0149293Y0184622D01*
X0149293Y0186426D01*
X0150194Y0187328D01*
X0149293Y0189159D02*
X0149293Y0190962D01*
X0149293Y0190060D02*
X0154703Y0190060D01*
X0154703Y0189159D02*
X0154703Y0190962D01*
X0153801Y0192784D02*
X0150194Y0192784D01*
X0149293Y0193685D01*
X0149293Y0195489D01*
X0150194Y0196390D01*
X0151998Y0196390D02*
X0151998Y0194587D01*
X0151998Y0196390D02*
X0153801Y0196390D01*
X0154703Y0195489D01*
X0154703Y0193685D01*
X0153801Y0192784D01*
X0148102Y0198665D02*
X0148102Y0140398D01*
X0085898Y0140398D01*
X0085898Y0198665D01*
X0085900Y0198789D01*
X0085906Y0198912D01*
X0085915Y0199036D01*
X0085929Y0199158D01*
X0085946Y0199281D01*
X0085968Y0199403D01*
X0085993Y0199524D01*
X0086022Y0199644D01*
X0086054Y0199763D01*
X0086091Y0199882D01*
X0086131Y0199999D01*
X0086174Y0200114D01*
X0086222Y0200229D01*
X0086273Y0200341D01*
X0086327Y0200452D01*
X0086385Y0200562D01*
X0086446Y0200669D01*
X0086511Y0200775D01*
X0086579Y0200878D01*
X0086650Y0200979D01*
X0086724Y0201078D01*
X0086801Y0201175D01*
X0086882Y0201269D01*
X0086965Y0201360D01*
X0087051Y0201449D01*
X0087140Y0201535D01*
X0087231Y0201618D01*
X0087325Y0201699D01*
X0087422Y0201776D01*
X0087521Y0201850D01*
X0087622Y0201921D01*
X0087725Y0201989D01*
X0087831Y0202054D01*
X0087938Y0202115D01*
X0088048Y0202173D01*
X0088159Y0202227D01*
X0088271Y0202278D01*
X0088386Y0202326D01*
X0088501Y0202369D01*
X0088618Y0202409D01*
X0088737Y0202446D01*
X0088856Y0202478D01*
X0088976Y0202507D01*
X0089097Y0202532D01*
X0089219Y0202554D01*
X0089342Y0202571D01*
X0089464Y0202585D01*
X0089588Y0202594D01*
X0089711Y0202600D01*
X0089835Y0202602D01*
X0144165Y0202602D01*
X0144289Y0202600D01*
X0144412Y0202594D01*
X0144536Y0202585D01*
X0144658Y0202571D01*
X0144781Y0202554D01*
X0144903Y0202532D01*
X0145024Y0202507D01*
X0145144Y0202478D01*
X0145263Y0202446D01*
X0145382Y0202409D01*
X0145499Y0202369D01*
X0145614Y0202326D01*
X0145729Y0202278D01*
X0145841Y0202227D01*
X0145952Y0202173D01*
X0146062Y0202115D01*
X0146169Y0202054D01*
X0146275Y0201989D01*
X0146378Y0201921D01*
X0146479Y0201850D01*
X0146578Y0201776D01*
X0146675Y0201699D01*
X0146769Y0201618D01*
X0146860Y0201535D01*
X0146949Y0201449D01*
X0147035Y0201360D01*
X0147118Y0201269D01*
X0147199Y0201175D01*
X0147276Y0201078D01*
X0147350Y0200979D01*
X0147421Y0200878D01*
X0147489Y0200775D01*
X0147554Y0200669D01*
X0147615Y0200562D01*
X0147673Y0200452D01*
X0147727Y0200341D01*
X0147778Y0200229D01*
X0147826Y0200114D01*
X0147869Y0199999D01*
X0147909Y0199882D01*
X0147946Y0199763D01*
X0147978Y0199644D01*
X0148007Y0199524D01*
X0148032Y0199403D01*
X0148054Y0199281D01*
X0148071Y0199158D01*
X0148085Y0199036D01*
X0148094Y0198912D01*
X0148100Y0198789D01*
X0148102Y0198665D01*
X0129598Y0193547D02*
X0104402Y0193547D01*
X0103865Y0193232D01*
X0103336Y0192904D01*
X0102816Y0192562D01*
X0102304Y0192208D01*
X0101801Y0191842D01*
X0101307Y0191463D01*
X0100823Y0191073D01*
X0100348Y0190670D01*
X0099883Y0190257D01*
X0099428Y0189832D01*
X0098984Y0189395D01*
X0098551Y0188949D01*
X0098129Y0188491D01*
X0097719Y0188024D01*
X0097319Y0187546D01*
X0096932Y0187059D01*
X0096557Y0186563D01*
X0096194Y0186057D01*
X0095843Y0185543D01*
X0095506Y0185020D01*
X0095181Y0184489D01*
X0094869Y0183951D01*
X0094570Y0183405D01*
X0094285Y0182851D01*
X0094014Y0182291D01*
X0093757Y0181725D01*
X0093513Y0181152D01*
X0093283Y0180574D01*
X0093068Y0179990D01*
X0092867Y0179401D01*
X0092681Y0178807D01*
X0092509Y0178209D01*
X0092352Y0177606D01*
X0092210Y0177001D01*
X0092083Y0176391D01*
X0091970Y0175779D01*
X0091873Y0175165D01*
X0091791Y0174548D01*
X0091723Y0173929D01*
X0091672Y0173309D01*
X0091635Y0172688D01*
X0091613Y0172066D01*
X0091607Y0171443D01*
X0091616Y0170821D01*
X0091640Y0170199D01*
X0091680Y0169578D01*
X0091735Y0168958D01*
X0091804Y0168340D01*
X0091889Y0167723D01*
X0091990Y0167109D01*
X0092105Y0166497D01*
X0092235Y0165889D01*
X0092380Y0165284D01*
X0092539Y0164682D01*
X0092714Y0164085D01*
X0092903Y0163492D01*
X0093106Y0162904D01*
X0093324Y0162321D01*
X0093556Y0161743D01*
X0093802Y0161172D01*
X0094062Y0160606D01*
X0094336Y0160047D01*
X0094624Y0159496D01*
X0094925Y0158951D01*
X0095239Y0158414D01*
X0095566Y0157884D01*
X0095906Y0157363D01*
X0096259Y0156850D01*
X0096624Y0156346D01*
X0097002Y0155852D01*
X0097391Y0155366D01*
X0097792Y0154891D01*
X0098205Y0154425D01*
X0098629Y0153969D01*
X0099064Y0153524D01*
X0099510Y0153090D01*
X0099967Y0152667D01*
X0100433Y0152255D01*
X0100910Y0151855D01*
X0101396Y0151467D01*
X0101892Y0151090D01*
X0102397Y0150726D01*
X0102910Y0150375D01*
X0103432Y0150036D01*
X0103962Y0149710D01*
X0104500Y0149397D01*
X0105045Y0149097D01*
X0105598Y0148811D01*
X0106157Y0148538D01*
X0106723Y0148279D01*
X0107296Y0148035D01*
X0107874Y0147804D01*
X0108457Y0147587D01*
X0109046Y0147385D01*
X0109639Y0147197D01*
X0110237Y0147024D01*
X0110839Y0146866D01*
X0111444Y0146722D01*
X0112053Y0146594D01*
X0112665Y0146480D01*
X0113279Y0146381D01*
X0113896Y0146297D01*
X0114515Y0146229D01*
X0115135Y0146176D01*
X0115756Y0146138D01*
X0116378Y0146115D01*
X0117000Y0146107D01*
X0117622Y0146115D01*
X0118244Y0146138D01*
X0118865Y0146176D01*
X0119485Y0146229D01*
X0120104Y0146297D01*
X0120721Y0146381D01*
X0121335Y0146480D01*
X0121947Y0146594D01*
X0122556Y0146722D01*
X0123161Y0146866D01*
X0123763Y0147024D01*
X0124361Y0147197D01*
X0124954Y0147385D01*
X0125543Y0147587D01*
X0126126Y0147804D01*
X0126704Y0148035D01*
X0127277Y0148279D01*
X0127843Y0148538D01*
X0128402Y0148811D01*
X0128955Y0149097D01*
X0129500Y0149397D01*
X0130038Y0149710D01*
X0130568Y0150036D01*
X0131090Y0150375D01*
X0131603Y0150726D01*
X0132108Y0151090D01*
X0132604Y0151467D01*
X0133090Y0151855D01*
X0133567Y0152255D01*
X0134033Y0152667D01*
X0134490Y0153090D01*
X0134936Y0153524D01*
X0135371Y0153969D01*
X0135795Y0154425D01*
X0136208Y0154891D01*
X0136609Y0155366D01*
X0136998Y0155852D01*
X0137376Y0156346D01*
X0137741Y0156850D01*
X0138094Y0157363D01*
X0138434Y0157884D01*
X0138761Y0158414D01*
X0139075Y0158951D01*
X0139376Y0159496D01*
X0139664Y0160047D01*
X0139938Y0160606D01*
X0140198Y0161172D01*
X0140444Y0161743D01*
X0140676Y0162321D01*
X0140894Y0162904D01*
X0141097Y0163492D01*
X0141286Y0164085D01*
X0141461Y0164682D01*
X0141620Y0165284D01*
X0141765Y0165889D01*
X0141895Y0166497D01*
X0142010Y0167109D01*
X0142111Y0167723D01*
X0142196Y0168340D01*
X0142265Y0168958D01*
X0142320Y0169578D01*
X0142360Y0170199D01*
X0142384Y0170821D01*
X0142393Y0171443D01*
X0142387Y0172066D01*
X0142365Y0172688D01*
X0142328Y0173309D01*
X0142277Y0173929D01*
X0142209Y0174548D01*
X0142127Y0175165D01*
X0142030Y0175779D01*
X0141917Y0176391D01*
X0141790Y0177001D01*
X0141648Y0177606D01*
X0141491Y0178209D01*
X0141319Y0178807D01*
X0141133Y0179401D01*
X0140932Y0179990D01*
X0140717Y0180574D01*
X0140487Y0181152D01*
X0140243Y0181725D01*
X0139986Y0182291D01*
X0139715Y0182851D01*
X0139430Y0183405D01*
X0139131Y0183951D01*
X0138819Y0184489D01*
X0138494Y0185020D01*
X0138157Y0185543D01*
X0137806Y0186057D01*
X0137443Y0186563D01*
X0137068Y0187059D01*
X0136681Y0187546D01*
X0136281Y0188024D01*
X0135871Y0188491D01*
X0135449Y0188949D01*
X0135016Y0189395D01*
X0134572Y0189832D01*
X0134117Y0190257D01*
X0133652Y0190670D01*
X0133177Y0191073D01*
X0132693Y0191463D01*
X0132199Y0191842D01*
X0131696Y0192208D01*
X0131184Y0192562D01*
X0130664Y0192904D01*
X0130135Y0193232D01*
X0129598Y0193547D01*
X0149293Y0178283D02*
X0154703Y0178283D01*
X0153801Y0176452D02*
X0154703Y0175550D01*
X0154703Y0173747D01*
X0153801Y0172845D01*
X0150194Y0172845D01*
X0149293Y0173747D01*
X0149293Y0175550D01*
X0150194Y0176452D01*
X0149293Y0171024D02*
X0149293Y0169220D01*
X0149293Y0170122D02*
X0154703Y0170122D01*
X0154703Y0169220D02*
X0154703Y0171024D01*
X0154703Y0167389D02*
X0154703Y0163783D01*
X0149293Y0163783D01*
X0128339Y0164413D02*
X0125189Y0164413D01*
X0118575Y0164413D02*
X0115425Y0164413D01*
X0117000Y0162839D02*
X0117000Y0165988D01*
X0155046Y0146334D02*
X0155797Y0144832D01*
X0157298Y0143331D01*
X0157298Y0145583D01*
X0158049Y0146334D01*
X0158799Y0146334D01*
X0159550Y0145583D01*
X0159550Y0144082D01*
X0158799Y0143331D01*
X0157298Y0143331D01*
X0159550Y0141730D02*
X0155046Y0141730D01*
X0155046Y0138727D02*
X0159550Y0141730D01*
X0159550Y0138727D02*
X0155046Y0138727D01*
X0155046Y0137159D02*
X0155046Y0135658D01*
X0155046Y0136408D02*
X0159550Y0136408D01*
X0159550Y0135658D02*
X0159550Y0137159D01*
X0157298Y0134056D02*
X0158049Y0133306D01*
X0158049Y0131054D01*
X0159550Y0131054D02*
X0155046Y0131054D01*
X0155046Y0133306D01*
X0155797Y0134056D01*
X0157298Y0134056D01*
X0158049Y0129453D02*
X0155046Y0129453D01*
X0158049Y0129453D02*
X0159550Y0127951D01*
X0158049Y0126450D01*
X0155046Y0126450D01*
X0185046Y0126450D02*
X0188049Y0126450D01*
X0189550Y0127951D01*
X0188049Y0129453D01*
X0185046Y0129453D01*
X0185046Y0131054D02*
X0185046Y0133306D01*
X0185797Y0134056D01*
X0187298Y0134056D01*
X0188049Y0133306D01*
X0188049Y0131054D01*
X0189550Y0131054D02*
X0185046Y0131054D01*
X0185046Y0135658D02*
X0185046Y0137159D01*
X0185046Y0136408D02*
X0189550Y0136408D01*
X0189550Y0135658D02*
X0189550Y0137159D01*
X0189550Y0138727D02*
X0185046Y0138727D01*
X0189550Y0141730D01*
X0185046Y0141730D01*
X0185046Y0143331D02*
X0187298Y0143331D01*
X0186547Y0144832D01*
X0186547Y0145583D01*
X0187298Y0146334D01*
X0188799Y0146334D01*
X0189550Y0145583D01*
X0189550Y0144082D01*
X0188799Y0143331D01*
X0185046Y0143331D02*
X0185046Y0146334D01*
X0215046Y0145583D02*
X0217298Y0143331D01*
X0217298Y0146334D01*
X0219550Y0145583D02*
X0215046Y0145583D01*
X0215046Y0141730D02*
X0219550Y0141730D01*
X0215046Y0138727D01*
X0219550Y0138727D01*
X0219550Y0137159D02*
X0219550Y0135658D01*
X0219550Y0136408D02*
X0215046Y0136408D01*
X0215046Y0135658D02*
X0215046Y0137159D01*
X0215797Y0134056D02*
X0217298Y0134056D01*
X0218049Y0133306D01*
X0218049Y0131054D01*
X0219550Y0131054D02*
X0215046Y0131054D01*
X0215046Y0133306D01*
X0215797Y0134056D01*
X0215046Y0129453D02*
X0218049Y0129453D01*
X0219550Y0127951D01*
X0218049Y0126450D01*
X0215046Y0126450D01*
X0245046Y0126450D02*
X0248049Y0126450D01*
X0249550Y0127951D01*
X0248049Y0129453D01*
X0245046Y0129453D01*
X0245046Y0131054D02*
X0245046Y0133306D01*
X0245797Y0134056D01*
X0247298Y0134056D01*
X0248049Y0133306D01*
X0248049Y0131054D01*
X0249550Y0131054D02*
X0245046Y0131054D01*
X0245046Y0135658D02*
X0245046Y0137159D01*
X0245046Y0136408D02*
X0249550Y0136408D01*
X0249550Y0135658D02*
X0249550Y0137159D01*
X0249550Y0138727D02*
X0245046Y0138727D01*
X0249550Y0141730D01*
X0245046Y0141730D01*
X0245797Y0143331D02*
X0245046Y0144082D01*
X0245046Y0145583D01*
X0245797Y0146334D01*
X0246547Y0146334D01*
X0247298Y0145583D01*
X0248049Y0146334D01*
X0248799Y0146334D01*
X0249550Y0145583D01*
X0249550Y0144082D01*
X0248799Y0143331D01*
X0247298Y0144832D02*
X0247298Y0145583D01*
X0148102Y0098665D02*
X0148102Y0040398D01*
X0085898Y0040398D01*
X0085898Y0098665D01*
X0085900Y0098789D01*
X0085906Y0098912D01*
X0085915Y0099036D01*
X0085929Y0099158D01*
X0085946Y0099281D01*
X0085968Y0099403D01*
X0085993Y0099524D01*
X0086022Y0099644D01*
X0086054Y0099763D01*
X0086091Y0099882D01*
X0086131Y0099999D01*
X0086174Y0100114D01*
X0086222Y0100229D01*
X0086273Y0100341D01*
X0086327Y0100452D01*
X0086385Y0100562D01*
X0086446Y0100669D01*
X0086511Y0100775D01*
X0086579Y0100878D01*
X0086650Y0100979D01*
X0086724Y0101078D01*
X0086801Y0101175D01*
X0086882Y0101269D01*
X0086965Y0101360D01*
X0087051Y0101449D01*
X0087140Y0101535D01*
X0087231Y0101618D01*
X0087325Y0101699D01*
X0087422Y0101776D01*
X0087521Y0101850D01*
X0087622Y0101921D01*
X0087725Y0101989D01*
X0087831Y0102054D01*
X0087938Y0102115D01*
X0088048Y0102173D01*
X0088159Y0102227D01*
X0088271Y0102278D01*
X0088386Y0102326D01*
X0088501Y0102369D01*
X0088618Y0102409D01*
X0088737Y0102446D01*
X0088856Y0102478D01*
X0088976Y0102507D01*
X0089097Y0102532D01*
X0089219Y0102554D01*
X0089342Y0102571D01*
X0089464Y0102585D01*
X0089588Y0102594D01*
X0089711Y0102600D01*
X0089835Y0102602D01*
X0144165Y0102602D01*
X0144289Y0102600D01*
X0144412Y0102594D01*
X0144536Y0102585D01*
X0144658Y0102571D01*
X0144781Y0102554D01*
X0144903Y0102532D01*
X0145024Y0102507D01*
X0145144Y0102478D01*
X0145263Y0102446D01*
X0145382Y0102409D01*
X0145499Y0102369D01*
X0145614Y0102326D01*
X0145729Y0102278D01*
X0145841Y0102227D01*
X0145952Y0102173D01*
X0146062Y0102115D01*
X0146169Y0102054D01*
X0146275Y0101989D01*
X0146378Y0101921D01*
X0146479Y0101850D01*
X0146578Y0101776D01*
X0146675Y0101699D01*
X0146769Y0101618D01*
X0146860Y0101535D01*
X0146949Y0101449D01*
X0147035Y0101360D01*
X0147118Y0101269D01*
X0147199Y0101175D01*
X0147276Y0101078D01*
X0147350Y0100979D01*
X0147421Y0100878D01*
X0147489Y0100775D01*
X0147554Y0100669D01*
X0147615Y0100562D01*
X0147673Y0100452D01*
X0147727Y0100341D01*
X0147778Y0100229D01*
X0147826Y0100114D01*
X0147869Y0099999D01*
X0147909Y0099882D01*
X0147946Y0099763D01*
X0147978Y0099644D01*
X0148007Y0099524D01*
X0148032Y0099403D01*
X0148054Y0099281D01*
X0148071Y0099158D01*
X0148085Y0099036D01*
X0148094Y0098912D01*
X0148100Y0098789D01*
X0148102Y0098665D01*
X0129598Y0093547D02*
X0104402Y0093547D01*
X0103865Y0093232D01*
X0103336Y0092904D01*
X0102816Y0092562D01*
X0102304Y0092208D01*
X0101801Y0091842D01*
X0101307Y0091463D01*
X0100823Y0091073D01*
X0100348Y0090670D01*
X0099883Y0090257D01*
X0099428Y0089832D01*
X0098984Y0089395D01*
X0098551Y0088949D01*
X0098129Y0088491D01*
X0097719Y0088024D01*
X0097319Y0087546D01*
X0096932Y0087059D01*
X0096557Y0086563D01*
X0096194Y0086057D01*
X0095843Y0085543D01*
X0095506Y0085020D01*
X0095181Y0084489D01*
X0094869Y0083951D01*
X0094570Y0083405D01*
X0094285Y0082851D01*
X0094014Y0082291D01*
X0093757Y0081725D01*
X0093513Y0081152D01*
X0093283Y0080574D01*
X0093068Y0079990D01*
X0092867Y0079401D01*
X0092681Y0078807D01*
X0092509Y0078209D01*
X0092352Y0077606D01*
X0092210Y0077001D01*
X0092083Y0076391D01*
X0091970Y0075779D01*
X0091873Y0075165D01*
X0091791Y0074548D01*
X0091723Y0073929D01*
X0091672Y0073309D01*
X0091635Y0072688D01*
X0091613Y0072066D01*
X0091607Y0071443D01*
X0091616Y0070821D01*
X0091640Y0070199D01*
X0091680Y0069578D01*
X0091735Y0068958D01*
X0091804Y0068340D01*
X0091889Y0067723D01*
X0091990Y0067109D01*
X0092105Y0066497D01*
X0092235Y0065889D01*
X0092380Y0065284D01*
X0092539Y0064682D01*
X0092714Y0064085D01*
X0092903Y0063492D01*
X0093106Y0062904D01*
X0093324Y0062321D01*
X0093556Y0061743D01*
X0093802Y0061172D01*
X0094062Y0060606D01*
X0094336Y0060047D01*
X0094624Y0059496D01*
X0094925Y0058951D01*
X0095239Y0058414D01*
X0095566Y0057884D01*
X0095906Y0057363D01*
X0096259Y0056850D01*
X0096624Y0056346D01*
X0097002Y0055852D01*
X0097391Y0055366D01*
X0097792Y0054891D01*
X0098205Y0054425D01*
X0098629Y0053969D01*
X0099064Y0053524D01*
X0099510Y0053090D01*
X0099967Y0052667D01*
X0100433Y0052255D01*
X0100910Y0051855D01*
X0101396Y0051467D01*
X0101892Y0051090D01*
X0102397Y0050726D01*
X0102910Y0050375D01*
X0103432Y0050036D01*
X0103962Y0049710D01*
X0104500Y0049397D01*
X0105045Y0049097D01*
X0105598Y0048811D01*
X0106157Y0048538D01*
X0106723Y0048279D01*
X0107296Y0048035D01*
X0107874Y0047804D01*
X0108457Y0047587D01*
X0109046Y0047385D01*
X0109639Y0047197D01*
X0110237Y0047024D01*
X0110839Y0046866D01*
X0111444Y0046722D01*
X0112053Y0046594D01*
X0112665Y0046480D01*
X0113279Y0046381D01*
X0113896Y0046297D01*
X0114515Y0046229D01*
X0115135Y0046176D01*
X0115756Y0046138D01*
X0116378Y0046115D01*
X0117000Y0046107D01*
X0117622Y0046115D01*
X0118244Y0046138D01*
X0118865Y0046176D01*
X0119485Y0046229D01*
X0120104Y0046297D01*
X0120721Y0046381D01*
X0121335Y0046480D01*
X0121947Y0046594D01*
X0122556Y0046722D01*
X0123161Y0046866D01*
X0123763Y0047024D01*
X0124361Y0047197D01*
X0124954Y0047385D01*
X0125543Y0047587D01*
X0126126Y0047804D01*
X0126704Y0048035D01*
X0127277Y0048279D01*
X0127843Y0048538D01*
X0128402Y0048811D01*
X0128955Y0049097D01*
X0129500Y0049397D01*
X0130038Y0049710D01*
X0130568Y0050036D01*
X0131090Y0050375D01*
X0131603Y0050726D01*
X0132108Y0051090D01*
X0132604Y0051467D01*
X0133090Y0051855D01*
X0133567Y0052255D01*
X0134033Y0052667D01*
X0134490Y0053090D01*
X0134936Y0053524D01*
X0135371Y0053969D01*
X0135795Y0054425D01*
X0136208Y0054891D01*
X0136609Y0055366D01*
X0136998Y0055852D01*
X0137376Y0056346D01*
X0137741Y0056850D01*
X0138094Y0057363D01*
X0138434Y0057884D01*
X0138761Y0058414D01*
X0139075Y0058951D01*
X0139376Y0059496D01*
X0139664Y0060047D01*
X0139938Y0060606D01*
X0140198Y0061172D01*
X0140444Y0061743D01*
X0140676Y0062321D01*
X0140894Y0062904D01*
X0141097Y0063492D01*
X0141286Y0064085D01*
X0141461Y0064682D01*
X0141620Y0065284D01*
X0141765Y0065889D01*
X0141895Y0066497D01*
X0142010Y0067109D01*
X0142111Y0067723D01*
X0142196Y0068340D01*
X0142265Y0068958D01*
X0142320Y0069578D01*
X0142360Y0070199D01*
X0142384Y0070821D01*
X0142393Y0071443D01*
X0142387Y0072066D01*
X0142365Y0072688D01*
X0142328Y0073309D01*
X0142277Y0073929D01*
X0142209Y0074548D01*
X0142127Y0075165D01*
X0142030Y0075779D01*
X0141917Y0076391D01*
X0141790Y0077001D01*
X0141648Y0077606D01*
X0141491Y0078209D01*
X0141319Y0078807D01*
X0141133Y0079401D01*
X0140932Y0079990D01*
X0140717Y0080574D01*
X0140487Y0081152D01*
X0140243Y0081725D01*
X0139986Y0082291D01*
X0139715Y0082851D01*
X0139430Y0083405D01*
X0139131Y0083951D01*
X0138819Y0084489D01*
X0138494Y0085020D01*
X0138157Y0085543D01*
X0137806Y0086057D01*
X0137443Y0086563D01*
X0137068Y0087059D01*
X0136681Y0087546D01*
X0136281Y0088024D01*
X0135871Y0088491D01*
X0135449Y0088949D01*
X0135016Y0089395D01*
X0134572Y0089832D01*
X0134117Y0090257D01*
X0133652Y0090670D01*
X0133177Y0091073D01*
X0132693Y0091463D01*
X0132199Y0091842D01*
X0131696Y0092208D01*
X0131184Y0092562D01*
X0130664Y0092904D01*
X0130135Y0093232D01*
X0129598Y0093547D01*
X0149293Y0083208D02*
X0149293Y0081404D01*
X0150194Y0080502D01*
X0153801Y0080502D01*
X0154703Y0081404D01*
X0154703Y0083208D01*
X0153801Y0084109D01*
X0151998Y0084109D01*
X0151998Y0082306D01*
X0150194Y0084109D02*
X0149293Y0083208D01*
X0149293Y0078681D02*
X0149293Y0076877D01*
X0149293Y0077779D02*
X0154703Y0077779D01*
X0154703Y0076877D02*
X0154703Y0078681D01*
X0153801Y0075046D02*
X0154703Y0074145D01*
X0154703Y0072341D01*
X0153801Y0071440D01*
X0151998Y0072341D02*
X0151998Y0074145D01*
X0152899Y0075046D01*
X0153801Y0075046D01*
X0151998Y0072341D02*
X0151096Y0071440D01*
X0150194Y0071440D01*
X0149293Y0072341D01*
X0149293Y0074145D01*
X0150194Y0075046D01*
X0154703Y0069609D02*
X0154703Y0066002D01*
X0149293Y0066002D01*
X0151096Y0064171D02*
X0154703Y0064171D01*
X0151998Y0064171D02*
X0151998Y0060564D01*
X0151096Y0060564D02*
X0149293Y0062368D01*
X0151096Y0064171D01*
X0151096Y0060564D02*
X0154703Y0060564D01*
X0154703Y0058742D02*
X0154703Y0056939D01*
X0154703Y0057841D02*
X0149293Y0057841D01*
X0149293Y0058742D02*
X0149293Y0056939D01*
X0150194Y0055108D02*
X0151998Y0055108D01*
X0152899Y0054206D01*
X0152899Y0051501D01*
X0152899Y0053305D02*
X0154703Y0055108D01*
X0154703Y0051501D02*
X0149293Y0051501D01*
X0149293Y0054206D01*
X0150194Y0055108D01*
X0149293Y0049670D02*
X0149293Y0046064D01*
X0149293Y0047867D02*
X0154703Y0047867D01*
X0128339Y0064413D02*
X0125189Y0064413D01*
X0118575Y0064413D02*
X0115425Y0064413D01*
X0117000Y0062839D02*
X0117000Y0065988D01*
X0104048Y0131750D02*
X0104498Y0132200D01*
X0104498Y0134002D01*
X0104048Y0134452D01*
X0103147Y0134452D01*
X0102697Y0134002D01*
X0102697Y0133552D01*
X0103147Y0133101D01*
X0104498Y0133101D01*
X0104048Y0131750D02*
X0103147Y0131750D01*
X0102697Y0132200D01*
X0101552Y0131750D02*
X0100651Y0132651D01*
X0101101Y0132651D02*
X0099750Y0132651D01*
X0099750Y0131750D02*
X0099750Y0134452D01*
X0101101Y0134452D01*
X0101552Y0134002D01*
X0101552Y0133101D01*
X0101101Y0132651D01*
D15*
X0162000Y0134000D02*
X0162000Y0139000D01*
X0164500Y0141500D01*
X0162000Y0144000D01*
X0162000Y0149000D01*
X0164500Y0151500D01*
X0169500Y0151500D01*
X0172000Y0149000D01*
X0172000Y0144000D01*
X0169500Y0141500D01*
X0172000Y0139000D01*
X0172000Y0134000D01*
X0169500Y0131500D01*
X0172000Y0129000D01*
X0172000Y0124000D01*
X0169500Y0121500D01*
X0172000Y0119000D01*
X0172000Y0114000D01*
X0169500Y0111500D01*
X0172000Y0109000D01*
X0172000Y0104000D01*
X0169500Y0101500D01*
X0172000Y0099000D01*
X0172000Y0094000D01*
X0169500Y0091500D01*
X0172000Y0089000D01*
X0172000Y0084000D01*
X0169500Y0081500D01*
X0172000Y0079000D01*
X0172000Y0074000D01*
X0169500Y0071500D01*
X0172000Y0069000D01*
X0172000Y0064000D01*
X0169500Y0061500D01*
X0164500Y0061500D01*
X0162000Y0064000D01*
X0162000Y0069000D01*
X0164500Y0071500D01*
X0162000Y0074000D01*
X0162000Y0079000D01*
X0164500Y0081500D01*
X0169500Y0081500D01*
X0164500Y0081500D02*
X0162000Y0084000D01*
X0162000Y0089000D01*
X0164500Y0091500D01*
X0162000Y0094000D01*
X0162000Y0099000D01*
X0164500Y0101500D01*
X0162000Y0104000D01*
X0162000Y0109000D01*
X0164500Y0111500D01*
X0169500Y0111500D01*
X0164500Y0111500D02*
X0162000Y0114000D01*
X0162000Y0119000D01*
X0164500Y0121500D01*
X0162000Y0124000D01*
X0162000Y0129000D01*
X0164500Y0131500D01*
X0162000Y0134000D01*
X0164500Y0131500D02*
X0169500Y0131500D01*
X0169500Y0121500D02*
X0164500Y0121500D01*
X0192000Y0119000D02*
X0192000Y0114000D01*
X0194500Y0111500D01*
X0199500Y0111500D01*
X0202000Y0109000D01*
X0202000Y0104000D01*
X0199500Y0101500D01*
X0202000Y0099000D01*
X0202000Y0094000D01*
X0199500Y0091500D01*
X0202000Y0089000D01*
X0202000Y0084000D01*
X0199500Y0081500D01*
X0202000Y0079000D01*
X0202000Y0074000D01*
X0199500Y0071500D01*
X0202000Y0069000D01*
X0202000Y0064000D01*
X0199500Y0061500D01*
X0194500Y0061500D01*
X0192000Y0064000D01*
X0192000Y0069000D01*
X0194500Y0071500D01*
X0192000Y0074000D01*
X0192000Y0079000D01*
X0194500Y0081500D01*
X0199500Y0081500D01*
X0194500Y0081500D02*
X0192000Y0084000D01*
X0192000Y0089000D01*
X0194500Y0091500D01*
X0192000Y0094000D01*
X0192000Y0099000D01*
X0194500Y0101500D01*
X0192000Y0104000D01*
X0192000Y0109000D01*
X0194500Y0111500D01*
X0199500Y0111500D02*
X0202000Y0114000D01*
X0202000Y0119000D01*
X0199500Y0121500D01*
X0202000Y0124000D01*
X0202000Y0129000D01*
X0199500Y0131500D01*
X0202000Y0134000D01*
X0202000Y0139000D01*
X0199500Y0141500D01*
X0202000Y0144000D01*
X0202000Y0149000D01*
X0199500Y0151500D01*
X0194500Y0151500D01*
X0192000Y0149000D01*
X0192000Y0144000D01*
X0194500Y0141500D01*
X0199500Y0141500D01*
X0194500Y0141500D02*
X0192000Y0139000D01*
X0192000Y0134000D01*
X0194500Y0131500D01*
X0199500Y0131500D01*
X0194500Y0131500D02*
X0192000Y0129000D01*
X0192000Y0124000D01*
X0194500Y0121500D01*
X0199500Y0121500D01*
X0194500Y0121500D02*
X0192000Y0119000D01*
X0194500Y0101500D02*
X0199500Y0101500D01*
X0199500Y0091500D02*
X0194500Y0091500D01*
X0169500Y0091500D02*
X0164500Y0091500D01*
X0164500Y0101500D02*
X0169500Y0101500D01*
X0169500Y0071500D02*
X0164500Y0071500D01*
X0194500Y0071500D02*
X0199500Y0071500D01*
X0222000Y0069000D02*
X0222000Y0064000D01*
X0224500Y0061500D01*
X0229500Y0061500D01*
X0232000Y0064000D01*
X0232000Y0069000D01*
X0229500Y0071500D01*
X0232000Y0074000D01*
X0232000Y0079000D01*
X0229500Y0081500D01*
X0224500Y0081500D01*
X0222000Y0079000D01*
X0222000Y0074000D01*
X0224500Y0071500D01*
X0229500Y0071500D01*
X0224500Y0071500D02*
X0222000Y0069000D01*
X0224500Y0081500D02*
X0222000Y0084000D01*
X0222000Y0089000D01*
X0224500Y0091500D01*
X0222000Y0094000D01*
X0222000Y0099000D01*
X0224500Y0101500D01*
X0222000Y0104000D01*
X0222000Y0109000D01*
X0224500Y0111500D01*
X0229500Y0111500D01*
X0232000Y0109000D01*
X0232000Y0104000D01*
X0229500Y0101500D01*
X0232000Y0099000D01*
X0232000Y0094000D01*
X0229500Y0091500D01*
X0232000Y0089000D01*
X0232000Y0084000D01*
X0229500Y0081500D01*
X0229500Y0091500D02*
X0224500Y0091500D01*
X0224500Y0101500D02*
X0229500Y0101500D01*
X0229500Y0111500D02*
X0232000Y0114000D01*
X0232000Y0119000D01*
X0229500Y0121500D01*
X0232000Y0124000D01*
X0232000Y0129000D01*
X0229500Y0131500D01*
X0232000Y0134000D01*
X0232000Y0139000D01*
X0229500Y0141500D01*
X0232000Y0144000D01*
X0232000Y0149000D01*
X0229500Y0151500D01*
X0224500Y0151500D01*
X0222000Y0149000D01*
X0222000Y0144000D01*
X0224500Y0141500D01*
X0229500Y0141500D01*
X0224500Y0141500D02*
X0222000Y0139000D01*
X0222000Y0134000D01*
X0224500Y0131500D01*
X0229500Y0131500D01*
X0224500Y0131500D02*
X0222000Y0129000D01*
X0222000Y0124000D01*
X0224500Y0121500D01*
X0229500Y0121500D01*
X0224500Y0121500D02*
X0222000Y0119000D01*
X0222000Y0114000D01*
X0224500Y0111500D01*
X0252000Y0109000D02*
X0252000Y0104000D01*
X0254500Y0101500D01*
X0259500Y0101500D01*
X0262000Y0104000D01*
X0262000Y0109000D01*
X0259500Y0111500D01*
X0254500Y0111500D01*
X0252000Y0109000D01*
X0254500Y0111500D02*
X0252000Y0114000D01*
X0252000Y0119000D01*
X0254500Y0121500D01*
X0252000Y0124000D01*
X0252000Y0129000D01*
X0254500Y0131500D01*
X0252000Y0134000D01*
X0252000Y0139000D01*
X0254500Y0141500D01*
X0252000Y0144000D01*
X0252000Y0149000D01*
X0254500Y0151500D01*
X0259500Y0151500D01*
X0262000Y0149000D01*
X0262000Y0144000D01*
X0259500Y0141500D01*
X0262000Y0139000D01*
X0262000Y0134000D01*
X0259500Y0131500D01*
X0262000Y0129000D01*
X0262000Y0124000D01*
X0259500Y0121500D01*
X0262000Y0119000D01*
X0262000Y0114000D01*
X0259500Y0111500D01*
X0259500Y0101500D02*
X0262000Y0099000D01*
X0262000Y0094000D01*
X0259500Y0091500D01*
X0262000Y0089000D01*
X0262000Y0084000D01*
X0259500Y0081500D01*
X0262000Y0079000D01*
X0262000Y0074000D01*
X0259500Y0071500D01*
X0262000Y0069000D01*
X0262000Y0064000D01*
X0259500Y0061500D01*
X0254500Y0061500D01*
X0252000Y0064000D01*
X0252000Y0069000D01*
X0254500Y0071500D01*
X0252000Y0074000D01*
X0252000Y0079000D01*
X0254500Y0081500D01*
X0259500Y0081500D01*
X0254500Y0081500D02*
X0252000Y0084000D01*
X0252000Y0089000D01*
X0254500Y0091500D01*
X0252000Y0094000D01*
X0252000Y0099000D01*
X0254500Y0101500D01*
X0254500Y0091500D02*
X0259500Y0091500D01*
X0259500Y0071500D02*
X0254500Y0071500D01*
X0254500Y0051500D02*
X0249500Y0051500D01*
X0247000Y0049000D01*
X0247000Y0044000D01*
X0249500Y0041500D01*
X0254500Y0041500D01*
X0257000Y0044000D01*
X0257000Y0049000D01*
X0254500Y0051500D01*
X0247000Y0049000D02*
X0244500Y0051500D01*
X0239500Y0051500D01*
X0237000Y0049000D01*
X0237000Y0044000D01*
X0239500Y0041500D01*
X0244500Y0041500D01*
X0247000Y0044000D01*
X0237000Y0044000D02*
X0234500Y0041500D01*
X0229500Y0041500D01*
X0227000Y0044000D01*
X0227000Y0049000D01*
X0229500Y0051500D01*
X0234500Y0051500D01*
X0237000Y0049000D01*
X0202000Y0049000D02*
X0202000Y0044000D01*
X0199500Y0041500D01*
X0194500Y0041500D01*
X0192000Y0044000D01*
X0189500Y0041500D01*
X0184500Y0041500D01*
X0182000Y0044000D01*
X0179500Y0041500D01*
X0174500Y0041500D01*
X0172000Y0044000D01*
X0172000Y0049000D01*
X0174500Y0051500D01*
X0179500Y0051500D01*
X0182000Y0049000D01*
X0184500Y0051500D01*
X0189500Y0051500D01*
X0192000Y0049000D01*
X0194500Y0051500D01*
X0199500Y0051500D01*
X0202000Y0049000D01*
X0192000Y0049000D02*
X0192000Y0044000D01*
X0182000Y0044000D02*
X0182000Y0049000D01*
X0254500Y0121500D02*
X0259500Y0121500D01*
X0259500Y0131500D02*
X0254500Y0131500D01*
X0254500Y0141500D02*
X0259500Y0141500D01*
X0169500Y0141500D02*
X0164500Y0141500D01*
X0277000Y0224000D02*
X0279500Y0221500D01*
X0284500Y0221500D01*
X0287000Y0224000D01*
X0287000Y0229000D01*
X0284500Y0231500D01*
X0279500Y0231500D01*
X0277000Y0229000D01*
X0277000Y0224000D01*
X0362000Y0164000D02*
X0364500Y0166500D01*
X0369500Y0166500D01*
X0372000Y0164000D01*
X0372000Y0159000D01*
X0369500Y0156500D01*
X0364500Y0156500D01*
X0362000Y0159000D01*
X0362000Y0164000D01*
X0377000Y0176500D02*
X0377003Y0176745D01*
X0377012Y0176991D01*
X0377027Y0177236D01*
X0377048Y0177480D01*
X0377075Y0177724D01*
X0377108Y0177967D01*
X0377147Y0178210D01*
X0377192Y0178451D01*
X0377243Y0178691D01*
X0377300Y0178930D01*
X0377362Y0179167D01*
X0377431Y0179403D01*
X0377505Y0179637D01*
X0377585Y0179869D01*
X0377670Y0180099D01*
X0377761Y0180327D01*
X0377858Y0180552D01*
X0377960Y0180776D01*
X0378068Y0180996D01*
X0378181Y0181214D01*
X0378299Y0181429D01*
X0378423Y0181641D01*
X0378551Y0181850D01*
X0378685Y0182056D01*
X0378824Y0182258D01*
X0378968Y0182457D01*
X0379117Y0182652D01*
X0379270Y0182844D01*
X0379428Y0183032D01*
X0379590Y0183216D01*
X0379758Y0183395D01*
X0379929Y0183571D01*
X0380105Y0183742D01*
X0380284Y0183910D01*
X0380468Y0184072D01*
X0380656Y0184230D01*
X0380848Y0184383D01*
X0381043Y0184532D01*
X0381242Y0184676D01*
X0381444Y0184815D01*
X0381650Y0184949D01*
X0381859Y0185077D01*
X0382071Y0185201D01*
X0382286Y0185319D01*
X0382504Y0185432D01*
X0382724Y0185540D01*
X0382948Y0185642D01*
X0383173Y0185739D01*
X0383401Y0185830D01*
X0383631Y0185915D01*
X0383863Y0185995D01*
X0384097Y0186069D01*
X0384333Y0186138D01*
X0384570Y0186200D01*
X0384809Y0186257D01*
X0385049Y0186308D01*
X0385290Y0186353D01*
X0385533Y0186392D01*
X0385776Y0186425D01*
X0386020Y0186452D01*
X0386264Y0186473D01*
X0386509Y0186488D01*
X0386755Y0186497D01*
X0387000Y0186500D01*
X0387245Y0186497D01*
X0387491Y0186488D01*
X0387736Y0186473D01*
X0387980Y0186452D01*
X0388224Y0186425D01*
X0388467Y0186392D01*
X0388710Y0186353D01*
X0388951Y0186308D01*
X0389191Y0186257D01*
X0389430Y0186200D01*
X0389667Y0186138D01*
X0389903Y0186069D01*
X0390137Y0185995D01*
X0390369Y0185915D01*
X0390599Y0185830D01*
X0390827Y0185739D01*
X0391052Y0185642D01*
X0391276Y0185540D01*
X0391496Y0185432D01*
X0391714Y0185319D01*
X0391929Y0185201D01*
X0392141Y0185077D01*
X0392350Y0184949D01*
X0392556Y0184815D01*
X0392758Y0184676D01*
X0392957Y0184532D01*
X0393152Y0184383D01*
X0393344Y0184230D01*
X0393532Y0184072D01*
X0393716Y0183910D01*
X0393895Y0183742D01*
X0394071Y0183571D01*
X0394242Y0183395D01*
X0394410Y0183216D01*
X0394572Y0183032D01*
X0394730Y0182844D01*
X0394883Y0182652D01*
X0395032Y0182457D01*
X0395176Y0182258D01*
X0395315Y0182056D01*
X0395449Y0181850D01*
X0395577Y0181641D01*
X0395701Y0181429D01*
X0395819Y0181214D01*
X0395932Y0180996D01*
X0396040Y0180776D01*
X0396142Y0180552D01*
X0396239Y0180327D01*
X0396330Y0180099D01*
X0396415Y0179869D01*
X0396495Y0179637D01*
X0396569Y0179403D01*
X0396638Y0179167D01*
X0396700Y0178930D01*
X0396757Y0178691D01*
X0396808Y0178451D01*
X0396853Y0178210D01*
X0396892Y0177967D01*
X0396925Y0177724D01*
X0396952Y0177480D01*
X0396973Y0177236D01*
X0396988Y0176991D01*
X0396997Y0176745D01*
X0397000Y0176500D01*
X0396997Y0176255D01*
X0396988Y0176009D01*
X0396973Y0175764D01*
X0396952Y0175520D01*
X0396925Y0175276D01*
X0396892Y0175033D01*
X0396853Y0174790D01*
X0396808Y0174549D01*
X0396757Y0174309D01*
X0396700Y0174070D01*
X0396638Y0173833D01*
X0396569Y0173597D01*
X0396495Y0173363D01*
X0396415Y0173131D01*
X0396330Y0172901D01*
X0396239Y0172673D01*
X0396142Y0172448D01*
X0396040Y0172224D01*
X0395932Y0172004D01*
X0395819Y0171786D01*
X0395701Y0171571D01*
X0395577Y0171359D01*
X0395449Y0171150D01*
X0395315Y0170944D01*
X0395176Y0170742D01*
X0395032Y0170543D01*
X0394883Y0170348D01*
X0394730Y0170156D01*
X0394572Y0169968D01*
X0394410Y0169784D01*
X0394242Y0169605D01*
X0394071Y0169429D01*
X0393895Y0169258D01*
X0393716Y0169090D01*
X0393532Y0168928D01*
X0393344Y0168770D01*
X0393152Y0168617D01*
X0392957Y0168468D01*
X0392758Y0168324D01*
X0392556Y0168185D01*
X0392350Y0168051D01*
X0392141Y0167923D01*
X0391929Y0167799D01*
X0391714Y0167681D01*
X0391496Y0167568D01*
X0391276Y0167460D01*
X0391052Y0167358D01*
X0390827Y0167261D01*
X0390599Y0167170D01*
X0390369Y0167085D01*
X0390137Y0167005D01*
X0389903Y0166931D01*
X0389667Y0166862D01*
X0389430Y0166800D01*
X0389191Y0166743D01*
X0388951Y0166692D01*
X0388710Y0166647D01*
X0388467Y0166608D01*
X0388224Y0166575D01*
X0387980Y0166548D01*
X0387736Y0166527D01*
X0387491Y0166512D01*
X0387245Y0166503D01*
X0387000Y0166500D01*
X0386755Y0166503D01*
X0386509Y0166512D01*
X0386264Y0166527D01*
X0386020Y0166548D01*
X0385776Y0166575D01*
X0385533Y0166608D01*
X0385290Y0166647D01*
X0385049Y0166692D01*
X0384809Y0166743D01*
X0384570Y0166800D01*
X0384333Y0166862D01*
X0384097Y0166931D01*
X0383863Y0167005D01*
X0383631Y0167085D01*
X0383401Y0167170D01*
X0383173Y0167261D01*
X0382948Y0167358D01*
X0382724Y0167460D01*
X0382504Y0167568D01*
X0382286Y0167681D01*
X0382071Y0167799D01*
X0381859Y0167923D01*
X0381650Y0168051D01*
X0381444Y0168185D01*
X0381242Y0168324D01*
X0381043Y0168468D01*
X0380848Y0168617D01*
X0380656Y0168770D01*
X0380468Y0168928D01*
X0380284Y0169090D01*
X0380105Y0169258D01*
X0379929Y0169429D01*
X0379758Y0169605D01*
X0379590Y0169784D01*
X0379428Y0169968D01*
X0379270Y0170156D01*
X0379117Y0170348D01*
X0378968Y0170543D01*
X0378824Y0170742D01*
X0378685Y0170944D01*
X0378551Y0171150D01*
X0378423Y0171359D01*
X0378299Y0171571D01*
X0378181Y0171786D01*
X0378068Y0172004D01*
X0377960Y0172224D01*
X0377858Y0172448D01*
X0377761Y0172673D01*
X0377670Y0172901D01*
X0377585Y0173131D01*
X0377505Y0173363D01*
X0377431Y0173597D01*
X0377362Y0173833D01*
X0377300Y0174070D01*
X0377243Y0174309D01*
X0377192Y0174549D01*
X0377147Y0174790D01*
X0377108Y0175033D01*
X0377075Y0175276D01*
X0377048Y0175520D01*
X0377027Y0175764D01*
X0377012Y0176009D01*
X0377003Y0176255D01*
X0377000Y0176500D01*
X0377000Y0146500D02*
X0377003Y0146745D01*
X0377012Y0146991D01*
X0377027Y0147236D01*
X0377048Y0147480D01*
X0377075Y0147724D01*
X0377108Y0147967D01*
X0377147Y0148210D01*
X0377192Y0148451D01*
X0377243Y0148691D01*
X0377300Y0148930D01*
X0377362Y0149167D01*
X0377431Y0149403D01*
X0377505Y0149637D01*
X0377585Y0149869D01*
X0377670Y0150099D01*
X0377761Y0150327D01*
X0377858Y0150552D01*
X0377960Y0150776D01*
X0378068Y0150996D01*
X0378181Y0151214D01*
X0378299Y0151429D01*
X0378423Y0151641D01*
X0378551Y0151850D01*
X0378685Y0152056D01*
X0378824Y0152258D01*
X0378968Y0152457D01*
X0379117Y0152652D01*
X0379270Y0152844D01*
X0379428Y0153032D01*
X0379590Y0153216D01*
X0379758Y0153395D01*
X0379929Y0153571D01*
X0380105Y0153742D01*
X0380284Y0153910D01*
X0380468Y0154072D01*
X0380656Y0154230D01*
X0380848Y0154383D01*
X0381043Y0154532D01*
X0381242Y0154676D01*
X0381444Y0154815D01*
X0381650Y0154949D01*
X0381859Y0155077D01*
X0382071Y0155201D01*
X0382286Y0155319D01*
X0382504Y0155432D01*
X0382724Y0155540D01*
X0382948Y0155642D01*
X0383173Y0155739D01*
X0383401Y0155830D01*
X0383631Y0155915D01*
X0383863Y0155995D01*
X0384097Y0156069D01*
X0384333Y0156138D01*
X0384570Y0156200D01*
X0384809Y0156257D01*
X0385049Y0156308D01*
X0385290Y0156353D01*
X0385533Y0156392D01*
X0385776Y0156425D01*
X0386020Y0156452D01*
X0386264Y0156473D01*
X0386509Y0156488D01*
X0386755Y0156497D01*
X0387000Y0156500D01*
X0387245Y0156497D01*
X0387491Y0156488D01*
X0387736Y0156473D01*
X0387980Y0156452D01*
X0388224Y0156425D01*
X0388467Y0156392D01*
X0388710Y0156353D01*
X0388951Y0156308D01*
X0389191Y0156257D01*
X0389430Y0156200D01*
X0389667Y0156138D01*
X0389903Y0156069D01*
X0390137Y0155995D01*
X0390369Y0155915D01*
X0390599Y0155830D01*
X0390827Y0155739D01*
X0391052Y0155642D01*
X0391276Y0155540D01*
X0391496Y0155432D01*
X0391714Y0155319D01*
X0391929Y0155201D01*
X0392141Y0155077D01*
X0392350Y0154949D01*
X0392556Y0154815D01*
X0392758Y0154676D01*
X0392957Y0154532D01*
X0393152Y0154383D01*
X0393344Y0154230D01*
X0393532Y0154072D01*
X0393716Y0153910D01*
X0393895Y0153742D01*
X0394071Y0153571D01*
X0394242Y0153395D01*
X0394410Y0153216D01*
X0394572Y0153032D01*
X0394730Y0152844D01*
X0394883Y0152652D01*
X0395032Y0152457D01*
X0395176Y0152258D01*
X0395315Y0152056D01*
X0395449Y0151850D01*
X0395577Y0151641D01*
X0395701Y0151429D01*
X0395819Y0151214D01*
X0395932Y0150996D01*
X0396040Y0150776D01*
X0396142Y0150552D01*
X0396239Y0150327D01*
X0396330Y0150099D01*
X0396415Y0149869D01*
X0396495Y0149637D01*
X0396569Y0149403D01*
X0396638Y0149167D01*
X0396700Y0148930D01*
X0396757Y0148691D01*
X0396808Y0148451D01*
X0396853Y0148210D01*
X0396892Y0147967D01*
X0396925Y0147724D01*
X0396952Y0147480D01*
X0396973Y0147236D01*
X0396988Y0146991D01*
X0396997Y0146745D01*
X0397000Y0146500D01*
X0396997Y0146255D01*
X0396988Y0146009D01*
X0396973Y0145764D01*
X0396952Y0145520D01*
X0396925Y0145276D01*
X0396892Y0145033D01*
X0396853Y0144790D01*
X0396808Y0144549D01*
X0396757Y0144309D01*
X0396700Y0144070D01*
X0396638Y0143833D01*
X0396569Y0143597D01*
X0396495Y0143363D01*
X0396415Y0143131D01*
X0396330Y0142901D01*
X0396239Y0142673D01*
X0396142Y0142448D01*
X0396040Y0142224D01*
X0395932Y0142004D01*
X0395819Y0141786D01*
X0395701Y0141571D01*
X0395577Y0141359D01*
X0395449Y0141150D01*
X0395315Y0140944D01*
X0395176Y0140742D01*
X0395032Y0140543D01*
X0394883Y0140348D01*
X0394730Y0140156D01*
X0394572Y0139968D01*
X0394410Y0139784D01*
X0394242Y0139605D01*
X0394071Y0139429D01*
X0393895Y0139258D01*
X0393716Y0139090D01*
X0393532Y0138928D01*
X0393344Y0138770D01*
X0393152Y0138617D01*
X0392957Y0138468D01*
X0392758Y0138324D01*
X0392556Y0138185D01*
X0392350Y0138051D01*
X0392141Y0137923D01*
X0391929Y0137799D01*
X0391714Y0137681D01*
X0391496Y0137568D01*
X0391276Y0137460D01*
X0391052Y0137358D01*
X0390827Y0137261D01*
X0390599Y0137170D01*
X0390369Y0137085D01*
X0390137Y0137005D01*
X0389903Y0136931D01*
X0389667Y0136862D01*
X0389430Y0136800D01*
X0389191Y0136743D01*
X0388951Y0136692D01*
X0388710Y0136647D01*
X0388467Y0136608D01*
X0388224Y0136575D01*
X0387980Y0136548D01*
X0387736Y0136527D01*
X0387491Y0136512D01*
X0387245Y0136503D01*
X0387000Y0136500D01*
X0386755Y0136503D01*
X0386509Y0136512D01*
X0386264Y0136527D01*
X0386020Y0136548D01*
X0385776Y0136575D01*
X0385533Y0136608D01*
X0385290Y0136647D01*
X0385049Y0136692D01*
X0384809Y0136743D01*
X0384570Y0136800D01*
X0384333Y0136862D01*
X0384097Y0136931D01*
X0383863Y0137005D01*
X0383631Y0137085D01*
X0383401Y0137170D01*
X0383173Y0137261D01*
X0382948Y0137358D01*
X0382724Y0137460D01*
X0382504Y0137568D01*
X0382286Y0137681D01*
X0382071Y0137799D01*
X0381859Y0137923D01*
X0381650Y0138051D01*
X0381444Y0138185D01*
X0381242Y0138324D01*
X0381043Y0138468D01*
X0380848Y0138617D01*
X0380656Y0138770D01*
X0380468Y0138928D01*
X0380284Y0139090D01*
X0380105Y0139258D01*
X0379929Y0139429D01*
X0379758Y0139605D01*
X0379590Y0139784D01*
X0379428Y0139968D01*
X0379270Y0140156D01*
X0379117Y0140348D01*
X0378968Y0140543D01*
X0378824Y0140742D01*
X0378685Y0140944D01*
X0378551Y0141150D01*
X0378423Y0141359D01*
X0378299Y0141571D01*
X0378181Y0141786D01*
X0378068Y0142004D01*
X0377960Y0142224D01*
X0377858Y0142448D01*
X0377761Y0142673D01*
X0377670Y0142901D01*
X0377585Y0143131D01*
X0377505Y0143363D01*
X0377431Y0143597D01*
X0377362Y0143833D01*
X0377300Y0144070D01*
X0377243Y0144309D01*
X0377192Y0144549D01*
X0377147Y0144790D01*
X0377108Y0145033D01*
X0377075Y0145276D01*
X0377048Y0145520D01*
X0377027Y0145764D01*
X0377012Y0146009D01*
X0377003Y0146255D01*
X0377000Y0146500D01*
X0377000Y0116500D02*
X0377003Y0116745D01*
X0377012Y0116991D01*
X0377027Y0117236D01*
X0377048Y0117480D01*
X0377075Y0117724D01*
X0377108Y0117967D01*
X0377147Y0118210D01*
X0377192Y0118451D01*
X0377243Y0118691D01*
X0377300Y0118930D01*
X0377362Y0119167D01*
X0377431Y0119403D01*
X0377505Y0119637D01*
X0377585Y0119869D01*
X0377670Y0120099D01*
X0377761Y0120327D01*
X0377858Y0120552D01*
X0377960Y0120776D01*
X0378068Y0120996D01*
X0378181Y0121214D01*
X0378299Y0121429D01*
X0378423Y0121641D01*
X0378551Y0121850D01*
X0378685Y0122056D01*
X0378824Y0122258D01*
X0378968Y0122457D01*
X0379117Y0122652D01*
X0379270Y0122844D01*
X0379428Y0123032D01*
X0379590Y0123216D01*
X0379758Y0123395D01*
X0379929Y0123571D01*
X0380105Y0123742D01*
X0380284Y0123910D01*
X0380468Y0124072D01*
X0380656Y0124230D01*
X0380848Y0124383D01*
X0381043Y0124532D01*
X0381242Y0124676D01*
X0381444Y0124815D01*
X0381650Y0124949D01*
X0381859Y0125077D01*
X0382071Y0125201D01*
X0382286Y0125319D01*
X0382504Y0125432D01*
X0382724Y0125540D01*
X0382948Y0125642D01*
X0383173Y0125739D01*
X0383401Y0125830D01*
X0383631Y0125915D01*
X0383863Y0125995D01*
X0384097Y0126069D01*
X0384333Y0126138D01*
X0384570Y0126200D01*
X0384809Y0126257D01*
X0385049Y0126308D01*
X0385290Y0126353D01*
X0385533Y0126392D01*
X0385776Y0126425D01*
X0386020Y0126452D01*
X0386264Y0126473D01*
X0386509Y0126488D01*
X0386755Y0126497D01*
X0387000Y0126500D01*
X0387245Y0126497D01*
X0387491Y0126488D01*
X0387736Y0126473D01*
X0387980Y0126452D01*
X0388224Y0126425D01*
X0388467Y0126392D01*
X0388710Y0126353D01*
X0388951Y0126308D01*
X0389191Y0126257D01*
X0389430Y0126200D01*
X0389667Y0126138D01*
X0389903Y0126069D01*
X0390137Y0125995D01*
X0390369Y0125915D01*
X0390599Y0125830D01*
X0390827Y0125739D01*
X0391052Y0125642D01*
X0391276Y0125540D01*
X0391496Y0125432D01*
X0391714Y0125319D01*
X0391929Y0125201D01*
X0392141Y0125077D01*
X0392350Y0124949D01*
X0392556Y0124815D01*
X0392758Y0124676D01*
X0392957Y0124532D01*
X0393152Y0124383D01*
X0393344Y0124230D01*
X0393532Y0124072D01*
X0393716Y0123910D01*
X0393895Y0123742D01*
X0394071Y0123571D01*
X0394242Y0123395D01*
X0394410Y0123216D01*
X0394572Y0123032D01*
X0394730Y0122844D01*
X0394883Y0122652D01*
X0395032Y0122457D01*
X0395176Y0122258D01*
X0395315Y0122056D01*
X0395449Y0121850D01*
X0395577Y0121641D01*
X0395701Y0121429D01*
X0395819Y0121214D01*
X0395932Y0120996D01*
X0396040Y0120776D01*
X0396142Y0120552D01*
X0396239Y0120327D01*
X0396330Y0120099D01*
X0396415Y0119869D01*
X0396495Y0119637D01*
X0396569Y0119403D01*
X0396638Y0119167D01*
X0396700Y0118930D01*
X0396757Y0118691D01*
X0396808Y0118451D01*
X0396853Y0118210D01*
X0396892Y0117967D01*
X0396925Y0117724D01*
X0396952Y0117480D01*
X0396973Y0117236D01*
X0396988Y0116991D01*
X0396997Y0116745D01*
X0397000Y0116500D01*
X0396997Y0116255D01*
X0396988Y0116009D01*
X0396973Y0115764D01*
X0396952Y0115520D01*
X0396925Y0115276D01*
X0396892Y0115033D01*
X0396853Y0114790D01*
X0396808Y0114549D01*
X0396757Y0114309D01*
X0396700Y0114070D01*
X0396638Y0113833D01*
X0396569Y0113597D01*
X0396495Y0113363D01*
X0396415Y0113131D01*
X0396330Y0112901D01*
X0396239Y0112673D01*
X0396142Y0112448D01*
X0396040Y0112224D01*
X0395932Y0112004D01*
X0395819Y0111786D01*
X0395701Y0111571D01*
X0395577Y0111359D01*
X0395449Y0111150D01*
X0395315Y0110944D01*
X0395176Y0110742D01*
X0395032Y0110543D01*
X0394883Y0110348D01*
X0394730Y0110156D01*
X0394572Y0109968D01*
X0394410Y0109784D01*
X0394242Y0109605D01*
X0394071Y0109429D01*
X0393895Y0109258D01*
X0393716Y0109090D01*
X0393532Y0108928D01*
X0393344Y0108770D01*
X0393152Y0108617D01*
X0392957Y0108468D01*
X0392758Y0108324D01*
X0392556Y0108185D01*
X0392350Y0108051D01*
X0392141Y0107923D01*
X0391929Y0107799D01*
X0391714Y0107681D01*
X0391496Y0107568D01*
X0391276Y0107460D01*
X0391052Y0107358D01*
X0390827Y0107261D01*
X0390599Y0107170D01*
X0390369Y0107085D01*
X0390137Y0107005D01*
X0389903Y0106931D01*
X0389667Y0106862D01*
X0389430Y0106800D01*
X0389191Y0106743D01*
X0388951Y0106692D01*
X0388710Y0106647D01*
X0388467Y0106608D01*
X0388224Y0106575D01*
X0387980Y0106548D01*
X0387736Y0106527D01*
X0387491Y0106512D01*
X0387245Y0106503D01*
X0387000Y0106500D01*
X0386755Y0106503D01*
X0386509Y0106512D01*
X0386264Y0106527D01*
X0386020Y0106548D01*
X0385776Y0106575D01*
X0385533Y0106608D01*
X0385290Y0106647D01*
X0385049Y0106692D01*
X0384809Y0106743D01*
X0384570Y0106800D01*
X0384333Y0106862D01*
X0384097Y0106931D01*
X0383863Y0107005D01*
X0383631Y0107085D01*
X0383401Y0107170D01*
X0383173Y0107261D01*
X0382948Y0107358D01*
X0382724Y0107460D01*
X0382504Y0107568D01*
X0382286Y0107681D01*
X0382071Y0107799D01*
X0381859Y0107923D01*
X0381650Y0108051D01*
X0381444Y0108185D01*
X0381242Y0108324D01*
X0381043Y0108468D01*
X0380848Y0108617D01*
X0380656Y0108770D01*
X0380468Y0108928D01*
X0380284Y0109090D01*
X0380105Y0109258D01*
X0379929Y0109429D01*
X0379758Y0109605D01*
X0379590Y0109784D01*
X0379428Y0109968D01*
X0379270Y0110156D01*
X0379117Y0110348D01*
X0378968Y0110543D01*
X0378824Y0110742D01*
X0378685Y0110944D01*
X0378551Y0111150D01*
X0378423Y0111359D01*
X0378299Y0111571D01*
X0378181Y0111786D01*
X0378068Y0112004D01*
X0377960Y0112224D01*
X0377858Y0112448D01*
X0377761Y0112673D01*
X0377670Y0112901D01*
X0377585Y0113131D01*
X0377505Y0113363D01*
X0377431Y0113597D01*
X0377362Y0113833D01*
X0377300Y0114070D01*
X0377243Y0114309D01*
X0377192Y0114549D01*
X0377147Y0114790D01*
X0377108Y0115033D01*
X0377075Y0115276D01*
X0377048Y0115520D01*
X0377027Y0115764D01*
X0377012Y0116009D01*
X0377003Y0116255D01*
X0377000Y0116500D01*
X0377000Y0086500D02*
X0377003Y0086745D01*
X0377012Y0086991D01*
X0377027Y0087236D01*
X0377048Y0087480D01*
X0377075Y0087724D01*
X0377108Y0087967D01*
X0377147Y0088210D01*
X0377192Y0088451D01*
X0377243Y0088691D01*
X0377300Y0088930D01*
X0377362Y0089167D01*
X0377431Y0089403D01*
X0377505Y0089637D01*
X0377585Y0089869D01*
X0377670Y0090099D01*
X0377761Y0090327D01*
X0377858Y0090552D01*
X0377960Y0090776D01*
X0378068Y0090996D01*
X0378181Y0091214D01*
X0378299Y0091429D01*
X0378423Y0091641D01*
X0378551Y0091850D01*
X0378685Y0092056D01*
X0378824Y0092258D01*
X0378968Y0092457D01*
X0379117Y0092652D01*
X0379270Y0092844D01*
X0379428Y0093032D01*
X0379590Y0093216D01*
X0379758Y0093395D01*
X0379929Y0093571D01*
X0380105Y0093742D01*
X0380284Y0093910D01*
X0380468Y0094072D01*
X0380656Y0094230D01*
X0380848Y0094383D01*
X0381043Y0094532D01*
X0381242Y0094676D01*
X0381444Y0094815D01*
X0381650Y0094949D01*
X0381859Y0095077D01*
X0382071Y0095201D01*
X0382286Y0095319D01*
X0382504Y0095432D01*
X0382724Y0095540D01*
X0382948Y0095642D01*
X0383173Y0095739D01*
X0383401Y0095830D01*
X0383631Y0095915D01*
X0383863Y0095995D01*
X0384097Y0096069D01*
X0384333Y0096138D01*
X0384570Y0096200D01*
X0384809Y0096257D01*
X0385049Y0096308D01*
X0385290Y0096353D01*
X0385533Y0096392D01*
X0385776Y0096425D01*
X0386020Y0096452D01*
X0386264Y0096473D01*
X0386509Y0096488D01*
X0386755Y0096497D01*
X0387000Y0096500D01*
X0387245Y0096497D01*
X0387491Y0096488D01*
X0387736Y0096473D01*
X0387980Y0096452D01*
X0388224Y0096425D01*
X0388467Y0096392D01*
X0388710Y0096353D01*
X0388951Y0096308D01*
X0389191Y0096257D01*
X0389430Y0096200D01*
X0389667Y0096138D01*
X0389903Y0096069D01*
X0390137Y0095995D01*
X0390369Y0095915D01*
X0390599Y0095830D01*
X0390827Y0095739D01*
X0391052Y0095642D01*
X0391276Y0095540D01*
X0391496Y0095432D01*
X0391714Y0095319D01*
X0391929Y0095201D01*
X0392141Y0095077D01*
X0392350Y0094949D01*
X0392556Y0094815D01*
X0392758Y0094676D01*
X0392957Y0094532D01*
X0393152Y0094383D01*
X0393344Y0094230D01*
X0393532Y0094072D01*
X0393716Y0093910D01*
X0393895Y0093742D01*
X0394071Y0093571D01*
X0394242Y0093395D01*
X0394410Y0093216D01*
X0394572Y0093032D01*
X0394730Y0092844D01*
X0394883Y0092652D01*
X0395032Y0092457D01*
X0395176Y0092258D01*
X0395315Y0092056D01*
X0395449Y0091850D01*
X0395577Y0091641D01*
X0395701Y0091429D01*
X0395819Y0091214D01*
X0395932Y0090996D01*
X0396040Y0090776D01*
X0396142Y0090552D01*
X0396239Y0090327D01*
X0396330Y0090099D01*
X0396415Y0089869D01*
X0396495Y0089637D01*
X0396569Y0089403D01*
X0396638Y0089167D01*
X0396700Y0088930D01*
X0396757Y0088691D01*
X0396808Y0088451D01*
X0396853Y0088210D01*
X0396892Y0087967D01*
X0396925Y0087724D01*
X0396952Y0087480D01*
X0396973Y0087236D01*
X0396988Y0086991D01*
X0396997Y0086745D01*
X0397000Y0086500D01*
X0396997Y0086255D01*
X0396988Y0086009D01*
X0396973Y0085764D01*
X0396952Y0085520D01*
X0396925Y0085276D01*
X0396892Y0085033D01*
X0396853Y0084790D01*
X0396808Y0084549D01*
X0396757Y0084309D01*
X0396700Y0084070D01*
X0396638Y0083833D01*
X0396569Y0083597D01*
X0396495Y0083363D01*
X0396415Y0083131D01*
X0396330Y0082901D01*
X0396239Y0082673D01*
X0396142Y0082448D01*
X0396040Y0082224D01*
X0395932Y0082004D01*
X0395819Y0081786D01*
X0395701Y0081571D01*
X0395577Y0081359D01*
X0395449Y0081150D01*
X0395315Y0080944D01*
X0395176Y0080742D01*
X0395032Y0080543D01*
X0394883Y0080348D01*
X0394730Y0080156D01*
X0394572Y0079968D01*
X0394410Y0079784D01*
X0394242Y0079605D01*
X0394071Y0079429D01*
X0393895Y0079258D01*
X0393716Y0079090D01*
X0393532Y0078928D01*
X0393344Y0078770D01*
X0393152Y0078617D01*
X0392957Y0078468D01*
X0392758Y0078324D01*
X0392556Y0078185D01*
X0392350Y0078051D01*
X0392141Y0077923D01*
X0391929Y0077799D01*
X0391714Y0077681D01*
X0391496Y0077568D01*
X0391276Y0077460D01*
X0391052Y0077358D01*
X0390827Y0077261D01*
X0390599Y0077170D01*
X0390369Y0077085D01*
X0390137Y0077005D01*
X0389903Y0076931D01*
X0389667Y0076862D01*
X0389430Y0076800D01*
X0389191Y0076743D01*
X0388951Y0076692D01*
X0388710Y0076647D01*
X0388467Y0076608D01*
X0388224Y0076575D01*
X0387980Y0076548D01*
X0387736Y0076527D01*
X0387491Y0076512D01*
X0387245Y0076503D01*
X0387000Y0076500D01*
X0386755Y0076503D01*
X0386509Y0076512D01*
X0386264Y0076527D01*
X0386020Y0076548D01*
X0385776Y0076575D01*
X0385533Y0076608D01*
X0385290Y0076647D01*
X0385049Y0076692D01*
X0384809Y0076743D01*
X0384570Y0076800D01*
X0384333Y0076862D01*
X0384097Y0076931D01*
X0383863Y0077005D01*
X0383631Y0077085D01*
X0383401Y0077170D01*
X0383173Y0077261D01*
X0382948Y0077358D01*
X0382724Y0077460D01*
X0382504Y0077568D01*
X0382286Y0077681D01*
X0382071Y0077799D01*
X0381859Y0077923D01*
X0381650Y0078051D01*
X0381444Y0078185D01*
X0381242Y0078324D01*
X0381043Y0078468D01*
X0380848Y0078617D01*
X0380656Y0078770D01*
X0380468Y0078928D01*
X0380284Y0079090D01*
X0380105Y0079258D01*
X0379929Y0079429D01*
X0379758Y0079605D01*
X0379590Y0079784D01*
X0379428Y0079968D01*
X0379270Y0080156D01*
X0379117Y0080348D01*
X0378968Y0080543D01*
X0378824Y0080742D01*
X0378685Y0080944D01*
X0378551Y0081150D01*
X0378423Y0081359D01*
X0378299Y0081571D01*
X0378181Y0081786D01*
X0378068Y0082004D01*
X0377960Y0082224D01*
X0377858Y0082448D01*
X0377761Y0082673D01*
X0377670Y0082901D01*
X0377585Y0083131D01*
X0377505Y0083363D01*
X0377431Y0083597D01*
X0377362Y0083833D01*
X0377300Y0084070D01*
X0377243Y0084309D01*
X0377192Y0084549D01*
X0377147Y0084790D01*
X0377108Y0085033D01*
X0377075Y0085276D01*
X0377048Y0085520D01*
X0377027Y0085764D01*
X0377012Y0086009D01*
X0377003Y0086255D01*
X0377000Y0086500D01*
D16*
X0377000Y0094000D02*
X0377000Y0079000D01*
X0354717Y0080004D02*
X0354717Y0092996D01*
X0319283Y0092996D01*
X0319283Y0080004D01*
X0354717Y0080004D01*
X0354717Y0072996D02*
X0354717Y0060004D01*
X0319283Y0060004D01*
X0319283Y0072996D01*
X0354717Y0072996D01*
X0372315Y0060122D02*
X0376252Y0060122D01*
X0372315Y0060122D02*
X0372191Y0060120D01*
X0372068Y0060114D01*
X0371944Y0060105D01*
X0371822Y0060091D01*
X0371699Y0060074D01*
X0371577Y0060052D01*
X0371456Y0060027D01*
X0371336Y0059998D01*
X0371217Y0059966D01*
X0371098Y0059929D01*
X0370981Y0059889D01*
X0370866Y0059846D01*
X0370751Y0059798D01*
X0370639Y0059747D01*
X0370528Y0059693D01*
X0370418Y0059635D01*
X0370311Y0059574D01*
X0370205Y0059509D01*
X0370102Y0059441D01*
X0370001Y0059370D01*
X0369902Y0059296D01*
X0369805Y0059219D01*
X0369711Y0059138D01*
X0369620Y0059055D01*
X0369531Y0058969D01*
X0369445Y0058880D01*
X0369362Y0058789D01*
X0369281Y0058695D01*
X0369204Y0058598D01*
X0369130Y0058499D01*
X0369059Y0058398D01*
X0368991Y0058295D01*
X0368926Y0058189D01*
X0368865Y0058082D01*
X0368807Y0057972D01*
X0368753Y0057861D01*
X0368702Y0057749D01*
X0368654Y0057634D01*
X0368611Y0057519D01*
X0368571Y0057402D01*
X0368534Y0057283D01*
X0368502Y0057164D01*
X0368473Y0057044D01*
X0368448Y0056923D01*
X0368426Y0056801D01*
X0368409Y0056678D01*
X0368395Y0056556D01*
X0368386Y0056432D01*
X0368380Y0056309D01*
X0368378Y0056185D01*
X0368378Y0016815D01*
X0368380Y0016691D01*
X0368386Y0016568D01*
X0368395Y0016444D01*
X0368409Y0016322D01*
X0368426Y0016199D01*
X0368448Y0016077D01*
X0368473Y0015956D01*
X0368502Y0015836D01*
X0368534Y0015717D01*
X0368571Y0015598D01*
X0368611Y0015481D01*
X0368654Y0015366D01*
X0368702Y0015251D01*
X0368753Y0015139D01*
X0368807Y0015028D01*
X0368865Y0014918D01*
X0368926Y0014811D01*
X0368991Y0014705D01*
X0369059Y0014602D01*
X0369130Y0014501D01*
X0369204Y0014402D01*
X0369281Y0014305D01*
X0369362Y0014211D01*
X0369445Y0014120D01*
X0369531Y0014031D01*
X0369620Y0013945D01*
X0369711Y0013862D01*
X0369805Y0013781D01*
X0369902Y0013704D01*
X0370001Y0013630D01*
X0370102Y0013559D01*
X0370205Y0013491D01*
X0370311Y0013426D01*
X0370418Y0013365D01*
X0370528Y0013307D01*
X0370639Y0013253D01*
X0370751Y0013202D01*
X0370866Y0013154D01*
X0370981Y0013111D01*
X0371098Y0013071D01*
X0371217Y0013034D01*
X0371336Y0013002D01*
X0371456Y0012973D01*
X0371577Y0012948D01*
X0371699Y0012926D01*
X0371822Y0012909D01*
X0371944Y0012895D01*
X0372068Y0012886D01*
X0372191Y0012880D01*
X0372315Y0012878D01*
X0376252Y0012878D01*
X0388063Y0012878D02*
X0395937Y0012878D01*
X0407748Y0012878D02*
X0411685Y0012878D01*
X0411809Y0012880D01*
X0411932Y0012886D01*
X0412056Y0012895D01*
X0412178Y0012909D01*
X0412301Y0012926D01*
X0412423Y0012948D01*
X0412544Y0012973D01*
X0412664Y0013002D01*
X0412783Y0013034D01*
X0412902Y0013071D01*
X0413019Y0013111D01*
X0413134Y0013154D01*
X0413249Y0013202D01*
X0413361Y0013253D01*
X0413472Y0013307D01*
X0413582Y0013365D01*
X0413689Y0013426D01*
X0413795Y0013491D01*
X0413898Y0013559D01*
X0413999Y0013630D01*
X0414098Y0013704D01*
X0414195Y0013781D01*
X0414289Y0013862D01*
X0414380Y0013945D01*
X0414469Y0014031D01*
X0414555Y0014120D01*
X0414638Y0014211D01*
X0414719Y0014305D01*
X0414796Y0014402D01*
X0414870Y0014501D01*
X0414941Y0014602D01*
X0415009Y0014705D01*
X0415074Y0014811D01*
X0415135Y0014918D01*
X0415193Y0015028D01*
X0415247Y0015139D01*
X0415298Y0015251D01*
X0415346Y0015366D01*
X0415389Y0015481D01*
X0415429Y0015598D01*
X0415466Y0015717D01*
X0415498Y0015836D01*
X0415527Y0015956D01*
X0415552Y0016077D01*
X0415574Y0016199D01*
X0415591Y0016322D01*
X0415605Y0016444D01*
X0415614Y0016568D01*
X0415620Y0016691D01*
X0415622Y0016815D01*
X0415622Y0056185D01*
X0415620Y0056309D01*
X0415614Y0056432D01*
X0415605Y0056556D01*
X0415591Y0056678D01*
X0415574Y0056801D01*
X0415552Y0056923D01*
X0415527Y0057044D01*
X0415498Y0057164D01*
X0415466Y0057283D01*
X0415429Y0057402D01*
X0415389Y0057519D01*
X0415346Y0057634D01*
X0415298Y0057749D01*
X0415247Y0057861D01*
X0415193Y0057972D01*
X0415135Y0058082D01*
X0415074Y0058189D01*
X0415009Y0058295D01*
X0414941Y0058398D01*
X0414870Y0058499D01*
X0414796Y0058598D01*
X0414719Y0058695D01*
X0414638Y0058789D01*
X0414555Y0058880D01*
X0414469Y0058969D01*
X0414380Y0059055D01*
X0414289Y0059138D01*
X0414195Y0059219D01*
X0414098Y0059296D01*
X0413999Y0059370D01*
X0413898Y0059441D01*
X0413795Y0059509D01*
X0413689Y0059574D01*
X0413582Y0059635D01*
X0413472Y0059693D01*
X0413361Y0059747D01*
X0413249Y0059798D01*
X0413134Y0059846D01*
X0413019Y0059889D01*
X0412902Y0059929D01*
X0412783Y0059966D01*
X0412664Y0059998D01*
X0412544Y0060027D01*
X0412423Y0060052D01*
X0412301Y0060074D01*
X0412178Y0060091D01*
X0412056Y0060105D01*
X0411932Y0060114D01*
X0411809Y0060120D01*
X0411685Y0060122D01*
X0407748Y0060122D01*
X0395937Y0060122D02*
X0388063Y0060122D01*
X0378220Y0036500D02*
X0378224Y0036838D01*
X0378237Y0037176D01*
X0378257Y0037514D01*
X0378286Y0037851D01*
X0378324Y0038187D01*
X0378369Y0038522D01*
X0378423Y0038856D01*
X0378485Y0039188D01*
X0378555Y0039519D01*
X0378633Y0039848D01*
X0378719Y0040175D01*
X0378813Y0040500D01*
X0378916Y0040823D01*
X0379026Y0041142D01*
X0379143Y0041459D01*
X0379269Y0041773D01*
X0379402Y0042084D01*
X0379543Y0042392D01*
X0379691Y0042696D01*
X0379847Y0042996D01*
X0380010Y0043292D01*
X0380180Y0043584D01*
X0380358Y0043872D01*
X0380542Y0044156D01*
X0380734Y0044435D01*
X0380932Y0044709D01*
X0381137Y0044978D01*
X0381348Y0045242D01*
X0381566Y0045501D01*
X0381790Y0045754D01*
X0382020Y0046002D01*
X0382256Y0046244D01*
X0382498Y0046480D01*
X0382746Y0046710D01*
X0382999Y0046934D01*
X0383258Y0047152D01*
X0383522Y0047363D01*
X0383791Y0047568D01*
X0384065Y0047766D01*
X0384344Y0047958D01*
X0384628Y0048142D01*
X0384916Y0048320D01*
X0385208Y0048490D01*
X0385504Y0048653D01*
X0385804Y0048809D01*
X0386108Y0048957D01*
X0386416Y0049098D01*
X0386727Y0049231D01*
X0387041Y0049357D01*
X0387358Y0049474D01*
X0387677Y0049584D01*
X0388000Y0049687D01*
X0388325Y0049781D01*
X0388652Y0049867D01*
X0388981Y0049945D01*
X0389312Y0050015D01*
X0389644Y0050077D01*
X0389978Y0050131D01*
X0390313Y0050176D01*
X0390649Y0050214D01*
X0390986Y0050243D01*
X0391324Y0050263D01*
X0391662Y0050276D01*
X0392000Y0050280D01*
X0392338Y0050276D01*
X0392676Y0050263D01*
X0393014Y0050243D01*
X0393351Y0050214D01*
X0393687Y0050176D01*
X0394022Y0050131D01*
X0394356Y0050077D01*
X0394688Y0050015D01*
X0395019Y0049945D01*
X0395348Y0049867D01*
X0395675Y0049781D01*
X0396000Y0049687D01*
X0396323Y0049584D01*
X0396642Y0049474D01*
X0396959Y0049357D01*
X0397273Y0049231D01*
X0397584Y0049098D01*
X0397892Y0048957D01*
X0398196Y0048809D01*
X0398496Y0048653D01*
X0398792Y0048490D01*
X0399084Y0048320D01*
X0399372Y0048142D01*
X0399656Y0047958D01*
X0399935Y0047766D01*
X0400209Y0047568D01*
X0400478Y0047363D01*
X0400742Y0047152D01*
X0401001Y0046934D01*
X0401254Y0046710D01*
X0401502Y0046480D01*
X0401744Y0046244D01*
X0401980Y0046002D01*
X0402210Y0045754D01*
X0402434Y0045501D01*
X0402652Y0045242D01*
X0402863Y0044978D01*
X0403068Y0044709D01*
X0403266Y0044435D01*
X0403458Y0044156D01*
X0403642Y0043872D01*
X0403820Y0043584D01*
X0403990Y0043292D01*
X0404153Y0042996D01*
X0404309Y0042696D01*
X0404457Y0042392D01*
X0404598Y0042084D01*
X0404731Y0041773D01*
X0404857Y0041459D01*
X0404974Y0041142D01*
X0405084Y0040823D01*
X0405187Y0040500D01*
X0405281Y0040175D01*
X0405367Y0039848D01*
X0405445Y0039519D01*
X0405515Y0039188D01*
X0405577Y0038856D01*
X0405631Y0038522D01*
X0405676Y0038187D01*
X0405714Y0037851D01*
X0405743Y0037514D01*
X0405763Y0037176D01*
X0405776Y0036838D01*
X0405780Y0036500D01*
X0405776Y0036162D01*
X0405763Y0035824D01*
X0405743Y0035486D01*
X0405714Y0035149D01*
X0405676Y0034813D01*
X0405631Y0034478D01*
X0405577Y0034144D01*
X0405515Y0033812D01*
X0405445Y0033481D01*
X0405367Y0033152D01*
X0405281Y0032825D01*
X0405187Y0032500D01*
X0405084Y0032177D01*
X0404974Y0031858D01*
X0404857Y0031541D01*
X0404731Y0031227D01*
X0404598Y0030916D01*
X0404457Y0030608D01*
X0404309Y0030304D01*
X0404153Y0030004D01*
X0403990Y0029708D01*
X0403820Y0029416D01*
X0403642Y0029128D01*
X0403458Y0028844D01*
X0403266Y0028565D01*
X0403068Y0028291D01*
X0402863Y0028022D01*
X0402652Y0027758D01*
X0402434Y0027499D01*
X0402210Y0027246D01*
X0401980Y0026998D01*
X0401744Y0026756D01*
X0401502Y0026520D01*
X0401254Y0026290D01*
X0401001Y0026066D01*
X0400742Y0025848D01*
X0400478Y0025637D01*
X0400209Y0025432D01*
X0399935Y0025234D01*
X0399656Y0025042D01*
X0399372Y0024858D01*
X0399084Y0024680D01*
X0398792Y0024510D01*
X0398496Y0024347D01*
X0398196Y0024191D01*
X0397892Y0024043D01*
X0397584Y0023902D01*
X0397273Y0023769D01*
X0396959Y0023643D01*
X0396642Y0023526D01*
X0396323Y0023416D01*
X0396000Y0023313D01*
X0395675Y0023219D01*
X0395348Y0023133D01*
X0395019Y0023055D01*
X0394688Y0022985D01*
X0394356Y0022923D01*
X0394022Y0022869D01*
X0393687Y0022824D01*
X0393351Y0022786D01*
X0393014Y0022757D01*
X0392676Y0022737D01*
X0392338Y0022724D01*
X0392000Y0022720D01*
X0391662Y0022724D01*
X0391324Y0022737D01*
X0390986Y0022757D01*
X0390649Y0022786D01*
X0390313Y0022824D01*
X0389978Y0022869D01*
X0389644Y0022923D01*
X0389312Y0022985D01*
X0388981Y0023055D01*
X0388652Y0023133D01*
X0388325Y0023219D01*
X0388000Y0023313D01*
X0387677Y0023416D01*
X0387358Y0023526D01*
X0387041Y0023643D01*
X0386727Y0023769D01*
X0386416Y0023902D01*
X0386108Y0024043D01*
X0385804Y0024191D01*
X0385504Y0024347D01*
X0385208Y0024510D01*
X0384916Y0024680D01*
X0384628Y0024858D01*
X0384344Y0025042D01*
X0384065Y0025234D01*
X0383791Y0025432D01*
X0383522Y0025637D01*
X0383258Y0025848D01*
X0382999Y0026066D01*
X0382746Y0026290D01*
X0382498Y0026520D01*
X0382256Y0026756D01*
X0382020Y0026998D01*
X0381790Y0027246D01*
X0381566Y0027499D01*
X0381348Y0027758D01*
X0381137Y0028022D01*
X0380932Y0028291D01*
X0380734Y0028565D01*
X0380542Y0028844D01*
X0380358Y0029128D01*
X0380180Y0029416D01*
X0380010Y0029708D01*
X0379847Y0030004D01*
X0379691Y0030304D01*
X0379543Y0030608D01*
X0379402Y0030916D01*
X0379269Y0031227D01*
X0379143Y0031541D01*
X0379026Y0031858D01*
X0378916Y0032177D01*
X0378813Y0032500D01*
X0378719Y0032825D01*
X0378633Y0033152D01*
X0378555Y0033481D01*
X0378485Y0033812D01*
X0378423Y0034144D01*
X0378369Y0034478D01*
X0378324Y0034813D01*
X0378286Y0035149D01*
X0378257Y0035486D01*
X0378237Y0035824D01*
X0378224Y0036162D01*
X0378220Y0036500D01*
X0354717Y0100004D02*
X0319283Y0100004D01*
X0319283Y0112996D01*
X0354717Y0112996D01*
X0354717Y0100004D01*
X0377000Y0109000D02*
X0377000Y0124000D01*
X0377000Y0139000D02*
X0377000Y0154000D01*
X0377000Y0169000D02*
X0377000Y0184000D01*
X0379413Y0194965D02*
X0364587Y0194965D01*
X0364587Y0201067D01*
X0379413Y0201067D01*
X0379413Y0194965D01*
X0401370Y0194965D01*
X0401370Y0228035D01*
X0379445Y0228035D01*
X0379445Y0226854D01*
X0373622Y0226854D01*
X0373622Y0228035D01*
X0354413Y0228035D01*
X0339587Y0228035D01*
X0339587Y0221933D01*
X0354413Y0221933D01*
X0354413Y0228035D01*
X0354413Y0224394D02*
X0396941Y0224394D01*
X0396941Y0198606D01*
X0379441Y0198606D01*
X0364579Y0198606D02*
X0329421Y0198606D01*
X0329413Y0201067D02*
X0329413Y0194965D01*
X0314587Y0194965D01*
X0314587Y0201067D01*
X0329413Y0201067D01*
X0329413Y0194965D02*
X0364587Y0194965D01*
X0339587Y0224394D02*
X0297059Y0224394D01*
X0297059Y0198606D01*
X0314559Y0198606D01*
X0314587Y0194965D02*
X0292630Y0194965D01*
X0292630Y0228035D01*
X0313622Y0228035D01*
X0313622Y0226854D01*
X0319445Y0226854D01*
X0319445Y0228035D01*
X0339587Y0228035D01*
X0248496Y0189217D02*
X0248496Y0153783D01*
X0235504Y0153783D01*
X0235504Y0189217D01*
X0248496Y0189217D01*
X0218496Y0184217D02*
X0218496Y0148783D01*
X0205504Y0148783D01*
X0205504Y0184217D01*
X0218496Y0184217D01*
X0188496Y0184217D02*
X0188496Y0148783D01*
X0175504Y0148783D01*
X0175504Y0184217D01*
X0188496Y0184217D01*
X0134717Y0127996D02*
X0099283Y0127996D01*
X0099283Y0115004D01*
X0134717Y0115004D01*
X0134717Y0127996D01*
X0319283Y0132996D02*
X0319283Y0120004D01*
X0354717Y0120004D01*
X0354717Y0132996D01*
X0319283Y0132996D01*
X0319283Y0140004D02*
X0354717Y0140004D01*
X0354717Y0152996D01*
X0319283Y0152996D01*
X0319283Y0140004D01*
D17*
X0373102Y0054217D02*
X0373104Y0054286D01*
X0373110Y0054354D01*
X0373120Y0054422D01*
X0373134Y0054489D01*
X0373152Y0054556D01*
X0373173Y0054621D01*
X0373199Y0054685D01*
X0373228Y0054747D01*
X0373260Y0054807D01*
X0373296Y0054866D01*
X0373336Y0054922D01*
X0373378Y0054976D01*
X0373424Y0055027D01*
X0373473Y0055076D01*
X0373524Y0055122D01*
X0373578Y0055164D01*
X0373634Y0055204D01*
X0373692Y0055240D01*
X0373753Y0055272D01*
X0373815Y0055301D01*
X0373879Y0055327D01*
X0373944Y0055348D01*
X0374011Y0055366D01*
X0374078Y0055380D01*
X0374146Y0055390D01*
X0374214Y0055396D01*
X0374283Y0055398D01*
X0374352Y0055396D01*
X0374420Y0055390D01*
X0374488Y0055380D01*
X0374555Y0055366D01*
X0374622Y0055348D01*
X0374687Y0055327D01*
X0374751Y0055301D01*
X0374813Y0055272D01*
X0374873Y0055240D01*
X0374932Y0055204D01*
X0374988Y0055164D01*
X0375042Y0055122D01*
X0375093Y0055076D01*
X0375142Y0055027D01*
X0375188Y0054976D01*
X0375230Y0054922D01*
X0375270Y0054866D01*
X0375306Y0054807D01*
X0375338Y0054747D01*
X0375367Y0054685D01*
X0375393Y0054621D01*
X0375414Y0054556D01*
X0375432Y0054489D01*
X0375446Y0054422D01*
X0375456Y0054354D01*
X0375462Y0054286D01*
X0375464Y0054217D01*
X0375462Y0054148D01*
X0375456Y0054080D01*
X0375446Y0054012D01*
X0375432Y0053945D01*
X0375414Y0053878D01*
X0375393Y0053813D01*
X0375367Y0053749D01*
X0375338Y0053687D01*
X0375306Y0053626D01*
X0375270Y0053568D01*
X0375230Y0053512D01*
X0375188Y0053458D01*
X0375142Y0053407D01*
X0375093Y0053358D01*
X0375042Y0053312D01*
X0374988Y0053270D01*
X0374932Y0053230D01*
X0374874Y0053194D01*
X0374813Y0053162D01*
X0374751Y0053133D01*
X0374687Y0053107D01*
X0374622Y0053086D01*
X0374555Y0053068D01*
X0374488Y0053054D01*
X0374420Y0053044D01*
X0374352Y0053038D01*
X0374283Y0053036D01*
X0374214Y0053038D01*
X0374146Y0053044D01*
X0374078Y0053054D01*
X0374011Y0053068D01*
X0373944Y0053086D01*
X0373879Y0053107D01*
X0373815Y0053133D01*
X0373753Y0053162D01*
X0373692Y0053194D01*
X0373634Y0053230D01*
X0373578Y0053270D01*
X0373524Y0053312D01*
X0373473Y0053358D01*
X0373424Y0053407D01*
X0373378Y0053458D01*
X0373336Y0053512D01*
X0373296Y0053568D01*
X0373260Y0053626D01*
X0373228Y0053687D01*
X0373199Y0053749D01*
X0373173Y0053813D01*
X0373152Y0053878D01*
X0373134Y0053945D01*
X0373120Y0054012D01*
X0373110Y0054080D01*
X0373104Y0054148D01*
X0373102Y0054217D01*
X0408536Y0054217D02*
X0408538Y0054286D01*
X0408544Y0054354D01*
X0408554Y0054422D01*
X0408568Y0054489D01*
X0408586Y0054556D01*
X0408607Y0054621D01*
X0408633Y0054685D01*
X0408662Y0054747D01*
X0408694Y0054807D01*
X0408730Y0054866D01*
X0408770Y0054922D01*
X0408812Y0054976D01*
X0408858Y0055027D01*
X0408907Y0055076D01*
X0408958Y0055122D01*
X0409012Y0055164D01*
X0409068Y0055204D01*
X0409126Y0055240D01*
X0409187Y0055272D01*
X0409249Y0055301D01*
X0409313Y0055327D01*
X0409378Y0055348D01*
X0409445Y0055366D01*
X0409512Y0055380D01*
X0409580Y0055390D01*
X0409648Y0055396D01*
X0409717Y0055398D01*
X0409786Y0055396D01*
X0409854Y0055390D01*
X0409922Y0055380D01*
X0409989Y0055366D01*
X0410056Y0055348D01*
X0410121Y0055327D01*
X0410185Y0055301D01*
X0410247Y0055272D01*
X0410307Y0055240D01*
X0410366Y0055204D01*
X0410422Y0055164D01*
X0410476Y0055122D01*
X0410527Y0055076D01*
X0410576Y0055027D01*
X0410622Y0054976D01*
X0410664Y0054922D01*
X0410704Y0054866D01*
X0410740Y0054807D01*
X0410772Y0054747D01*
X0410801Y0054685D01*
X0410827Y0054621D01*
X0410848Y0054556D01*
X0410866Y0054489D01*
X0410880Y0054422D01*
X0410890Y0054354D01*
X0410896Y0054286D01*
X0410898Y0054217D01*
X0410896Y0054148D01*
X0410890Y0054080D01*
X0410880Y0054012D01*
X0410866Y0053945D01*
X0410848Y0053878D01*
X0410827Y0053813D01*
X0410801Y0053749D01*
X0410772Y0053687D01*
X0410740Y0053626D01*
X0410704Y0053568D01*
X0410664Y0053512D01*
X0410622Y0053458D01*
X0410576Y0053407D01*
X0410527Y0053358D01*
X0410476Y0053312D01*
X0410422Y0053270D01*
X0410366Y0053230D01*
X0410308Y0053194D01*
X0410247Y0053162D01*
X0410185Y0053133D01*
X0410121Y0053107D01*
X0410056Y0053086D01*
X0409989Y0053068D01*
X0409922Y0053054D01*
X0409854Y0053044D01*
X0409786Y0053038D01*
X0409717Y0053036D01*
X0409648Y0053038D01*
X0409580Y0053044D01*
X0409512Y0053054D01*
X0409445Y0053068D01*
X0409378Y0053086D01*
X0409313Y0053107D01*
X0409249Y0053133D01*
X0409187Y0053162D01*
X0409126Y0053194D01*
X0409068Y0053230D01*
X0409012Y0053270D01*
X0408958Y0053312D01*
X0408907Y0053358D01*
X0408858Y0053407D01*
X0408812Y0053458D01*
X0408770Y0053512D01*
X0408730Y0053568D01*
X0408694Y0053626D01*
X0408662Y0053687D01*
X0408633Y0053749D01*
X0408607Y0053813D01*
X0408586Y0053878D01*
X0408568Y0053945D01*
X0408554Y0054012D01*
X0408544Y0054080D01*
X0408538Y0054148D01*
X0408536Y0054217D01*
X0408536Y0018783D02*
X0408538Y0018852D01*
X0408544Y0018920D01*
X0408554Y0018988D01*
X0408568Y0019055D01*
X0408586Y0019122D01*
X0408607Y0019187D01*
X0408633Y0019251D01*
X0408662Y0019313D01*
X0408694Y0019373D01*
X0408730Y0019432D01*
X0408770Y0019488D01*
X0408812Y0019542D01*
X0408858Y0019593D01*
X0408907Y0019642D01*
X0408958Y0019688D01*
X0409012Y0019730D01*
X0409068Y0019770D01*
X0409126Y0019806D01*
X0409187Y0019838D01*
X0409249Y0019867D01*
X0409313Y0019893D01*
X0409378Y0019914D01*
X0409445Y0019932D01*
X0409512Y0019946D01*
X0409580Y0019956D01*
X0409648Y0019962D01*
X0409717Y0019964D01*
X0409786Y0019962D01*
X0409854Y0019956D01*
X0409922Y0019946D01*
X0409989Y0019932D01*
X0410056Y0019914D01*
X0410121Y0019893D01*
X0410185Y0019867D01*
X0410247Y0019838D01*
X0410307Y0019806D01*
X0410366Y0019770D01*
X0410422Y0019730D01*
X0410476Y0019688D01*
X0410527Y0019642D01*
X0410576Y0019593D01*
X0410622Y0019542D01*
X0410664Y0019488D01*
X0410704Y0019432D01*
X0410740Y0019373D01*
X0410772Y0019313D01*
X0410801Y0019251D01*
X0410827Y0019187D01*
X0410848Y0019122D01*
X0410866Y0019055D01*
X0410880Y0018988D01*
X0410890Y0018920D01*
X0410896Y0018852D01*
X0410898Y0018783D01*
X0410896Y0018714D01*
X0410890Y0018646D01*
X0410880Y0018578D01*
X0410866Y0018511D01*
X0410848Y0018444D01*
X0410827Y0018379D01*
X0410801Y0018315D01*
X0410772Y0018253D01*
X0410740Y0018192D01*
X0410704Y0018134D01*
X0410664Y0018078D01*
X0410622Y0018024D01*
X0410576Y0017973D01*
X0410527Y0017924D01*
X0410476Y0017878D01*
X0410422Y0017836D01*
X0410366Y0017796D01*
X0410308Y0017760D01*
X0410247Y0017728D01*
X0410185Y0017699D01*
X0410121Y0017673D01*
X0410056Y0017652D01*
X0409989Y0017634D01*
X0409922Y0017620D01*
X0409854Y0017610D01*
X0409786Y0017604D01*
X0409717Y0017602D01*
X0409648Y0017604D01*
X0409580Y0017610D01*
X0409512Y0017620D01*
X0409445Y0017634D01*
X0409378Y0017652D01*
X0409313Y0017673D01*
X0409249Y0017699D01*
X0409187Y0017728D01*
X0409126Y0017760D01*
X0409068Y0017796D01*
X0409012Y0017836D01*
X0408958Y0017878D01*
X0408907Y0017924D01*
X0408858Y0017973D01*
X0408812Y0018024D01*
X0408770Y0018078D01*
X0408730Y0018134D01*
X0408694Y0018192D01*
X0408662Y0018253D01*
X0408633Y0018315D01*
X0408607Y0018379D01*
X0408586Y0018444D01*
X0408568Y0018511D01*
X0408554Y0018578D01*
X0408544Y0018646D01*
X0408538Y0018714D01*
X0408536Y0018783D01*
X0373102Y0018783D02*
X0373104Y0018852D01*
X0373110Y0018920D01*
X0373120Y0018988D01*
X0373134Y0019055D01*
X0373152Y0019122D01*
X0373173Y0019187D01*
X0373199Y0019251D01*
X0373228Y0019313D01*
X0373260Y0019373D01*
X0373296Y0019432D01*
X0373336Y0019488D01*
X0373378Y0019542D01*
X0373424Y0019593D01*
X0373473Y0019642D01*
X0373524Y0019688D01*
X0373578Y0019730D01*
X0373634Y0019770D01*
X0373692Y0019806D01*
X0373753Y0019838D01*
X0373815Y0019867D01*
X0373879Y0019893D01*
X0373944Y0019914D01*
X0374011Y0019932D01*
X0374078Y0019946D01*
X0374146Y0019956D01*
X0374214Y0019962D01*
X0374283Y0019964D01*
X0374352Y0019962D01*
X0374420Y0019956D01*
X0374488Y0019946D01*
X0374555Y0019932D01*
X0374622Y0019914D01*
X0374687Y0019893D01*
X0374751Y0019867D01*
X0374813Y0019838D01*
X0374873Y0019806D01*
X0374932Y0019770D01*
X0374988Y0019730D01*
X0375042Y0019688D01*
X0375093Y0019642D01*
X0375142Y0019593D01*
X0375188Y0019542D01*
X0375230Y0019488D01*
X0375270Y0019432D01*
X0375306Y0019373D01*
X0375338Y0019313D01*
X0375367Y0019251D01*
X0375393Y0019187D01*
X0375414Y0019122D01*
X0375432Y0019055D01*
X0375446Y0018988D01*
X0375456Y0018920D01*
X0375462Y0018852D01*
X0375464Y0018783D01*
X0375462Y0018714D01*
X0375456Y0018646D01*
X0375446Y0018578D01*
X0375432Y0018511D01*
X0375414Y0018444D01*
X0375393Y0018379D01*
X0375367Y0018315D01*
X0375338Y0018253D01*
X0375306Y0018192D01*
X0375270Y0018134D01*
X0375230Y0018078D01*
X0375188Y0018024D01*
X0375142Y0017973D01*
X0375093Y0017924D01*
X0375042Y0017878D01*
X0374988Y0017836D01*
X0374932Y0017796D01*
X0374874Y0017760D01*
X0374813Y0017728D01*
X0374751Y0017699D01*
X0374687Y0017673D01*
X0374622Y0017652D01*
X0374555Y0017634D01*
X0374488Y0017620D01*
X0374420Y0017610D01*
X0374352Y0017604D01*
X0374283Y0017602D01*
X0374214Y0017604D01*
X0374146Y0017610D01*
X0374078Y0017620D01*
X0374011Y0017634D01*
X0373944Y0017652D01*
X0373879Y0017673D01*
X0373815Y0017699D01*
X0373753Y0017728D01*
X0373692Y0017760D01*
X0373634Y0017796D01*
X0373578Y0017836D01*
X0373524Y0017878D01*
X0373473Y0017924D01*
X0373424Y0017973D01*
X0373378Y0018024D01*
X0373336Y0018078D01*
X0373296Y0018134D01*
X0373260Y0018192D01*
X0373228Y0018253D01*
X0373199Y0018315D01*
X0373173Y0018379D01*
X0373152Y0018444D01*
X0373134Y0018511D01*
X0373120Y0018578D01*
X0373110Y0018646D01*
X0373104Y0018714D01*
X0373102Y0018783D01*
M02*
